<?xml version="1.0" encoding="iso-8859-1"?>
<!-- Generator: Adobe Illustrator 17.1.0, SVG Export Plug-In . SVG Version: 6.00 Build 0)  -->
<!DOCTYPE svg PUBLIC "-//W3C//DTD SVG 1.1//EN" "http://www.w3.org/Graphics/SVG/1.1/DTD/svg11.dtd">
<svg version="1.1" id="Capa_1" xmlns="http://www.w3.org/2000/svg" xmlns:xlink="http://www.w3.org/1999/xlink" x="0px" y="0px"
	 viewBox="0 0 205.203 205.203" style="enable-background:new 0 0 205.203 205.203;" xml:space="preserve">
<path d="M142.766,158.379c-0.733,0-1.128-0.021-1.128-0.021l-15.241-0.229H99.418c-0.591,0-1.152-0.262-1.532-0.715
	c-0.38-0.452-0.54-1.05-0.438-1.633l18.917-107.286c0.169-0.955,0.999-1.652,1.97-1.652h42.326c0.131-0.006,0.491-0.018,1.046-0.018
	c5.274,0,23.358,1.039,34.583,14.416c8.204,9.777,10.762,23.823,7.602,41.746C194.597,155.706,151.342,158.379,142.766,158.379z
	 M101.802,154.129h24.625l15.345,0.231c0.1,0.004,0.42,0.019,0.994,0.019c8.016,0,48.446-2.513,57.187-52.087
	c2.945-16.703,0.682-29.65-6.727-38.479c-10.373-12.361-28.075-12.987-31.519-12.987c-0.559,0-0.878,0.014-0.904,0.016l-40.79,0.002
	L101.802,154.129z M56.561,158.362H2c-0.591,0-1.152-0.262-1.532-0.715c-0.38-0.452-0.54-1.05-0.438-1.633l4.739-26.877
	c0.168-0.955,0.999-1.652,1.97-1.652h44.085c4.851,0,9.495-3.957,10.353-8.822l1.071-6.072H10.071c-0.591,0-1.152-0.262-1.532-0.715
	c-0.38-0.452-0.54-1.05-0.438-1.633l2.858-16.21c0.123-0.696,0.605-1.277,1.268-1.525l39.521-14.807H16.223
	c-0.591,0-1.152-0.262-1.532-0.715c-0.38-0.452-0.54-1.05-0.438-1.633l4.739-26.877c0.168-0.955,0.999-1.652,1.97-1.652h81.438
	c0.591,0,1.152,0.262,1.532,0.715c0.38,0.452,0.54,1.05,0.438,1.633L99.63,76.049c-0.123,0.695-0.603,1.274-1.263,1.523
	L59.14,92.381h14.477c0.076,0,0.151,0.004,0.225,0.013h20.523c0.591,0,1.152,0.262,1.532,0.715c0.38,0.452,0.54,1.05,0.438,1.633
	l-6.188,35.092C87.372,145.563,72.306,158.362,56.561,158.362z M4.383,154.362h52.178c13.894,0,27.193-11.315,29.646-25.224
	l5.774-32.745H73.614c-0.076,0-0.151-0.004-0.225-0.013h-25.21c-0.966,0-1.794-0.69-1.967-1.641c-0.174-0.951,0.357-1.89,1.261-2.23
	l48.416-18.277l4.128-23.408H22.64l-4.034,22.877h44.181c0.967,0,1.795,0.692,1.968,1.644c0.173,0.951-0.36,1.89-1.266,2.229
	L14.701,95.853l-2.246,12.738h52.177c0.591,0,1.152,0.262,1.532,0.715c0.38,0.452,0.54,1.05,0.438,1.633l-1.485,8.42
	c-1.179,6.687-7.59,12.127-14.292,12.127H8.418L4.383,154.362z M135.983,131.354C135.983,131.354,135.983,131.354,135.983,131.354
	c-3.025-0.001-4.944-0.216-5.024-0.225c-0.548-0.063-1.046-0.349-1.376-0.791c-0.33-0.441-0.463-1-0.367-1.544l9.4-53.313
	c0.154-0.875,0.868-1.543,1.751-1.641c0.281-0.03,22.526-2.472,32.462,9.368c4.135,4.928,5.508,11.53,4.081,19.624
	C172.371,128.574,146.778,131.354,135.983,131.354z M133.541,127.302c0.681,0.03,1.504,0.053,2.441,0.053
	c9.784,0,32.976-2.457,36.988-25.217c1.212-6.874,0.134-12.378-3.206-16.357c-7.135-8.504-22.628-8.348-27.479-8.075
	L133.541,127.302z"/>
<g>
</g>
<g>
</g>
<g>
</g>
<g>
</g>
<g>
</g>
<g>
</g>
<g>
</g>
<g>
</g>
<g>
</g>
<g>
</g>
<g>
</g>
<g>
</g>
<g>
</g>
<g>
</g>
<g>
</g>
</svg>
