<?xml version="1.0" encoding="iso-8859-1"?>
<!-- Generator: Adobe Illustrator 17.1.0, SVG Export Plug-In . SVG Version: 6.00 Build 0)  -->
<!DOCTYPE svg PUBLIC "-//W3C//DTD SVG 1.1//EN" "http://www.w3.org/Graphics/SVG/1.1/DTD/svg11.dtd">
<svg version="1.1" id="Capa_1" xmlns="http://www.w3.org/2000/svg" xmlns:xlink="http://www.w3.org/1999/xlink" x="0px" y="0px"
	 viewBox="0 0 197.5 197.5" style="enable-background:new 0 0 197.5 197.5;" xml:space="preserve">
<path d="M177.979,153.503c-0.729,0-1.432-0.4-1.785-1.095l-11.719-23.094c-7.031,4.348-15.312,6.858-24.168,6.858
	c-11.723,0-22.437-4.399-30.579-11.634h-74.28l-14.143,27.869c-0.501,0.985-1.705,1.376-2.689,0.878
	c-0.985-0.5-1.378-1.704-0.878-2.689l13.224-26.059H13.603C6.102,124.538,0,118.436,0,110.935V69.234
	c0-7.5,6.102-13.603,13.603-13.603h96.125c8.142-7.235,18.856-11.634,30.579-11.634c11.723,0,22.437,4.399,30.579,11.634h13.011
	c7.501,0,13.603,6.103,13.603,13.603v41.701c0,7.501-6.102,13.603-13.603,13.603h-13.011c-0.989,0.879-2.015,1.715-3.077,2.507
	l11.952,23.552c0.5,0.985,0.106,2.189-0.878,2.689C178.593,153.433,178.284,153.503,177.979,153.503z M105.178,113.241
	c7.538,11.398,20.47,18.931,35.129,18.931c14.67,0,27.612-7.545,35.148-18.958c4.479-6.815,6.939-14.862,6.939-23.129
	s-2.461-16.314-6.94-23.129c-7.536-11.413-20.478-18.958-35.147-18.958c-14.659,0-27.59,7.532-35.128,18.93
	c-4.49,6.821-6.958,14.879-6.958,23.158C98.22,98.363,100.688,106.421,105.178,113.241z M174.889,120.538h9.008
	c5.295,0,9.603-4.308,9.603-9.603V69.234c0-5.295-4.308-9.603-9.603-9.603h-9.008c1.477,1.68,2.825,3.46,4.035,5.323
	c4.723,7.233,7.47,15.866,7.47,25.131s-2.748,17.899-7.471,25.132C177.713,117.08,176.366,118.859,174.889,120.538z M13.603,59.631
	C8.308,59.631,4,63.939,4,69.234v41.701c0,5.295,4.308,9.603,9.603,9.603h92.123c-1.47-1.672-2.811-3.441-4.017-5.294
	c-4.734-7.238-7.489-15.884-7.489-25.159s2.754-17.919,7.488-25.158c1.207-1.854,2.547-3.624,4.018-5.296H13.603z M140.307,124.621
	c-19.043,0-34.537-15.493-34.537-34.537s15.493-34.537,34.537-34.537s34.537,15.493,34.537,34.537S159.351,124.621,140.307,124.621z
	 M140.307,59.548c-16.838,0-30.537,13.699-30.537,30.537s13.699,30.537,30.537,30.537s30.537-13.699,30.537-30.537
	S157.145,59.548,140.307,59.548z M140.307,116.63c-14.637,0-26.545-11.908-26.545-26.545s11.908-26.545,26.545-26.545
	c14.637,0,26.545,11.908,26.545,26.545S154.944,116.63,140.307,116.63z M140.307,67.539c-12.431,0-22.545,10.114-22.545,22.545
	s10.114,22.545,22.545,22.545c12.432,0,22.545-10.114,22.545-22.545S152.739,67.539,140.307,67.539z M140.307,108.321
	c-10.055,0-18.236-8.181-18.236-18.236c0-10.056,8.181-18.236,18.236-18.236c1.87,0,3.722,0.286,5.503,0.85
	c0.6,0.19,1.075,0.651,1.284,1.244c0.208,0.594,0.125,1.251-0.225,1.774c-0.586,0.876-0.896,1.898-0.896,2.955
	c0,2.938,2.391,5.328,5.329,5.328c1.118,0,2.192-0.349,3.107-1.008c0.51-0.367,1.164-0.473,1.762-0.287
	c0.6,0.187,1.078,0.644,1.29,1.235c0.718,2.004,1.082,4.071,1.082,6.145C158.543,100.14,150.363,108.321,140.307,108.321z
	 M140.307,75.848c-7.85,0-14.236,6.386-14.236,14.236c0,7.85,6.386,14.236,14.236,14.236c7.85,0,14.236-6.386,14.236-14.236
	c0-0.862-0.082-1.725-0.243-2.581c-0.958,0.327-1.967,0.495-2.998,0.495c-5.144,0-9.329-4.185-9.329-9.328
	c0-0.914,0.132-1.813,0.39-2.674C141.685,75.898,140.998,75.848,140.307,75.848z M48.325,108.321c-1.104,0-2-0.896-2-2V73.848
	c0-1.104,0.896-2,2-2s2,0.896,2,2v32.472C50.325,107.425,49.429,108.321,48.325,108.321z M33.668,108.321c-1.104,0-2-0.896-2-2
	V73.848c0-1.104,0.896-2,2-2s2,0.896,2,2v32.472C35.668,107.425,34.773,108.321,33.668,108.321z M19.012,108.321
	c-1.104,0-2-0.896-2-2V73.848c0-1.104,0.896-2,2-2s2,0.896,2,2v32.472C21.012,107.425,20.116,108.321,19.012,108.321z"/>
<g>
</g>
<g>
</g>
<g>
</g>
<g>
</g>
<g>
</g>
<g>
</g>
<g>
</g>
<g>
</g>
<g>
</g>
<g>
</g>
<g>
</g>
<g>
</g>
<g>
</g>
<g>
</g>
<g>
</g>
</svg>
