<?xml version="1.0" encoding="iso-8859-1"?>
<!-- Generator: Adobe Illustrator 17.1.0, SVG Export Plug-In . SVG Version: 6.00 Build 0)  -->
<!DOCTYPE svg PUBLIC "-//W3C//DTD SVG 1.1//EN" "http://www.w3.org/Graphics/SVG/1.1/DTD/svg11.dtd">
<svg version="1.1" id="Capa_1" xmlns="http://www.w3.org/2000/svg" xmlns:xlink="http://www.w3.org/1999/xlink" x="0px" y="0px"
	 viewBox="0 0 191.116 191.116" style="enable-background:new 0 0 191.116 191.116;" xml:space="preserve">
<path d="M95.558,191.116C42.867,191.116,0,148.249,0,95.558S42.867,0,95.558,0c52.691,0,95.559,42.867,95.559,95.558
	S148.249,191.116,95.558,191.116z M95.558,4C45.072,4,4,45.073,4,95.558s41.072,91.558,91.558,91.558s91.559-41.073,91.559-91.558
	S146.043,4,95.558,4z M95.558,179.881c-1.104,0-2-0.896-2-2v-36.35c0-1.104,0.896-2,2-2s2,0.896,2,2v34.325
	c42.01-1.047,75.986-35.023,77.033-77.033h-33.613c-1.104,0-2-0.896-2-2s0.896-2,2-2h35.639c1.104,0,2,0.896,2,2
	C178.616,142.622,141.356,179.881,95.558,179.881z M95.558,130.517c-19.276,0-34.958-15.682-34.958-34.958S76.281,60.6,95.558,60.6
	s34.959,15.682,34.959,34.958S114.834,130.517,95.558,130.517z M95.558,64.6C78.487,64.6,64.6,78.487,64.6,95.558
	s13.888,30.958,30.958,30.958c17.071,0,30.959-13.888,30.959-30.958S112.629,64.6,95.558,64.6z M95.558,114.308
	c-10.339,0-18.75-8.411-18.75-18.75s8.411-18.75,18.75-18.75s18.75,8.411,18.75,18.75S105.896,114.308,95.558,114.308z
	 M95.558,80.808c-8.133,0-14.75,6.617-14.75,14.75s6.617,14.75,14.75,14.75s14.75-6.617,14.75-14.75S103.69,80.808,95.558,80.808z
	 M50.139,97.558H14.5c-1.104,0-2-0.896-2-2C12.5,49.76,49.76,12.5,95.558,12.5c1.104,0,2,0.896,2,2v36.35c0,1.104-0.896,2-2,2
	s-2-0.896-2-2V16.525c-42.009,1.047-75.985,35.024-77.032,77.033h33.613c1.104,0,2,0.896,2,2S51.243,97.558,50.139,97.558z"/>
<g>
</g>
<g>
</g>
<g>
</g>
<g>
</g>
<g>
</g>
<g>
</g>
<g>
</g>
<g>
</g>
<g>
</g>
<g>
</g>
<g>
</g>
<g>
</g>
<g>
</g>
<g>
</g>
<g>
</g>
</svg>
