<?xml version="1.0" encoding="iso-8859-1"?>
<!-- Generator: Adobe Illustrator 17.1.0, SVG Export Plug-In . SVG Version: 6.00 Build 0)  -->
<!DOCTYPE svg PUBLIC "-//W3C//DTD SVG 1.1//EN" "http://www.w3.org/Graphics/SVG/1.1/DTD/svg11.dtd">
<svg version="1.1" id="Capa_1" xmlns="http://www.w3.org/2000/svg" xmlns:xlink="http://www.w3.org/1999/xlink" x="0px" y="0px"
	 viewBox="0 0 212.96 212.96" style="enable-background:new 0 0 212.96 212.96;" xml:space="preserve">
<path d="M112.897,212.96h-12.834c-1.104,0-2-0.896-2-2v-12.293h-2.934c-1.104,0-2-0.896-2-2v-32.999
	c-22.689-5.929-39.482-26.603-39.482-51.125V79.333c0-1.104,0.896-2,2-2h35.688c1.104,0,2,0.896,2,2c0,1.686,0.319,3.299,0.9,4.782
	c0.021,0.044,0.042,0.089,0.061,0.135c0.286,0.709,0.629,1.382,1.02,2.016c2.31,3.704,6.409,6.182,11.079,6.211
	c0.003-0.001,0.007,0,0.011,0c0.005,0,0.011,0,0.017,0c0.006,0,0.012,0,0.014,0c0.007,0,0.011,0,0.016,0s0.006,0,0.016,0
	c0.008,0,0.02,0,0.027,0c0.009,0,0.011,0,0.016,0c0.005,0,0.009,0,0.016,0c0.002,0,0.008,0,0.014,0c0.006,0,0.01,0,0.017,0
	c0.004,0,0.006-0.001,0.011,0c4.67-0.03,8.77-2.508,11.079-6.211c0.391-0.634,0.733-1.307,1.02-2.016
	c0.019-0.046,0.039-0.091,0.061-0.135c0.581-1.482,0.9-3.096,0.9-4.782c0-1.104,0.896-2,2-2h35.688c1.104,0,2,0.896,2,2v33.209
	c0,24.522-16.793,45.196-39.482,51.125v32.999c0,1.104-0.896,2-2,2h-2.934v12.293C114.897,212.064,114.001,212.96,112.897,212.96z
	 M102.063,208.96h8.834v-10.21h-8.834V208.96z M97.129,194.667h18.701v-30.119c-6.072,1.089-12.629,1.089-18.701,0V194.667z
	 M57.647,81.333v31.209c0,26.927,21.906,48.833,48.833,48.833s48.833-21.907,48.833-48.833V81.333h-31.804
	c-0.065,0.564-0.159,1.12-0.278,1.667h24.397c1.104,0,2,0.896,2,2v26.959c0,23.792-19.356,43.148-43.148,43.148
	s-43.148-19.356-43.148-43.148V85c0-1.104,0.896-2,2-2h24.397c-0.119-0.546-0.213-1.102-0.278-1.667H57.647z M67.332,87v24.959
	c0,21.586,17.562,39.148,39.148,39.148s39.148-17.562,39.148-39.148V87h-23.814c-0.157,0.313-0.324,0.621-0.499,0.923
	c-3.017,5.233-8.563,8.516-14.724,8.555h-0.001c-0.007,0-0.015-0.001-0.018,0c-0.01,0.001-0.019,0.001-0.026,0
	c-0.013,0-0.017,0-0.023,0c-0.011,0.001-0.014,0-0.02,0c-0.009,0-0.016,0-0.023,0s-0.017,0-0.023,0c-0.006,0-0.007,0.001-0.02,0
	c-0.006,0-0.013,0-0.023,0c-0.007,0-0.016,0-0.026,0c-0.007-0.001-0.012,0-0.018,0h-0.001c-6.161-0.039-11.707-3.321-14.724-8.555
	c-0.175-0.302-0.342-0.61-0.499-0.923H67.332z M106.48,87.542c-4.526,0-8.209-3.682-8.209-8.208s3.683-8.208,8.209-8.208
	s8.209,3.682,8.209,8.208S111.006,87.542,106.48,87.542z M106.48,75.125c-2.321,0-4.209,1.888-4.209,4.208s1.888,4.208,4.209,4.208
	s4.209-1.888,4.209-4.208S108.801,75.125,106.48,75.125z M147.628,75.667h-27.441c-0.81,0-1.538-0.487-1.848-1.235
	c-1.994-4.818-6.649-7.931-11.859-7.931s-9.865,3.113-11.859,7.931c-0.31,0.748-1.038,1.235-1.848,1.235H65.332
	c-1.104,0-2-0.896-2-2V16.152C63.332,7.246,70.578,0,79.484,0h53.992c8.906,0,16.152,7.246,16.152,16.152v57.514
	C149.628,74.771,148.733,75.667,147.628,75.667z M121.465,71.667h24.163V16.152c0-6.306-4.828-11.505-10.981-12.096V18.5
	c0,4.136-3.364,7.5-7.5,7.5s-7.5-3.364-7.5-7.5V4h-5.667v14.5c0,4.136-3.364,7.5-7.5,7.5s-7.5-3.364-7.5-7.5V4h-5.667v14.5
	c0,4.136-3.364,7.5-7.5,7.5s-7.5-3.364-7.5-7.5V4.056C72.16,4.647,67.332,9.847,67.332,16.152v55.514h24.163
	c2.864-5.61,8.607-9.167,14.985-9.167S118.601,66.056,121.465,71.667z M123.647,4v14.5c0,1.93,1.57,3.5,3.5,3.5s3.5-1.57,3.5-3.5V4
	H123.647z M102.98,4v14.5c0,1.93,1.57,3.5,3.5,3.5s3.5-1.57,3.5-3.5V4H102.98z M82.313,4v14.5c0,1.93,1.57,3.5,3.5,3.5
	s3.5-1.57,3.5-3.5V4H82.313z"/>
<g>
</g>
<g>
</g>
<g>
</g>
<g>
</g>
<g>
</g>
<g>
</g>
<g>
</g>
<g>
</g>
<g>
</g>
<g>
</g>
<g>
</g>
<g>
</g>
<g>
</g>
<g>
</g>
<g>
</g>
</svg>
