<?xml version="1.0" encoding="iso-8859-1"?>
<!-- Generator: Adobe Illustrator 17.1.0, SVG Export Plug-In . SVG Version: 6.00 Build 0)  -->
<!DOCTYPE svg PUBLIC "-//W3C//DTD SVG 1.1//EN" "http://www.w3.org/Graphics/SVG/1.1/DTD/svg11.dtd">
<svg version="1.1" id="Capa_1" xmlns="http://www.w3.org/2000/svg" xmlns:xlink="http://www.w3.org/1999/xlink" x="0px" y="0px"
	 viewBox="0 0 194.158 194.158" style="enable-background:new 0 0 194.158 194.158;" xml:space="preserve">
<path d="M160.396,194.158H33.762c-5.798,0-10.515-4.717-10.515-10.515V27.368c0-5.798,4.717-10.515,10.515-10.515h11.373V6.387
	C45.135,2.865,48,0,51.521,0s6.386,2.865,6.386,6.387v10.467h78.343V6.387c0-3.521,2.865-6.387,6.387-6.387s6.386,2.865,6.386,6.387
	v10.467h11.373c5.798,0,10.515,4.717,10.515,10.515v156.275C170.911,189.441,166.194,194.158,160.396,194.158z M27.247,48.865
	v134.778c0,3.592,2.923,6.515,6.515,6.515h126.634c3.592,0,6.515-2.923,6.515-6.515V48.865H27.247z M27.247,44.865h139.664V27.368
	c0-3.592-2.922-6.515-6.515-6.515h-11.373V31.32c0,3.521-2.865,6.387-6.386,6.387s-6.387-2.865-6.387-6.387V20.854H57.908V31.32
	c0,3.521-2.865,6.387-6.386,6.387s-6.387-2.865-6.387-6.387V20.854H33.762c-3.592,0-6.515,2.922-6.515,6.515V44.865z M140.25,31.32
	c0,1.316,1.071,2.387,2.387,2.387s2.386-1.071,2.386-2.387V6.387c0-1.316-1.07-2.387-2.386-2.387s-2.387,1.071-2.387,2.387V31.32z
	 M49.135,31.32c0,1.316,1.071,2.387,2.387,2.387s2.386-1.071,2.386-2.387V6.387c0-1.316-1.07-2.387-2.386-2.387
	s-2.387,1.071-2.387,2.387V31.32z M111.728,173.116c-9.95,0-18.044-8.094-18.044-18.044v-29.423c0-6.978,3.981-13.043,9.792-16.044
	c-5.811-3-9.792-9.066-9.792-16.044V80.874c0-9.949,8.094-18.044,18.044-18.044c9.949,0,18.044,8.095,18.044,18.044v12.688
	c0,6.978-3.981,13.043-9.792,16.044c5.811,3,9.792,9.066,9.792,16.044v29.423C129.771,165.021,121.677,173.116,111.728,173.116z
	 M111.728,111.605c-7.744,0-14.044,6.3-14.044,14.044v29.423c0,7.744,6.3,14.044,14.044,14.044s14.044-6.3,14.044-14.044v-29.423
	C125.771,117.905,119.471,111.605,111.728,111.605z M111.728,66.83c-7.744,0-14.044,6.3-14.044,14.044v12.688
	c0,7.744,6.3,14.044,14.044,14.044s14.044-6.3,14.044-14.044V80.874C125.771,73.13,119.471,66.83,111.728,66.83z M76.012,172.325
	c-1.104,0-2-0.896-2-2V69.658L62.26,81.41c-0.78,0.781-2.047,0.781-2.828,0c-0.781-0.781-0.781-2.047,0-2.828l15.166-15.166
	c0.571-0.573,1.433-0.745,2.179-0.434c0.748,0.31,1.235,1.039,1.235,1.848v105.496C78.012,171.43,77.116,172.325,76.012,172.325z"/>
<g>
</g>
<g>
</g>
<g>
</g>
<g>
</g>
<g>
</g>
<g>
</g>
<g>
</g>
<g>
</g>
<g>
</g>
<g>
</g>
<g>
</g>
<g>
</g>
<g>
</g>
<g>
</g>
<g>
</g>
</svg>
