<?xml version="1.0" encoding="iso-8859-1"?>
<!-- Generator: Adobe Illustrator 17.1.0, SVG Export Plug-In . SVG Version: 6.00 Build 0)  -->
<!DOCTYPE svg PUBLIC "-//W3C//DTD SVG 1.1//EN" "http://www.w3.org/Graphics/SVG/1.1/DTD/svg11.dtd">
<svg version="1.1" id="Capa_1" xmlns="http://www.w3.org/2000/svg" xmlns:xlink="http://www.w3.org/1999/xlink" x="0px" y="0px"
	 viewBox="0 0 184.808 184.808" style="enable-background:new 0 0 184.808 184.808;" xml:space="preserve">
<path d="M146.35,172.339H24.56c-3.968,0-7.196-3.228-7.196-7.196v-60.031c0-3.968,3.228-7.196,7.196-7.196h1.68
	C10.777,90.869,0,75.265,0,57.193c0-24.661,20.063-44.724,44.723-44.724c20.053,0,37.066,13.267,42.724,31.484
	c5.657-18.217,22.67-31.484,42.723-31.484c24.661,0,44.724,20.063,44.724,44.724c0,18.27-11.012,34.016-26.747,40.95
	c3.101,0.8,5.399,3.622,5.399,6.969v12.481l28.425-13.102c0.62-0.286,1.342-0.235,1.916,0.132c0.575,0.368,0.922,1.003,0.922,1.685
	v57.64c0,0.682-0.347,1.317-0.922,1.685c-0.574,0.367-1.295,0.418-1.916,0.132l-28.425-13.102v12.481
	C153.545,169.111,150.317,172.339,146.35,172.339z M24.56,101.916c-1.762,0-3.196,1.434-3.196,3.196v60.031
	c0,1.762,1.434,3.196,3.196,3.196h121.79c1.762,0,3.196-1.434,3.196-3.196v-60.031c0-1.763-1.434-3.196-3.196-3.196H24.56z
	 M153.545,148.257l27.262,12.566v-51.392l-27.262,12.566V148.257z M130.17,97.916c22.455,0,40.724-18.269,40.724-40.723
	c0-22.455-18.269-40.724-40.724-40.724c-22.455,0-40.723,18.269-40.723,40.724C89.447,79.647,107.715,97.916,130.17,97.916z
	 M63.207,97.916h48.48c-11.521-5.25-20.441-15.251-24.24-27.484C83.648,82.664,74.728,92.665,63.207,97.916z M44.723,97.916
	c22.455,0,40.724-18.269,40.724-40.723c0-22.455-18.269-40.724-40.724-40.724C22.269,16.469,4,34.738,4,57.193
	C4,79.647,22.269,97.916,44.723,97.916z M79.333,153.046H37.484c-1.104,0-2-0.896-2-2V118.38c0-1.104,0.896-2,2-2h41.848
	c1.104,0,2,0.896,2,2v32.667C81.333,152.151,80.437,153.046,79.333,153.046z M39.484,149.046h37.848V120.38H39.484V149.046z
	 M130.155,90.966c-0.001,0-0.001,0-0.003,0c-7.821-0.001-15.454-2.749-21.493-7.737c-6.955-5.746-11.255-13.855-12.11-22.836
	c-0.854-8.98,1.839-17.756,7.584-24.71c6.439-7.793,15.935-12.262,26.054-12.262c7.821,0,15.454,2.748,21.493,7.737
	c14.356,11.861,16.386,33.19,4.525,47.546C149.767,86.496,140.272,90.966,130.155,90.966z M130.188,27.42
	c-8.921,0-17.293,3.94-22.97,10.81c-5.065,6.13-7.44,13.867-6.687,21.784c0.753,7.917,4.545,15.066,10.676,20.131
	c5.323,4.398,12.051,6.821,18.945,6.821c0,0,0.002,0,0.002,0c8.92,0,17.291-3.94,22.967-10.81
	c10.456-12.656,8.667-31.459-3.989-41.915C143.809,29.842,137.081,27.42,130.188,27.42z M44.723,90.965
	c-18.622,0-33.772-15.15-33.772-33.772s15.15-33.772,33.772-33.772s33.772,15.15,33.772,33.772S63.345,90.965,44.723,90.965z
	 M44.723,27.421c-16.417,0-29.772,13.355-29.772,29.772s13.355,29.772,29.772,29.772s29.772-13.355,29.772-29.772
	S61.14,27.421,44.723,27.421z M44.723,85.541c-5.521,0-10.013-4.492-10.013-10.014s4.492-10.013,10.013-10.013
	s10.014,4.492,10.014,10.013S50.245,85.541,44.723,85.541z M44.723,69.514c-3.316,0-6.013,2.697-6.013,6.013
	s2.697,6.014,6.013,6.014s6.014-2.698,6.014-6.014S48.039,69.514,44.723,69.514z M118.487,81.341L118.487,81.341
	c-2.319,0-4.583-0.814-6.374-2.294c-4.256-3.517-4.858-9.841-1.342-14.098c1.909-2.311,4.725-3.636,7.725-3.636
	c2.319,0,4.583,0.815,6.373,2.294c2.062,1.704,3.337,4.108,3.59,6.771c0.253,2.663-0.545,5.265-2.249,7.327
	C124.303,80.016,121.487,81.341,118.487,81.341z M118.497,65.314c-1.803,0-3.494,0.796-4.641,2.184
	c-2.112,2.556-1.75,6.354,0.806,8.466c1.075,0.889,2.434,1.378,3.826,1.378c1.803,0,3.494-0.796,4.64-2.184
	c1.023-1.238,1.503-2.801,1.351-4.4c-0.152-1.599-0.918-3.043-2.156-4.066C121.247,65.803,119.888,65.314,118.497,65.314z
	 M144.301,78.885L144.301,78.885c-2.319,0-4.583-0.815-6.374-2.294c-2.062-1.704-3.337-4.108-3.59-6.771
	c-0.253-2.663,0.545-5.265,2.249-7.327c1.909-2.311,4.724-3.636,7.724-3.636c2.319,0,4.583,0.815,6.374,2.294
	c2.062,1.704,3.337,4.108,3.59,6.771c0.253,2.663-0.545,5.265-2.249,7.327C150.116,77.559,147.3,78.885,144.301,78.885z
	 M144.31,62.857c-1.803,0-3.494,0.796-4.64,2.184c-1.023,1.238-1.503,2.801-1.351,4.4c0.152,1.599,0.918,3.043,2.156,4.066
	c1.075,0.889,2.434,1.378,3.826,1.378c1.803,0,3.494-0.796,4.64-2.184c1.023-1.238,1.503-2.801,1.351-4.4
	c-0.152-1.599-0.918-3.043-2.156-4.066C147.06,63.346,145.701,62.857,144.31,62.857z M63.059,67.206
	c-5.521,0-10.014-4.492-10.014-10.013s4.492-10.014,10.014-10.014s10.014,4.492,10.014,10.014S68.58,67.206,63.059,67.206z
	 M63.059,51.179c-3.316,0-6.014,2.698-6.014,6.014s2.698,6.013,6.014,6.013s6.014-2.697,6.014-6.013S66.375,51.179,63.059,51.179z
	 M26.388,67.206c-5.521,0-10.014-4.492-10.014-10.013s4.492-10.014,10.014-10.014s10.013,4.492,10.013,10.014
	S31.91,67.206,26.388,67.206z M26.388,51.179c-3.316,0-6.014,2.698-6.014,6.014s2.698,6.013,6.014,6.013s6.013-2.697,6.013-6.013
	S29.704,51.179,26.388,51.179z M116.031,55.528L116.031,55.528c-2.32,0-4.583-0.815-6.374-2.294
	c-2.062-1.704-3.337-4.108-3.59-6.771c-0.253-2.663,0.545-5.265,2.249-7.327c1.909-2.311,4.725-3.636,7.724-3.636
	c2.32,0,4.583,0.815,6.374,2.295c4.256,3.516,4.858,9.84,1.342,14.097C121.846,54.203,119.03,55.528,116.031,55.528z M116.04,39.5
	c-1.803,0-3.494,0.796-4.64,2.184c-2.112,2.557-1.751,6.354,0.806,8.466c1.075,0.889,2.434,1.378,3.826,1.378h0
	c1.802,0,3.493-0.796,4.64-2.184c2.112-2.556,1.75-6.354-0.806-8.466C118.79,39.99,117.431,39.5,116.04,39.5z M141.844,53.072
	L141.844,53.072c-2.32,0-4.583-0.815-6.374-2.294c-4.256-3.517-4.858-9.841-1.342-14.098c1.91-2.311,4.725-3.636,7.725-3.636
	c2.319,0,4.583,0.815,6.374,2.294c4.256,3.517,4.858,9.841,1.342,14.098C147.659,51.746,144.844,53.072,141.844,53.072z
	 M141.853,37.044c-1.803,0-3.494,0.796-4.641,2.184c-2.111,2.556-1.75,6.354,0.806,8.466c1.076,0.889,2.434,1.378,3.826,1.378
	c1.802,0,3.494-0.796,4.64-2.184c2.112-2.556,1.75-6.354-0.806-8.466C144.604,37.533,143.245,37.044,141.853,37.044z M44.723,48.871
	c-5.521,0-10.013-4.492-10.013-10.014s4.492-10.014,10.013-10.014s10.014,4.492,10.014,10.014S50.245,48.871,44.723,48.871z
	 M44.723,32.844c-3.316,0-6.013,2.698-6.013,6.014s2.697,6.014,6.013,6.014s6.014-2.698,6.014-6.014S48.039,32.844,44.723,32.844z"
	/>
<g>
</g>
<g>
</g>
<g>
</g>
<g>
</g>
<g>
</g>
<g>
</g>
<g>
</g>
<g>
</g>
<g>
</g>
<g>
</g>
<g>
</g>
<g>
</g>
<g>
</g>
<g>
</g>
<g>
</g>
</svg>
