<?xml version="1.0" encoding="iso-8859-1"?>
<!-- Generator: Adobe Illustrator 17.1.0, SVG Export Plug-In . SVG Version: 6.00 Build 0)  -->
<!DOCTYPE svg PUBLIC "-//W3C//DTD SVG 1.1//EN" "http://www.w3.org/Graphics/SVG/1.1/DTD/svg11.dtd">
<svg version="1.1" id="Capa_1" xmlns="http://www.w3.org/2000/svg" xmlns:xlink="http://www.w3.org/1999/xlink" x="0px" y="0px"
	 viewBox="0 0 212.053 212.053" style="enable-background:new 0 0 212.053 212.053;" xml:space="preserve">
<path d="M52.072,157.186c-0.367,0-0.733-0.101-1.056-0.301c-0.587-0.365-0.944-1.007-0.944-1.699v-64.33
	c0-0.691,0.357-1.334,0.944-1.699c0.587-0.365,1.321-0.401,1.941-0.095l18.478,9.125c0.682,0.337,1.114,1.032,1.114,1.793v3.817
	h14.648v-5.984c0-1.104,0.896-2,2-2h18.075v-4.098h-0.737l-43.162-1.018c-1.086-0.026-1.953-0.914-1.953-2V83.12
	c0-1.007,0.75-1.858,1.749-1.984l6.292-0.796v-7.357h-5.178c-0.869,3.01-3.65,5.218-6.937,5.218H11.667
	c-3.212,0-6.315-1.345-8.514-3.69c-2.229-2.378-3.34-5.485-3.128-8.75c0.396-6.108,5.655-10.894,11.973-10.894h45.35
	c3.621,0,6.627,2.68,7.141,6.16h4.974v-4.16c0-1.104,0.896-2,2-2H86.69c1.104,0,2,0.896,2,2v4.352
	c3.053,0.4,10.22,0.843,17.781-2.214c11.27-4.556,18.923-1.3,21.264,3.653c1.46,3.09,1.613,8.139,1.592,10.583l8.072,0.267
	c1.079,0.036,1.934,0.92,1.934,1.999v13.192c0,1.009-0.752,1.861-1.754,1.985l-6.458,0.8v4.33h12.456l4.091-4.09
	c0.375-0.375,0.884-0.586,1.414-0.586h42.369v-5.71c0-1.104,0.896-2,2-2h7.516c0.886,0,1.667,0.583,1.918,1.433l9.088,30.761
	c0.179,0.605,0.062,1.259-0.316,1.764s-0.971,0.803-1.602,0.803h-16.604c-1.104,0-2-0.896-2-2v-2.687h-4.896v29.708
	c0,1.104-0.896,2-2,2h-4.19l-10.136,10.136c-0.375,0.375-0.884,0.586-1.414,0.586H89.427c-0.53,0-1.039-0.211-1.414-0.586
	l-10.722-10.722c-0.163-0.163-0.295-0.351-0.392-0.555H72.55v1.992c0,0.761-0.432,1.456-1.114,1.793l-18.478,9.125
	C52.678,157.118,52.375,157.186,52.072,157.186z M54.072,94.075v57.893l14.478-7.149v-43.594L54.072,94.075z M90.256,151.932h77.728
	l10.136-10.136c0.375-0.375,0.884-0.586,1.414-0.586h3.019v-29.708c0-1.104,0.896-2,2-2h6.896V95.138h-41.541l-4.091,4.09
	c-0.375,0.375-0.884,0.586-1.414,0.586H129.12c-1.104,0-2-0.896-2-2v-8.098c0-1.009,0.752-1.861,1.754-1.985l6.458-0.8v-9.49
	l-26.796-0.885v5.546c0,1.104-0.896,2-2,2H86.69c-1.104,0-2-0.896-2-2V62.957c0-0.028,0-0.057,0-0.085v-4.004H73.463v4.16
	c0,1.104-0.896,2-2,2h-6.896v3.956h6.896c1.104,0,2,0.896,2,2v11.121c0,1.007-0.75,1.858-1.749,1.984l-6.292,0.796v1.863
	l41.162,0.971l2.69,0c1.104,0,2,0.896,2,2v8.098c0,1.104-0.896,2-2,2H91.199v5.984c0,1.104-0.896,2-2,2h-7.752v34.271
	c0,0.308-0.069,0.599-0.194,0.86L90.256,151.932z M72.55,140.07h4.155v-32.271H72.55V140.07z M195.449,114.188h11.928l-7.907-26.761
	h-4.021V114.188z M88.69,80.103h15.847V74.49c0-0.542,0.22-1.061,0.609-1.438c0.389-0.377,0.911-0.583,1.457-0.562l18.723,0.619
	c0.009-2.454-0.195-6.6-1.207-8.742c-1.305-2.762-6.683-5.48-16.148-1.654c-8.048,3.253-15.55,2.988-19.28,2.545V80.103z
	 M11.998,58.867c-4.215,0-7.721,3.142-7.981,7.152c-0.139,2.149,0.591,4.193,2.055,5.756c1.466,1.564,3.453,2.425,5.595,2.425
	h45.681c1.774,0,3.218-1.444,3.218-3.218v-8.897c0-1.774-1.444-3.218-3.218-3.218H11.998z M156.893,136.713H94.959
	c-1.104,0-2-0.896-2-2v-20.53c0-1.104,0.896-2,2-2h61.934c1.104,0,2,0.896,2,2v20.53
	C158.893,135.817,157.998,136.713,156.893,136.713z M96.959,132.713h57.934v-16.53H96.959V132.713z"/>
<g>
</g>
<g>
</g>
<g>
</g>
<g>
</g>
<g>
</g>
<g>
</g>
<g>
</g>
<g>
</g>
<g>
</g>
<g>
</g>
<g>
</g>
<g>
</g>
<g>
</g>
<g>
</g>
<g>
</g>
</svg>
