<?xml version="1.0" encoding="iso-8859-1"?>
<!-- Generator: Adobe Illustrator 17.1.0, SVG Export Plug-In . SVG Version: 6.00 Build 0)  -->
<!DOCTYPE svg PUBLIC "-//W3C//DTD SVG 1.1//EN" "http://www.w3.org/Graphics/SVG/1.1/DTD/svg11.dtd">
<svg version="1.1" id="Capa_1" xmlns="http://www.w3.org/2000/svg" xmlns:xlink="http://www.w3.org/1999/xlink" x="0px" y="0px"
	 viewBox="0 0 193.812 193.812" style="enable-background:new 0 0 193.812 193.812;" xml:space="preserve">
<path d="M165.736,193.812H153.96c-0.441,0-0.871-0.146-1.221-0.416l-55.834-43.043l-55.834,43.043
	c-0.35,0.27-0.779,0.416-1.221,0.416H28.075c-0.856,0-1.617-0.545-1.894-1.355c-0.275-0.81-0.006-1.706,0.673-2.229l60.888-46.938
	l-48.573-37.445h-4.428c-4.778,0-8.666-3.888-8.666-8.667v-0.741c0-4.779,3.888-8.667,8.666-8.667h3.109V49.75
	c-6.663-1.049-11.775-6.829-11.775-13.782V13.951C26.075,6.259,32.334,0,40.026,0h113.759c7.692,0,13.951,6.259,13.951,13.951
	v22.017c0,6.953-5.112,12.734-11.776,13.782v38.019h3.109c4.779,0,8.667,3.888,8.667,8.667v0.741c0,4.779-3.888,8.667-8.667,8.667
	h-4.428l-48.572,37.445l60.888,46.938c0.679,0.522,0.948,1.419,0.673,2.229C167.354,193.267,166.593,193.812,165.736,193.812z
	 M154.642,189.812h5.225l-58.293-44.938c-0.491-0.379-0.779-0.964-0.779-1.584s0.288-1.205,0.779-1.584l46.517-35.861h-5.224
	l-44.74,34.489c-0.719,0.555-1.723,0.555-2.441,0l-44.739-34.489h-5.225l46.518,35.861c0.491,0.379,0.779,0.964,0.779,1.584
	s-0.288,1.205-0.779,1.584l-58.293,44.938h5.224l56.516-43.568c0.719-0.555,1.723-0.555,2.441,0L154.642,189.812z M57.497,105.844
	l39.408,30.38l39.409-30.38H57.497z M153.96,101.844h5.109c2.573,0,4.667-2.094,4.667-4.667v-0.741c0-2.573-2.094-4.667-4.667-4.667
	H34.741c-2.573,0-4.666,2.094-4.666,4.667v0.741c0,2.573,2.093,4.667,4.666,4.667H153.96z M148.218,87.769h3.742v-37.85h-3.742
	V87.769z M49.594,87.769h94.624v-37.85H49.594V87.769z M41.851,87.769h3.743v-37.85h-3.743V87.769z M146.218,45.919h7.567
	c5.487,0,9.951-4.464,9.951-9.951V13.951c0-5.487-4.464-9.951-9.951-9.951H40.026c-5.487,0-9.951,4.464-9.951,9.951v22.017
	c0,5.487,4.464,9.951,9.951,9.951H146.218z M87.576,41.315c-0.414,0-0.827-0.129-1.176-0.382c-0.616-0.447-0.924-1.206-0.796-1.956
	l1.604-9.352l-6.794-6.622c-0.546-0.532-0.742-1.326-0.507-2.051c0.235-0.724,0.861-1.252,1.615-1.361l9.39-1.364l4.198-8.509
	c0.337-0.683,1.032-1.115,1.794-1.115c0.761,0,1.456,0.433,1.794,1.115l4.199,8.509l9.39,1.364c0.753,0.109,1.379,0.638,1.614,1.361
	c0.235,0.725,0.039,1.519-0.506,2.051l-6.794,6.622l1.604,9.352c0.128,0.75-0.181,1.509-0.796,1.956
	c-0.616,0.447-1.433,0.506-2.106,0.152l-8.398-4.415l-8.398,4.415C88.214,41.239,87.895,41.315,87.576,41.315z M96.905,32.411
	c0.319,0,0.64,0.076,0.931,0.229l5.742,3.019l-1.097-6.394c-0.11-0.648,0.104-1.311,0.575-1.771l4.646-4.527l-6.42-0.933
	c-0.651-0.095-1.214-0.504-1.505-1.095l-2.872-5.817l-2.87,5.817c-0.292,0.591-0.854,1-1.507,1.095l-6.42,0.933l4.646,4.527
	c0.472,0.46,0.687,1.122,0.576,1.771l-1.098,6.394l5.742-3.019C96.266,32.487,96.586,32.411,96.905,32.411z"/>
<g>
</g>
<g>
</g>
<g>
</g>
<g>
</g>
<g>
</g>
<g>
</g>
<g>
</g>
<g>
</g>
<g>
</g>
<g>
</g>
<g>
</g>
<g>
</g>
<g>
</g>
<g>
</g>
<g>
</g>
</svg>
