<?xml version="1.0" encoding="iso-8859-1"?>
<!-- Generator: Adobe Illustrator 17.1.0, SVG Export Plug-In . SVG Version: 6.00 Build 0)  -->
<!DOCTYPE svg PUBLIC "-//W3C//DTD SVG 1.1//EN" "http://www.w3.org/Graphics/SVG/1.1/DTD/svg11.dtd">
<svg version="1.1" id="Capa_1" xmlns="http://www.w3.org/2000/svg" xmlns:xlink="http://www.w3.org/1999/xlink" x="0px" y="0px"
	 viewBox="0 0 210.538 210.538" style="enable-background:new 0 0 210.538 210.538;" xml:space="preserve">
<path d="M189.513,193.103H21.025c-1.104,0-2-0.896-2-2v-59.236C7.745,128.523,0,118.248,0,106.35
	c0-14.693,11.954-26.647,26.647-26.647c0.438,0,0.873,0.011,1.306,0.031V68.158c0-27.969,22.754-50.723,50.723-50.723h53.187
	c27.969,0,50.723,22.754,50.723,50.723v11.575c0.433-0.021,0.868-0.031,1.306-0.031c14.693,0,26.647,11.954,26.647,26.647
	c0,11.899-7.745,22.174-19.025,25.517v59.236C191.513,192.207,190.617,193.103,189.513,193.103z M161.244,189.103h26.269v-58.774
	c0-0.93,0.64-1.736,1.545-1.947c10.292-2.405,17.48-11.465,17.48-22.031c0-12.488-10.159-22.647-22.647-22.647
	c-12.487,0-22.646,10.159-22.646,22.647V189.103z M53.295,189.103h103.949v-40.106H53.295V189.103z M23.025,189.103h26.27V106.35
	c0-12.488-10.159-22.647-22.647-22.647S4,93.861,4,106.35c0,10.566,7.188,19.626,17.48,22.031c0.905,0.211,1.545,1.018,1.545,1.947
	V189.103z M53.295,144.996h103.949v-15.498c0-6.893-5.607-12.5-12.5-12.5h-16.82c-0.03,0.001-0.061,0.001-0.093,0H81.888
	c-0.029,0.001-0.062,0.001-0.091,0H65.795c-6.893,0-12.5,5.607-12.5,12.5V144.996z M130.624,112.998h14.12
	c4.991,0,9.472,2.228,12.5,5.741v-12.39c0-12.877,9.181-23.65,21.341-26.117V68.158c0-25.763-20.96-46.723-46.723-46.723H78.676
	c-25.763,0-46.723,20.96-46.723,46.723v12.074c12.16,2.467,21.342,13.24,21.342,26.117v12.39c3.028-3.514,7.509-5.741,12.5-5.741
	h13.301L62.21,60.696c-0.339-1.051,0.237-2.178,1.289-2.518c1.054-0.34,2.179,0.238,2.518,1.289l17.282,53.53h19.561V46.245
	c0-1.104,0.896-2,2-2s2,0.896,2,2v66.753h19.562l17.281-53.53c0.339-1.05,1.464-1.629,2.518-1.289
	c1.052,0.34,1.628,1.467,1.289,2.518L130.624,112.998z"/>
<g>
</g>
<g>
</g>
<g>
</g>
<g>
</g>
<g>
</g>
<g>
</g>
<g>
</g>
<g>
</g>
<g>
</g>
<g>
</g>
<g>
</g>
<g>
</g>
<g>
</g>
<g>
</g>
<g>
</g>
</svg>
