<?xml version="1.0" encoding="iso-8859-1"?>
<!-- Generator: Adobe Illustrator 17.1.0, SVG Export Plug-In . SVG Version: 6.00 Build 0)  -->
<!DOCTYPE svg PUBLIC "-//W3C//DTD SVG 1.1//EN" "http://www.w3.org/Graphics/SVG/1.1/DTD/svg11.dtd">
<svg version="1.1" id="Capa_1" xmlns="http://www.w3.org/2000/svg" xmlns:xlink="http://www.w3.org/1999/xlink" x="0px" y="0px"
	 viewBox="0 0 193.625 193.625" style="enable-background:new 0 0 193.625 193.625;" xml:space="preserve">
<path d="M152.563,193.625H80.274c-1.104,0-2-0.896-2-2v-8.635c0-1.104,0.896-2,2-2h51.68v-53.259H46.507
	c-8.926,0-16.188-7.262-16.188-16.187v-2.089c0-8.926,7.262-16.188,16.188-16.188h85.813l1.55-15.28H80.274c-1.104,0-2-0.896-2-2
	v-8.619c0-1.104,0.896-2,2-2h54.877l5.602-55.204c0.627-6.174,6.093-10.736,12.388-10.106c6.202,0.631,10.735,6.188,10.106,12.39
	l-5.594,55.123c0,0.001,0,0.002,0,0.004l-0.874,8.613c0,0.001,0,0.001,0,0.002l-2.215,21.826v93.608
	C154.563,192.729,153.668,193.625,152.563,193.625z M82.274,189.625h68.289v-67.438c-2.97,3.396-7.333,5.545-12.188,5.545
	l-2.422,0.001v55.258c0,1.104-0.896,2-2,2h-51.68V189.625z M46.507,97.268c-6.72,0-12.188,5.467-12.188,12.188v2.089
	c0,6.72,5.467,12.187,12.188,12.187h90.988c7.207-0.087,13.068-6.021,13.068-13.231c0-7.296-5.936-13.231-13.232-13.231H46.507z
	 M137.331,93.268h1.044c4.855,0,9.218,2.148,12.188,5.545v-0.898c0-0.067,0.003-0.135,0.01-0.202l2.001-19.725h-14.684l-1.55,15.28
	H137.331z M136.084,73.988h16.897l0.468-4.619H82.274v4.619H136.084z M139.172,65.369h14.684l5.412-53.325
	c0.406-4.007-2.523-7.599-6.53-8.006c-4.065-0.407-7.599,2.54-8.004,6.531L139.172,65.369z"/>
<g>
</g>
<g>
</g>
<g>
</g>
<g>
</g>
<g>
</g>
<g>
</g>
<g>
</g>
<g>
</g>
<g>
</g>
<g>
</g>
<g>
</g>
<g>
</g>
<g>
</g>
<g>
</g>
<g>
</g>
</svg>
