<?xml version="1.0" encoding="iso-8859-1"?>
<!-- Generator: Adobe Illustrator 17.1.0, SVG Export Plug-In . SVG Version: 6.00 Build 0)  -->
<!DOCTYPE svg PUBLIC "-//W3C//DTD SVG 1.1//EN" "http://www.w3.org/Graphics/SVG/1.1/DTD/svg11.dtd">
<svg version="1.1" id="Capa_1" xmlns="http://www.w3.org/2000/svg" xmlns:xlink="http://www.w3.org/1999/xlink" x="0px" y="0px"
	 viewBox="0 0 207.333 207.333" style="enable-background:new 0 0 207.333 207.333;" xml:space="preserve">
<path d="M169.25,186.25c-1.104,0-2-0.896-2-2v-8.931h-61.583v8.931c0,1.104-0.896,2-2,2s-2-0.896-2-2v-8.931H40.444v8.931
	c0,1.104-0.896,2-2,2s-2-0.896-2-2v-45.931h-1.833c-1.104,0-2-0.896-2-2s0.896-2,2-2h7.667c1.104,0,2,0.896,2,2s-0.896,2-2,2h-1.833
	v33h61.222v-33h-1.833c-1.104,0-2-0.896-2-2s0.896-2,2-2h7.667c1.104,0,2,0.896,2,2s-0.896,2-2,2h-1.833v33h61.583v-33h-1.833
	c-1.104,0-2-0.896-2-2s0.896-2,2-2h7.666c1.104,0,2,0.896,2,2s-0.896,2-2,2h-1.833v45.931
	C171.25,185.354,170.354,186.25,169.25,186.25z M159.294,163.886h-46.2c-3.482,0-6.316-2.834-6.316-6.316v-1.333
	c0-2.537,1.504-4.73,3.667-5.733v-32.602c0-5.011,1.438-9.692,3.925-13.652H93.033c2.486,3.96,3.925,8.642,3.925,13.652v32.602
	c2.163,1.004,3.667,3.196,3.667,5.733v1.333c0,3.482-2.834,6.316-6.317,6.316h-46.2c-3.483,0-6.316-2.834-6.316-6.316v-1.333
	c0-2.537,1.503-4.729,3.667-5.733v-32.602c0-5.011,1.439-9.692,3.925-13.652H7.833v8.932c0,1.104-0.896,2-2,2s-2-0.896-2-2V67.25H2
	c-1.104,0-2-0.896-2-2s0.896-2,2-2h7.667c1.104,0,2,0.896,2,2s-0.896,2-2,2H7.833v33h44.644c4.237-4.493,10.067-7.468,16.578-8.009
	V67.25h-1.833c-1.104,0-2-0.896-2-2s0.896-2,2-2h7.667c1.104,0,2,0.896,2,2s-0.896,2-2,2h-1.833v24.968
	c6.633,0.473,12.581,3.469,16.884,8.032h27.525c4.287-4.547,10.208-7.539,16.813-8.027V67.25h-1.916c-1.105,0-2-0.896-2-2
	s0.895-2,2-2h7.666c1.104,0,2,0.896,2,2s-0.896,2-2,2h-1.75v24.985c6.539,0.526,12.396,3.506,16.647,8.015H199.5v-33h-1.833
	c-1.104,0-2-0.896-2-2s0.896-2,2-2h7.666c1.104,0,2,0.896,2,2s-0.896,2-2,2H203.5v45.932c0,1.104-0.896,2-2,2s-2-0.896-2-2v-8.932
	h-41.48c2.486,3.96,3.925,8.642,3.925,13.652v32.602c2.163,1.004,3.667,3.196,3.667,5.733v1.333
	C165.611,161.052,162.777,163.886,159.294,163.886z M113.094,153.92c-1.277,0-2.316,1.039-2.316,2.316v1.333
	c0,1.277,1.039,2.316,2.316,2.316h46.2c1.277,0,2.317-1.039,2.317-2.316v-1.333c0-1.277-1.04-2.316-2.317-2.316H113.094z
	 M48.108,153.92c-1.277,0-2.316,1.039-2.316,2.316v1.333c0,1.277,1.039,2.316,2.316,2.316h46.2c1.277,0,2.317-1.039,2.317-2.316
	v-1.333c0-1.277-1.04-2.316-2.317-2.316H48.108z M114.444,149.69h43.5v-31.788c0-11.993-9.757-21.75-21.75-21.75
	s-21.75,9.757-21.75,21.75V149.69z M49.458,149.69h43.5v-31.788c0-11.993-9.757-21.75-21.75-21.75s-21.75,9.757-21.75,21.75V149.69z
	 M191.669,92.818h-46.2c-3.482,0-6.316-2.834-6.316-6.316v-1.333c0-2.537,1.504-4.73,3.667-5.733V46.833
	c0-14.198,11.552-25.75,25.75-25.75s25.75,11.552,25.75,25.75v32.602c2.163,1.004,3.667,3.196,3.667,5.733v1.333
	C197.986,89.984,195.152,92.818,191.669,92.818z M145.469,82.852c-1.277,0-2.316,1.039-2.316,2.316v1.333
	c0,1.277,1.039,2.316,2.316,2.316h46.2c1.277,0,2.317-1.039,2.317-2.316v-1.333c0-1.277-1.04-2.316-2.317-2.316H145.469z
	 M146.819,78.621h43.5V46.833c0-11.993-9.757-21.75-21.75-21.75s-21.75,9.757-21.75,21.75V78.621z M126.684,92.818H80.483
	c-3.483,0-6.316-2.834-6.316-6.316v-1.333c0-2.537,1.503-4.729,3.667-5.733V46.833c0-14.198,11.551-25.75,25.75-25.75
	c14.198,0,25.75,11.552,25.75,25.75v32.602c2.163,1.003,3.667,3.196,3.667,5.733v1.333C133,89.984,130.166,92.818,126.684,92.818z
	 M80.483,82.852c-1.277,0-2.316,1.039-2.316,2.316v1.333c0,1.277,1.039,2.316,2.316,2.316h46.201c1.277,0,2.316-1.039,2.316-2.316
	v-1.333c0-1.277-1.039-2.316-2.316-2.316H80.483z M81.833,78.621h43.5V46.833c0-11.993-9.757-21.75-21.75-21.75
	s-21.75,9.757-21.75,21.75V78.621z M61.697,92.818h-46.2c-3.483,0-6.316-2.834-6.316-6.316v-1.333c0-2.537,1.503-4.729,3.667-5.733
	V46.833c0-14.198,11.551-25.75,25.75-25.75s25.75,11.552,25.75,25.75v32.602c2.163,1.004,3.667,3.196,3.667,5.733v1.333
	C68.014,89.984,65.18,92.818,61.697,92.818z M15.497,82.852c-1.277,0-2.316,1.039-2.316,2.316v1.333
	c0,1.277,1.039,2.316,2.316,2.316h46.2c1.277,0,2.316-1.039,2.316-2.316v-1.333c0-1.277-1.039-2.316-2.316-2.316H15.497z
	 M16.847,78.621h43.5V46.833c0-11.993-9.757-21.75-21.75-21.75s-21.75,9.757-21.75,21.75V78.621z"/>
<g>
</g>
<g>
</g>
<g>
</g>
<g>
</g>
<g>
</g>
<g>
</g>
<g>
</g>
<g>
</g>
<g>
</g>
<g>
</g>
<g>
</g>
<g>
</g>
<g>
</g>
<g>
</g>
<g>
</g>
</svg>
