<?xml version="1.0" encoding="iso-8859-1"?>
<!-- Generator: Adobe Illustrator 17.1.0, SVG Export Plug-In . SVG Version: 6.00 Build 0)  -->
<!DOCTYPE svg PUBLIC "-//W3C//DTD SVG 1.1//EN" "http://www.w3.org/Graphics/SVG/1.1/DTD/svg11.dtd">
<svg version="1.1" id="Capa_1" xmlns="http://www.w3.org/2000/svg" xmlns:xlink="http://www.w3.org/1999/xlink" x="0px" y="0px"
	 viewBox="0 0 200.025 200.025" style="enable-background:new 0 0 200.025 200.025;" xml:space="preserve">
<path d="M192.555,200.025h-39.667c-3.309,0-6-2.691-6-6v-10c0-3.309,2.691-6,6-6h39.667c3.309,0,6,2.691,6,6v10
	C198.555,197.334,195.863,200.025,192.555,200.025z M152.888,182.025c-1.103,0-2,0.897-2,2v10c0,1.103,0.897,2,2,2h39.667
	c1.103,0,2-0.897,2-2v-10c0-1.103-0.897-2-2-2H152.888z M119.846,200.025H80.179c-3.309,0-6-2.691-6-6v-10c0-3.309,2.691-6,6-6
	h39.667c3.309,0,6,2.691,6,6v10C125.846,197.334,123.154,200.025,119.846,200.025z M80.179,182.025c-1.103,0-2,0.897-2,2v10
	c0,1.103,0.897,2,2,2h39.667c1.103,0,2-0.897,2-2v-10c0-1.103-0.897-2-2-2H80.179z M47.138,200.025H7.471c-3.309,0-6-2.691-6-6v-10
	c0-3.309,2.691-6,6-6h39.667c3.309,0,6,2.691,6,6v10C53.138,197.334,50.446,200.025,47.138,200.025z M7.471,182.025
	c-1.103,0-2,0.897-2,2v10c0,1.103,0.897,2,2,2h39.667c1.103,0,2-0.897,2-2v-10c0-1.103-0.897-2-2-2H7.471z M192.761,160.606h-11.08
	c-3.194,0-5.793-2.599-5.793-5.793v-11.08c0-3.194,2.599-5.793,5.793-5.793h11.08c3.194,0,5.794,2.599,5.794,5.793v11.08
	C198.555,158.007,195.955,160.606,192.761,160.606z M181.681,141.939c-0.988,0-1.793,0.805-1.793,1.793v11.08
	c0,0.989,0.805,1.793,1.793,1.793h11.08c0.989,0,1.794-0.805,1.794-1.793v-11.08c0-0.989-0.805-1.793-1.794-1.793H181.681z
	 M163.761,160.606h-11.08c-3.194,0-5.793-2.599-5.793-5.793v-11.08c0-3.194,2.599-5.793,5.793-5.793h11.08
	c3.194,0,5.794,2.599,5.794,5.793v11.08C169.555,158.007,166.955,160.606,163.761,160.606z M152.681,141.939
	c-0.988,0-1.793,0.805-1.793,1.793v11.08c0,0.989,0.805,1.793,1.793,1.793h11.08c0.989,0,1.794-0.805,1.794-1.793v-11.08
	c0-0.989-0.805-1.793-1.794-1.793H152.681z M134.761,160.606h-11.08c-3.194,0-5.793-2.599-5.793-5.793v-11.08
	c0-3.194,2.599-5.793,5.793-5.793h11.08c3.194,0,5.794,2.599,5.794,5.793v11.08C140.555,158.007,137.955,160.606,134.761,160.606z
	 M123.681,141.939c-0.988,0-1.793,0.805-1.793,1.793v11.08c0,0.989,0.805,1.793,1.793,1.793h11.08c0.989,0,1.794-0.805,1.794-1.793
	v-11.08c0-0.989-0.805-1.793-1.794-1.793H123.681z M105.761,160.606h-11.08c-3.194,0-5.793-2.599-5.793-5.793v-11.08
	c0-3.194,2.599-5.793,5.793-5.793h11.08c3.194,0,5.794,2.599,5.794,5.793v11.08C111.555,158.007,108.955,160.606,105.761,160.606z
	 M94.681,141.939c-0.989,0-1.793,0.805-1.793,1.793v11.08c0,0.989,0.804,1.793,1.793,1.793h11.08c0.989,0,1.794-0.805,1.794-1.793
	v-11.08c0-0.989-0.805-1.793-1.794-1.793H94.681z M76.761,160.606h-11.08c-3.194,0-5.793-2.599-5.793-5.793v-11.08
	c0-3.194,2.599-5.793,5.793-5.793h11.08c3.194,0,5.793,2.599,5.793,5.793v11.08C82.554,158.007,79.955,160.606,76.761,160.606z
	 M65.681,141.939c-0.989,0-1.793,0.805-1.793,1.793v11.08c0,0.989,0.804,1.793,1.793,1.793h11.08c0.989,0,1.793-0.805,1.793-1.793
	v-11.08c0-0.989-0.805-1.793-1.793-1.793H65.681z M47.761,160.606h-11.08c-3.194,0-5.793-2.599-5.793-5.793v-11.08
	c0-3.194,2.599-5.793,5.793-5.793h11.08c3.194,0,5.793,2.599,5.793,5.793v11.08C53.554,158.007,50.955,160.606,47.761,160.606z
	 M36.681,141.939c-0.989,0-1.793,0.805-1.793,1.793v11.08c0,0.989,0.804,1.793,1.793,1.793h11.08c0.989,0,1.793-0.805,1.793-1.793
	v-11.08c0-0.989-0.805-1.793-1.793-1.793H36.681z M18.761,160.606H7.681c-3.194,0-5.793-2.599-5.793-5.793v-11.08
	c0-3.194,2.599-5.793,5.793-5.793h11.08c3.194,0,5.793,2.599,5.793,5.793v11.08C24.554,158.007,21.955,160.606,18.761,160.606z
	 M7.681,141.939c-0.989,0-1.793,0.805-1.793,1.793v11.08c0,0.989,0.804,1.793,1.793,1.793h11.08c0.989,0,1.793-0.805,1.793-1.793
	v-11.08c0-0.989-0.805-1.793-1.793-1.793H7.681z M177.428,131.78h-11.08c-3.194,0-5.793-2.599-5.793-5.793v-11.08
	c0-3.194,2.599-5.793,5.793-5.793h11.08c3.194,0,5.793,2.599,5.793,5.793v11.08C183.221,129.181,180.622,131.78,177.428,131.78z
	 M166.348,113.114c-0.988,0-1.793,0.804-1.793,1.793v11.08c0,0.989,0.805,1.793,1.793,1.793h11.08c0.988,0,1.793-0.805,1.793-1.793
	v-11.08c0-0.989-0.805-1.793-1.793-1.793H166.348z M148.428,131.78h-11.08c-3.194,0-5.793-2.599-5.793-5.793v-11.08
	c0-3.194,2.599-5.793,5.793-5.793h11.08c3.194,0,5.793,2.599,5.793,5.793v11.08C154.221,129.181,151.622,131.78,148.428,131.78z
	 M137.348,113.114c-0.988,0-1.793,0.804-1.793,1.793v11.08c0,0.989,0.805,1.793,1.793,1.793h11.08c0.988,0,1.793-0.805,1.793-1.793
	v-11.08c0-0.989-0.805-1.793-1.793-1.793H137.348z M119.428,131.78h-11.08c-3.194,0-5.793-2.599-5.793-5.793v-11.08
	c0-3.194,2.599-5.793,5.793-5.793h11.08c3.194,0,5.793,2.599,5.793,5.793v11.08C125.221,129.181,122.622,131.78,119.428,131.78z
	 M108.348,113.114c-0.988,0-1.793,0.804-1.793,1.793v11.08c0,0.989,0.805,1.793,1.793,1.793h11.08c0.988,0,1.793-0.805,1.793-1.793
	v-11.08c0-0.989-0.805-1.793-1.793-1.793H108.348z M90.428,131.78h-11.08c-3.194,0-5.793-2.599-5.793-5.793v-11.08
	c0-3.194,2.599-5.793,5.793-5.793h11.08c3.194,0,5.793,2.599,5.793,5.793v11.08C96.221,129.181,93.622,131.78,90.428,131.78z
	 M79.348,113.114c-0.989,0-1.793,0.804-1.793,1.793v11.08c0,0.989,0.805,1.793,1.793,1.793h11.08c0.989,0,1.793-0.805,1.793-1.793
	v-11.08c0-0.989-0.804-1.793-1.793-1.793H79.348z M61.428,131.78h-11.08c-3.194,0-5.793-2.599-5.793-5.793v-11.08
	c0-3.194,2.599-5.793,5.793-5.793h11.08c3.194,0,5.793,2.599,5.793,5.793v11.08C67.221,129.181,64.622,131.78,61.428,131.78z
	 M50.348,113.114c-0.989,0-1.793,0.804-1.793,1.793v11.08c0,0.989,0.805,1.793,1.793,1.793h11.08c0.989,0,1.793-0.805,1.793-1.793
	v-11.08c0-0.989-0.804-1.793-1.793-1.793H50.348z M32.428,131.78h-11.08c-3.194,0-5.793-2.599-5.793-5.793v-11.08
	c0-3.194,2.599-5.793,5.793-5.793h11.08c3.194,0,5.793,2.599,5.793,5.793v11.08C38.221,129.181,35.622,131.78,32.428,131.78z
	 M21.348,113.114c-0.989,0-1.793,0.804-1.793,1.793v11.08c0,0.989,0.805,1.793,1.793,1.793h11.08c0.989,0,1.793-0.805,1.793-1.793
	v-11.08c0-0.989-0.804-1.793-1.793-1.793H21.348z M192.761,103.963h-11.08c-3.194,0-5.793-2.599-5.793-5.793V87.09
	c0-3.194,2.599-5.793,5.793-5.793h11.08c3.194,0,5.794,2.599,5.794,5.793v11.08C198.555,101.364,195.955,103.963,192.761,103.963z
	 M181.681,85.296c-0.988,0-1.793,0.805-1.793,1.793v11.08c0,0.989,0.805,1.793,1.793,1.793h11.08c0.989,0,1.794-0.804,1.794-1.793
	V87.09c0-0.989-0.805-1.793-1.794-1.793H181.681z M163.761,103.963h-11.08c-3.194,0-5.793-2.599-5.793-5.793V87.09
	c0-3.194,2.599-5.793,5.793-5.793h11.08c3.194,0,5.794,2.599,5.794,5.793v11.08C169.555,101.364,166.955,103.963,163.761,103.963z
	 M152.681,85.296c-0.988,0-1.793,0.805-1.793,1.793v11.08c0,0.989,0.805,1.793,1.793,1.793h11.08c0.989,0,1.794-0.804,1.794-1.793
	V87.09c0-0.989-0.805-1.793-1.794-1.793H152.681z M134.761,103.963h-11.08c-3.194,0-5.793-2.599-5.793-5.793V87.09
	c0-3.194,2.599-5.793,5.793-5.793h11.08c3.194,0,5.794,2.599,5.794,5.793v11.08C140.555,101.364,137.955,103.963,134.761,103.963z
	 M123.681,85.296c-0.988,0-1.793,0.805-1.793,1.793v11.08c0,0.989,0.805,1.793,1.793,1.793h11.08c0.989,0,1.794-0.804,1.794-1.793
	V87.09c0-0.989-0.805-1.793-1.794-1.793H123.681z M105.761,103.963h-11.08c-3.194,0-5.793-2.599-5.793-5.793V87.09
	c0-3.194,2.599-5.793,5.793-5.793h11.08c3.194,0,5.794,2.599,5.794,5.793v11.08C111.555,101.364,108.955,103.963,105.761,103.963z
	 M94.681,85.296c-0.989,0-1.793,0.805-1.793,1.793v11.08c0,0.989,0.804,1.793,1.793,1.793h11.08c0.989,0,1.794-0.804,1.794-1.793
	V87.09c0-0.989-0.805-1.793-1.794-1.793H94.681z M76.761,103.963h-11.08c-3.194,0-5.793-2.599-5.793-5.793V87.09
	c0-3.194,2.599-5.793,5.793-5.793h11.08c3.194,0,5.793,2.599,5.793,5.793v11.08C82.554,101.364,79.955,103.963,76.761,103.963z
	 M65.681,85.296c-0.989,0-1.793,0.805-1.793,1.793v11.08c0,0.989,0.804,1.793,1.793,1.793h11.08c0.989,0,1.793-0.804,1.793-1.793
	V87.09c0-0.989-0.805-1.793-1.793-1.793H65.681z M47.761,103.963h-11.08c-3.194,0-5.793-2.599-5.793-5.793V87.09
	c0-3.194,2.599-5.793,5.793-5.793h11.08c3.194,0,5.793,2.599,5.793,5.793v11.08C53.554,101.364,50.955,103.963,47.761,103.963z
	 M36.681,85.296c-0.989,0-1.793,0.805-1.793,1.793v11.08c0,0.989,0.804,1.793,1.793,1.793h11.08c0.989,0,1.793-0.804,1.793-1.793
	V87.09c0-0.989-0.805-1.793-1.793-1.793H36.681z M18.761,103.963H7.681c-3.194,0-5.793-2.599-5.793-5.793V87.09
	c0-3.194,2.599-5.793,5.793-5.793h11.08c3.194,0,5.793,2.599,5.793,5.793v11.08C24.554,101.364,21.955,103.963,18.761,103.963z
	 M7.681,85.296c-0.989,0-1.793,0.805-1.793,1.793v11.08c0,0.989,0.804,1.793,1.793,1.793h11.08c0.989,0,1.793-0.804,1.793-1.793
	V87.09c0-0.989-0.805-1.793-1.793-1.793H7.681z M177.428,75.138h-11.08c-3.194,0-5.793-2.599-5.793-5.793v-11.08
	c0-3.194,2.599-5.793,5.793-5.793h11.08c3.194,0,5.793,2.599,5.793,5.793v11.08C183.221,72.539,180.622,75.138,177.428,75.138z
	 M166.348,56.471c-0.988,0-1.793,0.805-1.793,1.793v11.08c0,0.989,0.805,1.793,1.793,1.793h11.08c0.988,0,1.793-0.805,1.793-1.793
	v-11.08c0-0.989-0.805-1.793-1.793-1.793H166.348z M148.428,75.138h-11.08c-3.194,0-5.793-2.599-5.793-5.793v-11.08
	c0-3.194,2.599-5.793,5.793-5.793h11.08c3.194,0,5.793,2.599,5.793,5.793v11.08C154.221,72.539,151.622,75.138,148.428,75.138z
	 M137.348,56.471c-0.988,0-1.793,0.805-1.793,1.793v11.08c0,0.989,0.805,1.793,1.793,1.793h11.08c0.988,0,1.793-0.805,1.793-1.793
	v-11.08c0-0.989-0.805-1.793-1.793-1.793H137.348z M119.428,75.138h-11.08c-3.194,0-5.793-2.599-5.793-5.793v-11.08
	c0-3.194,2.599-5.793,5.793-5.793h11.08c3.194,0,5.793,2.599,5.793,5.793v11.08C125.221,72.539,122.622,75.138,119.428,75.138z
	 M108.348,56.471c-0.988,0-1.793,0.805-1.793,1.793v11.08c0,0.989,0.805,1.793,1.793,1.793h11.08c0.988,0,1.793-0.805,1.793-1.793
	v-11.08c0-0.989-0.805-1.793-1.793-1.793H108.348z M90.428,75.138h-11.08c-3.194,0-5.793-2.599-5.793-5.793v-11.08
	c0-3.194,2.599-5.793,5.793-5.793h11.08c3.194,0,5.793,2.599,5.793,5.793v11.08C96.221,72.539,93.622,75.138,90.428,75.138z
	 M79.348,56.471c-0.989,0-1.793,0.805-1.793,1.793v11.08c0,0.989,0.805,1.793,1.793,1.793h11.08c0.989,0,1.793-0.805,1.793-1.793
	v-11.08c0-0.989-0.804-1.793-1.793-1.793H79.348z M61.428,75.138h-11.08c-3.194,0-5.793-2.599-5.793-5.793v-11.08
	c0-3.194,2.599-5.793,5.793-5.793h11.08c3.194,0,5.793,2.599,5.793,5.793v11.08C67.221,72.539,64.622,75.138,61.428,75.138z
	 M50.348,56.471c-0.989,0-1.793,0.805-1.793,1.793v11.08c0,0.989,0.805,1.793,1.793,1.793h11.08c0.989,0,1.793-0.805,1.793-1.793
	v-11.08c0-0.989-0.804-1.793-1.793-1.793H50.348z M32.428,75.138h-11.08c-3.194,0-5.793-2.599-5.793-5.793v-11.08
	c0-3.194,2.599-5.793,5.793-5.793h11.08c3.194,0,5.793,2.599,5.793,5.793v11.08C38.221,72.539,35.622,75.138,32.428,75.138z
	 M21.348,56.471c-0.989,0-1.793,0.805-1.793,1.793v11.08c0,0.989,0.805,1.793,1.793,1.793h11.08c0.989,0,1.793-0.805,1.793-1.793
	v-11.08c0-0.989-0.804-1.793-1.793-1.793H21.348z M196.554,4H3.888c-1.104,0-2-0.896-2-2s0.896-2,2-2h192.666c1.104,0,2,0.896,2,2
	S197.658,4,196.554,4z"/>
<g>
</g>
<g>
</g>
<g>
</g>
<g>
</g>
<g>
</g>
<g>
</g>
<g>
</g>
<g>
</g>
<g>
</g>
<g>
</g>
<g>
</g>
<g>
</g>
<g>
</g>
<g>
</g>
<g>
</g>
</svg>
