<?xml version="1.0" encoding="iso-8859-1"?>
<!-- Generator: Adobe Illustrator 17.1.0, SVG Export Plug-In . SVG Version: 6.00 Build 0)  -->
<!DOCTYPE svg PUBLIC "-//W3C//DTD SVG 1.1//EN" "http://www.w3.org/Graphics/SVG/1.1/DTD/svg11.dtd">
<svg version="1.1" id="Capa_1" xmlns="http://www.w3.org/2000/svg" xmlns:xlink="http://www.w3.org/1999/xlink" x="0px" y="0px"
	 viewBox="0 0 189.603 189.603" style="enable-background:new 0 0 189.603 189.603;" xml:space="preserve">
<path d="M125.609,181.667h-22.17c-1.104,0-2-0.896-2-2v-9.329h-5.382c-1.104,0-2-0.896-2-2v-6.92h-19.53c-1.104,0-2-0.896-2-2
	v-11.161L48.378,134H35.526c-0.674,0-1.27-0.333-1.632-0.843L2.839,147.509c-0.617,0.287-1.342,0.237-1.916-0.13
	C0.348,147.01,0,146.375,0,145.693V90.675c0-0.682,0.348-1.317,0.923-1.685c0.574-0.367,1.299-0.416,1.916-0.13l31.037,14.343
	c0.361-0.525,0.966-0.869,1.65-0.869h12.058c0.146-0.147,0.317-0.272,0.509-0.369l9.073-4.614c0.28-0.143,0.591-0.217,0.906-0.217
	h12.303v-9.226H58.072c-22.048,0-39.985-17.938-39.985-39.986c0-22.048,17.938-39.985,39.985-39.985s39.985,17.938,39.985,39.985
	c0,1.272-0.076,2.594-0.23,3.998h12.034c-0.154-1.404-0.23-2.726-0.23-3.998c0-22.048,17.938-39.985,39.985-39.985
	c22.049,0,39.986,17.938,39.986,39.985c0,22.048-17.938,39.986-39.986,39.986h-13.111v9.226h6.305c0.53,0,1.039,0.211,1.414,0.586
	l8.487,8.488h10.398v-5.228c0-1.104,0.896-2,2-2h11.225c1.104,0,2,0.896,2,2v26.452c0,1.104-0.896,2-2,2h-11.225
	c-1.104,0-2-0.896-2-2v-2.614h-11.493v3.997h3.189c1.104,0,2,0.896,2,2v19.992c0,0.53-0.211,1.039-0.586,1.414l-9.843,9.843
	c-0.375,0.375-0.884,0.586-1.414,0.586h-8.458v5.689c0,1.104-0.896,2-2,2h-6.896v9.329
	C127.609,180.771,126.714,181.667,125.609,181.667z M105.439,177.667h18.17v-7.329h-18.17V177.667z M125.609,166.338h6.896v-5.689
	c0-1.104,0.896-2,2-2h9.63l8.671-8.671v-17.164h-3.189c-1.104,0-2-0.896-2-2v-7.997c0-1.104,0.896-2,2-2h13.493v-10.61h-11.227
	c-0.53,0-1.039-0.211-1.414-0.586l-8.487-8.488h-83.43l-7.525,3.827v25.959l24.518,14.475c0.609,0.36,0.983,1.015,0.983,1.722
	v10.303h19.53c1.104,0,2,0.896,2,2v6.92H125.609z M4,93.802v48.763l29.526-13.645v-21.474L4,93.802z M37.526,130h9.473v-23.667
	h-9.473V130z M167.109,125.43h7.225v-22.452h-7.225V125.43z M74.375,97.133h58.13v-9.226h-58.13V97.133z M134.505,83.907h15.111
	c19.843,0,35.986-16.144,35.986-35.986c0-19.842-16.144-35.985-35.986-35.985s-35.985,16.143-35.985,35.985
	c0,1.736,0.161,3.596,0.494,5.684c0.092,0.578-0.074,1.167-0.454,1.613s-0.937,0.702-1.521,0.702h-16.61
	c-0.585,0-1.142-0.256-1.521-0.702s-0.546-1.035-0.454-1.613c0.333-2.088,0.494-3.947,0.494-5.684
	c0-19.842-16.143-35.985-35.985-35.985S22.087,28.079,22.087,47.921c0,19.843,16.143,35.986,35.985,35.986H134.505z"/>
<g>
</g>
<g>
</g>
<g>
</g>
<g>
</g>
<g>
</g>
<g>
</g>
<g>
</g>
<g>
</g>
<g>
</g>
<g>
</g>
<g>
</g>
<g>
</g>
<g>
</g>
<g>
</g>
<g>
</g>
</svg>
