<?xml version="1.0" encoding="iso-8859-1"?>
<!-- Generator: Adobe Illustrator 17.1.0, SVG Export Plug-In . SVG Version: 6.00 Build 0)  -->
<!DOCTYPE svg PUBLIC "-//W3C//DTD SVG 1.1//EN" "http://www.w3.org/Graphics/SVG/1.1/DTD/svg11.dtd">
<svg version="1.1" id="Capa_1" xmlns="http://www.w3.org/2000/svg" xmlns:xlink="http://www.w3.org/1999/xlink" x="0px" y="0px"
	 viewBox="0 0 199.334 199.334" style="enable-background:new 0 0 199.334 199.334;" xml:space="preserve">
<path d="M161.974,199.334H150.4c-1.104,0-2-0.896-2-2v-36.459H50.933v36.459c0,1.104-0.896,2-2,2H37.36c-1.104,0-2-0.896-2-2
	v-36.459h-7.251c-4.429,0-8.032-3.604-8.032-8.032v-27.389c0-7.408,5.239-13.615,12.207-15.111v-7.171H8.854c-1.104,0-2-0.896-2-2
	V87.506H2.687c-1.104,0-2-0.896-2-2v-7.667c0-1.104,0.896-2,2-2h29.596V41.014C32.283,18.398,50.682,0,73.297,0h52.74
	c22.615,0,41.014,18.398,41.014,41.014v34.825h2.495l-0.856-12.353c-0.039-0.554,0.155-1.098,0.533-1.503
	c0.378-0.405,0.908-0.636,1.462-0.636h7.108l1.427-13.275c0.063-0.587,0.382-1.115,0.872-1.445l10.823-7.286
	c0.917-0.617,2.159-0.373,2.776,0.542c0.617,0.917,0.374,2.159-0.542,2.776l-10.05,6.767l-1.282,11.922h6.678
	c0.555,0,1.084,0.23,1.462,0.636s0.571,0.949,0.533,1.503l-0.856,12.353h7.016c1.104,0,2,0.896,2,2v7.667c0,1.104-0.896,2-2,2
	h-4.167v13.666c0,1.104-0.896,2-2,2h-23.43v7.171c6.967,1.496,12.207,7.703,12.207,15.111v27.389c0,4.429-3.603,8.032-8.032,8.032
	h-7.251v36.459C163.974,198.438,163.079,199.334,161.974,199.334z M152.4,195.334h7.574v-34.459H152.4V195.334z M39.36,195.334
	h7.573v-34.459H39.36V195.334z M161.974,156.875h9.251c2.223,0,4.032-1.809,4.032-4.032V147H24.077v5.843
	c0,2.224,1.809,4.032,4.032,4.032H161.974z M24.077,143h151.181v-17.546c0-6.315-5.138-11.454-11.454-11.454H35.53
	c-6.315,0-11.454,5.139-11.454,11.454V143z M36.283,110h126.768V87.506h-4.07c-1.104,0-2-0.896-2-2v-7.667c0-1.104,0.896-2,2-2h4.07
	V41.014C163.051,20.604,146.446,4,126.037,4h-52.74C52.888,4,36.283,20.604,36.283,41.014v34.825h4.153c1.104,0,2,0.896,2,2v7.667
	c0,1.104-0.896,2-2,2h-4.153V110z M167.147,99.172h21.333V87.506h-21.333V99.172z M10.854,99.172h21.333V87.506H10.854V99.172z
	 M161.063,83.506h33.583v-3.667h-33.583V83.506z M34.187,83.506h4.167v-3.667H4.687v3.667H34.187z M173.555,75.839h12.066
	l0.728-10.491h-6.733c-0.017,0-0.033,0-0.05,0h-6.738L173.555,75.839z"/>
<g>
</g>
<g>
</g>
<g>
</g>
<g>
</g>
<g>
</g>
<g>
</g>
<g>
</g>
<g>
</g>
<g>
</g>
<g>
</g>
<g>
</g>
<g>
</g>
<g>
</g>
<g>
</g>
<g>
</g>
</svg>
