<?xml version="1.0" encoding="iso-8859-1"?>
<!-- Generator: Adobe Illustrator 17.1.0, SVG Export Plug-In . SVG Version: 6.00 Build 0)  -->
<!DOCTYPE svg PUBLIC "-//W3C//DTD SVG 1.1//EN" "http://www.w3.org/Graphics/SVG/1.1/DTD/svg11.dtd">
<svg version="1.1" id="Capa_1" xmlns="http://www.w3.org/2000/svg" xmlns:xlink="http://www.w3.org/1999/xlink" x="0px" y="0px"
	 viewBox="0 0 197.514 197.514" style="enable-background:new 0 0 197.514 197.514;" xml:space="preserve">
<path d="M7.992,186.082c-2.048,0-3.973-0.797-5.421-2.246l-0.329-0.329c-2.989-2.989-2.989-7.853,0-10.842l59.219-59.219
	c1.447-1.448,3.373-2.246,5.421-2.246c1.445,0,2.829,0.397,4.027,1.14l63.53-63.53h-0.173c-1.104,0-2-0.896-2-2v-8.961h-8.488
	c-7.039,0-12.766-5.727-12.766-12.766v-0.884c0-7.039,5.727-12.766,12.766-12.766h60.971c7.039,0,12.766,5.727,12.766,12.766v0.884
	c0,7.039-5.727,12.766-12.766,12.766h-36.684v8.961c0,1.104-0.896,2-2,2h-5.97l-66.359,66.36c1.823,2.955,1.455,6.888-1.104,9.446
	l-59.219,59.219C11.965,185.284,10.04,186.082,7.992,186.082z M66.882,115.2c-0.979,0-1.9,0.381-2.593,1.074L5.07,175.493
	c-1.43,1.43-1.43,3.756,0,5.186l0.329,0.329c1.43,1.43,3.756,1.43,5.186,0l59.219-59.219c0.692-0.693,1.073-1.613,1.073-2.593
	s-0.381-1.9-1.073-2.593l-0.328-0.328C68.782,115.582,67.861,115.2,66.882,115.2z M136.266,44.81h7.799v-6.961h-7.799V44.81z
	 M146.065,33.849h38.684c4.833,0,8.766-3.933,8.766-8.766v-0.884c0-4.833-3.933-8.766-8.766-8.766h-60.971
	c-4.833,0-8.766,3.933-8.766,8.766v0.884c0,4.833,3.933,8.766,8.766,8.766H146.065z"/>
<g>
</g>
<g>
</g>
<g>
</g>
<g>
</g>
<g>
</g>
<g>
</g>
<g>
</g>
<g>
</g>
<g>
</g>
<g>
</g>
<g>
</g>
<g>
</g>
<g>
</g>
<g>
</g>
<g>
</g>
</svg>
