<?xml version="1.0" encoding="iso-8859-1"?>
<!-- Generator: Adobe Illustrator 17.1.0, SVG Export Plug-In . SVG Version: 6.00 Build 0)  -->
<!DOCTYPE svg PUBLIC "-//W3C//DTD SVG 1.1//EN" "http://www.w3.org/Graphics/SVG/1.1/DTD/svg11.dtd">
<svg version="1.1" id="Capa_1" xmlns="http://www.w3.org/2000/svg" xmlns:xlink="http://www.w3.org/1999/xlink" x="0px" y="0px"
	 viewBox="0 0 183.136 183.136" style="enable-background:new 0 0 183.136 183.136;" xml:space="preserve">
<path d="M169.329,183.136H13.807c-0.737,0-1.414-0.405-1.762-1.054c-0.349-0.649-0.312-1.438,0.096-2.051l17.811-26.846
	L3.105,170.996c-0.613,0.408-1.401,0.445-2.051,0.096C0.405,170.743,0,170.066,0,169.329V13.807c0-0.737,0.405-1.414,1.054-1.762
	c0.65-0.349,1.438-0.312,2.051,0.096l26.846,17.811L12.14,3.105c-0.407-0.614-0.444-1.402-0.096-2.051
	C12.393,0.405,13.07,0,13.807,0h155.522c0.737,0,1.414,0.405,1.762,1.054c0.349,0.649,0.312,1.438-0.096,2.051l-17.811,26.846
	L180.03,12.14c0.614-0.407,1.402-0.444,2.051-0.096c0.649,0.348,1.054,1.025,1.054,1.762v155.522c0,0.737-0.405,1.414-1.054,1.762
	c-0.649,0.349-1.438,0.313-2.051-0.096l-26.846-17.811l17.811,26.846c0.407,0.614,0.444,1.402,0.096,2.051
	C170.743,182.73,170.066,183.136,169.329,183.136z M17.534,179.136h148.068l-20.623-31.083H38.156L17.534,179.136z M148.053,144.979
	l31.083,20.623V17.534l-31.083,20.623V144.979z M4,17.534v148.068l31.083-20.623V38.156L4,17.534z M39.083,144.053h104.97V39.083
	H39.083V144.053z M38.156,35.083h106.823L165.602,4H17.534L38.156,35.083z M91.568,137.477c-25.314,0-45.909-20.595-45.909-45.909
	s20.595-45.909,45.909-45.909s45.909,20.595,45.909,45.909S116.882,137.477,91.568,137.477z M91.568,49.659
	c-23.109,0-41.909,18.8-41.909,41.909s18.8,41.909,41.909,41.909s41.909-18.8,41.909-41.909S114.677,49.659,91.568,49.659z"/>
<g>
</g>
<g>
</g>
<g>
</g>
<g>
</g>
<g>
</g>
<g>
</g>
<g>
</g>
<g>
</g>
<g>
</g>
<g>
</g>
<g>
</g>
<g>
</g>
<g>
</g>
<g>
</g>
<g>
</g>
</svg>
