<?xml version="1.0" encoding="iso-8859-1"?>
<!-- Generator: Adobe Illustrator 17.1.0, SVG Export Plug-In . SVG Version: 6.00 Build 0)  -->
<!DOCTYPE svg PUBLIC "-//W3C//DTD SVG 1.1//EN" "http://www.w3.org/Graphics/SVG/1.1/DTD/svg11.dtd">
<svg version="1.1" id="Capa_1" xmlns="http://www.w3.org/2000/svg" xmlns:xlink="http://www.w3.org/1999/xlink" x="0px" y="0px"
	 viewBox="0 0 218.909 218.909" style="enable-background:new 0 0 218.909 218.909;" xml:space="preserve">
<path d="M175.865,213.65c-0.318,0-0.638-0.076-0.931-0.23l-65.48-34.424l-65.48,34.424c-0.674,0.355-1.49,0.295-2.106-0.152
	c-0.616-0.448-0.924-1.206-0.795-1.956l12.506-72.913L0.604,86.762c-0.545-0.531-0.741-1.326-0.506-2.05
	c0.235-0.724,0.861-1.251,1.615-1.361l73.209-10.638l32.74-66.338c0.337-0.683,1.032-1.115,1.793-1.115s1.457,0.432,1.793,1.115
	l32.74,66.338l73.209,10.638c0.753,0.109,1.379,0.637,1.615,1.361c0.235,0.724,0.039,1.519-0.506,2.05l-52.975,51.637l12.506,72.913
	c0.129,0.75-0.18,1.508-0.795,1.956C176.692,213.521,176.28,213.65,175.865,213.65z M109.455,174.736c0.32,0,0.639,0.077,0.931,0.23
	l62.824,33.028l-11.999-69.955c-0.111-0.648,0.104-1.311,0.575-1.77l50.826-49.542l-70.239-10.207
	c-0.651-0.094-1.214-0.503-1.506-1.094l-31.412-63.647L78.043,75.426c-0.292,0.59-0.854,1-1.506,1.094L6.298,86.726l50.826,49.542
	c0.471,0.459,0.687,1.122,0.575,1.77L45.7,207.994l62.824-33.028C108.815,174.812,109.135,174.736,109.455,174.736z
	 M164.194,197.956c-0.318,0-0.638-0.076-0.931-0.23l-53.809-28.289l-53.809,28.289c-0.673,0.355-1.49,0.295-2.106-0.152
	c-0.616-0.448-0.924-1.206-0.795-1.956l10.277-59.917L19.488,93.268c-0.545-0.531-0.741-1.326-0.506-2.05
	c0.235-0.724,0.861-1.251,1.615-1.361l60.16-8.742L107.661,26.6c0.337-0.683,1.032-1.115,1.793-1.115s1.457,0.432,1.793,1.115
	l26.904,54.514l60.16,8.742c0.753,0.109,1.379,0.637,1.615,1.361c0.235,0.724,0.039,1.519-0.506,2.05l-43.532,42.434l10.277,59.917
	c0.129,0.75-0.18,1.508-0.795,1.956C165.022,197.827,164.609,197.956,164.194,197.956z M109.455,165.178
	c0.32,0,0.639,0.077,0.931,0.229l51.153,26.893l-9.77-56.959c-0.111-0.648,0.104-1.311,0.575-1.77l41.383-40.339l-57.19-8.311
	c-0.651-0.094-1.214-0.503-1.506-1.094l-25.576-51.823L83.878,83.828c-0.292,0.59-0.854,1-1.506,1.094l-57.19,8.311l41.383,40.339
	c0.471,0.459,0.687,1.122,0.575,1.77l-9.77,56.959l51.153-26.893C108.815,165.254,109.135,165.178,109.455,165.178z M126.05,158.505
	c-0.828,0-1.602-0.518-1.889-1.344l-7.86-22.616h-9.479l-7.86,22.616c-0.362,1.042-1.504,1.595-2.546,1.232
	c-1.043-0.363-1.595-1.502-1.232-2.546l7.404-21.302H92.47c-1.104,0-2-0.896-2-2v-13.774c-4.981-2.288-8.449-7.324-8.449-13.155
	c0-7.977,6.49-14.466,14.466-14.466c5.303,0,9.948,2.867,12.467,7.133c2.519-4.266,7.164-7.133,12.466-7.133
	c7.977,0,14.466,6.49,14.466,14.466c0,4.355-1.935,8.267-4.989,10.921c0.056,0.045,0.11,0.093,0.162,0.144l3.901-2.029
	c0.619-0.323,1.363-0.298,1.961,0.065c0.597,0.362,0.962,1.011,0.962,1.709v15.533c0,0.681-0.346,1.314-0.918,1.683
	c-0.573,0.368-1.294,0.419-1.912,0.137l-3.403-1.554v0.32c0,1.104-0.896,2-2,2h-9.114l7.404,21.302
	c0.363,1.043-0.189,2.183-1.232,2.546C126.49,158.469,126.268,158.505,126.05,158.505z M117.77,130.545h9.88v-1.432
	c0-0.681,0.346-1.314,0.918-1.683c0.574-0.368,1.294-0.42,1.912-0.137l3.403,1.554v-9.127l-3.311,1.722
	c-0.619,0.323-1.363,0.298-1.961-0.065c-0.472-0.286-0.798-0.75-0.915-1.277h-6.277c-1.104,0-2-0.896-2-2s0.896-2.019,2-2.019
	c5.771,0,10.466-4.695,10.466-10.466S127.191,95.15,121.42,95.15s-10.466,4.695-10.466,10.466l0.021,0.365
	c0.02,0.543-0.182,1.07-0.559,1.461c-0.754,0.782-2.148,0.782-2.902,0c-0.377-0.391-0.601-0.918-0.581-1.461l0.021-0.365
	c0-5.771-4.695-10.466-10.467-10.466c-5.771,0-10.466,4.695-10.466,10.466s4.695,10.466,10.466,10.466c1.104,0,2,0.896,2,2
	s-0.896,2.019-2,2.019H94.47v10.444h10.882c0.031-0.001,0.063-0.001,0.093,0h12.231C117.707,130.544,117.739,130.544,117.77,130.545
	z"/>
<g>
</g>
<g>
</g>
<g>
</g>
<g>
</g>
<g>
</g>
<g>
</g>
<g>
</g>
<g>
</g>
<g>
</g>
<g>
</g>
<g>
</g>
<g>
</g>
<g>
</g>
<g>
</g>
<g>
</g>
</svg>
