<?xml version="1.0" encoding="iso-8859-1"?>
<!-- Generator: Adobe Illustrator 17.1.0, SVG Export Plug-In . SVG Version: 6.00 Build 0)  -->
<!DOCTYPE svg PUBLIC "-//W3C//DTD SVG 1.1//EN" "http://www.w3.org/Graphics/SVG/1.1/DTD/svg11.dtd">
<svg version="1.1" id="Capa_1" xmlns="http://www.w3.org/2000/svg" xmlns:xlink="http://www.w3.org/1999/xlink" x="0px" y="0px"
	 viewBox="0 0 199.308 199.308" style="enable-background:new 0 0 199.308 199.308;" xml:space="preserve">
<path d="M112.938,199.308H40.41c-1.021,0-1.878-0.769-1.988-1.784L25.139,75.322h-3.475c-1.104,0-2-0.896-2-2v-6.039
	c0-3.718,3.024-6.742,6.742-6.742h1.734v-5.106c0-4.75,3.865-8.615,8.615-8.615h66.309l15.903-36.755
	c3.587-8.287,12.983-12.192,21.385-8.897l38.02,14.917c1.028,0.404,1.535,1.564,1.132,2.593c-0.403,1.027-1.561,1.535-2.593,1.132
	l-38.02-14.918c-6.391-2.507-13.527,0.465-16.252,6.762l-15.217,35.167h9.168c4.75,0,8.615,3.865,8.615,8.615v5.106h1.734
	c3.718,0,6.742,3.024,6.742,6.742v6.039c0,1.104-0.896,2-2,2h-3.475l-13.282,122.201
	C114.816,198.539,113.959,199.308,112.938,199.308z M42.204,195.308h68.94l4.013-36.92H94.351
	c-5.172,3.103-11.22,4.888-17.678,4.888c-6.457,0-12.506-1.785-17.678-4.888H38.191L42.204,195.308z M60.844,154.832
	c4.616,2.818,10.036,4.443,15.829,4.443s11.215-1.626,15.831-4.444c0.128-0.103,0.268-0.19,0.418-0.26
	c8.537-5.404,14.218-14.933,14.218-25.763c0-16.799-13.667-30.466-30.467-30.466c-16.799,0-30.466,13.667-30.466,30.466
	c0,10.83,5.679,20.357,14.216,25.762C60.575,154.641,60.716,154.729,60.844,154.832z M99.752,154.388h15.84l5.48-50.416h-20.525
	c6.526,6.275,10.594,15.09,10.594,24.837C111.14,138.945,106.741,148.075,99.752,154.388z M37.756,154.388h15.84
	c-6.989-6.313-11.389-15.442-11.389-25.579c0-9.747,4.066-18.562,10.593-24.837H32.276L37.756,154.388z M95.533,99.972h25.974
	l2.679-24.649H29.163l2.679,24.649h25.974c5.422-3.558,11.903-5.629,18.858-5.629S90.111,96.414,95.533,99.972z M23.665,71.322
	h106.019v-4.039c0-1.512-1.23-2.742-2.742-2.742H26.407c-1.512,0-2.742,1.23-2.742,2.742V71.322z M32.141,60.541h89.065v-5.106
	c0-2.545-2.07-4.615-4.615-4.615h-12.169c-0.029,0-0.061,0-0.09,0H36.756c-2.545,0-4.615,2.07-4.615,4.615V60.541z M77.577,149.2
	c-0.591,0-1.161-0.262-1.547-0.731c-0.492-0.602-0.593-1.433-0.257-2.133c0.027-0.057,2.914-6.298,2.914-17.33
	c0-10.978-3.929-17.03-3.969-17.09c-0.452-0.684-0.443-1.573,0.024-2.246c0.467-0.673,1.295-0.993,2.096-0.808
	c0.148,0.035,14.868,3.646,14.868,20.144c0,16.463-13.499,20.098-13.636,20.132C77.907,149.18,77.741,149.2,77.577,149.2z
	 M80.4,114.782c1.148,3.271,2.287,8.065,2.287,14.224c0,6.261-0.86,11.094-1.704,14.327c3.034-2.118,6.724-6.337,6.724-14.327
	C87.707,121.141,83.734,116.931,80.4,114.782z M70.958,149.2c-0.402,0-0.801-0.122-1.139-0.355
	c-0.334-0.231-8.178-5.825-8.178-20.07c0-14.213,6.815-19.365,7.105-19.578c0.443-0.322,1.001-0.447,1.535-0.354
	c0.539,0.097,1.015,0.41,1.315,0.867c0.215,0.325,5.246,8.077,5.246,19.065c0,10.854-3.924,18.968-4.091,19.308
	c-0.257,0.522-0.729,0.907-1.292,1.054C71.295,149.179,71.126,149.2,70.958,149.2z M69.494,114.206
	c-1.614,2.226-3.853,6.727-3.853,14.568c0,7.891,2.669,12.572,4.58,14.913c1.088-3.054,2.622-8.499,2.622-14.913
	C72.843,122.325,70.853,117.053,69.494,114.206z"/>
<g>
</g>
<g>
</g>
<g>
</g>
<g>
</g>
<g>
</g>
<g>
</g>
<g>
</g>
<g>
</g>
<g>
</g>
<g>
</g>
<g>
</g>
<g>
</g>
<g>
</g>
<g>
</g>
<g>
</g>
</svg>
