<?xml version="1.0" encoding="iso-8859-1"?>
<!-- Generator: Adobe Illustrator 17.1.0, SVG Export Plug-In . SVG Version: 6.00 Build 0)  -->
<!DOCTYPE svg PUBLIC "-//W3C//DTD SVG 1.1//EN" "http://www.w3.org/Graphics/SVG/1.1/DTD/svg11.dtd">
<svg version="1.1" id="Capa_1" xmlns="http://www.w3.org/2000/svg" xmlns:xlink="http://www.w3.org/1999/xlink" x="0px" y="0px"
	 viewBox="0 0 193.978 193.978" style="enable-background:new 0 0 193.978 193.978;" xml:space="preserve">
<path d="M187.728,175.091H6.25c-3.446,0-6.25-2.804-6.25-6.25V25.137c0-3.446,2.804-6.25,6.25-6.25h181.478
	c3.446,0,6.25,2.804,6.25,6.25v143.703C193.978,172.287,191.174,175.091,187.728,175.091z M4,153.424v15.417
	c0,1.241,1.009,2.25,2.25,2.25h181.478c1.241,0,2.25-1.009,2.25-2.25v-15.417H4z M4,149.424h185.978V38.965H4V149.424z M4,34.965
	h185.978v-9.828c0-1.241-1.009-2.25-2.25-2.25H6.25c-1.241,0-2.25,1.009-2.25,2.25V34.965z M40.468,166.966c-1.104,0-2-0.896-2-2v-1
	h-27.16c-1.104,0-2-0.896-2-2s0.896-2,2-2h27.16v-1.125c0-1.104,0.896-2,2-2s2,0.896,2,2v1.125H182.67c1.104,0,2,0.896,2,2
	s-0.896,2-2,2H42.468v1C42.468,166.07,41.573,166.966,40.468,166.966z M96.989,128.341c-17.737,0-32.167-14.43-32.167-32.167
	s14.43-32.167,32.167-32.167s32.167,14.43,32.167,32.167S114.726,128.341,96.989,128.341z M96.989,68.007
	c-15.531,0-28.167,12.636-28.167,28.167s12.635,28.167,28.167,28.167s28.167-12.635,28.167-28.167S112.521,68.007,96.989,68.007z
	 M87.37,113.031c-0.345,0-0.69-0.089-1-0.268c-0.619-0.357-1-1.018-1-1.732V81.317c0-0.714,0.381-1.375,1-1.732
	c0.619-0.357,1.381-0.357,2,0l25.734,14.857c0.619,0.357,1,1.018,1,1.732s-0.381,1.375-1,1.732L88.37,112.763
	C88.06,112.942,87.715,113.031,87.37,113.031z M89.37,84.781v22.787l19.734-11.394L89.37,84.781z M181.26,30.926H38.971
	c-1.104,0-2-0.896-2-2s0.896-2,2-2H181.26c1.104,0,2,0.896,2,2S182.364,30.926,181.26,30.926z M25.037,30.926h-0.201
	c-1.104,0-2-0.896-2-2s0.896-2,2-2h0.201c1.104,0,2,0.896,2,2S26.142,30.926,25.037,30.926z M17.467,30.926h-0.201
	c-1.104,0-2-0.896-2-2s0.896-2,2-2h0.201c1.104,0,2,0.896,2,2S18.571,30.926,17.467,30.926z M9.897,30.926H9.696
	c-1.104,0-2-0.896-2-2s0.896-2,2-2h0.201c1.104,0,2,0.896,2,2S11.001,30.926,9.897,30.926z"/>
<g>
</g>
<g>
</g>
<g>
</g>
<g>
</g>
<g>
</g>
<g>
</g>
<g>
</g>
<g>
</g>
<g>
</g>
<g>
</g>
<g>
</g>
<g>
</g>
<g>
</g>
<g>
</g>
<g>
</g>
</svg>
