<?xml version="1.0" encoding="iso-8859-1"?>
<!-- Generator: Adobe Illustrator 17.1.0, SVG Export Plug-In . SVG Version: 6.00 Build 0)  -->
<!DOCTYPE svg PUBLIC "-//W3C//DTD SVG 1.1//EN" "http://www.w3.org/Graphics/SVG/1.1/DTD/svg11.dtd">
<svg version="1.1" id="Capa_1" xmlns="http://www.w3.org/2000/svg" xmlns:xlink="http://www.w3.org/1999/xlink" x="0px" y="0px"
	 viewBox="0 0 226.003 226.003" style="enable-background:new 0 0 226.003 226.003;" xml:space="preserve">
<path d="M183.027,193.861H39.082c-8.109,0-14.706-6.597-14.706-14.705v-11.147c-1.179,0.033-2.349,0.223-3.497,0.566
	c-1.057,0.314-2.172-0.283-2.49-1.341l-4.696-15.643c-0.317-1.058,0.282-2.173,1.34-2.49c4.783-1.437,8.348-5.357,9.342-10.257
	v-5.395c-0.081-0.391-0.179-0.78-0.294-1.162c-1.037-3.453-3.356-6.297-6.531-8.005c-3.175-1.71-6.827-2.078-10.28-1.043
	c-0.507,0.153-1.056,0.098-1.523-0.154c-0.467-0.251-0.815-0.678-0.968-1.186l-4.696-15.645c-0.152-0.508-0.097-1.056,0.154-1.523
	c0.251-0.467,0.678-0.814,1.187-0.968c3.454-1.036,6.297-3.355,8.006-6.531c1.709-3.175,2.079-6.825,1.042-10.279
	c-0.152-0.508-0.097-1.056,0.154-1.523c0.251-0.467,0.678-0.814,1.186-0.968L185.82,32.226c0.508-0.15,1.056-0.096,1.523,0.155
	c0.467,0.251,0.815,0.678,0.968,1.186c2.141,7.13,9.685,11.194,16.812,9.049c1.058-0.311,2.173,0.282,2.491,1.341L212.31,59.6
	c0.317,1.058-0.283,2.173-1.34,2.49c-7.13,2.142-11.189,9.684-9.049,16.813c2.141,7.129,9.679,11.188,16.812,9.048
	c1.056-0.311,2.172,0.282,2.49,1.341l4.696,15.644c0.152,0.508,0.097,1.056-0.154,1.523c-0.251,0.467-0.678,0.814-1.187,0.968
	c-3.454,1.036-6.297,3.355-8.006,6.531c-1.709,3.175-2.079,6.826-1.042,10.28c0.152,0.508,0.097,1.056-0.154,1.523
	c-0.251,0.467-0.678,0.814-1.186,0.968l-16.457,4.939v47.487C197.733,187.264,191.136,193.861,183.027,193.861z M28.376,166.088
	v13.067c0,5.902,4.802,10.705,10.706,10.705h143.945c5.903,0,10.706-4.803,10.706-10.705v-53.357H28.376V166.088z M18.067,152.247
	l3.611,12.029c0.893-0.16,1.793-0.251,2.698-0.271v-16.368C22.67,149.61,20.524,151.194,18.067,152.247z M189.542,82.322
	c4.85,2.406,8.191,7.412,8.191,13.183v31.987l13.499-4.052c-0.703-3.88-0.078-7.855,1.818-11.379
	c1.896-3.522,4.87-6.233,8.495-7.784l-3.611-12.028c-8.627,1.549-17.264-3.601-19.845-12.195c-2.58-8.595,1.79-17.651,9.847-21.109
	l-3.611-12.03c-7.986,1.433-15.964-2.864-19.161-10.313L37.727,80.86c0.446-0.041,0.898-0.062,1.355-0.062h31.314l106.961-32.109
	c1.057-0.314,2.173,0.283,2.491,1.341L189.542,82.322z M11.177,118.661c2.856,0,5.685,0.707,8.27,2.099
	c1.897,1.021,3.558,2.354,4.93,3.933V95.504c0-5.608,3.156-10.494,7.785-12.974l-17.389,5.221c0.702,3.88,0.077,7.854-1.819,11.378
	c-1.896,3.522-4.87,6.233-8.495,7.784l3.61,12.028C9.102,118.754,10.141,118.661,11.177,118.661z M28.376,121.798h165.356v-22
	H28.376V121.798z M28.376,95.798h165.356v-0.232c0-5.902-4.803-10.705-10.706-10.705h-112.5c-0.031,0-0.061,0-0.092,0H39.082
	c-5.903,0-10.706,4.803-10.706,10.705V95.798z M84.309,80.798h98.719c0.65,0,1.29,0.042,1.918,0.125l-8.354-27.828L84.309,80.798z
	 M126.305,172.298h-86.75c-1.104,0-2-0.896-2-2v-9c0-1.104,0.896-2,2-2h86.75c1.104,0,2,0.896,2,2v9
	C128.305,171.403,127.409,172.298,126.305,172.298z M41.555,168.298h82.75v-5h-82.75V168.298z M175.305,154.798H39.555
	c-1.104,0-2-0.896-2-2v-9c0-1.104,0.896-2,2-2h135.75c1.104,0,2,0.896,2,2v9C177.305,153.903,176.409,154.798,175.305,154.798z
	 M41.555,150.798h131.75v-5H41.555V150.798z"/>
<g>
</g>
<g>
</g>
<g>
</g>
<g>
</g>
<g>
</g>
<g>
</g>
<g>
</g>
<g>
</g>
<g>
</g>
<g>
</g>
<g>
</g>
<g>
</g>
<g>
</g>
<g>
</g>
<g>
</g>
</svg>
