<?xml version="1.0" encoding="iso-8859-1"?>
<!-- Generator: Adobe Illustrator 17.1.0, SVG Export Plug-In . SVG Version: 6.00 Build 0)  -->
<!DOCTYPE svg PUBLIC "-//W3C//DTD SVG 1.1//EN" "http://www.w3.org/Graphics/SVG/1.1/DTD/svg11.dtd">
<svg version="1.1" id="Capa_1" xmlns="http://www.w3.org/2000/svg" xmlns:xlink="http://www.w3.org/1999/xlink" x="0px" y="0px"
	 viewBox="0 0 199.574 199.574" style="enable-background:new 0 0 199.574 199.574;" xml:space="preserve">
<path d="M99.787,199.574C44.764,199.574,0,154.81,0,99.787S44.764,0,99.787,0s99.787,44.765,99.787,99.787
	S154.81,199.574,99.787,199.574z M99.787,4C46.97,4,4,46.97,4,99.787s42.97,95.787,95.787,95.787s95.787-42.97,95.787-95.787
	S152.604,4,99.787,4z M99.787,189.574C50.278,189.574,10,149.296,10,99.787S50.278,10,99.787,10s89.787,40.278,89.787,89.787
	S149.296,189.574,99.787,189.574z M99.787,14C52.484,14,14,52.484,14,99.787s38.484,85.787,85.787,85.787
	s85.787-38.484,85.787-85.787S147.09,14,99.787,14z M99.787,170.097c-38.769,0-70.31-31.541-70.31-70.31s31.541-70.31,70.31-70.31
	s70.31,31.541,70.31,70.31S138.556,170.097,99.787,170.097z M43.712,135.147c11.484,18.146,31.532,30.363,54.416,30.929
	l15.194-44.604L43.712,135.147z M125.307,98.691l-22.944,67.355c22.833-0.877,42.746-13.354,53.993-31.692L125.307,98.691z
	 M41.121,68.897c-4.88,9.23-7.644,19.742-7.644,30.89c0,11.478,2.931,22.281,8.083,31.706l46.309-9.098L41.121,68.897z
	 M126.062,93.467l32.393,37.206c4.878-9.229,7.643-19.741,7.643-30.886c0-11.478-2.932-22.284-8.084-31.709l-46.276,8.935
	l14.284,16.407C126.035,93.436,126.048,93.45,126.062,93.467z M77.408,104.346l14.995,17.159l22.406-4.401l7.46-21.9l-14.831-17.035
	c-0.079-0.091-0.148-0.187-0.208-0.285l-22.305,4.306L77.408,104.346z M43.219,65.219l31.146,35.645l7.133-21.023
	c0.008-0.023,0.016-0.048,0.024-0.071l15.69-46.242C74.377,34.402,54.467,46.879,43.219,65.219z M101.447,33.498L86.405,77.829
	l69.453-13.408C144.373,46.277,124.329,34.063,101.447,33.498z"/>
<g>
</g>
<g>
</g>
<g>
</g>
<g>
</g>
<g>
</g>
<g>
</g>
<g>
</g>
<g>
</g>
<g>
</g>
<g>
</g>
<g>
</g>
<g>
</g>
<g>
</g>
<g>
</g>
<g>
</g>
</svg>
