<?xml version="1.0" encoding="iso-8859-1"?>
<!-- Generator: Adobe Illustrator 17.1.0, SVG Export Plug-In . SVG Version: 6.00 Build 0)  -->
<!DOCTYPE svg PUBLIC "-//W3C//DTD SVG 1.1//EN" "http://www.w3.org/Graphics/SVG/1.1/DTD/svg11.dtd">
<svg version="1.1" id="Capa_1" xmlns="http://www.w3.org/2000/svg" xmlns:xlink="http://www.w3.org/1999/xlink" x="0px" y="0px"
	 viewBox="0 0 190.025 190.025" style="enable-background:new 0 0 190.025 190.025;" xml:space="preserve">
<path d="M160.853,190.025c-0.46,0-0.922-0.158-1.299-0.48l-64.542-55.191l-64.541,55.191c-0.839,0.718-2.103,0.62-2.82-0.22
	c-0.718-0.839-0.619-2.102,0.22-2.82l64.063-54.783L27.891,76.957c-4.094-0.883-6.466-1.483-6.557-1.506
	c-0.885-0.226-1.504-1.024-1.504-1.938c0-3.814,1.688-7.39,4.63-9.811c2.943-2.421,6.777-3.388,10.519-2.654
	c0.824,0.162,1.672,0.325,2.543,0.49V2c0-1.104,0.896-2,2-2s2,0.896,2,2v3.338h106.981V2c0-1.104,0.896-2,2-2s2,0.896,2,2v59.538
	c0.871-0.165,1.718-0.328,2.542-0.49c3.742-0.734,7.576,0.233,10.52,2.654c2.942,2.421,4.63,5.997,4.63,9.811
	c0,0.914-0.619,1.711-1.504,1.938c-0.091,0.023-2.463,0.623-6.558,1.506L98.09,131.723l64.063,54.783
	c0.839,0.718,0.938,1.98,0.22,2.82C161.978,189.788,161.417,190.025,160.853,190.025z M35.959,78.592l59.054,50.499l59.054-50.499
	c-14.008,2.67-36.319,6.072-59.053,6.072C72.278,84.665,49.967,81.262,35.959,78.592z M23.965,71.973
	c7.416,1.753,38.814,8.691,71.047,8.691s63.631-6.938,71.047-8.691c-0.36-2.02-1.423-3.855-3.036-5.183
	c-2.016-1.659-4.645-2.32-7.208-1.818c-14.865,2.918-37.48,6.397-60.804,6.397c-23.323,0-45.939-3.479-60.804-6.397
	c-2.564-0.503-5.191,0.159-7.207,1.817C25.388,68.118,24.325,69.953,23.965,71.973z M41.522,62.271
	c14.365,2.55,33.683,5.1,53.491,5.1c19.808,0,39.126-2.55,53.491-5.1V39.846H41.522V62.271z M41.522,35.846h106.981V9.338H41.522
	V35.846z M142.679,31.049c-0.5,0-1-0.186-1.388-0.561l-4.445-4.286v2.847c0,1.104-0.896,2-2,2s-2-0.896-2-2v-13.5
	c0-1.104,0.896-2,2-2h4.458c2.964,0,5.375,2.411,5.375,5.375c0,2.554-1.791,4.698-4.183,5.242l3.571,3.444
	c0.795,0.767,0.818,2.033,0.051,2.828C143.727,30.845,143.203,31.049,142.679,31.049z M136.846,20.299h2.458
	c0.758,0,1.375-0.617,1.375-1.375s-0.617-1.375-1.375-1.375h-2.458V20.299z M75.554,31.049c-0.5,0-1-0.186-1.388-0.561l-4.445-4.286
	v2.847c0,1.104-0.896,2-2,2s-2-0.896-2-2v-13.5c0-1.104,0.896-2,2-2h4.458c2.964,0,5.375,2.411,5.375,5.375
	c0,2.554-1.791,4.698-4.183,5.242l3.571,3.444c0.795,0.767,0.818,2.033,0.051,2.828C76.602,30.845,76.078,31.049,75.554,31.049z
	 M69.721,20.299h2.458c0.758,0,1.375-0.617,1.375-1.375s-0.617-1.375-1.375-1.375h-2.458V20.299z M124.568,31.049h-0.167
	c-3.4,0-6.167-2.766-6.167-6.167v-5.167c0-3.4,2.766-6.167,6.167-6.167h0.167c3.4,0,6.167,2.766,6.167,6.167v5.167
	C130.735,28.283,127.969,31.049,124.568,31.049z M124.401,17.549c-1.195,0-2.167,0.972-2.167,2.167v5.167
	c0,1.195,0.972,2.167,2.167,2.167h0.167c1.195,0,2.167-0.972,2.167-2.167v-5.167c0-1.195-0.972-2.167-2.167-2.167H124.401z
	 M110.785,31.049c-1.104,0-2-0.896-2-2v-11.5h-3c-1.104,0-2-0.896-2-2s0.896-2,2-2h10c1.104,0,2,0.896,2,2s-0.896,2-2,2h-3v11.5
	C112.785,30.154,111.889,31.049,110.785,31.049z M100.971,31.049h-2.917c-3.354,0-6.083-2.729-6.083-6.083v-5.333
	c0-3.354,2.729-6.083,6.083-6.083h2.917c1.104,0,2,0.896,2,2s-0.896,2-2,2h-2.917c-1.149,0-2.083,0.935-2.083,2.083v5.333
	c0,1.149,0.935,2.083,2.083,2.083h2.917c1.104,0,2,0.896,2,2S102.075,31.049,100.971,31.049z M88.846,31.049h-7
	c-1.104,0-2-0.896-2-2v-13.5c0-1.104,0.896-2,2-2h7c1.104,0,2,0.896,2,2s-0.896,2-2,2h-5v2.75h3.503c1.104,0,2,0.896,2,2
	s-0.896,2-2,2h-3.503v2.75h5c1.104,0,2,0.896,2,2S89.95,31.049,88.846,31.049z M61.096,31.049c-1.104,0-2-0.896-2-2v-13.5
	c0-1.104,0.896-2,2-2s2,0.896,2,2v13.5C63.096,30.154,62.2,31.049,61.096,31.049z M49.466,31.049h-2.121c-1.104,0-2-0.896-2-2v-13.5
	c0-1.104,0.896-2,2-2h2.121c4,0,7.254,3.028,7.254,6.75v4C56.721,28.021,53.466,31.049,49.466,31.049z M49.346,27.049h0.121
	c1.794,0,3.254-1.234,3.254-2.75v-4c0-1.516-1.46-2.75-3.254-2.75h-0.121V27.049z"/>
<g>
</g>
<g>
</g>
<g>
</g>
<g>
</g>
<g>
</g>
<g>
</g>
<g>
</g>
<g>
</g>
<g>
</g>
<g>
</g>
<g>
</g>
<g>
</g>
<g>
</g>
<g>
</g>
<g>
</g>
</svg>
