<?xml version="1.0" encoding="iso-8859-1"?>
<!-- Generator: Adobe Illustrator 17.1.0, SVG Export Plug-In . SVG Version: 6.00 Build 0)  -->
<!DOCTYPE svg PUBLIC "-//W3C//DTD SVG 1.1//EN" "http://www.w3.org/Graphics/SVG/1.1/DTD/svg11.dtd">
<svg version="1.1" id="Capa_1" xmlns="http://www.w3.org/2000/svg" xmlns:xlink="http://www.w3.org/1999/xlink" x="0px" y="0px"
	 viewBox="0 0 220.59 220.59" style="enable-background:new 0 0 220.59 220.59;" xml:space="preserve">
<path d="M205.021,180.791h-94.365c-0.122,0-0.24-0.011-0.355-0.031c-0.116,0.021-0.234,0.031-0.356,0.031H15.58
	c-5.254,0-10.084-2.857-12.605-7.458l-0.658-1.2c-0.1-0.182-0.168-0.372-0.207-0.565c-0.716-0.846-1.281-1.844-1.651-2.964
	c-1.205-3.643,0.007-7.474,3.087-9.761l41.472-30.794V48.174c0-4.618,3.757-8.375,8.375-8.375h113.803
	c4.618,0,8.375,3.757,8.375,8.375v79.874l41.472,30.794l0,0c3.08,2.287,4.292,6.118,3.087,9.761
	c-0.368,1.112-0.928,2.104-1.637,2.946c-0.038,0.199-0.108,0.396-0.21,0.583l-0.658,1.2
	C215.105,177.933,210.276,180.791,205.021,180.791z M9.195,174.598c1.793,1.397,4.03,2.192,6.385,2.192h94.365
	c0.122,0,0.24,0.011,0.356,0.031c0.115-0.021,0.234-0.031,0.355-0.031h94.365c2.355,0,4.592-0.795,6.385-2.192H9.195z
	 M47.679,131.054L5.931,162.053c-2.027,1.506-2.194,3.722-1.674,5.294c0.52,1.571,1.975,3.251,4.5,3.251h203.077
	c2.525,0,3.979-1.68,4.5-3.251c0.52-1.572,0.353-3.788-1.674-5.294l-41.749-30.999H47.679z M49.018,127.054h122.553v-78.88
	c0-2.412-1.962-4.375-4.375-4.375H53.393c-2.413,0-4.375,1.963-4.375,4.375V127.054z M191.213,165.051
	c-5.097,0-10.583-1.673-10.583-5.345s5.486-5.344,10.583-5.344s10.583,1.672,10.583,5.344S196.31,165.051,191.213,165.051z
	 M184.865,159.707c0.793,0.538,2.989,1.345,6.348,1.345c3.358,0,5.555-0.807,6.348-1.345c-0.793-0.537-2.99-1.344-6.348-1.344
	C187.854,158.363,185.657,159.17,184.865,159.707z M110.295,163.278c-20.014,0-57.865-2.721-57.865-13.02
	s37.851-13.021,57.865-13.021s57.865,2.722,57.865,13.021S130.309,163.278,110.295,163.278z M110.295,141.238
	c-14.796,0-28.688,1.133-39.116,3.19c-12.04,2.375-14.75,5.072-14.75,5.83s2.71,3.455,14.75,5.83
	c10.428,2.057,24.319,3.189,39.116,3.189c14.796,0,28.688-1.133,39.115-3.189c12.04-2.375,14.75-5.072,14.75-5.83
	s-2.709-3.455-14.75-5.83C138.982,142.371,125.091,141.238,110.295,141.238z M164.413,114.07H56.177c-1.104,0-2-0.896-2-2V54.122
	c0-1.104,0.896-2,2-2h108.237c1.104,0,2,0.896,2,2v57.948C166.413,113.174,165.518,114.07,164.413,114.07z M58.177,110.07h104.237
	V56.122H58.177V110.07z"/>
<g>
</g>
<g>
</g>
<g>
</g>
<g>
</g>
<g>
</g>
<g>
</g>
<g>
</g>
<g>
</g>
<g>
</g>
<g>
</g>
<g>
</g>
<g>
</g>
<g>
</g>
<g>
</g>
<g>
</g>
</svg>
