<?xml version="1.0" encoding="iso-8859-1"?>
<!-- Generator: Adobe Illustrator 17.1.0, SVG Export Plug-In . SVG Version: 6.00 Build 0)  -->
<!DOCTYPE svg PUBLIC "-//W3C//DTD SVG 1.1//EN" "http://www.w3.org/Graphics/SVG/1.1/DTD/svg11.dtd">
<svg version="1.1" id="Capa_1" xmlns="http://www.w3.org/2000/svg" xmlns:xlink="http://www.w3.org/1999/xlink" x="0px" y="0px"
	 viewBox="0 0 197.334 197.334" style="enable-background:new 0 0 197.334 197.334;" xml:space="preserve">
<path d="M195.334,197.334H2c-1.104,0-2-0.896-2-2V2c0-1.104,0.896-2,2-2h193.333c1.104,0,2,0.896,2,2v193.334
	C197.334,196.438,196.438,197.334,195.334,197.334z M4,193.334h189.333V4H4V193.334z M108.824,173.95
	c-0.599,0-1.191-0.268-1.585-0.779l-16.619-21.562L74,173.171c-0.675,0.876-1.93,1.037-2.805,0.363
	c-0.875-0.674-1.037-1.93-0.363-2.805l17.262-22.396l-17.262-22.396c-0.674-0.875-0.512-2.131,0.363-2.805
	c0.875-0.675,2.13-0.513,2.805,0.363l16.619,21.562l16.619-21.562c0.674-0.875,1.931-1.038,2.805-0.363
	c0.875,0.674,1.038,1.93,0.363,2.805l-17.262,22.396l17.262,22.396c0.674,0.875,0.512,2.131-0.363,2.805
	C109.68,173.814,109.25,173.95,108.824,173.95z M145.56,173.95c-1.104,0-2-0.896-2-2v-45.233h-16.313c-1.104,0-2-0.896-2-2
	s0.896-2,2-2h36.627c1.104,0,2,0.896,2,2s-0.896,2-2,2H147.56v45.233C147.56,173.055,146.664,173.95,145.56,173.95z M117.648,173.95
	c-1.104,0-2-0.896-2-2v-47.233c0-1.104,0.896-2,2-2s2,0.896,2,2v47.233C119.648,173.055,118.753,173.95,117.648,173.95z
	 M63.282,173.95h-29.86c-1.104,0-2-0.896-2-2v-47.233c0-1.104,0.896-2,2-2h29.86c1.104,0,2,0.896,2,2s-0.896,2-2,2h-27.86v19.617
	h27.86c1.104,0,2,0.896,2,2s-0.896,2-2,2h-27.86v19.616h27.86c1.104,0,2,0.896,2,2S64.387,173.95,63.282,173.95z M163.911,107.17
	h-49.68c-1.104,0-2-0.896-2-2V90.717c0-1.104,0.896-2,2-2s2,0.896,2,2v12.453h45.68V27.384h-45.68v12c0,1.104-0.896,2-2,2
	s-2-0.896-2-2v-14c0-1.104,0.896-2,2-2h49.68c1.104,0,2,0.896,2,2v79.786C165.911,106.274,165.016,107.17,163.911,107.17z
	 M129.08,88.411c-0.505,0-1.01-0.189-1.399-0.571c-0.789-0.772-0.802-2.039-0.03-2.828l7.501-7.66H33.422c-1.104,0-2-0.896-2-2
	V55.202c0-1.104,0.896-2,2-2h101.384l-7.345-7.193c-0.789-0.772-0.802-2.039-0.029-2.828c0.773-0.79,2.04-0.803,2.828-0.029
	l21.13,20.692c0.012,0.012,0.024,0.023,0.036,0.035c0.002,0.002,0.002,0.003,0.004,0.004c0.742,0.763,0.755,1.977,0.03,2.756
	c-0.021,0.021-0.042,0.044-0.063,0.064l0,0.001c-0.001,0.001-0.002,0.002-0.003,0.003c-0.006,0.006-0.013,0.013-0.019,0.019
	l-3.536,3.388l-17.329,17.697C130.117,88.21,129.598,88.411,129.08,88.411z M35.422,73.352h103.256l6.346-6.082l2.014-2.057
	l-8.36-8.011H35.422V73.352z"/>
<g>
</g>
<g>
</g>
<g>
</g>
<g>
</g>
<g>
</g>
<g>
</g>
<g>
</g>
<g>
</g>
<g>
</g>
<g>
</g>
<g>
</g>
<g>
</g>
<g>
</g>
<g>
</g>
<g>
</g>
</svg>
