<?xml version="1.0" encoding="iso-8859-1"?>
<!-- Generator: Adobe Illustrator 17.1.0, SVG Export Plug-In . SVG Version: 6.00 Build 0)  -->
<!DOCTYPE svg PUBLIC "-//W3C//DTD SVG 1.1//EN" "http://www.w3.org/Graphics/SVG/1.1/DTD/svg11.dtd">
<svg version="1.1" id="Capa_1" xmlns="http://www.w3.org/2000/svg" xmlns:xlink="http://www.w3.org/1999/xlink" x="0px" y="0px"
	 viewBox="0 0 202.504 202.504" style="enable-background:new 0 0 202.504 202.504;" xml:space="preserve">
<path d="M175.178,192.713H165.11c-0.599,0-1.165-0.268-1.545-0.73l-36.979-44.985h-23.335v9.469c2.366,0.829,4.068,3.084,4.068,5.73
	c0,3.346-2.723,6.069-6.068,6.069c-3.346,0-6.068-2.723-6.068-6.069c0-2.646,1.702-4.901,4.068-5.73v-9.469H75.917l-36.979,44.985
	c-0.38,0.462-0.947,0.73-1.545,0.73H27.326c-0.773,0-1.478-0.446-1.808-1.146c-0.331-0.7-0.228-1.527,0.263-2.125l34.89-42.445
	H16.568c-1.104,0-2-0.896-2-2V37.815H9.472C4.249,37.815,0,33.566,0,28.343v0c0-5.223,4.249-9.472,9.472-9.472h81.113v-7.079
	c0-1.104,0.896-2,2-2h17.333c1.104,0,2,0.896,2,2v7.079h81.112c5.224,0,9.473,4.249,9.473,9.472v0c0,5.223-4.249,9.472-9.473,9.472
	h-5.095v107.183c0,1.104-0.896,2-2,2h-44.104l34.89,42.445c0.491,0.598,0.594,1.425,0.264,2.125
	C176.655,192.266,175.951,192.713,175.178,192.713z M166.056,188.713h4.889l-34.29-41.715h-4.889L166.056,188.713z M31.559,188.713
	h4.89l34.291-41.715h-4.89L31.559,188.713z M101.252,160.128c-1.141,0-2.068,0.928-2.068,2.068s0.928,2.069,2.068,2.069
	s2.068-0.928,2.068-2.069S102.393,160.128,101.252,160.128z M137.616,142.997h46.32V37.815H18.568v105.183h46.32
	c0.012,0,0.023,0,0.035,0h10.033c0.012,0,0.024,0,0.035,0h52.523c0.012,0,0.023,0,0.035,0h10.032
	C137.593,142.997,137.604,142.997,137.616,142.997z M11.768,33.815h178.969V22.87H11.768V33.815z M7.768,23.142
	C5.582,23.86,4,25.92,4,28.342c0,2.423,1.582,4.483,3.768,5.201V23.142z M194.736,23.142v10.401c2.186-0.718,3.768-2.778,3.768-5.2
	S196.922,23.86,194.736,23.142z M94.585,18.87h13.333v-5.079H94.585V18.87z"/>
<g>
</g>
<g>
</g>
<g>
</g>
<g>
</g>
<g>
</g>
<g>
</g>
<g>
</g>
<g>
</g>
<g>
</g>
<g>
</g>
<g>
</g>
<g>
</g>
<g>
</g>
<g>
</g>
<g>
</g>
</svg>
