<?xml version="1.0" encoding="iso-8859-1"?>
<!-- Generator: Adobe Illustrator 17.1.0, SVG Export Plug-In . SVG Version: 6.00 Build 0)  -->
<!DOCTYPE svg PUBLIC "-//W3C//DTD SVG 1.1//EN" "http://www.w3.org/Graphics/SVG/1.1/DTD/svg11.dtd">
<svg version="1.1" id="Capa_1" xmlns="http://www.w3.org/2000/svg" xmlns:xlink="http://www.w3.org/1999/xlink" x="0px" y="0px"
	 viewBox="0 0 193.978 193.978" style="enable-background:new 0 0 193.978 193.978;" xml:space="preserve">
<path d="M187.728,175.09H6.25c-3.446,0-6.25-2.804-6.25-6.25V25.137c0-3.446,2.804-6.25,6.25-6.25h181.478
	c3.446,0,6.25,2.804,6.25,6.25V168.84C193.978,172.287,191.174,175.09,187.728,175.09z M4,38.965V168.84c0,1.24,1.01,2.25,2.25,2.25
	h181.478c1.24,0,2.25-1.01,2.25-2.25V38.965H4z M4,34.965h185.978v-9.828c0-1.24-1.01-2.25-2.25-2.25H6.25
	c-1.24,0-2.25,1.01-2.25,2.25V34.965z M178.985,157.656H151.36c-1.104,0-2-0.896-2-2s0.896-2,2-2h27.625c1.104,0,2,0.896,2,2
	S180.09,157.656,178.985,157.656z M139.694,157.656h-33.099c-1.104,0-2-0.896-2-2v-43c0-1.104,0.896-2,2-2h33.099
	c1.104,0,2,0.896,2,2v43C141.694,156.76,140.799,157.656,139.694,157.656z M108.596,153.656h29.099v-39h-29.099V153.656z
	 M87.382,157.656H59.757c-1.104,0-2-0.896-2-2s0.896-2,2-2h27.625c1.104,0,2,0.896,2,2S88.486,157.656,87.382,157.656z
	 M48.09,157.656H14.992c-1.104,0-2-0.896-2-2v-43c0-1.104,0.896-2,2-2H48.09c1.104,0,2,0.896,2,2v43
	C50.09,156.76,49.194,157.656,48.09,157.656z M16.992,153.656H46.09v-39H16.992V153.656z M169.242,149.239H151.36
	c-1.104,0-2-0.896-2-2s0.896-2,2-2h17.882c1.104,0,2,0.896,2,2S170.347,149.239,169.242,149.239z M77.638,149.239H59.757
	c-1.104,0-2-0.896-2-2s0.896-2,2-2h17.881c1.104,0,2,0.896,2,2S78.742,149.239,77.638,149.239z M117.742,144.469
	c-0.414,0-0.827-0.129-1.176-0.382c-0.616-0.447-0.924-1.206-0.795-1.956l0.854-4.979l-3.617-3.527
	c-0.545-0.531-0.741-1.326-0.506-2.05s0.861-1.252,1.615-1.361l4.998-0.726l2.235-4.53c0.337-0.683,1.032-1.115,1.794-1.115
	s1.457,0.433,1.794,1.115l2.235,4.53l4.999,0.726c0.754,0.109,1.38,0.638,1.615,1.361s0.039,1.519-0.506,2.05l-3.618,3.527
	l0.854,4.979c0.128,0.75-0.181,1.509-0.796,1.956c-0.616,0.447-1.432,0.505-2.106,0.152l-4.472-2.352l-4.472,2.352
	C118.381,144.393,118.061,144.469,117.742,144.469z M123.145,137.628c0.319,0,0.64,0.076,0.931,0.229l1.815,0.955l-0.347-2.021
	c-0.11-0.648,0.104-1.311,0.575-1.77l1.469-1.432l-2.029-0.295c-0.651-0.095-1.215-0.504-1.507-1.095l-0.907-1.839l-0.907,1.839
	c-0.292,0.591-0.855,1-1.507,1.095l-2.028,0.294l1.469,1.433c0.471,0.459,0.686,1.121,0.575,1.77l-0.348,2.021l1.815-0.955
	C122.505,137.705,122.825,137.628,123.145,137.628z M36.943,144.469c-0.318,0-0.638-0.076-0.931-0.229l-4.472-2.352l-4.472,2.352
	c-0.672,0.353-1.488,0.295-2.106-0.152c-0.615-0.447-0.924-1.206-0.796-1.956l0.854-4.979l-3.618-3.526
	c-0.545-0.532-0.741-1.327-0.506-2.051s0.861-1.252,1.615-1.361l4.999-0.726l2.235-4.53c0.337-0.683,1.032-1.115,1.794-1.115
	s1.457,0.433,1.794,1.115l2.235,4.53l4.999,0.726c0.754,0.109,1.38,0.638,1.615,1.361s0.039,1.519-0.506,2.051l-3.618,3.526
	l0.854,4.979c0.128,0.75-0.18,1.509-0.796,1.956C37.771,144.34,37.357,144.469,36.943,144.469z M31.541,137.628
	c0.319,0,0.64,0.076,0.931,0.229l1.815,0.955l-0.347-2.021c-0.111-0.648,0.104-1.311,0.574-1.771l1.469-1.432l-2.028-0.294
	c-0.651-0.095-1.215-0.504-1.507-1.095l-0.907-1.839l-0.907,1.839c-0.292,0.591-0.855,1-1.507,1.095l-2.028,0.294l1.469,1.432
	c0.471,0.46,0.687,1.122,0.575,1.771l-0.348,2.021l1.815-0.955C30.901,137.705,31.222,137.628,31.541,137.628z M174.829,140.573
	H151.36c-1.104,0-2-0.896-2-2s0.896-2,2-2h23.469c1.104,0,2,0.896,2,2S175.934,140.573,174.829,140.573z M83.226,140.573H59.757
	c-1.104,0-2-0.896-2-2s0.896-2,2-2h23.469c1.104,0,2,0.896,2,2S84.33,140.573,83.226,140.573z M169.242,123.323H151.36
	c-1.104,0-2-0.896-2-2s0.896-2,2-2h17.882c1.104,0,2,0.896,2,2S170.347,123.323,169.242,123.323z M77.638,123.323H59.757
	c-1.104,0-2-0.896-2-2s0.896-2,2-2h17.881c1.104,0,2,0.896,2,2S78.742,123.323,77.638,123.323z M174.829,114.656H151.36
	c-1.104,0-2-0.896-2-2s0.896-2,2-2h23.469c1.104,0,2,0.896,2,2S175.934,114.656,174.829,114.656z M83.226,114.656H59.757
	c-1.104,0-2-0.896-2-2s0.896-2,2-2h23.469c1.104,0,2,0.896,2,2S84.33,114.656,83.226,114.656z M178.985,95.989H151.36
	c-1.104,0-2-0.896-2-2s0.896-2,2-2h27.625c1.104,0,2,0.896,2,2S180.09,95.989,178.985,95.989z M139.694,95.989h-33.099
	c-1.104,0-2-0.896-2-2v-43c0-1.104,0.896-2,2-2h33.099c1.104,0,2,0.896,2,2v43C141.694,95.093,140.799,95.989,139.694,95.989z
	 M108.596,91.989h29.099v-39h-29.099V91.989z M87.382,95.989H59.757c-1.104,0-2-0.896-2-2s0.896-2,2-2h27.625c1.104,0,2,0.896,2,2
	S88.486,95.989,87.382,95.989z M48.09,95.989H14.992c-1.104,0-2-0.896-2-2v-43c0-1.104,0.896-2,2-2H48.09c1.104,0,2,0.896,2,2v43
	C50.09,95.093,49.194,95.989,48.09,95.989z M16.992,91.989H46.09v-39H16.992V91.989z M169.242,87.573H151.36c-1.104,0-2-0.896-2-2
	s0.896-2,2-2h17.882c1.104,0,2,0.896,2,2S170.347,87.573,169.242,87.573z M77.638,87.573H59.757c-1.104,0-2-0.896-2-2s0.896-2,2-2
	h17.881c1.104,0,2,0.896,2,2S78.742,87.573,77.638,87.573z M117.742,81.762c-0.414,0-0.827-0.129-1.176-0.382
	c-0.616-0.447-0.924-1.206-0.795-1.956l0.854-4.979l-3.617-3.525c-0.545-0.532-0.741-1.326-0.506-2.051
	c0.235-0.724,0.861-1.252,1.614-1.361l4.999-0.727l2.236-4.529c0.337-0.683,1.031-1.115,1.793-1.115s1.456,0.433,1.793,1.115
	l2.236,4.529l5,0.727c0.753,0.109,1.379,0.638,1.614,1.361c0.235,0.725,0.039,1.519-0.506,2.051l-3.618,3.525l0.854,4.979
	c0.128,0.75-0.181,1.509-0.796,1.956c-0.616,0.447-1.432,0.506-2.106,0.152l-4.472-2.351l-4.472,2.351
	C118.38,81.686,118.061,81.762,117.742,81.762z M123.145,74.922c0.319,0,0.64,0.076,0.931,0.229l1.815,0.955l-0.347-2.022
	c-0.11-0.648,0.104-1.311,0.575-1.771l1.469-1.431l-2.03-0.295c-0.651-0.095-1.214-0.504-1.505-1.095l-0.908-1.839l-0.908,1.839
	c-0.291,0.591-0.854,1-1.505,1.095l-2.029,0.295l1.469,1.431c0.471,0.46,0.687,1.122,0.575,1.771l-0.348,2.021l1.815-0.954
	C122.505,74.999,122.825,74.922,123.145,74.922z M36.943,81.762c-0.318,0-0.638-0.076-0.931-0.229l-4.472-2.351l-4.472,2.351
	c-0.674,0.354-1.488,0.295-2.106-0.152c-0.616-0.447-0.924-1.206-0.796-1.956l0.854-4.979l-3.617-3.525
	c-0.546-0.531-0.742-1.326-0.507-2.051c0.235-0.724,0.861-1.252,1.614-1.361l5-0.727l2.236-4.529
	c0.337-0.683,1.031-1.115,1.793-1.115s1.456,0.433,1.793,1.115l2.236,4.529l5,0.727c0.753,0.109,1.379,0.638,1.614,1.361
	c0.235,0.725,0.039,1.52-0.507,2.051l-3.617,3.525l0.854,4.979c0.128,0.75-0.18,1.509-0.796,1.956
	C37.771,81.633,37.357,81.762,36.943,81.762z M31.541,74.922c0.319,0,0.64,0.076,0.931,0.229l1.815,0.954l-0.347-2.021
	c-0.112-0.648,0.104-1.311,0.575-1.771l1.468-1.431l-2.029-0.295c-0.651-0.095-1.214-0.504-1.505-1.095l-0.908-1.839l-0.908,1.839
	c-0.291,0.591-0.854,1-1.505,1.095l-2.029,0.295l1.468,1.431c0.472,0.46,0.688,1.122,0.576,1.771l-0.348,2.021l1.815-0.954
	C30.901,74.999,31.222,74.922,31.541,74.922z M174.829,78.906H151.36c-1.104,0-2-0.896-2-2s0.896-2,2-2h23.469c1.104,0,2,0.896,2,2
	S175.934,78.906,174.829,78.906z M83.226,78.906H59.757c-1.104,0-2-0.896-2-2s0.896-2,2-2h23.469c1.104,0,2,0.896,2,2
	S84.33,78.906,83.226,78.906z M169.242,61.656H151.36c-1.104,0-2-0.896-2-2s0.896-2,2-2h17.882c1.104,0,2,0.896,2,2
	S170.347,61.656,169.242,61.656z M77.638,61.656H59.757c-1.104,0-2-0.896-2-2s0.896-2,2-2h17.881c1.104,0,2,0.896,2,2
	S78.742,61.656,77.638,61.656z M174.829,52.989H151.36c-1.104,0-2-0.896-2-2s0.896-2,2-2h23.469c1.104,0,2,0.896,2,2
	S175.934,52.989,174.829,52.989z M83.226,52.989H59.757c-1.104,0-2-0.896-2-2s0.896-2,2-2h23.469c1.104,0,2,0.896,2,2
	S84.33,52.989,83.226,52.989z M181.259,30.926H38.971c-1.104,0-2-0.896-2-2s0.896-2,2-2h142.288c1.104,0,2,0.896,2,2
	S182.363,30.926,181.259,30.926z M25.036,30.926h-0.2c-1.104,0-2-0.896-2-2s0.896-2,2-2h0.2c1.104,0,2,0.896,2,2
	S26.141,30.926,25.036,30.926z M17.467,30.926h-0.201c-1.104,0-2-0.896-2-2s0.896-2,2-2h0.201c1.104,0,2,0.896,2,2
	S18.571,30.926,17.467,30.926z M9.896,30.926H9.695c-1.104,0-2-0.896-2-2s0.896-2,2-2h0.201c1.104,0,2,0.896,2,2
	S11.001,30.926,9.896,30.926z"/>
<g>
</g>
<g>
</g>
<g>
</g>
<g>
</g>
<g>
</g>
<g>
</g>
<g>
</g>
<g>
</g>
<g>
</g>
<g>
</g>
<g>
</g>
<g>
</g>
<g>
</g>
<g>
</g>
<g>
</g>
</svg>
