<?xml version="1.0" encoding="iso-8859-1"?>
<!-- Generator: Adobe Illustrator 17.1.0, SVG Export Plug-In . SVG Version: 6.00 Build 0)  -->
<!DOCTYPE svg PUBLIC "-//W3C//DTD SVG 1.1//EN" "http://www.w3.org/Graphics/SVG/1.1/DTD/svg11.dtd">
<svg version="1.1" id="Capa_1" xmlns="http://www.w3.org/2000/svg" xmlns:xlink="http://www.w3.org/1999/xlink" x="0px" y="0px"
	 viewBox="0 0 203 203" style="enable-background:new 0 0 203 203;" xml:space="preserve">
<path d="M201,176.993h-8.782c-1.104,0-2-0.896-2-2v-8.174H178.25v8.174c0,1.104-0.896,2-2,2H27.968c-1.104,0-2-0.896-2-2v-8.174H14
	v8.174c0,1.104-0.896,2-2,2H2c-1.104,0-2-0.896-2-2V28.007c0-1.104,0.896-2,2-2h10c1.104,0,2,0.896,2,2v8.174h11.968v-8.174
	c0-1.104,0.896-2,2-2H176.25c1.104,0,2,0.896,2,2v8.174h11.968v-8.174c0-1.104,0.896-2,2-2H201c1.104,0,2,0.896,2,2v146.985
	C203,176.097,202.104,176.993,201,176.993z M194.218,172.993H199V30.007h-4.782v8.174c0,1.104-0.896,2-2,2H176.25
	c-1.104,0-2-0.896-2-2v-8.174H29.968v8.174c0,1.104-0.896,2-2,2H12c-1.104,0-2-0.896-2-2v-8.174H4v142.985h6v-8.174
	c0-1.104,0.896-2,2-2h15.968c1.104,0,2,0.896,2,2v8.174H174.25v-8.174c0-1.104,0.896-2,2-2h15.968c1.104,0,2,0.896,2,2V172.993z
	 M166.375,167.5H36.625c-1.104,0-2-0.896-2-2v-128c0-1.104,0.896-2,2-2h129.75c1.104,0,2,0.896,2,2v128
	C168.375,166.604,167.479,167.5,166.375,167.5z M38.625,163.5h125.75v-124H38.625V163.5z M192.218,154.265H176.25
	c-1.104,0-2-0.896-2-2v-15.968c0-1.104,0.896-2,2-2h15.968c1.104,0,2,0.896,2,2v15.968
	C194.218,153.37,193.322,154.265,192.218,154.265z M178.25,150.265h11.968v-11.968H178.25V150.265z M27.968,154.265H12
	c-1.104,0-2-0.896-2-2v-15.968c0-1.104,0.896-2,2-2h15.968c1.104,0,2,0.896,2,2v15.968C29.968,153.37,29.072,154.265,27.968,154.265
	z M14,150.265h11.968v-11.968H14V150.265z M119.239,134.204c-0.778,0-1.529-0.188-2.233-0.558l-15.134-7.956
	c-0.229-0.122-0.516-0.12-0.743,0l-15.134,7.956c-1.983,1.043-4.481,0.531-5.911-1.163c-0.907-1.076-1.29-2.495-1.051-3.895
	l2.891-16.852c0.045-0.259-0.041-0.523-0.229-0.707L69.45,99.096c-1.317-1.285-1.782-3.171-1.213-4.92
	c0.568-1.75,2.053-3,3.873-3.265l16.92-2.459c0.261-0.037,0.484-0.2,0.602-0.437l7.565-15.332c0.814-1.65,2.464-2.675,4.303-2.675
	c1.841,0,3.489,1.025,4.303,2.675l7.567,15.333c0.116,0.235,0.34,0.398,0.599,0.436l16.923,2.459
	c1.819,0.265,3.304,1.515,3.872,3.265c0.569,1.749,0.104,3.635-1.213,4.919l-12.245,11.936c-0.188,0.183-0.273,0.447-0.229,0.707
	l2.891,16.851c0.239,1.399-0.144,2.818-1.051,3.895C121.995,133.576,120.654,134.203,119.239,134.204z M101.501,121.598
	c0.774,0,1.547,0.19,2.232,0.551l15.134,7.956c0.354,0.188,0.748,0.087,0.992-0.201c0.151-0.18,0.207-0.396,0.165-0.64
	l-2.891-16.852c-0.266-1.558,0.25-3.145,1.38-4.246l12.244-11.936c0.31-0.301,0.26-0.642,0.202-0.818
	c-0.058-0.176-0.217-0.48-0.644-0.542l-16.922-2.459c-1.563-0.227-2.913-1.208-3.612-2.626l-7.567-15.332
	c-0.19-0.387-0.529-0.444-0.715-0.444c-0.185,0-0.524,0.058-0.716,0.445l-7.565,15.332c-0.701,1.418-2.052,2.398-3.614,2.625
	l-16.919,2.459c-0.428,0.062-0.587,0.366-0.645,0.542c-0.058,0.177-0.107,0.518,0.202,0.819l12.244,11.934
	c1.13,1.103,1.646,2.689,1.38,4.246l-2.891,16.853c-0.042,0.244,0.014,0.46,0.165,0.64c0.243,0.288,0.636,0.389,0.992,0.201
	l15.134-7.956C99.953,121.789,100.726,121.598,101.501,121.598z M192.218,125.744H176.25c-1.104,0-2-0.896-2-2v-15.967
	c0-1.104,0.896-2,2-2h15.968c1.104,0,2,0.896,2,2v15.967C194.218,124.848,193.322,125.744,192.218,125.744z M178.25,121.744h11.968
	v-11.967H178.25V121.744z M27.968,125.744H12c-1.104,0-2-0.896-2-2v-15.967c0-1.104,0.896-2,2-2h15.968c1.104,0,2,0.896,2,2v15.967
	C29.968,124.848,29.072,125.744,27.968,125.744z M14,121.744h11.968v-11.967H14V121.744z M192.218,97.223H176.25
	c-1.104,0-2-0.896-2-2V79.255c0-1.104,0.896-2,2-2h15.968c1.104,0,2,0.896,2,2v15.968C194.218,96.328,193.322,97.223,192.218,97.223
	z M178.25,93.223h11.968V81.255H178.25V93.223z M27.968,97.223H12c-1.104,0-2-0.896-2-2V79.255c0-1.104,0.896-2,2-2h15.968
	c1.104,0,2,0.896,2,2v15.968C29.968,96.328,29.072,97.223,27.968,97.223z M14,93.223h11.968V81.255H14V93.223z M192.218,68.702
	H176.25c-1.104,0-2-0.896-2-2V50.735c0-1.104,0.896-2,2-2h15.968c1.104,0,2,0.896,2,2v15.967
	C194.218,67.806,193.322,68.702,192.218,68.702z M178.25,64.702h11.968V52.735H178.25V64.702z M27.968,68.702H12
	c-1.104,0-2-0.896-2-2V50.735c0-1.104,0.896-2,2-2h15.968c1.104,0,2,0.896,2,2v15.967C29.968,67.806,29.072,68.702,27.968,68.702z
	 M14,64.702h11.968V52.735H14V64.702z"/>
<g>
</g>
<g>
</g>
<g>
</g>
<g>
</g>
<g>
</g>
<g>
</g>
<g>
</g>
<g>
</g>
<g>
</g>
<g>
</g>
<g>
</g>
<g>
</g>
<g>
</g>
<g>
</g>
<g>
</g>
</svg>
