<?xml version="1.0" encoding="iso-8859-1"?>
<!-- Generator: Adobe Illustrator 17.1.0, SVG Export Plug-In . SVG Version: 6.00 Build 0)  -->
<!DOCTYPE svg PUBLIC "-//W3C//DTD SVG 1.1//EN" "http://www.w3.org/Graphics/SVG/1.1/DTD/svg11.dtd">
<svg version="1.1" id="Capa_1" xmlns="http://www.w3.org/2000/svg" xmlns:xlink="http://www.w3.org/1999/xlink" x="0px" y="0px"
	 viewBox="0 0 200.096 200.096" style="enable-background:new 0 0 200.096 200.096;" xml:space="preserve">
<path d="M109.249,190.894c-23.319,0-44.616-8.833-60.718-23.327c-2.072-0.07-10.051,0.108-23.289,5.404
	c-15.5,6.199-21.668,13.162-21.729,13.232c-0.724,0.831-1.986,0.923-2.819,0.203c-0.834-0.72-0.93-1.977-0.212-2.813
	c0.268-0.313,6.759-7.73,23.275-14.337c9.512-3.805,16.486-5.11,20.764-5.525c-16.143-16.406-26.118-38.902-26.118-63.683
	c0-50.093,40.753-90.847,90.846-90.847s90.847,40.754,90.847,90.847S159.342,190.894,109.249,190.894z M109.249,13.202
	c-47.887,0-86.846,38.959-86.846,86.847c0,47.887,38.959,86.846,86.846,86.846c47.888,0,86.847-38.959,86.847-86.846
	C196.096,52.161,157.137,13.202,109.249,13.202z M130.799,176.247c-0.394,0-0.782-0.116-1.115-0.34
	c-1.845-1.24-5.399-9.979-8.078-17.155c-0.019-0.048-0.036-0.097-0.055-0.146c-2.488-6.674-3.209-14.281-3.209-20.856
	c-0.001-8.729,1.269-15.639,1.361-16.134c0.109-0.579,0.468-1.08,0.98-1.37c0.512-0.29,1.126-0.34,1.679-0.136
	c0.83,0.307,20.43,7.662,30.768,20.618l0,0c0.001,0.001,0.001,0.001,0.002,0.002c4.794,6.009,10.532,13.639,10.647,15.872
	c0.03,0.572-0.188,1.13-0.597,1.531c-0.187,0.184-4.691,4.553-15.127,10.46c-10.437,5.909-16.5,7.523-16.753,7.589
	C131.137,176.225,130.967,176.247,130.799,176.247z M129.459,167.583c1.005,2.263,1.693,3.577,2.126,4.32
	c2.232-0.76,7.279-2.703,14.5-6.791c7.219-4.087,11.481-7.414,13.284-8.938c-0.194-0.353-0.467-0.817-0.848-1.419
	c-2,1.836-5.634,4.681-10.972,7.015C141.443,164.439,133.385,166.605,129.459,167.583z M127.03,161.737
	c0.297,0.754,0.579,1.458,0.847,2.115c3.519-0.866,11.968-3.08,18.071-5.748c5.27-2.304,8.698-5.172,10.295-6.702
	c-0.863-1.207-1.932-2.65-3.253-4.37C145.6,153.914,136.703,158.954,127.03,161.737z M125.299,157.209
	c0.099,0.265,0.195,0.523,0.292,0.778c9.308-2.62,17.862-7.466,24.926-14.119c-0.168-0.212-0.339-0.427-0.514-0.646
	c-7.665-9.606-21.344-16.121-26.745-18.431c-0.374,2.734-0.892,7.512-0.893,13.003C122.365,143.998,123.024,151.109,125.299,157.209
	z M85.875,176.247c-0.168,0-0.337-0.021-0.503-0.064c-0.253-0.065-6.317-1.68-16.753-7.589c-10.435-5.907-14.94-10.276-15.126-10.46
	c-0.409-0.401-0.626-0.958-0.597-1.53c0.115-2.233,5.852-9.862,10.646-15.871l0.002-0.004c0.217-0.271,0.438-0.542,0.664-0.809
	c9.558-11.347,26.017-18.213,29.48-19.57c0.024-0.01,0.047-0.019,0.07-0.027c0.297-0.116,0.487-0.187,0.554-0.212
	c0.552-0.203,1.167-0.154,1.679,0.136c0.513,0.29,0.871,0.791,0.98,1.37c0.093,0.495,1.363,7.405,1.362,16.134
	c0,6.575-0.721,14.183-3.209,20.856c-2.686,7.204-6.276,16.053-8.133,17.301C86.658,176.13,86.269,176.247,85.875,176.247z
	 M69.65,164.576c0.307,0.177,0.621,0.356,0.939,0.537c7.219,4.087,12.266,6.03,14.5,6.791c0.485-0.834,1.293-2.387,2.509-5.192
	c-1.466-0.466-4.023-1.104-8.098-1.613C76.127,164.676,72.563,164.543,69.65,164.576z M69.962,160.57
	c2.99,0,6.568,0.126,10.035,0.56c4.545,0.568,7.428,1.304,9.143,1.876c0.224-0.559,0.458-1.147,0.701-1.77
	c-9.503-3.013-18.199-8.229-25.373-15.217c-4.58,5.891-6.429,8.824-7.162,10.155c1.103,0.933,3.129,2.543,6.194,4.59
	C64.629,160.693,67.008,160.57,69.962,160.57z M66.963,142.863c6.839,6.755,15.18,11.774,24.308,14.63
	c0.034-0.091,0.068-0.182,0.103-0.274c0.001-0.003,0.002-0.006,0.003-0.009c4.286-11.499,2.837-26.593,2.041-32.417
	C88.081,127.078,74.667,133.467,66.963,142.863z M182.46,120.005c-3.677,0-9.859-0.819-15.294-1.671
	c-0.289-0.045-0.584-0.092-0.886-0.141c-0.004,0-0.009-0.001-0.013-0.002c-0.088-0.014-0.176-0.028-0.264-0.043
	c-16.275-2.714-32.164-16.005-32.836-16.572c-0.45-0.38-0.71-0.939-0.71-1.528s0.26-1.147,0.71-1.528
	c0.675-0.57,16.732-14.003,33.1-16.616c7.593-1.212,17.065-2.444,19.062-1.447c0.514,0.256,0.892,0.72,1.039,1.273
	c0.067,0.253,1.649,6.326,1.649,18.318c0,11.991-1.582,18.063-1.649,18.316c-0.147,0.553-0.525,1.017-1.038,1.273
	C184.815,119.895,183.805,120.005,182.46,120.005z M181.353,115.984c0.604,0.025,1.072,0.032,1.432,0.027
	c0.438-2.319,1.233-7.668,1.233-15.963c0-8.296-0.795-13.646-1.233-15.965c-1.002-0.003-2.853,0.056-6.119,0.415
	c1.267,2.889,3.119,7.979,3.943,14.489C181.524,106.228,181.464,112.798,181.353,115.984z M171.684,114.964
	c2.279,0.322,4.146,0.549,5.673,0.707c0.1-3.116,0.141-9.408-0.717-16.182c-0.882-6.971-3.076-12.236-4.141-14.472
	c-0.266,0.036-0.538,0.074-0.815,0.113c1.168,4.895,1.76,9.901,1.76,14.917C173.443,105.063,172.852,110.07,171.684,114.964z
	 M137.684,100.048c4.676,3.563,17.098,12.259,29.215,14.194c0.275,0.044,0.547,0.087,0.813,0.129
	c1.149-4.697,1.731-9.507,1.731-14.323s-0.582-9.627-1.731-14.323c-0.267,0.042-0.538,0.084-0.814,0.129
	c-0.208,0.033-0.417,0.068-0.626,0.105C154.355,88.086,142.279,96.547,137.684,100.048z M36.038,120.005
	c-1.346,0-2.355-0.11-2.87-0.368c-0.512-0.256-0.89-0.72-1.038-1.272c-0.067-0.253-1.65-6.325-1.65-18.316
	c0-11.992,1.583-18.065,1.65-18.318c0.148-0.554,0.526-1.017,1.038-1.273c2.002-0.999,11.47,0.235,19.062,1.447
	c14.528,2.319,28.81,13.162,32.31,15.971c0.443,0.355,0.713,0.582,0.79,0.646c0.446,0.377,0.706,0.931,0.709,1.515
	c0,0.005,0,0.009,0,0.014c0,0.589-0.26,1.148-0.709,1.528c-0.028,0.023-0.084,0.07-0.167,0.139
	c-1.864,1.545-17.255,13.974-32.933,16.477c-0.306,0.05-0.606,0.097-0.9,0.143C45.897,119.186,39.714,120.005,36.038,120.005z
	 M35.714,116.011c1.429,0.024,4.582-0.127,11.1-1.047c-1.168-4.895-1.76-9.901-1.76-14.916s0.591-10.022,1.76-14.917
	c-6.517-0.921-9.666-1.058-11.101-1.048c-0.438,2.317-1.233,7.668-1.233,15.965C34.48,108.343,35.276,113.692,35.714,116.011z
	 M50.786,85.725c-1.149,4.697-1.731,9.507-1.731,14.323c0,4.815,0.582,9.626,1.731,14.323c0.259-0.041,0.52-0.082,0.787-0.125
	c0.008-0.001,0.017-0.003,0.026-0.004c0.376-0.061,0.755-0.127,1.132-0.2c11.751-2.271,23.553-10.543,28.084-13.994
	c-4.676-3.563-17.098-12.26-29.215-14.195C51.323,85.809,51.052,85.767,50.786,85.725z M108.451,112.654
	c-6.951,0-12.607-5.655-12.607-12.605c0-6.951,5.656-12.606,12.607-12.606c6.95,0,12.605,5.655,12.605,12.606
	C121.057,106.999,115.401,112.654,108.451,112.654z M108.451,91.442c-4.746,0-8.607,3.86-8.607,8.606
	c0,4.745,3.861,8.605,8.607,8.605c4.745,0,8.605-3.86,8.605-8.605C117.057,95.302,113.196,91.442,108.451,91.442z M119.846,80.11
	c-0.342,0-0.682-0.088-0.985-0.26c-0.513-0.29-0.871-0.791-0.98-1.37c-0.093-0.495-1.362-7.405-1.361-16.134
	c0-6.575,0.721-14.183,3.209-20.856c0.07-0.188,0.14-0.374,0.208-0.557c2.66-7.095,6.115-15.527,7.924-16.744
	c0.476-0.318,1.065-0.418,1.62-0.275c0.253,0.065,6.316,1.68,16.753,7.589c10.436,5.907,14.94,10.276,15.127,10.46
	c0.409,0.401,0.627,0.959,0.597,1.531c-0.115,2.233-5.854,9.865-10.649,15.874c-9.929,12.444-28.402,19.721-30.582,20.549
	c-0.09,0.034-0.152,0.057-0.186,0.069C120.314,80.069,120.08,80.11,119.846,80.11z M123.478,42.882
	c-0.001,0.001-0.001,0.003-0.002,0.004c-4.293,11.517-2.841,26.598-2.042,32.418c5.403-2.314,19.093-8.839,26.746-18.431
	c0.447-0.561,0.868-1.093,1.27-1.604c-7.295-6.555-16.055-11.222-25.519-13.596c-0.084,0.224-0.17,0.45-0.256,0.681
	C123.609,42.528,123.543,42.705,123.478,42.882z M125.383,37.916c9.818,2.544,18.909,7.405,26.521,14.183
	c3.481-4.586,4.995-7.004,5.642-8.177c-1.801-1.523-6.064-4.851-13.284-8.938c-7.219-4.087-12.266-6.03-14.5-6.791
	C129.061,29.397,127.686,32.103,125.383,37.916z M96.829,80.11c-0.234,0-0.469-0.041-0.694-0.124
	c-0.829-0.307-20.429-7.662-30.767-20.618c-0.001-0.002-0.002-0.003-0.004-0.005c-0.292-0.366-0.574-0.721-0.848-1.067
	c-4.597-5.813-9.689-12.7-9.797-14.803c-0.029-0.572,0.188-1.129,0.597-1.53c0.187-0.183,4.691-4.553,15.127-10.46
	c10.436-5.909,16.5-7.523,16.753-7.589c0.554-0.144,1.144-0.044,1.619,0.275c1.856,1.248,5.447,10.097,8.133,17.301l0,0
	c5.708,15.312,2.116,35.539,1.856,36.941c-0.004,0.021-0.007,0.037-0.009,0.049c-0.109,0.579-0.467,1.08-0.98,1.37
	C97.51,80.022,97.17,80.11,96.829,80.11z M71.59,60.295c7.829,7.731,18.917,12.985,23.65,15.009
	c0.796-5.823,2.246-20.918-2.041-32.418c-0.099-0.265-0.196-0.523-0.292-0.778c-9.308,2.62-17.862,7.466-24.926,14.12
	c0.168,0.211,0.339,0.426,0.513,0.644c0,0.001,0,0.001,0.001,0.002c0.914,1.146,1.914,2.247,2.975,3.303l0,0.001
	c0.023,0.022,0.045,0.045,0.068,0.067c0.01,0.01,0.02,0.021,0.03,0.029l0,0c0.001,0.001,0.002,0.003,0.002,0.003
	C71.578,60.284,71.584,60.289,71.59,60.295z M59.129,43.921c0.69,1.252,2.368,3.925,6.378,9.143
	c7.39-6.882,16.288-11.922,25.96-14.705c-2.409-6.119-3.836-8.932-4.555-10.167c-2.232,0.76-7.28,2.703-14.5,6.791
	C65.195,39.07,60.931,42.397,59.129,43.921z"/>
<g>
</g>
<g>
</g>
<g>
</g>
<g>
</g>
<g>
</g>
<g>
</g>
<g>
</g>
<g>
</g>
<g>
</g>
<g>
</g>
<g>
</g>
<g>
</g>
<g>
</g>
<g>
</g>
<g>
</g>
</svg>
