<?xml version="1.0" encoding="iso-8859-1"?>
<!-- Generator: Adobe Illustrator 17.1.0, SVG Export Plug-In . SVG Version: 6.00 Build 0)  -->
<!DOCTYPE svg PUBLIC "-//W3C//DTD SVG 1.1//EN" "http://www.w3.org/Graphics/SVG/1.1/DTD/svg11.dtd">
<svg version="1.1" id="Capa_1" xmlns="http://www.w3.org/2000/svg" xmlns:xlink="http://www.w3.org/1999/xlink" x="0px" y="0px"
	 viewBox="0 0 197.318 197.318" style="enable-background:new 0 0 197.318 197.318;" xml:space="preserve">
<path d="M106.802,197.318c-26.703,0-50.729-11.678-67.241-30.195c-3.053-1.714-31.036-18.512-37.839-61.192
	c-3.411-21.395-0.03-44.138,9.52-64.039C20.728,22.118,35.214,7.297,52.029,0.159c1.019-0.431,2.191,0.043,2.623,1.059
	c0.432,1.017-0.042,2.191-1.059,2.623C20.49,17.894-1.007,63.408,5.671,105.301c3.964,24.868,15.631,40.645,24.622,49.451
	c-8.606-13.804-13.582-30.094-13.582-47.524c0-49.676,40.414-90.09,90.09-90.09s90.09,40.414,90.09,90.09
	S156.477,197.318,106.802,197.318z M106.802,21.138c-47.47,0-86.09,38.62-86.09,86.09s38.62,86.09,86.09,86.09
	c47.47,0,86.09-38.62,86.09-86.09S154.271,21.138,106.802,21.138z M106.802,182.281c-7.631,0-14.449-3.548-18.891-9.08
	c-0.068-0.073-0.13-0.152-0.186-0.234c-3.22-4.112-5.141-9.288-5.141-14.903c0-13.354,10.864-24.218,24.218-24.218
	s24.218,10.864,24.218,24.218c0,5.606-1.915,10.774-5.125,14.882c-0.063,0.097-0.136,0.189-0.217,0.274
	C121.235,178.742,114.424,182.281,106.802,182.281z M96.163,175.25c3.092,1.922,6.739,3.032,10.639,3.032
	c3.086,0,6.012-0.695,8.631-1.936c-1.949,0.285-4.105,0.452-6.395,0.387C104.844,176.614,100.03,175.929,96.163,175.25z
	 M90.533,170.054c2.56,0.567,11.666,2.484,18.619,2.681c6.701,0.175,12.249-1.878,13.798-2.518c0.822-1.09,1.538-2.267,2.129-3.512
	c-5.897,1.812-12.028,2.728-18.276,2.728s-12.379-0.917-18.276-2.728C89.087,167.888,89.761,169.01,90.533,170.054z M86.962,161.965
	c6.347,2.302,13.019,3.468,19.84,3.468c6.822,0,13.492-1.167,19.84-3.468c0.248-1.263,0.378-2.567,0.378-3.901
	c0-11.148-9.069-20.218-20.218-20.218c-11.148,0-20.218,9.07-20.218,20.218C86.584,159.398,86.714,160.702,86.962,161.965z
	 M157.638,131.446c-13.354,0-24.219-10.864-24.219-24.218s10.864-24.218,24.219-24.218c13.354,0,24.218,10.864,24.218,24.218
	S170.991,131.446,157.638,131.446z M157.638,87.01c-11.148,0-20.219,9.07-20.219,20.218s9.07,20.218,20.219,20.218
	c1.334,0,2.639-0.13,3.901-0.378c2.302-6.348,3.468-13.018,3.468-19.84c0-6.821-1.167-13.492-3.468-19.84
	C160.276,87.14,158.972,87.01,157.638,87.01z M166.278,88.951c1.813,5.898,2.729,12.029,2.729,18.277s-0.916,12.379-2.728,18.277
	c6.837-3.246,11.576-10.219,11.576-18.277S173.116,92.197,166.278,88.951z M55.966,131.446c-13.354,0-24.218-10.864-24.218-24.218
	S42.613,83.01,55.966,83.01s24.218,10.864,24.218,24.218S69.32,131.446,55.966,131.446z M52.065,127.068
	c1.263,0.248,2.567,0.378,3.901,0.378c11.148,0,20.218-9.07,20.218-20.218S67.114,87.01,55.966,87.01
	c-1.334,0-2.639,0.13-3.901,0.378c-2.302,6.347-3.468,13.02-3.468,19.84C48.597,114.05,49.763,120.721,52.065,127.068z
	 M47.325,88.952c-6.837,3.246-11.576,10.218-11.576,18.276s4.739,15.031,11.576,18.276c-1.812-5.897-2.728-12.028-2.728-18.276
	C44.597,100.981,45.513,94.85,47.325,88.952z M106.802,113.823c-3.637,0-6.595-2.958-6.595-6.595s2.958-6.595,6.595-6.595
	s6.595,2.958,6.595,6.595S110.438,113.823,106.802,113.823z M106.802,104.633c-1.431,0-2.595,1.164-2.595,2.595
	s1.164,2.595,2.595,2.595s2.595-1.164,2.595-2.595S108.232,104.633,106.802,104.633z M106.802,80.61
	c-13.354,0-24.218-10.864-24.218-24.218s10.864-24.218,24.218-24.218s24.218,10.864,24.218,24.218S120.155,80.61,106.802,80.61z
	 M86.962,52.491c-0.248,1.263-0.378,2.567-0.378,3.902c0,11.148,9.07,20.218,20.218,20.218c11.148,0,20.218-9.07,20.218-20.218
	c0-1.334-0.13-2.639-0.378-3.902c-6.348-2.301-13.017-3.468-19.84-3.468C99.979,49.023,93.309,50.19,86.962,52.491z M106.802,36.175
	c-8.059,0-15.031,4.739-18.276,11.576c5.897-1.812,12.028-2.728,18.276-2.728c6.249,0,12.379,0.917,18.276,2.728
	C121.832,40.914,114.86,36.175,106.802,36.175z"/>
<g>
</g>
<g>
</g>
<g>
</g>
<g>
</g>
<g>
</g>
<g>
</g>
<g>
</g>
<g>
</g>
<g>
</g>
<g>
</g>
<g>
</g>
<g>
</g>
<g>
</g>
<g>
</g>
<g>
</g>
</svg>
