<?xml version="1.0" encoding="iso-8859-1"?>
<!-- Generator: Adobe Illustrator 17.1.0, SVG Export Plug-In . SVG Version: 6.00 Build 0)  -->
<!DOCTYPE svg PUBLIC "-//W3C//DTD SVG 1.1//EN" "http://www.w3.org/Graphics/SVG/1.1/DTD/svg11.dtd">
<svg version="1.1" id="Capa_1" xmlns="http://www.w3.org/2000/svg" xmlns:xlink="http://www.w3.org/1999/xlink" x="0px" y="0px"
	 viewBox="0 0 208 208" style="enable-background:new 0 0 208 208;" xml:space="preserve">
<path d="M206,208H2c-1.104,0-2-0.896-2-2V2c0-1.104,0.896-2,2-2h204c1.104,0,2,0.896,2,2v204C208,207.104,207.104,208,206,208z
	 M4,204h200V4H4V204z M105.96,195.702c-1.104,0-2-0.896-2-2v-17.414c-38.289-1.046-69.244-32-70.29-70.288H15.271
	c-1.104,0-2-0.896-2-2s0.896-2,2-2H33.67c1.045-38.289,32.001-69.243,70.29-70.289V14.297c0-1.104,0.896-2,2-2s2,0.896,2,2v44.805
	h21.843c1.104,0,2,0.896,2,2v15.402c0,1.104-0.896,2-2,2h-21.842v11.402h9.759c1.711,0,3.353,0.307,4.871,0.868l59.045-38.474
	c0.925-0.604,2.164-0.343,2.768,0.584c0.603,0.926,0.341,2.164-0.584,2.768l-16.195,10.553C174.25,76.993,177.901,89.3,178.248,102
	h14.481c1.104,0,2,0.896,2,2s-0.896,2-2,2h-14.481c-1.045,38.288-32,69.242-70.288,70.288v17.414
	C107.96,194.807,107.064,195.702,105.96,195.702z M37.672,106c1.043,36.083,30.205,65.244,66.288,66.286v-29.252H80.144
	c-1.104,0-2-0.896-2-2v-15.402c0-1.104,0.896-2,2-2h23.817v-14.323H91.695c-3.386,0-6.486-1.248-8.864-3.309H37.672z
	 M107.96,143.034v29.252c36.084-1.042,65.244-30.203,66.287-66.286h-42.444v22.951c0,7.766-6.317,14.083-14.083,14.083H107.96z
	 M82.144,139.034h35.577c5.56,0,10.083-4.523,10.083-10.083v-24.962c0-4.011-2.354-7.482-5.753-9.105
	c-0.066-0.026-0.13-0.056-0.193-0.09c-1.263-0.57-2.663-0.888-4.136-0.888h-15.535c-4.764,0-8.639-3.875-8.639-8.639v-8.764
	c0-1.104,0.896-2,2-2h32.257V63.102H82.144v32.655c0,5.267,4.285,9.552,9.552,9.552h13.638c0.395-0.131,0.861-0.131,1.256,0h1.571
	c4.544,0,8.241,3.696,8.241,8.24v5.843c0,4.544-3.697,8.24-8.241,8.24H82.144V139.034z M107.961,123.632h0.199
	c2.338,0,4.241-1.902,4.241-4.24v-5.843c0-2.338-1.902-4.24-4.241-4.24h-0.199V123.632z M131.663,102h42.584
	c-0.345-11.923-3.772-23.475-9.975-33.61l-37.761,24.605C129.246,95.186,131.148,98.372,131.663,102z M37.672,102h41.997
	c-0.974-1.869-1.525-3.993-1.525-6.243V61.102c0-1.104,0.896-2,2-2h23.816V35.713C67.876,36.755,38.715,65.916,37.672,102z
	 M97.546,78.504v6.764c0,2.558,2.081,4.639,4.639,4.639h1.776V78.504H97.546z"/>
<g>
</g>
<g>
</g>
<g>
</g>
<g>
</g>
<g>
</g>
<g>
</g>
<g>
</g>
<g>
</g>
<g>
</g>
<g>
</g>
<g>
</g>
<g>
</g>
<g>
</g>
<g>
</g>
<g>
</g>
</svg>
