<?xml version="1.0" encoding="iso-8859-1"?>
<!-- Generator: Adobe Illustrator 17.1.0, SVG Export Plug-In . SVG Version: 6.00 Build 0)  -->
<!DOCTYPE svg PUBLIC "-//W3C//DTD SVG 1.1//EN" "http://www.w3.org/Graphics/SVG/1.1/DTD/svg11.dtd">
<svg version="1.1" id="Capa_1" xmlns="http://www.w3.org/2000/svg" xmlns:xlink="http://www.w3.org/1999/xlink" x="0px" y="0px"
	 viewBox="0 0 183.491 183.491" style="enable-background:new 0 0 183.491 183.491;" xml:space="preserve">
<path d="M161.61,170.215H18.636C8.36,170.215,0,161.855,0,151.58V49.275c0-9.475,7.106-17.32,16.269-18.487V21.06
	c0-1.104,0.896-2,2-2h43.718c0.713-3.303,3.656-5.784,7.168-5.784h88.755c4.043,0,7.333,3.29,7.333,7.333V31
	c10.077,0.088,18.248,8.313,18.248,18.412v66.072c0,3.868-1.198,7.461-3.244,10.427v25.668
	C180.247,161.855,171.887,170.215,161.61,170.215z M18.636,34.638C10.566,34.638,4,41.205,4,49.275V151.58
	c0,8.07,6.566,14.636,14.636,14.636H161.61c8.07,0,14.637-6.565,14.637-14.636v-21.465c-3.1,2.371-6.973,3.782-11.168,3.782H85.272
	c-10.153,0-18.413-8.26-18.413-18.412V49.413c0-6.043,2.926-11.415,7.436-14.774H18.636z M86.66,129.897h77.03
	c5.126,0,9.956-2.515,12.921-6.726c0.276-0.392,0.674-0.66,1.114-0.779c1.125-2.053,1.766-4.406,1.766-6.907V49.413
	c0-7.675-6.03-13.969-13.602-14.391c-0.219,0.057-0.453,0.075-0.688,0.055C164.65,35.025,164.156,35,163.69,35H86.66
	c-8.712,0-15.801,7.088-15.801,15.801v63.296C70.859,122.809,77.948,129.897,86.66,129.897z M148.975,30.638h12.269V20.609
	c0-1.838-1.495-3.333-3.333-3.333h-8.936V30.638z M83.176,30.638h61.799V17.276H83.176V30.638z M65.822,30.638h13.354V17.276H69.155
	c-1.838,0-3.333,1.495-3.333,3.333V30.638z M20.269,30.638h41.553V23.06H20.269V30.638z M38.334,139.655
	c-7.681,0-13.931-6.249-13.931-13.931s6.25-13.931,13.931-13.931s13.931,6.249,13.931,13.931S46.015,139.655,38.334,139.655z
	 M38.334,115.793c-5.476,0-9.931,4.455-9.931,9.931s4.455,9.931,9.931,9.931s9.931-4.455,9.931-9.931S43.81,115.793,38.334,115.793z
	 M156.84,119.208H93.511c-5.472,0-9.923-4.451-9.923-9.923V55.611c0-5.472,4.451-9.923,9.923-9.923h63.329
	c5.472,0,9.924,4.451,9.924,9.923v53.675C166.764,114.757,162.312,119.208,156.84,119.208z M93.511,49.688
	c-3.266,0-5.923,2.657-5.923,5.923v53.675c0,3.266,2.657,5.923,5.923,5.923h63.329c3.267,0,5.924-2.657,5.924-5.923V55.611
	c0-3.266-2.657-5.923-5.924-5.923H93.511z M48.315,107.117H28.353c-4.869,0-8.83-3.961-8.83-8.83V68.389
	c0-4.868,3.961-8.829,8.83-8.829h19.963c4.869,0,8.83,3.961,8.83,8.829v29.897C57.146,103.156,53.185,107.117,48.315,107.117z
	 M28.353,63.56c-2.663,0-4.83,2.166-4.83,4.829v29.897c0,2.663,2.167,4.83,4.83,4.83h19.963c2.663,0,4.83-2.167,4.83-4.83V68.389
	c0-2.663-2.167-4.829-4.83-4.829H28.353z M125.176,103.62c-11.674,0-21.172-9.497-21.172-21.171s9.498-21.172,21.172-21.172
	s21.171,9.498,21.171,21.172S136.85,103.62,125.176,103.62z M125.176,65.277c-9.469,0-17.172,7.703-17.172,17.172
	c0,9.468,7.703,17.171,17.172,17.171c9.468,0,17.171-7.703,17.171-17.171C142.347,72.98,134.644,65.277,125.176,65.277z"/>
<g>
</g>
<g>
</g>
<g>
</g>
<g>
</g>
<g>
</g>
<g>
</g>
<g>
</g>
<g>
</g>
<g>
</g>
<g>
</g>
<g>
</g>
<g>
</g>
<g>
</g>
<g>
</g>
<g>
</g>
</svg>
