<?xml version="1.0" encoding="iso-8859-1"?>
<!-- Generator: Adobe Illustrator 17.1.0, SVG Export Plug-In . SVG Version: 6.00 Build 0)  -->
<!DOCTYPE svg PUBLIC "-//W3C//DTD SVG 1.1//EN" "http://www.w3.org/Graphics/SVG/1.1/DTD/svg11.dtd">
<svg version="1.1" id="Capa_1" xmlns="http://www.w3.org/2000/svg" xmlns:xlink="http://www.w3.org/1999/xlink" x="0px" y="0px"
	 viewBox="0 0 201.622 201.622" style="enable-background:new 0 0 201.622 201.622;" xml:space="preserve">
<path d="M169.074,201.622H19.858c-4.292,0-7.785-3.492-7.785-7.784v-12.242c0-1.104,0.896-2,2-2h4.079
	c-1.117-1.562-1.774-3.473-1.774-5.534s0.658-3.972,1.774-5.533h-4.079c-1.104,0-2-0.896-2-2c0-19.499,15.864-35.363,35.363-35.363
	h40.358c6.214,0,12.188,1.588,17.497,4.625l-6.314-69.368h-4.342c-0.604,0-1.176-0.273-1.555-0.742
	c-0.38-0.47-0.527-1.086-0.4-1.677l2.153-10.045c0.198-0.922,1.013-1.581,1.956-1.581h42.304V35.848
	c0-7.061,3.568-13.52,9.545-17.279L177.67,0.307c0.936-0.588,2.17-0.307,2.758,0.629c0.588,0.935,0.307,2.169-0.628,2.758
	l-29.034,18.262c-4.806,3.022-7.675,8.216-7.675,13.893v16.528h42.305c0.943,0,1.758,0.659,1.956,1.581l2.152,10.045
	c0.126,0.591-0.021,1.207-0.4,1.677c-0.379,0.47-0.951,0.742-1.555,0.742h-4.342l-12.141,133.382
	C170.971,200.833,170.108,201.622,169.074,201.622z M145.341,197.622h21.907l11.942-131.2h-37.554
	c-1.571,1.099-9.331,7.851-9.331,34.054c0,15.817,7.273,23.776,14.306,31.473c6.285,6.877,12.783,13.988,12.783,26.104
	C159.394,176.764,150.14,191.328,145.341,197.622z M114.936,197.622h25.253c2.8-3.278,15.205-18.973,15.205-39.569
	c0-10.564-5.438-16.516-11.735-23.406c-7.197-7.875-15.354-16.801-15.354-34.171c0-19.77,4.344-29.467,7.801-34.054h-33.112
	l6.654,73.098c0,0.008,0.001,0.016,0.002,0.022l2.44,26.805c0.001,0.009,0.001,0.018,0.002,0.025l1.305,14.341
	c0,0.007,0.001,0.014,0.002,0.02l0.059,0.651c0.001,0.01,0.002,0.021,0.003,0.03L114.936,197.622z M16.073,183.595v10.242
	c0,2.087,1.698,3.784,3.785,3.784h91.062l-1.277-14.026H16.073z M25.911,179.595h82.335c0.345,0,0.687-0.032,1.023-0.097
	l-0.999-10.971c-0.008,0-0.016,0-0.024,0H25.911c-3.051,0-5.534,2.482-5.534,5.533C20.378,177.113,22.86,179.595,25.911,179.595z
	 M25.911,164.528h81.996l-2.159-23.716c-5.281-3.698-11.469-5.647-17.954-5.647H47.436c-16.622,0-30.266,12.997-31.3,29.363H25.911z
	 M141.135,62.421h43.939l-1.295-6.045H98.404l-1.295,6.045h43.937C141.076,62.422,141.106,62.422,141.135,62.421z"/>
<g>
</g>
<g>
</g>
<g>
</g>
<g>
</g>
<g>
</g>
<g>
</g>
<g>
</g>
<g>
</g>
<g>
</g>
<g>
</g>
<g>
</g>
<g>
</g>
<g>
</g>
<g>
</g>
<g>
</g>
</svg>
