<?xml version="1.0" encoding="iso-8859-1"?>
<!-- Generator: Adobe Illustrator 17.1.0, SVG Export Plug-In . SVG Version: 6.00 Build 0)  -->
<!DOCTYPE svg PUBLIC "-//W3C//DTD SVG 1.1//EN" "http://www.w3.org/Graphics/SVG/1.1/DTD/svg11.dtd">
<svg version="1.1" id="Capa_1" xmlns="http://www.w3.org/2000/svg" xmlns:xlink="http://www.w3.org/1999/xlink" x="0px" y="0px"
	 viewBox="0 0 214.749 214.749" style="enable-background:new 0 0 214.749 214.749;" xml:space="preserve">
<path d="M152.313,163.152h-0.001c-0.73,0-1.126-0.021-1.126-0.021l-15.242-0.229l-26.979,0c-0.591,0-1.152-0.262-1.532-0.714
	c-0.38-0.453-0.54-1.051-0.438-1.633l18.917-107.287c0.168-0.956,0.999-1.653,1.97-1.653h42.325
	c0.131-0.005,0.491-0.018,1.046-0.018c5.275,0,23.358,1.04,34.583,14.417c8.205,9.778,10.762,23.823,7.602,41.746
	C204.142,160.479,160.893,163.152,152.313,163.152z M111.347,158.902h24.625l15.345,0.231c0.098,0.004,0.421,0.019,0.994,0.019
	c8.016,0,48.445-2.51,57.187-52.086c2.945-16.704,0.682-29.65-6.727-38.48c-10.373-12.362-28.076-12.988-31.519-12.988
	c-0.559,0-0.877,0.014-0.903,0.015l-40.79,0.002L111.347,158.902z M96.345,163.133H69.336c-0.591,0-1.152-0.262-1.532-0.714
	c-0.38-0.453-0.54-1.051-0.438-1.633l7.099-40.259H38.2l-7.221,40.953c-0.168,0.956-0.999,1.653-1.97,1.653H2
	c-0.591,0-1.152-0.262-1.532-0.714c-0.38-0.453-0.54-1.051-0.438-1.633L18.975,53.345c0.168-0.956,0.999-1.653,1.97-1.653h27.009
	c0.591,0,1.152,0.262,1.532,0.714c0.38,0.453,0.54,1.051,0.438,1.633l-6.554,37.172h36.266l6.677-37.866
	c0.168-0.956,0.999-1.653,1.97-1.653h27.009c0.591,0,1.152,0.262,1.532,0.714c0.38,0.453,0.54,1.051,0.438,1.633L98.315,161.48
	C98.147,162.437,97.316,163.133,96.345,163.133z M71.72,159.133h22.947l18.24-103.441H89.96l-6.677,37.866
	c-0.168,0.956-0.999,1.653-1.97,1.653H40.986c-0.591,0-1.152-0.262-1.532-0.714c-0.38-0.453-0.54-1.051-0.438-1.633l6.554-37.172
	H22.623L4.383,159.133h22.947l7.221-40.953c0.168-0.956,0.999-1.653,1.97-1.653h40.327c0.591,0,1.152,0.262,1.532,0.714
	c0.38,0.453,0.54,1.051,0.438,1.633L71.72,159.133z M145.53,136.126c0,0,0,0-0.001,0c-3.024,0-4.943-0.215-5.024-0.224
	c-0.548-0.063-1.045-0.349-1.375-0.791c-0.33-0.442-0.463-1-0.367-1.543l9.4-53.313c0.154-0.875,0.868-1.544,1.751-1.641
	c0.282-0.03,22.527-2.472,32.462,9.368c4.135,4.928,5.507,11.53,4.081,19.624C181.917,133.347,156.324,136.126,145.53,136.126z
	 M143.087,132.074c0.68,0.03,1.504,0.052,2.441,0.052c9.785,0,32.975-2.457,36.988-25.215c1.212-6.875,0.134-12.378-3.206-16.358
	c-7.135-8.503-22.628-8.349-27.479-8.075L143.087,132.074z"/>
<g>
</g>
<g>
</g>
<g>
</g>
<g>
</g>
<g>
</g>
<g>
</g>
<g>
</g>
<g>
</g>
<g>
</g>
<g>
</g>
<g>
</g>
<g>
</g>
<g>
</g>
<g>
</g>
<g>
</g>
</svg>
