<?xml version="1.0" encoding="iso-8859-1"?>
<!-- Generator: Adobe Illustrator 17.1.0, SVG Export Plug-In . SVG Version: 6.00 Build 0)  -->
<!DOCTYPE svg PUBLIC "-//W3C//DTD SVG 1.1//EN" "http://www.w3.org/Graphics/SVG/1.1/DTD/svg11.dtd">
<svg version="1.1" id="Capa_1" xmlns="http://www.w3.org/2000/svg" xmlns:xlink="http://www.w3.org/1999/xlink" x="0px" y="0px"
	 viewBox="0 0 199.333 199.333" style="enable-background:new 0 0 199.333 199.333;" xml:space="preserve">
<path d="M145.833,168.417H53.5c-1.104,0-2-0.896-2-2s0.896-2,2-2h15.446l3.979-15.583H7.083c-3.905,0-7.083-3.178-7.083-7.083V38
	c0-3.906,3.178-7.083,7.083-7.083H192.25c3.905,0,7.083,3.178,7.083,7.083v103.75c0,3.906-3.178,7.083-7.083,7.083h-65.842
	l3.979,15.583h15.446c1.104,0,2,0.896,2,2S146.938,168.417,145.833,168.417z M73.075,164.417h53.183l-3.979-15.583H77.054
	L73.075,164.417z M123.833,144.833h68.417c1.7,0,3.083-1.383,3.083-3.083V38c0-1.7-1.383-3.083-3.083-3.083H7.083
	C5.383,34.917,4,36.3,4,38v103.75c0,1.7,1.383,3.083,3.083,3.083H123.833z M187.75,137.969H11.583c-1.104,0-2-0.896-2-2V42.583
	c0-1.104,0.896-2,2-2H187.75c1.104,0,2,0.896,2,2v93.385C189.75,137.073,188.854,137.969,187.75,137.969z M13.583,133.969H185.75
	V44.583H13.583V133.969z M122.176,118.413c-0.259,0-0.405-0.006-0.424-0.007l-7.309-0.109h-12.988c-0.591,0-1.152-0.262-1.532-0.714
	c-0.38-0.453-0.54-1.051-0.438-1.633l9.118-51.712c0.169-0.956,0.999-1.653,1.97-1.653h20.379
	c0.957-0.039,11.302-0.274,17.702,6.977c4.388,4.971,5.793,12.138,4.178,21.301C148.153,117.396,125.564,118.413,122.176,118.413z
	 M103.839,114.297h10.635l7.412,0.112c0.997,0.049,22.596,0.775,27.007-24.241c1.392-7.891,0.309-13.926-3.219-17.938
	c-5.278-6.006-14.483-5.655-14.582-5.648c-0.03,0.001-0.065,0.002-0.096,0.002h-18.745L103.839,114.297z M89.373,118.409H76.354
	c-0.591,0-1.152-0.262-1.532-0.714c-0.38-0.453-0.54-1.051-0.438-1.633l3.207-18.189H62.216l-3.329,18.884
	c-0.169,0.956-0.999,1.653-1.97,1.653H43.898c-0.591,0-1.152-0.262-1.532-0.714c-0.38-0.453-0.54-1.051-0.438-1.633l9.131-51.787
	c0.169-0.956,0.999-1.653,1.97-1.653h13.019c0.591,0,1.152,0.262,1.532,0.714c0.38,0.453,0.54,1.051,0.438,1.633L65.073,81.67
	h15.376l3.067-17.396c0.169-0.956,0.999-1.653,1.97-1.653h13.018c0.591,0,1.152,0.262,1.532,0.714
	c0.38,0.453,0.54,1.051,0.438,1.633l-9.131,51.787C91.174,117.712,90.344,118.409,89.373,118.409z M78.738,114.409h8.957
	l8.425-47.787h-8.956l-3.067,17.396c-0.169,0.956-0.999,1.653-1.97,1.653H62.689c-0.591,0-1.152-0.262-1.532-0.714
	c-0.38-0.453-0.54-1.051-0.438-1.633l2.944-16.701h-8.957l-8.425,47.787h8.957l3.329-18.884c0.169-0.956,0.999-1.653,1.97-1.653
	h19.438c0.591,0,1.152,0.262,1.532,0.714c0.38,0.453,0.54,1.051,0.438,1.633L78.738,114.409z M119.366,105.43
	c-1.021,0-1.974-0.056-2.825-0.153c-0.549-0.063-1.046-0.349-1.376-0.791s-0.463-1-0.367-1.543l4.53-25.697
	c0.154-0.875,0.868-1.544,1.751-1.641c0.447-0.049,10.944-1.13,16.176,4.453c2.493,2.661,3.358,6.271,2.572,10.731
	C137.767,102.473,126.771,105.43,119.366,105.43z M119.131,101.404c0.037,0,0.074,0,0.112,0c4.628,0,14.856-1.17,16.645-11.312
	c0.563-3.197,0.056-5.585-1.552-7.302c-2.713-2.896-8.18-3.391-11.342-3.304L119.131,101.404z"/>
<g>
</g>
<g>
</g>
<g>
</g>
<g>
</g>
<g>
</g>
<g>
</g>
<g>
</g>
<g>
</g>
<g>
</g>
<g>
</g>
<g>
</g>
<g>
</g>
<g>
</g>
<g>
</g>
<g>
</g>
</svg>
