<?xml version="1.0" encoding="iso-8859-1"?>
<!-- Generator: Adobe Illustrator 17.1.0, SVG Export Plug-In . SVG Version: 6.00 Build 0)  -->
<!DOCTYPE svg PUBLIC "-//W3C//DTD SVG 1.1//EN" "http://www.w3.org/Graphics/SVG/1.1/DTD/svg11.dtd">
<svg version="1.1" id="Capa_1" xmlns="http://www.w3.org/2000/svg" xmlns:xlink="http://www.w3.org/1999/xlink" x="0px" y="0px"
	 viewBox="0 0 208.907 208.907" style="enable-background:new 0 0 208.907 208.907;" xml:space="preserve">
<path d="M167.222,185.263l-0.433-0.002c-4.587-0.049-8.326-3.864-8.326-8.507v-66.352c0-4.643,3.739-8.459,8.334-8.508l0.425-0.002
	c4,0,7.871,0.566,11.535,1.623c-1.599-17.951-9.594-34.088-21.686-46.112c-5.541,4.525-13.147,5.771-19.905,3.124l-4.978-1.949
	c-17.799-6.973-37.402-6.973-55.201,0l-4.978,1.949c-6.758,2.647-14.364,1.403-19.905-3.124
	c-12.073,12.007-20.063,28.115-21.679,46.034c3.583-1.007,7.359-1.545,11.26-1.545l0.415,0.002c4.604,0.049,8.344,3.865,8.344,8.508
	v66.352c0,4.643-3.739,8.458-8.335,8.507l-0.424,0.002c-4.937,0-9.676-0.862-14.075-2.445c-0.118-0.031-0.231-0.073-0.34-0.124
	C11.367,176.815,0,161.5,0,143.579c0-14.225,7.163-26.809,18.069-34.334c0.498-47.284,39.118-85.601,86.519-85.601
	c47.465,0,86.125,38.416,86.521,85.788c10.754,7.547,17.799,20.04,17.799,34.146c0,17.825-11.245,33.072-27.016,39.021
	c-0.091,0.042-0.187,0.077-0.284,0.105C177.121,184.359,172.275,185.263,167.222,185.263z M167.222,105.893l-0.389,0.002
	c-2.407,0.025-4.37,2.048-4.37,4.508v66.352c0,2.46,1.963,4.481,4.376,4.507l0.383,0.002c4.131,0,8.108-0.668,11.831-1.902V110.18
	c0-0.802-0.013-1.602-0.038-2.397C175.304,106.556,171.339,105.893,167.222,105.893z M30.123,179.449
	c3.646,1.178,7.53,1.814,11.563,1.814l0.374-0.002c2.422-0.025,4.385-2.047,4.385-4.507v-66.352c0-2.46-1.963-4.482-4.376-4.508
	l-0.383-0.002c-4.017,0-7.889,0.632-11.521,1.801c-0.027,0.825-0.041,1.654-0.041,2.486V179.449z M26.128,109.255
	C13.088,115.189,4,128.342,4,143.579c0,15.233,9.086,28.385,22.123,34.319V110.18C26.123,109.872,26.125,109.564,26.128,109.255z
	 M183.049,109.379c0.003,0.267,0.004,0.534,0.004,0.801v67.595c12.895-5.992,21.854-19.067,21.854-34.196
	C204.907,128.448,195.944,115.372,183.049,109.379z M182.88,104.945c1.431,0.582,2.821,1.241,4.168,1.973
	c-1.713-44.003-38.045-79.273-82.46-79.273c-44.365,0-80.665,35.192-82.454,79.125c1.348-0.719,2.738-1.365,4.169-1.936
	c1.361-20.137,10.354-38.212,24.102-51.355c0.063-0.087,0.134-0.171,0.212-0.249c0.105-0.105,0.22-0.196,0.34-0.273
	c14.04-13.168,32.91-21.24,53.632-21.24s39.592,8.072,53.632,21.24c0.12,0.077,0.234,0.168,0.34,0.273
	c0.079,0.078,0.149,0.162,0.212,0.249C172.544,66.645,181.545,84.764,182.88,104.945z M55.047,54.631
	c4.392,3.354,10.268,4.224,15.504,2.172l4.978-1.949c18.738-7.34,39.379-7.342,58.119,0l4.978,1.949
	c5.238,2.053,11.111,1.18,15.504-2.172c-13.172-11.759-30.537-18.916-49.541-18.916S68.218,42.873,55.047,54.631z"/>
<g>
</g>
<g>
</g>
<g>
</g>
<g>
</g>
<g>
</g>
<g>
</g>
<g>
</g>
<g>
</g>
<g>
</g>
<g>
</g>
<g>
</g>
<g>
</g>
<g>
</g>
<g>
</g>
<g>
</g>
</svg>
