<?xml version="1.0" encoding="iso-8859-1"?>
<!-- Generator: Adobe Illustrator 17.1.0, SVG Export Plug-In . SVG Version: 6.00 Build 0)  -->
<!DOCTYPE svg PUBLIC "-//W3C//DTD SVG 1.1//EN" "http://www.w3.org/Graphics/SVG/1.1/DTD/svg11.dtd">
<svg version="1.1" id="Capa_1" xmlns="http://www.w3.org/2000/svg" xmlns:xlink="http://www.w3.org/1999/xlink" x="0px" y="0px"
	 viewBox="0 0 198.676 198.676" style="enable-background:new 0 0 198.676 198.676;" xml:space="preserve">
<path d="M101.896,198.676H89.449c-4.812,0-8.828-3.473-9.673-8.044h-30.77c-22.39,0-40.604-18.215-40.604-40.604V95.861
	C8.402,43.003,49.196,0,99.338,0s90.936,43.003,90.936,95.861v37.918c0,1.104-0.896,2-2,2h-6.26v8.397c0,5.084-4.136,9.22-9.22,9.22
	h-8.486c-1.098,0-1.989-0.885-2-1.98h-4.35c-3.78,0-6.855-2.903-6.855-6.472V97.206c0-3.568,3.075-6.472,6.855-6.472h4.35
	c0.011-1.096,0.902-1.98,2-1.98h9.037c4.78,0,8.669,3.889,8.669,8.669v8.948h4.26v-10.51C186.273,45.209,147.274,4,99.338,4
	S12.402,45.209,12.402,95.861v10.51h4.26v-8.948c0-4.78,3.889-8.669,8.669-8.669h9.037c1.098,0,1.989,0.885,2,1.98h4.35
	c3.78,0,6.855,2.903,6.855,6.472v47.738c0,3.568-3.075,6.472-6.855,6.472h-4.35c-0.011,1.096-0.902,1.98-2,1.98h-8.486
	c-5.084,0-9.22-4.136-9.22-9.22v-8.397h-4.26v14.248c0,20.184,16.421,36.604,36.604,36.604h30.77
	c0.846-4.571,4.861-8.044,9.673-8.044h12.447c5.424,0,9.837,4.413,9.837,9.838v0.413
	C111.733,194.263,107.32,198.676,101.896,198.676z M83.612,188.632v0.207c0,3.219,2.618,5.837,5.837,5.837h12.447
	c3.219,0,5.837-2.618,5.837-5.837v-0.413c0-3.219-2.618-5.838-5.837-5.838H89.449c-3.219,0-5.837,2.619-5.837,5.838V188.632z
	 M166.308,149.396h6.486c2.878,0,5.22-2.342,5.22-5.22V97.423c0-2.574-2.095-4.669-4.669-4.669h-7.037V149.396z M25.331,92.754
	c-2.574,0-4.669,2.095-4.669,4.669v46.754c0,2.878,2.342,5.22,5.22,5.22h6.128c-0.002-0.036-0.003-0.072-0.003-0.109V92.863
	c0-0.037,0.001-0.073,0.003-0.109H25.331z M157.958,94.734c-1.574,0-2.855,1.108-2.855,2.472v47.738
	c0,1.363,1.281,2.472,2.855,2.472h4.35V94.734H157.958z M36.007,147.414c0.058,0.001,0.114,0.002,0.17,0.002h4.541
	c1.574,0,2.855-1.108,2.855-2.472V97.206c0-1.363-1.281-2.472-2.855-2.472h-4.541c-0.056,0-0.112,0.001-0.17,0.002V147.414z
	 M182.014,131.779h4.26v-21.408h-4.26V131.779z M12.402,131.779h4.26v-21.408h-4.26V131.779z"/>
<g>
</g>
<g>
</g>
<g>
</g>
<g>
</g>
<g>
</g>
<g>
</g>
<g>
</g>
<g>
</g>
<g>
</g>
<g>
</g>
<g>
</g>
<g>
</g>
<g>
</g>
<g>
</g>
<g>
</g>
</svg>
