<?xml version="1.0" encoding="iso-8859-1"?>
<!-- Generator: Adobe Illustrator 17.1.0, SVG Export Plug-In . SVG Version: 6.00 Build 0)  -->
<!DOCTYPE svg PUBLIC "-//W3C//DTD SVG 1.1//EN" "http://www.w3.org/Graphics/SVG/1.1/DTD/svg11.dtd">
<svg version="1.1" id="Capa_1" xmlns="http://www.w3.org/2000/svg" xmlns:xlink="http://www.w3.org/1999/xlink" x="0px" y="0px"
	 viewBox="0 0 212.667 212.667" style="enable-background:new 0 0 212.667 212.667;" xml:space="preserve">
<path d="M210.667,172H2c-1.104,0-2-0.896-2-2V42.667c0-1.104,0.896-2,2-2h208.667c1.104,0,2,0.896,2,2V170
	C212.667,171.104,211.771,172,210.667,172z M4,168h204.667v-21.667h-2.611c-5.333,0-9.672-4.339-9.672-9.672V76.005
	c0-5.333,4.339-9.672,9.672-9.672h2.611V44.667H4v21.667h2.611c5.333,0,9.672,4.339,9.672,9.672v60.656
	c0,5.333-4.339,9.672-9.672,9.672H4V168z M206.056,70.333c-3.127,0-5.672,2.544-5.672,5.672v60.656c0,3.128,2.544,5.672,5.672,5.672
	h2.527v-72H206.056z M4.083,142.333h2.527c3.127,0,5.672-2.544,5.672-5.672V76.005c0-3.127-2.544-5.672-5.672-5.672H4.083V142.333z
	 M201.367,165.242H189.8c-1.104,0-2-0.896-2-2v-11.567c0-1.104,0.896-2,2-2h11.567c1.104,0,2,0.896,2,2v11.567
	C203.367,164.346,202.472,165.242,201.367,165.242z M191.8,161.242h7.567v-7.567H191.8V161.242z M175.867,165.242H164.3
	c-1.104,0-2-0.896-2-2v-11.567c0-1.104,0.896-2,2-2h11.567c1.104,0,2,0.896,2,2v11.567
	C177.867,164.346,176.972,165.242,175.867,165.242z M166.3,161.242h7.567v-7.567H166.3V161.242z M150.367,165.242H138.8
	c-1.104,0-2-0.896-2-2v-11.567c0-1.104,0.896-2,2-2h11.567c1.104,0,2,0.896,2,2v11.567
	C152.367,164.346,151.472,165.242,150.367,165.242z M140.8,161.242h7.567v-7.567H140.8V161.242z M124.867,165.242H113.3
	c-1.104,0-2-0.896-2-2v-11.567c0-1.104,0.896-2,2-2h11.567c1.104,0,2,0.896,2,2v11.567
	C126.867,164.346,125.972,165.242,124.867,165.242z M115.3,161.242h7.567v-7.567H115.3V161.242z M99.367,165.242H87.8
	c-1.104,0-2-0.896-2-2v-11.567c0-1.104,0.896-2,2-2h11.567c1.104,0,2,0.896,2,2v11.567
	C101.367,164.346,100.472,165.242,99.367,165.242z M89.8,161.242h7.567v-7.567H89.8V161.242z M73.867,165.242H62.3
	c-1.104,0-2-0.896-2-2v-11.567c0-1.104,0.896-2,2-2h11.567c1.104,0,2,0.896,2,2v11.567
	C75.867,164.346,74.972,165.242,73.867,165.242z M64.3,161.242h7.567v-7.567H64.3V161.242z M48.367,165.242H36.8
	c-1.104,0-2-0.896-2-2v-11.567c0-1.104,0.896-2,2-2h11.567c1.104,0,2,0.896,2,2v11.567
	C50.367,164.346,49.472,165.242,48.367,165.242z M38.8,161.242h7.567v-7.567H38.8V161.242z M22.867,165.242H11.3
	c-1.104,0-2-0.896-2-2v-11.567c0-1.104,0.896-2,2-2h11.567c1.104,0,2,0.896,2,2v11.567
	C24.867,164.346,23.972,165.242,22.867,165.242z M13.3,161.242h7.567v-7.567H13.3V161.242z M176.755,146.333h-55.771
	c-5.333,0-9.672-4.339-9.672-9.672V76.005c0-5.333,4.339-9.672,9.672-9.672h55.771c5.333,0,9.672,4.339,9.672,9.672v60.656
	C186.428,141.995,182.089,146.333,176.755,146.333z M120.984,70.333c-3.128,0-5.672,2.544-5.672,5.672v60.656
	c0,3.128,2.544,5.672,5.672,5.672h55.771c3.128,0,5.672-2.544,5.672-5.672V76.005c0-3.127-2.544-5.672-5.672-5.672H120.984z
	 M91.683,146.333H35.912c-5.333,0-9.672-4.339-9.672-9.672V76.005c0-5.333,4.339-9.672,9.672-9.672h55.771
	c5.333,0,9.672,4.339,9.672,9.672v60.656C101.355,141.995,97.017,146.333,91.683,146.333z M35.912,70.333
	c-3.128,0-5.672,2.544-5.672,5.672v60.656c0,3.128,2.544,5.672,5.672,5.672h55.771c3.128,0,5.672-2.544,5.672-5.672V76.005
	c0-3.127-2.544-5.672-5.672-5.672H35.912z M201.367,62.992H189.8c-1.104,0-2-0.896-2-2V49.425c0-1.104,0.896-2,2-2h11.567
	c1.104,0,2,0.896,2,2v11.567C203.367,62.096,202.472,62.992,201.367,62.992z M191.8,58.992h7.567v-7.567H191.8V58.992z
	 M175.867,62.992H164.3c-1.104,0-2-0.896-2-2V49.425c0-1.104,0.896-2,2-2h11.567c1.104,0,2,0.896,2,2v11.567
	C177.867,62.096,176.972,62.992,175.867,62.992z M166.3,58.992h7.567v-7.567H166.3V58.992z M150.367,62.992H138.8
	c-1.104,0-2-0.896-2-2V49.425c0-1.104,0.896-2,2-2h11.567c1.104,0,2,0.896,2,2v11.567C152.367,62.096,151.472,62.992,150.367,62.992
	z M140.8,58.992h7.567v-7.567H140.8V58.992z M124.867,62.992H113.3c-1.104,0-2-0.896-2-2V49.425c0-1.104,0.896-2,2-2h11.567
	c1.104,0,2,0.896,2,2v11.567C126.867,62.096,125.972,62.992,124.867,62.992z M115.3,58.992h7.567v-7.567H115.3V58.992z
	 M99.367,62.992H87.8c-1.104,0-2-0.896-2-2V49.425c0-1.104,0.896-2,2-2h11.567c1.104,0,2,0.896,2,2v11.567
	C101.367,62.096,100.472,62.992,99.367,62.992z M89.8,58.992h7.567v-7.567H89.8V58.992z M73.867,62.992H62.3c-1.104,0-2-0.896-2-2
	V49.425c0-1.104,0.896-2,2-2h11.567c1.104,0,2,0.896,2,2v11.567C75.867,62.096,74.972,62.992,73.867,62.992z M64.3,58.992h7.567
	v-7.567H64.3V58.992z M48.367,62.992H36.8c-1.104,0-2-0.896-2-2V49.425c0-1.104,0.896-2,2-2h11.567c1.104,0,2,0.896,2,2v11.567
	C50.367,62.096,49.472,62.992,48.367,62.992z M38.8,58.992h7.567v-7.567H38.8V58.992z M22.867,62.992H11.3c-1.104,0-2-0.896-2-2
	V49.425c0-1.104,0.896-2,2-2h11.567c1.104,0,2,0.896,2,2v11.567C24.867,62.096,23.972,62.992,22.867,62.992z M13.3,58.992h7.567
	v-7.567H13.3V58.992z"/>
<g>
</g>
<g>
</g>
<g>
</g>
<g>
</g>
<g>
</g>
<g>
</g>
<g>
</g>
<g>
</g>
<g>
</g>
<g>
</g>
<g>
</g>
<g>
</g>
<g>
</g>
<g>
</g>
<g>
</g>
</svg>
