<?xml version="1.0" encoding="iso-8859-1"?>
<!-- Generator: Adobe Illustrator 17.1.0, SVG Export Plug-In . SVG Version: 6.00 Build 0)  -->
<!DOCTYPE svg PUBLIC "-//W3C//DTD SVG 1.1//EN" "http://www.w3.org/Graphics/SVG/1.1/DTD/svg11.dtd">
<svg version="1.1" id="Capa_1" xmlns="http://www.w3.org/2000/svg" xmlns:xlink="http://www.w3.org/1999/xlink" x="0px" y="0px"
	 viewBox="0 0 196.579 196.579" style="enable-background:new 0 0 196.579 196.579;" xml:space="preserve">
<path d="M169.656,196.579H26.923c-1.104,0-2-0.896-2-2v-8.751c0-1.104,0.896-2,2-2h4.53l30.038-83.526l-11.596-4.448
	c-3.984-1.528-7.118-4.524-8.823-8.437c-1.705-3.911-1.767-8.245-0.174-12.204l8.694-21.616c1.578-3.923,4.59-6.992,8.482-8.645
	s8.192-1.687,12.111-0.098l9.813,3.982l3.88-10.79c0.024-0.068,0.053-0.136,0.084-0.2L70.376,12.22h-2.842c-1.104,0-2-0.896-2-2V2
	c0-1.104,0.896-2,2-2h61.512c1.104,0,2,0.896,2,2v8.22c0,1.104-0.896,2-2,2h-2.843l-13.586,25.627c0.031,0.064,0.06,0.132,0.084,0.2
	l52.426,145.781h4.529c1.104,0,2,0.896,2,2v8.751C171.656,195.684,170.76,196.579,169.656,196.579z M28.923,192.579h138.733v-4.751
	H28.923V192.579z M35.704,183.828h125.172L109.413,40.724H87.166L35.704,183.828z M64.245,47.689c-1.563,0-3.125,0.315-4.608,0.944
	c-2.906,1.234-5.156,3.526-6.334,6.455l-8.694,21.616c-1.189,2.957-1.143,6.193,0.13,9.114c1.273,2.921,3.613,5.158,6.588,6.3
	l11.517,4.418l15.799-43.934l-9.962-4.042C67.248,47.979,65.746,47.689,64.245,47.689z M87.894,36.724h20.791l12.99-24.504H74.903
	L87.894,36.724z M69.533,8.22h57.512V4H69.533V8.22z M146.008,173.159c-0.824,0-1.597-0.515-1.887-1.337L102.184,52.775
	c-0.366-1.041,0.181-2.184,1.223-2.551c1.04-0.365,2.184,0.181,2.551,1.223l41.937,119.047c0.366,1.041-0.181,2.184-1.223,2.551
	C146.452,173.122,146.228,173.159,146.008,173.159z"/>
<g>
</g>
<g>
</g>
<g>
</g>
<g>
</g>
<g>
</g>
<g>
</g>
<g>
</g>
<g>
</g>
<g>
</g>
<g>
</g>
<g>
</g>
<g>
</g>
<g>
</g>
<g>
</g>
<g>
</g>
</svg>
