<?xml version="1.0" encoding="iso-8859-1"?>
<!-- Generator: Adobe Illustrator 17.1.0, SVG Export Plug-In . SVG Version: 6.00 Build 0)  -->
<!DOCTYPE svg PUBLIC "-//W3C//DTD SVG 1.1//EN" "http://www.w3.org/Graphics/SVG/1.1/DTD/svg11.dtd">
<svg version="1.1" id="Capa_1" xmlns="http://www.w3.org/2000/svg" xmlns:xlink="http://www.w3.org/1999/xlink" x="0px" y="0px"
	 viewBox="0 0 209.333 209.333" style="enable-background:new 0 0 209.333 209.333;" xml:space="preserve">
<path d="M63.656,188.275c-5.794,0-11.002-3.665-12.958-9.119c-0.022-0.063-0.042-0.126-0.058-0.19l-10.661-42.644h-5.024
	c-0.92,0-1.722-0.628-1.942-1.522l-5.46-22.202l-11.786-2.994c-0.887-0.225-1.507-1.023-1.507-1.938v-5.843H2c-1.104,0-2-0.896-2-2
	V75.581c0-1.104,0.896-2,2-2h12.259v-5.843c0-0.929,0.64-1.736,1.544-1.947l191.075-44.679c0.595-0.141,1.22,0.001,1.698,0.38
	c0.478,0.379,0.757,0.957,0.757,1.567v129.284c0,0.608-0.276,1.183-0.751,1.562c-0.476,0.379-1.095,0.521-1.689,0.389
	L73.712,124.254v10.067c0,1.104-0.896,2-2,2h-2.18l7.216,33.931c1.373,4.218,0.676,8.694-1.919,12.3
	C72.21,186.189,68.138,188.275,63.656,188.275z M54.496,177.894c1.412,3.82,5.082,6.38,9.161,6.38c3.179,0,6.068-1.48,7.926-4.06
	c1.857-2.581,2.344-5.79,1.335-8.805c-0.024-0.072-0.044-0.145-0.06-0.219l-7.416-34.87h-21.34L54.496,177.894z M78.069,121.136
	l127.265,28.706V25.581L18.259,69.325v36.784l6.74,1.712c0.011,0.002,0.021,0.005,0.032,0.008L78.069,121.136z M67.104,132.321
	h2.608v-9.158l-37.773-9.477l4.583,18.635h4.977c0.029-0.001,0.058-0.001,0.086,0h25.438
	C67.051,132.32,67.077,132.32,67.104,132.321z M4,97.822h10.259V77.581H4V97.822z"/>
<g>
</g>
<g>
</g>
<g>
</g>
<g>
</g>
<g>
</g>
<g>
</g>
<g>
</g>
<g>
</g>
<g>
</g>
<g>
</g>
<g>
</g>
<g>
</g>
<g>
</g>
<g>
</g>
<g>
</g>
</svg>
