<?xml version="1.0" encoding="iso-8859-1"?>
<!-- Generator: Adobe Illustrator 17.1.0, SVG Export Plug-In . SVG Version: 6.00 Build 0)  -->
<!DOCTYPE svg PUBLIC "-//W3C//DTD SVG 1.1//EN" "http://www.w3.org/Graphics/SVG/1.1/DTD/svg11.dtd">
<svg version="1.1" id="Capa_1" xmlns="http://www.w3.org/2000/svg" xmlns:xlink="http://www.w3.org/1999/xlink" x="0px" y="0px"
	 viewBox="0 0 199.116 199.116" style="enable-background:new 0 0 199.116 199.116;" xml:space="preserve">
<path d="M139.901,178.682H59.214c-1.104,0-2-0.896-2-2s0.896-2,2-2h12.565l2.6-21.148H10.377C4.655,153.534,0,148.878,0,143.156
	V30.811c0-5.722,4.655-10.377,10.377-10.377h178.361c5.723,0,10.378,4.655,10.378,10.377v112.345
	c0,5.723-4.655,10.378-10.378,10.378h-64.001l2.599,21.148h12.565c1.104,0,2,0.896,2,2S141.006,178.682,139.901,178.682z
	 M75.81,174.682h47.496l-2.599-21.148H78.409L75.81,174.682z M122.477,149.534h66.262c3.517,0,6.378-2.861,6.378-6.378v-11.341H4
	v11.341c0,3.517,2.86,6.378,6.377,6.378H122.477z M4,127.815h191.116V30.811c0-3.517-2.861-6.377-6.378-6.377H10.377
	C6.86,24.434,4,27.294,4,30.811V127.815z M89.997,98.079c-1.007,0-2.014-0.265-2.932-0.795c-1.836-1.06-2.932-2.958-2.932-5.078
	V64.067c0-2.12,1.096-4.019,2.932-5.078c1.836-1.061,4.027-1.06,5.863,0.001l24.369,14.068c1.836,1.06,2.932,2.957,2.932,5.077
	c0.001,2.121-1.096,4.02-2.932,5.08L92.929,97.284C92.011,97.813,91.004,98.079,89.997,98.079z M90.006,62.197
	c-0.43,0-0.771,0.158-0.94,0.256c-0.28,0.162-0.932,0.643-0.932,1.614v28.139c0,0.972,0.651,1.452,0.932,1.614
	c0.28,0.161,1.024,0.485,1.863,0l24.369-14.069c0.842-0.485,0.933-1.291,0.932-1.614c0-0.323-0.091-1.128-0.931-1.613l-24.37-14.069
	C90.599,62.262,90.284,62.197,90.006,62.197z"/>
<g>
</g>
<g>
</g>
<g>
</g>
<g>
</g>
<g>
</g>
<g>
</g>
<g>
</g>
<g>
</g>
<g>
</g>
<g>
</g>
<g>
</g>
<g>
</g>
<g>
</g>
<g>
</g>
<g>
</g>
</svg>
