<?xml version="1.0" encoding="iso-8859-1"?>
<!-- Generator: Adobe Illustrator 17.1.0, SVG Export Plug-In . SVG Version: 6.00 Build 0)  -->
<!DOCTYPE svg PUBLIC "-//W3C//DTD SVG 1.1//EN" "http://www.w3.org/Graphics/SVG/1.1/DTD/svg11.dtd">
<svg version="1.1" id="Capa_1" xmlns="http://www.w3.org/2000/svg" xmlns:xlink="http://www.w3.org/1999/xlink" x="0px" y="0px"
	 viewBox="0 0 210.293 210.293" style="enable-background:new 0 0 210.293 210.293;" xml:space="preserve">
<path d="M80.07,210.291L80.07,210.291c-0.53,0-1.039-0.211-1.414-0.586l-16.988-16.988c-0.004-0.004-0.008-0.008-0.012-0.012
	c-0.004-0.004-0.008-0.008-0.013-0.012L3.048,134.096C1.082,132.13,0,129.517,0,126.737s1.082-5.393,3.048-7.358L119.381,3.046
	c4.057-4.058,10.66-4.058,14.717,0l75.609,75.609c0.375,0.375,0.586,0.884,0.586,1.414s-0.211,1.039-0.586,1.414L81.484,209.705
	C81.109,210.08,80.601,210.291,80.07,210.291z M65.898,191.291l14.172,14.171L205.465,80.068l-14.173-14.172L65.898,191.291z
	 M126.739,4.001c-1.641,0-3.281,0.625-4.53,1.874L5.876,122.208c-1.21,1.21-1.876,2.819-1.876,4.53s0.666,3.32,1.876,4.53
	l57.194,57.194L188.464,63.068L131.27,5.874C130.021,4.625,128.38,4.001,126.739,4.001z M63.188,153.722
	c-7.279,0-14.122-2.834-19.269-7.981c-5.147-5.146-7.982-11.99-7.982-19.269s2.835-14.122,7.982-19.269l0.387-0.387
	c0.008-0.009,0.017-0.018,0.025-0.026l62.461-62.461c0.009-0.009,0.018-0.018,0.026-0.026l0.387-0.387
	c5.146-5.147,11.989-7.981,19.269-7.981c7.278,0,14.121,2.834,19.269,7.981l0,0c10.624,10.625,10.624,27.913,0,38.537
	l-63.286,63.286C77.31,150.888,70.467,153.722,63.188,153.722z M45.776,111.064c-3.775,4.254-5.839,9.673-5.839,15.409
	c0,6.21,2.419,12.049,6.811,16.44c4.392,4.391,10.229,6.81,16.44,6.81c5.735,0,11.154-2.063,15.408-5.838l-2.606-2.606
	c-3.485,2.848-7.809,4.395-12.369,4.395c-5.234,0-10.154-2.038-13.854-5.739c-3.701-3.701-5.739-8.621-5.739-13.854
	c0-4.561,1.548-8.884,4.396-12.369L45.776,111.064z M51.27,116.557c-2.103,2.716-3.242,6.032-3.242,9.522
	c0,4.165,1.622,8.081,4.567,11.026c2.945,2.945,6.861,4.567,11.026,4.567c3.49,0,6.807-1.139,9.522-3.242L51.27,116.557z
	 M77.502,137.133l3.953,3.953l59.633-59.632l-32.881-32.88l-59.632,59.633l28.873,28.874c0.01,0.009,0.019,0.018,0.027,0.027
	C77.484,137.115,77.493,137.124,77.502,137.133z M141.279,75.988l2.606,2.607c8.081-9.12,7.758-23.12-0.971-31.849
	c-4.392-4.391-10.23-6.81-16.44-6.81c-5.736,0-11.155,2.063-15.409,5.838l2.646,2.647c3.485-2.848,7.809-4.396,12.37-4.396
	c5.233,0,10.153,2.038,13.854,5.739C147.099,56.926,147.545,68.299,141.279,75.988z M116.559,51.268l21.873,21.873
	c4.718-6.111,4.277-14.947-1.323-20.548c-2.945-2.945-6.861-4.567-11.026-4.567C122.591,48.026,119.274,49.165,116.559,51.268z"/>
<g>
</g>
<g>
</g>
<g>
</g>
<g>
</g>
<g>
</g>
<g>
</g>
<g>
</g>
<g>
</g>
<g>
</g>
<g>
</g>
<g>
</g>
<g>
</g>
<g>
</g>
<g>
</g>
<g>
</g>
</svg>
