<?xml version="1.0" encoding="iso-8859-1"?>
<!-- Generator: Adobe Illustrator 17.1.0, SVG Export Plug-In . SVG Version: 6.00 Build 0)  -->
<!DOCTYPE svg PUBLIC "-//W3C//DTD SVG 1.1//EN" "http://www.w3.org/Graphics/SVG/1.1/DTD/svg11.dtd">
<svg version="1.1" id="Capa_1" xmlns="http://www.w3.org/2000/svg" xmlns:xlink="http://www.w3.org/1999/xlink" x="0px" y="0px"
	 viewBox="0 0 210.654 210.654" style="enable-background:new 0 0 210.654 210.654;" xml:space="preserve">
<path d="M202.529,166.029H8.125c-4.48,0-8.125-3.645-8.125-8.125v-5.753c0-1.104,0.896-2,2-2h14.61V53.139
	c0-4.694,3.819-8.514,8.515-8.514h160.404c4.695,0,8.515,3.819,8.515,8.514v97.012h14.61c1.104,0,2,0.896,2,2v5.753
	C210.654,162.384,207.01,166.029,202.529,166.029z M4,154.151v3.753c0,2.274,1.851,4.125,4.125,4.125h194.404
	c2.274,0,4.125-1.851,4.125-4.125v-3.753H4z M183.052,150.151h6.992V53.139c0-2.489-2.025-4.514-4.515-4.514H25.125
	c-2.489,0-4.515,2.025-4.515,4.514v97.012h6.992v-5.105c0-1.104,0.896-2,2-2h27.521c1.104,0,2,0.896,2,2v5.105h92.406v-5.105
	c0-1.104,0.896-2,2-2h27.521c1.104,0,2,0.896,2,2V150.151z M155.53,150.151h23.521v-3.105H155.53V150.151z M31.603,150.151h23.521
	v-3.105H31.603V150.151z M181.052,138.192H29.603c-1.104,0-2-0.896-2-2v-79.47c0-1.104,0.896-2,2-2h151.449c1.104,0,2,0.896,2,2
	v79.47C183.052,137.296,182.156,138.192,181.052,138.192z M31.603,134.192h147.449v-75.47H31.603V134.192z M105.327,123.898
	c-14.979,0-27.167-12.187-27.167-27.167c0-14.98,12.188-27.167,27.167-27.167s27.167,12.187,27.167,27.167
	C132.494,111.711,120.307,123.898,105.327,123.898z M105.327,73.565c-12.774,0-23.167,10.393-23.167,23.167
	c0,12.774,10.393,23.167,23.167,23.167s23.167-10.393,23.167-23.167C128.494,83.958,118.102,73.565,105.327,73.565z M99.15,110.251
	c-1.833,0-3.323-1.491-3.323-3.323V86.535c0-1.832,1.49-3.323,3.322-3.323c0.579,0,1.153,0.155,1.659,0.447l17.66,10.196
	c1.04,0.6,1.66,1.675,1.661,2.875c0,1.201-0.621,2.276-1.661,2.876l-17.66,10.196C100.302,110.097,99.729,110.251,99.15,110.251z
	 M99.827,87.712v18.04l15.623-9.02L99.827,87.712z"/>
<g>
</g>
<g>
</g>
<g>
</g>
<g>
</g>
<g>
</g>
<g>
</g>
<g>
</g>
<g>
</g>
<g>
</g>
<g>
</g>
<g>
</g>
<g>
</g>
<g>
</g>
<g>
</g>
<g>
</g>
</svg>
