<?xml version="1.0" encoding="iso-8859-1"?>
<!-- Generator: Adobe Illustrator 17.1.0, SVG Export Plug-In . SVG Version: 6.00 Build 0)  -->
<!DOCTYPE svg PUBLIC "-//W3C//DTD SVG 1.1//EN" "http://www.w3.org/Graphics/SVG/1.1/DTD/svg11.dtd">
<svg version="1.1" id="Capa_1" xmlns="http://www.w3.org/2000/svg" xmlns:xlink="http://www.w3.org/1999/xlink" x="0px" y="0px"
	 viewBox="0 0 198.102 198.102" style="enable-background:new 0 0 198.102 198.102;" xml:space="preserve">
<path d="M88.136,198.102c-0.512,0-1.024-0.195-1.414-0.586c-0.781-0.781-0.781-2.047,0-2.828l40.109-40.109v-42.626h-5.622
	c-1.104,0-2-0.896-2-2V94.569h-3.345c-15.045,30.393-44.92,47.793-82.176,47.793c-1.682,0-3.442-0.055-5.23-0.162
	c-1.056-0.063-1.88-0.938-1.88-1.996V2.157c0-1.058,0.824-1.933,1.88-1.996C30.235,0.054,31.994,0,33.687,0
	c36.885,0,66.536,17.055,81.722,46.889h42.883c1.104,0,2,0.896,2,2v43.681c0,1.104-0.896,2-2,2h-19.84v15.383c0,1.104-0.896,2-2,2
	h-5.622v42.538l40.108,40.108c0.781,0.781,0.781,2.047,0,2.828c-0.78,0.781-2.048,0.781-2.828,0l-37.236-37.236v21.048h3.698
	c1.104,0,2,0.896,2,2s-0.896,2-2,2h-11.396c-1.104,0-2-0.896-2-2s0.896-2,2-2h3.698V160.19L89.55,197.516
	C89.16,197.906,88.648,198.102,88.136,198.102z M30.576,138.301c1.06,0.041,2.101,0.062,3.111,0.062
	c35.95,0,64.69-16.85,78.925-46.249V50.249C98.377,20.85,69.637,4,33.687,4c-1.015,0-2.056,0.021-3.111,0.061V138.301z
	 M128.831,107.952h5.622V94.569h-11.244v13.383H128.831z M136.453,90.569h19.84V50.889h-39.68v39.681H136.453z M102.707,54.846
	c-1.093,0-1.981-0.877-2-1.966c-0.012-0.213-0.685-9.335-19.281-24.832C62.353,12.155,39.158,14.475,38.926,14.5
	c-1.105,0.122-2.085-0.673-2.206-1.77c-0.121-1.098,0.669-2.085,1.766-2.206c1.014-0.116,25.082-2.565,45.501,14.451
	c20.138,16.782,20.72,26.785,20.72,27.87C104.707,53.95,103.811,54.846,102.707,54.846z"/>
<g>
</g>
<g>
</g>
<g>
</g>
<g>
</g>
<g>
</g>
<g>
</g>
<g>
</g>
<g>
</g>
<g>
</g>
<g>
</g>
<g>
</g>
<g>
</g>
<g>
</g>
<g>
</g>
<g>
</g>
</svg>
