<?xml version="1.0" encoding="iso-8859-1"?>
<!-- Generator: Adobe Illustrator 17.1.0, SVG Export Plug-In . SVG Version: 6.00 Build 0)  -->
<!DOCTYPE svg PUBLIC "-//W3C//DTD SVG 1.1//EN" "http://www.w3.org/Graphics/SVG/1.1/DTD/svg11.dtd">
<svg version="1.1" id="Capa_1" xmlns="http://www.w3.org/2000/svg" xmlns:xlink="http://www.w3.org/1999/xlink" x="0px" y="0px"
	 viewBox="0 0 196 196" style="enable-background:new 0 0 196 196;" xml:space="preserve">
<path d="M6.99,196c-0.615,0-1.222-0.282-1.614-0.816c-0.653-0.89-0.462-2.142,0.429-2.796l44.646-32.792V79.331h-8.636
	c-0.932,0-1.74-0.644-1.949-1.552l-2.499-10.872h-2.25c-5.668,0-10.278-4.61-10.278-10.277v-1.673L7.436,58.958
	c-0.594,0.137-1.218-0.005-1.694-0.385c-0.477-0.379-0.754-0.955-0.754-1.564V23.157c0-0.609,0.277-1.186,0.754-1.564
	c0.477-0.38,1.101-0.521,1.694-0.385l26.511,6.095l5.919-25.751C40.075,0.644,40.884,0,41.815,0h21.271
	c0.932,0,1.74,0.644,1.949,1.552l5.881,25.578l25.756-5.922c0.595-0.137,1.218,0.005,1.694,0.385
	c0.477,0.379,0.754,0.955,0.754,1.564v33.852c0,0.609-0.277,1.186-0.754,1.564c-0.477,0.38-1.1,0.521-1.694,0.385l-16.019-3.683
	v1.354c0,5.667-4.61,10.277-10.277,10.277h-2.842l-2.499,10.872c-0.209,0.908-1.018,1.552-1.949,1.552h-8.635v80.275l43.866,32.792
	c0.885,0.661,1.066,1.914,0.404,2.799c-0.66,0.884-1.913,1.066-2.799,0.404l-41.472-31.001V194c0,1.104-0.896,2-2,2s-2-0.896-2-2
	v-29.441L8.172,195.612C7.815,195.874,7.4,196,6.99,196z M52.451,75.331h9.042l4.387-19.077c-3.646,3.032-8.327,4.857-13.429,4.857
	s-9.783-1.825-13.429-4.858l4.386,19.078H52.451z M68.454,62.907h1.922c3.461,0,6.277-2.816,6.277-6.277v-2.274l-5.92-1.361
	L68.454,62.907z M28.839,54.037v2.593c0,3.461,2.816,6.277,6.278,6.277h1.33l-2.318-10.086L28.839,54.037z M52.451,23.055
	c-9.39,0-17.028,7.639-17.028,17.028s7.639,17.028,17.028,17.028s17.028-7.639,17.028-17.028S61.841,23.055,52.451,23.055z
	 M71.466,49.059l23.654,5.438V25.669l-23.654,5.438c1.291,2.724,2.014,5.767,2.014,8.976S72.757,46.335,71.466,49.059z
	 M8.988,25.669v28.828l24.37-5.604c-1.242-2.681-1.936-5.666-1.936-8.811s0.693-6.13,1.936-8.811L8.988,25.669z M43.408,4
	l-4.624,20.113c3.679-3.152,8.454-5.059,13.667-5.059s9.988,1.906,13.667,5.059L61.493,4H43.408z M122.955,165.727
	c-0.615,0-1.222-0.282-1.614-0.816c-0.653-0.89-0.462-2.142,0.429-2.796l32.503-23.874V80.219h-5.794
	c-0.932,0-1.74-0.644-1.949-1.552l-1.736-7.554h-1.225c-4.448,0-8.066-3.618-8.066-8.066v-0.556l-12.101,2.782
	c-0.594,0.138-1.218-0.004-1.694-0.385c-0.477-0.379-0.754-0.955-0.754-1.564v-24.81c0-0.609,0.277-1.186,0.754-1.564
	c0.477-0.38,1.101-0.521,1.694-0.385l18.909,4.347l4.219-18.353c0.209-0.908,1.018-1.552,1.949-1.552h15.589
	c0.932,0,1.74,0.644,1.949,1.552l4.189,18.226l18.357-4.22c0.594-0.137,1.218,0.005,1.694,0.385
	c0.477,0.379,0.754,0.955,0.754,1.564v24.81c0,0.609-0.277,1.186-0.754,1.564c-0.477,0.381-1.101,0.522-1.694,0.385l-11.087-2.549
	v0.322c0,4.448-3.618,8.066-8.066,8.066h-1.657l-1.736,7.554c-0.209,0.908-1.018,1.552-1.949,1.552h-5.795v58.032l31.937,23.874
	c0.885,0.661,1.066,1.914,0.404,2.799c-0.661,0.884-1.913,1.066-2.799,0.404l-29.542-22.083v20.481c0,1.104-0.896,2-2,2
	s-2-0.896-2-2v-20.523l-30.136,22.136C123.78,165.601,123.365,165.727,122.955,165.727z M156.272,76.219h6.202l2.791-12.138
	c-2.563,1.756-5.66,2.784-8.993,2.784s-6.43-1.027-8.991-2.783l2.79,12.137H156.272z M168.673,67.113h0.737
	c2.242,0,4.066-1.824,4.066-4.066v-1.241l-3.404-0.783L168.673,67.113z M139.502,61.572v1.475c0,2.242,1.824,4.066,4.066,4.066
	h0.305l-1.429-6.218L139.502,61.572z M156.272,38.974c-6.587,0-11.945,5.358-11.945,11.945s5.358,11.946,11.945,11.946
	s11.946-5.359,11.946-11.946S162.859,38.974,156.272,38.974z M170.963,57.123l16.049,3.689V41.026l-16.049,3.689
	c0.809,1.908,1.256,4.004,1.256,6.203S171.771,55.215,170.963,57.123z M124.953,41.026v19.786l16.579-3.812
	c-0.776-1.875-1.205-3.93-1.205-6.082s0.429-4.206,1.205-6.081L124.953,41.026z M156.272,34.974c3.406,0,6.566,1.073,9.16,2.9
	l-2.958-12.866h-12.403l-2.958,12.865C149.707,36.047,152.866,34.974,156.272,34.974z"/>
<g>
</g>
<g>
</g>
<g>
</g>
<g>
</g>
<g>
</g>
<g>
</g>
<g>
</g>
<g>
</g>
<g>
</g>
<g>
</g>
<g>
</g>
<g>
</g>
<g>
</g>
<g>
</g>
<g>
</g>
</svg>
