<?xml version="1.0" encoding="iso-8859-1"?>
<!-- Generator: Adobe Illustrator 17.1.0, SVG Export Plug-In . SVG Version: 6.00 Build 0)  -->
<!DOCTYPE svg PUBLIC "-//W3C//DTD SVG 1.1//EN" "http://www.w3.org/Graphics/SVG/1.1/DTD/svg11.dtd">
<svg version="1.1" id="Capa_1" xmlns="http://www.w3.org/2000/svg" xmlns:xlink="http://www.w3.org/1999/xlink" x="0px" y="0px"
	 viewBox="0 0 179.399 179.399" style="enable-background:new 0 0 179.399 179.399;" xml:space="preserve">
<path d="M52.283,170.7H22.227C9.971,170.7,0,160.729,0,148.473V30.926C0,18.67,9.971,8.7,22.227,8.7h30.056
	c12.256,0,22.227,9.971,22.227,22.226v12.84h3.752v-9.689c0-1.104,0.896-2,2-2h89.804c5.146,0,9.333,4.187,9.333,9.333v57.481
	c0,5.146-4.187,9.333-9.333,9.333H80.262c-1.104,0-2-0.896-2-2v-9.689h-3.752v51.937C74.509,160.729,64.539,170.7,52.283,170.7z
	 M22.227,12.7C12.176,12.7,4,20.876,4,30.926v117.547c0,10.05,8.176,18.227,18.227,18.227h30.056
	c10.05,0,18.227-8.176,18.227-18.227V30.926c0-10.05-8.176-18.226-18.227-18.226H22.227z M82.262,104.225h87.804
	c2.941,0,5.333-2.393,5.333-5.333V41.411c0-2.941-2.393-5.333-5.333-5.333H82.262V104.225z M74.509,92.536h3.752v-44.77h-3.752
	V92.536z M37.255,110.399c-4.61,0-8.36-3.75-8.36-8.359c0-4.61,3.75-8.36,8.36-8.36c4.609,0,8.359,3.75,8.359,8.36
	C45.614,106.649,41.864,110.399,37.255,110.399z M37.255,97.68c-2.404,0-4.36,1.956-4.36,4.36s1.956,4.359,4.36,4.359
	s4.359-1.956,4.359-4.359S39.659,97.68,37.255,97.68z M37.255,82.832c-13.994,0-25.378-11.384-25.378-25.377
	s11.384-25.377,25.378-25.377c13.993,0,25.377,11.384,25.377,25.377S51.248,82.832,37.255,82.832z M37.255,36.077
	c-11.788,0-21.378,9.59-21.378,21.377s9.59,21.377,21.378,21.377s21.377-9.59,21.377-21.377S49.042,36.077,37.255,36.077z
	 M37.255,73.488c-8.841,0-16.034-7.193-16.034-16.034s7.193-16.034,16.034-16.034c8.841,0,16.034,7.193,16.034,16.034
	S46.096,73.488,37.255,73.488z M37.255,45.421c-6.636,0-12.034,5.398-12.034,12.034s5.398,12.034,12.034,12.034
	c6.635,0,12.034-5.398,12.034-12.034S43.89,45.421,37.255,45.421z"/>
<g>
</g>
<g>
</g>
<g>
</g>
<g>
</g>
<g>
</g>
<g>
</g>
<g>
</g>
<g>
</g>
<g>
</g>
<g>
</g>
<g>
</g>
<g>
</g>
<g>
</g>
<g>
</g>
<g>
</g>
</svg>
