<?xml version="1.0" encoding="iso-8859-1"?>
<!-- Generator: Adobe Illustrator 17.1.0, SVG Export Plug-In . SVG Version: 6.00 Build 0)  -->
<!DOCTYPE svg PUBLIC "-//W3C//DTD SVG 1.1//EN" "http://www.w3.org/Graphics/SVG/1.1/DTD/svg11.dtd">
<svg version="1.1" id="Capa_1" xmlns="http://www.w3.org/2000/svg" xmlns:xlink="http://www.w3.org/1999/xlink" x="0px" y="0px"
	 viewBox="0 0 200.085 200.085" style="enable-background:new 0 0 200.085 200.085;" xml:space="preserve">
<path d="M105.389,191.283c-0.016,0-0.03-0.001-0.046-0.001H94.707c-0.029,0.001-0.06,0.001-0.091,0H2
	c-0.626,0-1.216-0.293-1.594-0.792c-0.379-0.499-0.501-1.146-0.332-1.749l14.106-50.156c2.09-7.429,8.004-13.334,15.437-15.411
	l36.33-10.156l8.296-12.486c0.334-0.503,0.877-0.828,1.478-0.885c0.098-0.009,0.192-0.009,0.287-0.007l-0.033-1.696
	c-2.729-4.889-4.124-9.484-4.699-11.72l-1.771-0.806c-5.813-2.644-8.828-11.589-8.384-18.711c0.3-4.791,2.457-7.048,4.494-7.949
	c-1.183-5.919-3.682-23.514,5.223-35.757C81.295,8.624,98.593,8.772,100.043,8.808c1.45-0.042,18.748-0.186,29.204,14.193
	c8.904,12.243,6.405,29.838,5.223,35.757c2.037,0.901,4.195,3.158,4.494,7.949l0,0c0.444,7.121-2.569,16.067-8.383,18.711
	l-1.649,0.751c-0.43,2.478-1.644,8.014-4.563,13.478c0.599,0.059,1.141,0.383,1.474,0.885l8.297,12.487l36.328,10.155
	c7.433,2.077,13.347,7.982,15.437,15.411l14.106,50.156c0.169,0.603,0.047,1.25-0.332,1.749c-0.378,0.499-0.968,0.792-1.594,0.792
	h-92.651C105.419,191.282,105.404,191.283,105.389,191.283z M170.452,187.282h24.993l-13.392-47.615c-0.001,0-0.001,0-0.001,0
	c-1.713-6.093-6.564-10.938-12.661-12.642l-35.228-9.847L113.3,173.737c0,0.002-0.001,0.005-0.002,0.008l-5.032,13.537h58.187
	v-33.499c0-1.104,0.896-2,2-2s2,0.896,2,2V187.282z M96.057,187.282h7.941l5.375-14.46l-4.707-34.335
	c-0.041-0.301-0.014-0.606,0.081-0.896l3.538-10.781l-2.859-5.24H94.659l-2.858,5.241l3.537,10.78
	c0.095,0.288,0.122,0.594,0.081,0.894l-4.675,34.34L96.057,187.282z M33.633,187.282h58.162l-4.976-13.54v-0.001l-20.898-56.563
	l-35.228,9.847c-6.097,1.704-10.948,6.549-12.661,12.642L4.64,187.282h24.993v-33.499c0-1.104,0.896-2,2-2s2,0.896,2,2V187.282z
	 M108.692,138.401l3.626,26.443l13.247-35.911l-6.531,9.49c-0.378,0.55-1.028,0.851-1.675,0.866c-0.668-0.01-1.287-0.352-1.65-0.911
	l-4.654-7.176L108.692,138.401z M74.537,128.956l13.258,35.883l3.599-26.437l-2.361-7.198l-4.655,7.175
	c-0.363,0.56-0.982,0.902-1.65,0.911c-0.636-0.021-1.297-0.316-1.675-0.866L74.537,128.956z M69.608,114.736l13.043,18.954
	l5.128-7.902c0.024-0.059,0.053-0.116,0.083-0.173l3.111-5.703l-14.31-14.61c-0.075-0.076-0.143-0.158-0.203-0.244l-0.252-0.256
	L69.608,114.736z M112.306,125.783l5.129,7.907l13.044-18.954l-6.601-9.935L109.1,119.89l3.124,5.726
	C112.254,125.671,112.281,125.727,112.306,125.783z M94.208,117.464h11.635l5.567-5.685c-3.245,1.687-7.062,2.879-11.367,2.879
	c-4.882,0-9.137-1.772-12.646-4.148L94.208,117.464z M79.705,96.415c0.081,0.143,8.201,14.243,20.338,14.243
	c11.899,0,19.799-11.272,20.334-12.057c3.562-6.221,4.593-12.813,4.765-14.075c0.092-0.681,0.526-1.266,1.151-1.551l2.632-1.198
	c3.611-1.643,6.438-8.568,6.047-14.82c-0.287-4.603-2.596-4.705-2.778-4.705c-0.933,0.047-1.772-0.538-2.032-1.456L124.2,39.6
	c-3.563,1.064-11.603,2.934-24.157,2.934c-12.556,0-20.596-1.869-24.158-2.934l-5.961,21.196c-0.143,0.506-0.469,0.912-0.885,1.166
	h-0.001c-0.001,0.001-0.002,0.003-0.007,0.004c-0.001,0.001-0.002,0.002-0.003,0.002c-0.003,0.002-0.007,0.004-0.01,0.007
	c-0.001,0-0.001,0-0.001,0c-0.016,0.009-0.031,0.019-0.047,0.027H68.97c-0.002,0.002-0.005,0.003-0.006,0.003
	c-0.003,0.002-0.006,0.003-0.008,0.005c-0.002,0.001-0.003,0.003-0.007,0.004l0,0c-0.317,0.172-0.684,0.26-1.053,0.238
	c-0.392,0.009-2.506,0.277-2.783,4.705c-0.391,6.252,2.436,13.178,6.048,14.82l2.657,1.209c0.569,0.26,0.985,0.771,1.122,1.382
	c0.23,1.025,1.544,6.428,4.759,12.035C79.701,96.407,79.703,96.411,79.705,96.415L79.705,96.415z M99.758,12.805
	c-1.954,0-16.858,0.413-25.686,12.55c-5.576,7.667-6.059,18.082-5.49,25.438l4.021-14.301c0.155-0.549,0.537-1.006,1.05-1.256
	c0.511-0.251,1.106-0.269,1.636-0.053c0.078,0.032,8.454,3.351,24.754,3.351c16.299,0,24.675-3.318,24.757-3.352
	c0.527-0.215,1.124-0.194,1.634,0.057c0.511,0.25,0.894,0.706,1.048,1.253l4.016,14.28c0.563-7.359,0.077-17.771-5.484-25.417
	c-9.447-12.991-25.74-12.557-25.896-12.547c-0.049,0.002-0.098,0.002-0.146,0C99.96,12.807,99.887,12.805,99.758,12.805z
	 M154.806,183.165h-26.75c-1.104,0-2-0.896-2-2v-14.882c0-1.104,0.896-2,2-2h4.91c0.537-2.758,2.758-6.757,8.465-6.757
	s7.928,3.999,8.465,6.757h4.91c1.104,0,2,0.896,2,2v14.882C156.806,182.27,155.91,183.165,154.806,183.165z M130.056,179.165h22.75
	v-10.882h-22.75V179.165z M137.105,164.283h8.652c-0.433-1.194-1.533-2.757-4.326-2.757S137.537,163.089,137.105,164.283z"/>
<g>
</g>
<g>
</g>
<g>
</g>
<g>
</g>
<g>
</g>
<g>
</g>
<g>
</g>
<g>
</g>
<g>
</g>
<g>
</g>
<g>
</g>
<g>
</g>
<g>
</g>
<g>
</g>
<g>
</g>
</svg>
