<?xml version="1.0" encoding="iso-8859-1"?>
<!-- Generator: Adobe Illustrator 17.1.0, SVG Export Plug-In . SVG Version: 6.00 Build 0)  -->
<!DOCTYPE svg PUBLIC "-//W3C//DTD SVG 1.1//EN" "http://www.w3.org/Graphics/SVG/1.1/DTD/svg11.dtd">
<svg version="1.1" id="Capa_1" xmlns="http://www.w3.org/2000/svg" xmlns:xlink="http://www.w3.org/1999/xlink" x="0px" y="0px"
	 viewBox="0 0 198.166 198.166" style="enable-background:new 0 0 198.166 198.166;" xml:space="preserve">
<path d="M160.251,193.305h-24.447c-1.104,0-2-0.896-2-2v-4.892H27.754C12.45,186.413,0,173.962,0,158.658
	s12.45-27.755,27.754-27.755h139.64c14.763,0,26.772-12.01,26.772-26.772s-12.01-26.773-26.772-26.773H28.854
	C12.943,77.357,0,64.414,0,48.504S12.943,19.65,28.854,19.65h104.95v-2.269c0-3.465,2.818-6.283,6.283-6.283h28.111
	c0.043,0,0.085,0.001,0.127,0.004c3.08-3.805,7.787-6.241,13.053-6.241c9.257,0,16.788,7.531,16.788,16.789
	s-7.531,16.789-16.788,16.789c-5.267,0-9.974-2.437-13.054-6.242c-0.042,0.003-0.084,0.004-0.126,0.004h-17.719v3.731h16.109
	c1.104,0,2,0.896,2,2s-0.896,2-2,2h-18.109c-1.104,0-2-0.896-2-2v-5.731h-6.393c-3.465,0-6.283-2.818-6.283-6.283V23.65H28.854
	C15.149,23.65,4,34.8,4,48.504s11.149,24.854,24.854,24.854h138.54c16.968,0,30.772,13.805,30.772,30.773
	c0,16.968-13.805,30.772-30.772,30.772H27.754C14.656,134.903,4,145.56,4,158.658s10.656,23.755,23.754,23.755h106.05v-4.791
	c0-1.104,0.896-2,2-2h24.447c1.104,0,2,0.896,2,2v1.32h30.999c2.711,0,4.916,2.205,4.916,4.916v1.209
	c0,2.711-2.205,4.917-4.916,4.917h-30.999v1.32C162.251,192.409,161.355,193.305,160.251,193.305z M137.804,189.305h20.447v-9.683
	h-20.447V189.305z M186.5,185.984h6.75c0.505,0,0.916-0.411,0.916-0.917v-1.209c0-0.505-0.411-0.916-0.916-0.916h-6.75V185.984z
	 M170.198,185.984H182.5v-3.042h-12.302V185.984z M162.251,185.984h3.947v-3.042h-3.947V185.984z M181.378,8.861
	c-7.052,0-12.789,5.737-12.789,12.789s5.737,12.789,12.789,12.789s12.788-5.737,12.788-12.789S188.43,8.861,181.378,8.861z
	 M148.479,28.201h17.44c-0.856-2.014-1.331-4.228-1.331-6.551s0.475-4.537,1.331-6.552h-25.833c-1.259,0-2.283,1.024-2.283,2.283
	v8.536c0,1.259,1.024,2.283,2.283,2.283H148.479z"/>
<g>
</g>
<g>
</g>
<g>
</g>
<g>
</g>
<g>
</g>
<g>
</g>
<g>
</g>
<g>
</g>
<g>
</g>
<g>
</g>
<g>
</g>
<g>
</g>
<g>
</g>
<g>
</g>
<g>
</g>
</svg>
