<?xml version="1.0" encoding="iso-8859-1"?>
<!-- Generator: Adobe Illustrator 17.1.0, SVG Export Plug-In . SVG Version: 6.00 Build 0)  -->
<!DOCTYPE svg PUBLIC "-//W3C//DTD SVG 1.1//EN" "http://www.w3.org/Graphics/SVG/1.1/DTD/svg11.dtd">
<svg version="1.1" id="Capa_1" xmlns="http://www.w3.org/2000/svg" xmlns:xlink="http://www.w3.org/1999/xlink" x="0px" y="0px"
	 viewBox="0 0 200.417 200.417" style="enable-background:new 0 0 200.417 200.417;" xml:space="preserve">
<path d="M188.72,180.956c-0.849,0-1.621-0.542-1.896-1.369c-0.05-0.143-5.856-15.869-42.084-37.148
	c-32.296-18.97-66.194-19.584-74.048-19.442c-0.833,3.963-4.356,6.948-8.563,6.948h-7.58l6.484,38.288
	c0.264,1.555-0.169,3.138-1.187,4.342s-2.506,1.896-4.083,1.896H42.081c-2.617,0-4.833-1.873-5.27-4.453l-6.787-40.073h-9.873
	c-4.825,0-8.75-3.925-8.75-8.75v-3.773H6.482c-3.574,0-6.482-2.908-6.482-6.482V89.471c0-3.574,2.908-6.481,6.482-6.481h4.919
	v-3.773c0-4.825,3.925-8.75,8.75-8.75h41.978c4.207,0,7.729,2.983,8.563,6.946c7.858,0.13,41.791-0.494,74.048-19.44l0,0
	c36.228-21.279,42.034-37.005,42.088-37.161c0.321-0.922,1.263-1.486,2.225-1.321c0.962,0.163,1.669,0.989,1.669,1.965v55.761
	c5.442,0.582,9.695,5.201,9.695,10.795v24.389c0,5.594-4.253,10.214-9.695,10.795v55.761c0,0.981-0.712,1.817-1.681,1.974
	C188.934,180.948,188.826,180.956,188.72,180.956z M72.12,118.989c10.417,0,43.304,1.592,74.645,20
	c23.803,13.981,34.925,25.674,39.957,32.592V28.829c-5.032,6.917-16.154,18.611-39.957,32.591l-1.013-1.725l1.013,1.725
	c-32.717,19.217-67.121,20.114-75.887,19.993v4.411c9.466,0.466,53.184,1.583,82.76-15.187c0.962-0.546,2.181-0.207,2.726,0.753
	s0.208,2.181-0.753,2.726C124.929,91.515,81.165,90.382,70.878,89.84v29.157C71.248,118.992,71.662,118.989,72.12,118.989z
	 M34.081,129.944l6.673,39.405c0.11,0.649,0.668,1.121,1.326,1.121h13.683c0.543,0,0.876-0.299,1.027-0.477
	c0.151-0.178,0.39-0.557,0.299-1.093l-6.597-38.956H34.081z M52.182,125.944h9.947c2.619,0,4.75-2.131,4.75-4.75V79.216
	c0-2.619-2.131-4.75-4.75-4.75H20.151c-2.619,0-4.75,2.131-4.75,4.75v41.978c0,2.619,2.131,4.75,4.75,4.75H52.182z M190.722,81.253
	v37.905c3.229-0.553,5.695-3.373,5.695-6.758V88.011C196.417,84.626,193.951,81.806,190.722,81.253z M6.482,86.989
	C5.113,86.989,4,88.102,4,89.471v21.469c0,1.369,1.113,2.482,2.482,2.482h4.919V86.989H6.482z M59.109,96.328H39
	c-1.104,0-2-0.896-2-2s0.896-2,2-2h20.109c1.104,0,2,0.896,2,2S60.213,96.328,59.109,96.328z M26.454,96.328
	c-3.678,0-6.669-2.992-6.669-6.669s2.992-6.669,6.669-6.669s6.669,2.992,6.669,6.669S30.131,96.328,26.454,96.328z M26.454,86.989
	c-1.472,0-2.669,1.197-2.669,2.669c0,1.472,1.197,2.669,2.669,2.669s2.669-1.198,2.669-2.669
	C29.123,88.186,27.926,86.989,26.454,86.989z M59.109,86.989H39c-1.104,0-2-0.896-2-2s0.896-2,2-2h20.109c1.104,0,2,0.896,2,2
	S60.213,86.989,59.109,86.989z"/>
<g>
</g>
<g>
</g>
<g>
</g>
<g>
</g>
<g>
</g>
<g>
</g>
<g>
</g>
<g>
</g>
<g>
</g>
<g>
</g>
<g>
</g>
<g>
</g>
<g>
</g>
<g>
</g>
<g>
</g>
</svg>
