<?xml version="1.0" encoding="iso-8859-1"?>
<!-- Generator: Adobe Illustrator 17.1.0, SVG Export Plug-In . SVG Version: 6.00 Build 0)  -->
<!DOCTYPE svg PUBLIC "-//W3C//DTD SVG 1.1//EN" "http://www.w3.org/Graphics/SVG/1.1/DTD/svg11.dtd">
<svg version="1.1" id="Capa_1" xmlns="http://www.w3.org/2000/svg" xmlns:xlink="http://www.w3.org/1999/xlink" x="0px" y="0px"
	 viewBox="0 0 179.89 179.89" style="enable-background:new 0 0 179.89 179.89;" xml:space="preserve">
<path d="M140.278,179.89H28.811c-13.524,0-24.527-11.003-24.527-24.527V60.99c0-13.525,11.003-24.528,24.527-24.528h14.27
	L128.04,0.16c0.519-0.221,1.109-0.214,1.622,0.022c0.514,0.236,0.903,0.679,1.072,1.218l11.025,35.106
	c12.837,0.769,23.045,11.456,23.045,24.483V84.4c6.142,1.16,10.802,6.566,10.802,13.04v21.474c0,6.474-4.66,11.88-10.802,13.04
	v23.41C164.805,168.887,153.802,179.89,140.278,179.89z M28.811,40.463c-11.318,0-20.527,9.208-20.527,20.528v94.373
	c0,11.318,9.209,20.527,20.527,20.527h111.467c11.318,0,20.527-9.208,20.527-20.527v-23.18h-57.621
	c-7.317,0-13.271-5.953-13.271-13.27V97.44c0-7.317,5.953-13.27,13.271-13.27h57.621V60.99c0-11.304-9.186-20.504-20.484-20.527
	c-0.029,0.001-0.059,0.001-0.09,0h-8.87c-0.027,0.001-0.059,0.001-0.092,0H76.603c-0.029,0.001-0.062,0.001-0.091,0H43.536
	c-0.031,0.001-0.062,0.001-0.092,0H28.811z M103.465,128.184h58.4c0.265,0,0.524-0.021,0.782-0.041
	c0.146-0.012,0.287-0.007,0.427,0.012c4.768-0.377,8.532-4.377,8.532-9.241V97.44c0-4.863-3.765-8.864-8.532-9.241
	c-0.14,0.018-0.281,0.024-0.427,0.012c-0.258-0.02-0.518-0.041-0.782-0.041h-58.044c-5.418,0-9.825,4.407-9.825,9.825v20.721
	C93.996,123.936,98.244,128.184,103.465,128.184z M132.792,36.463h4.761L127.58,4.707L53.26,36.463h22.914l48.424-19.254
	c0.521-0.207,1.101-0.187,1.604,0.055s0.883,0.681,1.047,1.214L132.792,36.463z M87,36.463h41.606l-4.543-14.737L87,36.463z
	 M114.8,119.647c-6.324,0-11.47-5.146-11.47-11.47c0-6.325,5.146-11.471,11.47-11.471c6.325,0,11.471,5.146,11.471,11.471
	C126.271,114.502,121.125,119.647,114.8,119.647z M114.8,100.706c-4.119,0-7.47,3.352-7.47,7.471s3.351,7.47,7.47,7.47
	s7.471-3.351,7.471-7.47S118.919,100.706,114.8,100.706z"/>
<g>
</g>
<g>
</g>
<g>
</g>
<g>
</g>
<g>
</g>
<g>
</g>
<g>
</g>
<g>
</g>
<g>
</g>
<g>
</g>
<g>
</g>
<g>
</g>
<g>
</g>
<g>
</g>
<g>
</g>
</svg>
