<?xml version="1.0" encoding="iso-8859-1"?>
<!-- Generator: Adobe Illustrator 17.1.0, SVG Export Plug-In . SVG Version: 6.00 Build 0)  -->
<!DOCTYPE svg PUBLIC "-//W3C//DTD SVG 1.1//EN" "http://www.w3.org/Graphics/SVG/1.1/DTD/svg11.dtd">
<svg version="1.1" id="Capa_1" xmlns="http://www.w3.org/2000/svg" xmlns:xlink="http://www.w3.org/1999/xlink" x="0px" y="0px"
	 viewBox="0 0 218.406 218.406" style="enable-background:new 0 0 218.406 218.406;" xml:space="preserve">
<path d="M109.291,218.406c-0.023,0-0.063,0-0.088,0c-0.692,0-17.122-0.089-31.841-7.857c-12.916-6.817-22.814-16.827-32.095-32.458
	c-7.194-12.116-7.843-33.547-7.901-37.683c-2.337-3.202-13.251-18.98-13.251-34.386c0-14.59,8.796-23.174,11.869-25.727
	c-0.773-5.052-2.806-24.582,7.16-47.718C50.039,16.567,71.494,7.592,88.279,2.882c13.689-3.843,28.16-3.842,41.848,0
	c16.785,4.71,38.24,13.686,45.137,29.696c9.966,23.136,7.934,42.666,7.161,47.718c3.072,2.553,11.868,11.137,11.868,25.727
	c0,15.125-10.425,30.488-13.162,34.262c-0.047,3.813-0.634,25.564-7.903,37.807c-9.28,15.63-19.179,25.641-32.095,32.458
	C126.414,218.317,109.983,218.406,109.291,218.406z M109.27,214.403c0.028,0,0.048,0.003,0.101,0.006
	c0.078-0.003,16.076-0.104,29.894-7.397c12.227-6.454,21.641-16.003,30.522-30.964c6.079-10.238,7.129-28.611,7.31-34.466
	c-2.897,0.502-8.084,1.993-11.633,6.398c-1.461,1.813-2.835,3.788-4.163,5.696c-4.12,5.922-8.013,11.515-14.443,12.868l-1.389,0.295
	c-2.815,0.601-4.987,1.064-6.896,1.064c-0.03,0-0.059,0-0.089,0c-2.634,0.001-4.765-0.883-7.39-3.508
	c-0.473-0.472-0.937-0.944-1.396-1.412c-3.325-3.384-6.196-6.307-10.025-7.072c-1.787-0.357-3.725-0.403-5.413-0.328
	c-2.561,0.121-4.535,0.52-4.567,0.526c-0.266,0.055-0.541,0.055-0.805,0c-0.009-0.002-0.155-0.031-0.413-0.075
	c-1.335-0.229-5.835-0.889-9.656-0.123c-3.478,0.695-6.165,3.169-9.119,6.152c-0.299,0.301-0.6,0.608-0.905,0.919
	c-0.46,0.468-0.924,0.94-1.397,1.413c-4.526,4.528-7.585,3.873-14.286,2.443l-1.388-0.295c-6.431-1.354-10.323-6.946-14.443-12.868
	c-1.328-1.909-2.702-3.883-4.163-5.696l0,0c-0.014-0.018-0.028-0.035-0.042-0.052c-0.001-0.003-0.004-0.007-0.006-0.009
	c-0.002-0.003-0.005-0.006-0.007-0.009c0,0,0,0,0,0c-1.583-1.941-3.648-3.508-6.14-4.655c-0.018-0.008-0.036-0.017-0.053-0.025
	c-2.077-0.947-4.059-1.424-5.471-1.663c0.181,5.841,1.231,24.244,7.309,34.48c8.883,14.961,18.296,24.511,30.523,30.964
	c13.852,7.31,29.814,7.395,29.974,7.395C109.234,214.404,109.254,214.403,109.27,214.403z M60.355,151.092
	c0.069,0.101,0.139,0.2,0.208,0.3c3.655,5.252,7.106,10.212,11.984,11.239l1.399,0.297c6.468,1.381,7.634,1.629,10.623-1.359
	c0.464-0.465,0.921-0.929,1.373-1.389c3.629-3.694,7.058-7.184,12.093-8.189c0.076-0.016,0.152-0.03,0.229-0.045
	c4.527-0.848,9.484-0.104,10.984,0.163c0.859-0.151,2.869-0.461,5.278-0.537c1.869-0.066,3.995,0.013,6.021,0.419
	c5.035,1.006,8.464,4.496,12.095,8.191c0.451,0.459,0.906,0.923,1.37,1.387c1.679,1.678,2.782,2.335,4.57,2.346
	c1.387-0.009,3.187-0.393,5.965-0.986l1.399-0.297c4.878-1.027,8.33-5.988,11.985-11.24c1.367-1.965,2.78-3.997,4.329-5.92
	c1.732-2.149,3.914-3.923,6.497-5.284l0.818-48.108c-3.024,0.684-6.481,0.405-10.281-1.495c-2.962-1.481-5.801-3.219-8.807-5.058
	c-9.884-6.048-21.086-12.901-41.294-12.994c-20.189,0.093-31.392,6.946-41.275,12.993c-3.006,1.84-5.846,3.577-8.808,5.059
	c-3.763,1.88-7.189,2.173-10.192,1.515l0.818,48.071c2.26,1.194,4.554,2.892,6.496,5.302l0,0c1.324,1.645,2.55,3.367,3.732,5.061
	c0.01,0.015,0.021,0.029,0.03,0.044c0.028,0.041,0.057,0.081,0.084,0.121c0.006,0.01,0.013,0.019,0.02,0.028
	c0.024,0.035,0.048,0.069,0.072,0.104c0.016,0.023,0.032,0.046,0.047,0.068C60.264,150.962,60.31,151.027,60.355,151.092z
	 M173.602,90.577l-0.816,47.941c1.752-0.563,3.314-0.859,4.459-1.015c0.063-4.034,0.278-13.384,1.005-24.022
	c0.624-9.155,0.433-20.265,0.225-26.881c-0.032,0.034-0.064,0.07-0.097,0.104c-0.039,0.048-0.078,0.095-0.117,0.143
	C176.738,88.701,174.832,89.919,173.602,90.577z M41.249,137.492c1.133,0.149,2.698,0.439,4.459,0.998l-0.816-47.913
	c-1.067-0.571-2.645-1.564-4.039-3.029c-0.289-0.279-0.568-0.565-0.836-0.854c-0.208,6.628-0.394,17.676,0.228,26.788
	C40.97,124.11,41.186,133.451,41.249,137.492z M36.044,85.801c-3.303,3.614-7.93,10.426-7.93,20.222
	c0,9.986,5.263,20.511,9.033,26.769c-0.128-4.763-0.384-11.579-0.893-19.038C35.597,104.122,35.825,92.406,36.044,85.801z
	 M182.454,85.901c0.217,6.624,0.439,18.271-0.214,27.852l0,0c-0.504,7.391-0.76,14.146-0.89,18.9
	c3.76-6.258,8.942-16.687,8.942-26.631C190.293,96.317,185.751,89.542,182.454,85.901z M109.194,68.531
	c21.343,0.098,33.052,7.262,43.382,13.582c2.931,1.793,5.699,3.487,8.508,4.892c6.615,3.31,11.501,0.09,14.361-3.033
	c1.023-1.271,1.865-2.456,2.412-3.26c-3.229-5.439-22.154-33.499-68.654-33.668C62.785,47.213,43.918,75.029,40.588,80.64
	c0.591,0.873,1.556,2.233,2.735,3.669c0.041,0.05,0.083,0.1,0.125,0.148c2.92,2.946,7.638,5.665,13.873,2.548
	c2.809-1.404,5.578-3.099,8.51-4.893C76.161,75.792,87.869,68.629,109.194,68.531z M109.195,43.044c0.005,0,0.01,0,0.015,0
	c28.058,0.1,46.304,10.034,56.669,18.35c6.313,5.064,10.527,10.105,13.051,13.635c0.506-7.989,0.146-23.487-7.341-40.868
	c-6.272-14.562-26.597-22.952-42.543-27.427c-12.983-3.645-26.706-3.645-39.687,0C73.413,11.208,53.089,19.599,46.816,34.16
	c-7.486,17.379-7.847,32.877-7.34,40.867c2.523-3.529,6.738-8.569,13.05-13.634C62.892,53.078,81.138,43.143,109.195,43.044z
	 M121.76,186.457H96.822c-4.347,0-6.633-1.905-7.785-3.504c-0.999-1.386-1.529-3.139-1.529-4.867c0-0.852,0.128-1.697,0.392-2.49
	c0.997-2.989,3.513-3.561,6.996-4.353c1.852-0.421,4.157-0.944,7.114-1.93c0.426-0.142,0.818-0.281,1.181-0.417
	c2.474-0.928,3.532-1.702,3.972-2.136c0.198-0.196,0.269-0.322,0.288-0.36c0.008-0.018,0.017-0.034,0.026-0.052
	c0.327-0.705,1.034-1.158,1.814-1.158c0.795,0,1.514,0.47,1.833,1.198c0.023,0.053,0.624,1.316,5.45,2.925
	c2.956,0.985,5.261,1.509,7.113,1.93c3.482,0.792,5.999,1.363,6.996,4.353c0.8,2.402,0.354,5.29-1.138,7.358
	C128.392,184.552,126.107,186.457,121.76,186.457z M91.505,178.11c0,0.819,0.221,1.732,0.777,2.504
	c0.869,1.206,2.438,1.843,4.54,1.843h24.85c2.102,0,3.671-0.638,4.54-1.843c0.868-1.205,0.921-2.753,0.587-3.753v-0.001
	c-0.247-0.741-0.781-0.966-4.087-1.717c-1.836-0.416-4.35-0.987-7.493-2.035c-2.644-0.882-4.623-1.834-5.971-2.878
	c-0.458,0.354-0.989,0.698-1.593,1.032l0,0.001c-0.002,0.001-0.005,0.003-0.008,0.004l0,0c-0.003,0.002-0.005,0.003-0.008,0.005
	c0,0-0.001,0-0.001,0c-0.002,0.002-0.005,0.003-0.007,0.005h-0.001c-0.002,0.002-0.005,0.003-0.007,0.004
	c0.001,0.001-0.005,0.004-0.008,0.005c-0.002,0.002-0.006,0.003-0.009,0.005c-0.003,0.004-0.005,0.003-0.008,0.005
	c-0.001,0-0.005,0.002-0.008,0.004c-0.002,0.003-0.005,0.004-0.009,0.005c-0.002,0.002-0.005,0.003-0.008,0.005
	c-0.001,0.001-0.005,0.004-0.008,0.005c-0.003,0-0.006,0.004-0.009,0.004c-0.003,0.003-0.006,0.004-0.009,0.005
	c-0.001,0.004-0.005,0.004-0.008,0.005c-0.004,0.003-0.006,0.003-0.009,0.005c-0.003,0.003-0.005,0.004-0.009,0.005
	c-0.002,0.002-0.005,0.004-0.009,0.005h0c-1.15,0.621-2.559,1.207-4.232,1.766l0,0h0c-2.872,0.957-5.218,1.517-7.001,1.924
	c-0.016,0.004-0.032,0.008-0.048,0.011c-0.151,0.035-0.299,0.068-0.442,0.101c-3.306,0.751-3.84,0.976-4.087,1.718
	C91.575,177.221,91.505,177.65,91.505,178.11z M134.409,146.983c-9.612,0-17.55-7.307-18.551-16.657h-13.31
	c-1.001,9.351-8.939,16.657-18.552,16.657c-10.288,0-18.658-8.369-18.658-18.657s8.37-18.658,18.658-18.658
	c9.612,0,17.551,7.307,18.552,16.658h13.31c1.001-9.352,8.938-16.658,18.551-16.658c10.288,0,18.658,8.37,18.658,18.658
	S144.697,146.983,134.409,146.983z M134.409,113.668c-8.082,0-14.657,6.575-14.657,14.658c0,8.082,6.575,14.657,14.657,14.657
	c8.083,0,14.658-6.575,14.658-14.657C149.067,120.243,142.492,113.668,134.409,113.668z M83.996,113.668
	c-8.083,0-14.658,6.575-14.658,14.658c0,8.082,6.576,14.657,14.658,14.657s14.658-6.575,14.658-14.657
	C98.654,120.243,92.079,113.668,83.996,113.668z"/>
<g>
</g>
<g>
</g>
<g>
</g>
<g>
</g>
<g>
</g>
<g>
</g>
<g>
</g>
<g>
</g>
<g>
</g>
<g>
</g>
<g>
</g>
<g>
</g>
<g>
</g>
<g>
</g>
<g>
</g>
</svg>
