<?xml version="1.0" encoding="iso-8859-1"?>
<!-- Generator: Adobe Illustrator 17.1.0, SVG Export Plug-In . SVG Version: 6.00 Build 0)  -->
<!DOCTYPE svg PUBLIC "-//W3C//DTD SVG 1.1//EN" "http://www.w3.org/Graphics/SVG/1.1/DTD/svg11.dtd">
<svg version="1.1" id="Capa_1" xmlns="http://www.w3.org/2000/svg" xmlns:xlink="http://www.w3.org/1999/xlink" x="0px" y="0px"
	 viewBox="0 0 199.917 199.917" style="enable-background:new 0 0 199.917 199.917;" xml:space="preserve">
<path d="M65.066,199.917c-0.125,0-0.252-0.012-0.38-0.037c-1.084-0.208-1.795-1.256-1.586-2.341l3.494-18.188L32.45,199.636
	c-0.95,0.565-2.177,0.252-2.741-0.698c-0.564-0.95-0.252-2.177,0.698-2.741l32.724-19.442c-0.352-0.36-0.568-0.853-0.568-1.396
	v-19.975c0-1.104,0.896-2,2-2h2.833V66.865h-6.5c-1.104,0-2-0.896-2-2v-6.366h-6.208c-5.445,0-9.875-4.43-9.875-9.875V30.746
	c0-5.445,4.43-9.875,9.875-9.875h42.203l26.72-20.459c0.874-0.67,2.132-0.506,2.804,0.372c0.672,0.877,0.505,2.132-0.372,2.804
	l-20.985,16.068l23.842-3.789c0.577-0.091,1.166,0.074,1.612,0.454c0.444,0.38,0.701,0.936,0.701,1.521v43.686
	c0,0.585-0.257,1.141-0.701,1.521c-0.446,0.38-1.035,0.546-1.612,0.454l-23.601-3.75l20.722,15.402
	c0.887,0.659,1.07,1.912,0.412,2.798s-1.91,1.073-2.799,0.412L94.907,58.499H83.064v6.366c0,1.104-0.896,2-2,2h-9.667v86.519h2.833
	c1.104,0,2,0.896,2,2v19.975c0,0.543-0.216,1.036-0.568,1.396l32.725,19.442c0.949,0.564,1.262,1.791,0.698,2.741
	c-0.565,0.95-1.793,1.262-2.741,0.698l-35.52-21.103l-3.796,19.761C66.844,199.251,66.006,199.917,65.066,199.917z M69.433,173.359
	h2.797v-15.975h-5.667v15.975h2.793C69.381,173.359,69.407,173.359,69.433,173.359z M62.897,62.865h16.167v-4.366H62.897V62.865z
	 M97.569,54.792l27.644,4.393v-39l-27.644,4.393V54.792z M81.064,54.499h12.506V24.871H52.689c-3.239,0-5.875,2.636-5.875,5.875
	v17.878c0,3.239,2.636,5.875,5.875,5.875H81.064z M162.221,77.518c-0.3,0-0.605-0.068-0.893-0.211l-21.306-10.652
	c-0.988-0.494-1.389-1.695-0.895-2.684c0.493-0.987,1.693-1.39,2.684-0.895l21.306,10.652c0.988,0.494,1.389,1.695,0.895,2.684
	C163.661,77.113,162.955,77.518,162.221,77.518z M168.488,41.685h-27.571c-1.104,0-2-0.896-2-2s0.896-2,2-2h27.571
	c1.104,0,2,0.896,2,2S169.593,41.685,168.488,41.685z M140.919,16.506c-0.734,0-1.44-0.405-1.791-1.106
	c-0.494-0.988-0.094-2.189,0.895-2.684l21.306-10.652c0.99-0.495,2.189-0.092,2.684,0.895c0.494,0.988,0.094,2.189-0.895,2.684
	l-21.306,10.652C141.524,16.438,141.219,16.506,140.919,16.506z"/>
<g>
</g>
<g>
</g>
<g>
</g>
<g>
</g>
<g>
</g>
<g>
</g>
<g>
</g>
<g>
</g>
<g>
</g>
<g>
</g>
<g>
</g>
<g>
</g>
<g>
</g>
<g>
</g>
<g>
</g>
</svg>
