<?xml version="1.0" encoding="iso-8859-1"?>
<!-- Generator: Adobe Illustrator 17.1.0, SVG Export Plug-In . SVG Version: 6.00 Build 0)  -->
<!DOCTYPE svg PUBLIC "-//W3C//DTD SVG 1.1//EN" "http://www.w3.org/Graphics/SVG/1.1/DTD/svg11.dtd">
<svg version="1.1" id="Capa_1" xmlns="http://www.w3.org/2000/svg" xmlns:xlink="http://www.w3.org/1999/xlink" x="0px" y="0px"
	 viewBox="0 0 184.936 184.936" style="enable-background:new 0 0 184.936 184.936;" xml:space="preserve">
<path d="M182.936,183.385h-34.375c-1.104,0-2-0.896-2-2v-9.212c0-6.288,5.116-11.404,11.403-11.404h15.568
	c6.288,0,11.403,5.116,11.403,11.404v9.212C184.936,182.489,184.041,183.385,182.936,183.385z M150.562,179.385h30.375v-7.212
	c0-4.083-3.321-7.404-7.403-7.404h-15.568c-4.082,0-7.403,3.321-7.403,7.404V179.385z M134.082,183.385H99.708c-1.104,0-2-0.896-2-2
	v-9.212c0-6.288,5.116-11.404,11.404-11.404h15.567c6.288,0,11.403,5.116,11.403,11.404v9.212
	C136.082,182.489,135.187,183.385,134.082,183.385z M101.708,179.385h30.375v-7.212c0-4.083-3.321-7.404-7.403-7.404h-15.567
	c-4.083,0-7.404,3.321-7.404,7.404V179.385z M85.228,183.385H50.854c-1.104,0-2-0.896-2-2v-9.212
	c0-6.288,5.116-11.404,11.403-11.404h15.567c6.288,0,11.403,5.116,11.403,11.404v9.212
	C87.228,182.489,86.333,183.385,85.228,183.385z M52.854,179.385h30.374v-7.212c0-4.083-3.321-7.404-7.403-7.404H60.257
	c-4.082,0-7.403,3.321-7.403,7.404V179.385z M36.375,183.385H2c-1.104,0-2-0.896-2-2v-9.212c0-6.288,5.116-11.404,11.403-11.404
	h15.568c6.288,0,11.403,5.116,11.403,11.404v9.212C38.375,182.489,37.479,183.385,36.375,183.385z M4,179.385h30.375v-7.212
	c0-4.083-3.321-7.404-7.403-7.404H11.403c-4.082,0-7.403,3.321-7.403,7.404V179.385z M158.509,153.991h-34.374c-1.104,0-2-0.896-2-2
	v-9.212c0-6.288,5.116-11.403,11.403-11.403h15.568c6.288,0,11.403,5.116,11.403,11.403v9.212
	C160.509,153.095,159.613,153.991,158.509,153.991z M126.135,149.991h30.374v-7.212c0-4.082-3.321-7.403-7.403-7.403h-15.568
	c-4.082,0-7.403,3.321-7.403,7.403V149.991z M109.655,153.991H75.281c-1.104,0-2-0.896-2-2v-9.212
	c0-6.288,5.116-11.403,11.403-11.403h15.568c6.288,0,11.403,5.116,11.403,11.403v9.212
	C111.655,153.095,110.76,153.991,109.655,153.991z M77.281,149.991h30.375v-7.212c0-4.082-3.321-7.403-7.403-7.403H84.684
	c-4.082,0-7.403,3.321-7.403,7.403V149.991z M60.801,153.991H26.427c-1.104,0-2-0.896-2-2v-9.212
	c0-6.288,5.116-11.403,11.403-11.403h15.568c6.288,0,11.403,5.116,11.403,11.403v9.212
	C62.801,153.095,61.906,153.991,60.801,153.991z M28.427,149.991h30.375v-7.212c0-4.082-3.321-7.403-7.403-7.403H35.83
	c-4.082,0-7.403,3.321-7.403,7.403V149.991z M182.936,113.33H2c-1.104,0-2-0.896-2-2V3.552c0-1.104,0.896-2,2-2h180.936
	c1.104,0,2,0.896,2,2v10.163c0,0.028,0,0.056,0,0.084v97.531C184.936,112.434,184.041,113.33,182.936,113.33z M94.468,109.33h86.468
	V59.44h-47.978c-1.013,20.767-17.723,37.477-38.49,38.49V109.33z M4,109.33h86.468V97.93c-20.767-1.013-37.478-17.723-38.49-38.49H4
	V109.33z M55.983,59.44C56.99,77.998,71.91,92.918,90.468,93.925v-1.718C72.856,91.205,58.704,77.052,57.701,59.44H55.983z
	 M94.468,92.207v1.718c18.558-1.006,33.478-15.927,34.484-34.484h-1.718C126.232,77.052,112.08,91.205,94.468,92.207z
	 M92.468,26.617c-16.996,0-30.824,13.827-30.824,30.823s13.828,30.823,30.824,30.823c16.996,0,30.823-13.827,30.823-30.823
	S109.464,26.617,92.468,26.617z M132.958,55.44h47.978V16.984l-50.884,25.262C131.719,46.354,132.731,50.795,132.958,55.44z
	 M127.234,55.44h1.718c-0.217-4.007-1.083-7.846-2.495-11.411l-1.542,0.766C126.218,48.126,127.021,51.706,127.234,55.44z
	 M55.983,55.44h1.718c1.002-17.612,15.155-31.764,32.767-32.767v-1.718C71.91,21.962,56.99,36.883,55.983,55.44z M4,55.44h47.978
	c1.013-20.767,17.723-37.477,38.49-38.49V5.552H4V55.44z M94.468,22.674c12.478,0.71,23.219,8.02,28.777,18.485l1.537-0.763
	c-5.84-11.029-17.164-18.727-30.314-19.44V22.674z M94.468,16.951c14.718,0.718,27.398,9.322,33.897,21.667l52.57-26.1V5.552H94.468
	V16.951z M102.511,73.484H82.425c-0.892,0-1.676-0.591-1.922-1.448c-0.246-0.857,0.105-1.774,0.861-2.248l11.158-6.985
	c5.002-3.131,7.989-8.524,7.989-14.426c0-4.435-3.608-8.043-8.042-8.043c-4.435,0-8.043,3.608-8.043,8.043v0.735
	c0,1.104-0.896,2-2,2s-2-0.896-2-2v-0.735c0-6.641,5.402-12.043,12.043-12.043s12.043,5.402,12.043,12.043
	c0,7.289-3.688,13.95-9.867,17.817l-5.255,3.29h13.122c1.104,0,2,0.896,2,2S103.615,73.484,102.511,73.484z"/>
<g>
</g>
<g>
</g>
<g>
</g>
<g>
</g>
<g>
</g>
<g>
</g>
<g>
</g>
<g>
</g>
<g>
</g>
<g>
</g>
<g>
</g>
<g>
</g>
<g>
</g>
<g>
</g>
<g>
</g>
</svg>
