<?xml version="1.0" encoding="iso-8859-1"?>
<!-- Generator: Adobe Illustrator 17.1.0, SVG Export Plug-In . SVG Version: 6.00 Build 0)  -->
<!DOCTYPE svg PUBLIC "-//W3C//DTD SVG 1.1//EN" "http://www.w3.org/Graphics/SVG/1.1/DTD/svg11.dtd">
<svg version="1.1" id="Capa_1" xmlns="http://www.w3.org/2000/svg" xmlns:xlink="http://www.w3.org/1999/xlink" x="0px" y="0px"
	 viewBox="0 0 207.5 207.5" style="enable-background:new 0 0 207.5 207.5;" xml:space="preserve">
<path d="M103.75,207.5C46.542,207.5,0,160.958,0,103.75S46.542,0,103.75,0S207.5,46.542,207.5,103.75S160.958,207.5,103.75,207.5z
	 M103.75,4C48.748,4,4,48.748,4,103.75s44.748,99.75,99.75,99.75c55.002,0,99.75-44.748,99.75-99.75S158.752,4,103.75,4z
	 M103.75,192.544c-20.802,0-41.032-7.346-56.963-20.684c-0.431-0.36-0.689-0.884-0.714-1.445c-0.025-0.561,0.187-1.105,0.584-1.502
	L168.913,46.656c0.396-0.396,0.947-0.598,1.502-0.584c0.561,0.024,1.085,0.284,1.445,0.714
	c13.339,15.931,20.685,36.161,20.685,56.964C192.545,152.711,152.712,192.544,103.75,192.544z M51.05,170.176
	c14.939,11.86,33.566,18.368,52.7,18.368c46.756,0,84.795-38.038,84.795-84.794c0-19.135-6.508-37.762-18.369-52.7l-18.538,18.538
	h7.28c5.068,0,9.192,4.124,9.192,9.192v31.121c0,5.068-4.124,9.191-9.192,9.191h-54.075c-0.734,0-1.376-0.396-1.724-0.985
	l-5.579,5.578v19.381c0,8.509-6.922,15.431-15.431,15.431H64.5c-0.548,0-1.101-0.032-1.673-0.098L51.05,170.176z M66.729,154.497
	h15.38c6.303,0,11.431-5.128,11.431-11.431v-15.381L66.729,154.497z M106.843,115.093h52.075c2.863,0,5.192-2.329,5.192-5.191V78.78
	c0-2.863-2.329-5.192-5.192-5.192h-11.28l-40.795,40.796V115.093z M37.173,161.43c-0.029,0-0.059-0.001-0.088-0.002
	c-0.561-0.024-1.085-0.284-1.445-0.714c-13.338-15.933-20.684-36.162-20.684-56.964c0-48.962,39.833-88.795,88.794-88.795
	c20.803,0,41.032,7.346,56.964,20.684c0.43,0.36,0.689,0.885,0.714,1.445s-0.188,1.105-0.584,1.502L38.587,160.844
	C38.211,161.22,37.702,161.43,37.173,161.43z M103.75,18.955c-46.756,0-84.794,38.039-84.794,84.795
	c0,19.134,6.508,37.761,18.368,52.7l11.832-11.832c-0.058-0.534-0.086-1.047-0.086-1.552V70.274c0-8.509,6.922-15.432,15.431-15.432
	h17.609c8.509,0,15.431,6.923,15.431,15.432v6.686h5.302v-5.372c0-1.104,0.896-2,2-2h19.344l32.264-32.265
	C141.512,25.463,122.884,18.955,103.75,18.955z M64.5,58.843c-6.303,0-11.431,5.128-11.431,11.432v70.431l20.24-20.24
	c-0.001,0-0.002,0-0.004,0c-3.314,0-6.011-2.697-6.011-6.012s2.697-6.011,6.011-6.011s6.011,2.696,6.011,6.011
	c0,0.002,0,0.003,0,0.005l14.225-14.225V70.274c0-6.304-5.128-11.432-11.431-11.432H64.5z M73.305,112.442
	c-1.109,0-2.011,0.902-2.011,2.011c0,1.109,0.902,2.012,2.011,2.012s2.011-0.902,2.011-2.012
	C75.316,113.345,74.414,112.442,73.305,112.442z M97.541,80.96v15.272l5.205-5.204V80.96H97.541z M106.843,73.588v13.343
	l13.343-13.343H106.843z M73.305,103.077c-9.233,0-16.745-7.512-16.745-16.744c0-9.233,7.512-16.745,16.745-16.745
	S90.049,77.1,90.049,86.333C90.049,95.565,82.538,103.077,73.305,103.077z M73.305,73.588c-7.027,0-12.745,5.718-12.745,12.745
	s5.717,12.744,12.745,12.744s12.745-5.717,12.745-12.744S80.332,73.588,73.305,73.588z M73.305,97.184
	c-5.983,0-10.852-4.867-10.852-10.851s4.868-10.852,10.852-10.852s10.852,4.868,10.852,10.852S79.288,97.184,73.305,97.184z
	 M73.305,79.481c-3.778,0-6.852,3.073-6.852,6.852c0,3.777,3.074,6.851,6.852,6.851s6.852-3.073,6.852-6.851
	C80.156,82.555,77.083,79.481,73.305,79.481z"/>
<g>
</g>
<g>
</g>
<g>
</g>
<g>
</g>
<g>
</g>
<g>
</g>
<g>
</g>
<g>
</g>
<g>
</g>
<g>
</g>
<g>
</g>
<g>
</g>
<g>
</g>
<g>
</g>
<g>
</g>
</svg>
