<?xml version="1.0" encoding="iso-8859-1"?>
<!-- Generator: Adobe Illustrator 17.1.0, SVG Export Plug-In . SVG Version: 6.00 Build 0)  -->
<!DOCTYPE svg PUBLIC "-//W3C//DTD SVG 1.1//EN" "http://www.w3.org/Graphics/SVG/1.1/DTD/svg11.dtd">
<svg version="1.1" id="Capa_1" xmlns="http://www.w3.org/2000/svg" xmlns:xlink="http://www.w3.org/1999/xlink" x="0px" y="0px"
	 viewBox="0 0 210.162 210.162" style="enable-background:new 0 0 210.162 210.162;" xml:space="preserve">
<path d="M208.162,190.215H2c-1.104,0-2-0.896-2-2V21.947c0-1.104,0.896-2,2-2h206.162c1.104,0,2,0.896,2,2v166.268
	C210.162,189.319,209.267,190.215,208.162,190.215z M4,186.215h202.162V23.947H4V186.215z M174.992,175.265
	c-8.747,0-15.863-7.116-15.863-15.862c0-5.042,2.364-9.543,6.043-12.45h-14.047c-11.794,12.962-28.523,20.378-46.043,20.378
	c-17.521,0-34.25-7.416-46.044-20.378H44.99c3.679,2.907,6.043,7.408,6.043,12.45c0,8.746-7.116,15.862-15.862,15.862
	s-15.863-7.116-15.863-15.862c0-5.042,2.364-9.543,6.043-12.45h-3.979c-1.104,0-2-0.896-2-2V118.8c0-1.104,0.896-2,2-2h22.582
	c-0.746-3.879-1.123-7.81-1.123-11.719c0-3.908,0.377-7.839,1.123-11.718H21.372c-1.104,0-2-0.896-2-2V65.21c0-1.104,0.896-2,2-2
	h3.979c-3.678-2.907-6.043-7.407-6.043-12.449c0-8.747,7.116-15.863,15.863-15.863s15.862,7.116,15.862,15.863
	c0,5.042-2.365,9.542-6.042,12.449h14.047c11.795-12.962,28.524-20.378,46.044-20.378c17.52,0,34.249,7.416,46.043,20.378h14.047
	c-3.678-2.907-6.043-7.407-6.043-12.449c0-8.747,7.116-15.863,15.863-15.863s15.862,7.116,15.862,15.863
	c0,5.042-2.365,9.542-6.042,12.449h3.979c1.104,0,2,0.896,2,2v26.153c0,1.104-0.896,2-2,2h-22.583
	c0.746,3.879,1.123,7.81,1.123,11.718c0,3.909-0.377,7.84-1.123,11.719h22.583c1.104,0,2,0.896,2,2v26.152c0,1.104-0.896,2-2,2
	h-3.979c3.679,2.907,6.043,7.408,6.043,12.45C190.854,168.148,183.738,175.265,174.992,175.265z M174.992,147.539
	c-6.541,0-11.863,5.322-11.863,11.863s5.322,11.862,11.863,11.862s11.862-5.321,11.862-11.862S181.533,147.539,174.992,147.539z
	 M35.17,147.539c-6.541,0-11.863,5.322-11.863,11.863s5.322,11.862,11.863,11.862s11.862-5.321,11.862-11.862
	S41.711,147.539,35.17,147.539z M64.608,146.952c10.824,10.459,25.333,16.378,40.473,16.378s29.648-5.919,40.473-16.378H64.608z
	 M161.465,142.952h25.325v-13.062h-25.325V142.952z M134.273,142.952h23.192v-13.062h-23.192V142.952z M107.081,142.952h23.192
	v-13.062h-23.192V142.952z M79.889,142.952h23.192v-13.062H79.889V142.952z M52.697,142.952h23.192v-13.062H52.697V142.952z
	 M23.372,142.952h25.325v-13.062H23.372V142.952z M159.465,125.891h27.325V120.8H23.372v5.091H159.465z M141.071,116.8h21.059
	c0.661-3.215,1.052-6.471,1.166-9.719h-22.224V116.8z M107.081,116.8h29.99v-9.719h-29.99V116.8z M73.091,116.8h29.99v-9.719h-29.99
	V116.8z M48.032,116.8h21.059v-9.719H46.867C46.98,110.329,47.371,113.585,48.032,116.8z M141.071,103.081h22.224
	c-0.114-3.248-0.504-6.504-1.166-9.718h-21.059V103.081z M107.081,103.081h29.99v-9.718h-29.99V103.081z M73.091,103.081h29.99
	v-9.718h-29.99V103.081z M46.867,103.081h22.224v-9.718H48.032C47.371,96.577,46.98,99.833,46.867,103.081z M139.071,89.363h47.719
	v-5.092H23.372v5.092H139.071z M161.465,80.271h25.325V67.21h-25.325V80.271z M134.273,80.271h23.192V67.21h-23.192V80.271z
	 M107.081,80.271h23.192V67.21h-23.192V80.271z M79.889,80.271h23.192V67.21H79.889V80.271z M52.697,80.271h23.192V67.21H52.697
	V80.271z M23.372,80.271h25.325V67.21H23.372V80.271z M132.273,63.21h13.281c-10.825-10.459-25.333-16.378-40.473-16.378
	c-15.14,0-29.648,5.919-40.473,16.378H132.273z M174.992,38.897c-6.541,0-11.863,5.322-11.863,11.863s5.322,11.862,11.863,11.862
	s11.862-5.321,11.862-11.862S181.533,38.897,174.992,38.897z M35.17,38.897c-6.541,0-11.863,5.322-11.863,11.863
	s5.322,11.862,11.863,11.862s11.862-5.321,11.862-11.862S41.711,38.897,35.17,38.897z M180.501,166.911h-11.019
	c-1.104,0-2-0.896-2-2v-11.019c0-1.104,0.896-2,2-2h11.019c1.104,0,2,0.896,2,2v11.019
	C182.501,166.016,181.605,166.911,180.501,166.911z M171.482,162.911h7.019v-7.019h-7.019V162.911z M40.68,166.911H29.661
	c-1.104,0-2-0.896-2-2v-11.019c0-1.104,0.896-2,2-2H40.68c1.104,0,2,0.896,2,2v11.019C42.68,166.016,41.784,166.911,40.68,166.911z
	 M31.661,162.911h7.019v-7.019h-7.019V162.911z M180.501,58.271h-11.019c-1.104,0-2-0.896-2-2v-11.02c0-1.104,0.896-2,2-2h11.019
	c1.104,0,2,0.896,2,2v11.02C182.501,57.375,181.605,58.271,180.501,58.271z M171.482,54.271h7.019v-7.02h-7.019V54.271z
	 M40.68,58.271H29.661c-1.104,0-2-0.896-2-2v-11.02c0-1.104,0.896-2,2-2H40.68c1.104,0,2,0.896,2,2v11.02
	C42.68,57.375,41.784,58.271,40.68,58.271z M31.661,54.271h7.019v-7.02h-7.019V54.271z"/>
<g>
</g>
<g>
</g>
<g>
</g>
<g>
</g>
<g>
</g>
<g>
</g>
<g>
</g>
<g>
</g>
<g>
</g>
<g>
</g>
<g>
</g>
<g>
</g>
<g>
</g>
<g>
</g>
<g>
</g>
</svg>
