<?xml version="1.0" encoding="iso-8859-1"?>
<!-- Generator: Adobe Illustrator 17.1.0, SVG Export Plug-In . SVG Version: 6.00 Build 0)  -->
<!DOCTYPE svg PUBLIC "-//W3C//DTD SVG 1.1//EN" "http://www.w3.org/Graphics/SVG/1.1/DTD/svg11.dtd">
<svg version="1.1" id="Capa_1" xmlns="http://www.w3.org/2000/svg" xmlns:xlink="http://www.w3.org/1999/xlink" x="0px" y="0px"
	 viewBox="0 0 207.5 207.5" style="enable-background:new 0 0 207.5 207.5;" xml:space="preserve">
<path d="M103.75,207.5C46.542,207.5,0,160.958,0,103.75S46.542,0,103.75,0S207.5,46.542,207.5,103.75S160.958,207.5,103.75,207.5z
	 M103.75,4C48.748,4,4,48.748,4,103.75s44.748,99.75,99.75,99.75s99.75-44.748,99.75-99.75S158.752,4,103.75,4z M103.75,192.545
	c-20.802,0-41.031-7.346-56.964-20.684c-0.43-0.359-0.689-0.884-0.714-1.445c-0.024-0.561,0.188-1.105,0.584-1.502l55.627-55.627
	c0.071-0.106,0.154-0.207,0.247-0.3l15.854-15.854c0.092-0.093,0.192-0.175,0.3-0.247l50.23-50.229
	c0.396-0.397,0.943-0.606,1.502-0.584c0.562,0.024,1.085,0.284,1.445,0.714c13.338,15.932,20.684,36.161,20.684,56.963
	C192.545,152.712,152.712,192.545,103.75,192.545z M51.05,170.177c14.939,11.86,33.567,18.368,52.7,18.368
	c46.756,0,84.795-38.039,84.795-84.795c0-19.134-6.508-37.761-18.368-52.699L124.68,96.548h39.07c1.104,0,2,0.896,2,2v15.854
	c0,1.104-0.896,2-2,2h-58.924L51.05,170.177z M108.826,112.401h52.924v-11.854h-41.07L108.826,112.401z M37.173,161.43
	c-0.029,0-0.059-0.001-0.088-0.002c-0.561-0.024-1.085-0.284-1.445-0.714c-13.338-15.932-20.684-36.161-20.684-56.964
	c0-48.961,39.833-88.794,88.794-88.794c20.803,0,41.032,7.346,56.964,20.684c0.43,0.36,0.689,0.885,0.714,1.445
	s-0.188,1.105-0.584,1.502L38.587,160.844C38.211,161.22,37.702,161.43,37.173,161.43z M103.75,18.956
	c-46.756,0-84.794,38.038-84.794,84.794c0,19.134,6.508,37.761,18.368,52.7l40.049-40.049H43.75c-1.104,0-2-0.896-2-2V98.548
	c0-1.104,0.896-2,2-2h53.477l59.224-59.224C141.511,25.464,122.884,18.956,103.75,18.956z M45.75,112.401h33.119v-11.854H45.75
	V112.401z M82.869,100.548v10.305l10.305-10.305H82.869z"/>
<g>
</g>
<g>
</g>
<g>
</g>
<g>
</g>
<g>
</g>
<g>
</g>
<g>
</g>
<g>
</g>
<g>
</g>
<g>
</g>
<g>
</g>
<g>
</g>
<g>
</g>
<g>
</g>
<g>
</g>
</svg>
