<?xml version="1.0" encoding="iso-8859-1"?>
<!-- Generator: Adobe Illustrator 17.1.0, SVG Export Plug-In . SVG Version: 6.00 Build 0)  -->
<!DOCTYPE svg PUBLIC "-//W3C//DTD SVG 1.1//EN" "http://www.w3.org/Graphics/SVG/1.1/DTD/svg11.dtd">
<svg version="1.1" id="Capa_1" xmlns="http://www.w3.org/2000/svg" xmlns:xlink="http://www.w3.org/1999/xlink" x="0px" y="0px"
	 viewBox="0 0 190 190" style="enable-background:new 0 0 190 190;" xml:space="preserve">
<path d="M175.5,187.863c-1.104,0-2-0.896-2-2v-3.75H16.75v3.75c0,1.104-0.896,2-2,2s-2-0.896-2-2v-3.75H2c-1.104,0-2-0.896-2-2v-52
	c0-1.104,0.896-2,2-2h64.375v-11.727H40.421c-19.851,0-36-16.149-36-36v-23.5H2c-1.104,0-2-0.896-2-2s0.896-2,2-2h9.5v-12.75
	c0-19.851,16.149-36,36-36H105c19.851,0,36,16.149,36,36v12.75h9.5c1.104,0,2,0.896,2,2s-0.896,2-2,2h-2.42v23.5
	c0,19.851-16.149,36-36,36H86.125v11.727H188c1.104,0,2,0.896,2,2v52c0,1.104-0.896,2-2,2h-10.5v3.75
	C177.5,186.968,176.604,187.863,175.5,187.863z M175.5,178.113H186v-48H4v48H175.5z M70.375,126.113h11.75v-11.727h-11.75V126.113z
	 M84.125,110.387h27.955c17.645,0,32-14.355,32-32v-23.5H141v12.75c0,19.851-16.149,36-36,36H47.5c-19.851,0-36-16.149-36-36v-12.75
	H8.421v23.5c0,17.645,14.355,32,32,32H84.125z M47.5,6.137c-17.645,0-32,14.355-32,32v29.5c0,17.645,14.355,32,32,32H105
	c17.645,0,32-14.355,32-32v-29.5c0-17.645-14.355-32-32-32H47.5z M168.737,163.78c-5.33,0-9.667-4.336-9.667-9.667
	c0-5.33,4.337-9.667,9.667-9.667s9.666,4.336,9.666,9.667C178.403,159.444,174.067,163.78,168.737,163.78z M168.737,148.447
	c-3.125,0-5.667,2.542-5.667,5.667c0,3.125,2.542,5.667,5.667,5.667c3.124,0,5.666-2.542,5.666-5.667
	C174.403,150.989,171.861,148.447,168.737,148.447z M152.167,156.113H13.5c-1.104,0-2-0.896-2-2s0.896-2,2-2h138.667
	c1.104,0,2,0.896,2,2S153.271,156.113,152.167,156.113z M102.798,93.601H49.703c-13.941,0-25.284-11.342-25.284-25.284V37.458
	c0-13.942,11.343-25.284,25.284-25.284h53.095c13.941,0,25.284,11.342,25.284,25.284v30.859
	C128.082,82.258,116.739,93.601,102.798,93.601z M49.703,16.173c-11.736,0-21.284,9.548-21.284,21.284v30.859
	c0,11.736,9.548,21.284,21.284,21.284h53.095c11.736,0,21.284-9.548,21.284-21.284V37.458c0-11.736-9.548-21.284-21.284-21.284
	H49.703z"/>
<g>
</g>
<g>
</g>
<g>
</g>
<g>
</g>
<g>
</g>
<g>
</g>
<g>
</g>
<g>
</g>
<g>
</g>
<g>
</g>
<g>
</g>
<g>
</g>
<g>
</g>
<g>
</g>
<g>
</g>
</svg>
