<?xml version="1.0" encoding="iso-8859-1"?>
<!-- Generator: Adobe Illustrator 17.1.0, SVG Export Plug-In . SVG Version: 6.00 Build 0)  -->
<!DOCTYPE svg PUBLIC "-//W3C//DTD SVG 1.1//EN" "http://www.w3.org/Graphics/SVG/1.1/DTD/svg11.dtd">
<svg version="1.1" id="Capa_1" xmlns="http://www.w3.org/2000/svg" xmlns:xlink="http://www.w3.org/1999/xlink" x="0px" y="0px"
	 viewBox="0 0 200.057 200.057" style="enable-background:new 0 0 200.057 200.057;" xml:space="preserve">
<path d="M178.083,200.057h-8.5c-1.104,0-2-0.896-2-2v-10.375H32.474v10.375c0,1.104-0.896,2-2,2h-8.5
	c-0.881,0-1.658-0.577-1.914-1.42l-3.319-10.955H5.028c-1.104,0-2-0.896-2-2v-124.5c0-1.104,0.896-2,2-2h40.243L27.394,12.478
	c-3.479,0.018-6.282-2.784-6.282-6.239C21.112,2.799,23.911,0,27.35,0c3.44,0,6.239,2.799,6.239,6.239c0,2-0.946,3.784-2.415,4.926
	l18.38,48.017h16.237l18.1-48.3c-1.273-1.143-2.076-2.801-2.076-4.643c0-3.44,2.799-6.239,6.238-6.239
	c3.44,0,6.239,2.799,6.239,6.239s-2.799,6.239-6.239,6.239c-0.162,0-0.322-0.006-0.481-0.019L70.063,59.182h124.966
	c1.104,0,2,0.896,2,2v124.5c0,1.104-0.896,2-2,2h-11.713l-3.319,10.955C179.741,199.48,178.963,200.057,178.083,200.057z
	 M171.583,196.057h5.017l2.537-8.375h-7.554V196.057z M23.458,196.057h5.017v-8.375H20.92L23.458,196.057z M181.877,183.682h11.151
	v-120.5H7.028v120.5h11.151c0.029,0,0.06,0,0.092,0h163.515C181.819,183.681,181.85,183.681,181.877,183.682z M88.053,4
	c-1.234,0-2.238,1.004-2.238,2.239s1.004,2.239,2.238,2.239s2.239-1.004,2.239-2.239S89.288,4,88.053,4z M27.35,4
	c-1.234,0-2.238,1.004-2.238,2.239s1.004,2.239,2.238,2.239c1.234,0,2.239-1.004,2.239-2.239S28.584,4,27.35,4z M181.274,171.932
	h-3.316c-1.104,0-2-0.896-2-2s0.896-2,2-2h3.316c1.104,0,2,0.896,2,2S182.378,171.932,181.274,171.932z M168.603,171.932h-3.316
	c-1.104,0-2-0.896-2-2s0.896-2,2-2h3.316c1.104,0,2,0.896,2,2S169.708,171.932,168.603,171.932z M155.933,171.932h-3.317
	c-1.104,0-2-0.896-2-2s0.896-2,2-2h3.317c1.104,0,2,0.896,2,2S157.038,171.932,155.933,171.932z M125.033,171.932h-89
	c-10.614,0-19.25-8.636-19.25-19.25v-58.5c0-10.614,8.636-19.25,19.25-19.25h89c10.614,0,19.25,8.636,19.25,19.25v58.5
	C144.283,163.296,135.647,171.932,125.033,171.932z M36.033,78.932c-8.409,0-15.25,6.841-15.25,15.25v58.5
	c0,8.409,6.841,15.25,15.25,15.25h89c8.409,0,15.25-6.841,15.25-15.25v-58.5c0-8.409-6.841-15.25-15.25-15.25H36.033z
	 M166.099,160.865c-6.708,0-12.166-5.458-12.166-12.167c0-6.708,5.458-12.167,12.166-12.167c6.709,0,12.167,5.458,12.167,12.167
	c0,2.855-0.988,5.484-2.642,7.562c-0.004,0.005-0.008,0.01-0.012,0.015C173.382,159.07,169.946,160.865,166.099,160.865z
	 M166.099,140.532c-4.503,0-8.166,3.664-8.166,8.167c0,4.503,3.663,8.167,8.166,8.167c1.881,0,3.614-0.639,4.997-1.711l-1.721-1.439
	c-0.848-0.709-0.96-1.97-0.251-2.817c0.708-0.849,1.971-0.959,2.817-0.25l1.624,1.358c0.45-1.011,0.7-2.13,0.7-3.307
	C174.266,144.195,170.602,140.532,166.099,140.532z M179.616,125.39h-27c-1.104,0-2-0.896-2-2s0.896-2,2-2h27c1.104,0,2,0.896,2,2
	S180.72,125.39,179.616,125.39z M28.77,118.965c-0.512,0-1.023-0.195-1.414-0.586c-0.781-0.781-0.781-2.047,0-2.828l30.741-30.742
	c0.781-0.781,2.047-0.781,2.828,0c0.781,0.781,0.781,2.047,0,2.828l-30.741,30.742C29.793,118.77,29.282,118.965,28.77,118.965z
	 M179.616,116.098h-27c-1.104,0-2-0.896-2-2s0.896-2,2-2h27c1.104,0,2,0.896,2,2S180.72,116.098,179.616,116.098z M179.616,106.807
	h-27c-1.104,0-2-0.896-2-2s0.896-2,2-2h27c1.104,0,2,0.896,2,2S180.72,106.807,179.616,106.807z M29.116,102.119
	c-0.512,0-1.023-0.195-1.414-0.586c-0.781-0.781-0.781-2.047,0-2.828l13.896-13.896c0.781-0.781,2.047-0.781,2.828,0
	c0.781,0.781,0.781,2.047,0,2.828L30.53,101.533C30.139,101.924,29.627,102.119,29.116,102.119z M179.616,97.515h-27
	c-1.104,0-2-0.896-2-2s0.896-2,2-2h27c1.104,0,2,0.896,2,2S180.72,97.515,179.616,97.515z M179.616,88.223h-27c-1.104,0-2-0.896-2-2
	s0.896-2,2-2h27c1.104,0,2,0.896,2,2S180.72,88.223,179.616,88.223z M179.616,78.932h-27c-1.104,0-2-0.896-2-2s0.896-2,2-2h27
	c1.104,0,2,0.896,2,2S180.72,78.932,179.616,78.932z"/>
<g>
</g>
<g>
</g>
<g>
</g>
<g>
</g>
<g>
</g>
<g>
</g>
<g>
</g>
<g>
</g>
<g>
</g>
<g>
</g>
<g>
</g>
<g>
</g>
<g>
</g>
<g>
</g>
<g>
</g>
</svg>
