<?xml version="1.0" encoding="iso-8859-1"?>
<!-- Generator: Adobe Illustrator 17.1.0, SVG Export Plug-In . SVG Version: 6.00 Build 0)  -->
<!DOCTYPE svg PUBLIC "-//W3C//DTD SVG 1.1//EN" "http://www.w3.org/Graphics/SVG/1.1/DTD/svg11.dtd">
<svg version="1.1" id="Capa_1" xmlns="http://www.w3.org/2000/svg" xmlns:xlink="http://www.w3.org/1999/xlink" x="0px" y="0px"
	 viewBox="0 0 209.292 209.292" style="enable-background:new 0 0 209.292 209.292;" xml:space="preserve">
<path d="M144.386,201.011H42.719c-9.098,0-16.5-7.402-16.5-16.5v-15.823C10.657,160.619,0,144.354,0,125.647
	c0-26.715,21.733-48.448,48.448-48.448c4.698,0,9.242,0.672,13.54,1.925c0.145-0.277,0.356-0.524,0.631-0.716l34.193-23.803
	c0.171-0.119,0.354-0.207,0.542-0.267c4.891-26.18,27.913-46.058,55.49-46.058c31.125,0,56.448,25.322,56.448,56.447
	c0,30.604-24.478,55.598-54.884,56.428l-1.534,5.891c4.916,2.961,8.012,8.338,8.012,14.132v2.334h3.124l11.986-9.081
	c0.334-0.258,0.752-0.413,1.207-0.417c0.003-0.001,0.003-0.001,0.005,0c0.002,0,0.004,0,0.005,0c0.002,0,0.004,0,0.006,0h10.667
	c1.104,0,2,0.896,2,2v54.662c0,1.104-0.896,2-2,2h-10.667c-0.003,0-0.004,0-0.008,0c-0.002,0-0.004,0-0.006,0c0,0-0.001,0-0.002,0
	c-0.454-0.004-0.873-0.159-1.207-0.417l-11.986-9.081h-3.124v1.333C160.886,193.609,153.484,201.011,144.386,201.011z
	 M30.219,170.536v13.976c0,6.893,5.607,12.5,12.5,12.5h101.667c6.893,0,12.5-5.607,12.5-12.5v-43.333
	c0-3.983-1.934-7.707-5.078-10.038l-3.388,13.006c-0.947,3.637-4.28,6.085-7.898,6.086c-0.008,0-0.016,0-0.023,0
	c-0.621,0-1.25-0.072-1.878-0.224c-2.15-0.516-3.958-1.846-5.091-3.746s-1.443-4.124-0.873-6.262l3.016-11.322h-23.345
	l-16.066,8.774c-0.28,0.153-0.582,0.232-0.88,0.244c-2.171,8.49-6.628,16.26-13.037,22.537c-3.39,3.32-7.186,6.085-11.274,8.248
	c-6.756,3.583-14.457,5.613-22.622,5.613C42.004,174.095,35.848,172.83,30.219,170.536z M179.219,188.677h6.667v-50.662h-6.667
	V188.677z M166.886,180.34l8.333,6.313v-46.613l-8.333,6.313V180.34z M160.886,179.178h2v-31.666h-2V179.178z M28.81,165.517
	c0.096,0.03,0.19,0.067,0.282,0.111c6.067,2.942,12.584,4.434,19.369,4.434c23.954,0,43.881-19.482,44.422-43.429
	c0.001-0.032,0.002-0.063,0.004-0.095c0.006-0.297,0.009-0.594,0.009-0.892c0-24.509-19.939-44.448-44.448-44.448
	S4,101.138,4,125.647C4,143.11,14.125,158.255,28.81,165.517z M142.107,120.153l-5.562,20.877c-0.29,1.087-0.132,2.218,0.444,3.185
	c0.576,0.966,1.495,1.643,2.588,1.905c0.315,0.075,0.631,0.112,0.943,0.113c1.835-0.005,3.524-1.249,4.005-3.094l4.061-15.588
	c0.025-0.098,0.058-0.191,0.097-0.282l1.602-6.149C147.503,120.995,144.771,120.668,142.107,120.153z M96.802,128.678
	c-0.087,1.405-0.234,2.791-0.439,4.161l7.619-4.161H96.802z M119.651,124.678h17.111l1.445-5.425
	c-1.843-0.495-3.649-1.082-5.412-1.754L119.651,124.678z M96.886,124.678h14.42l16.839-9.196
	c-18.781-9.178-31.749-28.48-31.749-50.754c0-1.725,0.078-3.434,0.23-5.12L66.403,80.647
	C83.973,87.682,96.494,104.719,96.886,124.678z M152.844,12.281c-28.92,0-52.448,23.527-52.448,52.447
	c0,28.921,23.528,52.449,52.448,52.449s52.448-23.528,52.448-52.449C205.292,35.808,181.764,12.281,152.844,12.281z M143.636,187.72
	h-14.292c-1.104,0-2-0.896-2-2s0.896-2,2-2h14.292c1.104,0,2,0.896,2,2S144.74,187.72,143.636,187.72z M120.636,187.72h-4.917
	c-1.104,0-2-0.896-2-2s0.896-2,2-2h4.917c1.104,0,2,0.896,2,2S121.74,187.72,120.636,187.72z M107.386,187.72h-4.917
	c-1.104,0-2-0.896-2-2s0.896-2,2-2h4.917c1.104,0,2,0.896,2,2S108.49,187.72,107.386,187.72z M59.714,166.437
	c-0.394,0-0.782-0.116-1.115-0.34c-0.42-0.282-1.394-0.936-4.445-9.052c-0.056-0.148-0.112-0.299-0.169-0.453
	c-3.077-8.253-1.149-19.092-1.013-19.823c0.001-0.01,0.003-0.018,0.004-0.023c0.109-0.579,0.467-1.08,0.98-1.37
	c0.513-0.29,1.127-0.34,1.679-0.136c0.444,0.164,10.932,4.101,16.5,11.079l0,0c0.008,0.01,0.016,0.02,0.023,0.029
	c5.663,7.1,5.725,8.303,5.751,8.816c0.029,0.572-0.188,1.129-0.597,1.53c-0.101,0.1-2.543,2.468-8.105,5.618
	c-5.564,3.148-8.851,4.023-8.988,4.06C60.052,166.416,59.883,166.437,59.714,166.437z M59.016,158.509
	c0.707,1.743,1.216,2.845,1.56,3.527c1.338-0.506,3.62-1.483,6.66-3.203c3.038-1.721,5.049-3.174,6.173-4.063
	c-0.409-0.646-1.092-1.651-2.225-3.156C67.636,154.723,63.494,157.07,59.016,158.509z M56.257,145.394
	c0,2.999,0.303,6.404,1.323,9.373c4.109-1.286,7.907-3.438,11.137-6.31c-3.438-4.083-9.024-7.04-12.155-8.479
	C56.406,141.389,56.257,143.292,56.257,145.394z M36.229,166.437c-0.168,0-0.338-0.021-0.504-0.064
	c-0.137-0.036-3.424-0.911-8.987-4.06c-5.563-3.15-8.005-5.519-8.106-5.618c-0.409-0.401-0.626-0.958-0.597-1.53
	c0.026-0.515,0.088-1.719,5.773-8.844l0-0.001c0.006-0.007,0.011-0.014,0.017-0.021c5.375-6.72,15.306-10.612,16.4-11.027
	c0.006-0.002,0.011-0.004,0.017-0.006c0.031-0.012,0.054-0.021,0.067-0.025c0.553-0.203,1.166-0.154,1.679,0.136
	c0.513,0.29,0.871,0.791,0.98,1.37c0.05,0.264,0.725,3.938,0.725,8.595c0,3.538-0.388,7.643-1.734,11.253
	c-3.185,8.544-4.187,9.217-4.614,9.504C37.011,166.321,36.622,166.437,36.229,166.437z M22.534,154.771
	c1.123,0.887,3.134,2.34,6.174,4.062c3.039,1.72,5.319,2.696,6.659,3.203c0.363-0.72,0.909-1.903,1.676-3.813
	c-4.396-1.54-8.445-3.965-11.894-7.124C23.779,152.894,22.987,154.052,22.534,154.771z M27.654,147.968
	c3.117,2.905,6.8,5.125,10.806,6.513c1.63-5.013,1.295-11.146,0.924-14.503C36.38,141.358,31.113,144.136,27.654,147.968z
	 M10.148,137.035c-1.316,0-1.68-0.182-1.901-0.292c-0.513-0.256-0.891-0.72-1.039-1.273c-0.037-0.138-0.895-3.43-0.895-9.822
	s0.858-9.685,0.895-9.822c0.148-0.554,0.526-1.018,1.039-1.273c0.436-0.217,1.425-0.711,9.151,0.451
	c0.003,0.001,0.007,0.001,0.01,0.002c0.439,0.066,0.895,0.137,1.381,0.215c0,0,0,0,0,0c0.008,0.001,0.018,0.003,0.026,0.004
	c8.806,1.416,17.382,8.591,17.744,8.896c0.45,0.381,0.709,0.939,0.709,1.528s-0.26,1.147-0.709,1.528
	c-0.342,0.288-8.034,6.723-16.319,8.617c-0.469,0.107-0.94,0.2-1.412,0.276c-0.013,0.002-0.026,0.004-0.039,0.006
	c-0.247,0.04-0.487,0.078-0.721,0.114C13.847,136.844,11.497,137.035,10.148,137.035z M10.806,118.274
	c-0.219,1.414-0.492,3.881-0.492,7.373c0,3.491,0.273,5.957,0.492,7.373c0.765-0.036,1.976-0.137,3.844-0.381
	c-0.477-2.303-0.717-4.646-0.717-6.992s0.241-4.688,0.717-6.992C12.782,118.411,11.571,118.31,10.806,118.274z M18.613,119.248
	c-0.452,2.107-0.68,4.252-0.68,6.399s0.229,4.293,0.68,6.399c5.248-0.98,10.572-4.384,13.367-6.399
	C29.185,123.633,23.86,120.228,18.613,119.248z M86.748,137.035c-1.356,0-3.723-0.192-7.985-0.856
	c-0.205-0.031-0.415-0.064-0.631-0.099c-0.008-0.002-0.017-0.003-0.025-0.005c-0.099-0.016-0.198-0.032-0.297-0.049
	c-8.215-1.432-16.158-7.767-17.335-8.736c-0.007-0.006-0.014-0.012-0.021-0.017c-0.06-0.05-0.099-0.083-0.117-0.098
	c-0.45-0.381-0.709-0.939-0.709-1.528s0.26-1.147,0.709-1.528c0.361-0.305,8.953-7.492,17.77-8.899
	c0.381-0.062,0.744-0.118,1.094-0.171c0.074-0.012,0.147-0.022,0.219-0.033c0.022-0.004,0.045-0.008,0.068-0.011
	c0.003,0,0.006-0.001,0.009-0.001c7.729-1.165,8.716-0.669,9.152-0.452c0.512,0.257,0.89,0.72,1.038,1.273
	c0.036,0.137,0.895,3.43,0.895,9.822s-0.859,9.686-0.895,9.822c-0.148,0.554-0.526,1.017-1.038,1.273
	C88.428,136.853,88.063,137.035,86.748,137.035z M82.246,132.639c1.868,0.244,3.079,0.345,3.844,0.381
	c0.219-1.415,0.493-3.881,0.493-7.373s-0.273-5.958-0.493-7.373c-0.765,0.036-1.975,0.137-3.844,0.381
	c0.476,2.303,0.717,4.646,0.717,6.992S82.722,130.338,82.246,132.639z M64.914,125.646c2.795,2.015,8.12,5.42,13.369,6.4
	c0.452-2.105,0.68-4.251,0.68-6.399c0-2.147-0.228-4.293-0.68-6.399C73.021,120.23,67.704,123.632,64.914,125.646z M48.448,133.192
	c-4.161,0-7.545-3.385-7.545-7.545s3.385-7.545,7.545-7.545c4.16,0,7.545,3.385,7.545,7.545S52.608,133.192,48.448,133.192z
	 M48.448,122.102c-1.955,0-3.545,1.59-3.545,3.545s1.59,3.545,3.545,3.545c1.955,0,3.545-1.59,3.545-3.545
	S50.403,122.102,48.448,122.102z M53.988,116.178c-0.341,0-0.681-0.088-0.985-0.26c-0.513-0.29-0.871-0.791-0.98-1.37
	c-0.05-0.264-0.725-3.938-0.725-8.596c0-3.537,0.388-7.643,1.734-11.253c0.036-0.096,0.071-0.189,0.105-0.282
	c3.102-8.275,4.085-8.937,4.507-9.221c0.476-0.32,1.066-0.42,1.621-0.276c0.137,0.036,3.424,0.911,8.988,4.062
	c5.563,3.148,8.005,5.518,8.106,5.617c0.409,0.401,0.626,0.958,0.597,1.53c-0.026,0.515-0.088,1.719-5.774,8.846
	c-5.568,6.979-16.056,10.915-16.5,11.079C54.457,116.137,54.222,116.178,53.988,116.178z M56.577,96.672
	c-1.684,5.038-1.346,11.257-0.971,14.646c3.221-1.481,9.043-4.568,12.449-8.837c0.023-0.029,0.046-0.058,0.069-0.086
	c0.01-0.013,0.019-0.024,0.029-0.036c-3.342-2.831-7.242-4.906-11.438-6.085C56.667,96.406,56.621,96.539,56.577,96.672z
	 M58.167,92.529c4.549,1.334,8.781,3.601,12.431,6.66c0.917-1.236,1.496-2.092,1.858-2.666c-1.123-0.887-3.134-2.34-6.174-4.061
	c-3.039-1.721-5.319-2.698-6.659-3.205C59.296,89.907,58.82,90.933,58.167,92.529z M41.955,116.178
	c-0.234,0-0.469-0.041-0.694-0.124c-0.444-0.164-10.932-4.1-16.5-11.079c-5.686-7.127-5.748-8.331-5.774-8.846
	c-0.029-0.572,0.188-1.129,0.597-1.53c0.102-0.1,2.543-2.469,8.106-5.617c5.563-3.15,8.851-4.025,8.988-4.062
	c0.555-0.144,1.146-0.044,1.621,0.276c0.427,0.287,1.428,0.961,4.613,9.503l0,0c0-0.001,0-0.001,0-0.001c0,0.001,0,0.001,0,0.001
	c2.935,7.871,1.318,18.091,1.043,19.658c-0.017,0.099-0.029,0.163-0.034,0.19c-0.109,0.579-0.467,1.08-0.98,1.37
	C42.636,116.091,42.296,116.178,41.955,116.178z M28.18,102.837c3.438,4.084,9.024,7.04,12.155,8.48
	c0.155-1.412,0.304-3.314,0.304-5.417c0-2.999-0.303-6.404-1.322-9.373C35.207,97.814,31.409,99.966,28.18,102.837z M23.487,96.523
	c0.409,0.647,1.092,1.651,2.225,3.157c3.548-3.107,7.691-5.455,12.169-6.894c-0.707-1.744-1.216-2.847-1.561-3.529
	c-1.338,0.507-3.62,1.484-6.659,3.205C26.622,94.182,24.611,95.635,23.487,96.523z M138.521,112.2c-0.168,0-0.337-0.021-0.503-0.064
	c-0.159-0.041-3.971-1.056-10.454-4.726c-6.482-3.671-9.313-6.416-9.431-6.531c-0.409-0.401-0.626-0.958-0.597-1.53
	c0.027-0.521,0.098-1.906,6.694-10.172c0.029-0.036,0.058-0.072,0.086-0.107c6.29-7.795,17.86-12.303,19.027-12.743
	c0.037-0.014,0.063-0.023,0.079-0.029c0.552-0.204,1.167-0.153,1.679,0.136c0.513,0.29,0.871,0.791,0.98,1.37
	c0.058,0.308,0.845,4.59,0.845,10.015c0,4.111-0.45,8.879-2.012,13.068c-3.694,9.911-4.845,10.684-5.278,10.975
	C139.303,112.084,138.914,112.2,138.521,112.2z M122.013,98.947c1.275,1.026,3.716,2.827,7.521,4.982
	c3.805,2.153,6.604,3.32,8.143,3.886c0.448-0.858,1.175-2.403,2.252-5.108c-5.359-1.823-10.284-4.774-14.44-8.652
	C123.559,96.568,122.542,98.082,122.013,98.947z M127.989,90.916c3.824,3.63,8.389,6.38,13.364,8.05
	c2.137-6.233,1.618-14.038,1.154-17.948C138.991,82.6,132.247,86.057,127.989,90.916z M166.051,112.2
	c-0.394,0-0.782-0.116-1.115-0.34c-0.429-0.288-1.564-1.05-5.184-10.722c-0.031-0.083-0.063-0.168-0.094-0.253
	c-3.474-9.318-1.453-21.495-1.191-22.956c0.011-0.062,0.019-0.104,0.023-0.127c0.109-0.579,0.467-1.08,0.98-1.37
	c0.513-0.29,1.127-0.34,1.679-0.136c0.517,0.191,12.721,4.771,19.19,12.877l0,0c0.215,0.269,0.421,0.528,0.62,0.781
	c5.983,7.576,6.051,8.889,6.077,9.394c0.029,0.572-0.188,1.13-0.597,1.53c-0.118,0.115-2.949,2.86-9.431,6.531
	c-6.483,3.67-10.294,4.685-10.453,4.726C166.389,112.178,166.22,112.2,166.051,112.2z M164.773,103.034
	c1.006,2.503,1.691,3.958,2.122,4.781c1.536-0.564,4.336-1.731,8.142-3.886c3.805-2.154,6.246-3.955,7.522-4.982
	c-0.485-0.793-1.38-2.13-3.012-4.283C175.271,98.48,170.23,101.336,164.773,103.034z M161.655,87.875
	c0,3.654,0.381,7.823,1.679,11.417c5.092-1.543,9.788-4.204,13.746-7.788c-0.155-0.189-0.313-0.378-0.476-0.563
	c-4.256-4.87-11.015-8.336-14.537-9.922C161.866,82.719,161.655,85.154,161.655,87.875z M107.95,77.735
	c-1.462,0-1.856-0.197-2.077-0.308c-0.513-0.256-0.891-0.72-1.039-1.273c-0.042-0.159-1.037-3.976-1.037-11.426
	c0-7.449,0.995-11.266,1.037-11.425c0.148-0.554,0.526-1.018,1.039-1.273c0.465-0.233,1.707-0.853,12.149,0.814
	c9.39,1.499,18.578,8.656,20.364,10.109c0.015,0.013,0.029,0.023,0.042,0.035c0.138,0.112,0.224,0.185,0.256,0.211
	c0.45,0.38,0.709,0.939,0.709,1.528s-0.26,1.147-0.709,1.528c-0.42,0.354-10.421,8.722-20.662,10.356l0,0
	c-0.007,0.002-0.014,0.003-0.021,0.004C112.517,77.492,109.574,77.735,107.95,77.735z M108.428,55.728
	c-0.266,1.615-0.63,4.627-0.63,9c0,4.372,0.364,7.384,0.63,9.001c0.929-0.032,2.534-0.151,5.212-0.511
	c-0.605-2.793-0.911-5.64-0.911-8.49c0-2.85,0.306-5.696,0.911-8.489C110.962,55.88,109.356,55.76,108.428,55.728z M117.606,56.829
	c-0.582,2.598-0.876,5.247-0.876,7.899c0,2.653,0.294,5.303,0.876,7.9c0.202-0.035,0.403-0.072,0.605-0.112
	c6.388-1.278,12.785-5.489,15.916-7.787C130.893,62.359,124.177,57.95,117.606,56.829z M197.738,77.735
	c-1.605,0-4.499-0.238-9.865-1.089c-0.069-0.011-0.138-0.021-0.207-0.033c-10.242-1.635-20.242-10.002-20.663-10.356
	c-0.45-0.381-0.709-0.939-0.709-1.528s0.26-1.148,0.709-1.528c0.084-0.071,0.556-0.466,1.337-1.063
	c3.11-2.381,11.141-7.985,19.325-9.292c0.066-0.011,0.132-0.021,0.197-0.031c10.262-1.628,11.489-1.015,11.954-0.783
	c0.512,0.257,0.89,0.72,1.038,1.273c0.042,0.159,1.037,3.976,1.037,11.425c0,7.45-0.995,11.267-1.037,11.426
	c-0.148,0.554-0.526,1.017-1.038,1.273C199.595,77.538,199.2,77.735,197.738,77.735z M192.049,73.219
	c2.678,0.359,4.283,0.479,5.212,0.511c0.266-1.617,0.63-4.629,0.63-9.001c0-4.371-0.364-7.383-0.63-9
	c-0.929,0.032-2.534,0.151-5.212,0.511c0.604,2.792,0.91,5.639,0.91,8.489C192.959,67.58,192.653,70.427,192.049,73.219z
	 M171.562,64.727c3.234,2.371,9.951,6.78,16.521,7.901c0.582-2.597,0.876-5.246,0.876-7.9c0-2.653-0.294-5.303-0.876-7.899
	C181.498,57.952,174.791,62.357,171.562,64.727z M152.355,73.228c-4.687,0-8.5-3.813-8.5-8.5s3.813-8.5,8.5-8.5s8.5,3.813,8.5,8.5
	S157.042,73.228,152.355,73.228z M152.355,60.228c-2.481,0-4.5,2.019-4.5,4.5s2.019,4.5,4.5,4.5s4.5-2.019,4.5-4.5
	S154.836,60.228,152.355,60.228z M159.338,53.285c-0.341,0-0.681-0.088-0.985-0.26c-0.512-0.29-0.871-0.791-0.98-1.37
	c-0.058-0.308-0.845-4.591-0.845-10.015c0-4.111,0.45-8.879,2.012-13.068c0.024-0.065,0.048-0.13,0.072-0.193
	c3.637-9.728,4.775-10.492,5.205-10.781c0.476-0.321,1.065-0.42,1.62-0.276c0.159,0.041,3.971,1.057,10.453,4.727
	c6.482,3.671,9.313,6.416,9.431,6.531c0.409,0.401,0.626,0.958,0.597,1.53c-0.027,0.52-0.097,1.895-6.622,10.082
	c-0.024,0.03-0.048,0.061-0.073,0.091c-0.625,0.784-1.304,1.534-2.021,2.252c-0.001,0.001-0.002,0.002-0.004,0.004
	c-0.002,0.002-0.004,0.004-0.007,0.007c-6.143,6.137-15.058,9.801-16.854,10.5c-0.163,0.063-0.267,0.102-0.306,0.116
	C159.808,53.244,159.573,53.285,159.338,53.285z M161.747,31.621c-1.722,6.02-1.236,13.142-0.8,16.819
	c3.696-1.664,10.958-5.398,15.15-10.652c0.11-0.138,0.217-0.272,0.322-0.405c-4.091-3.53-8.908-6.094-14.098-7.503
	c-0.011,0.029-0.022,0.06-0.033,0.089C162.087,30.508,161.908,31.059,161.747,31.621z M163.774,26.132
	c5.543,1.567,10.692,4.324,15.093,8.082c1.357-1.817,2.134-2.984,2.574-3.703c-1.275-1.027-3.716-2.827-7.521-4.982
	c-3.805-2.153-6.604-3.32-8.143-3.886C165.364,22.433,164.715,23.806,163.774,26.132z M145.233,53.285
	c-0.234,0-0.469-0.041-0.694-0.124c-0.517-0.191-12.724-4.772-19.192-12.879l0,0c-0.032-0.04-0.064-0.08-0.096-0.12
	c-6.501-8.161-6.572-9.534-6.599-10.053c-0.029-0.572,0.188-1.129,0.597-1.53c0.117-0.115,2.948-2.86,9.431-6.531
	c6.482-3.67,10.293-4.686,10.453-4.727c0.555-0.143,1.145-0.044,1.62,0.276c0.433,0.291,1.583,1.064,5.277,10.975
	c3.423,9.181,1.511,21.136,1.203,22.884c-0.018,0.103-0.03,0.17-0.036,0.199c-0.01,0.055-0.022,0.108-0.037,0.161
	c-0.141,0.51-0.479,0.946-0.943,1.209c-0.174,0.099-0.359,0.169-0.55,0.212C145.525,53.269,145.379,53.285,145.233,53.285z
	 M128.627,37.977c4.214,5.153,11.343,8.818,14.995,10.462c0.201-1.7,0.412-4.136,0.412-6.856c0-3.654-0.381-7.823-1.679-11.417
	c-5.093,1.544-9.789,4.204-13.747,7.788C128.615,37.963,128.621,37.969,128.627,37.977z M123.13,30.51
	c0.485,0.793,1.38,2.131,3.011,4.283c4.277-3.816,9.317-6.672,14.774-8.37c-1.006-2.504-1.691-3.958-2.122-4.781
	c-1.537,0.564-4.337,1.731-8.142,3.886C126.848,27.682,124.406,29.482,123.13,30.51z"/>
<g>
</g>
<g>
</g>
<g>
</g>
<g>
</g>
<g>
</g>
<g>
</g>
<g>
</g>
<g>
</g>
<g>
</g>
<g>
</g>
<g>
</g>
<g>
</g>
<g>
</g>
<g>
</g>
<g>
</g>
</svg>
