<?xml version="1.0" encoding="iso-8859-1"?>
<!-- Generator: Adobe Illustrator 17.1.0, SVG Export Plug-In . SVG Version: 6.00 Build 0)  -->
<!DOCTYPE svg PUBLIC "-//W3C//DTD SVG 1.1//EN" "http://www.w3.org/Graphics/SVG/1.1/DTD/svg11.dtd">
<svg version="1.1" id="Capa_1" xmlns="http://www.w3.org/2000/svg" xmlns:xlink="http://www.w3.org/1999/xlink" x="0px" y="0px"
	 viewBox="0 0 190.333 190.333" style="enable-background:new 0 0 190.333 190.333;" xml:space="preserve">
<path d="M95.167,190.333C42.691,190.333,0,147.642,0,95.166C0,42.692,42.691,0,95.167,0c52.476,0,95.167,42.691,95.167,95.166
	C190.333,147.642,147.642,190.333,95.167,190.333z M95.167,4C44.897,4,4,44.897,4,95.166s40.897,91.167,91.167,91.167
	s91.167-40.897,91.167-91.167S145.436,4,95.167,4z M95.167,174.746c-43.88,0-79.58-35.699-79.58-79.58
	c0-43.88,35.699-79.579,79.58-79.579c43.881,0,79.58,35.699,79.58,79.579C174.747,139.047,139.047,174.746,95.167,174.746z
	 M95.167,19.587c-41.675,0-75.58,33.904-75.58,75.579s33.905,75.58,75.58,75.58s75.58-33.905,75.58-75.58
	S136.841,19.587,95.167,19.587z M95.167,151.386c-27.178,0-49.289-22.111-49.289-49.289c0-21.646,14.482-41.072,35.219-47.239
	c0.606-0.18,1.26-0.063,1.766,0.313c0.506,0.378,0.804,0.972,0.804,1.604v14.376c0,0.795-0.471,1.515-1.199,1.833
	c-11.581,5.059-19.063,16.486-19.063,29.113c0,17.514,14.248,31.762,31.762,31.762s31.762-14.248,31.762-31.762
	c0-12.627-7.482-24.056-19.063-29.113c-0.729-0.318-1.199-1.038-1.199-1.833V56.775c0-0.632,0.298-1.226,0.805-1.604
	c0.506-0.377,1.162-0.492,1.766-0.313c20.736,6.167,35.219,25.593,35.219,47.239C144.456,129.275,122.344,151.386,95.167,151.386z
	 M79.667,59.542c-17.669,6.448-29.789,23.571-29.789,42.555c0,24.973,20.316,45.289,45.289,45.289
	c24.973,0,45.289-20.316,45.289-45.289c0-18.983-12.12-36.106-29.789-42.555v10.326c12.353,5.943,20.262,18.452,20.262,32.229
	c0,19.719-16.043,35.762-35.762,35.762c-19.719,0-35.762-16.043-35.762-35.762c0-13.776,7.91-26.285,20.262-32.229V59.542z
	 M95.167,83.115c-4.25,0-7.708-3.458-7.708-7.709v-28.75c0-4.25,3.458-7.708,7.708-7.708c4.251,0,7.709,3.458,7.709,7.708v28.75
	C102.875,79.656,99.417,83.115,95.167,83.115z M95.167,42.948c-2.045,0-3.708,1.663-3.708,3.708v28.75
	c0,2.045,1.663,3.709,3.708,3.709s3.709-1.664,3.709-3.709v-28.75C98.875,44.611,97.211,42.948,95.167,42.948z"/>
<g>
</g>
<g>
</g>
<g>
</g>
<g>
</g>
<g>
</g>
<g>
</g>
<g>
</g>
<g>
</g>
<g>
</g>
<g>
</g>
<g>
</g>
<g>
</g>
<g>
</g>
<g>
</g>
<g>
</g>
</svg>
