<?xml version="1.0" encoding="iso-8859-1"?>
<!-- Generator: Adobe Illustrator 17.1.0, SVG Export Plug-In . SVG Version: 6.00 Build 0)  -->
<!DOCTYPE svg PUBLIC "-//W3C//DTD SVG 1.1//EN" "http://www.w3.org/Graphics/SVG/1.1/DTD/svg11.dtd">
<svg version="1.1" id="Capa_1" xmlns="http://www.w3.org/2000/svg" xmlns:xlink="http://www.w3.org/1999/xlink" x="0px" y="0px"
	 viewBox="0 0 190.5 190.5" style="enable-background:new 0 0 190.5 190.5;" xml:space="preserve">
<path d="M78.687,190.5h-45c-1.104,0-2-0.896-2-2v-16H15.448c-4.417,0-8.011-3.593-8.011-8.01V26.011
	c0-4.417,3.594-8.011,8.011-8.011h16.239V2c0-1.104,0.896-2,2-2h45c1.104,0,2,0.896,2,2v16h16.239c4.417,0,8.011,3.594,8.011,8.011
	V33.5h76.125c0.641,0,1.243,0.307,1.619,0.826c0.376,0.519,0.481,1.187,0.282,1.795l-5.258,16.085
	c-0.034,0.216-0.103,0.421-0.199,0.608l-33.605,102.807c-0.27,0.822-1.036,1.379-1.901,1.379h-37.063v7.49
	c0,4.417-3.594,8.01-8.011,8.01H80.687v16C80.687,189.604,79.792,190.5,78.687,190.5z M35.687,186.5h41v-14h-41V186.5z
	 M78.687,168.5h18.239c2.212,0,4.011-1.799,4.011-4.01V26.011c0-2.212-1.799-4.011-4.011-4.011H15.448
	c-2.212,0-4.011,1.799-4.011,4.011V164.49c0,2.211,1.799,4.01,4.011,4.01H78.687z M104.937,153h35.612l6.517-19.938h-42.129V136h8
	c1.104,0,2,0.896,2,2v10c0,1.104-0.896,2-2,2h-8V153z M104.937,146h6v-6h-6V146z M104.937,129.063h43.437l22.105-67.625h-65.542
	V129.063z M104.937,57.438h66.85l1.158-3.541h-7.216c-1.104,0-2-0.896-2-2v-10c0-1.104,0.896-2,2-2h10
	c0.626,0,1.185,0.287,1.551,0.737l1.024-3.134h-73.367v2.396h8c1.104,0,2,0.896,2,2v10c0,1.104-0.896,2-2,2h-8V57.438z
	 M167.729,49.896h6v-6h-6V49.896z M104.937,49.896h6v-6h-6V49.896z M35.687,18h41V4h-41V18z M21.395,160.655c-1.104,0-2-0.896-2-2
	V31.729c0-1.104,0.896-2,2-2s2,0.896,2,2v126.926C23.395,159.76,22.5,160.655,21.395,160.655z M133.895,150h-10
	c-1.104,0-2-0.896-2-2v-10c0-1.104,0.896-2,2-2h10c1.104,0,2,0.896,2,2v10C135.895,149.104,135,150,133.895,150z M125.895,146h6v-6
	h-6V146z M154.77,53.896h-10c-1.104,0-2-0.896-2-2v-10c0-1.104,0.896-2,2-2h10c1.104,0,2,0.896,2,2v10
	C156.77,53.001,155.875,53.896,154.77,53.896z M146.77,49.896h6v-6h-6V49.896z M133.895,53.896h-10c-1.104,0-2-0.896-2-2v-10
	c0-1.104,0.896-2,2-2h10c1.104,0,2,0.896,2,2v10C135.895,53.001,135,53.896,133.895,53.896z M125.895,49.896h6v-6h-6V49.896z"/>
<g>
</g>
<g>
</g>
<g>
</g>
<g>
</g>
<g>
</g>
<g>
</g>
<g>
</g>
<g>
</g>
<g>
</g>
<g>
</g>
<g>
</g>
<g>
</g>
<g>
</g>
<g>
</g>
<g>
</g>
</svg>
