<?xml version="1.0" encoding="iso-8859-1"?>
<!-- Generator: Adobe Illustrator 17.1.0, SVG Export Plug-In . SVG Version: 6.00 Build 0)  -->
<!DOCTYPE svg PUBLIC "-//W3C//DTD SVG 1.1//EN" "http://www.w3.org/Graphics/SVG/1.1/DTD/svg11.dtd">
<svg version="1.1" id="Capa_1" xmlns="http://www.w3.org/2000/svg" xmlns:xlink="http://www.w3.org/1999/xlink" x="0px" y="0px"
	 viewBox="0 0 190.333 190.333" style="enable-background:new 0 0 190.333 190.333;" xml:space="preserve">
<path d="M95.167,190.333C42.692,190.333,0,147.642,0,95.167S42.692,0,95.167,0c52.475,0,95.166,42.692,95.166,95.167
	S147.642,190.333,95.167,190.333z M95.167,4C44.898,4,4,44.897,4,95.167s40.897,91.167,91.167,91.167s91.166-40.897,91.166-91.167
	S145.437,4,95.167,4z M95.167,174.747c-43.881,0-79.58-35.699-79.58-79.58s35.699-79.58,79.58-79.58
	c43.88,0,79.579,35.7,79.579,79.58S139.047,174.747,95.167,174.747z M95.167,19.587c-41.675,0-75.58,33.905-75.58,75.58
	s33.905,75.58,75.58,75.58s75.579-33.905,75.579-75.58S136.842,19.587,95.167,19.587z M75.031,136.171
	c-6.332,0-11.484-5.151-11.484-11.484V65.646c0-6.332,5.151-11.483,11.484-11.483c1.985,0,3.963,0.536,5.721,1.551l51.131,29.521
	c3.591,2.073,5.735,5.787,5.735,9.934c0,4.146-2.145,7.859-5.735,9.932l-51.131,29.521
	C78.993,135.635,77.016,136.171,75.031,136.171z M75.031,58.163c-3.6,0-7.484,2.861-7.484,7.483v59.042
	c0,4.623,3.885,7.484,7.484,7.484c1.303,0,2.554-0.341,3.721-1.015l51.131-29.521c2.339-1.35,3.735-3.768,3.735-6.469
	c0-2.7-1.396-5.119-3.735-6.469L78.751,59.177C77.584,58.504,76.333,58.163,75.031,58.163z"/>
<g>
</g>
<g>
</g>
<g>
</g>
<g>
</g>
<g>
</g>
<g>
</g>
<g>
</g>
<g>
</g>
<g>
</g>
<g>
</g>
<g>
</g>
<g>
</g>
<g>
</g>
<g>
</g>
<g>
</g>
</svg>
