<?xml version="1.0" encoding="iso-8859-1"?>
<!-- Generator: Adobe Illustrator 17.1.0, SVG Export Plug-In . SVG Version: 6.00 Build 0)  -->
<!DOCTYPE svg PUBLIC "-//W3C//DTD SVG 1.1//EN" "http://www.w3.org/Graphics/SVG/1.1/DTD/svg11.dtd">
<svg version="1.1" id="Capa_1" xmlns="http://www.w3.org/2000/svg" xmlns:xlink="http://www.w3.org/1999/xlink" x="0px" y="0px"
	 viewBox="0 0 184.53 184.53" style="enable-background:new 0 0 184.53 184.53;" xml:space="preserve">
<path d="M173.771,180.652H16.404c-5.932,0-10.758-4.826-10.758-10.758V75.371L2.603,61.716C2.602,61.71,2.6,61.705,2.599,61.7
	L0.261,51.207c-0.625-2.805-0.121-5.685,1.421-8.11c1.541-2.425,3.935-4.105,6.739-4.73l153.6-34.229
	c5.785-1.29,11.55,2.371,12.841,8.16v0.001l5.413,24.292c0.24,1.078-0.439,2.146-1.518,2.387L25.797,73.064H182.53
	c1.104,0,2,0.896,2,2v94.83C184.53,175.826,179.704,180.652,173.771,180.652z M9.646,91.268v78.626c0,3.727,3.031,6.758,6.758,6.758
	h157.367c3.727,0,6.759-3.031,6.759-6.758V91.268H9.646z M164.371,87.268h16.159V77.064h-5.955L164.371,87.268z M133.991,87.268
	h24.723l10.204-10.204h-24.723L133.991,87.268z M103.612,87.268h24.723l10.204-10.204h-24.723L103.612,87.268z M73.233,87.268
	h24.723l10.204-10.204H83.437L73.233,87.268z M42.854,87.268h24.723l10.204-10.204H53.058L42.854,87.268z M12.474,87.268h24.723
	l10.204-10.204H22.678L12.474,87.268z M9.646,77.064v7.376l7.376-7.376H9.646z M7.555,65.551l1.589,7.126l7.125-1.589L7.555,65.551z
	 M9.701,62.175l12.09,7.684l24.131-5.378l-12.091-7.684L9.701,62.175z M39.352,55.567l12.091,7.684l24.131-5.377l-12.09-7.684
	L39.352,55.567z M164.361,7.879c-0.485,0-0.978,0.053-1.471,0.162L9.292,42.271c-1.762,0.393-3.266,1.448-4.233,2.972
	c-0.969,1.523-1.285,3.333-0.893,5.095l1.905,8.549l57.325-12.775c0.018-0.004,0.034-0.008,0.052-0.012l59.24-13.201
	c0.024-0.006,0.051-0.012,0.076-0.017l29.592-6.595c0.014-0.003,0.028-0.007,0.042-0.01l20.465-4.561l-1.905-8.549v0.001
	C170.257,10.024,167.457,7.879,164.361,7.879z M69.006,48.959l12.089,7.684l24.13-5.378l-12.09-7.684L69.006,48.959z M98.656,42.351
	l12.09,7.684l24.132-5.377l-12.09-7.684L98.656,42.351z M128.309,35.743l12.09,7.684l24.13-5.377l-12.09-7.684L128.309,35.743z
	 M157.96,29.136l12.09,7.684l5.887-1.312l-2.203-9.888L157.96,29.136z M95.088,160.258c-15.795,0-28.646-12.851-28.646-28.646
	s12.851-28.646,28.646-28.646c15.796,0,28.646,12.851,28.646,28.646S110.884,160.258,95.088,160.258z M95.088,106.967
	c-13.59,0-24.646,11.056-24.646,24.646s11.056,24.646,24.646,24.646s24.646-11.056,24.646-24.646S108.677,106.967,95.088,106.967z
	 M86.847,145.352c-0.346,0-0.69-0.089-1-0.268c-0.619-0.357-1-1.018-1-1.732v-23.479c0-0.715,0.381-1.375,1-1.732s1.381-0.357,2,0
	l20.333,11.739c0.619,0.357,1,1.018,1,1.732s-0.381,1.375-1,1.732l-20.333,11.739C87.538,145.263,87.193,145.352,86.847,145.352z
	 M88.847,123.337v16.551l14.333-8.275L88.847,123.337z M168.574,133.613h-33.688c-1.104,0-2-0.896-2-2s0.896-2,2-2h33.688
	c1.104,0,2,0.896,2,2S169.678,133.613,168.574,133.613z M55.03,133.613H21.341c-1.104,0-2-0.896-2-2s0.896-2,2-2H55.03
	c1.104,0,2,0.896,2,2S56.135,133.613,55.03,133.613z"/>
<g>
</g>
<g>
</g>
<g>
</g>
<g>
</g>
<g>
</g>
<g>
</g>
<g>
</g>
<g>
</g>
<g>
</g>
<g>
</g>
<g>
</g>
<g>
</g>
<g>
</g>
<g>
</g>
<g>
</g>
</svg>
