<?xml version="1.0" encoding="iso-8859-1"?>
<!-- Generator: Adobe Illustrator 17.1.0, SVG Export Plug-In . SVG Version: 6.00 Build 0)  -->
<!DOCTYPE svg PUBLIC "-//W3C//DTD SVG 1.1//EN" "http://www.w3.org/Graphics/SVG/1.1/DTD/svg11.dtd">
<svg version="1.1" id="Capa_1" xmlns="http://www.w3.org/2000/svg" xmlns:xlink="http://www.w3.org/1999/xlink" x="0px" y="0px"
	 viewBox="0 0 189.297 189.297" style="enable-background:new 0 0 189.297 189.297;" xml:space="preserve">
<path d="M139.254,182.649h-0.842c-16.034,0-29.079-13.045-29.079-29.079V35.727c0-13.828-11.25-25.078-25.079-25.078
	s-25.079,11.25-25.079,25.078V153.57c0,16.034-13.044,29.079-29.079,29.079h-1.019C13.044,182.649,0,169.604,0,153.57V33.899
	c0-1.104,0.896-2,2-2s2,0.896,2,2V153.57c0,13.829,11.25,25.079,25.079,25.079h1.019c13.829,0,25.079-11.25,25.079-25.079V35.727
	c0-16.034,13.044-29.078,29.079-29.078s29.079,13.044,29.079,29.078V153.57c0,13.829,11.25,25.079,25.079,25.079h0.842
	c13.829,0,25.079-11.25,25.079-25.079V89.349h-0.036c-9.236,0-16.75-7.514-16.75-16.75v-16.75h-2.25c-1.104,0-2-0.896-2-2
	s0.896-2,2-2h7.458V36.607c0-2.596,2.112-4.708,4.708-4.708s4.708,2.112,4.708,4.708v15.242h8.25V36.607
	c0-2.596,2.112-4.708,4.708-4.708s4.708,2.112,4.708,4.708v15.242h7.458c1.104,0,2,0.896,2,2s-0.896,2-2,2h-2.25v16.75
	c0,9.225-7.494,16.73-16.714,16.75v64.221C168.333,169.604,155.289,182.649,139.254,182.649z M151.547,55.849v16.75
	c0,7.03,5.72,12.75,12.75,12.75h4c7.03,0,12.75-5.72,12.75-12.75v-16.75H151.547z M174.422,51.849h1.417V36.607
	c0-0.391-0.318-0.708-0.708-0.708s-0.708,0.317-0.708,0.708V51.849z M156.756,51.849h1.417V36.607c0-0.391-0.317-0.708-0.708-0.708
	s-0.708,0.317-0.708,0.708V51.849z"/>
<g>
</g>
<g>
</g>
<g>
</g>
<g>
</g>
<g>
</g>
<g>
</g>
<g>
</g>
<g>
</g>
<g>
</g>
<g>
</g>
<g>
</g>
<g>
</g>
<g>
</g>
<g>
</g>
<g>
</g>
</svg>
