<?xml version="1.0" encoding="iso-8859-1"?>
<!-- Generator: Adobe Illustrator 17.1.0, SVG Export Plug-In . SVG Version: 6.00 Build 0)  -->
<!DOCTYPE svg PUBLIC "-//W3C//DTD SVG 1.1//EN" "http://www.w3.org/Graphics/SVG/1.1/DTD/svg11.dtd">
<svg version="1.1" id="Capa_1" xmlns="http://www.w3.org/2000/svg" xmlns:xlink="http://www.w3.org/1999/xlink" x="0px" y="0px"
	 viewBox="0 0 193.302 193.302" style="enable-background:new 0 0 193.302 193.302;" xml:space="preserve">
<path d="M81.318,193.302c-0.005,0-0.009,0-0.014,0H50.242c-1.004,0-1.853-0.744-1.983-1.74L29.416,47.991
	c-0.074-0.571,0.101-1.146,0.48-1.579c0.379-0.433,0.927-0.681,1.503-0.681h3.354l2.732-7.962c0.644-1.876,2.407-3.136,4.391-3.136
	h3.544c0.278,0,0.523-0.177,0.61-0.441l2.482-7.521c0.628-1.906,2.399-3.187,4.408-3.187h4.67c0.282,0,0.536-0.189,0.616-0.46
	l0.847-2.87c0.762-2.583,2.744-4.63,5.303-5.474l10.527-3.47c0.066-0.022,0.128-0.054,0.183-0.094l4.133-3.077
	c1.184-0.881,2.674-1.147,4.091-0.727c1.415,0.419,2.521,1.454,3.034,2.838c0.108,0.293,0.345,0.381,0.477,0.407
	c0.135,0.027,0.384,0.036,0.597-0.193l3.6-3.888c0.321-0.347,0.692-0.642,1.104-0.876l1.169-0.668
	c3.265-1.864,7.423-1.002,9.675,2.002c0.162,0.216,0.381,0.253,0.497,0.256c0.105-0.001,0.336-0.023,0.509-0.229l3.261-3.897
	c1.771-2.116,4.362-3.224,7.116-3.044c2.752,0.18,5.179,1.619,6.658,3.947c0.172,0.271,0.523,0.374,0.812,0.238l0.542-0.251
	c3.726-1.728,8.234-0.29,10.268,3.277c0.085,0.148,0.223,0.255,0.388,0.301l8.384,2.304c1.57,0.433,2.813,1.674,3.244,3.24
	c1.169,4.26,1.434,5.569,1.493,6.104c0.257,0.574,1.3,2.291,3.119,4.937c0.056,0.08,0.125,0.143,0.214,0.191l2.998,1.667
	c1.473,0.817,2.388,2.373,2.388,4.058v3.236c0,0.103,0.025,0.205,0.072,0.296l2.82,5.405c0.166,0.317,0.296,0.658,0.385,1.011
	l1.448,5.754h2.344c0.576,0,1.124,0.248,1.503,0.681c0.38,0.433,0.555,1.008,0.48,1.579l-18.843,143.571
	c-0.131,0.996-0.979,1.74-1.983,1.74H112.6c-0.005,0-0.012,0-0.02,0H81.333C81.328,193.302,81.323,193.302,81.318,193.302z
	 M130.164,189.302h11.142l18.318-139.571h-1.583c-0.026,0.001-0.057,0.001-0.085,0h-13.854L130.164,189.302z M114.669,189.302
	h11.483c0-0.061,0.004-0.122,0.01-0.184l6.387-63.949c-2.118,6.334-7.987,11.748-15.984,15.167L114.669,189.302z M99.272,189.302
	h11.394l1.837-47.461c-4.056,1.286-8.522,2.095-13.23,2.315V189.302z M83.221,189.302h12.051V144.2
	c-5.152-0.126-10.037-0.957-14.44-2.349L83.221,189.302z M67.15,189.302h12.066l-2.466-48.96
	c-8.003-3.418-13.878-8.835-15.997-15.172l6.387,63.949C67.146,189.18,67.15,189.241,67.15,189.302z M51.997,189.302h11.142
	L49.2,49.731H36.227c-0.03,0.001-0.06,0.001-0.092,0h-2.457L51.997,189.302z M79.678,137.276c4.953,1.866,10.765,2.941,16.973,2.941
	c6.206,0,12.016-1.075,16.967-2.939c0.176-0.102,0.368-0.177,0.572-0.221c9.144-3.604,15.221-9.937,15.221-17.133
	c0-6.472-4.917-12.247-12.559-15.965c-0.228-0.063-0.438-0.164-0.625-0.296c-5.465-2.531-12.243-4.031-19.576-4.031
	c-7.334,0-14.114,1.501-19.579,4.033c-0.186,0.131-0.395,0.232-0.621,0.294c-7.643,3.718-12.56,9.492-12.56,15.965
	c0,7.196,6.079,13.53,15.223,17.134C79.315,137.102,79.505,137.176,79.678,137.276z M119.455,100.884
	c7.729,4.051,12.944,10.109,13.824,16.972l6.803-68.125h-17.656L119.455,100.884z M53.22,49.731l6.803,68.125
	c0.88-6.863,6.095-12.92,13.823-16.971l-2.971-51.153h-8.947c-0.025,0.001-0.052,0.001-0.077,0H53.22z M74.883,49.731l2.867,49.365
	c5.157-2.052,11.134-3.291,17.522-3.447V49.731H74.883z M99.272,95.693c5.921,0.277,11.458,1.484,16.279,3.402l2.868-49.365H99.272
	V95.693z M142.315,45.731h13.119l-1.201-4.774c-0.013-0.047-0.03-0.095-0.053-0.139l-2.82-5.405
	c-0.344-0.659-0.526-1.402-0.526-2.147V30.03c0-0.233-0.127-0.448-0.33-0.561l-2.998-1.666c-0.63-0.35-1.157-0.828-1.565-1.42
	c-3.668-5.332-3.803-6.191-3.808-6.811c-0.026-0.188-0.206-1.203-1.368-5.438c-0.06-0.216-0.227-0.382-0.448-0.443l-8.383-2.304
	c-1.193-0.328-2.188-1.101-2.802-2.176c-1.012-1.774-3.256-2.49-5.109-1.63l-0.541,0.251c-2.101,0.978-4.628,0.237-5.872-1.721
	c-0.788-1.239-2.079-2.005-3.544-2.101c-1.466-0.097-2.845,0.495-3.786,1.62l-3.261,3.897c-0.915,1.094-2.254,1.694-3.684,1.661
	c-1.426-0.038-2.734-0.714-3.591-1.855c-1.046-1.394-2.976-1.793-4.489-0.929l-1.169,0.669c-0.059,0.033-0.109,0.074-0.153,0.121
	l-3.6,3.888c-1.106,1.193-2.722,1.714-4.312,1.399c-1.595-0.316-2.884-1.416-3.448-2.94c-0.098-0.263-0.305-0.359-0.42-0.393
	c-0.115-0.033-0.342-0.065-0.565,0.101l-4.133,3.076c-0.399,0.297-0.844,0.528-1.319,0.685l-10.527,3.47
	c-1.312,0.433-2.328,1.481-2.719,2.806l-0.847,2.87c-0.577,1.96-2.408,3.329-4.452,3.329h-4.67c-0.277,0-0.522,0.177-0.609,0.439
	l-2.482,7.522c-0.629,1.906-2.401,3.187-4.409,3.187h-3.544c-0.274,0-0.519,0.174-0.607,0.434l-2.286,6.665h12.005
	c0.019,0,0.035,0,0.052,0h9.662l2.943-5.426c0.223-0.41,0.295-0.888,0.203-1.345c-0.575-2.875,0.923-5.696,3.543-6.796
	c0.552-0.232,0.968-0.692,1.141-1.265l0.611-2.018c0.607-2.002,2.243-3.564,4.27-4.077l6.825-1.727
	c0.193-0.049,0.376-0.125,0.543-0.227c4.678-2.848,5.361-2.821,6.246-2.527c0.229,0.076,4.654,1.752,6.312,2.679
	c0.957,0.059,4.288-0.211,9.758-0.989c0.317-0.045,0.612-0.163,0.874-0.349l0.657-0.466c1.552-1.101,3.438-1.53,5.313-1.21
	c1.875,0.321,3.512,1.354,4.609,2.907c0.432,0.611,1.155,0.93,1.898,0.83l4.57-0.61c1.648-0.219,3.331,0.262,4.614,1.321
	l3.793,3.132c0.852,0.703,0.972,1.964,0.269,2.815c-0.702,0.852-1.962,0.974-2.815,0.269l-3.793-3.132
	c-0.427-0.353-0.982-0.513-1.539-0.44l-4.569,0.61c-2.221,0.298-4.403-0.657-5.695-2.488c-0.48-0.679-1.196-1.13-2.017-1.271
	c-0.82-0.139-1.645,0.047-2.324,0.529l-0.656,0.465c-0.775,0.551-1.685,0.914-2.627,1.047c-10.777,1.533-11.513,1.031-12.226,0.545
	c-0.579-0.378-3.729-1.665-5.115-2.195c-0.54,0.253-1.633,0.833-3.457,1.944c-0.508,0.309-1.06,0.541-1.642,0.688l-6.825,1.727
	c-0.675,0.171-1.221,0.692-1.423,1.359l-0.611,2.018c-0.521,1.717-1.768,3.099-3.421,3.792c-0.873,0.367-1.372,1.307-1.187,2.236
	c0.293,1.46,0.076,2.894-0.592,4.125l-1.908,3.519h7.497c0.012,0,0.021,0,0.033,0h47.738c0.012,0,0.023,0,0.033,0h21.71
	C142.28,45.731,142.297,45.731,142.315,45.731z"/>
<g>
</g>
<g>
</g>
<g>
</g>
<g>
</g>
<g>
</g>
<g>
</g>
<g>
</g>
<g>
</g>
<g>
</g>
<g>
</g>
<g>
</g>
<g>
</g>
<g>
</g>
<g>
</g>
<g>
</g>
</svg>
