<?xml version="1.0" encoding="iso-8859-1"?>
<!-- Generator: Adobe Illustrator 17.1.0, SVG Export Plug-In . SVG Version: 6.00 Build 0)  -->
<!DOCTYPE svg PUBLIC "-//W3C//DTD SVG 1.1//EN" "http://www.w3.org/Graphics/SVG/1.1/DTD/svg11.dtd">
<svg version="1.1" id="Capa_1" xmlns="http://www.w3.org/2000/svg" xmlns:xlink="http://www.w3.org/1999/xlink" x="0px" y="0px"
	 viewBox="0 0 210.773 210.773" style="enable-background:new 0 0 210.773 210.773;" xml:space="preserve">
<path d="M149.259,210.773H61.514c-1.022,0-1.879-0.771-1.989-1.786L43.409,58.865c-0.061-0.564,0.122-1.128,0.501-1.551
	c0.253-0.281,0.578-0.482,0.935-0.585c-0.032-1.698,0.199-3.933,1.394-5.434c0.779-0.979,1.856-1.537,3.116-1.616
	c0.368-0.023,0.727-0.041,1.074-0.058c3.205-0.154,3.333-0.232,3.433-2.084c0.054-0.992-0.002-1.807-0.052-2.525
	c-0.178-2.591-0.043-4.454,3.302-6.648c1.729-1.135,3.233-1.411,4.442-1.633c1.567-0.287,2.354-0.432,3.537-2.5
	c0.913-1.598,0.884-2.674,0.853-3.813c-0.059-2.162,0.151-4.104,3.337-5.983c2.228-1.313,4.083-1.771,5.573-2.14
	c1.668-0.412,2.372-0.614,3.021-1.479c0.276-0.367,0.547-0.758,0.823-1.154c1.814-2.604,4.292-6.179,9.581-5.68
	c1.475,0.137,2.691,0.482,3.668,0.761c2.281,0.646,2.632,0.747,4.241-2.192c1.218-2.226,1.226-3.743,1.233-5.083
	c0.01-1.896,0.023-4.255,3.89-5.874c4.422-1.853,9.995-3.225,13.859,2.647c1.529,2.325,2.044,3.822,2.384,4.812
	c0.295,0.86,0.313,0.892,0.66,1.13c0.449,0.309,0.958,0.596,1.497,0.899c1.564,0.882,3.339,1.882,3.881,3.782
	c0.136,0.475,0.172,0.945,0.207,1.401c0.11,1.446,0.19,2.491,4.155,2.747c2.898,0.183,4.426-0.339,5.657-0.762
	c1.575-0.541,3.362-1.153,5.907,0.689c0.947,0.687,1.859,1.045,2.74,1.391c1.796,0.706,4.032,1.585,4.659,5.143
	c0.635,3.597-1.367,4.764-2.313,5.268c-0.007,0.341-0.037,0.644-0.068,0.9c0.072,0.017,0.153,0.034,0.245,0.053
	c0.559,0.111,1.296,0.157,2.077,0.206c2.792,0.174,6.615,0.411,9.934,3.832c2.934,3.022,1.885,6.079,1.19,8.102
	c-0.492,1.433-0.673,2.12-0.34,2.688c0.793,1.354,1.885,2.062,2.94,2.745c1.109,0.72,2.367,1.535,2.839,3.042
	c0.358,1.149,0.699,2.984,0.924,4.342h1.031c0.567,0,1.108,0.241,1.487,0.663c0.38,0.423,0.562,0.986,0.501,1.551l-16.116,150.122
	C151.139,210.002,150.281,210.773,149.259,210.773z M63.311,206.773h84.151l4.24-39.5H127.41c-0.011,0-0.021,0-0.031,0
	c-5.618,5.665-13.402,9.178-21.992,9.178s-16.374-3.513-21.992-9.178c-0.01,0-0.021,0-0.031,0H59.071L63.311,206.773z
	 M105.387,118.476c-14.88,0-26.987,12.106-26.987,26.987s12.106,26.987,26.987,26.987c14.881,0,26.987-12.106,26.987-26.987
	c0-6.414-2.249-12.313-6-16.948c-0.368-0.224-0.659-0.563-0.821-0.968C120.606,121.985,113.399,118.476,105.387,118.476z
	 M130.733,163.273h21.399l3.7-34.469h-6.479c-0.015-0.001-0.027-0.001-0.044,0h-9.512c-0.012,0-0.023,0-0.035,0h-8.257
	c3.082,4.814,4.869,10.531,4.869,16.659C136.374,152.086,134.285,158.231,130.733,163.273z M58.641,163.273h21.401
	c-3.554-5.042-5.642-11.187-5.642-17.81c0-6.128,1.787-11.845,4.869-16.659h-7.241c-0.011,0-0.022,0-0.034,0h-9.513
	c-0.014,0-0.028,0-0.043,0h-7.497L58.641,163.273z M151.52,124.804h4.742l6.887-64.153h-0.494c-0.017,0-0.035,0-0.054,0H47.624
	l6.887,64.153h5.759l-5.23-57.017c-0.101-1.1,0.709-2.073,1.809-2.174c1.085-0.114,2.073,0.707,2.174,1.809l5.264,57.382h5.59
	l-3.755-57.068c-0.073-1.102,0.762-2.054,1.864-2.127c1.112-0.083,2.055,0.764,2.127,1.865l3.772,57.33h6.705l-2.22-57.121
	c-0.043-1.104,0.817-2.034,1.921-2.076c1.106-0.083,2.033,0.816,2.076,1.92l2.14,55.06c2.314-2.114,4.949-3.883,7.822-5.224
	L91.24,67.649c-0.024-1.104,0.852-2.02,1.956-2.044c0.015,0,0.03,0,0.045,0c1.084,0,1.975,0.867,1.999,1.956l1.058,48.275
	c2.265-0.697,4.638-1.14,7.089-1.297V67.605c0-1.104,0.896-2,2-2s2,0.896,2,2v46.935c2.818,0.181,5.534,0.739,8.099,1.626
	l1.064-48.604c0.024-1.104,0.917-1.945,2.044-1.956c1.104,0.024,1.979,0.939,1.955,2.044l-1.1,50.206
	c2.89,1.478,5.52,3.396,7.797,5.666l2.177-55.994c0.042-1.104,0.948-1.992,2.076-1.92c1.104,0.042,1.963,0.972,1.92,2.076
	l-2.219,57.121h6.704l3.771-57.33c0.073-1.103,1.039-1.928,2.127-1.865c1.103,0.073,1.938,1.025,1.865,2.127l-3.755,57.068h5.59
	l5.264-57.382c0.101-1.1,1.055-1.901,2.174-1.809c1.1,0.101,1.91,1.074,1.809,2.174L151.52,124.804z M48.852,56.651h111.434
	c-0.203-1.154-0.452-2.409-0.684-3.148c-0.101-0.169-0.76-0.596-1.196-0.879c-1.242-0.805-2.943-1.907-4.216-4.078
	c-1.297-2.211-0.543-4.406,0.008-6.01c0.673-1.961,0.899-2.805-0.277-4.018c-2.242-2.31-4.819-2.47-7.313-2.625
	c-0.92-0.058-1.788-0.111-2.613-0.276c-3.437-0.688-3.674-2.545-3.453-4.271c0.039-0.309,0.076-0.6,0.059-0.898
	c-0.122-2.045,1.402-2.854,2.054-3.198c0.13-0.069,0.324-0.172,0.389-0.227c-0.013-0.009,0.041-0.253-0.065-0.853
	c-0.238-1.351-0.573-1.481-2.183-2.114c-1.01-0.396-2.266-0.891-3.623-1.874c-0.865-0.626-0.919-0.607-2.264-0.146
	c-1.401,0.48-3.518,1.205-7.213,0.97c-6.547-0.423-7.66-3.489-7.886-6.434c-0.017-0.217-0.039-0.513-0.064-0.609
	c-0.127-0.34-1.345-1.026-1.999-1.396c-0.592-0.333-1.204-0.678-1.8-1.088c-1.444-0.992-1.816-2.077-2.177-3.126
	c-0.308-0.896-0.69-2.01-1.942-3.913c-1.606-2.441-3.589-3.412-8.972-1.157c-1.427,0.598-1.427,0.627-1.435,2.206
	c-0.008,1.541-0.021,3.869-1.724,6.981c-2.909,5.318-5.611,5.037-8.843,4.12c-0.904-0.257-1.838-0.522-2.945-0.626
	c-2.818-0.264-4.089,1.343-5.928,3.983c-0.304,0.437-0.603,0.864-0.905,1.269c-1.531,2.041-3.428,2.51-5.262,2.962
	c-1.365,0.337-2.776,0.686-4.5,1.702c-1.414,0.834-1.408,1.047-1.371,2.43c0.038,1.407,0.09,3.334-1.379,5.905
	c-2.104,3.683-4.424,4.108-6.288,4.45c-1.029,0.188-1.917,0.352-2.969,1.042c-1.639,1.076-1.632,1.187-1.505,3.031
	c0.054,0.792,0.122,1.778,0.055,3.015c-0.299,5.528-4.307,5.723-7.234,5.864c-0.328,0.016-0.668,0.032-1.018,0.054
	c-0.14,0.009-0.172,0.035-0.235,0.113C48.971,54.285,48.833,55.485,48.852,56.651z"/>
<g>
</g>
<g>
</g>
<g>
</g>
<g>
</g>
<g>
</g>
<g>
</g>
<g>
</g>
<g>
</g>
<g>
</g>
<g>
</g>
<g>
</g>
<g>
</g>
<g>
</g>
<g>
</g>
<g>
</g>
</svg>
