<?xml version="1.0" encoding="iso-8859-1"?>
<!-- Generator: Adobe Illustrator 17.1.0, SVG Export Plug-In . SVG Version: 6.00 Build 0)  -->
<!DOCTYPE svg PUBLIC "-//W3C//DTD SVG 1.1//EN" "http://www.w3.org/Graphics/SVG/1.1/DTD/svg11.dtd">
<svg version="1.1" id="Capa_1" xmlns="http://www.w3.org/2000/svg" xmlns:xlink="http://www.w3.org/1999/xlink" x="0px" y="0px"
	 viewBox="0 0 188.367 188.367" style="enable-background:new 0 0 188.367 188.367;" xml:space="preserve">
<path d="M186.367,165.395H158.69c-1.104,0-2-0.896-2-2s0.896-2,2-2h3.209l1.818-97.069c-2.475,3.616-6.222,8.242-11.578,12.882
	c-10.308,8.928-28.797,19.571-58.341,19.571c-29.552,0-47.836-10.649-57.97-19.583c-5.157-4.546-8.771-9.081-11.176-12.666
	l1.814,96.864h3.208c1.104,0,2,0.896,2,2s-0.896,2-2,2H2c-1.104,0-2-0.896-2-2s0.896-2,2-2h3.208l1.963-104.82
	c0.021-1.09,0.91-1.962,2-1.962h0.167v-4.739c-4.59-2.366-7.736-7.154-7.736-12.664c0-7.85,6.386-14.236,14.236-14.236
	s14.236,6.386,14.236,14.236c0,5.51-3.146,10.298-7.736,12.664v4.739h0.12c0.13-0.004,0.255,0.006,0.379,0.027
	c0.279,0.047,0.539,0.151,0.766,0.301c0.246,0.161,0.457,0.377,0.615,0.639c0.06,0.099,0.111,0.203,0.153,0.312
	c0.234,0.557,4.126,9.567,14.267,18.448c9.606,8.412,26.975,18.439,55.161,18.439c53.43,0,69.694-35.743,70.209-36.916
	c0.042-0.105,0.093-0.206,0.152-0.301c0.156-0.255,0.365-0.465,0.605-0.623c0.231-0.152,0.496-0.257,0.78-0.302
	c0.118-0.019,0.232-0.028,0.363-0.025h0.119v-4.739c-4.591-2.366-7.736-7.154-7.736-12.664c0-7.85,6.387-14.236,14.236-14.236
	s14.236,6.386,14.236,14.236c0,5.51-3.146,10.298-7.736,12.664v4.739h0.167c1.09,0,1.979,0.873,2,1.962l1.963,104.82h3.209
	c1.104,0,2,0.896,2,2S187.472,165.395,186.367,165.395z M165.9,161.395h13.257l-1.925-102.782h-9.407L165.9,161.395z M9.209,161.395
	h13.258L20.542,58.612h-9.408L9.209,161.395z M170.028,54.612h5v-3.167h-5V54.612z M13.338,54.612h5v-3.167h-5V54.612z
	 M172.528,47.445c5.645,0,10.236-4.592,10.236-10.236s-4.592-10.236-10.236-10.236s-10.236,4.592-10.236,10.236
	S166.884,47.445,172.528,47.445z M15.838,47.445c5.645,0,10.236-4.592,10.236-10.236s-4.592-10.236-10.236-10.236
	S5.602,31.564,5.602,37.209S10.194,47.445,15.838,47.445z"/>
<g>
</g>
<g>
</g>
<g>
</g>
<g>
</g>
<g>
</g>
<g>
</g>
<g>
</g>
<g>
</g>
<g>
</g>
<g>
</g>
<g>
</g>
<g>
</g>
<g>
</g>
<g>
</g>
<g>
</g>
</svg>
