<?xml version="1.0" encoding="iso-8859-1"?>
<!-- Generator: Adobe Illustrator 17.1.0, SVG Export Plug-In . SVG Version: 6.00 Build 0)  -->
<!DOCTYPE svg PUBLIC "-//W3C//DTD SVG 1.1//EN" "http://www.w3.org/Graphics/SVG/1.1/DTD/svg11.dtd">
<svg version="1.1" id="Capa_1" xmlns="http://www.w3.org/2000/svg" xmlns:xlink="http://www.w3.org/1999/xlink" x="0px" y="0px"
	 viewBox="0 0 203.167 203.167" style="enable-background:new 0 0 203.167 203.167;" xml:space="preserve">
<path d="M184.566,149.496H152.89c-1.104,0-2-0.896-2-2v-7.693H52.277v7.693c0,1.104-0.896,2-2,2H18.601c-1.104,0-2-0.896-2-2v-7.693
	h-3.853C5.719,139.803,0,134.084,0,127.054v-50.75c0-7.029,5.719-12.748,12.749-12.748h114.057
	c5.978-6.097,14.303-9.885,23.495-9.885s17.517,3.788,23.495,9.885h16.624c7.03,0,12.749,5.719,12.749,12.748v50.75
	c0,7.03-5.719,12.749-12.749,12.749h-3.853v7.693C186.566,148.601,185.67,149.496,184.566,149.496z M154.89,145.496h27.676v-5.693
	H154.89V145.496z M20.601,145.496h27.676v-5.693H20.601V145.496z M184.566,135.803h5.853c4.824,0,8.749-3.925,8.749-8.749v-50.75
	c0-4.823-3.925-8.748-8.749-8.748h-13.265c2.917,4.105,4.842,8.807,5.642,13.768c0,0.002,0.001,0.005,0.001,0.007
	c0,0.001,0,0.002,0,0.003c0.247,1.531,0.387,3.099,0.414,4.692c0,0,0,0,0,0.001c0,0.006,0,0.012,0,0.018c0,0.003,0,0.006,0,0.009
	c0,0.005,0,0.009,0,0.014c0,0.004,0,0.009,0,0.014c0,0.003,0,0.006,0,0.009c0,0.007,0,0.012,0,0.018c0,0.003,0,0.005,0,0.008
	c0,0.006,0,0.014,0,0.02c0,0.003,0,0.003,0,0.005c0,0.008,0,0.016,0,0.023l0,0.002c0.001,0.141,0.002,0.281,0.002,0.423
	c0,0.001,0,0.001,0,0.001c0,18.053-14.608,32.757-32.624,32.915c-0.194,0.002-0.39,0.002-0.584,0
	c-18.017-0.158-32.625-14.862-32.625-32.915c0-0.001,0-0.001,0-0.001c0-0.149,0.001-0.3,0.003-0.449c0-0.001,0-0.002,0-0.003
	c0-0.007,0-0.015,0-0.021c0-0.002,0-0.004,0-0.006c0-0.007,0-0.013,0-0.019c0-0.003,0-0.006,0-0.009c0-0.005,0-0.01,0-0.016
	c0-0.003,0-0.008,0-0.011c0-0.004,0-0.007,0-0.011c0-0.005,0-0.011,0-0.017c0,0,0-0.001,0-0.002c0.027-1.585,0.166-3.143,0.41-4.666
	c0-0.002,0-0.003,0.001-0.005v-0.003c0.797-4.971,2.723-9.682,5.646-13.795H12.749C7.925,67.556,4,71.48,4,76.304v10.684h80.01
	c1.104,0,2,0.896,2,2s-0.896,2-2,2H4v8.691h80.01c1.104,0,2,0.896,2,2s-0.896,2-2,2H4v8.692h80.01c1.104,0,2,0.896,2,2s-0.896,2-2,2
	H4v10.683c0,4.824,3.925,8.749,8.749,8.749H184.566z M150.067,115.503c0.155,0.002,0.312,0.002,0.467,0
	c15.837-0.126,28.683-13.049,28.683-28.916c0-0.14-0.001-0.278-0.003-0.419l0,0c0-0.008,0-0.015,0-0.021c0-0.001,0-0.002,0-0.002
	c0-0.007,0-0.014,0-0.02c0-0.002,0-0.003,0-0.005c0-0.006,0-0.011,0-0.017c0-0.002,0-0.005,0-0.007c0-0.004,0-0.009,0-0.013
	s0-0.007,0-0.011c0-0.001,0-0.003,0-0.004c-0.026-1.465-0.162-2.915-0.404-4.341c-2.317-13.64-14.219-24.058-28.508-24.058
	c-14.301,0-26.21,10.436-28.514,24.092c-0.239,1.415-0.373,2.855-0.398,4.31v0.001c0,0.004,0,0.008,0,0.012s0,0.008,0,0.012
	c0,0.002,0,0.005,0,0.007c0,0.006,0,0.011,0,0.017c0,0.001,0,0.003,0,0.004c0,0.007,0,0.013,0,0.02c0,0.001,0,0.002,0,0.003
	c0,0.008,0,0.014,0,0.021l0,0c-0.002,0.14-0.003,0.279-0.003,0.42C121.384,102.454,134.229,115.377,150.067,115.503z M150.3,109.479
	c-12.622,0-22.891-10.269-22.891-22.891s10.269-22.892,22.891-22.892s22.891,10.27,22.891,22.892S162.922,109.479,150.3,109.479z
	 M150.3,67.696c-10.417,0-18.891,8.475-18.891,18.892c0,10.416,8.475,18.891,18.891,18.891s18.891-8.475,18.891-18.891
	C169.191,76.171,160.717,67.696,150.3,67.696z M150.3,103.232c-9.178,0-16.645-7.467-16.645-16.645s7.467-16.645,16.645-16.645
	c9.178,0,16.645,7.467,16.645,16.645S159.478,103.232,150.3,103.232z M150.3,73.943c-6.973,0-12.645,5.672-12.645,12.645
	s5.672,12.645,12.645,12.645c6.972,0,12.645-5.672,12.645-12.645S157.272,73.943,150.3,73.943z"/>
<g>
</g>
<g>
</g>
<g>
</g>
<g>
</g>
<g>
</g>
<g>
</g>
<g>
</g>
<g>
</g>
<g>
</g>
<g>
</g>
<g>
</g>
<g>
</g>
<g>
</g>
<g>
</g>
<g>
</g>
</svg>
