<?xml version="1.0" encoding="iso-8859-1"?>
<!-- Generator: Adobe Illustrator 17.1.0, SVG Export Plug-In . SVG Version: 6.00 Build 0)  -->
<!DOCTYPE svg PUBLIC "-//W3C//DTD SVG 1.1//EN" "http://www.w3.org/Graphics/SVG/1.1/DTD/svg11.dtd">
<svg version="1.1" id="Capa_1" xmlns="http://www.w3.org/2000/svg" xmlns:xlink="http://www.w3.org/1999/xlink" x="0px" y="0px"
	 viewBox="0 0 218.284 218.284" style="enable-background:new 0 0 218.284 218.284;" xml:space="preserve">
<path d="M216.284,189.815h-29.906c-0.078,0-0.156-0.005-0.232-0.014c-0.076,0.009-0.153,0.014-0.231,0.014h-29.906
	c-0.976,0-1.809-0.704-1.972-1.666c-0.163-0.962,0.393-1.901,1.313-2.223l28.797-10.041V60.423
	c-8.453,7.64-33.259,26.09-75.633,26.09c-41.45,0-65.614-17.657-74.375-25.587v114.959l28.797,10.041
	c0.921,0.321,1.476,1.261,1.313,2.223c-0.163,0.962-0.997,1.666-1.972,1.666H32.37c-0.079,0-0.156-0.005-0.232-0.014
	c-0.076,0.009-0.153,0.014-0.232,0.014H2c-0.976,0-1.809-0.704-1.972-1.666c-0.163-0.962,0.393-1.901,1.313-2.223l28.797-10.041
	V57.884h-5.677c-1.104,0-2-0.896-2-2s0.896-2,2-2h5.677v-2.587c-5.392-0.949-9.501-5.668-9.501-11.327
	c0-6.342,5.159-11.501,11.501-11.501s11.501,5.159,11.501,11.501c0,5.659-4.109,10.378-9.501,11.327v2.587h5.677
	c1.104,0,2,0.896,2,2s-0.896,2-2,2h-3.001c8.306,7.396,31.931,24.629,71.699,24.629c39.75,0,63.858-17.215,72.396-24.629h-2.44
	c-1.104,0-2-0.896-2-2s0.896-2,2-2h5.677v-2.587c-5.392-0.949-9.501-5.668-9.501-11.327c0-6.342,5.16-11.501,11.501-11.501
	s11.501,5.159,11.501,11.501c0,5.659-4.109,10.378-9.501,11.327v2.587h5.677c1.104,0,2,0.896,2,2s-0.896,2-2,2h-5.677v118.002
	l28.796,10.04c0.921,0.321,1.476,1.261,1.313,2.223C218.093,189.111,217.26,189.815,216.284,189.815z M13.811,185.815h18.096
	c0.079,0,0.156,0.005,0.232,0.014c0.076-0.009,0.153-0.014,0.232-0.014h18.096l-18.328-6.391L13.811,185.815z M167.819,185.815
	h18.096c0.078,0,0.156,0.005,0.231,0.014c0.076-0.009,0.154-0.014,0.232-0.014h18.096l-18.327-6.391L167.819,185.815z
	 M186.146,32.469c-4.136,0-7.501,3.365-7.501,7.501s3.365,7.501,7.501,7.501s7.501-3.365,7.501-7.501S190.283,32.469,186.146,32.469
	z M32.139,32.469c-4.136,0-7.501,3.365-7.501,7.501s3.365,7.501,7.501,7.501s7.501-3.365,7.501-7.501S36.275,32.469,32.139,32.469z
	 M176.645,174.513H41.176c-0.889,0-1.672-0.587-1.92-1.441c-0.249-0.854,0.097-1.769,0.847-2.246l38.331-24.379
	c0.321-0.204,0.693-0.313,1.073-0.313h58.807c0.38,0,0.752,0.108,1.073,0.313l38.331,24.379c0.75,0.478,1.096,1.393,0.847,2.246
	C178.317,173.926,177.534,174.513,176.645,174.513z M48.048,170.513h121.726l-32.042-20.379H80.089L48.048,170.513z"/>
<g>
</g>
<g>
</g>
<g>
</g>
<g>
</g>
<g>
</g>
<g>
</g>
<g>
</g>
<g>
</g>
<g>
</g>
<g>
</g>
<g>
</g>
<g>
</g>
<g>
</g>
<g>
</g>
<g>
</g>
</svg>
