<?xml version="1.0" encoding="iso-8859-1"?>
<!-- Generator: Adobe Illustrator 17.1.0, SVG Export Plug-In . SVG Version: 6.00 Build 0)  -->
<!DOCTYPE svg PUBLIC "-//W3C//DTD SVG 1.1//EN" "http://www.w3.org/Graphics/SVG/1.1/DTD/svg11.dtd">
<svg version="1.1" id="Capa_1" xmlns="http://www.w3.org/2000/svg" xmlns:xlink="http://www.w3.org/1999/xlink" x="0px" y="0px"
	 viewBox="0 0 205.106 205.106" style="enable-background:new 0 0 205.106 205.106;" xml:space="preserve">
<path d="M59.103,205.106c-3.925,0-7.614-1.528-10.39-4.304L4.301,156.39c-5.729-5.729-5.729-15.051,0-20.779L135.607,4.304
	C138.382,1.528,142.072,0,145.997,0s7.614,1.528,10.39,4.304l44.412,44.413c2.775,2.775,4.304,6.465,4.304,10.39
	s-1.528,7.614-4.304,10.39L69.493,200.803C66.718,203.578,63.027,205.106,59.103,205.106z M145.997,4
	c-2.856,0-5.542,1.112-7.563,3.132L7.129,138.438c-4.169,4.17-4.169,10.953,0,15.123l44.412,44.413
	c2.02,2.02,4.705,3.132,7.562,3.132s5.542-1.112,7.563-3.132L197.971,66.668c4.169-4.17,4.169-10.953,0-15.123L153.559,7.132
	C151.539,5.112,148.854,4,145.997,4z M73.192,168.478c-0.501,0-0.985-0.188-1.356-0.53c-0.41-0.379-0.644-0.911-0.644-1.47v-8.086
	c0-1.021,0.77-1.879,1.785-1.988c9.76-1.053,17.701-8.562,19.313-18.261c0.16-0.965,0.994-1.672,1.973-1.672h8.156
	c0.573,0,1.118,0.246,1.498,0.675c0.38,0.43,0.557,1.001,0.487,1.569c-1.966,15.955-15.024,28.469-31.052,29.756
	C73.298,168.476,73.244,168.478,73.192,168.478z M75.192,160.124v4.107c12.396-1.913,22.402-11.474,24.878-23.761h-4.169
	C93.539,150.532,85.346,158.304,75.192,160.124z M65.276,168.146c-0.109,0-0.22-0.009-0.329-0.027
	c-14.758-2.461-26.341-14.552-28.17-29.403c-0.069-0.568,0.107-1.14,0.487-1.569c0.38-0.429,0.925-0.675,1.498-0.675h8.156
	c0.979,0,1.813,0.707,1.973,1.672c1.472,8.856,8.076,15.856,16.826,17.834c0.911,0.206,1.559,1.017,1.559,1.951v8.218
	c0,0.588-0.259,1.146-0.707,1.526C66.205,167.979,65.746,168.146,65.276,168.146z M41.112,140.471
	c2.282,11.291,10.998,20.415,22.164,23.217v-4.212c-9.02-2.625-15.864-9.855-17.997-19.005H41.112z M70.591,149.566
	c-4.021,0-7.802-1.565-10.645-4.409c-2.844-2.843-4.409-6.623-4.409-10.645s1.565-7.802,4.409-10.645
	c2.843-2.844,6.623-4.409,10.645-4.409c4.021,0,7.801,1.565,10.645,4.409c2.844,2.843,4.409,6.623,4.409,10.645
	s-1.565,7.802-4.409,10.645C78.392,148.001,74.611,149.566,70.591,149.566z M70.591,123.459c-2.953,0-5.729,1.149-7.816,3.237
	s-3.237,4.863-3.237,7.816s1.149,5.729,3.237,7.816s4.863,3.237,7.816,3.237c2.952,0,5.729-1.149,7.816-3.237
	s3.237-4.863,3.237-7.816s-1.149-5.729-3.237-7.816S73.543,123.459,70.591,123.459z M102.418,132.555h-8.156
	c-0.979,0-1.813-0.707-1.973-1.672c-1.611-9.699-9.553-17.208-19.312-18.26c-1.017-0.109-1.786-0.967-1.786-1.988v-8.087
	c0-0.559,0.233-1.091,0.644-1.47c0.41-0.378,0.953-0.574,1.517-0.523c16.027,1.287,29.086,13.801,31.052,29.756
	c0.069,0.568-0.107,1.14-0.487,1.569C103.536,132.309,102.991,132.555,102.418,132.555z M95.901,128.555h4.169
	c-2.476-12.287-12.481-21.848-24.878-23.761v4.108C85.346,110.722,93.539,118.493,95.901,128.555z M46.919,132.555h-8.156
	c-0.573,0-1.118-0.246-1.498-0.675c-0.38-0.43-0.557-1.001-0.487-1.569c1.829-14.852,13.412-26.942,28.17-29.403
	c0.579-0.098,1.173,0.067,1.622,0.446c0.448,0.38,0.707,0.938,0.707,1.526v8.218c0,0.935-0.647,1.744-1.559,1.951
	c-8.75,1.979-15.354,8.979-16.826,17.834C48.732,131.848,47.898,132.555,46.919,132.555z M41.112,128.555h4.167
	c2.133-9.148,8.977-16.379,17.997-19.005v-4.212C52.11,108.14,43.395,117.264,41.112,128.555z M130.941,122.729
	c-1.381,0-2.678-0.537-3.653-1.513l-5.473-5.473c-2.014-2.014-2.014-5.291-0.001-7.307l1.283-1.282
	c0.977-0.976,2.273-1.513,3.653-1.513c1.381,0,2.678,0.537,3.653,1.513l5.473,5.472c2.014,2.016,2.014,5.293,0,7.307l-1.283,1.283
	C133.617,122.191,132.32,122.729,130.941,122.729z M126.75,109.642c-0.312,0-0.604,0.121-0.825,0.342l-1.282,1.281
	c-0.454,0.455-0.455,1.195,0,1.65l5.473,5.473c0.441,0.439,1.208,0.439,1.649,0l1.283-1.283c0.455-0.455,0.454-1.195-0.001-1.65
	l-5.472-5.472C127.355,109.763,127.062,109.642,126.75,109.642z M142.462,111.207c-1.381,0-2.679-0.537-3.654-1.514l-5.472-5.472
	c-0.976-0.976-1.514-2.273-1.514-3.653s0.538-2.678,1.514-3.653l1.283-1.283c0.975-0.976,2.272-1.513,3.653-1.513
	c1.38,0,2.678,0.537,3.653,1.514l5.472,5.472c2.014,2.016,2.014,5.293,0,7.307l-1.282,1.282
	C145.14,110.67,143.842,111.207,142.462,111.207z M138.273,98.119c-0.312,0-0.604,0.121-0.824,0.342l-1.284,1.283
	c-0.22,0.22-0.342,0.513-0.342,0.824s0.122,0.604,0.342,0.825l5.473,5.472c0.441,0.441,1.209,0.441,1.65,0l1.282-1.282
	c0.454-0.455,0.454-1.195-0.001-1.65l-5.472-5.472C138.876,98.24,138.583,98.119,138.273,98.119z M111.977,103.765
	c-1.38,0-2.677-0.537-3.653-1.512l-5.472-5.474c-0.977-0.975-1.514-2.272-1.514-3.652c0-1.381,0.537-2.679,1.514-3.654l1.281-1.282
	c0.977-0.976,2.273-1.513,3.654-1.513c1.38,0,2.677,0.537,3.653,1.512l5.472,5.474c0.977,0.975,1.514,2.272,1.514,3.653
	c0,1.38-0.537,2.678-1.514,3.653l-1.282,1.282C114.654,103.228,113.358,103.765,111.977,103.765z M107.787,90.678
	c-0.312,0-0.604,0.121-0.825,0.341l-1.281,1.283c-0.222,0.221-0.343,0.514-0.343,0.825c0,0.311,0.121,0.604,0.342,0.823l5.472,5.474
	c0.441,0.439,1.209,0.439,1.65,0l1.282-1.282c0.221-0.221,0.342-0.514,0.342-0.825s-0.121-0.604-0.342-0.824l-5.472-5.474
	C108.392,90.799,108.099,90.678,107.787,90.678z M153.984,99.685c-1.38,0-2.678-0.537-3.653-1.513l-5.473-5.472
	c-2.014-2.016-2.014-5.293,0-7.307l1.283-1.283c0.975-0.976,2.272-1.513,3.653-1.513c1.38,0,2.678,0.537,3.653,1.514l5.472,5.472
	c2.015,2.015,2.015,5.292,0,7.307l-1.282,1.282C156.661,99.147,155.363,99.685,153.984,99.685z M149.794,86.598
	c-0.312,0-0.604,0.121-0.824,0.342l-1.284,1.283c-0.455,0.454-0.454,1.194,0.001,1.649l5.472,5.472c0.441,0.439,1.209,0.439,1.65,0
	l1.282-1.282c0.455-0.455,0.455-1.195,0-1.65l-5.472-5.472C150.399,86.719,150.106,86.598,149.794,86.598z M123.498,92.243
	c-1.379,0-2.677-0.537-3.653-1.512l-5.472-5.474c-0.977-0.975-1.514-2.272-1.514-3.653c0-1.38,0.537-2.678,1.514-3.653l1.282-1.282
	c0.977-0.976,2.273-1.513,3.653-1.513c1.381,0,2.678,0.537,3.653,1.513l5.472,5.473c0.977,0.975,1.514,2.272,1.514,3.653
	c0,1.38-0.537,2.678-1.514,3.653l-1.282,1.282C126.176,91.706,124.879,92.243,123.498,92.243z M119.309,79.156
	c-0.312,0-0.604,0.121-0.825,0.342l-1.282,1.281c-0.221,0.221-0.342,0.514-0.342,0.825s0.121,0.604,0.342,0.824l5.472,5.474
	c0.441,0.439,1.209,0.439,1.65,0l1.282-1.282c0.221-0.221,0.342-0.514,0.342-0.825s-0.121-0.604-0.342-0.824l-5.472-5.474
	C119.913,79.277,119.62,79.156,119.309,79.156z M165.505,88.163c-1.38,0-2.677-0.537-3.653-1.512l-5.472-5.474
	c-0.977-0.975-1.514-2.272-1.514-3.652c0-1.381,0.537-2.679,1.514-3.654l1.281-1.282c0.977-0.976,2.273-1.514,3.654-1.514
	c1.38,0,2.677,0.538,3.653,1.513l5.472,5.474c0.977,0.975,1.514,2.272,1.514,3.653c0,1.38-0.537,2.678-1.514,3.653l-1.282,1.282
	C168.183,87.626,166.886,88.163,165.505,88.163z M161.316,75.075c-0.312,0-0.604,0.122-0.825,0.342l-1.281,1.283
	c-0.222,0.221-0.343,0.514-0.343,0.825c0,0.311,0.121,0.604,0.342,0.823l5.472,5.474c0.441,0.439,1.209,0.439,1.65,0l1.282-1.282
	c0.221-0.221,0.342-0.514,0.342-0.825s-0.121-0.604-0.342-0.824l-5.472-5.474C161.92,75.197,161.627,75.075,161.316,75.075z
	 M93.014,84.802c-1.381,0-2.678-0.537-3.653-1.513l-5.473-5.473c-2.014-2.014-2.014-5.291-0.001-7.307l1.283-1.282
	c0.977-0.976,2.273-1.514,3.653-1.514c1.381,0,2.678,0.538,3.653,1.514l5.473,5.472c2.014,2.016,2.014,5.293,0,7.307l-1.283,1.283
	C95.691,84.265,94.394,84.802,93.014,84.802z M88.823,71.714c-0.312,0-0.604,0.122-0.825,0.343l-1.282,1.281
	c-0.454,0.455-0.455,1.195,0,1.65l5.473,5.473c0.439,0.438,1.206,0.439,1.649,0l1.283-1.283c0.455-0.455,0.454-1.195-0.001-1.65
	l-5.472-5.472C89.428,71.836,89.135,71.714,88.823,71.714z M135.02,80.723c-1.38,0-2.677-0.538-3.653-1.513l-5.472-5.474
	c-2.014-2.014-2.014-5.291-0.001-7.307l1.283-1.282c0.977-0.976,2.274-1.513,3.653-1.513c1.381,0,2.678,0.537,3.653,1.513
	l5.473,5.473c0.976,0.976,1.514,2.272,1.514,3.652c0,1.381-0.538,2.678-1.514,3.653l-1.283,1.283
	C137.697,80.185,136.401,80.723,135.02,80.723z M130.83,67.635c-0.312,0-0.604,0.121-0.825,0.342l-1.282,1.281
	c-0.454,0.455-0.454,1.195,0,1.65l5.472,5.473c0.441,0.439,1.209,0.439,1.65,0l1.283-1.283c0.22-0.221,0.342-0.514,0.342-0.825
	s-0.122-0.604-0.342-0.824l-5.473-5.473C131.435,67.756,131.142,67.635,130.83,67.635z M104.535,73.28
	c-1.381,0-2.679-0.537-3.654-1.514l-5.472-5.472c-2.014-2.016-2.014-5.293,0-7.307l1.283-1.283c0.975-0.976,2.272-1.513,3.653-1.513
	c1.38,0,2.678,0.537,3.653,1.514l5.472,5.472c2.015,2.016,2.014,5.293,0,7.307l-1.282,1.282
	C107.213,72.743,105.915,73.28,104.535,73.28z M100.346,60.192c-0.312,0-0.604,0.121-0.824,0.342l-1.284,1.283
	c-0.454,0.454-0.454,1.194,0.001,1.649l5.472,5.472c0.441,0.441,1.209,0.441,1.65,0l1.282-1.282c0.455-0.455,0.454-1.195-0.001-1.65
	l-5.472-5.472C100.949,60.313,100.656,60.192,100.346,60.192z M182.409,69.471c-2.363,0-4.586-0.92-6.258-2.592
	s-2.593-3.895-2.593-6.259s0.921-4.587,2.593-6.258c1.672-1.672,3.895-2.593,6.258-2.593c2.364,0,4.587,0.921,6.259,2.593
	c1.672,1.671,2.593,3.894,2.593,6.258s-0.921,4.587-2.593,6.259S184.774,69.471,182.409,69.471z M182.409,55.77
	c-1.295,0-2.513,0.505-3.43,1.421c-0.916,0.916-1.421,2.134-1.421,3.43s0.505,2.514,1.421,3.431c0.916,0.916,2.135,1.42,3.43,1.42
	c1.296,0,2.515-0.504,3.431-1.42c0.916-0.917,1.421-2.135,1.421-3.431s-0.505-2.514-1.421-3.43
	C184.923,56.274,183.705,55.77,182.409,55.77z M146.542,69.2c-1.381,0-2.679-0.537-3.654-1.514l-5.472-5.472
	c-2.014-2.014-2.014-5.291-0.001-7.307l1.283-1.282c0.976-0.977,2.273-1.514,3.653-1.514c1.381,0,2.679,0.537,3.654,1.514
	l5.472,5.472c2.014,2.016,2.014,5.293,0,7.307l-1.282,1.282C149.22,68.663,147.922,69.2,146.542,69.2z M142.352,56.112
	c-0.312,0-0.604,0.121-0.825,0.342l-1.282,1.282c-0.454,0.455-0.455,1.195,0,1.65l5.473,5.472c0.441,0.441,1.209,0.441,1.65,0
	l1.282-1.282c0.455-0.455,0.454-1.195-0.001-1.65l-5.472-5.472C142.956,56.233,142.663,56.112,142.352,56.112z M116.057,61.759
	c-1.381,0-2.679-0.537-3.654-1.514l-5.471-5.472c-0.977-0.976-1.514-2.273-1.514-3.653c0-1.381,0.537-2.679,1.514-3.654l1.282-1.281
	c0.975-0.977,2.272-1.514,3.653-1.514c1.38,0,2.678,0.537,3.653,1.514l5.472,5.472c2.015,2.015,2.015,5.292,0,7.307l-1.282,1.282
	C118.735,61.222,117.438,61.759,116.057,61.759z M111.867,48.671c-0.312,0-0.604,0.121-0.824,0.342l-1.283,1.282
	c-0.221,0.221-0.342,0.514-0.342,0.825s0.121,0.604,0.342,0.825l5.472,5.472c0.441,0.441,1.21,0.441,1.649,0l1.283-1.282
	c0.22-0.221,0.341-0.514,0.341-0.825s-0.121-0.604-0.341-0.825l-5.472-5.472C112.472,48.792,112.179,48.671,111.867,48.671z
	 M127.578,50.237c-1.38,0-2.677-0.538-3.653-1.513l-5.472-5.473c-0.977-0.976-1.514-2.273-1.514-3.653
	c0-1.381,0.537-2.679,1.514-3.654l1.281-1.282c0.977-0.976,2.273-1.513,3.654-1.513c1.38,0,2.677,0.537,3.653,1.512l5.472,5.474
	c0.977,0.975,1.514,2.272,1.514,3.653c0,1.38-0.537,2.678-1.514,3.653l-1.282,1.282C130.256,49.699,128.959,50.237,127.578,50.237z
	 M123.389,37.149c-0.312,0-0.604,0.121-0.825,0.341l-1.281,1.283c-0.222,0.221-0.343,0.514-0.343,0.825s0.121,0.604,0.342,0.825
	l5.472,5.472c0.441,0.439,1.209,0.439,1.65,0l1.282-1.282c0.221-0.221,0.342-0.514,0.342-0.825s-0.121-0.604-0.342-0.824
	l-5.472-5.474C123.993,37.271,123.7,37.149,123.389,37.149z M144.484,31.545c-2.364,0-4.587-0.921-6.259-2.593
	s-2.593-3.895-2.593-6.259s0.921-4.587,2.593-6.258c1.672-1.672,3.895-2.593,6.259-2.593c2.363,0,4.586,0.921,6.258,2.593
	c1.672,1.671,2.593,3.894,2.593,6.258s-0.921,4.587-2.593,6.259S146.847,31.545,144.484,31.545z M144.484,17.843
	c-1.296,0-2.514,0.505-3.431,1.421c-0.916,0.916-1.421,2.134-1.421,3.43s0.505,2.514,1.421,3.431
	c0.917,0.916,2.135,1.421,3.431,1.421c1.295,0,2.513-0.505,3.43-1.421c0.916-0.917,1.421-2.135,1.421-3.431s-0.505-2.514-1.421-3.43
	C146.996,18.348,145.778,17.843,144.484,17.843z"/>
<g>
</g>
<g>
</g>
<g>
</g>
<g>
</g>
<g>
</g>
<g>
</g>
<g>
</g>
<g>
</g>
<g>
</g>
<g>
</g>
<g>
</g>
<g>
</g>
<g>
</g>
<g>
</g>
<g>
</g>
</svg>
