<?xml version="1.0" encoding="iso-8859-1"?>
<!-- Generator: Adobe Illustrator 17.1.0, SVG Export Plug-In . SVG Version: 6.00 Build 0)  -->
<!DOCTYPE svg PUBLIC "-//W3C//DTD SVG 1.1//EN" "http://www.w3.org/Graphics/SVG/1.1/DTD/svg11.dtd">
<svg version="1.1" id="Capa_1" xmlns="http://www.w3.org/2000/svg" xmlns:xlink="http://www.w3.org/1999/xlink" x="0px" y="0px"
	 viewBox="0 0 190.333 190.333" style="enable-background:new 0 0 190.333 190.333;" xml:space="preserve">
<path d="M95.167,190.333C42.692,190.333,0,147.642,0,95.167S42.692,0,95.167,0s95.167,42.691,95.167,95.167
	S147.642,190.333,95.167,190.333z M95.167,4C44.897,4,4,44.897,4,95.167s40.897,91.167,91.167,91.167s91.167-40.897,91.167-91.167
	S145.437,4,95.167,4z M95.167,174.747c-43.88,0-79.58-35.7-79.58-79.58s35.7-79.58,79.58-79.58s79.58,35.699,79.58,79.58
	S139.047,174.747,95.167,174.747z M95.167,19.587c-41.675,0-75.58,33.905-75.58,75.58s33.905,75.58,75.58,75.58
	s75.58-33.905,75.58-75.58S136.842,19.587,95.167,19.587z M122.646,133.917h-13.652c-3.51,0-6.366-2.855-6.366-6.366V62.783
	c0-3.51,2.855-6.366,6.366-6.366h13.652c3.51,0,6.366,2.856,6.366,6.366v64.768C129.012,131.061,126.157,133.917,122.646,133.917z
	 M108.994,60.417c-1.305,0-2.366,1.062-2.366,2.366v64.768c0,1.305,1.061,2.366,2.366,2.366h13.652c1.305,0,2.366-1.061,2.366-2.366
	V62.783c0-1.305-1.061-2.366-2.366-2.366H108.994z M81.339,133.917H67.688c-3.51,0-6.366-2.855-6.366-6.366V62.783
	c0-3.51,2.856-6.366,6.366-6.366h13.652c3.51,0,6.366,2.856,6.366,6.366v64.768C87.706,131.061,84.85,133.917,81.339,133.917z
	 M67.688,60.417c-1.305,0-2.366,1.062-2.366,2.366v64.768c0,1.305,1.062,2.366,2.366,2.366h13.652c1.305,0,2.366-1.061,2.366-2.366
	V62.783c0-1.305-1.062-2.366-2.366-2.366H67.688z"/>
<g>
</g>
<g>
</g>
<g>
</g>
<g>
</g>
<g>
</g>
<g>
</g>
<g>
</g>
<g>
</g>
<g>
</g>
<g>
</g>
<g>
</g>
<g>
</g>
<g>
</g>
<g>
</g>
<g>
</g>
</svg>
