<?xml version="1.0" encoding="iso-8859-1"?>
<!-- Generator: Adobe Illustrator 17.1.0, SVG Export Plug-In . SVG Version: 6.00 Build 0)  -->
<!DOCTYPE svg PUBLIC "-//W3C//DTD SVG 1.1//EN" "http://www.w3.org/Graphics/SVG/1.1/DTD/svg11.dtd">
<svg version="1.1" id="Capa_1" xmlns="http://www.w3.org/2000/svg" xmlns:xlink="http://www.w3.org/1999/xlink" x="0px" y="0px"
	 viewBox="0 0 190.32 190.32" style="enable-background:new 0 0 190.32 190.32;" xml:space="preserve">
<path d="M171.566,190.32H29.347c-5.445,0-9.875-4.43-9.875-9.875V92.52c0-0.051,0.002-0.101,0.006-0.151l-6.239-14.73
	c-0.003-0.006-0.005-0.012-0.008-0.019c-0.002-0.006-0.005-0.012-0.008-0.019l-3.562-8.41c-2.124-5.014,0.228-10.82,5.242-12.944
	L145.86,0.781c5.016-2.123,10.821,0.229,12.944,5.242l3.559,8.403c0.004,0.008,0.007,0.017,0.011,0.026
	c0.003,0.008,0.007,0.017,0.011,0.026l6.63,15.653c0.207,0.489,0.211,1.039,0.012,1.531c-0.199,0.492-0.585,0.884-1.074,1.091
	L31.564,90.52h19.879h0c0.001,0,0.001,0,0.002,0h58.129h0c0.001,0,0.001,0,0.001,0h58.117c0.008,0,0.018,0,0.028,0h11.719
	c1.104,0,2,0.896,2,2v87.925C181.441,185.89,177.011,190.32,171.566,190.32z M23.472,111.336v69.109
	c0,3.239,2.636,5.875,5.875,5.875h142.218c3.239,0,5.875-2.636,5.875-5.875v-69.109H23.472z M170.098,107.336h7.342V94.52h-8.786
	l-10.486,12.816H170.098z M129.527,107.336H153l10.486-12.816h-23.477L129.527,107.336z M100.037,107.336h24.323l10.459-12.789
	l-24.297-0.026L100.037,107.336z M71.397,107.336h23.472l10.486-12.816H81.878L71.397,107.336z M41.906,107.336h24.323
	l10.459-12.789l-24.297-0.026L41.906,107.336z M23.472,107.336h13.266L47.224,94.52H23.472V107.336z M17.694,77.902l4.998,11.801
	l22.78-9.648l-14.653-7.711L17.694,77.902z M35.578,70.328l14.896,7.839l21.614-9.155l-14.893-7.841L35.578,70.328z M149.703,4
	c-0.763,0-1.538,0.149-2.283,0.465L16.463,59.931c-2.983,1.263-4.382,4.718-3.118,7.701v0l2.79,6.587l13.978-5.92
	c0.013-0.005,0.025-0.011,0.037-0.016L83.658,45.62c0.006-0.002,0.012-0.005,0.019-0.008l53.509-22.664
	c0.007-0.003,0.014-0.005,0.021-0.008l20.705-8.77l-2.79-6.587C154.173,5.346,151.992,4,149.703,4z M61.985,59.172l14.619,7.697
	L99,57.383l-14.652-7.71L61.985,59.172z M89.106,47.656l14.896,7.839l21.614-9.154L110.724,38.5L89.106,47.656z M115.513,36.501
	l14.618,7.697l22.397-9.486l-14.652-7.71L115.513,36.501z M142.634,24.985l14.896,7.839l7.021-2.974l-5.082-11.997L142.634,24.985z
	 M100.456,180.893c-1.104,0-2-0.896-2-2v-20.761H36.561c-1.104,0-2-0.896-2-2s0.896-2,2-2h125.462c1.104,0,2,0.896,2,2s-0.896,2-2,2
	h-59.567v20.761C102.456,179.997,101.561,180.893,100.456,180.893z M162.023,138.428H36.561c-1.104,0-2-0.896-2-2s0.896-2,2-2
	h125.462c1.104,0,2,0.896,2,2S163.128,138.428,162.023,138.428z"/>
<g>
</g>
<g>
</g>
<g>
</g>
<g>
</g>
<g>
</g>
<g>
</g>
<g>
</g>
<g>
</g>
<g>
</g>
<g>
</g>
<g>
</g>
<g>
</g>
<g>
</g>
<g>
</g>
<g>
</g>
</svg>
