<?xml version="1.0" encoding="iso-8859-1"?>
<!-- Generator: Adobe Illustrator 17.1.0, SVG Export Plug-In . SVG Version: 6.00 Build 0)  -->
<!DOCTYPE svg PUBLIC "-//W3C//DTD SVG 1.1//EN" "http://www.w3.org/Graphics/SVG/1.1/DTD/svg11.dtd">
<svg version="1.1" id="Capa_1" xmlns="http://www.w3.org/2000/svg" xmlns:xlink="http://www.w3.org/1999/xlink" x="0px" y="0px"
	 viewBox="0 0 192.257 192.257" style="enable-background:new 0 0 192.257 192.257;" xml:space="preserve">
<path d="M150.995,192.257H48.814c-9.374,0-17-7.626-17-17V99.924h-4.854c-0.016-0.001-0.03-0.001-0.046,0h-4.51
	c-1.104,0-2-0.896-2-2V77.852l-7.418-19.154c-0.398-1.03,0.113-2.188,1.143-2.588l4.198-1.625c0.02-0.009,0.039-0.016,0.059-0.023
	l10.962-4.245c0.018-0.007,0.035-0.014,0.053-0.02l16.552-6.41c0.009-0.004,0.017-0.007,0.024-0.01l10.971-4.249
	c0.022-0.009,0.045-0.018,0.068-0.025l16.507-6.394c0.034-0.014,0.067-0.026,0.102-0.039l10.906-4.224
	c0.039-0.017,0.079-0.032,0.12-0.046l16.475-6.38c0.037-0.016,0.074-0.03,0.111-0.044l10.909-4.225
	c0.035-0.015,0.07-0.028,0.106-0.041l16.489-6.386c0.031-0.013,0.063-0.025,0.096-0.037l10.924-4.23
	c0.03-0.012,0.061-0.024,0.092-0.035l18.816-7.287c0.496-0.191,1.045-0.18,1.53,0.036c0.485,0.214,0.866,0.612,1.058,1.106
	l7.465,19.277c0.398,1.03-0.113,2.188-1.143,2.588l-59.591,23.076c-0.024,0.011-0.05,0.02-0.074,0.029l-10.944,4.237
	c-0.023,0.011-0.048,0.02-0.073,0.028l-16.519,6.397c-0.023,0.01-0.047,0.019-0.07,0.027l-10.946,4.239
	c-0.024,0.01-0.048,0.019-0.072,0.027l-16.521,6.398c-0.021,0.009-0.044,0.018-0.066,0.025l-10.936,4.235
	c-0.031,0.013-0.063,0.025-0.096,0.037l-8.65,3.35h9.392c0.014-0.001,0.028-0.001,0.046,0h11.77c0.015-0.001,0.029-0.001,0.046,0
	h17.745c0.015-0.001,0.028-0.001,0.046,0h11.769c0.015-0.001,0.029-0.001,0.046,0h17.746c0.015-0.001,0.028-0.001,0.046,0h11.769
	c0.015-0.001,0.028-0.001,0.046,0h17.747c0.014-0.001,0.029-0.001,0.044,0h11.77c0.014-0.001,0.028-0.001,0.046,0h17.745
	c0.015-0.001,0.029-0.001,0.046,0h11.771c0.014-0.001,0.028-0.001,0.044,0h4.708c1.104,0,2,0.896,2,2v20.673c0,1.104-0.896,2-2,2
	h-9.41v75.333C167.995,184.631,160.369,192.257,150.995,192.257z M35.814,99.924v75.333c0,7.168,5.832,13,13,13h102.181
	c7.168,0,13-5.832,13-13V99.924h-6.796c-0.016-0.001-0.03-0.001-0.044,0h-11.77c-0.015-0.001-0.029-0.001-0.046,0h-17.745
	c-0.015-0.001-0.03-0.001-0.046,0h-11.771c-0.016-0.001-0.029-0.001-0.044,0H97.988c-0.016-0.001-0.03-0.001-0.046,0H86.174
	c-0.016-0.001-0.029-0.001-0.046,0H68.382c-0.016-0.001-0.029-0.001-0.046,0H56.567c-0.016-0.001-0.03-0.001-0.046,0H38.776
	c-0.015-0.001-0.029-0.001-0.046,0H35.814z M161.178,95.924h14.228V79.251h-1.731L161.178,95.924z M149.362,95.924h6.816
	l12.496-16.673h-6.816L149.362,95.924z M131.571,95.924h12.793l12.496-16.673h-12.793L131.571,95.924z M119.756,95.924h6.817
	l12.496-16.673h-6.816L119.756,95.924z M101.965,95.924h12.793l12.497-16.673h-12.794L101.965,95.924z M90.15,95.924h6.816
	l12.496-16.673h-6.816L90.15,95.924z M72.358,95.924h12.794l12.496-16.673H84.854L72.358,95.924z M60.544,95.924h6.816
	l12.496-16.673H73.04L60.544,95.924z M42.753,95.924h12.793l12.496-16.673H55.249L42.753,95.924z M30.937,95.924h6.817
	l12.496-16.673h-6.817L30.937,95.924z M24.405,95.924h1.534l12.496-16.673h-14.03V95.924z M17.439,59.118l6.021,15.547l13.084-5.067
	L18.87,58.564L17.439,59.118z M23.532,56.758l17.673,11.034l6.355-2.461L29.888,54.297L23.532,56.758z M34.55,52.492l17.672,11.034
	l11.93-4.619L46.478,47.872L34.55,52.492z M51.141,46.067l17.672,11.034l6.356-2.461L57.496,43.606L51.141,46.067z M62.157,41.8
	L79.83,52.834l11.93-4.619L74.088,37.18L62.157,41.8z M78.749,35.375L96.421,46.41l6.356-2.461L85.104,32.913L78.749,35.375z
	 M89.767,31.109l17.672,11.034l11.931-4.62l-17.674-11.034L89.767,31.109z M106.357,24.684l17.673,11.034l6.356-2.462
	l-17.674-11.034L106.357,24.684z M117.375,20.417l17.673,11.034l11.93-4.62l-17.674-11.034L117.375,20.417z M133.965,13.993
	l17.674,11.034l6.356-2.462l-17.674-11.034L133.965,13.993z M144.982,9.726l17.674,11.034l1.614-0.625L158.25,4.587L144.982,9.726z
	 M98.091,178.24c-1.104,0-2-0.896-2-2v-24.667H46.689c-1.104,0-2-0.896-2-2s0.896-2,2-2h104.799c1.104,0,2,0.896,2,2s-0.896,2-2,2
	h-51.397v24.667C100.091,177.344,99.195,178.24,98.091,178.24z M151.488,135.24H46.689c-1.104,0-2-0.896-2-2s0.896-2,2-2h104.799
	c1.104,0,2,0.896,2,2S152.593,135.24,151.488,135.24z M151.488,118.907H46.689c-1.104,0-2-0.896-2-2s0.896-2,2-2h104.799
	c1.104,0,2,0.896,2,2S152.593,118.907,151.488,118.907z"/>
<g>
</g>
<g>
</g>
<g>
</g>
<g>
</g>
<g>
</g>
<g>
</g>
<g>
</g>
<g>
</g>
<g>
</g>
<g>
</g>
<g>
</g>
<g>
</g>
<g>
</g>
<g>
</g>
<g>
</g>
</svg>
