<?xml version="1.0" encoding="iso-8859-1"?>
<!-- Generator: Adobe Illustrator 17.1.0, SVG Export Plug-In . SVG Version: 6.00 Build 0)  -->
<!DOCTYPE svg PUBLIC "-//W3C//DTD SVG 1.1//EN" "http://www.w3.org/Graphics/SVG/1.1/DTD/svg11.dtd">
<svg version="1.1" id="Capa_1" xmlns="http://www.w3.org/2000/svg" xmlns:xlink="http://www.w3.org/1999/xlink" x="0px" y="0px"
	 viewBox="0 0 205.133 205.133" style="enable-background:new 0 0 205.133 205.133;" xml:space="preserve">
<path d="M110.486,205.133c-0.013,0-0.024,0-0.037,0h-9.366c-0.023,0-0.049,0-0.074,0h-31.13c-1.021,0-1.878-0.77-1.988-1.785
	L53.408,69.617h-4.323c-0.573,0-1.118-0.246-1.498-0.675s-0.557-1.001-0.487-1.569l1.445-11.743
	c0.124-1.003,0.976-1.756,1.985-1.756h45.137l4.798-35.087c0.777-5.688,5.102-10.163,10.762-11.132l44.483-7.626
	c1.1-0.187,2.123,0.545,2.31,1.633c0.187,1.089-0.545,2.123-1.634,2.309l-44.483,7.626c-3.931,0.674-6.935,3.781-7.475,7.731
	l-4.724,34.545h44.59c1.01,0,1.861,0.753,1.985,1.756l1.445,11.743c0.069,0.568-0.107,1.14-0.487,1.569s-0.925,0.675-1.498,0.675
	h-4.324l-14.481,133.73c-0.11,1.015-0.967,1.785-1.988,1.785h-14.422C110.511,205.132,110.499,205.133,110.486,205.133z
	 M113.624,201.132h9.526l14.241-131.515h-48.36c-1.844,4.289-7.978,20.238-5.309,37.07c1.412,8.906,8.672,17.419,16.358,26.432
	c9.226,10.817,18.765,22.001,18.907,35.109C119.171,185.161,115.661,196.187,113.624,201.132z M104.183,201.132h5.065
	c1.518-3.28,5.939-14.454,5.739-32.86c-0.127-11.659-9.188-22.283-17.95-32.558c-8.063-9.453-15.678-18.382-17.267-28.401
	c-2.597-16.379,2.437-31.537,4.916-37.696h-5.096c-1.845,4.289-7.978,20.238-5.309,37.07c1.412,8.906,8.672,17.419,16.358,26.432
	c9.225,10.817,18.764,22.001,18.906,35.109C109.731,185.161,106.22,196.187,104.183,201.132z M71.673,201.132h28.135
	c1.518-3.28,5.939-14.454,5.739-32.86c-0.127-11.659-9.188-22.283-17.95-32.558c-8.062-9.453-15.677-18.382-17.266-28.401
	c-2.597-16.379,2.436-31.537,4.915-37.696H57.431L71.673,201.132z M51.346,65.617h92.131l-0.952-7.743h-45.08
	c-0.021,0-0.042,0-0.062,0H52.298L51.346,65.617z"/>
<g>
</g>
<g>
</g>
<g>
</g>
<g>
</g>
<g>
</g>
<g>
</g>
<g>
</g>
<g>
</g>
<g>
</g>
<g>
</g>
<g>
</g>
<g>
</g>
<g>
</g>
<g>
</g>
<g>
</g>
</svg>
