<?xml version="1.0" encoding="iso-8859-1"?>
<!-- Generator: Adobe Illustrator 17.1.0, SVG Export Plug-In . SVG Version: 6.00 Build 0)  -->
<!DOCTYPE svg PUBLIC "-//W3C//DTD SVG 1.1//EN" "http://www.w3.org/Graphics/SVG/1.1/DTD/svg11.dtd">
<svg version="1.1" id="Capa_1" xmlns="http://www.w3.org/2000/svg" xmlns:xlink="http://www.w3.org/1999/xlink" x="0px" y="0px"
	 viewBox="0 0 204.333 204.333" style="enable-background:new 0 0 204.333 204.333;" xml:space="preserve">
<path d="M146.74,204.333c-1.104,0-2-0.896-2-2v-6.155H59.594v6.155c0,1.104-0.896,2-2,2s-2-0.896-2-2v-6.155H49.51
	c-7.26,0-13.167-5.906-13.167-13.167V13.166C36.344,5.906,42.25,0,49.51,0h105.313c7.26,0,13.167,5.906,13.167,13.166v169.845
	c0,7.261-5.906,13.167-13.167,13.167h-6.083v6.155C148.74,203.438,147.844,204.333,146.74,204.333z M146.74,192.178h8.083
	c5.054,0,9.167-4.112,9.167-9.167V13.166c0-5.054-4.112-9.166-9.167-9.166H49.51c-5.054,0-9.167,4.112-9.167,9.166v169.845
	c0,5.055,4.112,9.167,9.167,9.167H146.74z M102.166,180.399c-25.884,0-46.942-21.059-46.942-46.942s21.058-46.941,46.942-46.941
	c25.884,0,46.942,21.058,46.942,46.941S128.051,180.399,102.166,180.399z M102.166,90.516c-23.678,0-42.942,19.264-42.942,42.941
	c0,23.679,19.264,42.942,42.942,42.942c23.679,0,42.942-19.264,42.942-42.942C145.109,109.779,125.845,90.516,102.166,90.516z
	 M102.166,148.621c-8.361,0-15.163-6.803-15.163-15.164s6.802-15.163,15.163-15.163c8.361,0,15.164,6.802,15.164,15.163
	S110.528,148.621,102.166,148.621z M102.166,122.294c-6.155,0-11.163,5.008-11.163,11.163c0,6.156,5.008,11.164,11.163,11.164
	c6.156,0,11.164-5.008,11.164-11.164C113.33,127.302,108.322,122.294,102.166,122.294z M102.166,62.826
	c-7.683,0-14.05-5.744-15.032-13.164H70.255c-1.104,0-2-0.896-2-2s0.896-2,2-2h16.879c0.981-7.419,7.349-13.163,15.032-13.163
	c7.684,0,14.051,5.744,15.032,13.163h16.879c1.104,0,2,0.896,2,2s-0.896,2-2,2h-16.879C116.217,57.082,109.85,62.826,102.166,62.826
	z M91.182,49.662c0.945,5.205,5.511,9.164,10.984,9.164c5.473,0,10.039-3.959,10.984-9.164H91.182z M91.182,45.662h21.968
	c-0.945-5.204-5.511-9.163-10.984-9.163C96.694,36.499,92.128,40.458,91.182,45.662z"/>
<g>
</g>
<g>
</g>
<g>
</g>
<g>
</g>
<g>
</g>
<g>
</g>
<g>
</g>
<g>
</g>
<g>
</g>
<g>
</g>
<g>
</g>
<g>
</g>
<g>
</g>
<g>
</g>
<g>
</g>
</svg>
