<?xml version="1.0" encoding="iso-8859-1"?>
<!-- Generator: Adobe Illustrator 17.1.0, SVG Export Plug-In . SVG Version: 6.00 Build 0)  -->
<!DOCTYPE svg PUBLIC "-//W3C//DTD SVG 1.1//EN" "http://www.w3.org/Graphics/SVG/1.1/DTD/svg11.dtd">
<svg version="1.1" id="Capa_1" xmlns="http://www.w3.org/2000/svg" xmlns:xlink="http://www.w3.org/1999/xlink" x="0px" y="0px"
	 viewBox="0 0 199.267 199.267" style="enable-background:new 0 0 199.267 199.267;" xml:space="preserve">
<path d="M197.267,183.633h-48c-1.104,0-2-0.896-2-2V26.96c0-6.246,5.082-11.327,11.328-11.327h29.345
	c6.246,0,11.327,5.081,11.327,11.327v154.673C199.267,182.738,198.371,183.633,197.267,183.633z M151.267,179.633h44V26.96
	c0-4.04-3.287-7.327-7.327-7.327h-29.345c-4.041,0-7.328,3.287-7.328,7.327V179.633z M133.734,183.633H65.401c-1.104,0-2-0.896-2-2
	V163.76c0-1.104,0.896-2,2-2h68.333c1.104,0,2,0.896,2,2v17.873C135.734,182.738,134.839,183.633,133.734,183.633z M67.401,179.633
	h64.333V165.76H67.401V179.633z M50,183.633H2c-1.104,0-2-0.896-2-2V26.96c0-6.246,5.081-11.327,11.327-11.327h29.346
	C46.919,15.633,52,20.714,52,26.96v154.673C52,182.738,51.104,183.633,50,183.633z M4,179.633h44V26.96
	c0-4.04-3.287-7.327-7.327-7.327H11.327C7.287,19.633,4,22.92,4,26.96V179.633z M121.871,178.004c-2.927,0-5.308-2.381-5.308-5.308
	s2.381-5.308,5.308-5.308s5.308,2.381,5.308,5.308S124.798,178.004,121.871,178.004z M121.871,171.389
	c-0.721,0-1.308,0.587-1.308,1.308s0.587,1.308,1.308,1.308s1.308-0.587,1.308-1.308S122.592,171.389,121.871,171.389z
	 M98.809,174.697H74.734c-1.104,0-2-0.896-2-2s0.896-2,2-2h24.074c1.104,0,2,0.896,2,2S99.913,174.697,98.809,174.697z
	 M181.226,173.668h-15.917c-1.104,0-2-0.896-2-2s0.896-2,2-2h15.917c1.104,0,2,0.896,2,2S182.33,173.668,181.226,173.668z
	 M33.958,173.668H18.041c-1.104,0-2-0.896-2-2s0.896-2,2-2h15.917c1.104,0,2,0.896,2,2S35.063,173.668,33.958,173.668z
	 M173.267,100.249c-9.098,0-16.5-7.402-16.5-16.5s7.402-16.5,16.5-16.5s16.5,7.402,16.5,16.5S182.364,100.249,173.267,100.249z
	 M173.267,71.249c-6.893,0-12.5,5.607-12.5,12.5s5.607,12.5,12.5,12.5s12.5-5.607,12.5-12.5S180.159,71.249,173.267,71.249z
	 M26,100.249c-9.098,0-16.5-7.402-16.5-16.5s7.402-16.5,16.5-16.5s16.5,7.402,16.5,16.5S35.098,100.249,26,100.249z M26,71.249
	c-6.893,0-12.5,5.607-12.5,12.5s5.607,12.5,12.5,12.5s12.5-5.607,12.5-12.5S32.893,71.249,26,71.249z M173.267,90.916
	c-3.951,0-7.166-3.215-7.166-7.167c0-3.951,3.215-7.166,7.166-7.166c3.952,0,7.167,3.215,7.167,7.166
	C180.434,87.701,177.219,90.916,173.267,90.916z M173.267,80.583c-1.746,0-3.166,1.42-3.166,3.166s1.42,3.167,3.166,3.167
	s3.167-1.421,3.167-3.167S175.013,80.583,173.267,80.583z M26,90.916c-3.952,0-7.167-3.215-7.167-7.167
	c0-3.951,3.215-7.166,7.167-7.166c3.951,0,7.166,3.215,7.166,7.166C33.166,87.701,29.951,90.916,26,90.916z M26,80.583
	c-1.746,0-3.167,1.42-3.167,3.166s1.421,3.167,3.167,3.167s3.166-1.421,3.166-3.167S27.746,80.583,26,80.583z M173.267,59.628
	c-9.098,0-16.5-7.402-16.5-16.5s7.402-16.5,16.5-16.5s16.5,7.402,16.5,16.5S182.364,59.628,173.267,59.628z M173.267,30.628
	c-6.893,0-12.5,5.607-12.5,12.5s5.607,12.5,12.5,12.5s12.5-5.607,12.5-12.5S180.159,30.628,173.267,30.628z M26,59.628
	c-9.098,0-16.5-7.402-16.5-16.5s7.402-16.5,16.5-16.5s16.5,7.402,16.5,16.5S35.098,59.628,26,59.628z M26,30.628
	c-6.893,0-12.5,5.607-12.5,12.5s5.607,12.5,12.5,12.5s12.5-5.607,12.5-12.5S32.893,30.628,26,30.628z M173.267,50.295
	c-3.951,0-7.166-3.215-7.166-7.167s3.215-7.167,7.166-7.167c3.952,0,7.167,3.215,7.167,7.167S177.219,50.295,173.267,50.295z
	 M173.267,39.961c-1.746,0-3.166,1.421-3.166,3.167s1.42,3.167,3.166,3.167s3.167-1.421,3.167-3.167S175.013,39.961,173.267,39.961z
	 M26,50.295c-3.952,0-7.167-3.215-7.167-7.167s3.215-7.167,7.167-7.167c3.951,0,7.166,3.215,7.166,7.167S29.951,50.295,26,50.295z
	 M26,39.961c-1.746,0-3.167,1.421-3.167,3.167s1.421,3.167,3.167,3.167s3.166-1.421,3.166-3.167S27.746,39.961,26,39.961z"/>
<g>
</g>
<g>
</g>
<g>
</g>
<g>
</g>
<g>
</g>
<g>
</g>
<g>
</g>
<g>
</g>
<g>
</g>
<g>
</g>
<g>
</g>
<g>
</g>
<g>
</g>
<g>
</g>
<g>
</g>
</svg>
