<?xml version="1.0" encoding="iso-8859-1"?>
<!-- Generator: Adobe Illustrator 17.1.0, SVG Export Plug-In . SVG Version: 6.00 Build 0)  -->
<!DOCTYPE svg PUBLIC "-//W3C//DTD SVG 1.1//EN" "http://www.w3.org/Graphics/SVG/1.1/DTD/svg11.dtd">
<svg version="1.1" id="Capa_1" xmlns="http://www.w3.org/2000/svg" xmlns:xlink="http://www.w3.org/1999/xlink" x="0px" y="0px"
	 viewBox="0 0 176.667 176.667" style="enable-background:new 0 0 176.667 176.667;" xml:space="preserve">
<path d="M143.966,176.667H27.61c-1.104,0-2-0.896-2-2v-6.563h-9c-1.104,0-2-0.896-2-2v-13.5c-1.367-3.527-11-29.797-11-69.149
	c0-39.252,9.588-64.47,11-67.969V2c0-1.104,0.896-2,2-2h24.781c3.98,0,7.219,3.238,7.219,7.219v1.095l113.983,19.557
	c5.996,1.029,10.353,6.192,10.359,12.275l0.103,92.534c0.007,6.327-4.726,11.656-11.009,12.396l-16.081,1.895v27.695
	C145.966,175.771,145.071,176.667,143.966,176.667z M29.61,172.667h112.356v-25.224L48.61,158.445v2.44
	c0,3.98-3.238,7.219-7.219,7.219H29.61V172.667z M27.61,164.104h13.781c1.775,0,3.219-1.444,3.219-3.219v-4.193
	c0-0.019,0-0.037,0-0.056V10.039c0-0.024,0-0.049,0-0.073V7.219C44.61,5.444,43.167,4,41.392,4H18.61v11.856
	c0,0.017,0,0.034,0,0.051v136.284c0,0.021,0,0.042,0,0.062v11.851H27.61z M48.61,12.373v142.044l112.969-13.313
	c4.267-0.503,7.482-4.122,7.477-8.419l-0.103-92.534c-0.004-4.132-2.963-7.638-7.036-8.337L48.61,12.373z M14.61,28.513
	c-3.118,11.416-7,30.53-7,54.941c0,24.407,3.879,43.943,7,55.709V28.513z M94.86,132c-1.104,0-2-0.896-2-2V34.667
	c0-1.104,0.896-2,2-2s2,0.896,2,2V130C96.86,131.104,95.965,132,94.86,132z M84.027,132c-1.104,0-2-0.896-2-2V34.667
	c0-1.104,0.896-2,2-2s2,0.896,2,2V130C86.027,131.104,85.131,132,84.027,132z M73.193,132c-1.104,0-2-0.896-2-2V34.667
	c0-1.104,0.896-2,2-2c1.104,0,2,0.896,2,2V130C75.193,131.104,74.298,132,73.193,132z M62.36,132c-1.104,0-2-0.896-2-2V34.667
	c0-1.104,0.896-2,2-2s2,0.896,2,2V130C64.36,131.104,63.465,132,62.36,132z M148.11,127.333c-1.104,0-2-0.896-2-2v-86
	c0-1.104,0.896-2,2-2s2,0.896,2,2v86C150.11,126.438,149.215,127.333,148.11,127.333z M137.277,127.333c-1.104,0-2-0.896-2-2v-86
	c0-1.104,0.896-2,2-2s2,0.896,2,2v86C139.277,126.438,138.381,127.333,137.277,127.333z M126.443,127.333c-1.104,0-2-0.896-2-2v-86
	c0-1.104,0.896-2,2-2c1.104,0,2,0.896,2,2v86C128.443,126.438,127.548,127.333,126.443,127.333z M115.61,127.333
	c-1.104,0-2-0.896-2-2v-86c0-1.104,0.896-2,2-2s2,0.896,2,2v86C117.61,126.438,116.715,127.333,115.61,127.333z"/>
<g>
</g>
<g>
</g>
<g>
</g>
<g>
</g>
<g>
</g>
<g>
</g>
<g>
</g>
<g>
</g>
<g>
</g>
<g>
</g>
<g>
</g>
<g>
</g>
<g>
</g>
<g>
</g>
<g>
</g>
</svg>
