<?xml version="1.0" encoding="iso-8859-1"?>
<!-- Generator: Adobe Illustrator 17.1.0, SVG Export Plug-In . SVG Version: 6.00 Build 0)  -->
<!DOCTYPE svg PUBLIC "-//W3C//DTD SVG 1.1//EN" "http://www.w3.org/Graphics/SVG/1.1/DTD/svg11.dtd">
<svg version="1.1" id="Capa_1" xmlns="http://www.w3.org/2000/svg" xmlns:xlink="http://www.w3.org/1999/xlink" x="0px" y="0px"
	 viewBox="0 0 207.237 207.237" style="enable-background:new 0 0 207.237 207.237;" xml:space="preserve">
<path d="M178.171,207.237H29.066c-1.104,0-2-0.896-2-2V18.541C27.066,8.317,35.384,0,45.607,0H161.63
	c10.223,0,18.541,8.317,18.541,18.541v186.696C180.171,206.342,179.275,207.237,178.171,207.237z M31.066,203.237h145.104v-67.802
	H31.066V203.237z M31.066,131.436h145.104v-4.514H31.066V131.436z M131.369,122.922h44.802v-21.341H31.066v21.341h44.802v-2.966
	c0-7.927,6.449-14.375,14.375-14.375h26.75c7.926,0,14.375,6.448,14.375,14.375V122.922z M79.869,122.922h47.5v-2.966
	c0-5.721-4.654-10.375-10.375-10.375h-26.75c-5.721,0-10.375,4.654-10.375,10.375V122.922z M31.066,97.581h145.104V25.914H31.066
	V97.581z M31.066,21.914h145.104v-3.373C176.171,10.523,169.648,4,161.63,4H45.607c-8.018,0-14.541,6.523-14.541,14.541V21.914z
	 M130.8,90.436c-0.512,0-1.024-0.195-1.414-0.586c-0.781-0.781-0.781-2.047,0-2.828l35.833-35.833c0.78-0.781,2.047-0.781,2.828,0
	s0.781,2.047,0,2.828L132.214,89.85C131.824,90.24,131.312,90.436,130.8,90.436z M152.8,90.436c-0.512,0-1.023-0.195-1.414-0.586
	c-0.781-0.781-0.781-2.047,0-2.828l13.667-13.667c0.78-0.781,2.047-0.781,2.828,0s0.781,2.047,0,2.828L154.214,89.85
	C153.824,90.24,153.312,90.436,152.8,90.436z M103.619,83.349c-9.006,0-16.333-7.327-16.333-16.333
	c0-9.007,7.327-16.334,16.333-16.334s16.333,7.327,16.333,16.334C119.952,76.021,112.625,83.349,103.619,83.349z M103.619,54.682
	c-6.801,0-12.333,5.533-12.333,12.334s5.533,12.333,12.333,12.333s12.333-5.532,12.333-12.333S110.419,54.682,103.619,54.682z
	 M106.679,75.418h-6.121c-1.104,0-2-0.896-2-2s0.896-2,2-2h6.121c1.104,0,2,0.896,2,2S107.784,75.418,106.679,75.418z
	 M111.146,69.016H96.091c-1.104,0-2-0.896-2-2s0.896-2,2-2h15.055c1.104,0,2,0.896,2,2S112.25,69.016,111.146,69.016z M38.3,67.103
	c-0.512,0-1.024-0.195-1.414-0.586c-0.781-0.781-0.781-2.047,0-2.828l32.625-32.625c0.78-0.781,2.048-0.781,2.828,0
	c0.781,0.781,0.781,2.047,0,2.828L39.714,66.517C39.324,66.907,38.812,67.103,38.3,67.103z M106.679,62.612h-6.121
	c-1.104,0-2-0.896-2-2s0.896-2,2-2h6.121c1.104,0,2,0.896,2,2S107.784,62.612,106.679,62.612z M38.3,48.436
	c-0.512,0-1.024-0.195-1.414-0.586c-0.781-0.781-0.781-2.047,0-2.828l13.75-13.75c0.78-0.781,2.048-0.781,2.828,0
	c0.781,0.781,0.781,2.047,0,2.828l-13.75,13.75C39.324,48.24,38.812,48.436,38.3,48.436z"/>
<g>
</g>
<g>
</g>
<g>
</g>
<g>
</g>
<g>
</g>
<g>
</g>
<g>
</g>
<g>
</g>
<g>
</g>
<g>
</g>
<g>
</g>
<g>
</g>
<g>
</g>
<g>
</g>
<g>
</g>
</svg>
