<?xml version="1.0" encoding="iso-8859-1"?>
<!-- Generator: Adobe Illustrator 17.1.0, SVG Export Plug-In . SVG Version: 6.00 Build 0)  -->
<!DOCTYPE svg PUBLIC "-//W3C//DTD SVG 1.1//EN" "http://www.w3.org/Graphics/SVG/1.1/DTD/svg11.dtd">
<svg version="1.1" id="Capa_1" xmlns="http://www.w3.org/2000/svg" xmlns:xlink="http://www.w3.org/1999/xlink" x="0px" y="0px"
	 viewBox="0 0 199.822 199.822" style="enable-background:new 0 0 199.822 199.822;" xml:space="preserve">
<path d="M178.713,149.896H21.109C9.47,149.896,0,140.427,0,128.787v-12.709c0-1.104,0.896-2,2-2c7.812,0,14.167-6.355,14.167-14.167
	S9.812,85.744,2,85.744c-1.104,0-2-0.896-2-2V71.035c0-11.64,9.47-21.109,21.109-21.109h157.604c11.64,0,21.109,9.47,21.109,21.109
	v12.709c0,1.104-0.896,2-2,2c-7.812,0-14.167,6.355-14.167,14.167s6.355,14.167,14.167,14.167c1.104,0,2,0.896,2,2v12.709
	C199.822,140.427,190.353,149.896,178.713,149.896z M4,117.968v10.819c0,9.434,7.675,17.109,17.109,17.109h157.604
	c9.434,0,17.109-7.675,17.109-17.109v-10.819c-9.08-0.999-16.167-8.716-16.167-18.057s7.086-17.059,16.167-18.057V71.035
	c0-9.434-7.675-17.109-17.109-17.109H21.109C11.675,53.926,4,61.601,4,71.035v10.819c9.08,0.999,16.167,8.716,16.167,18.057
	S13.08,116.969,4,117.968z M172.538,139.703H27.284c-1.104,0-2-0.896-2-2V62.118c0-1.104,0.896-2,2-2h145.254c1.104,0,2,0.896,2,2
	v75.584C174.538,138.807,173.643,139.703,172.538,139.703z M29.284,135.703h141.254V64.118H29.284V135.703z M111.584,117.658
	c-0.318,0-0.638-0.076-0.931-0.23l-10.742-5.647l-10.742,5.647c-0.674,0.354-1.49,0.295-2.106-0.152
	c-0.616-0.448-0.925-1.206-0.796-1.956l2.051-11.962l-8.69-8.472c-0.545-0.531-0.741-1.326-0.506-2.05
	c0.235-0.724,0.861-1.251,1.614-1.361l12.01-1.745l5.371-10.883c0.337-0.683,1.032-1.115,1.793-1.115s1.457,0.432,1.793,1.115
	l5.371,10.883l12.01,1.745c0.753,0.109,1.379,0.637,1.614,1.361c0.235,0.724,0.04,1.519-0.506,2.05l-8.691,8.472l2.004,11.685
	c0.063,0.194,0.096,0.4,0.096,0.615c0,1.104-0.896,2-2,2C111.597,117.657,111.589,117.657,111.584,117.658z M85.322,94.851
	l6.542,6.377c0.471,0.459,0.687,1.122,0.575,1.77l-1.544,9.004l8.086-4.251c0.583-0.307,1.278-0.307,1.861,0l8.086,4.251
	l-1.544-9.004c-0.111-0.648,0.104-1.311,0.575-1.77l6.542-6.377l-9.041-1.313c-0.651-0.094-1.214-0.503-1.506-1.094l-4.043-8.192
	l-4.043,8.192c-0.292,0.59-0.854,1-1.506,1.094L85.322,94.851z M63.327,111.412c-0.318,0-0.638-0.076-0.931-0.229l-6.684-3.514
	l-6.684,3.514c-0.673,0.354-1.49,0.295-2.106-0.152c-0.616-0.448-0.924-1.206-0.795-1.956l1.276-7.442l-5.407-5.271
	c-0.545-0.531-0.741-1.326-0.506-2.05c0.235-0.724,0.861-1.251,1.615-1.361l7.473-1.086l3.342-6.771
	c0.337-0.683,1.032-1.115,1.793-1.115s1.457,0.432,1.793,1.115l3.342,6.771l7.473,1.086c0.753,0.109,1.379,0.637,1.615,1.361
	c0.235,0.724,0.039,1.519-0.506,2.05l-5.407,5.271l1.229,7.166c0.063,0.194,0.096,0.4,0.096,0.615c0,1.104-0.896,2-2,2
	C63.339,111.411,63.334,111.412,63.327,111.412z M55.712,103.409c0.32,0,0.639,0.077,0.931,0.229l4.028,2.118l-0.769-4.485
	c-0.111-0.648,0.104-1.311,0.575-1.77l3.258-3.176l-4.503-0.655c-0.651-0.094-1.214-0.503-1.506-1.094l-2.014-4.081l-2.014,4.081
	c-0.292,0.59-0.854,1-1.506,1.094l-4.503,0.655l3.258,3.176c0.471,0.459,0.687,1.122,0.575,1.77l-0.769,4.485l4.027-2.118
	C55.073,103.486,55.393,103.409,55.712,103.409z M136.495,111.412c-0.415,0-0.827-0.129-1.176-0.382
	c-0.616-0.448-0.924-1.206-0.795-1.956l1.276-7.442l-5.407-5.271c-0.545-0.531-0.741-1.326-0.506-2.05
	c0.235-0.724,0.861-1.251,1.615-1.361l7.473-1.086l3.342-6.771c0.337-0.683,1.032-1.115,1.793-1.115s1.457,0.432,1.793,1.115
	l3.342,6.771l7.473,1.086c0.753,0.109,1.379,0.637,1.615,1.361c0.235,0.724,0.039,1.519-0.506,2.05l-5.408,5.271l1.229,7.166
	c0.063,0.194,0.096,0.4,0.096,0.615c0,1.104-0.896,2-2,2c-0.008,0-0.014,0-0.02,0c-0.318,0-0.638-0.076-0.931-0.229l-6.684-3.514
	l-6.684,3.514C137.133,111.337,136.813,111.412,136.495,111.412z M136.087,96.325l3.258,3.176c0.471,0.459,0.687,1.122,0.575,1.77
	l-0.769,4.485l4.027-2.118c0.583-0.306,1.278-0.306,1.861,0l4.028,2.118l-0.77-4.484c-0.111-0.649,0.104-1.311,0.575-1.771
	l3.259-3.176l-4.503-0.655c-0.651-0.094-1.214-0.503-1.506-1.094l-2.014-4.081l-2.014,4.081c-0.292,0.59-0.854,1-1.506,1.094
	L136.087,96.325z"/>
<g>
</g>
<g>
</g>
<g>
</g>
<g>
</g>
<g>
</g>
<g>
</g>
<g>
</g>
<g>
</g>
<g>
</g>
<g>
</g>
<g>
</g>
<g>
</g>
<g>
</g>
<g>
</g>
<g>
</g>
</svg>
