<?xml version="1.0" encoding="iso-8859-1"?>
<!-- Generator: Adobe Illustrator 17.1.0, SVG Export Plug-In . SVG Version: 6.00 Build 0)  -->
<!DOCTYPE svg PUBLIC "-//W3C//DTD SVG 1.1//EN" "http://www.w3.org/Graphics/SVG/1.1/DTD/svg11.dtd">
<svg version="1.1" id="Capa_1" xmlns="http://www.w3.org/2000/svg" xmlns:xlink="http://www.w3.org/1999/xlink" x="0px" y="0px"
	 viewBox="0 0 197.682 197.682" style="enable-background:new 0 0 197.682 197.682;" xml:space="preserve">
<path d="M195.682,148.352H2c-1.104,0-2-0.896-2-2V51.33c0-1.104,0.896-2,2-2h193.682c1.104,0,2,0.896,2,2v95.022
	C197.682,147.457,196.786,148.352,195.682,148.352z M149.551,144.352h44.131V53.33h-44.131v9.888c0,1.104-0.896,2-2,2s-2-0.896-2-2
	V53.33H4v91.022h141.551v-11.526c0-1.104,0.896-2,2-2s2,0.896,2,2V144.352z M78.05,136.77c-0.269,0-0.541-0.055-0.803-0.17
	c-1.012-0.444-1.472-1.624-1.027-2.635l6.836-15.57h-5.005c-1.104,0-2-0.896-2-2s0.896-2,2-2h8.067c0.676,0,1.306,0.341,1.675,0.906
	s0.428,1.279,0.156,1.897l-8.067,18.374C79.553,136.323,78.819,136.77,78.05,136.77z M71.378,136.769c-1.104,0-2-0.896-2-2v-18.374
	c0-1.104,0.896-2,2-2s2,0.896,2,2v18.374C73.378,135.874,72.482,136.769,71.378,136.769z M17.145,136.769h-1.557
	c-1.104,0-2-0.896-2-2s0.896-2,2-2h1.557c1.761,0,3.193-1.432,3.193-3.192s-1.433-3.192-3.193-3.192h-1.557c-1.104,0-2-0.896-2-2
	v-7.989c0-1.104,0.896-2,2-2h6.75c1.104,0,2,0.896,2,2s-0.896,2-2,2h-4.75v4.003c3.761,0.229,6.75,3.361,6.75,7.179
	C24.338,133.542,21.111,136.769,17.145,136.769z M181.003,135.554c-1.104,0-2-0.896-2-2v-1.558c0-1.761-1.432-3.192-3.192-3.192
	s-3.192,1.432-3.192,3.192v1.558c0,1.104-0.896,2-2,2h-7.989c-1.104,0-2-0.896-2-2v-6.75c0-1.104,0.896-2,2-2s2,0.896,2,2v4.75
	h4.003c0.229-3.761,3.361-6.75,7.179-6.75c3.966,0,7.192,3.227,7.192,7.192v1.558C183.003,134.659,182.107,135.554,181.003,135.554z
	 M147.551,126.339c-1.104,0-2-0.896-2-2v-11.888c0-1.104,0.896-2,2-2s2,0.896,2,2v11.888
	C149.551,125.444,148.655,126.339,147.551,126.339z M147.551,105.965c-1.104,0-2-0.896-2-2V92.078c0-1.104,0.896-2,2-2s2,0.896,2,2
	v11.888C149.551,105.07,148.655,105.965,147.551,105.965z M24.803,100.577c-1.104,0-1.999-0.895-2-1.998L22.78,67.983l-7.19,0.005
	c-0.001,0-0.002,0-0.002,0c-1.104,0-1.999-0.895-2-1.998c-0.001-1.105,0.894-2.001,1.998-2.002l9.19-0.007l0,0l9.19-0.007
	c0.001,0,0.002,0,0.002,0c1.104,0,1.999,0.895,2,1.998c0.001,1.105-0.894,2.001-1.998,2.002l-7.19,0.005l0.022,30.596
	c0.001,1.105-0.894,2.001-1.998,2.002C24.804,100.577,24.803,100.577,24.803,100.577z M41.186,100.565c-1.104,0-1.999-0.895-2-1.998
	l-0.024-32.596c-0.001-1.105,0.894-2.001,1.998-2.002c0.001,0,0.002,0,0.002,0c1.104,0,1.999,0.895,2,1.998l0.024,32.596
	c0.001,1.105-0.894,2.001-1.998,2.002C41.187,100.565,41.186,100.565,41.186,100.565z M49.844,100.558L49.844,100.558
	c-1.1,0-1.991-0.887-2-1.984v-0.001c0-0.004,0-0.005,0-0.007s0-0.004,0-0.006l-0.024-32.596c0-0.001,0-0.001,0-0.001s0,0,0-0.001
	c0-0.002,0-0.003,0-0.005l0,0c0.003-1.1,0.893-1.991,1.992-1.995c-0.001-0.001,0.004-0.001,0.006,0c0.001,0,0.001,0,0.001,0
	l13.897-0.01h0.001c1.104,0,1.999,0.895,2,1.998l0.004,5.203c0.001,1.105-0.894,2.001-1.998,2.002c-0.001,0-0.002,0-0.002,0
	c-1.104,0-1.999-0.895-2-1.998l-0.002-3.204l-9.897,0.008l0.021,28.596l9.897-0.008l-0.002-2.527
	c-0.001-1.104,0.894-2.001,1.998-2.002c0.001,0,0.001,0,0.002,0c1.104,0,1.999,0.895,2,1.998l0.004,4.528
	c0,0.53-0.21,1.04-0.585,1.415s-0.883,0.587-1.414,0.587L49.844,100.558c0.002,0,0.002,0,0.002,0
	C49.845,100.558,49.844,100.558,49.844,100.558z M71.378,100.542c-1.104,0-1.999-0.895-2-1.998l-0.012-16.254
	c-0.001-0.029-0.001-0.06-0.001-0.089l-0.012-16.253c-0.001-1.105,0.894-2.001,1.998-2.002c0.001,0,0.002,0,0.002,0
	c1.104,0,1.999,0.895,2,1.998l0.009,11.105l11.247-12.455c0.738-0.818,2.003-0.886,2.825-0.144c0.819,0.74,0.884,2.005,0.144,2.825
	L74.062,82.243l13.539,14.946c0.741,0.818,0.679,2.084-0.14,2.825c-0.819,0.742-2.085,0.678-2.825-0.14L73.369,87.437l0.009,11.104
	c0.001,1.105-0.894,2.001-1.998,2.002C71.379,100.542,71.378,100.542,71.378,100.542z M94.465,100.525L94.465,100.525
	c-1.102,0-1.995-0.891-2-1.991v-0.001c0-0.002,0-0.003,0-0.007l-0.012-16.29c0-0.003,0-0.005,0-0.008c0-0.002,0-0.005,0-0.007
	L92.441,65.93l0,0l0,0c0-1.104,0.895-2,1.999-2.001l13.896-0.01h0.001c1.104,0,1.999,0.895,2,1.999s-0.894,2-1.999,2.001
	l-11.896,0.009l0.01,12.298l11.897-0.009h0.001c1.104,0,1.999,0.895,2,1.999s-0.894,2-1.999,2.001l-11.897,0.009l0.01,12.298
	l11.897-0.009h0.001c1.104,0,1.999,0.895,2,1.999s-0.894,2-1.999,2.001L94.465,100.525L94.465,100.525L94.465,100.525z
	 M124.302,100.503c-1.104,0-1.999-0.895-2-1.998l-0.022-30.596l-7.19,0.005c-0.001,0-0.002,0-0.002,0c-1.104,0-1.999-0.895-2-1.998
	c-0.001-1.105,0.894-2.001,1.998-2.002l18.382-0.014c0.001,0,0.002,0,0.002,0c1.104,0,1.999,0.895,2,1.998
	c0.001,1.105-0.894,2.001-1.998,2.002l-7.191,0.005l0.022,30.596c0.001,1.105-0.894,2.001-1.998,2.002
	C124.303,100.503,124.302,100.503,124.302,100.503z M147.551,85.591c-1.104,0-2-0.896-2-2V71.704c0-1.104,0.896-2,2-2s2,0.896,2,2
	v11.888C149.551,84.696,148.655,85.591,147.551,85.591z M181.003,79.764h-18.374c-1.104,0-2-0.896-2-2s0.896-2,2-2h18.374
	c1.104,0,2,0.896,2,2S182.107,79.764,181.003,79.764z M181.002,73.092c-0.269,0-0.541-0.055-0.803-0.17l-15.57-6.836v5.005
	c0,1.104-0.896,2-2,2s-2-0.896-2-2v-8.067c0-0.676,0.341-1.306,0.906-1.675c0.564-0.37,1.279-0.43,1.897-0.156l18.374,8.067
	c1.012,0.444,1.472,1.624,1.027,2.635C182.505,72.645,181.771,73.092,181.002,73.092z"/>
<g>
</g>
<g>
</g>
<g>
</g>
<g>
</g>
<g>
</g>
<g>
</g>
<g>
</g>
<g>
</g>
<g>
</g>
<g>
</g>
<g>
</g>
<g>
</g>
<g>
</g>
<g>
</g>
<g>
</g>
</svg>
