<?xml version="1.0" encoding="iso-8859-1"?>
<!-- Generator: Adobe Illustrator 17.1.0, SVG Export Plug-In . SVG Version: 6.00 Build 0)  -->
<!DOCTYPE svg PUBLIC "-//W3C//DTD SVG 1.1//EN" "http://www.w3.org/Graphics/SVG/1.1/DTD/svg11.dtd">
<svg version="1.1" id="Capa_1" xmlns="http://www.w3.org/2000/svg" xmlns:xlink="http://www.w3.org/1999/xlink" x="0px" y="0px"
	 viewBox="0 0 178.598 178.598" style="enable-background:new 0 0 178.598 178.598;" xml:space="preserve">
<path d="M161.861,178.084h-15.471c-0.727,0-1.396-0.395-1.749-1.03L91.666,81.508v94.576c0,1.104-0.896,2-2,2H74.195
	c-1.104,0-2-0.896-2-2V81.508L19.22,177.054c-0.353,0.636-1.022,1.03-1.749,1.03H2c-0.708,0-1.364-0.375-1.724-0.985
	s-0.369-1.365-0.025-1.985L64.03,60.083V31.479c0-1.104,0.896-2,2-2h31.801c1.104,0,2,0.896,2,2v6.165l30,13.636
	c0.824-1.005,1.899-1.783,3.146-2.261c1.892-0.725,3.953-0.67,5.804,0.156l35.321,15.755l0,0c3.82,1.705,5.542,6.199,3.838,10.019
	c-1.703,3.82-6.199,5.541-10.019,3.838l-35.321-15.756c-1.851-0.826-3.27-2.322-3.994-4.215c-0.482-1.258-0.619-2.592-0.414-3.888
	L99.831,42.037v18.046l63.779,115.031c0.344,0.62,0.334,1.375-0.025,1.985S162.57,178.084,161.861,178.084z M147.569,174.084h10.897
	L96.082,61.57c-0.165-0.297-0.251-0.63-0.251-0.97V33.479H68.03v27.122c0,0.339-0.086,0.673-0.251,0.97L5.396,174.084h10.897
	L72.446,72.807c0.441-0.798,1.364-1.198,2.25-0.966c0.883,0.228,1.499,1.024,1.499,1.936v100.307h11.471V73.777
	c0-0.912,0.616-1.708,1.499-1.936c0.884-0.232,1.808,0.168,2.25,0.966L147.569,174.084z M135.693,52.515
	c-0.434,0-0.867,0.08-1.284,0.239c-0.895,0.342-1.603,1.013-1.993,1.888c-0.39,0.875-0.416,1.85-0.073,2.744
	s1.014,1.602,1.888,1.992l35.321,15.756c1.808,0.806,3.932-0.009,4.737-1.814c0.806-1.807-0.009-3.931-1.814-4.737l-35.321-15.755
	C136.685,52.619,136.19,52.515,135.693,52.515z M97.831,26.278H66.03c-1.104,0-2-0.896-2-2s0.896-2,2-2h13.9V11.82H62.486
	c-1.104,0-2-0.896-2-2V2.514c0-1.104,0.896-2,2-2h38.891c1.104,0,2,0.896,2,2V9.82c0,1.104-0.896,2-2,2H83.931v10.458h13.9
	c1.104,0,2,0.896,2,2S98.936,26.278,97.831,26.278z M64.486,7.82h34.891V4.514H64.486V7.82z"/>
<g>
</g>
<g>
</g>
<g>
</g>
<g>
</g>
<g>
</g>
<g>
</g>
<g>
</g>
<g>
</g>
<g>
</g>
<g>
</g>
<g>
</g>
<g>
</g>
<g>
</g>
<g>
</g>
<g>
</g>
</svg>
