<?xml version="1.0" encoding="iso-8859-1"?>
<!-- Generator: Adobe Illustrator 17.1.0, SVG Export Plug-In . SVG Version: 6.00 Build 0)  -->
<!DOCTYPE svg PUBLIC "-//W3C//DTD SVG 1.1//EN" "http://www.w3.org/Graphics/SVG/1.1/DTD/svg11.dtd">
<svg version="1.1" id="Capa_1" xmlns="http://www.w3.org/2000/svg" xmlns:xlink="http://www.w3.org/1999/xlink" x="0px" y="0px"
	 viewBox="0 0 205.167 205.167" style="enable-background:new 0 0 205.167 205.167;" xml:space="preserve">
<path d="M132.333,205.167h-59.5c-1.104,0-2-0.896-2-2s0.896-2,2-2h17.5v-17.979h-4.995v3.333c0,1.104-0.896,2-2,2h-8.995
	c-1.104,0-2-0.896-2-2V2c0-1.104,0.896-2,2-2h8.995c1.104,0,2,0.896,2,2v12.167h3c7.168,0,13,5.832,13,13v118.5
	c7.718,0.002,13.995,6.996,13.995,15.592v39.908h17c1.104,0,2,0.896,2,2S133.438,205.167,132.333,205.167z M94.333,201.167h17
	v-39.908c0-6.39-4.483-11.588-9.995-11.592v31.521c0,0.055-0.002,0.109-0.007,0.163c-0.042,1.067-0.921,1.918-1.998,1.918h-5
	V201.167z M76.343,184.521h4.995V4h-4.995V184.521z M85.338,179.188h11.995v-31.521c0-0.047,0.002-0.094,0.005-0.141V27.167
	c0-4.962-4.037-9-9-9h-3V179.188z"/>
<g>
</g>
<g>
</g>
<g>
</g>
<g>
</g>
<g>
</g>
<g>
</g>
<g>
</g>
<g>
</g>
<g>
</g>
<g>
</g>
<g>
</g>
<g>
</g>
<g>
</g>
<g>
</g>
<g>
</g>
</svg>
