<?xml version="1.0" encoding="iso-8859-1"?>
<!-- Generator: Adobe Illustrator 17.1.0, SVG Export Plug-In . SVG Version: 6.00 Build 0)  -->
<!DOCTYPE svg PUBLIC "-//W3C//DTD SVG 1.1//EN" "http://www.w3.org/Graphics/SVG/1.1/DTD/svg11.dtd">
<svg version="1.1" id="Capa_1" xmlns="http://www.w3.org/2000/svg" xmlns:xlink="http://www.w3.org/1999/xlink" x="0px" y="0px"
	 viewBox="0 0 204.592 204.592" style="enable-background:new 0 0 204.592 204.592;" xml:space="preserve">
<path d="M47.794,204.58c-12.766,0-24.768-4.972-33.795-13.999l0,0C4.972,181.554,0,169.552,0,156.786
	c0-12.767,4.972-24.769,13.999-33.796l92.103-92.103c4.49-4.49,11.798-4.49,16.288,0l3.597,3.597l33.909-33.91
	c0.75-0.75,2.078-0.75,2.828,0l41.282,41.281c0.375,0.375,0.586,0.884,0.586,1.414s-0.211,1.039-0.586,1.414l-33.91,33.91
	l3.596,3.597c2.175,2.175,3.374,5.067,3.374,8.144c0,3.077-1.198,5.97-3.374,8.145l-92.103,92.103
	C72.563,199.608,60.56,204.58,47.794,204.58z M114.246,31.518c-1.925,0-3.85,0.732-5.316,2.198l-92.103,92.103
	c-17.075,17.075-17.075,44.859,0,61.935l0,0c8.271,8.271,19.269,12.827,30.967,12.827s22.695-4.556,30.967-12.827l92.103-92.103
	c2.931-2.932,2.931-7.7,0-10.632l-5.002-5.002c-0.003-0.003-0.006-0.006-0.008-0.009l-46.292-46.292
	C118.096,32.25,116.171,31.518,114.246,31.518z M149.455,57.953l17.813,17.813l32.496-32.496l-17.813-17.813L149.455,57.953z
	 M128.815,37.313l17.812,17.812l32.496-32.495L161.31,4.816L128.815,37.313z M67.071,148.126c-2.796,0-5.425-1.089-7.402-3.066
	c-1.978-1.977-3.066-4.605-3.066-7.402c0-2.796,1.089-5.425,3.066-7.402c1.977-1.978,4.606-3.066,7.402-3.066
	c2.118,0,4.139,0.624,5.854,1.786l8.58-8.58c-5.382-6.199-5.127-15.629,0.766-21.522l4.906-4.906
	c-1.51-2.74-1.106-6.263,1.214-8.584c2.813-2.812,7.387-2.81,10.197,0l0,0c1.362,1.362,2.112,3.173,2.112,5.099
	s-0.75,3.736-2.112,5.099c-1.361,1.362-3.172,2.112-5.098,2.112c-1.24,0-2.432-0.311-3.487-0.896L85.1,101.7
	c-4.333,4.333-4.584,11.226-0.756,15.856l33.95-33.949l-3.669-3.67c-0.505-0.505-0.703-1.241-0.518-1.932
	c0.185-0.69,0.724-1.229,1.414-1.414l13.889-3.722c0.688-0.185,1.427,0.013,1.932,0.518c0.505,0.505,0.703,1.241,0.518,1.932
	l-3.722,13.889c-0.185,0.69-0.724,1.229-1.414,1.414c-0.687,0.185-1.426-0.012-1.932-0.518l-3.669-3.669l-33.951,33.95
	c4.633,3.83,11.525,3.576,15.857-0.756l12.076-12.076l-2.121-2.122c-0.375-0.375-0.586-0.884-0.586-1.414s0.211-1.039,0.586-1.414
	l7.071-7.07c0.781-0.781,2.047-0.781,2.828,0l7.071,7.07c0.375,0.375,0.586,0.884,0.586,1.414s-0.21,1.039-0.586,1.414l-7.071,7.071
	c-0.75,0.75-2.078,0.75-2.828,0l-2.121-2.121l-12.076,12.076c-5.894,5.893-15.323,6.147-21.523,0.766l-8.58,8.579
	c1.162,1.716,1.787,3.737,1.787,5.854c0,2.797-1.089,5.426-3.067,7.402C72.497,147.037,69.868,148.126,67.071,148.126z
	 M67.071,131.188c-1.728,0-3.352,0.673-4.574,1.895c-1.222,1.222-1.895,2.847-1.895,4.574c0,1.729,0.673,3.353,1.895,4.574
	c1.222,1.222,2.846,1.895,4.574,1.895s3.352-0.673,4.574-1.895c1.222-1.222,1.895-2.846,1.895-4.574
	c0-1.728-0.673-3.353-1.895-4.574l0,0C70.423,131.861,68.799,131.188,67.071,131.188z M117.226,104.018l4.242,4.243l4.243-4.243
	l-4.243-4.242L117.226,104.018z M93.491,87.271c-0.822,0-1.645,0.313-2.271,0.938c-1.251,1.252-1.251,3.289,0,4.541
	c1.212,1.213,3.328,1.213,4.54,0c1.252-1.252,1.252-3.289,0-4.541C95.135,87.585,94.313,87.271,93.491,87.271z M119.902,79.559
	l5.269,5.269l1.928-7.197L119.902,79.559z M173.808,61.177L173.808,61.177c-0.53,0-1.039-0.211-1.415-0.586l-7.668-7.67
	c-0.781-0.781-0.781-2.047,0-2.828l9.279-9.278c0.78-0.781,2.047-0.781,2.828,0l7.669,7.669c0.781,0.781,0.781,2.047,0,2.828
	l-9.279,9.279C174.847,60.966,174.338,61.177,173.808,61.177z M168.968,51.507l4.84,4.842l6.45-6.451l-4.84-4.841L168.968,51.507z
	 M153.073,40.441c-0.53,0-1.039-0.211-1.414-0.586l-7.669-7.67c-0.781-0.781-0.781-2.047,0-2.828l9.279-9.278
	c0.78-0.781,2.047-0.781,2.828,0l7.669,7.669c0.781,0.781,0.781,2.047,0,2.828l-9.279,9.279
	C154.112,40.23,153.603,40.441,153.073,40.441z M148.232,30.771l4.84,4.842l6.45-6.451l-4.84-4.841L148.232,30.771z"/>
<g>
</g>
<g>
</g>
<g>
</g>
<g>
</g>
<g>
</g>
<g>
</g>
<g>
</g>
<g>
</g>
<g>
</g>
<g>
</g>
<g>
</g>
<g>
</g>
<g>
</g>
<g>
</g>
<g>
</g>
</svg>
