<?xml version="1.0" encoding="iso-8859-1"?>
<!-- Generator: Adobe Illustrator 17.1.0, SVG Export Plug-In . SVG Version: 6.00 Build 0)  -->
<!DOCTYPE svg PUBLIC "-//W3C//DTD SVG 1.1//EN" "http://www.w3.org/Graphics/SVG/1.1/DTD/svg11.dtd">
<svg version="1.1" id="Capa_1" xmlns="http://www.w3.org/2000/svg" xmlns:xlink="http://www.w3.org/1999/xlink" x="0px" y="0px"
	 viewBox="0 0 209.05 209.05" style="enable-background:new 0 0 209.05 209.05;" xml:space="preserve">
<path d="M197.354,193.588H11.696C5.247,193.588,0,188.341,0,181.892V27.158c0-6.449,5.247-11.696,11.696-11.696h185.657
	c6.449,0,11.696,5.247,11.696,11.696v154.733C209.05,188.341,203.803,193.588,197.354,193.588z M11.696,19.462
	C7.452,19.462,4,22.915,4,27.158v154.733c0,4.244,3.452,7.696,7.696,7.696h185.657c4.244,0,7.696-3.453,7.696-7.696V27.158
	c0-4.244-3.452-7.696-7.696-7.696H11.696z M104.524,184.082c-5.404,0-9.801-4.397-9.801-9.801s4.396-9.801,9.801-9.801
	s9.801,4.396,9.801,9.801S109.929,184.082,104.524,184.082z M104.524,168.48c-3.198,0-5.801,2.602-5.801,5.801
	s2.603,5.801,5.801,5.801s5.801-2.603,5.801-5.801S107.723,168.48,104.524,168.48z M195.354,159.691H13.696c-1.104,0-2-0.896-2-2
	V34.459c0-1.104,0.896-2,2-2h181.657c1.104,0,2,0.896,2,2v123.232C197.354,158.796,196.458,159.691,195.354,159.691z
	 M15.696,155.691h177.657V36.459H15.696V155.691z M104.524,128.525c-16.267,0-29.5-13.234-29.5-29.5s13.233-29.5,29.5-29.5
	s29.5,13.234,29.5,29.5S120.791,128.525,104.524,128.525z M104.524,73.525c-14.061,0-25.5,11.439-25.5,25.5s11.439,25.5,25.5,25.5
	s25.5-11.439,25.5-25.5S118.585,73.525,104.524,73.525z M96.815,113.641c-0.698,0-1.396-0.184-2.033-0.551
	c-1.273-0.735-2.034-2.052-2.034-3.522V88.482c0-1.471,0.761-2.787,2.034-3.522c1.271-0.734,2.793-0.735,4.066,0l18.26,10.542
	c1.273,0.734,2.034,2.051,2.034,3.522s-0.761,2.788-2.035,3.522l-18.259,10.542C98.212,113.457,97.514,113.641,96.815,113.641z
	 M96.849,88.424l-0.101,0.058v21.085l0.101,0.058l18.26-10.542v-0.116L96.849,88.424z M113.858,28.47H95.191c-1.104,0-2-0.896-2-2
	s0.896-2,2-2h18.667c1.104,0,2,0.896,2,2S114.963,28.47,113.858,28.47z"/>
<g>
</g>
<g>
</g>
<g>
</g>
<g>
</g>
<g>
</g>
<g>
</g>
<g>
</g>
<g>
</g>
<g>
</g>
<g>
</g>
<g>
</g>
<g>
</g>
<g>
</g>
<g>
</g>
<g>
</g>
</svg>
