<?xml version="1.0" encoding="iso-8859-1"?>
<!-- Generator: Adobe Illustrator 17.1.0, SVG Export Plug-In . SVG Version: 6.00 Build 0)  -->
<!DOCTYPE svg PUBLIC "-//W3C//DTD SVG 1.1//EN" "http://www.w3.org/Graphics/SVG/1.1/DTD/svg11.dtd">
<svg version="1.1" id="Capa_1" xmlns="http://www.w3.org/2000/svg" xmlns:xlink="http://www.w3.org/1999/xlink" x="0px" y="0px"
	 viewBox="0 0 195.186 195.186" style="enable-background:new 0 0 195.186 195.186;" xml:space="preserve">
<path d="M180.619,173.304H14.566C6.535,173.304,0,166.77,0,158.737V36.448c0-8.032,6.535-14.566,14.566-14.566h166.052
	c8.032,0,14.567,6.534,14.567,14.566v122.289C195.186,166.77,188.651,173.304,180.619,173.304z M14.566,25.882
	C8.74,25.882,4,30.622,4,36.448v122.289c0,5.826,4.74,10.566,10.566,10.566h166.052c5.827,0,10.567-4.74,10.567-10.566V36.448
	c0-5.826-4.74-10.566-10.567-10.566H14.566z M49.206,163.468c-3.096,0-5.72-2.057-6.579-4.875H15.581c-1.104,0-2-0.896-2-2
	s0.896-2,2-2h27.046c0.859-2.818,3.483-4.875,6.579-4.875s5.72,2.057,6.579,4.875h123.819c1.104,0,2,0.896,2,2s-0.896,2-2,2H55.785
	C54.926,161.411,52.302,163.468,49.206,163.468z M49.206,153.718c-1.585,0-2.875,1.29-2.875,2.875s1.29,2.875,2.875,2.875
	s2.875-1.29,2.875-2.875S50.792,153.718,49.206,153.718z M84.554,113.62c-1.239,0-2.478-0.325-3.608-0.978
	c-2.259-1.305-3.608-3.641-3.608-6.249v-30.11c0-2.609,1.349-4.945,3.608-6.25c2.259-1.306,4.957-1.303,7.215,0l26.077,15.056
	c2.259,1.305,3.608,3.641,3.608,6.25c0,2.608-1.349,4.944-3.608,6.249l-26.077,15.055C87.033,113.294,85.793,113.62,84.554,113.62z
	 M84.554,73.062c-0.552,0-1.104,0.146-1.607,0.436c-1.007,0.582-1.608,1.623-1.608,2.786v30.11c0,1.162,0.601,2.203,1.608,2.785
	c1.007,0.58,2.209,0.581,3.216-0.001l26.077-15.055c1.007-0.581,1.608-1.622,1.608-2.784c0-1.163-0.601-2.204-1.608-2.785
	L86.162,73.498C85.659,73.207,85.106,73.062,84.554,73.062z"/>
<g>
</g>
<g>
</g>
<g>
</g>
<g>
</g>
<g>
</g>
<g>
</g>
<g>
</g>
<g>
</g>
<g>
</g>
<g>
</g>
<g>
</g>
<g>
</g>
<g>
</g>
<g>
</g>
<g>
</g>
</svg>
