<?xml version="1.0" encoding="iso-8859-1"?>
<!-- Generator: Adobe Illustrator 17.1.0, SVG Export Plug-In . SVG Version: 6.00 Build 0)  -->
<!DOCTYPE svg PUBLIC "-//W3C//DTD SVG 1.1//EN" "http://www.w3.org/Graphics/SVG/1.1/DTD/svg11.dtd">
<svg version="1.1" id="Capa_1" xmlns="http://www.w3.org/2000/svg" xmlns:xlink="http://www.w3.org/1999/xlink" x="0px" y="0px"
	 viewBox="0 0 185.333 185.333" style="enable-background:new 0 0 185.333 185.333;" xml:space="preserve">
<path d="M170,167.6h-31c-1.104,0-2-0.896-2-2v-6.167H46.666v6.167c0,1.104-0.896,2-2,2h-31c-1.104,0-2-0.896-2-2v-6.167H8.833
	C3.963,159.433,0,155.47,0,150.6v-29c0-4.871,3.963-8.833,8.833-8.833h150v-7.25c0-7.03-5.72-12.75-12.75-12.75H26
	c-7.903,0-14.334-6.43-14.334-14.333V45.794c0-7.903,6.431-14.333,14.334-14.333h119.757c0.971-5.649,5.904-9.96,11.826-9.96h8.5
	v-1.767c0-1.104,0.896-2,2-2s2,0.896,2,2v6.079h10c1.104,0,2,0.896,2,2s-0.896,2-2,2h-10v7.375h10c1.104,0,2,0.896,2,2s-0.896,2-2,2
	h-10v6.079c0,1.104-0.896,2-2,2s-2-0.896-2-2V45.5h-8.5c-5.949,0-10.901-4.352-11.84-10.04H26c-5.698,0-10.334,4.636-10.334,10.333
	v32.639c0,5.698,4.636,10.333,10.334,10.333h120.083c9.236,0,16.75,7.514,16.75,16.75v7.25H176.5c4.87,0,8.833,3.963,8.833,8.833v29
	c0,4.871-3.963,8.833-8.833,8.833H172v6.167C172,166.704,171.104,167.6,170,167.6z M141,163.6h27v-4.167h-27V163.6z M15.666,163.6
	h27v-4.167h-27V163.6z M170,155.433h6.5c2.665,0,4.833-2.168,4.833-4.833v-29c0-2.665-2.168-4.833-4.833-4.833H8.833
	C6.168,116.766,4,118.935,4,121.6v29c0,2.665,2.168,4.833,4.833,4.833H170z M157.583,25.5c-4.411,0-8,3.589-8,8s3.589,8,8,8h8.5v-16
	H157.583z M162.604,148.6c-6.893,0-12.5-5.607-12.5-12.5s5.607-12.5,12.5-12.5s12.5,5.607,12.5,12.5S169.497,148.6,162.604,148.6z
	 M162.604,127.6c-4.687,0-8.5,3.813-8.5,8.5s3.813,8.5,8.5,8.5s8.5-3.813,8.5-8.5S167.291,127.6,162.604,127.6z M125.666,148.6h-112
	c-1.104,0-2-0.896-2-2v-10.5c0-1.104,0.896-2,2-2h112c1.104,0,2,0.896,2,2v10.5C127.666,147.704,126.77,148.6,125.666,148.6z
	 M15.666,144.6h108v-6.5h-108V144.6z M141.04,141.725c-3.102,0-5.625-2.523-5.625-5.625s2.523-5.625,5.625-5.625
	s5.625,2.523,5.625,5.625S144.142,141.725,141.04,141.725z M141.04,134.475c-0.896,0-1.625,0.729-1.625,1.625
	s0.729,1.625,1.625,1.625s1.625-0.729,1.625-1.625S141.937,134.475,141.04,134.475z M125.666,127.6h-112c-1.104,0-2-0.896-2-2
	s0.896-2,2-2h112c1.104,0,2,0.896,2,2S126.77,127.6,125.666,127.6z"/>
<g>
</g>
<g>
</g>
<g>
</g>
<g>
</g>
<g>
</g>
<g>
</g>
<g>
</g>
<g>
</g>
<g>
</g>
<g>
</g>
<g>
</g>
<g>
</g>
<g>
</g>
<g>
</g>
<g>
</g>
</svg>
