<?xml version="1.0" encoding="iso-8859-1"?>
<!-- Generator: Adobe Illustrator 17.1.0, SVG Export Plug-In . SVG Version: 6.00 Build 0)  -->
<!DOCTYPE svg PUBLIC "-//W3C//DTD SVG 1.1//EN" "http://www.w3.org/Graphics/SVG/1.1/DTD/svg11.dtd">
<svg version="1.1" id="Capa_1" xmlns="http://www.w3.org/2000/svg" xmlns:xlink="http://www.w3.org/1999/xlink" x="0px" y="0px"
	 viewBox="0 0 187.307 187.307" style="enable-background:new 0 0 187.307 187.307;" xml:space="preserve">
<path d="M172.82,181.786c-1.104,0-2-0.896-2-2V89.427c-7.044-0.978-12.486-7.039-12.486-14.349s5.442-13.371,12.486-14.349V7.521
	c0-1.104,0.896-2,2-2s2,0.896,2,2V60.73c7.044,0.978,12.486,7.039,12.486,14.349s-5.442,13.371-12.486,14.349v90.358
	C174.82,180.89,173.925,181.786,172.82,181.786z M172.82,64.592c-5.782,0-10.486,4.704-10.486,10.486s4.704,10.486,10.486,10.486
	s10.486-4.704,10.486-10.486S178.603,64.592,172.82,64.592z M120.042,181.786c-1.104,0-2-0.896-2-2V58.625
	c-7.045-0.978-12.487-7.04-12.487-14.35s5.442-13.371,12.487-14.349V7.521c0-1.104,0.896-2,2-2s2,0.896,2,2v22.406
	c7.044,0.978,12.486,7.039,12.486,14.349s-5.442,13.372-12.486,14.35v121.16C122.042,180.89,121.147,181.786,120.042,181.786z
	 M120.042,33.79c-5.782,0-10.487,4.704-10.487,10.486s4.705,10.487,10.487,10.487s10.486-4.705,10.486-10.487
	S125.825,33.79,120.042,33.79z M67.265,181.786c-1.104,0-2-0.896-2-2v-25.058c-7.045-0.978-12.487-7.039-12.487-14.349
	s5.442-13.371,12.487-14.349V7.521c0-1.104,0.896-2,2-2s2,0.896,2,2v118.51c7.044,0.978,12.486,7.039,12.486,14.349
	s-5.442,13.371-12.486,14.349v25.058C69.265,180.89,68.369,181.786,67.265,181.786z M67.265,129.893
	c-5.782,0-10.487,4.704-10.487,10.486s4.705,10.486,10.487,10.486s10.486-4.704,10.486-10.486S73.047,129.893,67.265,129.893z
	 M14.487,181.786c-1.104,0-2-0.896-2-2v-79.27C5.442,99.539,0,93.477,0,86.167s5.442-13.371,12.487-14.349V7.521
	c0-1.104,0.896-2,2-2s2,0.896,2,2v64.298c7.044,0.978,12.486,7.039,12.486,14.349s-5.442,13.371-12.486,14.349v79.27
	C16.487,180.89,15.591,181.786,14.487,181.786z M14.487,75.681C8.705,75.681,4,80.385,4,86.167s4.705,10.486,10.487,10.486
	s10.486-4.704,10.486-10.486S20.269,75.681,14.487,75.681z"/>
<g>
</g>
<g>
</g>
<g>
</g>
<g>
</g>
<g>
</g>
<g>
</g>
<g>
</g>
<g>
</g>
<g>
</g>
<g>
</g>
<g>
</g>
<g>
</g>
<g>
</g>
<g>
</g>
<g>
</g>
</svg>
