<?xml version="1.0" encoding="iso-8859-1"?>
<!-- Generator: Adobe Illustrator 17.1.0, SVG Export Plug-In . SVG Version: 6.00 Build 0)  -->
<!DOCTYPE svg PUBLIC "-//W3C//DTD SVG 1.1//EN" "http://www.w3.org/Graphics/SVG/1.1/DTD/svg11.dtd">
<svg version="1.1" id="Capa_1" xmlns="http://www.w3.org/2000/svg" xmlns:xlink="http://www.w3.org/1999/xlink" x="0px" y="0px"
	 viewBox="0 0 202.5 202.5" style="enable-background:new 0 0 202.5 202.5;" xml:space="preserve">
<path d="M141,202.5H61.5c-10.89,0-19.75-9.108-19.75-20.303V20.303C41.75,9.108,50.61,0,61.5,0H141
	c10.891,0,19.75,9.108,19.75,20.303v161.894C160.75,193.392,151.89,202.5,141,202.5z M61.5,4c-8.685,0-15.75,7.313-15.75,16.303
	v161.894c0,8.99,7.065,16.303,15.75,16.303H141c8.685,0,15.75-7.313,15.75-16.303V20.303C156.75,11.313,149.684,4,141,4H61.5z
	 M101.25,193.839c-5.376,0-9.75-4.374-9.75-9.75s4.374-9.75,9.75-9.75c5.375,0,9.75,4.374,9.75,9.75S106.626,193.839,101.25,193.839
	z M101.25,178.339c-3.17,0-5.75,2.58-5.75,5.75s2.58,5.75,5.75,5.75s5.75-2.58,5.75-5.75S104.421,178.339,101.25,178.339z
	 M152.5,170.5H50c-1.104,0-2-0.896-2-2V23c0-1.104,0.896-2,2-2h102.5c1.104,0,2,0.896,2,2v145.5
	C154.5,169.604,153.604,170.5,152.5,170.5z M52,166.5h98.5V25H52V166.5z M101.25,125.25c-16.266,0-29.5-13.234-29.5-29.5
	s13.234-29.5,29.5-29.5s29.5,13.234,29.5,29.5S117.516,125.25,101.25,125.25z M101.25,70.25c-14.061,0-25.5,11.439-25.5,25.5
	s11.439,25.5,25.5,25.5c14.06,0,25.5-11.439,25.5-25.5S115.31,70.25,101.25,70.25z M93.54,110.366c-0.698,0-1.396-0.184-2.033-0.551
	c-1.273-0.735-2.034-2.052-2.034-3.522V85.208c0-1.471,0.76-2.787,2.034-3.522c1.273-0.735,2.793-0.734,4.067,0l18.259,10.542
	c1.273,0.734,2.034,2.051,2.034,3.522s-0.761,2.788-2.035,3.522l-18.259,10.542h0C94.938,110.182,94.239,110.366,93.54,110.366z
	 M93.574,85.149l-0.101,0.058v21.085l0.101,0.058l18.26-10.542v-0.116L93.574,85.149z M105.312,15.125h-8.125c-1.104,0-2-0.896-2-2
	s0.896-2,2-2h8.125c1.104,0,2,0.896,2,2S106.417,15.125,105.312,15.125z"/>
<g>
</g>
<g>
</g>
<g>
</g>
<g>
</g>
<g>
</g>
<g>
</g>
<g>
</g>
<g>
</g>
<g>
</g>
<g>
</g>
<g>
</g>
<g>
</g>
<g>
</g>
<g>
</g>
<g>
</g>
</svg>
