<?xml version="1.0" encoding="iso-8859-1"?>
<!-- Generator: Adobe Illustrator 17.1.0, SVG Export Plug-In . SVG Version: 6.00 Build 0)  -->
<!DOCTYPE svg PUBLIC "-//W3C//DTD SVG 1.1//EN" "http://www.w3.org/Graphics/SVG/1.1/DTD/svg11.dtd">
<svg version="1.1" id="Capa_1" xmlns="http://www.w3.org/2000/svg" xmlns:xlink="http://www.w3.org/1999/xlink" x="0px" y="0px"
	 viewBox="0 0 196.789 196.789" style="enable-background:new 0 0 196.789 196.789;" xml:space="preserve">
<path d="M163.85,196.789H32.939c-0.664,0-1.284-0.329-1.656-0.879s-0.447-1.248-0.201-1.864l3.562-8.905
	c0.093-0.249,0.234-0.475,0.413-0.665l0-0.001c0.001-0.001,0.003-0.003,0.004-0.005h0c0.001-0.002,0.003-0.003,0.004-0.005
	c0.002-0.001,0.003-0.002,0.004-0.005c0.001-0.001,0.003-0.003,0.004-0.004c0.001-0.001,0.002-0.002,0.003-0.004
	c0,0,0.001,0,0.001-0.001c0.005-0.005,0.011-0.011,0.016-0.016c0,0,0.002-0.002,0.004-0.004c0.003-0.003,0.003-0.003,0.004-0.005
	c0.002,0,0.003-0.002,0.004-0.004c0-0.001,0-0.001,0-0.001c0.002-0.002,0.004-0.004,0.006-0.006
	c0.003-0.003,0.003-0.003,0.004-0.004c0.001-0.001,0.004-0.002,0.005-0.005c0.001-0.001,0.002-0.002,0.003-0.004
	c0,0,0.001,0,0.001-0.001c0.251-0.242,0.565-0.42,0.916-0.505l28.947-7.72c7.348-1.959,12.48-8.639,12.48-16.244v-8.279
	c-32.473-9.145-56.343-39.031-56.343-74.389C21.128,34.661,55.79,0,98.395,0s77.266,34.661,77.266,77.266
	c0,35.357-23.87,65.244-56.343,74.389v8.279c0,7.605,5.132,14.285,12.48,16.244l28.947,7.72c0.646,0.157,1.17,0.629,1.4,1.243
	l3.563,8.905c0.247,0.616,0.171,1.314-0.201,1.864S164.514,196.789,163.85,196.789z M98.395,192.789h62.501l-1.979-4.948H37.873
	l-1.979,4.948H98.395z M51.78,183.841h93.229l-14.242-3.798c-9.097-2.425-15.45-10.694-15.45-20.109v-7.269
	c-5.448,1.223-11.111,1.867-16.923,1.867s-11.475-0.645-16.923-1.867v7.269c0,9.415-6.354,17.685-15.45,20.109L51.78,183.841z
	 M80.71,148.375c5.666,1.409,11.589,2.157,17.685,2.157s12.02-0.748,17.685-2.158c0.419-0.33,1.005-0.488,1.553-0.404
	c31.097-8.471,54.028-36.96,54.028-70.704C171.661,36.867,138.793,4,98.395,4S25.128,36.867,25.128,77.266
	c0,33.744,22.931,62.233,54.028,70.704C79.705,147.885,80.291,148.044,80.71,148.375z M98.395,123.392
	c-25.434,0-46.125-20.692-46.125-46.126s20.691-46.125,46.125-46.125s46.125,20.691,46.125,46.125S123.828,123.392,98.395,123.392z
	 M98.395,35.141c-23.228,0-42.125,18.897-42.125,42.125c0,23.229,18.897,42.126,42.125,42.126s42.125-18.897,42.125-42.126
	C140.52,54.038,121.623,35.141,98.395,35.141z M98.395,113.391c-19.919,0-36.125-16.206-36.125-36.125s16.206-36.125,36.125-36.125
	s36.125,16.206,36.125,36.125S118.314,113.391,98.395,113.391z M98.395,45.141c-17.714,0-32.125,14.411-32.125,32.125
	s14.411,32.125,32.125,32.125s32.125-14.411,32.125-32.125S116.108,45.141,98.395,45.141z M98.525,94.328
	c-9.408,0-17.062-7.654-17.062-17.063s7.654-17.062,17.062-17.062s17.063,7.653,17.063,17.062S107.933,94.328,98.525,94.328z
	 M98.525,64.204c-7.203,0-13.062,5.859-13.062,13.062c0,7.203,5.859,13.063,13.062,13.063s13.063-5.859,13.063-13.063
	C111.587,70.063,105.728,64.204,98.525,64.204z M138.568,40.794c-4.438,0-8.049-3.61-8.049-8.049s3.611-8.049,8.049-8.049
	s8.049,3.61,8.049,8.049S143.006,40.794,138.568,40.794z M138.568,28.696c-2.232,0-4.049,1.816-4.049,4.049s1.816,4.049,4.049,4.049
	s4.049-1.816,4.049-4.049S140.801,28.696,138.568,28.696z"/>
<g>
</g>
<g>
</g>
<g>
</g>
<g>
</g>
<g>
</g>
<g>
</g>
<g>
</g>
<g>
</g>
<g>
</g>
<g>
</g>
<g>
</g>
<g>
</g>
<g>
</g>
<g>
</g>
<g>
</g>
</svg>
