<?xml version="1.0" encoding="iso-8859-1"?>
<!-- Generator: Adobe Illustrator 17.1.0, SVG Export Plug-In . SVG Version: 6.00 Build 0)  -->
<!DOCTYPE svg PUBLIC "-//W3C//DTD SVG 1.1//EN" "http://www.w3.org/Graphics/SVG/1.1/DTD/svg11.dtd">
<svg version="1.1" id="Capa_1" xmlns="http://www.w3.org/2000/svg" xmlns:xlink="http://www.w3.org/1999/xlink" x="0px" y="0px"
	 viewBox="0 0 193.978 193.978" style="enable-background:new 0 0 193.978 193.978;" xml:space="preserve">
<path d="M187.728,175.091H6.25c-3.446,0-6.25-2.804-6.25-6.25V25.137c0-3.446,2.804-6.25,6.25-6.25h181.478
	c3.446,0,6.25,2.804,6.25,6.25v143.703C193.978,172.287,191.174,175.091,187.728,175.091z M144.673,171.091h43.055
	c1.241,0,2.25-1.009,2.25-2.25V38.965h-6.718v110.366c0,0.03,0,0.06-0.002,0.089c0.001,0.03,0.002,0.06,0.002,0.089
	c0,1.104-0.896,2-2,2h-36.587V171.091z M19.266,171.091h121.407v-51.736H19.266V171.091z M4,38.965v129.875
	c0,1.241,1.009,2.25,2.25,2.25h9.016V38.965H4z M144.673,147.331h34.587v-11.899h-34.587V147.331z M144.673,131.432h34.587v-12.078
	h-34.587V131.432z M144.673,115.354h34.587v-12.078h-34.587V115.354z M19.266,115.354h121.407V108.1H48.385v0.59
	c0,1.104-0.896,2-2,2s-2-0.896-2-2v-0.59H19.266V115.354z M48.385,104.1h92.288V38.965H19.266V104.1h25.119v-0.948
	c0-1.104,0.896-2,2-2s2,0.896,2,2V104.1z M144.673,99.277h34.587V87.198h-34.587V99.277z M144.673,83.198h34.587V38.965h-34.587
	V83.198z M181.26,34.965h8.718v-9.828c0-1.241-1.009-2.25-2.25-2.25H6.25c-1.241,0-2.25,1.009-2.25,2.25v9.828H181.26z
	 M131.418,162.228h-15.542c-1.104,0-2-0.896-2-2s0.896-2,2-2h15.542c1.104,0,2,0.896,2,2S132.523,162.228,131.418,162.228z
	 M106.766,162.228H91.224c-1.104,0-2-0.896-2-2s0.896-2,2-2h15.542c1.104,0,2,0.896,2,2S107.87,162.228,106.766,162.228z
	 M131.15,151.778H27.716c-1.104,0-2-0.896-2-2v-20.901c0-1.104,0.896-2,2-2H131.15c1.104,0,2,0.896,2,2v20.901
	C133.15,150.882,132.255,151.778,131.15,151.778z M29.716,147.778h99.434v-16.901H29.716V147.778z M70.192,88.091
	c-0.345,0-0.69-0.089-1-0.268c-0.619-0.357-1-1.018-1-1.732V59.275c0-0.714,0.381-1.375,1-1.732c0.619-0.357,1.381-0.357,2,0
	l23.224,13.408c0.619,0.357,1,1.018,1,1.732s-0.381,1.375-1,1.732L71.192,87.823C70.883,88.001,70.538,88.091,70.192,88.091z
	 M72.192,62.739v19.888l17.224-9.944L72.192,62.739z M181.26,30.926H38.971c-1.104,0-2-0.896-2-2s0.896-2,2-2H181.26
	c1.104,0,2,0.896,2,2S182.364,30.926,181.26,30.926z M25.037,30.926h-0.201c-1.104,0-2-0.896-2-2s0.896-2,2-2h0.201
	c1.104,0,2,0.896,2,2S26.141,30.926,25.037,30.926z M17.467,30.926h-0.201c-1.104,0-2-0.896-2-2s0.896-2,2-2h0.201
	c1.104,0,2,0.896,2,2S18.571,30.926,17.467,30.926z M9.896,30.926H9.696c-1.104,0-2-0.896-2-2s0.896-2,2-2h0.201
	c1.104,0,2,0.896,2,2S11.001,30.926,9.896,30.926z"/>
<g>
</g>
<g>
</g>
<g>
</g>
<g>
</g>
<g>
</g>
<g>
</g>
<g>
</g>
<g>
</g>
<g>
</g>
<g>
</g>
<g>
</g>
<g>
</g>
<g>
</g>
<g>
</g>
<g>
</g>
</svg>
