<?xml version="1.0" standalone="no"?>
<!DOCTYPE svg PUBLIC "-//W3C//DTD SVG 1.1//EN" "http://www.w3.org/Graphics/SVG/1.1/DTD/svg11.dtd">
<svg xmlns="http://www.w3.org/2000/svg">
<metadata>Copyright (C) 2017 by original authors @ fontello.com</metadata>
<defs>
<font id="injazz_icon" horiz-adv-x="1000" >
<font-face font-family="injazz_icon" font-weight="400" font-stretch="normal" units-per-em="1000" ascent="850" descent="-150" />
<missing-glyph horiz-adv-x="1000" />
<glyph glyph-name="gplus" unicode="&#xe800;" d="M0 32q0 87 89 155t215 68l54 0q-42 40-42 86 0 29 16 58-10-1-29-1-104 0-170 65t-66 160q0 91 82 159t187 68l310 0-69-50-98 0q47-18 74-68t26-111q0-93-88-162-37-29-48-46t-11-42q0-19 27-48t54-49q61-43 85-88t23-113q0-90-82-157t-222-66q-133 0-225 50t-92 132z m112 33q0-69 59-118t145-48q119 0 173 44t53 117q0 19-4 32-3 11-7 21t-12 19-14 16-19 16-21 15-25 18-26 17q-39 12-77 12-90 1-157-47t-68-114z m66 559q11-79 61-136t109-58q59-2 94 52t25 133-59 134-110 57-95-51-25-131z m555-24l0 50 200 0 0 200 50 0 0-200 201 0 0-50-201 0 0-201-50 0 0 201-200 0z" horiz-adv-x="1184" />

<glyph glyph-name="twitter" unicode="&#xe801;" d="M0-37q30-3 60-3 176 0 314 108-82 1-147 50t-89 125q20-4 47-4 35 0 67 9-88 17-145 87t-58 160l0 3q53-30 115-31-52 34-82 90t-31 120q0 68 35 127 94-117 230-186t290-78q-7 33-7 58 0 104 74 178t179 74q109 0 184-80 87 18 160 62-28-91-110-140 73 9 144 40-48-75-125-131l0-33q0-101-29-202t-90-194-145-165-201-115-253-42q-209 0-387 113z" horiz-adv-x="1230" />

<glyph glyph-name="youtube" unicode="&#xe802;" d="M0 123q0 54 6 162 4 53 38 87t87 36q100 5 301 5t301-5q53-3 87-36t38-87q5-90 5-162t-5-162q-4-53-38-87t-87-36q-100-5-301-5t-301 5q-53 3-87 36t-38 87q-6 108-6 162z m67 141l61 0 0-326 59 0 0 326 61 0 0 55-181 0 0-55z m65 603l60 0 38-152 4 0 36 152 60 0-46-148q-23-73-23-75l0-158-59 0 0 151q-2 14-5 26t-9 26-9 25z m116-885q0-48 36-48 32 0 61 35l0-31 52 0 0 281-52 0 0-214q-21-21-31-21-14 0-14 19l0 216-52 0 0-237z m79 575l0 146q0 34 22 53t56 18q33 0 54-20t20-53l0-145q0-36-20-56t-56-21q-35 0-55 22t-21 56z m54-7q0-23 22-23 23 0 23 25l0 153q0 9-7 15t-16 6-15-5-7-15l0-156z m67-612l53 0 0 21q20-25 50-25 47 0 47 62l0 156q0 71-51 71-25 0-46-27l0 123-53 0 0-381z m53 53l0 176q11 11 22 11 22 0 22-28l0-148q0-24-19-24-14 0-25 13z m23 539l0 237 52 0 0-215q0-19 14-19 13 0 31 21l0 213 52 0 0-281-52 0 0 31q-29-35-61-35-36 0-36 48z m114-513q0-38 19-63t57-24q78 0 78 87l0 21-54 0q0-2 1-13t-1-17-2-14-7-12-14-3q-23 0-23 40l0 53 100 0 0 72q0 38-18 60t-57 22q-36 0-57-23t-22-59l0-127z m54 99l0 30q0 31 23 31t23-31l0-30-46 0z" horiz-adv-x="863" />

<glyph glyph-name="facebook" unicode="&#xe803;" d="M0 313l0 191 154 0 0 96q0 104 68 177t163 73l153 0 0-191-153 0q-15 0-27-16t-12-41l0-98 192 0 0-191-192 0 0-463-192 0 0 463-154 0z" horiz-adv-x="538" />

<glyph glyph-name="camera-alt" unicode="&#xe804;" d="M518 386q0 8-5 13t-13 5q-37 0-63-27t-26-63q0-7 5-12t13-6 12 6 5 12q0 23 16 38t38 16q8 0 13 5t5 13z m125-73q0-59-42-101t-101-42-101 42-42 101 42 101 101 42 101-42 42-101z m-572-320h858v71h-858v-71z m643 320q0 89-62 152t-152 63-151-63-63-152 63-151 151-63 152 63 62 151z m-571 358h214v72h-214v-72z m-72-107h858v143h-462l-36-71h-360v-72z m929 143v-714q0-30-21-51t-50-21h-858q-29 0-50 21t-21 51v714q0 30 21 51t50 21h858q29 0 50-21t21-51z" horiz-adv-x="1000" />

<glyph glyph-name="star" unicode="&#xe805;" d="M0 471l379-2 125 360 117-364 379-8-309-220 110-366-307 225-310-215 119 360z" horiz-adv-x="1000" />

<glyph glyph-name="star-empty" unicode="&#xe806;" d="M0 471l94 0 285-2 96 270 29 90 29-92 88-272 285-6 94-2-76-54-233-166 82-274 28-92-76 57-231 168-232-162-78-53 29 90 90 270-227 174z m189-64l168-129 20-14-8-21-66-203 176 123 17 11 18-13 172-125-61 203-6 21 18 14 174 125-215 4-22 2-8 21-64 201-70-199-8-21-235 0z" horiz-adv-x="1000" />

<glyph glyph-name="heart-1" unicode="&#xe807;" d="M1 532q7 111 75 183 94 80 212 70t190-98q38 49 92 79 113 43 217 3t150-140q30-106 10-199t-78-174q-68-94-174-184-53-49-124-103t-93-57q-13 2-28 12t-35 25-24 20q-264 199-348 357-49 96-42 206z" horiz-adv-x="955" />

<glyph glyph-name="heart-empty-1" unicode="&#xe808;" d="M1 521q7 115 79 191l2 0 2 2q88 76 199 76t191-70q32 28 67 45l2 2 2 0q56 23 117 23 88 2 161-43t110-124l0-2 2-4q30-106 10-202t-80-175q-62-88-162-172 0-2-2-2-49-45-107-90-34-25-59-41-33-23-55-23l-6-2-5 2q-28 3-59 29-10 6-21 16t-16 13l-2 0q-246 188-328 340l0 2q-49 94-42 209z m85-10q-6-86 33-162 74-135 303-310l2 0q6-6 18-16t19-14q8-6 15-10 8 2 14 6 22 14 51 37 58 43 105 88 94 80 151 161 107 142 58 298-27 57-78 88t-113 29q-43 0-86-17-39-22-68-57l-32-43-35 43q-52 65-141 73t-161-53q-49-55-55-141z" horiz-adv-x="953" />

<glyph glyph-name="ccw" unicode="&#xe809;" d="M532 736q170 0 289-120t119-290-119-290-289-120q-142 0-252 88l70 74q84-60 182-60 126 0 216 90t90 218-90 218-216 90q-124 0-214-87t-92-211l142 0-184-204-184 204 124 0q2 166 122 283t286 117z" horiz-adv-x="940" />

<glyph glyph-name="cw" unicode="&#xe80a;" d="M408 760q168 0 287-116t123-282l122 0-184-206-184 206 144 0q-4 124-94 210t-214 86q-126 0-216-90t-90-218q0-126 90-216t216-90q104 0 182 60l70-76q-110-88-252-88-168 0-288 120t-120 290 120 290 288 120z" horiz-adv-x="940" />

<glyph glyph-name="star-1" unicode="&#xe80b;" d="M440 790l120-336 320 0-262-196 94-348-272 208-272-208 94 348-262 196 320 0z" horiz-adv-x="880" />

<glyph glyph-name="mail_box" unicode="&#xe80c;" d="M13 835h1457l1-967h-1458l62 67h1323l6 830-1326 8v-815l-65-90c0 0 2 965 0 967l0 0z m63-111l666-580 709 620-109 8-601-532-615 543-54 5 4-64z m1268-799l-434 391 66 42 460-397-62-47-30 11z m-1328-55l127 61 421 375-66 53-445-397-37-92z" horiz-adv-x="1484" />

<glyph glyph-name="cart_i" unicode="&#xe80d;" d="M19 784l86 6a18 18 0 0 0 14-6l73-99 3-6 119-563a16 16 0 0 1 16-13l571-1a17 17 0 0 1 16 9l141 354a16 16 0 0 1-14 22l-399 12a15 15 0 0 0-15 14l-2 26a16 16 0 0 0 16 17l445-12a17 17 0 0 1 15 10l46 114a16 16 0 0 1-14 22l-918 29a19 19 0 0 0-13 6l-80 116a16 16 0 0 1-13 7l-96 2a16 16 0 0 1-16-17l3-37a14 14 0 0 1 16-12h0z m390-728a103 103 0 1 0-103-103 103 103 0 0 0 103 103z m407 0a103 103 0 1 0-103-103 103 103 0 0 0 103 103z" horiz-adv-x="1151" />

<glyph glyph-name="star-empty-1" unicode="&#xe80e;" d="M880 454l-262-196 94-348-272 208-272-208 94 348-262 196 320 0 120 336 120-336 320 0z m-440-238l150-124-62 178 144 114-176-4-56 202-54-202-176 4 142-114-62-178z" horiz-adv-x="880" />

<glyph glyph-name="user_lk" unicode="&#xe80f;" d="M0-150l937 6-5 76a371 371 0 0 1-38 143 481 481 0 0 1-199 207c-185 100-418 69-575-90a458 458 0 0 1-82-115 380 380 0 0 1-37-153l-1-74h0z m470 1000a216 216 0 1 0-216-216 216 216 0 0 0 216 216z" horiz-adv-x="937" />

<glyph glyph-name="search" unicode="&#xe811;" d="M746 209l254-255-105-105-254 254q-106-72-232-72-169 0-289 120t-120 289 120 289 289 120 289-120 120-289q0-127-72-231z m-65 231q0 113-79 193t-193 80-193-80-80-193 80-192 193-80 193 80 79 192z" horiz-adv-x="1000" />

<glyph glyph-name="play-circled2" unicode="&#xe814;" d="M661 350q0-21-18-31l-304-178q-8-5-18-5-8 0-17 4-18 11-18 31v358q0 20 18 31 18 10 35-1l304-178q18-10 18-31z m71 0q0 83-41 152t-110 111-152 41-153-41-110-111-41-152 41-152 110-111 153-41 152 41 110 111 41 152z m125 0q0-117-57-215t-156-156-215-58-216 58-155 156-58 215 58 215 155 156 216 58 215-58 156-156 57-215z" horiz-adv-x="857.1" />

<glyph glyph-name="heart-empty" unicode="&#xe815;" d="M790 642q70-64 70-156t-70-156l-360-330-360 330q-70 64-70 156t70 156q64 58 152 58t150-58l58-52 56 52q64 58 152 58t152-58z m-54-260q42 40 42 104 0 66-38 100-38 38-102 38-52 0-104-48l-104-92-106 92q-48 48-102 48-64 0-104-38-38-36-38-100 0-66 44-104l306-286z" horiz-adv-x="860" />

<glyph glyph-name="heart" unicode="&#xe816;" d="M790 644q70-64 70-156t-70-158l-360-330-360 330q-70 66-70 158t70 156q62 58 151 58t153-58l56-52 58 52q62 58 150 58t152-58z" horiz-adv-x="860" />

<glyph glyph-name="check" unicode="&#xe817;" d="M249 0q-34 0-56 28l-180 236q-16 24-12 52t26 46 51 14 47-28l118-154 296 474q16 24 43 30t53-8q24-16 30-43t-8-53l-350-560q-20-32-56-32z" horiz-adv-x="667" />

<glyph glyph-name="cancel" unicode="&#xe818;" d="M452 194q18-18 18-43t-18-43q-18-16-43-16t-43 16l-132 152-132-152q-18-16-43-16t-43 16q-16 18-16 43t16 43l138 156-138 158q-16 18-16 43t16 43q18 16 43 16t43-16l132-152 132 152q18 16 43 16t43-16q18-18 18-43t-18-43l-138-158z" horiz-adv-x="470" />

<glyph glyph-name="heart-2" unicode="&#xe819;" d="M500-79q-14 0-25 10l-348 336q-5 5-15 15t-31 37-38 54-30 67-13 77q0 123 71 192t196 70q34 0 70-12t67-33 54-38 42-38q20 20 42 38t54 38 67 33 70 12q125 0 196-70t71-192q0-123-128-251l-347-335q-10-10-25-10z" horiz-adv-x="1000" />

<glyph glyph-name="heart-empty-2" unicode="&#xe81a;" d="M929 517q0 46-12 80t-31 55-46 33-52 18-55 4-62-14-62-36-48-40-34-34q-10-13-27-13t-27 13q-14 15-34 34t-48 40-62 36-62 14-55-4-52-18-46-33-31-55-12-80q0-93 105-198l324-312 324 312q105 105 105 198z m71 0q0-123-128-251l-347-335q-10-10-25-10t-25 10l-348 336q-5 5-15 15t-31 37-38 54-30 67-13 77q0 123 71 192t196 70q34 0 70-12t67-33 54-38 42-38q20 20 42 38t54 38 67 33 70 12q125 0 196-70t71-192z" horiz-adv-x="1000" />

<glyph glyph-name="star-2" unicode="&#xe81b;" d="M929 489q0-12-15-27l-202-197 48-279q0-4 0-12 0-11-6-19t-17-9q-10 0-22 7l-251 132-250-132q-12-7-23-7-11 0-17 9t-6 19q0 4 1 12l48 279-203 197q-14 15-14 27 0 21 31 26l280 40 126 254q11 23 27 23t28-23l125-254 280-40q32-5 32-26z" horiz-adv-x="928.6" />

<glyph glyph-name="star-empty-2" unicode="&#xe81c;" d="M635 290l170 166-235 34-106 213-105-213-236-34 171-166-41-235 211 111 211-111z m294 199q0-12-15-27l-202-197 48-279q0-4 0-12 0-28-23-28-10 0-22 7l-251 132-250-132q-12-7-23-7-11 0-17 9t-6 19q0 4 1 12l48 279-203 197q-14 15-14 27 0 21 31 26l280 40 126 254q11 23 27 23t28-23l125-254 280-40q32-5 32-26z" horiz-adv-x="928.6" />

<glyph glyph-name="ok" unicode="&#xe81d;" d="M933 534q0-22-16-38l-404-404-76-76q-16-15-38-15t-38 15l-76 76-202 202q-15 16-15 38t15 38l76 76q16 16 38 16t38-16l164-165 366 367q16 16 38 16t38-16l76-76q16-15 16-38z" horiz-adv-x="1000" />

<glyph glyph-name="cancel-1" unicode="&#xe81e;" d="M724 112q0-22-15-38l-76-76q-16-15-38-15t-38 15l-164 165-164-165q-16-15-38-15t-38 15l-76 76q-16 16-16 38t16 38l164 164-164 164q-16 16-16 38t16 38l76 76q16 16 38 16t38-16l164-164 164 164q16 16 38 16t38-16l76-76q15-15 15-38t-15-38l-164-164 164-164q15-15 15-38z" horiz-adv-x="785.7" />

<glyph glyph-name="plus-circled" unicode="&#xe81f;" d="M679 314v72q0 14-11 25t-25 10h-143v143q0 15-11 25t-25 11h-71q-15 0-25-11t-11-25v-143h-143q-14 0-25-10t-10-25v-72q0-14 10-25t25-10h143v-143q0-15 11-25t25-11h71q15 0 25 11t11 25v143h143q14 0 25 10t11 25z m178 36q0-117-57-215t-156-156-215-58-216 58-155 156-58 215 58 215 155 156 216 58 215-58 156-156 57-215z" horiz-adv-x="857.1" />

<glyph glyph-name="arrleft" unicode="&#xe821;" d="M0 391h1185v-96h-1185z m726 459l488-489-68-68-488 489z m-46-932l489 488 67-68-488-488z" horiz-adv-x="1237" />

<glyph glyph-name="arrright" unicode="&#xe822;" d="M1230 293h-1178v95h1178z m-654 487l-486-487-68 68 487 487z m-91-929l-487 486 68 68 486-486z" horiz-adv-x="1232" />

<glyph glyph-name="acoustic-guitar" unicode="&#xe823;" d="M261 0l-110 111c-7 7-18 7-25 0-6-7-6-17 0-24l111-111c3-3 8-5 12-5s9 2 12 5c7 7 7 18 0 24z m734 697l-9 9c7 11 9 24 5 36l-20 55c-4 11-13 20-23 24l-55 20c-13 4-26 2-37-5l-9 9c-7 7-17 7-24 0-7-7-7-18 0-24l9-9-14-13-8 8c-7 7-18 7-25 0-6-6-6-17 0-24l9-9-13-13-9 9c-7 7-17 7-24 0-7-7-7-18 0-24l9-9c-11-13-13-30-7-45l-205-196c-79 44-169 36-225-20-18-17-30-37-38-60-16-46-58-79-106-85-46-5-88-24-119-55-42-42-62-101-56-166 6-64 36-126 85-175 56-56 128-85 196-85 54 0 106 19 144 57 31 31 50 72 55 119 6 48 39 90 85 106 23 8 43 20 60 37 56 56 64 147 20 226l196 205c5-2 11-3 16-3 10 0 20 3 29 10l9-9c3-4 7-5 12-5 4 0 9 1 12 5 7 6 7 17 0 24l-9 9 13 13 9-9c4-3 8-5 12-5 5 0 9 2 12 5 7 7 7 18 0 25l-8 8 13 14 9-9c3-4 7-5 12-5s9 1 12 5c7 7 7 17 0 24z m-393-503c-13-14-29-24-48-30-58-20-100-73-107-134-4-39-20-73-46-99-31-31-74-47-119-47-59 0-122 26-172 76-43 43-70 97-75 153-5 55 12 104 46 138 26 26 60 42 99 46 61 7 114 49 134 107 6 19 16 35 30 48 43 43 112 50 175 19l-94-89c-25-1-49-12-67-30-40-40-40-104 0-144 19-19 45-30 72-30 27 0 53 11 72 30 18 18 29 42 30 67l89 94c31-64 24-132-19-175z m-172 154c18 0 35-7 48-20 13-13 20-30 20-48s-7-35-20-48c-13-13-30-20-48-20-18 0-35 7-48 20-26 27-26 69 0 96 13 13 30 20 48 20z m95-30c-5 12-13 24-23 34-10 10-22 18-34 23l303 290 44-44-290-303z m433 408l-92-92c-4-4-11-4-15 0l-67 67c-4 4-4 10 0 15l92 91c1 1 2 2 3 2 1 0 1 0 2 0l55-21c1 0 2-1 3-2l20-55c0-2 0-4-1-5z" horiz-adv-x="1000" />

<glyph glyph-name="jack-connector-1" unicode="&#xe824;" d="M283 533v34c0 9-7 16-16 16v83c0 1 0 1 0 2 0 0 0 0 0 0 0 1-1 1-1 2 0 0 0 0 0 0 0 1 0 1 0 2 0 0-1 1-1 1 0 0 0 1 0 1 0 1-1 1-1 2 0 0 0 0 0 0-17 24-17 57 0 81 0 0 0 0 0 0 0 1 1 1 1 2 0 0 0 0 0 0 0 1 0 1 0 1 1 1 1 2 1 3 0 0 0 0 0 0 1 1 1 1 1 2 0 0 0 0 0 1 0 0 0 0 0 1 0 0 0 1 0 1 0 0 0 1 0 1-1 0-1 1-1 1 0 0 0 1 0 1 0 0 0 1 0 1 0 0-1 1-1 1 0 0 0 1 0 1l-33 67c-3 5-9 9-15 9h-34c-6 0-12-4-15-9l-33-67c0 0 0-1 0-1 0 0 0-1-1-1 0 0 0-1 0-1 0 0 0-1 0-1 0 0 0-1 0-1 0 0-1-1-1-1 0 0 0-1 0-1 0-1 0-1 0-1 0-1 0-1 0-1 1-1 1-1 1-2 0 0 0 0 0 0 0-1 0-2 1-3 0 0 0 0 0-1 0 0 0 0 0 0 1-1 1-1 1-2 0 0 0 0 0 0 17-24 17-57 0-81 0 0 0 0 0 0 0-1-1-1-1-2 0 0 0-1 0-1 0 0 0-1-1-1 0-1 0-1 0-2 0 0 0 0 0 0 0-1 0-1-1-2 0 0 0 0 0 0 0-1 0-1 0-2v-83c-9 0-16-7-16-16v-34c-9 0-17-7-17-16v-150c0-9 8-17 17-17v-50c0-9 7-17 16-17h17v-416c0-10 8-17 17-17h66c10 0 17 7 17 17v416h17c9 0 16 8 16 17v50c10 0 17 8 17 17v150c0 9-7 16-17 16z m-150-33h134v-117h-134v117z m44 250h47c-8-22-8-45 0-67h-47c7 22 7 45 0 67z m17 67h12l17-34h-46l17 34z m-27-167h66v-67h-66v67z m-17-100h100v-17h-100v17z m67-667h-34v400h34v-400z m33 434h-17-66-17v33h100v-33z m333 216v34c0 9-7 16-16 16v83c0 1 0 1 0 2 0 0 0 0 0 0 0 1-1 1-1 2 0 0 0 0 0 0 0 1 0 1 0 2 0 0-1 1-1 1 0 0 0 1 0 1 0 1-1 1-1 2 0 0 0 0 0 0-17 24-17 57 0 81 0 0 0 0 0 0 0 1 1 1 1 2 0 0 0 0 0 0 0 1 0 1 0 1 1 1 1 2 1 3 0 0 0 0 0 0 1 1 1 1 1 2 0 0 0 0 0 1 0 0 0 0 0 1 0 0 0 1 0 1 0 0 0 1 0 1-1 0-1 1-1 1 0 0 0 1 0 1 0 0 0 1 0 1 0 0-1 1-1 1 0 0 0 1 0 1l-33 67c-3 5-9 9-15 9h-34c-6 0-12-4-15-9l-33-67c0 0 0-1 0-1 0 0 0-1-1-1 0 0 0-1 0-1 0 0 0-1 0-1 0 0 0-1 0-1 0 0-1-1-1-1 0 0 0-1 0-1 0-1 0-1 0-1 0-1 0-1 0-1 1-1 1-1 1-2 0 0 0 0 0 0 0-1 0-2 1-3 0 0 0 0 0-1 0 0 0 0 0 0 1-1 1-1 1-2 0 0 0 0 0 0 17-24 17-57 0-81 0 0 0 0 0 0 0-1-1-1-1-2 0 0 0-1 0-1 0 0 0-1-1-1 0-1 0-1 0-2 0 0 0 0 0 0 0-1 0-1-1-2 0 0 0 0 0 0 0-1 0-1 0-2v-83c-9 0-16-7-16-16v-34c-9 0-17-7-17-16v-150c0-9 8-17 17-17v-50c0-9 7-17 16-17h17v-416c0-10 8-17 17-17h66c10 0 17 7 17 17v416h17c9 0 16 8 16 17v50c10 0 17 8 17 17v150c0 9-7 16-17 16z m-150-33h134v-117h-134v117z m44 250h47c-8-22-8-45 0-67h-47c7 22 7 45 0 67z m17 67h12l17-34h-46l17 34z m-27-167h66v-67h-66v67z m-17-100h100v-17h-100v17z m67-667h-34v400h34v-400z m33 434h-17-66-17v33h100v-33z m333 216v34c0 9-7 16-16 16v83c0 1 0 1 0 2 0 0 0 0 0 0 0 1-1 1-1 2 0 0 0 0 0 0 0 1 0 1 0 2 0 0-1 1-1 1 0 0 0 1 0 1 0 1-1 1-1 2 0 0 0 0 0 0-17 24-17 57 0 81 0 0 0 0 0 0 0 1 1 1 1 2 0 0 0 0 0 0 0 1 0 1 0 1 1 1 1 2 1 3 0 0 0 0 0 0 1 1 1 1 1 2 0 0 0 0 0 1 0 0 0 0 0 1 0 0 0 1 0 1 0 0 0 1 0 1-1 0-1 1-1 1 0 0 0 1 0 1 0 0 0 1 0 1 0 0-1 1-1 1 0 0 0 1 0 1l-33 67c-3 5-9 9-15 9h-34c-6 0-12-4-15-9l-33-67c0 0 0-1 0-1 0 0 0-1-1-1 0 0 0-1 0-1 0 0 0-1 0-1 0 0 0-1 0-1 0 0-1-1-1-1 0 0 0-1 0-1 0-1 0-1 0-1 0-1 0-1 0-1 1-1 1-1 1-2 0 0 0 0 0 0 0-1 0-2 1-3 0 0 0 0 0-1 0 0 0 0 0 0 1-1 1-1 1-2 0 0 0 0 0 0 17-24 17-57 0-81 0 0 0 0 0 0 0-1-1-1-1-2 0 0 0-1 0-1 0 0 0-1-1-1 0-1 0-1 0-2 0 0 0 0 0 0 0-1 0-1-1-2 0 0 0 0 0 0 0-1 0-1 0-2v-83c-9 0-16-7-16-16v-34c-9 0-17-7-17-16v-150c0-9 8-17 17-17v-50c0-9 7-17 16-17h17v-416c0-10 8-17 17-17h66c10 0 17 7 17 17v416h17c9 0 16 8 16 17v50c10 0 17 8 17 17v150c0 9-7 16-17 16z m-150-33h134v-117h-134v117z m44 250h47c-8-22-8-45 0-67h-47c7 22 7 45 0 67z m17 67h12l17-34h-46l17 34z m-27-167h66v-67h-66v67z m-17-100h100v-17h-100v17z m67-667h-34v400h34v-400z m33 434h-17-66-17v33h100v-33z" horiz-adv-x="1000" />

<glyph glyph-name="jack-connector" unicode="&#xe825;" d="M950 850h-900c-28 0-50-22-50-50v-333c0-28 22-50 50-50h900c28 0 50 22 50 50v333c0 28-22 50-50 50z m17-383c0-9-8-17-17-17h-900c-9 0-17 8-17 17v333c0 9 8 17 17 17h900c9 0 17-8 17-17v-333z m-467 283c-64 0-117-52-117-117 0-64 53-116 117-116s117 52 117 116c0 65-53 117-117 117z m0-200c-46 0-83 37-83 83 0 46 37 84 83 84 46 0 83-38 83-84 0-46-37-83-83-83z m0 117c-18 0-33-15-33-34s15-33 33-33c18 0 33 15 33 33s-15 34-33 34z m-300 83c-64 0-117-52-117-117 0-64 53-116 117-116s117 52 117 116c0 65-53 117-117 117z m0-200c-46 0-83 37-83 83 0 46 37 84 83 84 46 0 83-38 83-84 0-46-37-83-83-83z m0 117c-18 0-33-15-33-34s15-33 33-33 33 15 33 33-15 34-33 34z m600 83c-64 0-117-52-117-117 0-64 53-116 117-116 64 0 117 52 117 116 0 65-53 117-117 117z m0-200c-46 0-83 37-83 83 0 46 37 84 83 84 46 0 83-38 83-84 0-46-37-83-83-83z m0 117c-18 0-33-15-33-34s15-33 33-33 33 15 33 33-15 34-33 34z m-733 100c9 0 16 7 16 16s-7 17-16 17c-9 0-17-7-17-17s8-16 17-16z m0-267c-9 0-17-7-17-17s8-16 17-16c9 0 16 7 16 16s-7 17-16 17z m866 300c-9 0-16-7-16-17s7-16 16-16 17 7 17 16-7 17-17 17z m0-300c-9 0-16-7-16-17s7-16 16-16 17 7 17 16-7 17-17 17z m-650-433v33c0 9-7 17-16 17v83c0 0 0 1 0 1 0 0 0 1 0 1 0 0-1 1-1 1 0 0 0 0 0 1 0 0 0 1 0 1 0 1-1 1-1 2 0 0 0 0 0 0 0 1-1 1-1 2 0 0 0 0 0 0-17 25-17 57 0 82 0 0 0 0 0 0 0 0 1 1 1 1 0 0 0 1 0 1 0 0 0 0 0 0 1 1 1 2 1 3 0 1 0 1 0 1 1 0 1 1 1 1 0 0 0 1 0 1 0 0 0 1 0 1 0 1 0 1 0 1 0 1 0 1 0 1-1 1-1 1-1 1 0 1 0 1 0 1 0 1 0 1 0 1 0 1-1 1-1 2 0 0 0 0 0 0l-33 67c-3 6-9 9-15 9h-34c-6 0-12-3-15-9l-33-67c0 0 0 0 0 0 0-1 0-1-1-2 0 0 0 0 0-1 0 0 0 0 0-1 0 0 0 0 0-1 0 0-1 0-1-1 0 0 0 0 0-1 0 0 0-1 0-1 0 0 0-1 0-1 1 0 1-1 1-1 0 0 0 0 0-1 0-1 0-2 1-3 0 0 0 0 0 0 0 0 0-1 0-1 1 0 1-1 1-1 0 0 0 0 0 0 17-25 17-57 0-82 0 0 0 0 0 0 0-1-1-1-1-2 0 0 0 0 0 0 0-1 0-1-1-2 0 0 0-1 0-1 0-1 0-1 0-1 0 0 0-1-1-1 0 0 0-1 0-1 0 0 0-1 0-1v-83c-9 0-16-8-16-17v-33c-9 0-17-8-17-17v-117c0-9 8-16 17-16v-50c0-10 7-17 16-17h134c9 0 16 7 16 17v50c10 0 17 7 17 16v117c0 9-7 17-17 17z m-150-34h134v-83h-134v83z m44 250h47c-8-21-8-45 0-67h-47c7 22 7 46 0 67z m17 67h12l17-34h-46l17 34z m-27-167h66v-66h-66v66z m-17-100h100v-16h-100v16z m100-200h-100v34h100v-34z m333 184v33c0 9-7 17-16 17v83c0 0 0 1 0 1 0 0 0 1 0 1 0 0-1 1-1 1 0 0 0 0 0 1 0 0 0 1 0 1 0 1-1 1-1 2 0 0 0 0 0 0 0 1-1 1-1 2 0 0 0 0 0 0-17 25-17 57 0 82 0 0 0 0 0 0 0 0 1 1 1 1 0 0 0 1 0 1 0 0 0 0 0 0 1 1 1 2 1 3 0 1 0 1 0 1 1 0 1 1 1 1 0 0 0 1 0 1 0 0 0 1 0 1 0 1 0 1 0 1 0 1 0 1 0 1-1 1-1 1-1 1 0 1 0 1 0 1 0 1 0 1 0 1 0 1-1 1-1 2 0 0 0 0 0 0l-33 67c-3 6-9 9-15 9h-34c-6 0-12-3-15-9l-33-67c0 0 0 0 0 0 0-1 0-1-1-2 0 0 0 0 0-1 0 0 0 0 0-1 0 0 0 0 0-1 0 0-1 0-1-1 0 0 0 0 0-1 0 0 0-1 0-1 0 0 0-1 0-1 1 0 1-1 1-1 0 0 0 0 0-1 0-1 0-2 1-3 0 0 0 0 0 0 0 0 0-1 0-1 1 0 1-1 1-1 0 0 0 0 0 0 17-25 17-57 0-82 0 0 0 0 0 0 0-1-1-1-1-2 0 0 0 0 0 0 0-1 0-1-1-2 0 0 0-1 0-1 0-1 0-1 0-1 0 0 0-1 0-1-1 0-1-1-1-1 0 0 0-1 0-1v-83c-9 0-16-8-16-17v-33c-9 0-17-8-17-17v-117c0-9 8-16 17-16v-50c0-10 7-17 16-17h134c9 0 16 7 16 17v50c10 0 17 7 17 16v117c0 9-7 17-17 17z m-150-34h134v-83h-134v83z m44 250h47c-8-21-8-45 0-67h-47c7 22 7 46 0 67z m17 67h12l17-34h-46l17 34z m-27-167h66v-66h-66v66z m-17-100h100v-16h-100v16z m100-200h-100v34h100v-34z m333 184v33c0 9-7 17-16 17v83c0 0 0 1 0 1 0 0 0 1 0 1 0 0-1 1-1 1 0 0 0 0 0 1 0 0 0 1 0 1 0 1-1 1-1 2 0 0 0 0 0 0 0 1-1 1-1 2 0 0 0 0 0 0-17 25-17 57 0 82 0 0 0 0 0 0 0 0 1 1 1 1 0 0 0 1 0 1 0 0 0 0 0 0 1 1 1 2 1 3 0 1 0 1 0 1 1 0 1 1 1 1 0 0 0 1 0 1 0 0 0 1 0 1 0 1 0 1 0 1 0 1 0 1 0 1-1 1-1 1-1 1 0 1 0 1 0 1 0 1 0 1 0 1 0 1-1 1-1 2 0 0 0 0 0 0l-33 67c-3 6-9 9-15 9h-34c-6 0-12-3-15-9l-33-67c0 0 0 0 0 0 0-1 0-1-1-2 0 0 0 0 0-1 0 0 0 0 0-1 0 0 0 0 0-1 0 0-1 0-1-1 0 0 0 0 0-1 0 0 0-1 0-1 0 0 0-1 0-1 1 0 1-1 1-1 0 0 0 0 0-1 0-1 0-2 1-3 0 0 0 0 0 0 0 0 0-1 0-1 1 0 1-1 1-1 0 0 0 0 0 0 17-25 17-57 0-82 0 0 0 0 0 0 0-1-1-1-1-2 0 0 0 0 0 0 0-1 0-1-1-2 0 0 0-1 0-1 0-1 0-1 0-1 0 0 0-1-1-1 0 0 0-1 0-1 0 0 0-1 0-1v-83c-9 0-16-8-16-17v-33c-9 0-17-8-17-17v-117c0-9 8-16 17-16v-50c0-10 7-17 16-17h134c9 0 16 7 16 17v50c10 0 17 7 17 16v117c0 9-7 17-17 17z m-150-34h134v-83h-134v83z m44 250h47c-8-21-8-45 0-67h-47c7 22 7 46 0 67z m17 67h12l17-34h-46l17 34z m-27-167h66v-66h-66v66z m-17-100h100v-16h-100v16z m100-200h-100v34h100v-34z" horiz-adv-x="1000" />

<glyph glyph-name="light" unicode="&#xe826;" d="M583-150c-1 0-3 0-4 1-5 3-7 8-4 13l297 584-45 45-467-639c-3-4-9-5-14-2-4 3-5 9-2 14l469 642-80 79-695-734c-4-4-10-4-14 0-4 3-4 10 0 14l695 734-53 53-629-508c-4-4-11-3-14 1-3 4-3 10 1 14l628 507-19 19c-4 4-4 10 0 14l25 25c3 4 10 4 14 0l10-11c33 30 75 46 120 46 4 0 8 0 12 0v69h-80c-5 0-10 5-10 10s5 10 10 10h179c5 0 10-4 10-10s-5-10-10-10h-80v-72c36-6 68-23 94-49 68-67 70-175 6-245l11-11c4-4 4-10 0-14l-24-24c-4-4-10-4-14 0l-19 18-295-578c-1-3-5-5-9-5z m71 844l259-258 10 10-258 259-11-11z m42 7l223-223c56 62 54 157-6 217-30 30-69 46-111 46-40 0-77-14-106-40z m225-165c-1 0-2 0-3 1-6 1-8 7-7 12 0 1 17 59-18 101-4 5-3 11 1 14 4 4 10 3 14-1 42-51 23-117 22-120-1-4-5-7-9-7z" horiz-adv-x="1000" />

<glyph glyph-name="lighting-1" unicode="&#xe827;" d="M622 516c0-32 9-62 25-88 1-2 2-4 3-6 1 0 1 0 1 0 16-23 36-42 61-55 0-1 1-1 2-1 23-12 50-19 78-19 93 0 169 76 169 169 0 28-7 55-19 78 0 1-1 2-1 2-14 25-33 47-57 62-1 1-1 1-2 2-26 16-57 26-90 26-94 0-170-76-170-170z m170 142c22 0 43-5 61-14l-189-189c-9 18-14 39-14 61 0 78 63 142 142 142z m104-84c-6-5-6-14 0-19 2-3 6-4 9-4s7 1 10 4l10 10c6-15 9-32 9-49 0-78-64-142-142-142-17 0-34 3-49 9l131 132c6 5 6 14 0 19-5 5-13 5-19 0l-138-139c-15 10-28 22-39 36l199 199c14-11 26-24 36-39l-17-17z m63 75c-25 36-62 66-109 90-86 43-207 66-350 66-132 0-257-29-351-82-96-55-149-128-149-207 0-54 25-106 74-152 43-41 105-75 178-99v-173h-68c-6 0-12-4-13-10l-49-170c-1-4 0-9 2-12s7-5 11-5h754c0 0 0 0 0 0 8 0 14 6 14 13 0 2 0 3-1 5l-48 169c-2 6-7 10-13 10h-60v173c25 8 48 18 69 28 47 24 84 54 109 90 27 38 41 83 41 133s-14 95-41 133z m-498-727v11c0 7-6 13-14 13s-13-6-13-13v-11h-281l41 143h71 138 31v-84c0-8 6-14 13-14s14 6 14 14v84h307 62l41-143h-410z m-45 170v35c0 8-6 14-13 14s-14-6-14-14v-35h-110v413c0 0 0 0 0 1 0 30 25 55 55 55s55-25 55-55c0-1 0-1 0-1v-281c0-8 6-14 14-14s13 6 13 14v282c0 0 0 1 0 1 0 19-7 36-18 50 21-8 36-28 36-51 0-1 0-1 0-1v-371c0-8 6-14 13-14h272c7 0 14 6 14 14v117c7 2 14 4 21 6v-165h-338z m289 153v-98h-80v86c28 3 55 7 80 12z m-107-98h-137v81c13-1 26-1 39-1 34 0 67 1 98 4v-84z m190 581c-8 0-14-6-14-13s6-14 14-14c102 0 185-83 185-185s-83-185-185-185c-102 0-185 83-185 185 0 69 37 131 98 164 7 3 9 11 6 18-4 7-12 9-19 6-64-35-106-99-112-170h-120c-12 32-42 54-78 54h-44c-37 0-69-25-79-58h-227c6 63 53 123 135 169 90 51 209 79 337 79 125 0 231-17 311-51-8 1-15 1-23 1z m-536-226v-209c-132 46-216 124-224 209h224z m248-248c-13 0-26 0-39 1v251c0 0 0 0 0 1h115c5-113 98-203 212-203 8 0 15 0 23 1-80-33-186-51-311-51z m-166 297c-25 0-45-20-45-46s20-45 45-45 45 20 45 45-20 46-45 46z m0-64c-10 0-18 8-18 18s8 19 18 19 18-8 18-19-8-18-18-18z" horiz-adv-x="1000" />

<glyph glyph-name="stars" unicode="&#xe828;" d="M735 675l-158 16-63 142c-5 12-23 12-28 0l-63-142-158-16c-13-2-19-18-10-27l111-111-32-159c-2-12 11-22 22-17l144 64 144-64c11-5 24 5 22 17l-32 159 111 111c9 9 3 25-10 27z m-129-122c-4-3-5-9-4-14l27-137-123 54c-4 2-8 2-12 0l-123-54 27 137c1 5 0 11-4 14l-93 94 134 13c5 1 10 4 12 10l53 118 52-118c3-6 8-9 13-10l134-13-93-94z m-192-212l-131-19-91 109c-8 10-25 6-27-6l-30-139-125-46c-12-5-14-21-3-28l117-79 10-143c1-13 16-19 26-11l110 95 126-31c12-3 23 9 18 21l-51 127 67 127c6 11-3 24-16 23z m-82-142c-2-4-2-9-1-13l43-106-104 26c-5 2-10 0-14-3l-93-80-9 119c0 5-3 10-7 12l-98 67 105 39c5 2 8 6 9 11l26 116 75-91c4-5 9-7 14-6l110 15-56-106z m668 28c-1 6-5 10-10 13l-125 46-30 139c-3 12-19 16-27 6l-91-109-131 19c-13 1-22-12-16-23l67-127-51-127c-5-12 6-24 18-21l126 31 110-95c10-8 25-2 26 11l10 143 117 79c5 3 8 9 7 15z m-148-73c-3-2-6-7-6-12l-9-119-93 80c-4 3-9 5-14 3l-104-26 43 106c1 4 1 9-1 13l-56 106 110-15c5-1 10 1 14 6l75 91 26-116c1-5 4-9 9-11l104-39-98-67z m99 471c-28 0-51 23-51 51 0 9-7 16-16 16s-15-7-15-16c0-28-23-51-52-51-8 0-15-7-15-16s7-16 15-16c29 0 52-23 52-51 0-8 7-15 15-15s16 7 16 15c0 28 23 51 51 51 9 0 16 7 16 16s-7 16-16 16z m-67-34c-5 7-11 13-18 18 7 5 13 11 18 19 5-8 12-14 19-19-7-5-14-11-19-18z m-317-635c-28 0-51 23-51 52 0 8-7 15-16 15-9 0-16-7-16-15 0-29-23-52-51-52-8 0-16-7-16-15s8-16 16-16c28 0 51-23 51-51 0-9 7-16 16-16 9 0 16 7 16 16 0 28 23 51 51 51 8 0 15 7 15 16s-7 15-15 15z m-67-34c-5 7-11 14-19 19 8 5 14 11 19 18 5-7 11-13 18-18-7-5-13-12-18-19z m-334 703c-28 0-51 23-51 51 0 9-7 16-16 16-9 0-16-7-16-16 0-28-23-51-51-51-8 0-15-7-15-16s7-16 15-16c28 0 51-23 51-51 0-8 7-15 16-15s16 7 16 15c0 28 23 51 51 51 9 0 16 7 16 16s-7 16-16 16z m-67-34c-5 7-11 13-18 18 7 5 13 11 18 19 5-8 11-14 19-19-8-5-14-11-19-18z" horiz-adv-x="1000" />

<glyph glyph-name="tag" unicode="&#xe829;" d="M1000 782c0 18-7 35-20 48s-30 20-48 20c-18 0-35-7-48-20-6-6-16-17-21-24-6-7-5-17 2-23 7-5 17-5 23 2 8 11 15 19 19 22 6 7 15 11 25 11 0 0 0 0 0 0 10 0 19-4 25-11 7-6 11-15 11-25 0-10-4-19-11-25-6-7-27-23-57-44-18 30-51 51-89 51h-237c-32 0-62-13-85-35l-474-475c-10-9-15-22-15-35 0-14 5-27 15-36l318-318c10-10 23-15 36-15 13 0 26 5 35 15l475 474c22 23 35 53 35 85v237c0 7-1 14-2 21 34 23 59 43 68 52 13 13 20 30 20 48z m-119-358c0-23-9-45-25-62l-474-474c-8-7-19-7-26 0l-318 318c-4 3-6 8-6 13s2 9 6 12l474 475c17 16 39 25 62 25h237c27 0 50-15 62-37-19-12-41-26-63-39-1 1-2 2-3 2-26 27-69 27-96 0-26-26-26-69 0-96 13-13 31-20 48-20 18 0 35 7 48 20 18 18 24 43 18 66 20 11 39 23 56 34 0 0 0 0 0 0v-237z m-136 178c3-6 8-9 14-9 3 0 5 1 8 2 9 5 19 10 28 15 0-10-3-19-11-26-13-14-36-14-50 0-14 14-14 37 0 50 7 7 16 11 25 11 8 0 15-2 21-7-9-5-19-10-28-14-8-4-11-14-7-22z m-262-82c-9 0-16-7-16-16v-342c0-9 7-17 16-17s16 8 16 17v342c0 9-7 16-16 16z m-74-139c-27 26-70 26-97 0-26-27-26-70 0-96 14-14 31-20 49-20 17 0 34 6 48 20 13 13 20 30 20 48s-7 35-20 48z m-23-73c-14-14-37-14-51 0-14 13-14 36 0 50 7 7 16 10 26 10s18-3 25-10c7-7 10-16 10-25 0-10-3-19-10-25z m267 73c-26 26-70 26-96 0-27-27-27-70 0-96 13-14 31-20 48-20 17 0 35 6 48 20 27 26 27 69 0 96z m-23-73c-14-14-36-14-50 0-14 13-14 36 0 50 7 7 16 10 25 10s18-3 25-10c14-14 14-37 0-50z" horiz-adv-x="1000" />

<glyph glyph-name="thread" unicode="&#xe82a;" d="M807 689v-65h-33v226h-32v-226h-32v33h-33v-33h-32v33h-32v-33h-32v33h-33v-33h-32v33h-32v-33h-32v33h-33v-33h-32v33h-32v-33h-32v33h-33v-33h-32v33h-32v-33h-32v65h-194v-839h194v64h32v-32h32v32h32v-32h33v32h32v-32h32v32h32v-32h33v32h32v-32h32v32h32v-32h33v32h32v-32h32v32h32v-32h33v32h32v-32h32v32h33v-64h193v839h-193z m-646-807h-129v775h129v-775z m65 65h-32v645h32v-645z m64 0h-32v645h32v-645z m65 0h-32v645h32v-645z m64 0h-32v645h32v-645z m65 0h-32v645h32v-645z m64 0h-32v645h32v-645z m65 0h-32v645h32v-645z m64 0h-32v645h32v-645z m65 0h-32v645h32v-645z m65 0h-33v645h33v-645z m161-65h-129v775h129v-775z" horiz-adv-x="1000" />

<glyph glyph-name="usb" unicode="&#xe82b;" d="M700 317h-117v66c0 10-7 17-16 17h-17v167c18 0 33 15 33 33v150c0 18-15 33-33 33v42c0 14-11 25-25 25h-50c-14 0-25-11-25-25v-42c-18 0-33-15-33-33v-150c0-18 15-33 33-33v-167h-17c-9 0-16-7-16-17v-66h-117c-28 0-50-23-50-50v-367c0-28 22-50 50-50h400c28 0 50 22 50 50v367c0 27-22 50-50 50z m-217 500h34v-34h-34v34z m-33-67h17 66 17v-150h-100v150z m33-183h34v-167h-34v167z m-33-200h17 66 17v-50h-100v50z m267-467c0-9-8-17-17-17h-400c-9 0-17 8-17 17v367c0 9 8 16 17 16h133c0 0 0 0 0 0h134c0 0 0 0 0 0h133c9 0 17-7 17-16v-367z" horiz-adv-x="1000" />

<glyph glyph-name="wallet" unicode="&#xe82c;" d="M901 678l-305 165c-29 16-69 4-84-25l-179-332h-217c-28 0-50-22-50-50v-86-451c0-27 22-49 50-49h694c27 0 49 22 49 49v126h21c10 0 19 8 19 19v144c0 11-9 19-19 19h-21v141c0 23-17 44-39 49l107 196c15 31 4 68-26 85z m-217 73l-191-353h-54l204 375 41-22z m-137 49c6 11 20 15 31 9l30-17-212-394h-67l218 402z m-443-362c0 3 5 9 11 9h196l-26-48h-170c-4 0-8 0-11-1v40z m715-539c0-6-5-10-11-10h-693c-6 0-11 4-11 10v449c0 6 5 11 11 11h182 77 141 272 20c6 0 11-5 11-11v-141h-74v0c-32 0-57-26-57-58v-66c0-33 26-58 57-58h75v-126z m39 270h1v-105h-1-114c-10 0-19 8-19 19v66c0 11 9 20 19 20h114z m34 444l-116-215h-239l181 334 164-89c12-5 16-19 10-30z m-74 18l-10 5c-24 13-56 3-70-21l-12-23c-6-12-8-26-3-40 3-13 13-24 25-30l10-5c7-3 15-6 24-6 19 0 36 11 46 27l12 23c12 25 2 56-22 70z m-13-52l-12-23c-4-6-12-8-18-5l-10 6c-2 1-5 5-6 7-1 4-1 8 1 10l12 23c3 4 7 7 12 7 3 0 4 0 6-1l10-5c5-5 7-12 5-19z" horiz-adv-x="1000" />

<glyph glyph-name="lighting-2" unicode="&#xe82d;" d="M986 315h-130c-33 84-100 152-184 187v329c0 8-6 14-14 14h-446-103c-4 0-8-2-10-4-3-3-4-6-4-10l0-406c-61-63-95-146-95-234 0-40 7-78 20-113 0-1 0-2 1-3 27-73 79-135 145-174 1 0 2-1 4-2 49-28 105-44 166-44h208c0 0 0 0 0 0 142 0 263 88 312 212h130c8 0 14 6 14 14v220c0 8-6 14-14 14z m-622 159h-95v18c21 5 44 7 67 7h75c-16-7-32-15-47-25z m158 53h-186c-23 0-45-3-67-7v253h253v-246z m27 0v246h50v-251c-16 3-33 4-50 5z m-117-145l213-213c2-3 6-4 9-4s7 1 10 4c5 5 5 14 0 19l-206 207c27 11 56 17 86 17 122 0 222-99 222-221 0-31-7-60-18-87l-23 23c-5 6-14 6-19 0-6-5-6-14 0-19l29-29c-16-27-37-50-63-68l-193 193v97c0 8-6 14-14 14h-104c18 28 43 50 71 67z m33-315c8 0 14 6 14 14v84l169-169c-31-17-66-26-104-26-74 0-142 37-183 97h104z m161 450v269c0 8-6 14-13 14h-358c-8 0-14-6-14-14 0 0 0 0 0-1v-452c0-1 0-2 0-2v-153c0-10-4-19-11-26-4-5-10-8-15-10 6 11 11 23 11 37l0 479c0 8-7 14-14 14 0 0 0 0 0 0-8 0-14-6-14-14l0-479c0-21-17-38-38-38-21 0-38 17-38 38l0 638h76v-59c0-8 6-14 14-14s14 6 14 14v59h418v-306c-6 2-12 4-18 6z m-531-202h-42c11 24 25 47 42 69l0-69z m-52-28h52l0-108c0-36 29-66 65-66h44c17 0 33 7 46 19s19 29 19 46v109h68c0 0 0 0 0 0h45v-32c0-7 6-14 14-14s14 7 14 14v32h42v-89c0 0 0 0 0 0v-103h-42v96c0 8-7 14-14 14s-14-6-14-14v-96h-45c0 0 0 0 0 0h-294c-10 30-16 62-16 96 0 33 6 66 16 96z m189-220c22-56 59-104 107-141h-160c-55 33-100 82-126 141h179z m148-169c10-5 21-11 31-15h-75c-34 0-67 5-97 15h141z m164-15c0 0 0 0 0 0h0c-122 0-233 73-282 184h67c44-77 126-125 215-125 49 0 94 14 133 38 1 1 2 1 3 2 35 23 64 54 83 91 1 1 2 2 2 3 18 34 28 74 28 115 0 137-111 249-249 249-89 0-171-48-215-125h-60v14c4 9 10 19 16 28 4 6 2 15-5 19-3 2-8 3-11 1v70h58c-2-2-4-3-5-5-6-5-7-13-2-19 5-6 14-6 20-1 56 50 129 77 204 77 170 0 309-138 309-308 0-170-139-308-309-308z m336 308c0 34-5 66-14 96h50v-32c0-7 7-13 14-13s14 6 14 13v32h29v-192h-29v96c0 8-6 14-14 14s-14-6-14-14v-96h-50c9 30 14 63 14 96z" horiz-adv-x="1000" />

<glyph glyph-name="lighting" unicode="&#xe82e;" d="M560 492c0-2 2-4 3-6 1-1 1-1 1-1 19-27 43-50 72-66 1 0 2-1 3-1 28-15 59-23 93-23 111 0 202 91 202 202 0 33-9 65-23 93-1 1-1 2-2 2-16 30-39 55-67 74-1 1-2 1-3 2-31 19-68 30-107 30-111 0-202-90-202-201 0-39 11-74 30-105z m172 279c28 0 55-7 79-19l-235-234c-12 24-18 51-18 79 0 96 78 174 174 174z m127-106c-5-5-5-14 0-19 3-3 6-4 10-4s7 1 9 4l16 15c8-20 12-41 12-64 0-96-78-175-174-175-23 0-45 5-65 13l163 162c5 5 5 14 0 19-6 6-14 6-20 0l-168-168c-20 12-37 28-51 46l244 244c18-14 34-31 46-51l-22-22z m33-592c-1 5-7 9-13 9h-88-2l50 103c1 2 1 4 1 6v177c86 41 145 128 145 229 0 139-113 253-253 253h-391c-139 0-253-114-253-253 0-72 31-140 84-188v-218c0 0 0-1 0-1 0 0 0-1 0-1 0 0 0 0 0-1 0 0 0 0 0 0 0 0 0-1 0-1 1 0 1 0 1-1 0 0 0 0 0-1 0 0 0 0 0 0l50-103h-136c-6 0-11-4-13-9l-59-206c-1-4 0-8 3-12s6-5 11-5h464c0 0 0 0 0 0 0 0 0 0 0 0h445c0 0 0 0 0 0 8 0 14 6 14 14 0 1-1 3-1 4l-59 205z m-389-196l-23 81c-2 7-9 11-16 9-8-2-12-10-10-17l21-73h-428l51 178h147 106 59 14l9-29c1-6 7-10 13-10 1 0 2 0 3 1 8 2 12 9 10 16l-6 22h315c0 0 0 0 0 0 0 0 0 0 0 0h23 78l51-178h-417z m-162 946h277c-10-5-19-10-28-16-6-4-8-13-3-19s12-8 19-4c37 25 81 39 126 39 125 0 226-102 226-226s-101-226-226-226c-125 0-226 101-226 226 0 41 11 81 32 116 4 6 2 15-5 19-6 3-15 1-18-5-24-39-36-84-36-130 0-99 56-184 139-226h-199v213c0 1 0 1-1 2 0 52-43 95-96 95h-54c-52 0-96-43-96-95 0-1 0-1 0-2v-136c-36 41-57 93-57 149 0 124 102 226 226 226z m408-479v-90l-25-46h-98l19 36c1 2 1 4 1 6v94h86c6 0 11 0 17 0z m-130 0v-90l-24-46h-152l-24 46v90h200z m-200-262l-54 109v393c0 1 0 1 0 2 0 25-11 49-28 66 31-7 54-35 54-68 0 0 0 0 0-1v-333c0-2 1-4 2-6l29-56c0 0 0 0 0 0 1 0 1-1 1-1 0 0 1-1 1-1 0 0 0 0 0-1 1 0 1 0 1 0 0 0 1-1 1-1 0 0 0 0 0 0 1-1 1-1 1-1 0 0 1 0 1 0 1-1 2-1 3-1 0-1 0-1 0-1 1 0 1 0 1 0 1 0 1 0 1 0 0 0 1 0 1 0 0 0 0 0 1 0 0 0 0 0 0 0h168c0 0 0 0 0 0 0 0 0 0 0 0h130c5 0 9 3 12 7l29 56c1 2 2 4 2 6v97c13 3 25 6 37 10v-163l-54-112h-340z m-156 96c8 0 14 6 14 13s-6 14-14 14h-64v210c0 0 0 0 0 0v168c0 1 0 1 0 1 0 39 31 70 69 70 39 0 70-31 70-70 0 0 0 0 0-1v-378h-16c-8 0-14-6-14-14s6-13 14-13h19l47-96h-37-98l-46 96h56z m57 406c0 29-23 52-52 52s-52-23-52-52 24-52 52-52 52 23 52 52z m-52-25c-13 0-24 11-24 25s11 25 24 25c14 0 25-11 25-25s-11-25-25-25z m546-535c-2 6-7 10-14 10h-232c-4 0-8-2-10-6s-4-8-3-12l31-107c1-6 7-10 13-10h34c0 0 0 0 0 0 0 0 0 0 0 0h67c0 0 0 0 0 0 0 0 0 0 0 0h131c0 0 0 0 0 0 7 0 13 6 13 13 0 2 0 4 0 5l-30 107z m-150-18l-40-80h-15l-23 80h78z m57-80l13 25c3 7 0 15-7 18-6 3-14 1-18-6l-18-37h-36l39 80h37l-2-3c-3-7-1-15 6-19 2-1 4-1 6-1 5 0 10 3 12 8l8 15h29l23-80h-92z" horiz-adv-x="1000" />

<glyph glyph-name="lights" unicode="&#xe82f;" d="M500 751c-152 0-276-124-276-277s124-276 276-276c152 0 276 124 276 276s-124 277-276 277z m0-526c-137 0-249 112-249 249 0 138 112 249 249 249s249-111 249-249c0-137-112-249-249-249z m0 489c-32 0-59-26-59-59s27-58 59-58 59 26 59 58-26 59-59 59z m0-90c-17 0-32 14-32 31s15 32 32 32c17 0 32-14 32-32s-15-31-32-31z m0-272c-32 0-59-26-59-59s27-58 59-58 59 26 59 58-26 59-59 59z m0-90c-17 0-32 14-32 31s15 32 32 32c17 0 32-14 32-32s-15-31-32-31z m128 282c15 0 30 5 42 17 11 11 17 26 17 41 0 16-6 31-17 42-23 23-61 23-84 0-23-23-23-60 0-83 12-12 27-17 42-17z m0 90c8 0 16-3 22-9 6-6 10-14 10-23 0-8-4-16-10-22 0 0 0 0 0 0-12-12-32-12-44 0-13 12-13 32 0 45 6 6 14 9 22 9z m-298-246c-23-23-23-60 0-83 12-12 27-17 42-17 15 0 30 5 42 17 23 23 23 60 0 83-23 23-61 23-84 0z m20-64c-13 12-13 32 0 45 6 6 14 9 22 9 8 0 16-3 22-9 13-13 13-33 0-45-12-12-32-12-44 0z m331 209c-32 0-59-26-59-59s27-58 59-58 59 26 59 58-26 59-59 59z m0-90c-17 0-32 14-32 31s15 32 32 32 32-14 32-32-14-31-32-31z m-303 31c0 33-27 59-59 59s-59-26-59-59 27-58 59-58 59 26 59 58z m-59 32c17 0 32-14 32-32s-15-31-32-31-32 14-32 31 15 32 32 32z m267-118c-23-23-23-60 0-83 12-12 27-17 42-17s30 5 42 17c23 23 23 60 0 83-23 23-61 23-84 0z m20-64c-13 12-13 32 0 45 12 12 32 12 44 0 13-13 13-33 0-45-12-12-32-12-44 0z m-64 109c23 23 23 60 0 83-11 11-26 17-42 17-16 0-30-6-42-17-23-23-23-60 0-83 12-11 26-17 42-17 16 0 31 6 42 17z m-42 73c9 0 16-3 22-9 13-13 13-33 0-45-6-6-13-9-22-9-8 0-16 3-22 9-13 12-13 32 0 45 6 6 14 9 22 9z m-170 138c-11-11-17-26-17-42 0-15 6-30 17-41 12-12 27-17 42-17 15 0 30 5 42 17 11 11 17 26 17 41 0 16-6 31-17 42-23 23-61 23-84 0z m42-10c8 0 16-3 22-9 6-6 10-14 10-23 0-8-4-16-10-22-12-12-32-12-44 0-6 6-10 14-10 22 0 9 4 17 10 23 6 6 14 9 22 9z m508-33h-61c-22 141-157 249-319 249-162 0-297-108-319-249h-61c-8 0-14-6-14-13v-46-379c0-4 2-8 4-10l85-81h-4c-6 0-11-4-13-9l-62-195c-1-4 0-9 2-12 3-4 7-6 11-6h742c4 0 8 2 11 6 2 3 3 8 2 12l-62 195c-2 5-7 9-13 9h-3l84 81c3 2 4 6 4 10v379 46c0 7-6 13-14 13z m-646-529l-101 96v361h44v-274c0 0 0 0 0 0v-58c0-4 2-8 4-10l61-58c2-3 6-4 9-4h498c3 0 7 1 9 4l61 58c2 2 4 6 4 10v58c0 0 0 0 0 0v274h44v-361l-101-96h-532z m266 751c140 0 257-87 287-204-4 5-10 6-16 3-7-3-9-11-6-18 20-40 30-84 30-130 0-162-132-294-295-294-35 0-69 6-100 17-1 0-1 1-2 1-112 41-193 150-193 276 0 163 132 295 295 295 72 0 141-26 195-73 5-5 14-5 19 1 5 6 4 14-1 19-59 52-135 80-213 80-125 0-234-71-287-175 31 115 148 202 287 202z m367-267h-37v18h37v-18z m-662-330l62-52c2-2 5-3 8-3h117c34-12 70-19 108-19 38 0 74 7 108 19h117c3 0 6 1 9 3l62 52v-24l-53-50h-486l-52 50v24z m75-28l-75 63v85c26-61 72-113 129-148h-54z m516 63l-76-63h-54c57 35 103 87 130 148v-85z m-626 295h-37v18h37v-18z m629-511l53-168h-704l53 168h598z m-424-141h250c8 0 14 6 14 14v86c0 7-6 13-14 13h-49c0 0 0 0 0 0h-65c0 0 0 0 0 0h-136c-7 0-14-6-14-13v-86c0-8 7-14 14-14z m14 27v59h89l-58-59h-31z m156 59c-3-5-2-12 2-16 3-2 6-4 10-4s7 2 9 4l16 16h29v-59h-87l11 12c6 6 6 14 0 20-5 5-13 5-19 0l-31-32h-27l59 59h28z" horiz-adv-x="1000" />

<glyph glyph-name="mirror-ball" unicode="&#xe830;" d="M100 683c9 0 17 8 17 17 0 28 22 50 50 50 9 0 16 8 16 17 0 9-7 16-16 16-28 0-50 23-50 50 0 10-8 17-17 17s-17-7-17-17c0-27-22-50-50-50-9 0-16-7-16-16 0-9 7-17 16-17 28 0 50-22 50-50 0-9 8-17 17-17z m0 100c5-6 10-12 17-16-7-5-12-11-17-17-5 6-10 12-17 17 7 4 12 10 17 16z m83-866h-16v16c0 9-8 17-17 17s-17-8-17-17v-16h-16c-10 0-17-8-17-17s7-17 17-17h16v-16c0-10 8-17 17-17s17 7 17 17v16h16c10 0 17 8 17 17s-7 17-17 17z m774 766l21 22c7 6 7 17 0 23-6 7-17 7-23 0l-22-21-21 21c-7 7-17 7-24 0-6-6-6-17 0-23l22-22-22-21c-6-7-6-17 0-24 4-3 8-5 12-5 4 0 9 2 12 5l21 22 22-22c3-3 7-5 12-5s8 2 11 5c7 7 7 17 0 24l-21 21z m-40-733c-10 0-17-8-17-17s7-16 17-16c9 0 16 7 16 16s-7 17-16 17z m-300 755c-2 32-22 59-50 71v57c0 10-8 17-17 17h-67c-9 0-16-7-16-17v-57c-28-12-48-39-50-71-191-45-334-217-334-422 0-232 184-422 413-433 1 0 3 0 4 0 1 0 2 0 3 0 4 0 9 0 14 0 4 0 9 0 13 0 1 0 2 0 3 0 1 0 3 0 4 0 230 11 413 201 413 433 0 205-142 377-333 422z m200-685c-36 23-75 41-118 55 21 59 33 123 34 192h183c-4-95-40-181-99-247z m-700 247h183c2-69 14-133 35-192-43-14-83-32-119-55-58 66-95 152-99 247z m99 280c36-23 76-42 119-55-21-59-33-123-35-192h-183c4 94 41 181 99 247z m284 131v-178c-43 1-83 6-120 14 28 64 68 119 120 164z m0-211v-167h-166c1 66 13 127 33 183 42-10 86-15 133-16z m0-200v-167c-47-1-91-7-133-17-20 56-32 118-33 184h166z m0-200v-179c-52 45-92 101-120 164 37 9 77 14 120 15z m33 33v167h167c-2-66-13-127-34-184-41 10-86 16-133 17z m121-48c-28-63-69-119-121-163v178c43-1 83-6 121-15z m-121 248v167c47 1 92 6 133 16 21-56 32-117 34-183h-167z m0 200v178c52-44 93-100 121-164-37-8-78-13-121-14z m50 178c81-14 154-52 211-106-33-21-69-37-107-49-26 59-61 111-104 155z m-132 0c-44-44-79-97-104-155-39 12-74 28-107 49 57 54 130 93 211 106z m-104-634c25-59 60-111 104-155-81 13-154 51-211 106 33 21 68 37 107 49z m339 0c39-12 75-28 108-49-57-55-130-93-212-106 44 44 79 96 104 155z m47 256c-1 69-13 133-34 192 43 13 82 32 118 55 59-66 95-153 99-247h-183z m-233 517h33v-34h0-33v34z m0-67h33c22 0 41-14 48-33h-48c0 0 0 0 0 0h-32c0 0-1 0-1 0h-47c7 19 25 33 47 33z" horiz-adv-x="1000" />

<glyph glyph-name="mixer" unicode="&#xe831;" d="M969-72c0-26-21-47-47-47h-844c-26 0-47 21-47 47v844c0 26 21 47 47 47h844c26 0 47-21 47-47v-844z m-47 922h-844c-43 0-78-35-78-78v-844c0-43 35-78 78-78h844c43 0 78 35 78 78v844c0 43-35 78-78 78l0 0z m-344-219h125c9 0 16 7 16 16s-7 16-16 16h-125c-8 0-15-7-15-16s7-16 15-16l0 0z m219 32h-31c-9 0-16-7-16-16s7-16 16-16h31c9 0 16 7 16 16s-7 16-16 16l0 0z m62-32h32c8 0 15 7 15 16s-7 16-15 16h-32c-8 0-15-7-15-16s7-16 15-16l0 0z m-609 16c0 9-7 16-16 16h-31c-8 0-15-7-15-16s7-16 15-16h31c9 0 16 7 16 16l0 0z m-109 16h-32c-8 0-15-7-15-16s7-16 15-16h32c8 0 15 7 15 16s-7 16-15 16l0 0z m-32 31h125c9 0 16 7 16 15v32c0 8-7 15-16 15h-125c-8 0-15-7-15-15v-32c0-8 7-15 15-15l0 0z m797-156c0-9-7-16-15-16s-16 7-16 16 7 15 16 15 15-7 15-15l0 0z m-47 0c0-18 14-32 32-32s31 14 31 32-14 31-31 31-32-14-32-31l0 0z m-125-16c-8 0-15 7-15 16s7 15 15 15c9 0 16-7 16-15s-7-16-16-16l0 0z m0 47c-17 0-31-14-31-31 0-18 14-32 31-32s32 14 32 32-14 31-32 31l0 0z m-156-16c9 0 16-7 16-15s-7-16-16-16-15 7-15 16c0 8 7 15 15 15l0 0z m0-47c17 0 31 14 31 32s-14 31-31 31-31-14-31-31c0-18 14-32 31-32l0 0z m-156 47c9 0 16-7 16-15s-7-16-16-16-16 7-16 16c0 8 7 15 16 15l0 0z m0-47c17 0 31 14 31 32s-14 31-31 31c-17 0-31-14-31-31 0-18 14-32 31-32l0 0z m-156 47c8 0 15-7 15-15s-7-16-15-16-16 7-16 16c0 8 7 15 16 15l0 0z m-32-15c0-18 14-32 32-32s31 14 31 32-14 31-31 31c-18 0-32-14-32-31l0 0z m-125 15c9 0 16-7 16-15s-7-16-16-16c-8 0-15 7-15 16 0 8 7 15 15 15l0 0z m0-47c18 0 32 14 32 32s-14 31-32 31-31-14-31-31c0-18 14-32 31-32l0 0z m782-78c-9 0-16 7-16 16s7 15 16 15 15-7 15-15c0-9-7-16-15-16l0 0z m0 47c-18 0-32-14-32-31s14-31 32-31 31 14 31 31c0 17-14 31-31 31l0 0z m-157-47c-8 0-15 7-15 16s7 15 15 15c9 0 16-7 16-15 0-9-7-16-16-16l0 0z m0 47c-17 0-31-14-31-31s14-31 31-31 32 14 32 31c0 17-14 31-32 31l0 0z m-156-16c9 0 16-7 16-15s-7-16-16-16-15 7-15 16c0 8 7 15 15 15l0 0z m0-46c17 0 31 14 31 31 0 17-14 31-31 31s-31-14-31-31c0-17 14-31 31-31l0 0z m-156 46c9 0 16-7 16-15s-7-16-16-16-16 7-16 16c0 8 7 15 16 15l0 0z m0-46c17 0 31 14 31 31 0 17-14 31-31 31-17 0-31-14-31-31 0-17 14-31 31-31l0 0z m-156 15c-9 0-16 7-16 16s7 15 16 15 15-7 15-15c0-9-7-16-15-16l0 0z m0 47c-18 0-32-14-32-31s14-31 32-31 31 14 31 31c0 17-14 31-31 31l0 0z m-157-16c9 0 16-7 16-15s-7-16-16-16c-8 0-15 7-15 16 0 8 7 15 15 15l0 0z m0-46c18 0 32 14 32 31 0 17-14 31-32 31s-31-14-31-31c0-17 14-31 31-31l0 0z m672 343c-17 0-31-14-31-31s14-31 31-31 32 14 32 31-14 31-32 31l0 0z m94-62c17 0 31 14 31 31s-14 31-31 31-31-14-31-31 14-31 31-31l0 0z m-766-469c18 0 32 14 32 31 0 18-14 32-32 32s-31-14-31-32c0-17 14-31 31-31l0 0z m0 94c18 0 32 14 32 31s-14 31-32 31-31-14-31-31c0-17 14-31 31-31l0 0z m157-31c-18 0-32-14-32-32 0-17 14-31 32-31s31 14 31 31c0 18-14 32-31 32l0 0z m0 93c-18 0-32-14-32-31 0-17 14-31 32-31s31 14 31 31c0 17-14 31-31 31l0 0z m156-156c17 0 31 14 31 31 0 18-14 32-31 32-17 0-31-14-31-32 0-17 14-31 31-31l0 0z m0 94c17 0 31 14 31 31s-14 31-31 31c-17 0-31-14-31-31 0-17 14-31 31-31l0 0z m156-94c17 0 31 14 31 31 0 18-14 32-31 32s-31-14-31-32c0-17 14-31 31-31l0 0z m0 94c17 0 31 14 31 31s-14 31-31 31-31-14-31-31c0-17 14-31 31-31l0 0z m156-31c-17 0-31-14-31-32 0-17 14-31 31-31s32 14 32 31-14 32-32 32l0 0z m0 93c-17 0-31-14-31-31 0-17 14-31 31-31s32 14 32 31c0 17-14 31-32 31l0 0z m157-93c-18 0-32-14-32-32 0-17 14-31 32-31s31 14 31 31c0 18-14 32-31 32l0 0z m0 93c-18 0-32-14-32-31 0-17 14-31 32-31s31 14 31 31c0 17-14 31-31 31l0 0z m-313 328c9 0 16 7 16 16s-7 16-16 16-15-7-15-16 7-16 15-16l0 0z m63 0c8 0 15 7 15 16s-7 16-15 16-16-7-16-16 7-16 16-16l0 0z m62 0c9 0 16 7 16 16s-7 16-16 16-15-7-15-16 7-16 15-16l0 0z m219-640h-16v78c0 9-7 16-15 16s-16-7-16-16v-78h-16c-8 0-15-7-15-16s7-15 15-15h16v-79c0-8 7-15 16-15s15 7 15 15v79h16c9 0 16 7 16 15s-7 16-16 16l0 0z m-156 31h-16v47c0 9-7 16-16 16s-15-7-15-16v-47h-16c-8 0-15-7-15-16s7-15 15-15h16v-110c0-8 7-15 15-15s16 7 16 15v110h16c8 0 15 7 15 15s-7 16-15 16l0 0z m-157 31h-15v16c0 9-7 16-16 16s-15-7-15-16v-16h-16c-9 0-16-7-16-15 0-9 7-16 16-16h16v-141c0-8 7-15 15-15s16 7 16 15v141h15c9 0 16 7 16 16 0 8-7 15-16 15l0 0z m-156-62h-15v78c0 9-7 16-16 16s-16-7-16-16v-78h-15c-9 0-16-7-16-16s7-15 16-15h15v-79c0-8 7-15 16-15s16 7 16 15v79h15c9 0 16 7 16 15s-7 16-16 16l0 0z m-156-31h-16v109c0 9-7 16-15 16-9 0-16-7-16-16v-109h-16c-8 0-15-7-15-16 0-9 7-16 15-16h16v-47c0-8 7-15 16-15 8 0 15 7 15 15v47h16c9 0 16 7 16 16s-7 16-16 16l0 0z m-156 62h-16v47c0 9-7 16-16 16s-15-7-15-16v-47h-16c-8 0-15-7-15-16s7-15 15-15h16v-110c0-8 7-15 15-15s16 7 16 15v110h16c8 0 15 7 15 15s-7 16-15 16l0 0z" horiz-adv-x="1000" />

<glyph glyph-name="music" unicode="&#xe832;" d="M242 76h355v129h-355v-129z m32 97h291v-65h-291v65z m355-97h129v129h-129v-129z m32 97h65v-65h-65v65z m-354-178c-27 0-49-22-49-48s22-49 49-49 48 22 48 49-22 48-48 48z m0-64c-9 0-17 7-17 16 0 9 8 16 17 16s16-7 16-16c0-9-8-16-16-16z m129 64c-27 0-49-22-49-48s22-49 49-49 48 22 48 49-22 48-48 48z m0-64c-9 0-17 7-17 16 0 9 8 16 17 16s16-7 16-16c0-9-8-16-16-16z m129 64c-27 0-49-22-49-48s22-49 49-49 48 22 48 49-22 48-48 48z m0-64c-9 0-17 7-17 16 0 9 8 16 17 16 8 0 16-7 16-16 0-9-8-16-16-16z m129 64c-27 0-49-22-49-48s22-49 49-49 48 22 48 49-22 48-48 48z m0-64c-9 0-17 7-17 16 0 9 8 16 17 16 9 0 16-7 16-16 0-9-7-16-16-16z m225 919h-322c-45 0-81-36-81-81v-500h-64v500c0 45-37 81-81 81h-290c-45 0-81-36-81-81v-548c0-44 36-81 81-81h96v-209c0-45 37-81 81-81h484c44 0 81 36 81 81v177h96c45 0 81 36 81 81v580c0 45-36 81-81 81z m-887-81c0 27 22 49 49 49h290c27 0 48-22 48-49v-16h-387v16z m362-419l25 26v-52l-25 26z m25-71v-3l-6-7h-84l-8 8 50 50 48-48z m-48 94l-13 13-23-23 13-13-50-50-49 50 49 50 17-17 23 23-17 17 50 49 48-48v-3l-48-48z m-195 340l8 8h84l8-8-50-50-16 16-23-23 16-16-50-49-49 49 49 50 16-15 23 22-16 16z m122-168l50-50-50-50-49 50 49 50z m-72-27l-50 50 50 50 50-50-50-50z m23 122l49 50 50-50-50-49-49 49z m-46-145l-50-50-49 50 49 50 50-50z m0-145l-50-50-49 50 49 50 50-50z m-27 73l50 49 50-49-50-50-50 50z m218 72l25 26v-51l-25 25z m-23 23l-50 50 50 50 48-49v-3l-48-48z m23 122l25 26v-51l-25 25z m-23 23l-50 50 8 8h84l6-7v-2l-48-49z m-339 51l7 7h83l8-8-49-50-49 49v2z m0-48l26-26-26-25v51z m0-97l49 49 49-50-49-50-49 48v3z m0-48l26-26-26-25v51z m0-97l49 48 49-49-49-50-49 48v3z m0-48l26-26-26-26v52z m0-97l49 48 49-50-8-8h-83l-7 7v3z m145-90v-16h-96c-27 0-49 21-49 48v16h162c-10-13-17-30-17-48z m7 80l-8 8 50 50 50-50-8-8h-10-74z m606-225h-32v-33h32v-80c0-27-21-49-48-49h-484c-27 0-48 22-48 49v80h516v33h-516v145c0 26 21 48 48 48h178 306c27 0 48-22 48-48v-145z m-64 274c0 18 14 32 32 32 18 0 32-14 32-32 0-18-14-32-32-32-18 0-32 14-32 32z m90-97c-7 16-19 28-34 37 24 10 41 33 41 60 0 35-29 64-65 64s-64-29-64-64c0-20 8-37 22-49h-60c-7 15-11 32-11 49 0 62 51 113 113 113s113-51 113-113c0-41-21-77-55-97z m152-32c0-27-22-49-49-49h-96v48c49 25 80 74 80 130 0 80-65 145-145 145-80 0-145-65-145-145 0-17 3-33 9-49h-74v500c0 27 22 49 49 49h322c27 0 49-22 49-49v-580z m-210 532c-35 0-64-29-64-64s29-65 64-65 65 29 65 65-29 64-65 64z m0-97c-18 0-32 15-32 33s14 32 32 32c18 0 32-15 32-32s-14-33-32-33z m0 162c-71 0-129-58-129-129 0-72 58-130 129-130 71 0 129 58 129 130 0 71-58 129-129 129z m0-226c-53 0-97 43-97 97s44 96 97 96 97-43 97-96-44-97-97-97z" horiz-adv-x="1000" />

<glyph glyph-name="music-player" unicode="&#xe833;" d="M958 846c-4 3-10 5-15 4l-563-73c-10-1-16-9-16-18v-109-77-462c-34 40-86 66-146 66-100 0-182-73-182-163s82-164 182-164 182 73 182 164c0 4 0 8-1 12 1 1 1 2 1 4v527l527 68v-332c-33 40-86 66-145 66-100 0-182-73-182-163s82-164 182-164c99 0 180 72 182 161 0 0 0 1 0 1v452 76 110c0 5-3 10-6 14z m-740-960c-80 0-145 57-145 128s65 127 145 127 146-57 146-127-66-128-146-128z m564 182c-80 0-146 57-146 128s66 127 146 127 145-57 145-127-65-128-145-128z m-382 526v56 93l527 68v-89-60l-527-68z" horiz-adv-x="1000" />

<glyph glyph-name="siren" unicode="&#xe834;" d="M784 76h-45v304c0 132-107 240-239 240s-239-108-239-240v-304h-45c-58 0-104-46-104-104 0-57 46-103 104-103h568c58 0 104 46 104 103 0 58-46 104-104 104z m-490 304c0 114 92 206 206 206s206-92 206-206v-230h-412v230z m0-264h412v-40h-412v40z m490-214h-568c-34 0-61 23-69 54h706c-7-31-35-54-69-54z m-637 87c8 31 35 54 69 54h568c34 0 62-23 69-54h-706z m353 683c9 0 17 7 17 16v127c0 9-8 16-17 16-9 0-17-7-17-16v-127c0-9 8-16 17-16z m-340-341c0 10-8 17-17 17h-126c-10 0-17-7-17-17s7-16 17-16h126c9 0 17 7 17 16z m-39 301l97-82c3-3 6-4 10-4 5 0 10 2 13 6 6 7 5 17-2 23l-96 82c-7 6-18 5-24-2-6-6-5-17 2-23z m667-106c3 0 7 1 10 3l102 75c7 5 9 16 3 23-5 8-16 9-23 4l-102-75c-7-6-9-16-4-23 4-5 9-7 14-7z m195-178h-126c-9 0-17-7-17-17s8-16 17-16h126c10 0 17 7 17 16s-7 17-17 17z" horiz-adv-x="1000" />

<glyph glyph-name="software" unicode="&#xe835;" d="M983 850h-966c-10 0-17-7-17-17v-766c0-10 7-17 17-17h66v-183c0-10 7-17 17-17h800c10 0 17 7 17 17v183h66c10 0 17 7 17 17v766c0 10-7 17-17 17z m-16-33v-100h-934v100h934z m-84-367h-766v100h766v-100z m-766-567v534h766v-534h-766z m800 200v484c0 10-7 16-17 16h-800c-10 0-17-6-17-16v-484h-50v600h934v-600h-50z m-734-16h267c10 0 17 6 17 16v267c0 10-7 17-17 17h-267c-10 0-16-7-16-17v-267c0-10 6-16 16-16z m17 133h100v-100h-100v100z m133-100v100h100v-100h-100z m100 133h-100v100h100v-100z m-133 100v-100h-100v100h100z" horiz-adv-x="1000" />

<glyph glyph-name="sound-system-1" unicode="&#xe836;" d="M990-72h-241c-5 0-10 5-10 10v777c0 31 26 57 57 57h147c32 0 57-26 57-57v-777c0-5-4-10-10-10z m-231 20h221v767c0 20-17 37-37 37h-147c-20 0-37-17-37-37v-767z m-88-20h-343c-5 0-10 5-10 10v90c0 6 5 10 10 10h343c6 0 10-4 10-10v-90c0-5-4-10-10-10z m-333 20h323v70h-323v-70z m-87-20h-241c-5 0-10 5-10 10v777c0 31 26 57 57 57h147c32 0 57-26 57-57v-777c0-5-4-10-10-10z m-231 20h221v767c0 20-17 37-37 37h-147c-20 0-37-17-37-37v-767z m592 9c-15 0-27 12-27 26s12 27 27 27 26-12 26-27-12-26-26-26z m0 33c-4 0-7-3-7-7s3-6 7-6 6 3 6 6-3 7-6 7z m-116-17h-121c-5 0-10 5-10 10s5 10 10 10h121c5 0 10-4 10-10s-5-10-10-10z m414 5h-80c-6 0-10 5-10 10s4 10 10 10h80c5 0 10-4 10-10s-5-10-10-10z m-740 0h-79c-6 0-10 5-10 10s4 10 10 10h79c6 0 11-4 11-10s-5-10-11-10z m700 369c-46 0-83 37-83 83s37 83 83 83 82-38 82-83-37-83-82-83z m0 145c-35 0-63-28-63-62s28-63 63-63 62 28 62 63-28 62-62 62z m-739-145c-46 0-83 37-83 83s37 83 83 83 82-38 82-83-37-83-82-83z m0 145c-35 0-63-28-63-62s28-63 63-63 62 28 62 63-28 62-62 62z m739-98c-20 0-36 16-36 36 0 20 16 36 36 36 19 0 36-16 36-36 0-20-17-36-36-36z m0 52c-9 0-16-7-16-16s7-16 16-16 15 7 15 16-7 16-15 16z m-739-52c-20 0-36 16-36 36 0 20 16 36 36 36 19 0 35-16 35-36 0-20-16-36-35-36z m0 52c-9 0-16-7-16-16s7-16 16-16 15 7 15 16-7 16-15 16z m739 105c-46 0-83 37-83 83s37 82 83 82 82-37 82-82-37-83-82-83z m0 145c-35 0-63-28-63-62s28-63 63-63 62 28 62 63-28 62-62 62z m-739-145c-46 0-83 37-83 83s37 82 83 82 82-37 82-82-37-83-82-83z m0 145c-35 0-63-28-63-62s28-63 63-63 62 28 62 63-28 62-62 62z m739-98c-20 0-36 16-36 36s16 36 36 36c19 0 36-17 36-36s-17-36-36-36z m0 52c-9 0-16-8-16-16s7-16 16-16 15 7 15 16-7 16-15 16z m-739-52c-20 0-36 16-36 36s16 36 36 36c19 0 35-17 35-36s-16-36-35-36z m0 52c-9 0-16-8-16-16s7-16 16-16 15 7 15 16-7 16-15 16z" horiz-adv-x="1000" />

<glyph glyph-name="sound-system-2" unicode="&#xe837;" d="M656 241h-312c-22 0-39-18-39-39v-344c0-5 3-8 8-8h375c4 0 7 3 7 8v344c0 21-17 39-39 39z m24-375h-360v336c0 13 11 23 24 23h312c14 0 24-10 24-23v-336z m-446 773h-140c-22 0-39-17-39-39v-742c0-5 3-8 8-8h203c4 0 7 3 7 8v742c0 22-17 39-39 39z m24-773l0 0h-188v734c0 13 11 23 24 23h140c14 0 24-10 24-23v-734z m180 984h-94c-22 0-39-17-39-39v-531c0-5 3-8 8-8h156c4 0 8 3 8 8v531c0 22-18 39-39 39z m23-562h-141v523h0c0 13 11 23 24 23h94c13 0 23-10 23-23v-523z m-297-243c-39 0-70-31-70-70s31-70 70-70c39 0 70 31 70 70s-31 70-70 70z m0-125c-30 0-55 24-55 55s25 55 55 55c31 0 55-24 55-55s-24-55-55-55z m0 305c-39 0-70-31-70-70 0-39 31-71 70-71 39 0 70 32 70 71 0 39-31 70-70 70z m0-125c-30 0-55 24-55 55s25 54 55 54c31 0 55-24 55-54s-24-55-55-55z m0 305c-39 0-70-32-70-71 0-39 31-70 70-70 39 0 70 31 70 70 0 39-31 71-70 71z m0-125c-30 0-55 24-55 54 0 31 25 55 55 55 31 0 55-24 55-55 0-30-24-54-55-54z m0 304c-39 0-70-31-70-70 0-39 31-70 70-70 39 0 70 31 70 70 0 39-31 70-70 70z m0-125c-30 0-55 25-55 55 0 31 25 55 55 55 31 0 55-24 55-55s-24-55-55-55z m24 63c-5 0-8-3-8-8 0-8-7-16-16-16s-16 8-16 16c0 9 8 16 16 16 5 0 8 3 8 8 0 4-3 7-8 7-17 0-31-14-31-31 0-17 14-31 31-31 17 0 31 14 31 31 0 5-3 8-7 8z m0-180c-5 0-8-3-8-8 0-8-7-15-16-15s-16 7-16 15 8 16 16 16c5 0 8 3 8 8 0 5-3 8-8 8-17 0-31-14-31-32s14-31 31-31c17 0 31 14 31 31 0 5-3 8-7 8z m0-179c-5 0-8-4-8-8 0-9-7-16-16-16s-16 7-16 16 8 15 16 15c5 0 8 3 8 8 0 5-3 8-8 8-17 0-31-14-31-31s14-32 31-32c17 0 31 15 31 32 0 4-3 8-7 8z m0-180c-5 0-8-3-8-8 0-9-7-16-16-16s-16 7-16 16 8 16 16 16c5 0 8 3 8 7s-3 8-8 8c-17 0-31-14-31-31s14-31 31-31c17 0 31 14 31 31 0 5-3 8-7 8z m718 656h-140c-22 0-39-17-39-39v-742c0-5 3-8 7-8h204c4 0 7 3 7 8v742c0 22-17 39-39 39z m24-773l0 0h-188v734c0 13 10 23 24 23h140c14 0 24-10 24-23v-734z m-94 179c-39 0-70-31-70-70s31-70 70-70c39 0 70 31 70 70s-31 70-70 70z m0-125c-30 0-55 24-55 55s25 55 55 55 55-24 55-55-25-55-55-55z m0 305c-39 0-70-31-70-70 0-39 31-71 70-71 39 0 70 32 70 71 0 39-31 70-70 70z m0-125c-30 0-55 24-55 55s25 54 55 54 55-24 55-54-25-55-55-55z m0 305c-39 0-70-32-70-71 0-39 31-70 70-70 39 0 70 31 70 70 0 39-31 71-70 71z m0-125c-30 0-55 24-55 54 0 31 25 55 55 55s55-24 55-55c0-30-25-54-55-54z m0 304c-39 0-70-31-70-70 0-39 31-70 70-70 39 0 70 31 70 70 0 39-31 70-70 70z m0-125c-30 0-55 25-55 55 0 31 25 55 55 55s55-24 55-55-25-55-55-55z m23 63c-4 0-7-3-7-8 0-8-7-16-16-16-9 0-16 8-16 16 0 9 7 16 16 16 5 0 8 3 8 8 0 4-3 7-8 7-17 0-31-14-31-31 0-17 14-31 31-31 17 0 31 14 31 31 0 5-3 8-8 8z m0-180c-4 0-7-3-7-8 0-8-7-15-16-15-9 0-16 7-16 15s7 16 16 16c5 0 8 3 8 8s-3 8-8 8c-17 0-31-14-31-32 0-17 14-31 31-31 17 0 31 14 31 31 0 5-3 8-8 8z m0-179c-4 0-7-4-7-8 0-9-7-16-16-16-9 0-16 7-16 16s7 15 16 15c5 0 8 3 8 8 0 5-3 8-8 8-17 0-31-14-31-31s14-32 31-32c17 0 31 15 31 32 0 4-3 8-8 8z m0-180c-4 0-7-3-7-8 0-9-7-16-16-16-9 0-16 7-16 16s7 16 16 16c5 0 8 3 8 7s-3 8-8 8c-17 0-31-14-31-31s14-31 31-31c17 0 31 14 31 31 0 5-3 8-8 8z m-359 195c-73 0-133-59-133-133 0-73 60-133 133-133s133 60 133 133c0 74-60 133-133 133z m0-250c-65 0-117 52-117 117 0 65 52 118 117 118 65 0 117-53 117-118 0-65-52-117-117-117z m68 135c-1 4-5 7-9 6s-7-6-6-10c1-4 2-9 2-13 0-30-24-55-55-55s-55 25-55 55 25 55 55 55c6 0 11-1 16-3 4-1 8 1 9 6 2 4-1 9-5 9-7 2-13 3-20 3-39 0-70-32-70-71s31-70 70-70 70 31 70 70c0 7 0 12-2 18z m-177 357c-26 0-47-21-47-47 0-25 21-46 47-46s47 21 47 46c0 26-22 47-47 47z m0-78c-18 0-32 14-32 31 0 18 14 32 32 32s31-14 31-32c0-17-14-31-31-31z m0 203c-26 0-47-21-47-47s21-46 47-46 47 21 47 46-22 47-47 47z m0-78c-18 0-32 14-32 31 0 18 14 32 32 32s31-14 31-32c0-17-14-31-31-31z m0 203c-26 0-47-21-47-47 0-25 21-46 47-46s47 21 47 46-22 47-47 47z m0-78c-18 0-32 14-32 31 0 18 14 32 32 32s31-14 31-32c0-17-14-31-31-31z m0 203c-26 0-47-21-47-47 0-25 21-46 47-46s47 21 47 46-22 47-47 47z m0-78c-18 0-32 14-32 31 0 18 14 32 32 32s31-14 31-32c0-17-14-31-31-31z m265 133h-93c-22 0-40-17-40-39v-531c0-5 4-8 8-8h157c4 0 7 3 7 8v531c0 22-17 39-39 39z m24-562h-141v523c0 13 10 23 24 23h93c14 0 24-10 24-23v-523z m-71 132c-25 0-46-21-46-47 0-25 21-46 46-46 26 0 47 21 47 46 0 26-21 47-47 47z m0-78c-17 0-31 14-31 31 0 18 14 32 31 32s32-14 32-32c0-17-14-31-32-31z m0 203c-25 0-46-21-46-47s21-46 46-46c26 0 47 21 47 46s-21 47-47 47z m0-78c-17 0-31 14-31 31 0 18 14 32 31 32s32-14 32-32c0-17-14-31-32-31z m0 203c-25 0-46-21-46-47 0-25 21-46 46-46 26 0 47 21 47 46s-21 47-47 47z m0-78c-17 0-31 14-31 31 0 18 14 32 31 32s32-14 32-32c0-17-14-31-32-31z m0 203c-25 0-46-21-46-47 0-25 21-46 46-46 26 0 47 21 47 46s-21 47-47 47z m0-78c-17 0-31 14-31 31 0 18 14 32 31 32s32-14 32-32c0-17-14-31-32-31z" horiz-adv-x="1000" />

<glyph glyph-name="sound-system" unicode="&#xe838;" d="M850 483c-10 0-17-6-17-16s7-17 17-17 17 7 17 17-7 16-17 16z m-700 0c-10 0-17-6-17-16s7-17 17-17 17 7 17 17-7 16-17 16z m700-466c37 0 67 30 67 66 0 37-30 67-67 67-37 0-67-30-67-67 0-36 30-66 67-66z m0 100c18 0 33-15 33-34s-15-33-33-33-33 15-33 33 15 34 33 34z m0 433c-47 0-83-37-83-83s36-84 83-84 83 37 83 84c0 46-36 83-83 83z m0-133c-28 0-50 21-50 50s22 50 50 50c28 0 50-22 50-50s-22-50-50-50z m-350 200c-10 0-17-7-17-17 0-10 7-17 17-17s17 7 17 17c0 10-7 17-17 17z m0 66c-47 0-83-36-83-83 0-47 36-83 83-83 47 0 83 36 83 83 0 47-36 83-83 83z m0-133c-28 0-50 22-50 50s22 50 50 50c28 0 50-22 50-50s-22-50-50-50z m0-133c-10 0-17-7-17-17 0-10 7-17 17-17s17 7 17 17c0 10-7 17-17 17z m0 66c-47 0-83-36-83-83 0-47 36-83 83-83 47 0 83 36 83 83 0 47-36 83-83 83z m0-133c-28 0-50 22-50 50 0 28 22 50 50 50 28 0 50-22 50-50 0-28-22-50-50-50z m-350 200c-47 0-83-37-83-83s36-84 83-84c47 0 83 37 83 84 0 46-36 83-83 83z m0-133c-28 0-50 21-50 50s22 50 50 50 50-22 50-50-22-50-50-50z m-17-300v16c0 10-6 17-16 17s-17-7-17-17v-16c-10 0-17-7-17-17s7-17 17-17v-50c0-10 7-16 17-16s16 6 16 16v50c10 0 17 7 17 17s-7 17-17 17z m100-34v50c0 10-6 17-16 17s-17-7-17-17v-50c-10 0-17-6-17-16s7-17 17-17v-17c0-10 7-16 17-16s16 6 16 16v17c10 0 17 7 17 17s-7 16-17 16z m100-16v66c0 10-6 17-16 17s-17-7-17-17v-66c-10 0-17-7-17-17 0-10 7-17 17-17 0-10 7-16 17-16s16 6 16 16c10 0 17 7 17 17 0 10-7 17-17 17z m100 33v33c0 10-6 17-16 17-10 0-17-7-17-17v-33c-10 0-17-7-17-17s7-16 17-16v-34c0-10 7-16 17-16 10 0 16 6 16 16v34c10 0 17 6 17 16s-7 17-17 17z m67 50c-10 0-17-7-17-17v-100c0-10 7-16 17-16h233c10 0 17 6 17 16v100c0 10-7 17-17 17h-233z m217-100h-200v67h200v-67z m283 217v333c0 10-7 17-17 17h-266c-10 0-17-7-17-17v-333c0-10 7-17 17-17v-33h-84v33c10 0 17 7 17 17v466c0 10-7 17-17 17h-266c-10 0-17-7-17-17v-466c0-10 7-17 17-17v-33h-84v33c10 0 17 7 17 17v333c0 10-7 17-17 17h-266c-10 0-17-7-17-17v-333c0-10 7-17 17-17v-33c-10 0-17-7-17-17v-233c0-10 7-17 17-17h966c10 0 17 7 17 17v233c0 10-7 17-17 17v33c10 0 17 7 17 17z m-267 316h234v-300h-234v300z m-350 134h234v-434h-234v434z m17-467h200v-33h-200v33z m-367 333h234v-300h-234v300z m17-333h200v-33h-200v33z m917-267h-934v200h234 116 234 116 234v-200z m-17 234h-200v33h200v-33z m-767 133h-66c-10 0-17-7-17-17s7-16 17-16h66c10 0 17 6 17 16s-7 17-17 17z m700 0h-66c-10 0-17-7-17-17s7-16 17-16h66c10 0 17 6 17 16s-7 17-17 17z" horiz-adv-x="1000" />

<glyph glyph-name="speakers" unicode="&#xe839;" d="M910 783h-185v18c0 27-22 49-49 49h-586c-26 0-48-22-48-49v-788c0-25 21-46 46-46h187v-20c0-26 21-47 47-47h590c25 0 46 21 46 47v788c0 27-21 48-48 48z m-635-690c-81 40-133 124-133 215s52 175 133 216v-431z m0 642v-174c-100-43-167-143-167-253s67-209 167-252v-56h-187c-7 0-13 6-13 13v520h67c9 0 16 8 16 17s-7 17-16 17h-67v33h67c9 0 16 7 16 17s-7 16-16 16h-67v34h67c9 0 16 7 16 16s-7 17-16 17h-67v33h67c9 0 16 8 16 17s-7 17-16 17h-67v34c0 9 7 16 15 16h586c9 0 16-7 16-16v-18h-368c-27 0-49-21-49-48z m650-788c0-8-6-14-13-14h-590c-8 0-14 6-14 14v20 76 424h67c9 0 17 7 17 16s-8 17-17 17h-67v33h67c9 0 17 8 17 17s-8 17-17 17h-67v7 26h67c9 0 17 7 17 17s-8 16-17 16h-67v34h67c9 0 17 7 17 16s-8 17-17 17h-67v35c0 8 7 15 16 15h401 185c8 0 15-7 15-15v-788z m-308 386c-51 0-92-41-92-91s41-92 92-92 91 41 91 92-41 91-91 91z m0-150c-32 0-59 27-59 59s27 58 59 58 58-26 58-58-26-59-58-59z m275 359c0 87-71 158-159 158s-158-71-158-158c0-10 1-19 3-28-133-19-236-134-236-272 0-152 123-275 275-275s275 123 275 275c0 66-24 126-63 174 39 30 63 76 63 126z m-34-300c0-134-108-242-241-242s-242 108-242 242c0 124 94 226 215 240l10 1c6 0 11 0 17 0 17 0 34-2 51-5l0 0 4-1c1 0 1-1 2-1 9-2 17-5 26-8 2 0 4-1 6-2 3-1 6-3 9-4 4-2 8-3 12-5 0-1 1-1 2-2 1 0 3-1 4-1 3-2 6-4 10-7 3-2 7-4 10-6 2-2 4-3 7-5 4-3 9-7 13-10 1-1 2-3 4-4 5-4 9-9 14-13 42-44 67-103 67-167z m-183 300c0 32 26 58 58 58s59-26 59-58c0-28-20-52-47-57l0 0c-6 3-12 6-17 8-2 1-4 2-5 2-7 3-14 6-21 8-1 1-3 1-4 2-4 1-8 2-12 3-5 7-11 19-11 34z m131-102c-1 2-3 3-4 5-5 3-9 7-14 11-3 3-6 5-9 7 28 16 46 45 46 79 0 50-41 91-92 91s-91-41-91-91c0-9 1-18 4-27 0 0-1 0-2 0-9 1-18 2-27 2-2 0-4 0-6 0-2 8-3 16-3 25 0 69 56 125 125 125s125-56 125-125c0-40-19-78-52-102z m-381-557h-67c-9 0-16-7-16-16s7-17 16-17h67c9 0 17 7 17 17s-8 16-17 16z m-267 67h-66c-9 0-17-8-17-17s8-16 17-16h66c10 0 17 7 17 16s-7 17-17 17z m717-67h-67c-9 0-16-7-16-16s7-17 16-17h67c9 0 17 7 17 17s-8 16-17 16z" horiz-adv-x="1000" />

<glyph glyph-name="sportlights" unicode="&#xe83a;" d="M483 295c5-6 5-15-1-20-2-2-6-3-9-3-4 0-7 1-10 4l-62 65c-5 6-4 14 1 19 5 6 14 5 19 0l62-65z m515 471l-40-74 4-2c3-2 6-5 7-8 1-4 0-7-1-11l-23-42c-3-5-8-7-12-7-3 0-5 0-7 1l-30 17-107-676c-1-26-31-47-90-63-53-14-123-22-197-22-75 0-145 8-198 22-59 16-89 37-90 63l-107 677-33-18c-2-1-4-1-6-1-2 0-3 0-4 0-4 1-7 4-8 7l-24 42c-3 7-1 15 6 19l4 2-40 74c-2 3-3 7-1 10 1 4 3 7 6 8l64 35c7 4 15 1 19-5l40-74 4 2c7 4 15 2 19-5l23-43c2-3 2-7 1-10-1-4-3-7-7-8l-32-18 230-242c6-6 5-14 0-20-6-5-14-5-19 1l-211 222 95-602 249 629h-35c-8 0-14 7-14 14v49c0 7 6 13 14 13h5v84c0 8 6 14 13 14h73c8 0 14-6 14-14v-84h5c7 0 13-6 13-13v-49c0-7-6-14-13-14h-35l248-629 95 603-216-225c-6-6-14-6-20 0-5 5-5 13 0 19l235 243-34 19c-3 1-6 4-7 8-1 3 0 7 1 10l24 43c3 7 11 9 18 5l4-2 40 74c4 6 12 9 19 5l64-35c3-1 5-4 6-8 2-3 1-7-1-10z m-30 1l-40 22-34-62 12-7c7-3 9-11 6-18-4-7-12-9-19-5l-28 15-10-19 72-39 10 18-15 9c-7 4-9 12-6 18 4 7 12 9 18 6l34 62z m-425-93v21h-17c-7 0-13 6-13 14 0 7 5 12 12 13v71h-46v-71h16c7 0 13-6 13-13s-6-14-13-14h-34v-21h82z m-302-708c0-7 15-24 70-39 51-13 119-21 191-21 72 0 139 8 190 21 55 15 70 32 70 39 0 4-6 12-23 21 0 0 0 0-1 1-12 6-30 12-55 19-7 1-12 9-10 16 2 7 9 12 16 10 3 0 5-1 7-1l-183 191c-5 5-5 14 1 19 5 5 14 5 19 0l203-214-234 595-235-596 307 329c5 5 14 6 19 0 6-5 6-13 1-19l-286-305c52 13 121 21 194 21 38 0 76-3 111-7 7 0 13-7 12-15-1-7-8-13-15-12-34 4-71 6-108 6-72 0-140-7-191-21-55-15-70-31-70-38z m-96 727l-10 19-10-6c-7-3-15-1-19 6-2 4-2 10 1 14l-35 63-40-22 34-62 16 9c7 4 15 1 18-5 4-7 2-15-5-19l-28-15 0 0 0 0-4-3 10-18 72 39z" horiz-adv-x="1000" />

<glyph glyph-name="spotlight-1" unicode="&#xe83b;" d="M610 438c6 0 11 3 14 8l110 190c2 5 2 11 0 16l-110 190c-3 5-8 8-14 8h-220c-5 0-11-3-14-8l-109-190c-3-5-3-11 0-16l109-190c3-5 9-8 14-8h94v-23c-20-6-35-25-35-48v-34c0-23 15-42 35-48v-60c-20-6-35-25-35-48v-34c0-8 2-16 6-23l-136-169c-24-4-42-25-42-50v-35c0-9 7-16 16-16h69c9 0 16 7 16 16v35c0 18-9 33-23 42l35 45h94v-39c-20-7-35-26-35-48v-35c0-9 8-16 17-16h69c9 0 16 7 16 16v35c0 22-15 41-35 48v39h94l36-45c-14-9-24-24-24-42v-35c0-9 7-16 16-16h69c9 0 17 7 17 16v35c0 25-19 46-43 50l-135 169c3 7 5 15 5 23v34c0 23-15 42-35 48v60c20 6 35 25 35 48v1h37v-19c0-8 7-16 16-16s16 8 16 16v70c0 9-7 16-16 16s-16-7-16-16v-19h-37v1c0 23-15 42-35 48v23h94z m-92-556h-36v19c0 10 8 18 18 18s18-8 18-18v-19z m-172 0h-37v19c0 10 8 18 18 18 0 0 0 0 0 0 0 0 0 0 0 0 10 0 19-8 19-18v-19z m70 139l62 76c2-1 4-2 6-2v-74h-68z m100 0v74c3 0 5 1 7 2l61-76h-68z m175-139h-36v19c0 10 8 18 18 18 0 0 0 0 0 0l0 0c10 0 18-8 18-18v-19z m-173 261c0-10-8-19-18-19s-18 9-18 19v34c0 10 8 19 18 19s18-9 18-19v-34z m0 190c0-10-8-19-18-19s-18 9-18 19v34c0 10 8 19 18 19s18-9 18-19v-34z m-18 310c-9 0-16-8-16-16v-19h-18c-11 0-19 8-19 19v34c0 10 8 18 19 18h69c10 0 18-8 18-18v-34c0-11-8-19-18-19h-19v19c0 8-7 16-16 16z m-109-157l-82 142h106v-1c0-21 12-39 30-47l-54-94z m0 316l54-95c-18-8-30-25-30-46v-1h-106l82 142z m300-142h-106v1c0 21-12 38-30 46l55 95 81-142z m-81-174l-55 94c18 8 30 26 30 47v1h106l-81-142z m-89 226c0 0 0 0 0 0h-41c0 0 0 0 0 0l-61 106h162l-60-106z m0-136c0 0 0 0 0 0l60-106h-65v106h5z m-102-106l61 106c0 0 0 0 0 0h4v-106h-65z" horiz-adv-x="1000" />

<glyph glyph-name="spotlight" unicode="&#xe83c;" d="M497 382c-90 0-164-74-164-165s74-164 164-164 164 74 164 164c0 91-73 165-164 165z m0-303c-76 0-138 62-138 138s62 138 138 138 138-61 138-138-62-138-138-138z m360 372c-3 2-9 2-12 1l-62-30v132c0 95-77 172-172 172h-100v124h-25v-124h-100c-94 0-171-77-171-172v-133l-62 30c-5 2-9 2-12-1-3-2-6-6-6-11v-448c0-4 3-8 6-11 2-1 4-2 6-2s4 0 6 1l67 33c19-32 46-59 77-76l-33-69c-3-4-3-8 1-12 2-3 6-5 11-5h449c4 0 8 2 10 5s3 9 1 12l-33 69c32 17 58 44 77 76l67-33c3-1 4-1 6-1s4 1 6 2c4 3 6 7 6 11v449c-2 5-5 8-8 11z m-619 103c0 81 66 147 146 147h226c81 0 147-66 147-147v-103c-15 19-35 35-55 47l31 65c2 4 2 9-1 12-2 3-6 5-11 5h-448c-4 0-8-2-10-5-3-3-3-9-2-12l32-65c-22-12-40-28-55-47v103z m68-79l37-78c-10-9-18-18-26-27l-77 38c15 28 38 51 66 67z m-11 79h408l-30-56-41-86c-38 26-85 42-134 42-50 0-95-15-133-42l-70 142z m202-124c117 0 212-94 212-211s-95-212-212-212-212 94-212 212c0 116 95 211 212 211z m155-33l38 78c27-16 50-39 66-67l-77-38c-9 9-18 18-27 27z m-434-355l-60-29v406l58-28 85-41c-25-38-41-83-41-131 0-50 17-97 43-135l-85-42z m23-18l78 38c8-9 16-17 25-25l-38-78c-27 16-50 39-65 65z m52-148l72 146c38-26 83-42 132-42s95 16 133 42l72-146h-409z m396 84l-38 78c8 8 17 16 25 25l78-38c-15-27-38-50-65-65z m149 52l0 0-60 29-86 42c27 38 42 84 42 134 0 49-15 95-40 132l85 41 59 29v-407z" horiz-adv-x="1000" />

<glyph glyph-name="idea" unicode="&#xe83d;" d="M112 526h-87c-13 0-24-11-24-25s11-24 24-24h87c13 0 24 11 24 24s-11 25-24 25z m863 0h-87c-13 0-24-11-24-25s11-24 24-24h87c14 0 24 11 24 24s-10 25-24 25z m-763-313c-10 9-25 9-35 0l-63-63c-9-10-9-25 0-35 5-4 11-7 17-7s13 3 17 7l64 64c9 9 9 25 0 34z m630 630c-10 9-25 9-35 0l-61-62c-10-9-10-24 0-34 5-5 11-7 17-7 6 0 12 2 17 7l62 62c9 9 9 25 0 34z m-588-62l-61 62c-10 9-25 9-35 0-9-9-9-25 0-34l62-62c5-5 11-7 17-7s12 2 17 7c10 10 10 25 0 34z m632-631l-63 63c-10 9-25 9-34 0-10-10-10-25 0-34l63-64c4-4 11-7 17-7 6 0 12 3 17 7 9 10 9 25 0 35z m-386 634c-167 0-303-142-303-317 0-81 29-169 80-240 39-55 59-116 59-176v-153c0-26 22-48 49-48h230c27 0 49 22 49 48v153c0 60 20 121 59 176 51 71 80 159 80 240 0 175-136 317-303 317z m115-886h-230v32h115c13 0 24 11 24 24s-11 24-24 24h-115v32h230l0-112c0 0 0 0 0 0z m-149 452l-32 69h132l-32-69c-1-3-2-6-2-9l-19-283h-26l-19 283c0 3-1 6-2 9z m218-95c-43-61-67-129-68-197h-55l19 275 46 100c4 7 3 16-1 23-5 7-12 11-21 11h-208c-9 0-16-4-21-11-4-7-5-16-1-23l46-100 19-275h-54c-2 68-26 136-69 197-44 62-71 142-71 212 0 148 114 269 255 269s255-121 255-269c0-70-26-150-71-212z" horiz-adv-x="1000" />

<glyph glyph-name="headphones" unicode="&#xe83e;" d="M999 100c-2 33-14 66-32 94v173c0 21-14 40-34 47v104c18 15 23 40 12 60-126 246-428 343-674 217-93-48-168-124-216-217-11-20-6-45 12-60v-104c-20-7-34-26-34-47v-173c-61-92-36-216 56-277 28-19 61-30 94-33v-1c0-18 15-33 34-33h33c37 0 67 30 67 67v333c0 37-30 67-67 67h-33c-19 0-34-15-34-34v0c-17-2-33-6-50-11v95c0 21-13 40-33 47v91c19 1 36 11 44 28 10 18 21 36 33 52 82 63 200 98 323 98 123 0 241-35 323-98 13-16 23-34 33-52 9-17 25-27 44-28v-91c-20-7-33-26-33-47v-95c-16 5-33 9-50 11v0c0 19-15 34-34 34h-33c-37 0-67-30-67-67v-333c0-37 30-67 67-67h33c19 0 34 15 34 33v1c110 9 191 106 182 216z m-782 183h33c18 0 33-15 33-33v-333c0-19-15-34-33-34h-33v400z m566-400h-33c-18 0-33 15-33 34v333c0 18 15 33 33 33h33v-400z m-600 366v-332c-91 10-158 91-149 183 3 26 12 52 26 74 3 2 5 5 6 8 28 38 70 62 117 67z m-83 8c-12-7-23-16-33-25v135c0 9 7 16 16 16 5 0 9-1 12-5 3-3 5-7 5-11v-109c0 0 0-1 0-1z m400 460c-81 0-162-15-237-45 141 105 334 105 474 0-75 30-156 45-237 45z m386-169c-47 90-124 161-217 201-163 69-351 32-475-93-32-32-59-68-79-108-5-8-15-12-23-7-4 1-7 5-8 9-2 4-1 9 1 13 118 229 399 320 628 202 87-45 158-115 202-202 3-4 3-9 1-13-1-5-5-8-9-10-8-4-18 0-21 8z m14-181c0 9 8 16 17 16 4 0 9-1 12-5 3-3 4-7 4-11v-135c-10 9-21 17-33 24v111z m66-300c-8-79-70-142-149-150v332c91-9 158-91 149-182z" horiz-adv-x="1000" />

<glyph glyph-name="headphone" unicode="&#xe83f;" d="M1000 432v0c-5 109-57 213-150 291-46 40-99 71-159 93-61 22-125 33-191 33-265 0-490-190-500-417h0v-15-15-41l31-128 68-278c1-1 1-2 1-4 12-41 50-68 92-68 2 0 4 0 6 0l2-6c2-9 7-16 15-21 6-4 12-5 18-5 3 0 6 0 8 1l135 31c20 5 36 17 47 33 10 17 13 37 9 57l-73 308c-9 40-49 65-89 55l-140-32-18 79v25c23 9 40 30 44 57 24 154 159 254 344 254 190 0 322-97 344-254 4-26 21-47 44-57v-25l-18-79-140 32c-40 10-80-15-89-55l-73-308c-4-20-1-40 10-57 10-16 26-28 46-33l135-31c2-1 5-1 8-1 6 0 12 1 18 5 8 5 13 12 15 21l2 6c2 0 4 0 7 0 13 0 26 3 38 8 2 1 4 2 7 4 1 0 2 1 3 2 21 12 38 33 44 58l99 406v41 15 14h0z m-970-67v37h52v-23l19-82 9-38-52-8-28 114z m247-58c11 3 23 1 33-5 11-6 18-16 20-28l73-308c3-12 1-24-6-34-6-10-16-17-27-20l-135-31c-2-1-3 0-4 0-1 1-2 1-2 3l-1 5h0l-84 357-7 29 140 32z m-160-77l74-317c-29 0-56 20-63 49l-63 260 52 8z m757 240c-25 172-168 278-374 278-97 0-184-26-250-75-68-50-111-121-123-204-4-22-22-37-44-37h-53c10 211 221 388 470 388s461-177 470-388h-52c-22 0-41 16-44 38z m-101-581l-2-5c0-2-1-2-2-3 0 0-2-1-4 0l-134 31c-12 3-22 10-28 20-6 10-8 22-6 34l73 308c2 12 10 22 20 28 7 4 15 7 23 7 3 0 7-1 10-1l140-33-47-202-43-184z m99 73c-1-1-1-3-2-5 0 0 0 0 0 0-9-27-34-44-61-44l60 259 14 58 52-8-63-260z m98 403l-28-114-52 8 9 38 19 82v23h52v-37z" horiz-adv-x="1000" />

<glyph glyph-name="hdmi" unicode="&#xe840;" d="M995-75l-65 65 23 23c7 7 7 17 0 24l-51 51 47 46c5 6 6 14 2 21l-70 116c0 1-1 3-2 3l-222 222c-13 13-33 13-46 0l-12-12-93 93c-13 13-34 13-47 0l-186-186c-13-13-13-34 0-47l93-93-12-11c-13-13-13-34 0-47l222-222c1-1 2-1 3-2l116-70c7-4 15-3 21 2l46 47 51-51c7-7 17-7 24 0l23 23 65-65c7-7 17-7 24 0l46 46c7 7 7 17 0 24z m-698 443l186 186 92-93-186-186-92 93z m404-434l-103 62-220 220 23 23c0 0 0 0 0 0l210 210c0 0 0 0 0 0l23 23 220-220 62-103-215-215z m124-2l-39 39 93 93 39-39-23-23c0 0 0 0 0 0l-42-42-28-28z m112-42l-53 53 23 23 53-53-23-23z m-280 513c-6 6-17 6-23 0l-186-187c-7-6-7-17 0-23 6-7 17-7 23 0l186 186c7 7 7 17 0 24z m47-47c-6 7-17 7-24 0l-186-186c-6-7-6-17 0-24s17-6 24 0l186 186c7 7 7 18 0 24z m47-47c-7 7-17 7-24 0l-186-186c-7-6-7-17 0-23 6-7 17-7 23 0l187 186c6 6 6 17 0 23z m46-46c-6 6-17 6-23 0l-187-186c-6-7-6-18 0-24s17-7 24 0l186 186c7 7 7 17 0 24z m23-47l-186-186c-7-7-7-17 0-24s17-6 23 0l187 187c6 6 6 17 0 23-7 7-17 7-24 0z m-349 466l-140 140c-13 13-34 13-47 0l-58-58-47 48c-7 6-18 6-24 0l-23-24-57 57c-6 7-17 7-23 0l-47-46c-7-7-7-17 0-24l57-57-24-23c-6-6-6-17 0-23l48-48-58-58c-13-13-13-34 0-47l140-140c13-13 34-13 47 0l256 256c13 13 13 34 0 47z m-431 105l23 23 45-45-23-23-45 45z m57-81c0 1 0 1 0 1l47 46c0 0 0 0 0 0l23 23 36-36-93-93-36 36 23 23z m94-303l-139 139 256 256 139-139c0 0-256-256-256-256z m70 302l-116-116c-7-7-7-17 0-24 6-6 17-6 23 0l117 117c6 6 6 17 0 23-7 7-17 7-24 0z" horiz-adv-x="1000" />

<glyph glyph-name="hdmi-1" unicode="&#xe841;" d="M83 317h167c9 0 17 7 17 16 0 10-8 17-17 17h-167c-9 0-16-7-16-17 0-9 7-16 16-16z m0 66h167c9 0 17 8 17 17s-8 17-17 17h-167c-9 0-16-8-16-17s7-17 16-17z m167-133c9 0 17 8 17 17s-8 16-17 16h-167c-9 0-16-7-16-16s7-17 16-17h167z m717 333v250c0 10-8 17-17 17h-333c-9 0-17-7-17-17v-250c-18 0-33-15-33-33v-333c0-19 15-34 33-34h100v-33c-9 0-17-7-17-17 0-9 8-16 17-16v-34c0-18 15-33 33-33 0-55-45-100-100-100h-316c-55 0-100 45-100 100 18 0 33 15 33 33v34c9 0 17 7 17 16 0 10-8 17-17 17v33h67c9 0 16 8 16 17v400c0 9-7 17-16 17h-17v116c0 10-7 17-17 17v83c0 10-7 17-16 17h-200c-9 0-17-7-17-17v-83c-9 0-17-7-17-17v-116h-16c-9 0-17-8-17-17v-400c0-9 8-17 17-17h66v-33c-9 0-16-7-16-17 0-9 7-16 16-16v-34c0-18 15-33 34-33 0-110 89-200 200-200h316c111 0 200 90 200 200 19 0 34 15 34 33v34c9 0 16 7 16 16 0 10-7 17-16 17v33h100c18 0 33 15 33 34v333c0 18-15 33-33 33z m-334 234h300v-234h-300v234z m-550 0h167v-67h-167v67z m-16-100h200v-100h-200v100z m-34-134h17 233 17v-366h-67c0 0 0 0 0 0h-133c0 0 0 0 0 0h-67v366z m84-400h100v-33h-100v33z m100-66v-34h-17-67-16v34h100z m416-234h-316c-92 0-167 75-167 167h33c0-74 60-133 134-133h316c74 0 134 59 134 133h33c0-92-75-167-167-167z m200 200h-16-67-17v34h100v-34z m0 67h-100v33h100v-33z m134 67h-117-133-117v333h17c0 0 0 0 0 0h333c0 0 0 0 0 0h17v-333z m-217 533h-67c-9 0-16-7-16-17v-66c0-9 7-17 16-17h67c9 0 17 8 17 17v66c0 10-8 17-17 17z m-17-67h-33v34h33v-34z m150 67h-66c-9 0-17-7-17-17v-66c0-9 8-17 17-17h66c10 0 17 8 17 17v66c0 10-7 17-17 17z m-16-67h-34v34h34v-34z" horiz-adv-x="1000" />

<glyph glyph-name="flashlight" unicode="&#xe842;" d="M992 748c-5 3-11 3-16 0l-155-77 77 155c3 5 3 11 0 16-3 5-9 8-15 8h-766c-6 0-11-3-14-8-3-5-4-11-1-16l77-155-155 77c-5 3-11 3-16 0-5-3-8-9-8-15v-766c0-6 3-12 8-15 3-1 6-2 9-2 2 0 5 1 7 2l155 77-77-155c-3-5-2-11 1-16 3-5 8-8 14-8h766c6 0 12 3 15 8 3 5 3 11 0 16l-77 155 155-77c2-1 5-2 7-2 3 0 6 1 9 2 5 3 8 9 8 15v766c0 6-3 12-8 15z m-225-665h-130c54 28 98 71 127 124 1 1 1 2 2 4 0 0 0 1 1 2v-130z m-534 130c1-2 2-4 4-6 0-1 0-2 1-2 28-52 72-94 125-122h-130v130z m0 404h130c-56-29-101-74-130-130v130z m210-6l80-111h-80c0 0 0 0 0 0h-163c37 55 95 96 163 111z m104-144l85-116-84-118h-95l-84 117 83 117h95z m-70-267h80c0 0 0 0 0 0h163c-38-56-96-96-164-111l-79 111z m263 33h-151l157 221c13-32 21-67 21-104 0-42-10-81-27-117z m-88 147l-172 236c7 0 13 1 20 1 97 0 182-52 229-130l-77-107z m-392 87h151l-157-221c-13 32-21 67-21 104 0 42 10 81 27 117z m11-254l78 108 82-114c0 0 0 0 0 0l88-123c-7 0-13-1-19-1-97 0-182 52-229 130z m493 280c0 0 0 0 0 0 0 0 0 1-1 1 0 0 0 0 0 0 0 1-1 1-1 2-29 52-72 94-125 121h130v-130c-1 2-2 4-3 6z m92 324l-83-167h-546l-83 167h712z m-823-111l167-83v-546l-167-83v712z m111-823l83 167h546l83-167h-712z m823 111l-167 83v546l167 83v-712z m-511 389c4 0 8 2 11 5 9 8 21 12 33 12 9 0 17 7 17 17s-8 16-17 16c-20 0-40-7-55-20-7-7-8-17-2-24 4-4 8-6 13-6z m-23-50c10 0 17 8 17 17s-7 17-17 17c-9 0-16-8-16-17s7-17 16-17z" horiz-adv-x="1000" />

<glyph glyph-name="fireworks" unicode="&#xe843;" d="M505 850c-9 0-16-7-16-16l-4-301c0-9 8-17 17-17 0 0 0 0 0 0 9 0 17 8 17 17l3 300c0 9-7 17-17 17z m-7-666c-9 0-16-7-17-17l-3-300c0-9 7-17 17-17 0 0 0 0 0 0 9 0 16 7 16 16l4 301c0 9-8 17-17 17z m359 516c-6 6-17 6-23 0l-215-210c-6-7-7-17 0-24 3-3 7-5 12-5 4 0 8 2 11 5l215 210c7 7 7 17 0 24z m-476-466c-6 6-17 6-23 0l-215-210c-7-7-7-17 0-24 3-3 7-5 12-5 4 0 8 2 11 5l215 210c7 7 7 17 0 24z m603 127l-301 4c0 0 0 0 0 0-9 0-17-8-17-17 0-9 7-16 17-17l300-3c0 0 0 0 0 0 10 0 17 8 17 17 0 9-7 16-16 16z m-667 8l-300 3c0 0 0 0 0 0-9 0-17-7-17-17 0-9 7-16 16-16l301-4c0 0 0 0 0 0 9 0 17 8 17 17 0 9-7 17-17 17z m533-353l-210 215c-7 7-17 7-24 0-6-6-6-17 0-23l210-215c4-4 8-5 12-5 4 0 9 1 12 5 6 6 6 17 0 23z m-466 476l-210 215c-7 7-17 7-24 0-6-6-6-17 0-23l210-215c4-3 8-5 12-5 4 0 9 2 12 5 6 6 6 17 0 23z m33 109l-33 82c-3 9-13 13-21 9-9-3-13-13-10-21l33-82c3-7 9-11 16-11 2 0 4 0 6 1 9 4 13 13 9 22z m230-572l-33 83c-4 8-13 12-22 9-8-4-12-13-9-22l33-82c3-7 9-11 15-11 2 0 5 1 7 2 8 3 12 13 9 21z m-2 660c-9 4-18 0-22-8l-35-82c-3-8 1-18 9-22 2-1 4-1 7-1 6 0 12 4 15 10l35 82c3 8-1 18-9 21z m-242-566c-8 3-18 0-22-9l-35-81c-3-9 1-19 9-22 2-1 5-2 7-2 6 0 12 4 15 10l35 82c3 8-1 18-9 22z m441 365c-3 9-13 13-21 9l-84-33c-9-4-13-13-10-22 3-6 9-10 16-10 2 0 4 0 6 1l84 34c8 3 13 13 9 21z m-573-230c-4 8-13 13-22 9l-82-33c-9-3-13-13-9-21 2-7 8-11 15-11 2 0 4 1 6 1l83 33c8 4 12 13 9 22z m560-31l-82 35c-8 3-18 0-22-9-3-8 1-18 9-22l82-35c2-1 4-1 6-1 7 0 13 4 15 10 4 9 0 18-8 22z m-567 242l-81 35c-9 3-19-1-22-9s0-18 8-22l82-35c2-1 4-1 7-1 6 0 12 4 15 10 3 8 0 18-9 22z m314-119l35 48c4 5 4 12 1 18-4 5-10 9-17 8l-58-7-24 54c-2 6-8 10-15 10-7 0-12-4-15-10l-24-54-58 7c-7 1-13-3-17-8-3-6-2-13 1-18l35-48-35-47c-3-6-4-13-1-19 4-5 10-8 17-8l58 7 24-54c3-6 8-10 15-10s13 4 15 10l24 54 58-7c7 0 13 3 17 8 3 6 3 13-1 19l-35 47z m-34-10l20-27-34 4c-7 1-14-3-17-10l-13-30-13 30c-3 6-9 10-16 10 0 0-1 0-1 0l-33-4 19 27c4 6 4 14 0 20l-19 27 33-4c7-1 14 3 17 10l13 30 13-30c3-7 10-11 17-10l34 4-20-27c-4-6-4-14 0-20z" horiz-adv-x="1000" />

<glyph glyph-name="favorites" unicode="&#xe844;" d="M922 456c18 18 25 44 17 68-8 24-28 41-53 45l-219 31c-4 1-8 4-10 8l-98 198c-11 23-34 37-59 37-25 0-48-14-59-37l-98-198c-2-4-6-7-10-8l-219-31c-25-4-45-21-53-45-8-24-1-50 17-68l158-154c3-3 5-8 4-12l-37-218c-5-25 5-49 26-64 20-15 47-17 69-5l196 103c4 2 8 2 12 0l196-103c10-6 20-8 31-8 13 0 27 4 38 13 21 15 31 39 27 64l-38 218c-1 4 1 9 4 12l158 154z m-214-175l38-218c1-7-4-11-6-13-2-1-7-4-14-1l-195 103c-10 5-20 8-31 8-10 0-21-3-31-8l-195-103c-7-3-12 0-14 1-2 2-7 6-5 13l37 218c4 22-4 43-19 59l-158 154c-6 5-4 11-4 13 1 3 4 8 11 9l219 32c21 3 40 17 49 36l98 198c4 7 10 8 12 8 3 0 9-1 12-8v0l98-198c9-19 28-33 49-36l219-32c8-1 10-6 11-9 1-2 2-8-3-13l-159-154c-15-16-22-37-19-59z m100 525c-12 8-28 6-37-6l-28-39c-8-11-6-28 6-36 5-4 10-5 16-5 8 0 16 3 21 10l28 39c9 12 6 28-6 37z m-551-44l-28 38c-9 12-25 15-37 6-12-9-15-25-6-37l28-38c5-7 13-11 21-11 6 0 11 1 16 5 12 8 14 25 6 37z m-160-511c-5 14-20 21-33 17l-46-15c-14-5-21-19-17-33 4-11 14-18 25-18 3 0 6 0 9 1l45 15c14 4 21 19 17 33z m403-293c-15 0-26-12-26-27v-47c0-15 11-27 26-27 15 0 26 12 26 27v47c0 15-11 27-26 27z m482 295l-45 15c-14 4-29-3-34-17-4-14 3-29 17-34l46-14c2-1 5-2 8-2 11 0 21 8 25 19 4 14-3 28-17 33z" horiz-adv-x="1000" />

<glyph glyph-name="editer" unicode="&#xe845;" d="M784 484c8 0 15 7 15 15v94c0 8-7 15-15 15h-658c-8 0-15-7-15-15v-379c0-8 7-14 15-14h658c8 0 15 6 15 14v200c0 8-7 14-15 14-8 0-14-6-14-14v-185h-629v350h629v-80c0-8 6-15 14-15z m201-304h-131v419c0 32-26 58-58 58h-734c-34 0-62-28-62-62v-430-37c0-47 38-85 85-85h830c47 0 85 38 85 85v37c0 9-7 15-15 15z m-896 447h707c15 0 28-12 28-28v-419h-86-204-211c0 0-1 0-2 0 0 0 0 0 0 0 0 0-1 0-2 0h-230v447z m627-476l-8-18h-145l-7 18h160z m-687 444c0 17 14 31 31 32v-447h-31v415z m942-467c0-30-25-55-56-55h-830c-31 0-56 25-56 55v23h278l0-52c0-8 6-15 14-15 0 0 0 0 0 0 8 0 15 7 15 15l0 52h188l16-38c3-6 8-9 14-9h164c6 0 11 3 13 9l17 38h91 132v-23z m-659 436c-8 0-15-7-15-15v-291c0-8 7-14 15-14 8 0 15 6 15 14v291c0 8-7 15-15 15z m-112-56h-1v25c0 8-6 14-14 14s-15-6-15-14v-25h-3c-8 0-15-6-15-14 0-8 7-15 15-15h3v-2c0-8 7-15 15-15s14 7 14 15v2h1c8 0 15 7 15 15 0 8-7 14-15 14z m71 22h-1v3c0 8-7 14-15 14s-15-6-15-14v-3h-3c-8 0-14-7-14-15 0-8 6-15 14-15h3v-23c0-8 7-15 15-15s15 7 15 15v23h1c8 0 14 7 14 15 0 8-6 15-14 15z m-35-136v8c0 8-6 14-14 14s-15-6-15-14v-7c-19-6-33-24-33-45 0-26 21-47 47-47 26 0 47 21 47 47 0 20-13 38-32 44z m-15-62c-10 0-18 8-18 18 0 6 3 11 8 15 3-3 6-5 11-5 4 0 7 1 10 4 4-3 6-8 6-14 0-10-8-18-17-18z m495 84l-109 1v32c0 23-18 42-42 42-23 0-42-19-42-42v-31l-25 0v58c0 23-19 42-42 42s-42-19-42-42v-58l-36 0c0 0 0 0 0 0-8 0-15-6-15-14 0-8 7-15 15-15l91 0v-59c0-24 19-42 42-42s42 18 42 42v58l25 0v-49c0-23 19-42 42-42 23 0 42 19 42 42v48h54c8 0 14 7 15 15 0 8-7 14-15 14z m-247 2l-26 0v58c0 7 6 13 13 13s13-6 13-13v-58z m54-88c0-7-5-13-12-13-7 0-13 6-13 13v58l25 0v-58z m55 87l-25 0v32c0 7 5 12 12 12 7 0 13-5 13-12v-32z m55-78c0-7-6-12-13-12-7 0-13 5-13 12v49l26 0v-49z m-501-212h-29c-9 0-15-6-15-14 0-8 6-15 15-15h29c8 0 15 7 15 15 0 8-7 14-15 14z m76 0h-29c-8 0-15-6-15-14 0-8 7-15 15-15h29c8 0 15 7 15 15 0 8-7 14-15 14z" horiz-adv-x="1000" />

<glyph glyph-name="double-plug" unicode="&#xe846;" d="M609-31h-320c-6 0-11 4-11 10v19h-172c-1-3-3-6-6-8-3-2-7-2-10 0l-69 40c-3 1-5 5-5 9s2 7 5 9l69 40c3 2 7 2 10 0 3-2 5-5 6-8h172v18c0 6 5 11 11 11h320c6 0 11-5 11-11v-48h249c60 0 109 49 109 109s-49 110-109 110h-668c-111 0-201 90-201 201s90 202 201 202h189v49c0 6 5 10 11 10h320c6 0 11-4 11-10v-19h172c0 3 2 6 6 8 3 2 7 2 10 0l69-39c3-2 5-6 5-10s-2-7-5-9l-69-40c-3-2-7-2-10 0-4 2-6 5-6 9h-172v-19c0-6-5-11-11-11h-320c-6 0-11 5-11 11v48h-189c-99 0-179-80-179-180 0-99 80-179 179-179h668c72 0 131-59 131-132s-59-131-131-131h-249v-49c0-6-5-10-11-10z m-309 21h298v98h-298v-98z m-252 49l36-21v42l-36-21z m207-19h23v38h-23v-38z m-106 0h85v38h-85v-38z m-43 0h22v38h-22v-38z m306 593h298v97h-298v-47c0-1 0-1 0-2s0-1 0-2v-46z m514 69v-42l36 21-36 21z m-44-40h22v38h-22v-38z m-106 0h84v38h-84v-38z m-44 0h22v38h-22v-38z" horiz-adv-x="1000" />

<glyph glyph-name="discount" unicode="&#xe847;" d="M916 850h-267c-51 0-90-16-128-55-7-6-7-17 0-23 6-7 17-7 23 0 33 32 62 45 105 45h267c28 0 50-23 50-50v-267c0-43-13-72-45-105l-495-496c-19-19-52-19-71 0l-306 307c-10 9-15 22-15 35 0 13 5 26 15 35l447 447c7-1 14-3 21-5 68-18 121-37 161-54-8-14-12-31-12-47 0-56 45-100 100-100s100 44 100 100c0 55-45 100-100 100-9 0-17-8-17-17s8-17 17-17c37 0 67-30 67-66 0-37-30-67-67-67s-67 30-67 67c0 12 4 23 10 34 29-14 47-26 54-33-3-1-8-2-15-3-9-1-16-9-15-18 1-9 8-15 16-15 1 0 1 0 2 0 10 1 41 4 47 26 17 61-224 129-272 142-74 20-145 34-201 38-67 6-100-1-106-25-3-11-11-40 124-94 8-3 18 1 21 10 4 8 0 18-9 21-65 26-92 45-101 54 21 6 91 4 204-22l-433-432c-16-16-24-37-24-59 0-22 8-43 24-59l307-306c15-16 36-25 58-25 23 0 44 9 59 25l496 495c38 39 54 77 54 129v267c0 46-37 83-83 83z m-50-610c-8 5-18 2-23-6l-191-326c-14-24-45-32-68-18l-37 24c-8 5-18 2-23-5-5-8-3-18 5-23l38-25c13-7 27-11 41-11 29 0 57 15 73 42l191 325c4 8 2 19-6 23z m-467 127v-234c0-9 8-17 17-17s17 8 17 17v234c0 9-8 16-17 16s-17-7-17-16z m100-50c0-19 15-34 34-34s33 15 33 34c0 18-15 33-33 33s-34-15-34-33z m-233-100c0-19 15-34 33-34 19 0 34 15 34 34s-15 33-34 33c-18 0-33-15-33-33z" horiz-adv-x="1000" />

<glyph glyph-name="commission" unicode="&#xe848;" d="M857 206c-12 10-27 14-42 12l-310-54-88 88c-3 3-7 4-11 4h-156c0 9-7 16-16 16h-62-109v-31h93v-219h-93v-31h109 62c9 0 16 7 16 15h43l167-83c8-4 15-6 23-6 9 0 18 3 26 7l341 199c15 9 25 26 25 44 0 15-7 30-18 39z m-638-184h-31v219h31v-219z m615 128l-341-199c-6-3-13-3-19 0l-170 85c-2 1-5 2-7 2h-47v187h150l123-123c5-5 8-13 8-20 0-16-13-29-28-29-8 0-15 3-20 9l-81 80-22-22 80-81c12-11 27-17 43-17 33 0 60 27 60 60 0 16-7 31-18 42l-13 13 289 50c5 1 11-1 16-5 4-3 7-9 7-15 0-7-4-13-10-17z m-365 380c26 0 47 21 47 47s-21 46-47 46-47-21-47-46 21-47 47-47z m0 62c8 0 15-7 15-15s-7-16-15-16-16 7-16 16 7 15 16 15z m78-109c0-26 21-47 47-47s47 21 47 47-21 47-47 47-47-21-47-47z m62 0c0-9-7-16-15-16s-16 7-16 16 7 15 16 15 15-7 15-15z m-89-284c3-3 7-5 11-5s9 2 12 5l247 261c71 75 71 196 0 271-34 36-80 57-129 57-49 0-95-20-130-56-34 36-80 56-129 56-49 0-95-21-130-57-71-75-71-196 0-271l248-261z m-225 510c29 31 67 47 107 47 40 0 79-16 107-47l11-11c6-6 17-6 23 0l10 11c29 31 67 47 108 47 40 0 78-16 107-47 59-62 59-165 0-228l-237-249-236 249c-60 63-60 166 0 228z" horiz-adv-x="1000" />

<glyph glyph-name="bubbles" unicode="&#xe849;" d="M308 486c-170 0-308-138-308-308s138-307 308-307 307 138 307 307-138 308-307 308z m0-574c-147 0-267 120-267 266 0 147 120 266 267 266s266-119 266-266c0-146-120-266-266-266z m0 459c-12 0-21-9-21-21s9-20 21-20c83 0 151-68 151-152 0-11 9-20 21-20s20 9 20 20c0 107-86 193-192 193z m513 287c-98 0-178-80-178-179 0-98 80-178 178-178s179 80 179 178c0 99-80 179-179 179z m0-316c-75 0-137 62-137 137s62 137 137 137 138-61 138-137-62-137-138-137z m11 73c-41 0-74 33-74 74 0 12-10 21-21 21s-21-9-21-21c0-63 52-115 116-115 11 0 20 9 20 21s-9 20-20 20z m-492 169c67 0 122 55 122 123s-55 122-122 122-123-55-123-122 55-123 123-123z m0 204c45 0 81-36 81-81s-36-82-81-82-82 37-82 82 37 81 82 81z" horiz-adv-x="1000" />

<glyph glyph-name="broken-cable" unicode="&#xe84a;" d="M583 300c-9 0-16-7-16-17 0-33-7-54-22-74-2-3-12-17-15-20-5-8-9-15-11-22h-4c-1 17 1 30 4 48 0-1 2 8 3 10 0 4 1 8 1 11 3 18 1 34-8 54-3 8-13 12-22 9-8-4-12-14-8-22 6-14 7-24 5-36 0-3 0-6-1-9-1-3-2-11-2-11-4-19-6-35-5-54h-7c-6 9-8 19-9 30 0 4 0 7 1 15 1 34-2 53-20 80-4 8-15 10-23 5s-10-15-5-23c13-20 16-33 14-61 0-8 0-12 0-16 0-20 5-36 17-52v-95c0-55-45-100-100-100h-50c-55 0-100 45-100 100v34c19 0 34 15 34 33v67h49c10 0 17 7 17 16v284c0 9-7 16-17 16h-16v83c0 10-8 17-17 17h-16v133c0 10-8 17-17 17h-17v50c0 28-22 50-50 50-27 0-50-22-50-50v-50h-16c-10 0-17-7-17-17v-133h-17c-9 0-16-7-16-17v-83h-17c-9 0-17-7-17-16v-284c0-9 8-16 17-16h50v-67c0-18 15-33 33-33v-34c0-110 90-200 200-200h50c110 0 200 90 200 200v100c0 7 2 12 7 20 2 3 12 16 15 19 19 26 28 53 28 94 0 10-7 17-17 17z m-449 500c0 9 7 17 16 17 9 0 17-8 17-17v-50h-33v50z m-34-83h100v-117h-100v117z m-33-150h17 133 17v-67h-167v67z m-33-100h16 200 17v-250h-50c0 0 0 0 0 0h-133c0 0 0 0-1 0h-49v250z m166-283v-67h-100v67h100z m317-134c0-92-75-167-167-167h-50c-92 0-166 75-166 167v34h33v-34c0-74 60-133 133-133h50c74 0 133 59 133 133v83h34v-83z m283 800h-133c-111 0-200-90-200-200v-150c0 0 0 0 0 0s0 0 0 0c0-7-2-12-8-19-2-3-12-17-14-20-19-26-28-53-28-94 0-9 7-17 16-17s17 8 17 17c0 34 7 54 22 75 2 2 12 16 15 20 5 7 9 14 11 21h4c1-16-1-30-5-47 0 0-1-9-2-11-1-4-1-7-2-11-2-18 0-34 8-54 4-8 14-12 22-9s13 14 9 22c-6 14-7 24-6 37 1 2 1 5 2 9 0 2 2 10 2 10 4 19 6 35 5 54h7c6-9 8-18 8-30 0-4 0-7 0-15-1-34 2-53 19-80 5-8 16-10 23-5 8 5 10 15 5 23-13 20-15 33-14 61 1 8 1 12 1 17-1 19-5 35-17 52v144c0 55 45 100 100 100h133c55 0 100-45 100-100v-783c0-10 7-17 17-17h66c9 0 17 7 17 17v783c0 110-90 200-200 200z m167-967h-34v767c0 73-60 133-133 133h-133c-74 0-134-60-134-133v-133h-33v133c0 92 75 166 167 166h133c92 0 167-74 167-166v-767z" horiz-adv-x="1000" />

<glyph glyph-name="audio-system" unicode="&#xe84b;" d="M702 616h-396c-32 0-59-26-59-59v-337c0-33 27-59 59-59h138v-38h-34c-10 0-19-9-19-19s9-20 19-20h34 121 33c11 0 20 9 20 20s-9 19-20 19h-33v38h137c33 0 59 26 59 59v337c0 33-26 59-59 59z m-176-493h-43v38h43v-38z m196 97c0-11-9-20-20-20h-137-121-138c-11 0-19 9-19 20v337c0 11 8 20 19 20h396c11 0 20-9 20-20v-337z m238 389h-117c-22 0-40-18-40-40v-317c0-22 18-40 40-40h44v-94h-49c-8 0-15-7-15-14s7-15 15-15h127c8 0 15 7 15 15s-7 14-15 14h-49v94h44c22 0 40 18 40 40v317c0 22-18 40-40 40z m11-357c0-6-5-12-11-12h-117c-6 0-11 6-11 12v317c0 6 5 11 11 11h117c6 0 11-5 11-11v-317z m-69 185c24 0 45 20 45 45 0 24-21 45-45 45-25 0-45-21-45-45 0-25 20-45 45-45z m0 61c9 0 16-7 16-16 0-9-7-17-16-17-9 0-17 8-17 17 0 9 8 16 17 16z m0-92c-33 0-60-27-60-60s27-59 60-59c32 0 59 26 59 59s-27 60-59 60z m0-91c-17 0-31 14-31 31s14 31 31 31c17 0 30-14 30-31s-13-31-30-31z m-745 294h-117c-22 0-40-18-40-40v-317c0-22 18-40 40-40h44v-94h-49c-8 0-15-7-15-14s7-15 15-15h127c8 0 15 7 15 15s-7 14-15 14h-49v94h44c22 0 40 18 40 40v317c0 22-18 40-40 40z m11-357c0-6-5-12-11-12h-117c-6 0-11 6-11 12v317c0 6 5 11 11 11h117c6 0 11-5 11-11v-317z m-69 185c24 0 45 20 45 45 0 24-21 45-45 45-25 0-45-21-45-45 0-25 20-45 45-45z m0 61c9 0 16-7 16-16 0-9-7-17-16-17-9 0-17 8-17 17 0 9 8 16 17 16z m0-92c-33 0-60-27-60-60s27-59 60-59c32 0 59 26 59 59s-27 60-59 60z m0-91c-17 0-31 14-31 31s14 31 31 31c17 0 30-14 30-31s-13-31-30-31z" horiz-adv-x="1000" />

<glyph glyph-name="agreement" unicode="&#xe84d;" d="M842 850h-684c-11 0-20-9-20-20v-960c0-11 9-20 20-20h520c6 0 11 2 14 6l164 164c4 4 6 9 6 14v796c0 11-9 20-20 20z m-144-932l0 96 96 0-96-96z m124 136l-144 0c0 0 0 0 0 0-5 0-10-2-14-6-4-3-6-9-6-14l0-144h-480v920h644v-756z m-480 77c-50 0-91-40-91-90 0-51 41-91 91-91 50 0 91 40 91 91 0 50-41 90-91 90z m0-142c-28 0-51 23-51 51 0 29 23 52 51 52s51-23 51-52-23-51-51-51z m260 68h-110c-11 0-20-9-20-20s9-20 20-20h110c11 0 20 9 20 20s-9 20-20 20z m-267 674h-58c-11 0-20-9-20-20 0-11 9-20 20-20h58c11 0 20 9 20 20 0 11-9 20-20 20z m396 0h-173c-11 0-20-9-20-20 0-11 9-20 20-20h173c11 0 20 9 20 20 0 11-9 20-20 20z m0-86h-295c-11 0-20-9-20-20 0-11 9-20 20-20h295c11 0 20 9 20 20 0 11-9 20-20 20z m1-157h-464c-11 0-20-9-20-20s9-20 20-20h464c11 0 20 9 20 20s-9 20-20 20z m0-68h-464c-11 0-20-9-20-20 0-11 9-20 20-20h464c11 0 20 9 20 20 0 11-9 20-20 20z m0-74h-464c-11 0-20-9-20-20 0-11 9-20 20-20h464c11 0 20 9 20 20 0 11-9 20-20 20z m0-68h-11c-11 0-20-9-20-20 0-11 9-20 20-20h11c11 0 20 9 20 20 0 11-9 20-20 20z m-81 0h-383c-11 0-20-9-20-20 0-11 9-20 20-20h383c11 0 20 9 20 20 0 11-9 20-20 20z" horiz-adv-x="1000" />

<glyph glyph-name="one-accordion" unicode="&#xe84e;" d="M937-2h-172c-5 0-10 4-10 10v45l-23-23c-4-4-10-4-14 0l-33 33-33-33c-4-4-11-4-14 0l-34 33-33-33c-4-4-10-4-14 0l-33 33-33-33c-4-4-10-4-14 0l-33 33-33-33c-4-4-10-4-14 0l-24 23v-45c0-6-4-10-10-10h-305c-32 0-58 26-58 58v588c0 32 26 58 58 58h305c6 0 10-4 10-10v-49l24 23c4 4 10 4 14 0l33-33 33 33c4 4 10 4 14 0l33-33 33 33c4 4 10 4 14 0l33-33 34 33c3 4 10 4 14 0l33-33 33 33c4 4 10 4 14 0l23-23v49c0 6 5 10 10 10h172c35 0 63-28 63-63v-578c0-35-28-63-63-63z m-162 20h162c24 0 43 19 43 43v578c0 24-19 43-43 43h-162v-664z m-552 0h131v664h-131v-664z m-165 664c-21 0-38-17-38-38v-588c0-21 17-38 38-38h145v27h-143c-5 0-10 4-10 10v590c0 6 5 10 10 10h143v27h-145z m637-601l30-30 30 30v534l-30 30-30-30v-534z m-81 0l31-30 30 30v534l-30 30-31-30v-534z m-80 0l30-30 31 30v534l-31 30-30-30v-534z m-80 0l30-30 30 30v534l-30 30-30-30v-534z m-81 0l31-30 30 30v534l-30 30-31-30v-534z m-303-16h133v27h-92c-5 0-10 4-10 10v8h-31v-45z m51 46h82v17h-82v-17z m-51 19h31v8c0 5 5 10 10 10h92v20h-133v-38z m0 57h133v21h-92c-5 0-10 4-10 10v8h-31v-39z m51 40h82v17h-82v-17z m-51 19h31v8c0 5 5 10 10 10h92v20h-133v-38z m0 57h133v21h-92c-5 0-10 4-10 10v8h-31v-39z m51 40h82v17h-82v-17z m-51 19h31v8c0 5 5 10 10 10h92v20h-133v-38z m0 57h133v21h-92c-5 0-10 4-10 10v8h-31v-39z m51 40h82v17h-82v-17z m-51 19h31v8c0 5 5 10 10 10h92v20h-133v-38z m0 57h133v21h-92c-5 0-10 4-10 9v9h-31v-39z m51 40h82v17h-82v-17z m-51 19h31v8c0 5 5 10 10 10h92v23h-133v-41z m772-535c-16 0-28 13-28 28 0 16 12 29 28 29 16 0 29-13 29-29 0-15-13-28-29-28z m0 37c-5 0-9-4-9-9s4-8 9-8 9 4 9 8-4 9-9 9z m72 9c-15 0-28 13-28 29 0 15 13 28 28 28 16 0 29-13 29-28 0-16-13-29-29-29z m0 37c-5 0-9-3-9-8s4-9 9-9 9 4 9 9-4 8-9 8z m-72 4c-16 0-28 12-28 28s12 29 28 29c16 0 29-13 29-29s-13-28-29-28z m0 37c-5 0-9-4-9-9s4-9 9-9 9 4 9 9-4 9-9 9z m72 9c-15 0-28 13-28 28 0 16 13 29 28 29 16 0 29-13 29-29 0-15-13-28-29-28z m0 37c-5 0-9-4-9-9s4-8 9-8 9 4 9 8-4 9-9 9z m-72 3c-16 0-28 13-28 29 0 16 12 28 28 28 16 0 29-12 29-28 0-16-13-29-29-29z m0 38c-5 0-9-4-9-9s4-9 9-9 9 4 9 9-4 9-9 9z m72 9c-15 0-28 12-28 28 0 16 13 29 28 29 16 0 29-13 29-29 0-16-13-28-29-28z m0 37c-5 0-9-4-9-9s4-9 9-9 9 4 9 9-4 9-9 9z m-72 3c-16 0-28 13-28 29s12 28 28 28c16 0 29-13 29-28s-13-29-29-29z m0 37c-5 0-9-4-9-8s4-9 9-9 9 4 9 9-4 8-9 8z m72 9c-15 0-28 13-28 29s13 28 28 28c16 0 29-12 29-28s-13-29-29-29z m0 38c-5 0-9-4-9-9s4-9 9-9 9 4 9 9-4 9-9 9z m-72 3c-16 0-28 13-28 28s12 29 28 29c16 0 29-13 29-29s-13-28-29-28z m0 37c-5 0-9-4-9-9s4-8 9-8 9 3 9 8-4 9-9 9z m72 9c-15 0-28 13-28 29 0 15 13 28 28 28 16 0 29-13 29-28 0-16-13-29-29-29z m0 37c-5 0-9-4-9-8s4-9 9-9 9 4 9 9-4 8-9 8z m-72 3c-16 0-28 13-28 29 0 16 12 28 28 28 16 0 29-12 29-28 0-16-13-29-29-29z m0 38c-5 0-9-4-9-9s4-9 9-9 9 4 9 9-4 9-9 9z m72 9c-15 0-28 13-28 28s13 29 28 29c16 0 29-13 29-29s-13-28-29-28z m0 37c-5 0-9-4-9-9s4-8 9-8 9 3 9 8-4 9-9 9z m-72 3c-16 0-28 13-28 29 0 15 12 28 28 28 16 0 29-13 29-28 0-16-13-29-29-29z m0 37c-5 0-9-4-9-8s4-9 9-9 9 4 9 9-4 8-9 8z" horiz-adv-x="1000" />

<glyph glyph-name="tuning-fork-vibrating" unicode="&#xe84f;" d="M46-150c-11 0-22 4-30 12l-4 4c-8 8-12 19-12 30 0 11 4 21 12 29l332 332c0 0 0 0 0 0-10 19-15 40-15 62 0 38 15 73 41 99l426 426c8 8 21 8 29 0l15-15c8-8 8-21 0-29l-426-426c-15-14-23-34-23-55s8-40 23-55c15-15 34-23 55-23 21 0 41 8 55 23l426 426c4 4 9 6 15 6 5 0 10-2 14-6l15-15c4-4 6-9 6-14s-2-11-6-15l-426-426c-26-26-61-41-99-41-22 0-43 5-62 15 0 0 0 0 0 0l-332-332c-8-8-19-12-29-12z m305 385l-324-324c-4-4-7-9-7-15 0-6 3-11 7-15l4-4c8-9 22-9 30 0l324 324-34 34z m459 595l-426-426c-22-23-35-53-35-85 0-32 13-62 35-84 23-23 53-35 85-35s62 12 85 35l426 426-15 15-426-426c-19-19-44-29-70-29-26 0-51 10-69 29-19 18-29 43-29 69s10 51 29 70l425 426-15 15z m-108-620c-3 0-6 1-8 3-3 4-3 10 0 14l231 230c4 4 10 4 14 0s4-10 0-14l-230-230c-2-2-5-3-7-3z m102 4c-2 0-5 1-7 3-4 4-4 11 0 15l123 123c4 4 11 4 15 0s4-11 0-15l-124-123c-2-2-4-3-7-3z m-436 330c-3 0-5 1-7 3-4 4-4 10 0 14l230 230c4 4 10 4 14 0s4-10 0-14l-230-230c-2-2-5-3-7-3z m4 102c-2 0-5 1-7 3-4 4-4 11 0 15l123 123c4 4 11 4 15 0s4-11 0-15l-124-123c-2-2-4-3-7-3z" horiz-adv-x="1000" />

<glyph glyph-name="drum-and-two-drumsticks" unicode="&#xe850;" d="M919-150h-846c-6 0-10 4-10 10v47c0 6 4 10 10 10h14v350h-14c-6 0-10 4-10 10v47c0 5 4 10 10 10h846c6 0 10-5 10-10v-47c0-6-4-10-10-10h-14v-350h14c6 0 10-4 10-10v-47c0-6-4-10-10-10z m-836 20h826v27h-212c0 0 0 0 0 0-1 0-1 0-1 0h-399c0 0 0 0 0 0 0 0 0 0-1 0h-213v-27z m630 47h172v317l-172-317z m-400 0h367l-183 339-184-339z m-206 0h173l-173 320v-320z m6 350l184-339 183 339h-367z m400 0l184-339 183 339h-367z m384 20h12v27h-826v-27h14c0 0 0 0 0 0h399c0 0 1 0 1 0 0 0 0 0 0 0h399c0 0 1 0 1 0z m-642 112c-9 0-18 3-26 8-9 8-15 20-16 32 0 16 9 31 24 38 12 6 27 6 39-1 2-1 4-2 6-1l622 147c7 2 14 0 20-3 7-4 11-10 13-17 1-8 0-15-4-21-3-6-9-11-17-12l-621-148c-2 0-4-1-5-3-6-9-15-16-26-18-3-1-6-1-9-1z m0 63c-3 0-7-1-10-3-7-3-12-11-12-19 0-7 3-13 9-17 5-4 11-5 18-4 5 1 10 5 13 10 4 6 10 10 17 12l622 147c2 0 3 2 4 3 1 2 2 4 1 6s-1 4-3 5c-2 1-4 1-6 1h0l-621-148c-7-1-15 0-21 4-4 2-7 3-11 3z m-78 58c-7 0-13 2-19 5-11 6-19 17-22 29-3 16 4 33 17 42 12 8 26 10 39 5 2-1 5-1 7 0l589 247 0 0c6 3 14 3 21 0 6-3 12-8 14-15 3-7 3-14 1-21s-8-12-15-15l-589-247c-2-1-4-2-5-4-4-10-12-18-22-22-5-2-10-4-16-4z m0 63c-4 0-9-1-12-4-7-4-11-13-9-21 1-7 5-12 11-15 6-3 13-3 19-1 5 2 9 6 11 12 3 6 8 12 15 15l589 247c2 0 3 2 4 4 1 2 1 4 0 5-1 2-2 4-4 5-2 0-4 0-6-1l0 0-589-247c-6-3-14-3-21 0-3 1-5 1-8 1z" horiz-adv-x="1000" />

<glyph glyph-name="grand-piano-overhead-view" unicode="&#xe851;" d="M622-150c-2 0-5 1-7 3l-29 29c0 0 0 0 0 0 0 0 0 0 0 0l-31 31c0 0 0 0 0 0s0 0 0 0l-31 31c0 0 0 0 0 0s0 0 0 0l-30 31c0 0 0 0 0 0 0 0-1 0-1 0l-30 30c0 0 0 0 0 0 0 0 0 0 0 0l-61 61c0 0 0 0 0 0 0 0 0 0 0 0l-153 153c0 0 0 0 0 0s0 0 0 0l-122 123c-4 3-4 9 0 13l445 445c32 32 75 50 121 50 45 0 88-18 120-50l3-2c32-33 50-76 50-122 0-46-18-89-50-122l-3-2c-60-60-60-158 0-218l3-3c80-80 80-210 0-291l-188-187c-1-2-4-3-6-3z m-16 38l16-16 66 66-48 48-66-66 19-19 37 38c4 3 10 3 13 0 4-4 4-10 0-13l-37-38z m-62 63l17-18 66 66-48 48-66-66 18-18 37 38c4 4 9 4 13 0 4-4 4-9 0-13l-37-37z m-20 176l177-176 102 102c73 73 73 192 0 266l-3 2c-32 33-50 76-50 122s18 89 50 122l3 2c60 60 60 158 0 218l-3 2c-28 29-67 45-107 45-41 0-79-16-108-45l-360-360 116-116c0 0 0 0 0 0s0 0 0 0l183-183c0 0 0 0 0 0 0 0 0 0 0-1z m-42-115l18-18 66 66-48 48-66-66 17-17 38 37c4 4 9 4 13 0 3-3 3-9 0-13l-38-37z m-61 61l18-18 66 66-48 48-66-66 17-17 38 37c3 4 9 4 13 0 3-3 3-9 0-13l-38-37z m-61 61l18-18 66 66-49 48-65-66 17-17 38 37c3 4 9 4 13 0 3-3 3-9 0-13l-38-37z m-61 61l18-18 66 66-49 48-65-65 17-18 38 37c3 4 9 4 13 0 3-3 3-9 0-12l-38-38z m-61 61l18-17 65 65-48 49-66-66 18-18 38 38c3 3 9 3 12 0 4-4 4-10 0-13l-37-38z m-61 61l17-17 66 66-48 48-66-66 18-18 37 38c4 3 10 3 13 0 4-4 4-10 0-13l-37-38z m97-358c-18 0-34 7-47 19-26 26-26 69 0 95 26 25 68 25 94 0l0 0c26-26 26-69 0-95-12-12-29-19-47-19z m0 115c-12 0-24-5-34-14-19-19-19-50 0-69 9-9 21-14 34-14s25 5 34 14c19 19 19 50 0 69-9 9-21 14-34 14z m19 341c-3 0-5 1-7 3-3 4-3 9 0 13l326 326c21 21 50 33 80 33 30 0 58-12 80-33 44-44 44-116 0-160-4-4-10-4-13 0-4 3-4 9 0 13 18 18 27 41 27 67 0 25-9 49-27 67-18 18-42 27-67 27-25 0-49-9-67-27l-326-326c-2-2-4-3-6-3z" horiz-adv-x="1000" />

<glyph glyph-name="hevy-metal-electric-guitar" unicode="&#xe852;" d="M344-150c-1 0-1 0-1 0-4 0-7 3-9 7l-74 253-253 74c-4 2-7 5-7 9 0 4 2 8 6 9l462 173 350 350-3 2c-2 2-3 5-3 7 0 3 2 6 4 7l19 15-9 8c-3 4-3 10 0 13 4 4 10 4 14 0l10-10 28 23-9 9c-4 3-4 9 0 13s10 4 13 0l11-11 29 22-8 8c-4 4-4 10 0 14s10 3 13 0l10-10 16 13c4 3 10 3 13-1l31-31c4-3 4-9 1-13l-13-16 9-10c4-3 4-9 0-13s-9-4-13 0l-8 8-22-29 11-11c4-3 4-9 0-13s-10-4-13 0l-9 9-23-28 10-10c4-4 4-10 0-14s-9-3-13 0l-8 9-15-19c-1-2-4-3-7-4-2 0-5 1-7 3l-2 3-350-350-173-462c-1-4-5-6-8-6z m-305 345l231-68c3-1 6-4 7-7l68-231 148 397-87-87c0 0 0 0 0 0l-57-56 11-11c4-4 4-10 0-14-3-3-9-3-13 0l-18 18c0 0 0 0 0 0 0 0 0 0 0 0l-21 21c0 1 0 1 0 1 0 0 0 0-1 0l-21 21c0 0 0 0 0 0 0 0 0 0 0 0l-18 18c-3 4-3 10 0 13 4 4 10 4 14 0l11-11 143 144-397-148z m289-31l8-8 53 53-2 15-59-60z m-22 22l8-8 70 69-2 15-76-76z m98 54l2-14 462 462c3 3 10 3 13 0l2-2 82 105c0 1 0 1 0 1l13 16-20 20-16-13c0 0 0 0 0 0l-106-82 2-2c2-2 3-4 3-6s-1-5-3-7l-358-358c0 0 0 0 0 0l-81-81 2-15 498 498c3 4 9 4 13 0s4-10 0-14l-508-508z m-65-219c-3 0-5 1-7 3-4 3-4 9 0 13l0 1c4 3 10 3 14 0 4-4 4-10 0-14l-1 0c-2-2-4-3-6-3z m36 28c-2 0-5 1-6 3-4 4-4 10 0 13l0 1c4 4 10 4 14 0 3-4 3-10 0-13l-1-1c-2-2-4-3-7-3z m-43 13c-3 0-5 1-7 3-4 3-4 9 0 13l1 1c3 3 9 3 13 0 4-4 4-10 0-14l-1 0c-1-2-4-3-6-3z" horiz-adv-x="1000" />

<glyph glyph-name="inclined-cello" unicode="&#xe853;" d="M10-150c-2 0-5 1-7 3-4 4-4 10 0 15l158 157c-7 8-13 16-19 24-50 75-47 171 6 240 2 2 4 5 6 7l50 59c3 4 9 5 13 3l16-9c14-7 32-7 45 2l38 24c6 4 8 11 4 17l-8 15c-2 4-1 9 2 12l40 40c45 45 108 63 169 49l62-15 235 235c-2 13 1 26 11 36l5 5-20 19c-4 4-4 11 0 15s11 4 15 0l19-20 30 30-20 20c-4 4-4 10 0 14s11 4 15 0l19-19 1 1c16 15 41 15 56 0l28-28c15-15 15-40 0-56l-1-1 19-19c4-4 4-11 0-15s-10-4-15 0l-19 20-30-30 20-19c4-4 4-11 0-15s-11-4-15 0l-19 20-5-5 0 0c-10-10-23-13-36-11l-235-235 15-62c14-61-4-124-49-169l-40-40c-3-3-8-4-12-2l-15 8c-6 4-13 2-17-4l-24-38c-9-13-9-31-2-45l9-16c2-4 1-10-3-13l-59-50c-5-5-10-9-16-12-67-47-160-47-231 0-8 6-16 12-24 19l-157-158c-2-2-5-3-8-3z m204 486l-44-53c-2-2-4-4-6-7-48-62-50-148-5-215 14-21 31-38 52-52 63-42 147-43 207 0 5 3 10 7 15 11l53 44-5 10 0 0c-11 20-10 46 3 66l24 37c9 15 28 20 44 11l8-4 35 35c39 39 55 95 43 150l-12 49-322-322 8-8c4-4 4-10 0-14s-10-4-14 0l-16 15c0 0 0 0 0 0s0 0 0 0l-43 43c0 0 0 0 0 0 0 0 0 0 0 1l-15 15c-4 4-4 10 0 14s10 4 14 0l8-8 322 322-49 12c-55 12-111-4-150-43l-35-35 4-8c9-16 4-35-11-44l-37-24c-20-13-46-14-66-3l-10 5z m69-218l7-7 234 235-7 7-234-235z m-22 22l7-7 235 234-7 7-235-234z m271 227l5-5 87 86c0 0 0 0 0 0l234 234-6 6-320-321z m-20 20l5-5 321 320-6 6-234-234c0 0 0 0 0 0l-86-87z m347 322l14-13c8-8 19-8 27 0l11 11c0 0 0 0 1 0s0 1 0 1l44 44c0 0 0 0 0 0 0 0 0 0 0 0l8 8c7 7 7 19 0 26l-28 28c-7 7-19 7-26 0l-8-8c0 0 0 0 0 0 0 0 0 0 0 0l-44-44c-1 0-1 0-1 0s0-1 0-1l-11-11c-8-8-8-19 0-27l13-14c0 0 0 0 0 0s0 0 0 0z m-438-661c-2 0-4 0-6 1-7 1-14 6-18 13-12 20-9 45 6 63l30 33c7 9 10 20 7 31 0 2-2 2-3 3 0 0-2 0-3-1-4-4-10-4-15 0s-4 10 0 14c7 6 15 9 24 6 8-2 15-8 17-17 4-17 0-36-12-49l-29-33c-10-11-11-27-4-40 1-2 3-3 5-3 2-1 4 0 6 1l8 5c5 3 11 2 14-3 3-4 2-11-3-14l-8-5c-5-3-10-5-16-5z m-182 192c-9 0-19 2-27 7-7 4-12 11-13 18s-1 16 4 22l5 8c3 5 10 6 14 3 5-3 6-9 3-14l-5-8c-1-2-2-4-1-6 0-2 1-4 3-5 13-7 29-6 40 4l33 29c13 12 32 16 49 12 9-2 15-9 17-17 3-9 0-17-6-24-4-4-10-4-14 0s-4 11 0 15c1 1 1 3 1 3-1 1-1 2-3 3-11 3-22 0-31-7l-33-30c-10-9-23-13-36-13z" horiz-adv-x="1000" />

<glyph glyph-name="long-trumpet" unicode="&#xe854;" d="M427-92c-3 0-5 1-7 3l-47 47c0 0 0 0 0 0l-12 12c-4 4-4 9 0 13s10 4 13 0l6-5 303 303-78 77-397-397c-22-22-51-34-81-34s-60 12-81 34l-13 13c-44 44-44 115 0 159l203 203c125 125 128 199 135 346 1 30 2 64 5 101 1 4 3 7 6 8 4 2 8 1 10-2l274-274 14 14c0 0 0 0 0 0l117 117c21 21 49 33 79 33s58-12 80-33l9-10c47-46 47-122 0-169l-537-537 5-6c4-4 4-10 0-13-1-2-4-3-6-3z m-22 45l9-10 538 538c39 39 39 103 0 142l-10 10c-17 17-41 27-66 27-25 0-49-10-66-27l-282-282c0 0 0 0 0 0l-190-190c0 0 0 0 0 0s0 0 0 0l-159-159c-29-29-76-29-104 0-29 28-29 75 0 103l196 197c116 115 172 121 309 134l7 0 66 66-260 260c-1-30-3-56-4-81-6-147-10-228-140-358l-203-203c-36-37-36-96 0-133l13-13c18-18 42-28 68-28 25 0 50 10 68 28l403 404c0 0 0 0 0 0s1 0 1 0l21 21c0 0 0 0 0 0l204 205c29 28 75 28 104 0 14-14 21-33 21-52 0-20-7-38-21-52l-225-226c-1 0-1 0-1 0s0 0 0 0l-309-309 12-12z m-270 186l-47-47c-21-21-21-56 0-77 21-22 56-22 78 0l47 47-78 77z m13 14l78-78 93 93-78 77-93-92z m106 106l78-78 235 235c-125-12-176-21-283-128l-30-29z m364 112l78-77 219 219c10 10 16 24 16 39s-6 28-16 38c-22 22-56 22-78 0l-123-123 23-23c3-2 4-6 2-9-1-4-4-6-8-7-20-1-42-3-63-7l-50-50z m83 83l-11-11c7 1 13 2 20 2l-9 9z m-298 67c-1 0-2 0-2 1-5 1-9 6-7 11 14 68 14 162 14 163 0 5 4 9 9 9l0 0c5 0 10-4 10-9 0-4-1-97-15-167-1-5-5-8-9-8z" horiz-adv-x="1000" />

</font>
</defs>
</svg>
