<?xml version="1.0" encoding="utf-8"?>
<!-- Generator: Adobe Illustrator 21.0.2, SVG Export Plug-In . SVG Version: 6.00 Build 0)  -->
<svg version="1.1" id="Capa_1" xmlns="http://www.w3.org/2000/svg" xmlns:xlink="http://www.w3.org/1999/xlink" x="0px" y="0px"
	 viewBox="0 0 695 667" style="enable-background:new 0 0 695 667;" xml:space="preserve">
<path d="M644.4,253.3c0-0.1-0.1-0.2-0.1-0.2c-0.1-0.1-0.1-0.2-0.2-0.3c-0.1-0.1-0.1-0.2-0.2-0.3c-0.1-0.1-0.1-0.1-0.2-0.2
	c-0.1-0.1-0.2-0.3-0.3-0.4c0,0,0,0,0,0L412,20.6c-2.9-2.9-7.7-2.9-10.6,0L25.6,396.4c-2.9,2.9-2.9,7.7,0,10.6l231.3,231.3
	c0,0,0,0,0,0c0.1,0.1,0.2,0.2,0.4,0.3c0.1,0.1,0.1,0.1,0.2,0.2c0.1,0.1,0.2,0.2,0.3,0.2c0.1,0.1,0.2,0.2,0.3,0.2
	c0.1,0,0.2,0.1,0.2,0.1c0.1,0.1,0.3,0.2,0.4,0.2c0,0,0,0,0,0l28.9,14.5c2.9,1.4,6.4,0.9,8.7-1.4l361.4-361.4
	c2.3-2.3,2.8-5.8,1.4-8.7l-14.5-28.9c0,0,0,0,0,0C644.6,253.6,644.5,253.4,644.4,253.3z M289.6,638.3l-14.8-7.4l310.7-310.7
	c2.9-2.9,2.9-7.7,0-10.6s-7.7-2.9-10.6,0L262.1,622.4L41.5,401.7L406.7,36.5l220.7,220.7l-15,15c-2.9,2.9-2.9,7.7,0,10.6
	s7.7,2.9,10.6,0l12.9-12.9l7.4,14.8L289.6,638.3z M108.4,353l202.4,202.4c2.9,2.9,2.9,7.7,0,10.6s-7.7,2.9-10.6,0L97.8,363.6
	c-2.9-2.9-2.9-7.7,0-10.6C100.8,350.1,105.5,350.1,108.4,353z M206.2,504.8l-1.9,1.9l-23.6-23.6c-2.9-2.9-7.7-2.9-10.6,0
	c-2.9,2.9-2.9,7.7,0,10.6l23.6,23.6l-1.9,1.9c-2.9,2.9-2.9,7.7,0,10.6l28.9,28.9c2.9,2.9,7.7,2.9,10.6,0l1.9-1.9l23.6,23.6
	c2.9,2.9,7.7,2.9,10.6,0s2.9-7.7,0-10.6l-23.6-23.6l1.9-1.9c2.9-2.9,2.9-7.7,0-10.6l-28.9-28.9C213.9,501.9,209.2,501.9,206.2,504.8
	z M226,542.9l-18.3-18.3l3.8-3.8l18.3,18.3L226,542.9z M119.5,432.6c9-9,9-23.8,0-32.8s-23.8-9-32.8,0s-9,23.8,0,32.8
	S110.5,441.6,119.5,432.6z M97.3,410.4c3.2-3.2,8.4-3.2,11.6,0c3.2,3.2,3.2,8.4,0,11.6c-3.2,3.2-8.4,3.2-11.6,0
	S94.1,413.6,97.3,410.4z M123.3,459.5c0,12.8,10.4,23.2,23.2,23.2c6.2,0,12-2.4,16.4-6.8c4.4-4.4,6.8-10.2,6.8-16.4l0,0
	c0-6.2-2.4-12-6.8-16.4c-4.4-4.4-10.2-6.8-16.4-6.8C133.7,436.3,123.3,446.7,123.3,459.5z M154.7,459.5L154.7,459.5
	c0,2.2-0.9,4.2-2.4,5.8c-1.5,1.5-3.6,2.4-5.8,2.4c-4.5,0-8.2-3.7-8.2-8.2c0-2.3,0.9-4.3,2.4-5.8c1.5-1.5,3.5-2.4,5.8-2.4
	c2.2,0,4.2,0.9,5.8,2.4C153.9,455.3,154.7,457.3,154.7,459.5z M166.3,295.2l202.4,202.4c2.9,2.9,2.9,7.7,0,10.6
	c-2.9,2.9-7.7,2.9-10.6,0L155.6,305.8c-2.9-2.9-2.9-7.7,0-10.6C158.6,292.3,163.3,292.3,166.3,295.2z M278.5,461.4l-1.9,1.9
	l-38.1-38.1c-2.9-2.9-7.7-2.9-10.6,0c-2.9,2.9-2.9,7.7,0,10.6L266,474l-1.9,1.9c-2.9,2.9-2.9,7.7,0,10.6l28.9,28.9
	c2.9,2.9,7.7,2.9,10.6,0l1.9-1.9l9.2,9.2c2.9,2.9,7.7,2.9,10.6,0c2.9-2.9,2.9-7.7,0-10.6l-9.2-9.2l1.9-1.9c2.9-2.9,2.9-7.7,0-10.6
	l-28.9-28.9C286.2,458.5,281.4,458.5,278.5,461.4z M298.3,499.5L280,481.2l3.8-3.8l18.3,18.3L298.3,499.5z M177.4,374.7
	c9-9,9-23.8,0-32.8c-9-9-23.8-9-32.8,0s-9,23.8,0,32.8S168.3,383.8,177.4,374.7z M155.2,352.5c3.2-3.2,8.4-3.2,11.6,0
	s3.2,8.4,0,11.6c-3.2,3.2-8.4,3.2-11.6,0C152,360.9,152,355.7,155.2,352.5z M181.2,401.7c0,12.8,10.4,23.2,23.2,23.2
	c6.2,0,12-2.4,16.4-6.8c4.4-4.4,6.8-10.2,6.8-16.4s-2.4-12-6.8-16.4c-4.4-4.4-10.2-6.8-16.4-6.8
	C191.6,378.5,181.2,388.9,181.2,401.7z M212.6,401.7c0,2.2-0.9,4.2-2.4,5.8c-1.5,1.5-3.6,2.4-5.8,2.4l0,0c-4.5,0-8.2-3.7-8.2-8.2
	c0-2.3,0.9-4.3,2.4-5.8c1.5-1.5,3.5-2.4,5.8-2.4c2.2,0,4.2,0.9,5.8,2.4S212.6,399.5,212.6,401.7z M224.1,237.4l202.4,202.4
	c2.9,2.9,2.9,7.7,0,10.6s-7.7,2.9-10.6,0L213.5,248c-2.9-2.9-2.9-7.7,0-10.6C216.4,234.5,221.1,234.5,224.1,237.4z M300.2,367.5
	l-1.9,1.9l-1.9-1.9c-2.9-2.9-7.7-2.9-10.6,0s-2.9,7.7,0,10.6l1.9,1.9l-1.9,1.9c-2.9,2.9-2.9,7.7,0,10.6l28.9,28.9
	c2.9,2.9,7.7,2.9,10.6,0l1.9-1.9l45.3,45.3c2.9,2.9,7.7,2.9,10.6,0s2.9-7.7,0-10.6l-45.3-45.3l1.9-1.9c2.9-2.9,2.9-7.7,0-10.6
	l-28.9-28.9C307.9,364.6,303.1,364.6,300.2,367.5z M320,405.5l-18.3-18.3l3.8-3.8l18.3,18.3L320,405.5z M235.2,316.9
	c4.2-4.2,6.8-10,6.8-16.4c0-12.8-10.4-23.2-23.2-23.2c-6.2,0-12,2.4-16.4,6.8c-4.4,4.4-6.8,10.2-6.8,16.4c0,6.2,2.4,12,6.8,16.4
	c4.4,4.4,10.2,6.8,16.4,6.8C225.2,323.7,231,321.1,235.2,316.9z M210.6,300.5c0-2.2,0.9-4.2,2.4-5.8c1.5-1.5,3.6-2.4,5.8-2.4l0,0
	c4.5,0,8.2,3.7,8.2,8.2c0,4.5-3.7,8.2-8.2,8.2c-2.2,0-4.2-0.9-5.8-2.4S210.6,302.7,210.6,300.5z M245.8,327.5c-9,9-9,23.8,0,32.8
	c9,9,23.8,9,32.8,0c9-9,9-23.8,0-32.8C269.5,318.4,254.8,318.4,245.8,327.5z M268,349.7c-3.2,3.2-8.4,3.2-11.6,0
	c-3.2-3.2-3.2-8.4,0-11.6c3.2-3.2,8.4-3.2,11.6,0C271.2,341.3,271.2,346.5,268,349.7z M281.9,179.6l202.4,202.4
	c2.9,2.9,2.9,7.7,0,10.6c-2.9,2.9-7.7,2.9-10.6,0L271.3,190.2c-2.9-2.9-2.9-7.7,0-10.6C274.2,176.6,279,176.6,281.9,179.6z
	 M372.5,324.1l-1.9,1.9l-16.4-16.4c-2.9-2.9-7.7-2.9-10.6,0c-2.9,2.9-2.9,7.7,0,10.6l16.4,16.4l-1.9,1.9c-2.9,2.9-2.9,7.7,0,10.6
	l28.9,28.9c2.9,2.9,7.7,2.9,10.6,0l1.9-1.9l30.8,30.8c2.9,2.9,7.7,2.9,10.6,0c2.9-2.9,2.9-7.7,0-10.6l-30.8-30.8l1.9-1.9
	c2.9-2.9,2.9-7.7,0-10.6l-28.9-28.9C380.2,321.2,375.4,321.2,372.5,324.1z M392.2,362.2l-18.3-18.3l3.8-3.8l18.3,18.3L392.2,362.2z
	 M293,259.1c4.2-4.2,6.8-10,6.8-16.4c0-6.2-2.4-12-6.8-16.4c-4.4-4.4-10.2-6.8-16.4-6.8c-12.8,0-23.2,10.4-23.2,23.2
	c0,6.2,2.4,12,6.8,16.4c4.4,4.4,10.2,6.8,16.4,6.8C283,265.9,288.8,263.3,293,259.1z M268.4,242.7L268.4,242.7
	c0-2.3,0.9-4.3,2.4-5.8c1.5-1.5,3.5-2.4,5.8-2.4c2.2,0,4.2,0.9,5.8,2.4c1.5,1.5,2.4,3.6,2.4,5.8c0,4.5-3.7,8.2-8.2,8.2
	c-2.2,0-4.2-0.9-5.8-2.4C269.2,246.9,268.4,244.9,268.4,242.7z M303.6,269.6c-9,9-9,23.8,0,32.8s23.8,9,32.8,0c9-9,9-23.8,0-32.8
	S312.6,260.6,303.6,269.6z M325.8,291.8c-3.2,3.2-8.4,3.2-11.6,0s-3.2-8.4,0-11.6c3.2-3.2,8.4-3.2,11.6,0S329,288.6,325.8,291.8z
	 M339.7,121.7l202.4,202.4c2.9,2.9,2.9,7.7,0,10.6c-2.9,2.9-7.7,2.9-10.6,0L329.1,132.3c-2.9-2.9-2.9-7.7,0-10.6
	C332,118.8,336.8,118.8,339.7,121.7z M459.2,295.2l-1.9,1.9L412,251.8c-2.9-2.9-7.7-2.9-10.6,0c-2.9,2.9-2.9,7.7,0,10.6l45.3,45.3
	l-1.9,1.9c-2.9,2.9-2.9,7.7,0,10.6l28.9,28.9c2.9,2.9,7.7,2.9,10.6,0l1.9-1.9l1.9,1.9c2.9,2.9,7.7,2.9,10.6,0
	c2.9-2.9,2.9-7.7,0-10.6l-1.9-1.9l1.9-1.9c2.9-2.9,2.9-7.7,0-10.6l-28.9-28.9C466.9,292.3,462.1,292.3,459.2,295.2z M479,333.3
	L460.7,315l3.8-3.8l18.3,18.3L479,333.3z M350.8,201.3c9-9,9-23.8,0-32.8c-9-9-23.8-9-32.8,0s-9,23.8,0,32.8
	S341.8,210.3,350.8,201.3z M328.6,179.1c3.2-3.2,8.4-3.2,11.6,0c3.2,3.2,3.2,8.4,0,11.6c-3.2,3.2-8.4,3.2-11.6,0
	C325.4,187.5,325.4,182.3,328.6,179.1z M361.4,211.8c-4.4,4.4-6.8,10.2-6.8,16.4c0,0,0,0,0,0c0,6.2,2.4,12,6.8,16.4
	c4.4,4.4,10.2,6.8,16.4,6.8c6.2,0,12-2.4,16.4-6.8c4.4-4.4,6.8-10.2,6.8-16.4c0-6.2-2.4-12-6.8-16.4c-4.4-4.4-10.2-6.8-16.4-6.8
	C371.6,205,365.8,207.4,361.4,211.8z M386,228.2c0,2.2-0.9,4.2-2.4,5.8c-1.5,1.5-3.6,2.4-5.8,2.4c-2.2,0-4.2-0.9-5.8-2.4
	c-1.5-1.5-2.4-3.6-2.4-5.8l0,0c0-2.2,0.9-4.2,2.4-5.8c1.5-1.5,3.6-2.4,5.8-2.4c2.2,0,4.2,0.9,5.8,2.4C385.2,224,386,226,386,228.2z
	 M455.4,204.6l43.4-43.4c2.9-2.9,2.9-7.7,0-10.6L412,63.9c-2.9-2.9-7.7-2.9-10.6,0L358,107.3c-2.9,2.9-2.9,7.7,0,10.6l86.7,86.7
	C447.7,207.6,452.4,207.6,455.4,204.6z M394.6,120.9c2.9-2.9,2.9-7.7,0-10.6c-2.9-2.9-7.7-2.9-10.6,0l-6.2,6.2l-3.8-3.8l32.8-32.8
	l3.8,3.8l-6.2,6.2c-2.9,2.9-2.9,7.7,0,10.6s7.7,2.9,10.6,0l6.2-6.2l3.8,3.8L423,100c-2.9,2.9-2.9,7.7,0,10.6c2.9,2.9,7.7,2.9,10.6,0
	l1.9-1.9l3.8,3.8l-6.2,6.2c-2.9,2.9-2.9,7.7,0,10.6c2.9,2.9,7.7,2.9,10.6,0l6.2-6.2l3.8,3.8l-1.9,1.9c-2.9,2.9-2.9,7.7,0,10.6
	c2.9,2.9,7.7,2.9,10.6,0l1.9-1.9l4.1,4.1l-6.2,6.2c-2.9,2.9-2.9,7.7,0,10.6s7.7,2.9,10.6,0l6.2-6.2l3.8,3.8l-32.8,32.8l-3.8-3.8
	l6.2-6.2c2.9-2.9,2.9-7.7,0-10.6s-7.7-2.9-10.6,0l-6.2,6.2l-4.1-4.1l1.9-1.9c2.9-2.9,2.9-7.7,0-10.6s-7.7-2.9-10.6,0l-1.9,1.9
	l-3.8-3.8l6.2-6.2c2.9-2.9,2.9-7.7,0-10.6c-2.9-2.9-7.7-2.9-10.6,0l-6.2,6.2l-3.8-3.8l1.9-1.9c2.9-2.9,2.9-7.7,0-10.6
	s-7.7-2.9-10.6,0l-1.9,1.9l-3.8-3.8L394.6,120.9z M571.3,243h1.9c2.1,0,3.9-0.8,5.3-2.2s2.2-3.2,2.2-5.3c0-4.1-3.4-7.5-7.5-7.5h-1.9
	c-1.1-5.9-3.4-11.6-6.9-16.7l1.4-1.4c2.9-2.9,2.9-7.7,0-10.6s-7.7-2.9-10.6,0l-1.4,1.4c-5.1-3.6-10.8-5.9-16.7-6.9v-1.9
	c0-4.1-3.4-7.5-7.5-7.5c-4.1,0-7.5,3.4-7.5,7.5v1.9c-5.9,1.1-11.6,3.4-16.7,6.9l-1.4-1.4c-2.9-2.9-7.7-2.9-10.6,0
	c-2.9,2.9-2.9,7.7,0,10.6l1.4,1.4c-3.6,5.1-5.9,10.8-6.9,16.7h-1.9c-4.1,0-7.5,3.4-7.5,7.5s3.4,7.5,7.5,7.5h1.9
	c1.1,5.9,3.4,11.6,6.9,16.7l-1.4,1.4c-2.9,2.9-2.9,7.7,0,10.6s7.7,2.9,10.6,0l1.4-1.4c5.1,3.6,10.8,5.9,16.7,6.9v1.9
	c0,4.1,3.4,7.5,7.5,7.5c2.1,0,3.9-0.8,5.3-2.2c1.4-1.4,2.2-3.2,2.2-5.3v-1.9c5.9-1.1,11.6-3.4,16.7-6.9l1.4,1.4
	c2.9,2.9,7.7,2.9,10.6,0c2.9-2.9,2.9-7.7,0-10.6l-1.4-1.4C568,254.6,570.3,248.9,571.3,243z M510.2,254.9
	c-8.9-8.9-10.4-22.3-4.6-32.8l9.7,9.7c2.9,2.9,7.7,2.9,10.6,0c2.9-2.9,2.9-7.7,0-10.6l-9.7-9.7c10.4-5.8,23.9-4.3,32.8,4.6
	c10.7,10.7,10.7,28.1,0,38.8C538.3,265.6,520.9,265.6,510.2,254.9z"/>
</svg>
