<?xml version="1.0" encoding="iso-8859-1"?>
<!-- Generator: Adobe Illustrator 19.0.0, SVG Export Plug-In . SVG Version: 6.00 Build 0)  -->
<svg version="1.1" id="Layer_1" xmlns="http://www.w3.org/2000/svg" xmlns:xlink="http://www.w3.org/1999/xlink" x="0px" y="0px"
	 viewBox="0 0 503.831 503.831" style="enable-background:new 0 0 503.831 503.831;" xml:space="preserve">
<g>
	<g>
		<g>
			<path d="M293.883,277.09c-4.636,0-8.393,3.758-8.393,8.393c0,17.037-3.577,27.345-11.02,37.735
				c-0.997,1.392-6.163,8.12-7.522,10.089c-2.567,3.719-4.37,7.237-5.449,10.93h-1.944c-0.499-8.43,0.249-15.259,2.081-24.09
				c-0.032,0.156,0.862-4.094,1.099-5.279c0.414-2.068,0.717-3.792,0.949-5.489c1.261-9.208,0.224-17.315-4.065-27.23
				c-1.841-4.255-6.782-6.211-11.036-4.371c-4.255,1.841-6.211,6.782-4.371,11.036c3.051,7.053,3.693,12.067,2.841,18.286
				c-0.18,1.31-0.426,2.715-0.778,4.473c-0.218,1.088-1.092,5.243-1.075,5.162c-2.048,9.869-2.943,17.905-2.459,27.501h-3.32
				c-3.171-4.876-4.344-9.436-4.465-15.379c-0.039-1.915,0.003-3.465,0.166-7.282c0.734-17.223-0.901-26.818-9.704-40.609
				c-2.494-3.907-7.684-5.053-11.591-2.559s-5.053,7.684-2.559,11.591c6.584,10.315,7.683,16.764,7.083,30.863
				c-0.178,4.174-0.226,5.95-0.178,8.338c0.199,9.763,2.584,17.884,8.563,26.213v47.696c0,27.755-22.606,50.361-50.361,50.361
				h-25.18c-27.755,0-50.361-22.606-50.361-50.361v-17.011c9.277,0,16.787-7.51,16.787-16.787V335.74h25.18
				c4.636,0,8.393-3.758,8.393-8.393V184.658c0-4.636-3.758-8.393-8.393-8.393h-8.393v-41.967c0-4.636-3.758-8.393-8.393-8.393
				h-8.393V58.757c0-4.636-3.758-8.393-8.393-8.393h-8.393V25.18C100.833,11.278,89.555,0,75.653,0
				c-13.902,0-25.18,11.278-25.18,25.18v25.183h-8.393c-4.636,0-8.393,3.758-8.393,8.393v67.148h-8.393
				c-4.636,0-8.393,3.758-8.393,8.393v41.967H8.505c-4.636,0-8.393,3.758-8.393,8.393v142.689c0,4.636,3.758,8.393,8.393,8.393
				h25.18v33.571c0,9.277,7.51,16.787,16.787,16.787v17.011c0,55.542,45.18,100.721,100.721,100.721h25.18
				c55.542,0,100.721-45.18,100.721-100.721v-50.478c0-3.291,1.029-5.965,3.667-9.788c1.06-1.536,6.103-8.105,7.352-9.848
				c9.412-13.138,14.16-26.822,14.16-47.511C302.276,280.848,298.518,277.09,293.883,277.09z M67.26,25.18
				c0-4.631,3.763-8.393,8.393-8.393c4.631,0,8.393,3.763,8.393,8.393v25.18H67.26V25.18z M50.473,67.15h50.361v58.754H50.473V67.15
				z M33.686,142.691h8.393h67.148h8.393v33.574H33.686V142.691z M16.899,193.052h8.393h100.721h8.393v125.902h-25.131
				c-0.017,0-0.033-0.003-0.05-0.003H42.079c-0.017,0-0.033,0.002-0.05,0.003H16.899V193.052z M100.833,335.74v33.571H50.473V335.74
				H100.833z M260.309,403.109c0,46.271-37.664,83.934-83.934,83.934h-25.18c-46.271,0-83.934-37.664-83.934-83.934v-16.904h16.787
				v16.904c0,37.026,30.122,67.148,67.148,67.148h25.18c37.026,0,67.148-30.122,67.148-67.148v-42.085h16.787V403.109z"/>
			<path d="M402.997,0.222H335.85c-55.542,0-100.721,45.18-100.721,100.721v75.424c0,0,0,0.001,0,0.001s0,0.001,0,0.001
				c0,3.291-1.029,5.965-3.667,9.788c-1.06,1.535-6.103,8.105-7.352,9.848c-9.412,13.138-14.16,26.822-14.16,47.511
				c0,4.636,3.758,8.393,8.393,8.393s8.393-3.758,8.393-8.393c0-17.037,3.577-27.345,11.02-37.735
				c0.997-1.392,6.163-8.12,7.522-10.089c2.568-3.72,4.371-7.238,5.45-10.933h1.943c0.5,8.434-0.249,15.265-2.081,24.096
				c0.032-0.153-0.862,4.095-1.099,5.279c-0.414,2.068-0.717,3.792-0.949,5.489c-1.261,9.206-0.223,17.312,4.065,27.226
				c1.841,4.255,6.782,6.211,11.036,4.371s6.211-6.782,4.371-11.036c-3.051-7.052-3.693-12.065-2.841-18.283
				c0.18-1.31,0.426-2.715,0.778-4.473c0.218-1.087,1.092-5.24,1.076-5.162c2.048-9.869,2.944-17.907,2.459-27.507h3.314
				c3.174,4.875,4.349,9.434,4.471,15.376c0.039,1.917-0.003,3.469-0.166,7.291c-0.734,17.223,0.901,26.818,9.705,40.606
				c2.495,3.907,7.684,5.052,11.591,2.557c3.907-2.495,5.052-7.684,2.557-11.591c-6.584-10.311-7.682-16.759-7.082-30.858
				c0.178-4.181,0.227-5.959,0.177-8.351c-0.201-9.757-2.586-17.874-8.563-26.198v-72.65c0-27.76,22.603-50.361,50.361-50.361
				h67.148c27.758,0,50.361,22.601,50.361,50.361v394.492c0,4.636,3.758,8.393,8.393,8.393h33.574c4.636,0,8.393-3.758,8.393-8.393
				V100.943C503.719,45.401,458.539,0.222,402.997,0.222z M486.932,487.041h-16.787V100.943c0-37.031-30.119-67.148-67.148-67.148
				H335.85c-37.029,0-67.148,30.116-67.148,67.148v67.03h-16.787v-67.03c0-46.271,37.664-83.934,83.934-83.934h67.148
				c46.271,0,83.934,37.664,83.934,83.934V487.041z"/>
		</g>
	</g>
</g>
<g>
</g>
<g>
</g>
<g>
</g>
<g>
</g>
<g>
</g>
<g>
</g>
<g>
</g>
<g>
</g>
<g>
</g>
<g>
</g>
<g>
</g>
<g>
</g>
<g>
</g>
<g>
</g>
<g>
</g>
</svg>
