<?xml version="1.0" encoding="iso-8859-1"?>
<!-- Generator: Adobe Illustrator 19.0.0, SVG Export Plug-In . SVG Version: 6.00 Build 0)  -->
<svg version="1.1" id="Capa_1" xmlns="http://www.w3.org/2000/svg" xmlns:xlink="http://www.w3.org/1999/xlink" x="0px" y="0px"
	 viewBox="0 0 512 512" style="enable-background:new 0 0 512 512;" xml:space="preserve">
<g>
	<g>
		<path d="M401.5,187.328c4.142,0,7.5-3.358,7.5-7.5V131.5c0-4.142-3.358-7.5-7.5-7.5h-337c-4.142,0-7.5,3.358-7.5,7.5v194
			c0,4.142,3.358,7.5,7.5,7.5h337c4.142,0,7.5-3.358,7.5-7.5V223.489c0-4.142-3.358-7.5-7.5-7.5c-4.142,0-7.5,3.357-7.5,7.5V318H72
			V139h322v40.828C394,183.97,397.358,187.328,401.5,187.328z"/>
	</g>
</g>
<g>
	<g>
		<path d="M504.5,343H437V128.613C437,112.285,423.716,99,407.387,99H31.82C14.274,99,0,113.274,0,130.82V350.5v19.063
			C0,393.514,19.486,413,43.438,413h425.125C492.514,413,512,393.514,512,369.563V350.5C512,346.358,508.643,343,504.5,343z
			 M45.74,114h361.646c8.058,0,14.613,6.556,14.613,14.613V343h-44.187H273.187H165.58c-0.333-0.046-0.67-0.078-1.015-0.078
			c-0.004,0-0.008,0-0.012,0c-0.349,0-0.689,0.032-1.025,0.078H45.74V114z M366.428,358l-3.868,9h-74.12l-3.868-9H366.428z
			 M15,130.82c0-8.91,6.969-16.204,15.74-16.766V343H15V130.82z M497,369.563c0,15.68-12.757,28.437-28.437,28.437H43.438
			C27.757,398,15,385.243,15,369.563V358h142.042L157,384.488c-0.007,4.142,3.346,7.505,7.488,7.512c0.004,0,0.008,0,0.012,0
			c4.137,0,7.493-3.35,7.5-7.488L172.042,358h96.205l8.363,19.461c1.184,2.754,3.893,4.539,6.891,4.539h84
			c2.998,0,5.707-1.785,6.891-4.539L382.754,358H429.5H497V369.563z"/>
	</g>
</g>
<g>
	<g>
		<path d="M159.775,146.5c-4.143,0-7.5,3.358-7.5,7.5v149c0,4.142,3.358,7.5,7.5,7.5c4.143,0,7.5-3.358,7.5-7.5V154
			C167.275,149.858,163.918,146.5,159.775,146.5z"/>
	</g>
</g>
<g>
	<g>
		<path d="M102.5,175H102v-12.5c0-4.142-3.357-7.5-7.5-7.5s-7.5,3.358-7.5,7.5V175h-1.5c-4.143,0-7.5,3.358-7.5,7.5
			c0,4.142,3.357,7.5,7.5,7.5H87v1c0,4.142,3.357,7.5,7.5,7.5s7.5-3.358,7.5-7.5v-1h0.5c4.143,0,7.5-3.358,7.5-7.5
			C110,178.358,106.643,175,102.5,175z"/>
	</g>
</g>
<g>
	<g>
		<path d="M138.5,164H138v-1.5c0-4.142-3.357-7.5-7.5-7.5s-7.5,3.358-7.5,7.5v1.5h-1.5c-4.143,0-7.5,3.358-7.5,7.5
			c0,4.142,3.357,7.5,7.5,7.5h1.5v12c0,4.142,3.357,7.5,7.5,7.5s7.5-3.358,7.5-7.5v-12h0.5c4.143,0,7.5-3.358,7.5-7.5
			C146,167.358,142.643,164,138.5,164z"/>
	</g>
</g>
<g>
	<g>
		<circle cx="94.5" cy="213.5" r="7"/>
	</g>
</g>
<g>
	<g>
		<circle cx="131" cy="214" r="7"/>
	</g>
</g>
<g>
	<g>
		<circle cx="94.5" cy="296.5" r="7"/>
	</g>
</g>
<g>
	<g>
		<circle cx="131" cy="297" r="7"/>
	</g>
</g>
<g>
	<g>
		<path d="M121,233.376V229.5c0-4.142-3.357-7.5-7.5-7.5s-7.5,3.358-7.5,7.5v3.544c-9.829,3.003-17,12.157-17,22.956
			c0,13.233,10.767,24,24,24c13.233,0,24-10.767,24-24C137,245.571,130.311,236.679,121,233.376z M113,265c-4.963,0-9-4.038-9-9
			c0-3.098,1.573-5.834,3.963-7.454c1.372,1.504,3.341,2.454,5.537,2.454c1.979,0,3.773-0.772,5.113-2.023
			c2.061,1.65,3.387,4.183,3.387,7.023C122,260.962,117.963,265,113,265z"/>
	</g>
</g>
<g>
	<g>
		<path d="M366.543,222L311,221.679V205.5c0-11.855-9.645-21.5-21.5-21.5c-11.855,0-21.5,9.645-21.5,21.5v15.931l-13-0.075V191.5
			c0-11.855-9.645-21.5-21.5-21.5s-21.5,9.645-21.5,21.5v29.607L193.543,221c-0.015,0-0.029,0-0.044,0
			c-4.122,0-7.475,3.33-7.499,7.457c-0.023,4.142,3.314,7.519,7.457,7.543L240,236.269V266.5c0,11.855,9.645,21.5,21.5,21.5
			s21.5-9.645,21.5-21.5v-29.982l13,0.075V261.5c0,11.855,9.645,21.5,21.5,21.5c11.855,0,21.5-9.645,21.5-21.5V237h27.5
			c4.134,0,7.488-3.345,7.5-7.479C374.012,225.388,370.677,222.023,366.543,222z M240,221.269l-13-0.075V191.5
			c0-3.584,2.916-6.5,6.5-6.5s6.5,2.916,6.5,6.5V221.269z M268,266.5c0,3.584-2.916,6.5-6.5,6.5c-3.584,0-6.5-2.916-6.5-6.5v-30.145
			l13,0.075V266.5z M296,221.592l-13-0.075V205.5c0-3.584,2.916-6.5,6.5-6.5c3.584,0,6.5,2.916,6.5,6.5V221.592z M324,261.5
			c0,3.584-2.916,6.5-6.5,6.5c-3.584,0-6.5-2.916-6.5-6.5v-24.821l13,0.075V261.5z"/>
	</g>
</g>
<g>
	<g>
		<path d="M67.5,370h-15c-4.143,0-7.5,3.358-7.5,7.5c0,4.142,3.357,7.5,7.5,7.5h15c4.143,0,7.5-3.358,7.5-7.5
			C75,373.358,71.643,370,67.5,370z"/>
	</g>
</g>
<g>
	<g>
		<path d="M106.5,370h-15c-4.143,0-7.5,3.358-7.5,7.5c0,4.142,3.357,7.5,7.5,7.5h15c4.143,0,7.5-3.358,7.5-7.5
			C114,373.358,110.643,370,106.5,370z"/>
	</g>
</g>
<g>
</g>
<g>
</g>
<g>
</g>
<g>
</g>
<g>
</g>
<g>
</g>
<g>
</g>
<g>
</g>
<g>
</g>
<g>
</g>
<g>
</g>
<g>
</g>
<g>
</g>
<g>
</g>
<g>
</g>
</svg>
