<?xml version="1.0" encoding="iso-8859-1"?>
<!-- Generator: Adobe Illustrator 19.0.0, SVG Export Plug-In . SVG Version: 6.00 Build 0)  -->
<svg version="1.1" id="Layer_1" xmlns="http://www.w3.org/2000/svg" xmlns:xlink="http://www.w3.org/1999/xlink" x="0px" y="0px"
	 viewBox="0 0 511.999 511.999" style="enable-background:new 0 0 511.999 511.999;" xml:space="preserve">
<g>
	<g>
		<path d="M258.77,0.001c-4.736-0.052-8.547,3.716-8.597,8.412l-1.669,153.914c-0.051,4.697,3.715,8.546,8.412,8.597
			c0.032,0,0.064,0,0.094,0c4.654,0,8.453-3.747,8.503-8.412l1.669-153.914C267.234,3.9,263.467,0.052,258.77,0.001z"/>
	</g>
</g>
<g>
	<g>
		<path d="M255.082,341.089c-4.729-0.044-8.547,3.716-8.597,8.412l-1.669,153.901c-0.051,4.697,3.715,8.546,8.412,8.597
			c0.032,0,0.064,0,0.094,0c4.654,0,8.453-3.748,8.503-8.412l1.669-153.901C263.546,344.989,259.78,341.14,255.082,341.089z"/>
	</g>
</g>
<g>
	<g>
		<path d="M438.978,76.94c-3.285-3.358-8.67-3.416-12.028-0.13L316.936,184.463c-3.358,3.285-3.416,8.671-0.13,12.028
			c1.666,1.702,3.872,2.556,6.08,2.556c2.146,0,4.294-0.807,5.948-2.426L438.848,88.968
			C442.206,85.683,442.263,80.297,438.978,76.94z"/>
	</g>
</g>
<g>
	<g>
		<path d="M195.184,315.518c-3.285-3.358-8.67-3.416-12.028-0.13L73.152,423.032c-3.358,3.285-3.416,8.671-0.13,12.028
			c1.666,1.702,3.872,2.556,6.08,2.556c2.146,0,4.292-0.807,5.948-2.426l110.004-107.644
			C198.411,324.26,198.469,318.875,195.184,315.518z"/>
	</g>
</g>
<g>
	<g>
		<path d="M503.586,250.174l-153.914-1.669c-0.032,0-0.064,0-0.094,0c-4.654,0-8.453,3.747-8.503,8.412
			c-0.051,4.697,3.715,8.546,8.412,8.597l153.914,1.669c0.032,0,0.064,0,0.094,0c4.654,0,8.452-3.748,8.503-8.412
			C512.05,254.074,508.283,250.225,503.586,250.174z"/>
	</g>
</g>
<g>
	<g>
		<path d="M162.498,246.485l-153.9-1.669c-0.032,0-0.063,0-0.094,0c-4.654,0-8.453,3.747-8.503,8.412
			c-0.051,4.697,3.715,8.546,8.412,8.597l153.9,1.67c0.032,0,0.063,0,0.094,0c4.654,0,8.453-3.748,8.503-8.414
			C170.962,250.385,167.195,246.536,162.498,246.485z"/>
	</g>
</g>
<g>
	<g>
		<path d="M435.189,426.95L327.536,316.937c-3.285-3.358-8.67-3.415-12.028-0.13c-3.358,3.285-3.416,8.671-0.13,12.028
			l107.653,110.013c1.666,1.702,3.872,2.556,6.08,2.556c2.146,0,4.294-0.807,5.948-2.426
			C438.417,435.692,438.474,430.307,435.189,426.95z"/>
	</g>
</g>
<g>
	<g>
		<path d="M196.612,183.156L88.968,73.151c-3.286-3.358-8.67-3.415-12.028-0.13c-3.358,3.285-3.416,8.671-0.13,12.028
			l107.643,110.005c1.666,1.702,3.872,2.556,6.08,2.556c2.146,0,4.294-0.807,5.948-2.427
			C199.839,191.898,199.897,186.513,196.612,183.156z"/>
	</g>
</g>
<g>
	<g>
		<path d="M213.588,127.568L196.66,85.414c-1.751-4.359-6.703-6.473-11.063-4.723c-4.359,1.751-6.473,6.703-4.723,11.063
			l16.928,42.154c1.333,3.321,4.524,5.338,7.895,5.338c1.055,0,2.129-0.198,3.167-0.615
			C213.224,136.88,215.338,131.927,213.588,127.568z"/>
	</g>
</g>
<g>
	<g>
		<path d="M331.124,420.248l-16.912-42.146c-1.75-4.359-6.702-6.478-11.06-4.726c-4.359,1.749-6.474,6.701-4.726,11.06
			l16.912,42.146c1.333,3.322,4.524,5.34,7.896,5.34c1.055,0,2.126-0.197,3.164-0.615
			C330.758,429.559,332.873,424.607,331.124,420.248z"/>
	</g>
</g>
<g>
	<g>
		<path d="M330.18,82.257c-4.322-1.844-9.317,0.162-11.162,4.482l-17.838,41.774c-1.845,4.321,0.162,9.318,4.482,11.162
			c1.09,0.465,2.223,0.685,3.336,0.685c3.303,0,6.447-1.937,7.826-5.167l17.838-41.774C336.507,89.098,334.5,84.101,330.18,82.257z"
			/>
	</g>
</g>
<g>
	<g>
		<path d="M206.337,372.333c-4.32-1.844-9.317,0.162-11.162,4.482l-17.838,41.766c-1.845,4.32,0.162,9.317,4.482,11.162
			c1.09,0.465,2.222,0.685,3.336,0.685c3.304,0,6.446-1.937,7.826-5.167l17.838-41.766
			C212.664,379.176,210.657,374.178,206.337,372.333z"/>
	</g>
</g>
<g>
	<g>
		<path d="M432.19,185.244c-1.75-4.359-6.707-6.474-11.062-4.724l-43.032,17.275c-4.359,1.75-6.474,6.702-4.724,11.062
			c1.333,3.321,4.524,5.339,7.895,5.339c1.056,0,2.128-0.197,3.166-0.615l43.032-17.275
			C431.824,194.555,433.939,189.603,432.19,185.244z"/>
	</g>
</g>
<g>
	<g>
		<path d="M138.618,303.14c-1.751-4.359-6.701-6.473-11.063-4.723l-42.141,16.922c-4.359,1.751-6.473,6.703-4.723,11.063
			c1.333,3.32,4.524,5.338,7.895,5.338c1.055,0,2.128-0.197,3.167-0.615l42.141-16.922
			C138.254,312.451,140.368,307.499,138.618,303.14z"/>
	</g>
</g>
<g>
	<g>
		<path d="M425.264,319.019l-41.771-17.847c-4.321-1.846-9.317,0.16-11.164,4.48c-1.846,4.32,0.16,9.318,4.48,11.164l41.771,17.847
			c1.09,0.466,2.223,0.686,3.338,0.686c3.302,0,6.445-1.937,7.826-5.166C431.59,325.863,429.584,320.864,425.264,319.019z"/>
	</g>
</g>
<g>
	<g>
		<path d="M135.18,195.169l-41.762-17.832c-4.321-1.845-9.317,0.161-11.162,4.482s0.162,9.318,4.482,11.162l41.762,17.832
			c1.09,0.465,2.223,0.685,3.336,0.685c3.304,0,6.447-1.937,7.826-5.167C141.507,202.011,139.5,197.013,135.18,195.169z"/>
	</g>
</g>
<g>
	<g>
		<path d="M295.861,255.999l17.785-24.295c1.99-2.719,2.188-6.357,0.502-9.277c-1.686-2.919-4.937-4.57-8.285-4.203l-29.933,3.255
			l-12.147-27.55c-1.359-3.083-4.411-5.074-7.782-5.074c-3.369,0-6.422,1.99-7.782,5.074l-12.148,27.55l-29.933-3.255
			c-3.352-0.367-6.6,1.284-8.285,4.203c-1.685,2.919-1.488,6.557,0.502,9.277l17.785,24.295l-17.785,24.295
			c-1.99,2.719-2.188,6.357-0.502,9.277c1.685,2.919,4.932,4.566,8.285,4.203l29.932-3.255l12.148,27.55
			c1.359,3.083,4.411,5.074,7.782,5.074s6.423-1.99,7.784-5.074l12.147-27.55l29.932,3.255c3.356,0.364,6.6-1.284,8.285-4.203
			c1.685-2.919,1.488-6.557-0.502-9.277L295.861,255.999z M278.454,261.024l10.068,13.754l-16.945-1.843
			c-3.685-0.405-7.207,1.631-8.703,5.024l-6.876,15.597l-6.877-15.597c-1.37-3.108-4.439-5.075-7.778-5.075
			c-0.305,0-0.614,0.017-0.924,0.051l-16.945,1.843l10.068-13.754c2.19-2.99,2.19-7.056,0-10.048l-10.068-13.754l16.946,1.843
			c3.68,0.4,7.206-1.631,8.702-5.024l6.877-15.597l6.876,15.597c1.496,3.392,5.02,5.424,8.702,5.024l16.946-1.843l-10.068,13.754
			C276.264,253.967,276.264,258.033,278.454,261.024z"/>
	</g>
</g>
<g>
	<g>
		<circle cx="483.832" cy="163.768" r="8.505"/>
	</g>
</g>
<g>
	<g>
		<circle cx="351.341" cy="28.373" r="8.505"/>
	</g>
</g>
<g>
	<g>
		<circle cx="161.92" cy="26.321" r="8.505"/>
	</g>
</g>
<g>
	<g>
		<circle cx="26.527" cy="158.812" r="8.505"/>
	</g>
</g>
<g>
	<g>
		<circle cx="24.475" cy="348.233" r="8.505"/>
	</g>
</g>
<g>
	<g>
		<circle cx="156.964" cy="483.628" r="8.505"/>
	</g>
</g>
<g>
	<g>
		<circle cx="346.385" cy="485.68" r="8.505"/>
	</g>
</g>
<g>
	<g>
		<circle cx="481.779" cy="353.189" r="8.505"/>
	</g>
</g>
<g>
</g>
<g>
</g>
<g>
</g>
<g>
</g>
<g>
</g>
<g>
</g>
<g>
</g>
<g>
</g>
<g>
</g>
<g>
</g>
<g>
</g>
<g>
</g>
<g>
</g>
<g>
</g>
<g>
</g>
</svg>
