<?xml version="1.0" encoding="iso-8859-1"?>
<!-- Generator: Adobe Illustrator 19.0.0, SVG Export Plug-In . SVG Version: 6.00 Build 0)  -->
<svg version="1.1" id="Layer_1" xmlns="http://www.w3.org/2000/svg" xmlns:xlink="http://www.w3.org/1999/xlink" x="0px" y="0px"
	 viewBox="0 0 512 512" style="enable-background:new 0 0 512 512;" xml:space="preserve">
<g>
	<g>
		<g>
			<path d="M507.955,52.478c-2.526-1.562-5.658-1.698-8.303-0.375l-79.51,39.755l39.755-79.51c1.323-2.637,1.186-5.777-0.375-8.294
				C457.969,1.536,455.229,0,452.268,0H59.735c-2.961,0-5.709,1.536-7.262,4.053c-1.553,2.517-1.69,5.658-0.375,8.294l39.75,79.5
				l-79.5-39.75c-2.637-1.314-5.786-1.178-8.303,0.375C1.536,54.035,0,56.774,0,59.735v392.533c0,2.961,1.536,5.7,4.045,7.253
				c1.374,0.853,2.927,1.28,4.489,1.28c1.306,0,2.611-0.299,3.814-0.904l79.503-39.752l-39.753,79.507
				c-1.314,2.637-1.178,5.777,0.375,8.294c1.553,2.517,4.301,4.053,7.262,4.053h392.533c2.961,0,5.7-1.536,7.253-4.053
				c1.562-2.517,1.698-5.658,0.375-8.294l-39.752-79.503l79.507,39.753c1.203,0.597,2.509,0.896,3.814,0.896
				c1.562,0,3.115-0.427,4.489-1.271c2.509-1.562,4.045-4.301,4.045-7.262V59.732C512,56.771,510.464,54.031,507.955,52.478z
				 M392.533,392.533h-66.218c27.398-14.168,50.017-36.339,64.732-63.405c0.373-0.54,0.681-1.126,0.923-1.746
				c0.187-0.356,0.379-0.709,0.563-1.066V392.533z M119.467,326.315c0.526,1.017,1.06,2.028,1.608,3.032
				c0.175,0.377,0.38,0.74,0.611,1.091c14.728,26.469,37.046,48.157,64,62.095h-66.218V326.315z M119.467,119.467h66.218
				c-28.341,14.656-51.563,37.877-66.218,66.218V119.467z M226.705,122.642l41.136,56.558h-40.832c-0.008,0-0.016-0.002-0.025-0.002
				h-83.807C162.5,150.904,192.176,130.222,226.705,122.642z M280.267,196.267l43.129,59.322l-42.783,60.161h-48.814l-42.792-59.902
				l42.382-59.581H280.267z M243.991,332.816H285c0.004,0,0.008,0.001,0.012,0.001h83.799
				c-19.47,28.502-49.446,49.278-84.305,56.713L243.991,332.816z M378.744,315.75h-77.194l80.239-112.833
				c6.916,16.326,10.743,34.267,10.743,53.083C392.533,277.415,387.571,297.692,378.744,315.75z M333.745,240.791l-87.942-120.944
				c3.367-0.25,6.767-0.38,10.197-0.38c49.615,0,93.132,26.61,117.041,66.303L333.745,240.791z M133.247,196.267h77.198
				l-80.243,112.798c-6.911-16.321-10.736-34.255-10.736-53.065C119.467,234.591,124.426,214.32,133.247,196.267z M138.957,326.226
				l39.67-55.541l41.771,58.459c0.022,0.031,0.037,0.065,0.059,0.096l44.995,62.96c-3.124,0.215-6.274,0.333-9.452,0.333
				C206.383,392.533,162.865,365.922,138.957,326.226z M391.088,182.949c-0.033-0.081-0.068-0.161-0.104-0.24
				c-0.037-0.083-0.068-0.169-0.109-0.252c-0.032-0.066-0.073-0.129-0.107-0.195c-0.193-0.371-0.413-0.73-0.663-1.073
				c-14.73-26.299-36.964-47.85-63.791-61.722h66.218v66.218C392.059,184.768,391.58,183.855,391.088,182.949z M438.461,17.067
				L395.795,102.4H116.209L73.542,17.067H438.461z M17.067,73.542l85.333,42.667v279.586l-85.333,42.667V73.542z M73.542,494.933
				l42.667-85.333h279.586l42.667,85.333H73.542z M494.933,438.458L409.6,395.791V116.205l85.333-42.667V438.458z"/>
			<path d="M233.429,238.933c2.005,0,4.019-0.7,5.641-2.133c4.676-4.122,10.692-6.4,16.93-6.4c4.71,0,8.533-3.814,8.533-8.533
				s-3.823-8.533-8.533-8.533c-10.402,0-20.429,3.789-28.22,10.667c-3.533,3.115-3.874,8.508-0.751,12.041
				C228.71,237.961,231.066,238.933,233.429,238.933z"/>
			<path d="M221.867,264.533c4.71,0,8.533-3.814,8.533-8.533s-3.823-8.533-8.533-8.533c-4.71,0-8.533,3.814-8.533,8.533
				S217.156,264.533,221.867,264.533z"/>
		</g>
	</g>
</g>
<g>
</g>
<g>
</g>
<g>
</g>
<g>
</g>
<g>
</g>
<g>
</g>
<g>
</g>
<g>
</g>
<g>
</g>
<g>
</g>
<g>
</g>
<g>
</g>
<g>
</g>
<g>
</g>
<g>
</g>
</svg>
