<?xml version="1.0" encoding="iso-8859-1"?>
<!-- Generator: Adobe Illustrator 19.0.0, SVG Export Plug-In . SVG Version: 6.00 Build 0)  -->
<svg version="1.1" id="Layer_1" xmlns="http://www.w3.org/2000/svg" xmlns:xlink="http://www.w3.org/1999/xlink" x="0px" y="0px"
	 viewBox="0 0 512 512" style="enable-background:new 0 0 512 512;" xml:space="preserve">
<g>
	<g>
		
			<rect x="133.676" y="296.215" transform="matrix(0.9735 -0.2286 0.2286 0.9735 -65.7132 40.3425)" width="15.208" height="15.208"/>
	</g>
</g>
<g>
	<g>
		
			<rect x="140.864" y="326.819" transform="matrix(0.9735 -0.2286 0.2286 0.9735 -72.5191 42.7962)" width="15.208" height="15.208"/>
	</g>
</g>
<g>
	<g>
		
			<rect x="155.261" y="388.015" transform="matrix(0.9735 -0.2286 0.2286 0.9735 -86.1275 47.7078)" width="15.208" height="15.208"/>
	</g>
</g>
<g>
	<g>
		
			<rect x="169.605" y="449.224" transform="matrix(0.9735 -0.2286 0.2286 0.9735 -99.7402 52.6077)" width="15.208" height="15.208"/>
	</g>
</g>
<g>
	<g>
		
			<rect x="148.044" y="357.428" transform="matrix(0.9735 -0.2286 0.2286 0.9735 -79.3276 45.2489)" width="15.208" height="15.208"/>
	</g>
</g>
<g>
	<g>
		
			<rect x="162.417" y="418.624" transform="matrix(0.9735 -0.2286 0.2286 0.9735 -92.9354 50.1544)" width="15.208" height="15.208"/>
	</g>
</g>
<g>
	<g>
		
			<rect x="337.746" y="418.622" transform="matrix(0.2286 -0.9735 0.9735 0.2286 -148.5386 664.9927)" width="15.208" height="15.208"/>
	</g>
</g>
<g>
	<g>
		
			<rect x="359.299" y="326.817" transform="matrix(0.2286 -0.9735 0.9735 0.2286 -42.5378 615.1585)" width="15.208" height="15.208"/>
	</g>
</g>
<g>
	<g>
		
			<rect x="366.466" y="296.241" transform="matrix(0.2286 -0.9735 0.9735 0.2286 -7.2427 598.5486)" width="15.208" height="15.208"/>
	</g>
</g>
<g>
	<g>
		
			<rect x="344.913" y="388.036" transform="matrix(0.2286 -0.9735 0.9735 0.2286 -113.2329 648.3764)" width="15.208" height="15.208"/>
	</g>
</g>
<g>
	<g>
		
			<rect x="330.569" y="449.211" transform="matrix(0.2286 -0.9735 0.9735 0.2286 -183.853 681.6041)" width="15.208" height="15.208"/>
	</g>
</g>
<g>
	<g>
		
			<rect x="352.12" y="357.426" transform="matrix(0.2286 -0.9735 0.9735 0.2286 -77.8744 631.7811)" width="15.208" height="15.208"/>
	</g>
</g>
<g>
	<g>
		<path d="M511.831,214.297v-0.002c-2.234-56.253-29.189-109.072-76.509-149.45c-23.678-20.204-51.076-36.085-81.433-47.203
			C322.586,6.181,289.651,0.369,256,0.369C120.173,0.369,4.997,97.567,0.176,214.295H0v7.604v7.604v20.687l16.074,65.67
			l34.771,142.153c0.168,0.689,0.352,1.373,0.548,2.048c6.1,20.946,25.496,34.953,46.662,34.951c1.157,0,2.321-0.058,3.487-0.143
			l0.72,3.067c1.083,4.614,3.898,8.53,7.927,11.026c2.843,1.761,6.05,2.667,9.312,2.667c1.361,0,2.732-0.158,4.09-0.477
			l69.091-16.224c9.886-2.322,18.277-8.354,23.627-16.986c5.349-8.633,7.016-18.832,4.694-28.718L183.92,291.302
			c-4.793-20.408-25.292-33.115-45.704-28.321l-71.56,16.803l-9.531-40.589v-12.623c11.896-4.952,20.737-15.768,22.796-29.266
			c12.048-78.984,81.197-130.021,176.164-130.021c97.114,0,164.586,49.676,176.084,129.641
			c1.924,13.378,10.854,24.386,22.716,29.497v12.773l-9.531,40.589l-71.559-16.803c-20.409-4.797-40.914,7.912-45.705,28.321
			l-37.083,157.925c-2.322,9.886-0.655,20.086,4.695,28.718c5.349,8.633,13.74,14.666,23.627,16.986l69.091,16.224
			c1.359,0.318,2.729,0.477,4.09,0.477c3.263,0,6.47-0.906,9.312-2.668c4.029-2.496,6.844-6.412,7.927-11.026l0.72-3.066
			c1.166,0.085,2.33,0.143,3.488,0.143c6.827,0,13.471-1.458,19.543-4.136c1.215-0.535,2.406-1.12,3.572-1.751
			c0.583-0.315,1.159-0.643,1.729-0.981c10.82-6.438,19.16-17.025,22.366-30.131L512,250.193v-20.687v-7.604v-7.604H511.831z
			 M15.208,248.357v-18.854h26.709v11.453l9.934,42.305l4.514,19.224l-26.827,4.417L15.208,248.357z M141.693,277.786
			c5.935-1.392,12.053-0.391,17.231,2.817c5.18,3.21,8.799,8.244,10.192,14.176L206.2,452.702
			c1.393,5.932,0.392,12.052-2.817,17.232c-3.21,5.179-8.244,8.799-14.176,10.192l-69.092,16.224
			c-0.888,0.21-1.581-0.107-1.914-0.313c-0.334-0.207-0.924-0.686-1.133-1.576l-0.579-2.467h0.001L73.533,309.057l-3.399-14.467
			L141.693,277.786z M59.85,317.323l38.155,162.484c-14.991-0.013-28.682-10.258-32.388-25.407L33.164,321.717L59.85,317.323z
			 M447.223,194.761C434.567,106.75,361.327,52.077,256.085,52.077c-49.72,0-94.064,13.351-128.24,38.61
			c-34.688,25.638-56.458,61.713-62.957,104.325c-1.704,11.174-11.179,19.283-22.529,19.283H15.379
			C20.24,105.814,128.449,15.577,256,15.577s235.761,90.238,240.622,198.719h-26.832
			C458.525,214.295,448.824,205.897,447.223,194.761z M395.522,491.995l-0.579,2.467c-0.21,0.889-0.8,1.369-1.134,1.576
			c-0.333,0.207-1.023,0.521-1.915,0.313l-69.091-16.224c-5.932-1.393-10.966-5.013-14.176-10.193
			c-3.21-5.18-4.211-11.3-2.818-17.232l37.084-157.924c1.393-5.932,5.013-10.966,10.192-14.176
			c3.655-2.265,7.777-3.429,11.973-3.429c1.75,0,3.512,0.203,5.259,0.612l71.559,16.804l-24.193,103.023L395.522,491.995z
			 M446.392,454.401c-0.222,0.908-0.483,1.799-0.775,2.671c-0.012,0.036-0.022,0.074-0.034,0.112
			c-4.612,13.607-17.524,22.612-31.578,22.625l31.149-132.65l7.006-29.834l26.686,4.394L446.392,454.401z M496.792,248.357
			l-14.32,58.544l-26.826-4.417l4.514-19.224l9.934-42.305v-11.453h26.698V248.357z"/>
	</g>
</g>
<g>
</g>
<g>
</g>
<g>
</g>
<g>
</g>
<g>
</g>
<g>
</g>
<g>
</g>
<g>
</g>
<g>
</g>
<g>
</g>
<g>
</g>
<g>
</g>
<g>
</g>
<g>
</g>
<g>
</g>
</svg>
