<?xml version="1.0" encoding="iso-8859-1"?>
<!-- Generator: Adobe Illustrator 19.0.0, SVG Export Plug-In . SVG Version: 6.00 Build 0)  -->
<svg version="1.1" id="Layer_1" xmlns="http://www.w3.org/2000/svg" xmlns:xlink="http://www.w3.org/1999/xlink" x="0px" y="0px"
	 viewBox="0 0 503.61 503.61" style="enable-background:new 0 0 503.61 503.61;" xml:space="preserve">
<g>
	<g>
		<g>
			<path d="M142.69,159.479v-16.787c0-4.636-3.758-8.393-8.393-8.393V92.463c0.001-0.261-0.015-0.522-0.039-0.784
				c-0.005-0.055-0.01-0.11-0.016-0.165c-0.027-0.241-0.061-0.482-0.11-0.723c-0.015-0.074-0.036-0.146-0.053-0.219
				c-0.074-0.317-0.165-0.632-0.279-0.946c-0.073-0.204-0.15-0.405-0.238-0.601c-0.05-0.11-0.103-0.22-0.158-0.329
				c-0.145-0.29-0.303-0.572-0.48-0.841c-0.013-0.021-0.022-0.042-0.036-0.063c-8.285-12.432-8.285-28.626-0.001-41.049
				c0.026-0.039,0.043-0.081,0.069-0.12c0.13-0.202,0.243-0.412,0.356-0.623c0.07-0.132,0.15-0.262,0.213-0.395
				c0.037-0.08,0.063-0.165,0.097-0.246c0.222-0.516,0.388-1.04,0.499-1.568c0.013-0.061,0.032-0.12,0.044-0.181
				c0.045-0.243,0.069-0.486,0.092-0.729c0.012-0.123,0.03-0.244,0.036-0.367c0.01-0.207,0.004-0.412-0.001-0.617
				c-0.004-0.166-0.005-0.331-0.019-0.497c-0.015-0.178-0.044-0.353-0.07-0.529c-0.028-0.188-0.055-0.375-0.097-0.563
				c-0.038-0.171-0.088-0.338-0.137-0.506c-0.052-0.182-0.103-0.364-0.168-0.545c-0.066-0.184-0.147-0.36-0.226-0.539
				c-0.055-0.125-0.095-0.251-0.157-0.375L116.629,4.65C115.209,1.801,112.3,0,109.116,0H92.33c-3.183,0-6.093,1.801-7.513,4.65
				L68.03,38.342c-0.062,0.124-0.102,0.251-0.158,0.376c-0.078,0.178-0.159,0.354-0.225,0.537c-0.066,0.182-0.117,0.364-0.169,0.547
				c-0.048,0.167-0.098,0.334-0.136,0.504c-0.042,0.188-0.069,0.376-0.097,0.564c-0.027,0.176-0.055,0.351-0.07,0.529
				c-0.014,0.167-0.015,0.332-0.019,0.498c-0.005,0.205-0.012,0.409-0.001,0.616c0.007,0.124,0.024,0.246,0.036,0.369
				c0.023,0.243,0.046,0.485,0.092,0.728c0.012,0.061,0.031,0.12,0.044,0.181c0.111,0.528,0.276,1.052,0.499,1.568
				c0.035,0.081,0.06,0.166,0.097,0.246c0.063,0.133,0.142,0.263,0.213,0.395c0.112,0.212,0.226,0.422,0.356,0.623
				c0.026,0.04,0.042,0.081,0.069,0.121c8.284,12.423,8.284,28.617-0.001,41.049c-0.014,0.021-0.023,0.043-0.037,0.064
				c-0.176,0.269-0.334,0.55-0.479,0.839c-0.056,0.11-0.109,0.219-0.159,0.33c-0.087,0.195-0.164,0.396-0.237,0.599
				c-0.115,0.315-0.206,0.632-0.28,0.952c-0.016,0.072-0.037,0.142-0.052,0.214c-0.049,0.242-0.084,0.483-0.111,0.725
				c-0.006,0.054-0.011,0.108-0.016,0.162c-0.024,0.263-0.04,0.525-0.039,0.787v41.834c-4.636,0-8.393,3.758-8.393,8.393v16.787
				c-4.636,0-8.393,3.758-8.393,8.393v75.541c0,4.636,3.758,8.393,8.393,8.393v25.18c0,4.636,3.758,8.393,8.393,8.393h8.393v209.836
				c0,4.636,3.758,8.393,8.393,8.393h33.574c4.636,0,8.393-3.758,8.393-8.393V285.38h8.393c4.636,0,8.393-3.758,8.393-8.393v-25.18
				c4.636,0,8.393-3.758,8.393-8.393v-75.541C151.084,163.237,147.326,159.479,142.69,159.479z M67.149,176.266h67.148v58.754
				H67.149V176.266z M88.877,50.48h23.693c-3.578,10.895-3.577,22.677,0.001,33.574H88.875
				C92.454,73.157,92.454,61.375,88.877,50.48z M97.525,16.787h6.396l8.423,16.904H89.102L97.525,16.787z M83.936,100.842h33.574
				v33.456H83.936V100.842z M75.543,151.085h50.361v8.393H75.543V151.085z M109.116,486.823H92.33V285.38h16.787V486.823z
				 M125.903,268.594h-8.393H83.936h-8.393v-16.787h50.361V268.594z"/>
			<path d="M293.772,159.479v-16.787c0-4.636-3.758-8.393-8.393-8.393V92.463c0.001-0.261-0.015-0.522-0.039-0.784
				c-0.005-0.055-0.01-0.11-0.016-0.165c-0.027-0.241-0.061-0.482-0.11-0.723c-0.015-0.074-0.036-0.146-0.053-0.219
				c-0.074-0.317-0.165-0.632-0.279-0.946c-0.073-0.204-0.15-0.405-0.238-0.601c-0.05-0.11-0.103-0.22-0.158-0.329
				c-0.145-0.29-0.303-0.572-0.48-0.841c-0.013-0.021-0.022-0.042-0.036-0.063c-8.285-12.432-8.285-28.626-0.001-41.049
				c0.026-0.039,0.043-0.081,0.069-0.121c0.13-0.202,0.244-0.412,0.356-0.623c0.07-0.132,0.15-0.262,0.213-0.395
				c0.037-0.08,0.063-0.165,0.097-0.246c0.222-0.516,0.388-1.04,0.499-1.568c0.013-0.061,0.032-0.12,0.044-0.181
				c0.045-0.243,0.069-0.485,0.092-0.728c0.012-0.123,0.03-0.245,0.036-0.369c0.01-0.206,0.004-0.411-0.001-0.616
				c-0.004-0.166-0.005-0.331-0.019-0.498c-0.015-0.178-0.044-0.353-0.07-0.529c-0.028-0.188-0.055-0.376-0.097-0.564
				c-0.038-0.171-0.088-0.337-0.136-0.504c-0.053-0.183-0.103-0.365-0.169-0.547c-0.066-0.183-0.147-0.359-0.225-0.537
				c-0.055-0.125-0.095-0.252-0.157-0.376L267.711,4.65c-1.42-2.849-4.329-4.65-7.513-4.65h-16.787c-3.183,0-6.093,1.801-7.513,4.65
				l-16.787,33.691c-0.062,0.124-0.102,0.251-0.157,0.376c-0.079,0.178-0.159,0.354-0.225,0.537
				c-0.066,0.182-0.117,0.364-0.169,0.547c-0.048,0.167-0.098,0.334-0.136,0.504c-0.042,0.188-0.069,0.376-0.097,0.564
				c-0.027,0.176-0.055,0.351-0.07,0.529c-0.014,0.167-0.015,0.332-0.019,0.498c-0.005,0.205-0.012,0.409-0.001,0.616
				c0.007,0.124,0.024,0.246,0.036,0.369c0.023,0.243,0.046,0.485,0.092,0.728c0.012,0.061,0.031,0.12,0.044,0.181
				c0.111,0.528,0.276,1.052,0.499,1.568c0.035,0.081,0.06,0.166,0.097,0.246c0.063,0.133,0.142,0.263,0.213,0.395
				c0.112,0.212,0.226,0.422,0.356,0.623c0.026,0.04,0.042,0.081,0.069,0.121c8.284,12.423,8.284,28.617-0.001,41.049
				c-0.014,0.021-0.022,0.042-0.036,0.063c-0.177,0.269-0.335,0.551-0.48,0.841c-0.055,0.109-0.108,0.219-0.158,0.329
				c-0.088,0.196-0.165,0.397-0.238,0.601c-0.114,0.314-0.205,0.629-0.279,0.946c-0.017,0.073-0.038,0.145-0.053,0.219
				c-0.049,0.241-0.083,0.481-0.11,0.723c-0.006,0.055-0.011,0.11-0.016,0.165c-0.024,0.262-0.04,0.523-0.039,0.784v41.835
				c-4.636,0-8.393,3.758-8.393,8.393v16.787c-4.636,0-8.393,3.758-8.393,8.393v75.541c0,4.636,3.758,8.393,8.393,8.393v25.18
				c0,4.636,3.758,8.393,8.393,8.393h8.393v209.836c0,4.636,3.758,8.393,8.393,8.393h33.574c4.636,0,8.393-3.758,8.393-8.393V285.38
				h8.393c4.636,0,8.393-3.758,8.393-8.393v-25.18c4.636,0,8.393-3.758,8.393-8.393v-75.541
				C302.166,163.237,298.408,159.479,293.772,159.479z M218.231,176.266h67.148v58.754h-67.148V176.266z M239.959,50.48h23.693
				c-3.578,10.895-3.577,22.677,0.001,33.574h-23.696C243.536,73.157,243.536,61.375,239.959,50.48z M248.607,16.787h6.396
				l8.423,16.904h-23.241L248.607,16.787z M235.018,100.842h33.574v33.456h-33.574V100.842z M226.625,151.085h50.361v8.393h-50.361
				V151.085z M260.198,486.823h-16.787V285.38h16.787V486.823z M276.985,268.594h-8.393h-33.574h-8.393v-16.787h50.361V268.594z"/>
			<path d="M444.854,159.479v-16.787c0-4.636-3.758-8.393-8.393-8.393V92.463c0.001-0.261-0.015-0.522-0.039-0.785
				c-0.005-0.055-0.01-0.109-0.016-0.164c-0.027-0.242-0.061-0.483-0.111-0.724c-0.015-0.073-0.035-0.143-0.052-0.214
				c-0.074-0.319-0.166-0.636-0.28-0.952c-0.073-0.203-0.15-0.403-0.237-0.599c-0.05-0.111-0.104-0.22-0.159-0.33
				c-0.145-0.289-0.302-0.57-0.479-0.839c-0.014-0.021-0.023-0.043-0.037-0.064c-8.285-12.432-8.285-28.626-0.001-41.049
				c0.026-0.039,0.043-0.081,0.069-0.121c0.13-0.202,0.244-0.412,0.356-0.623c0.07-0.132,0.15-0.262,0.213-0.395
				c0.037-0.08,0.063-0.165,0.097-0.246c0.222-0.516,0.388-1.04,0.499-1.568c0.013-0.061,0.032-0.12,0.044-0.181
				c0.045-0.243,0.069-0.485,0.092-0.728c0.012-0.123,0.03-0.245,0.036-0.369c0.01-0.206,0.004-0.411-0.001-0.616
				c-0.004-0.166-0.005-0.331-0.019-0.498c-0.015-0.178-0.044-0.353-0.07-0.529c-0.028-0.188-0.055-0.376-0.097-0.564
				c-0.038-0.171-0.088-0.337-0.136-0.504c-0.053-0.183-0.103-0.365-0.169-0.547c-0.066-0.183-0.147-0.359-0.225-0.537
				c-0.055-0.125-0.095-0.252-0.157-0.376L418.793,4.65C417.373,1.801,414.464,0,411.28,0h-16.787c-3.183,0-6.093,1.801-7.513,4.65
				l-16.787,33.691c-0.062,0.124-0.102,0.251-0.157,0.376c-0.079,0.178-0.159,0.354-0.225,0.537
				c-0.066,0.181-0.116,0.363-0.169,0.546c-0.048,0.168-0.099,0.335-0.137,0.506c-0.042,0.188-0.069,0.375-0.097,0.563
				c-0.027,0.176-0.055,0.351-0.07,0.529c-0.014,0.167-0.015,0.332-0.019,0.498c-0.005,0.205-0.012,0.409-0.001,0.616
				c0.007,0.124,0.024,0.246,0.036,0.369c0.023,0.243,0.046,0.485,0.092,0.728c0.012,0.061,0.031,0.12,0.044,0.181
				c0.111,0.528,0.276,1.052,0.499,1.568c0.035,0.081,0.06,0.166,0.097,0.246c0.063,0.133,0.142,0.263,0.213,0.395
				c0.112,0.212,0.226,0.422,0.356,0.623c0.026,0.04,0.042,0.081,0.069,0.12c8.284,12.423,8.284,28.617-0.001,41.049
				c-0.014,0.021-0.022,0.042-0.036,0.063c-0.177,0.269-0.335,0.551-0.48,0.841c-0.055,0.109-0.108,0.219-0.158,0.329
				c-0.088,0.196-0.165,0.397-0.238,0.601c-0.114,0.314-0.205,0.629-0.279,0.946c-0.017,0.073-0.038,0.145-0.053,0.219
				c-0.049,0.241-0.083,0.481-0.11,0.723c-0.006,0.055-0.011,0.11-0.016,0.165c-0.024,0.262-0.04,0.523-0.039,0.784v41.835
				c-4.636,0-8.393,3.758-8.393,8.393v16.787c-4.636,0-8.393,3.758-8.393,8.393v75.541c0,4.636,3.758,8.393,8.393,8.393v25.18
				c0,4.636,3.758,8.393,8.393,8.393h8.393v209.836c0,4.636,3.758,8.393,8.393,8.393h33.574c4.636,0,8.393-3.758,8.393-8.393V285.38
				h8.393c4.636,0,8.393-3.758,8.393-8.393v-25.18c4.636,0,8.393-3.758,8.393-8.393v-75.541
				C453.248,163.237,449.49,159.479,444.854,159.479z M369.313,176.266h67.148v58.754h-67.148V176.266z M391.04,50.48h23.693
				c-3.578,10.895-3.577,22.677,0.001,33.574h-23.696C394.618,73.157,394.618,61.375,391.04,50.48z M399.689,16.787h6.396
				l8.423,16.904h-23.241L399.689,16.787z M386.1,100.842h33.574v33.456H386.1V100.842z M377.707,151.085h50.361v8.393h-50.361
				V151.085z M411.28,486.823h-16.787V285.38h16.787V486.823z M428.067,268.594h-8.393H386.1h-8.393v-16.787h50.361V268.594z"/>
		</g>
	</g>
</g>
<g>
</g>
<g>
</g>
<g>
</g>
<g>
</g>
<g>
</g>
<g>
</g>
<g>
</g>
<g>
</g>
<g>
</g>
<g>
</g>
<g>
</g>
<g>
</g>
<g>
</g>
<g>
</g>
<g>
</g>
</svg>
