<?xml version="1.0" encoding="iso-8859-1"?>
<!-- Generator: Adobe Illustrator 19.0.0, SVG Export Plug-In . SVG Version: 6.00 Build 0)  -->
<svg version="1.1" id="Capa_1" xmlns="http://www.w3.org/2000/svg" xmlns:xlink="http://www.w3.org/1999/xlink" x="0px" y="0px"
	 viewBox="0 0 391.757 391.757" style="enable-background:new 0 0 391.757 391.757;" xml:space="preserve">
<g>
	<path d="M379.515,361.152c0,10.124-8.239,18.364-18.364,18.364H30.606c-10.124,0-18.364-8.239-18.364-18.364V30.606
		c0-10.124,8.239-18.364,18.364-18.364h330.545c10.124,0,18.364,8.239,18.364,18.364V361.152z M361.152,0H30.606
		C13.705,0,0,13.705,0,30.606v330.545c0,16.901,13.705,30.606,30.606,30.606h330.545c16.901,0,30.606-13.705,30.606-30.606V30.606
		C391.758,13.705,378.052,0,361.152,0L361.152,0z M226.485,85.697h48.97c3.367,0,6.121-2.755,6.121-6.121s-2.755-6.121-6.121-6.121
		h-48.97c-3.367,0-6.121,2.755-6.121,6.121S223.118,85.697,226.485,85.697L226.485,85.697z M312.182,73.455H299.94
		c-3.367,0-6.121,2.755-6.121,6.121s2.755,6.121,6.121,6.121h12.242c3.367,0,6.121-2.755,6.121-6.121S315.548,73.455,312.182,73.455
		L312.182,73.455z M336.667,85.697h12.242c3.367,0,6.121-2.755,6.121-6.121s-2.755-6.121-6.121-6.121h-12.242
		c-3.367,0-6.121,2.755-6.121,6.121S333.3,85.697,336.667,85.697L336.667,85.697z M97.939,79.576c0-3.367-2.755-6.121-6.121-6.121
		H79.576c-3.367,0-6.121,2.755-6.121,6.121s2.755,6.121,6.121,6.121h12.242C95.185,85.697,97.939,82.942,97.939,79.576
		L97.939,79.576z M55.091,73.455H42.848c-3.367,0-6.121,2.755-6.121,6.121s2.755,6.121,6.121,6.121H55.09
		c3.367,0,6.121-2.755,6.121-6.121S58.458,73.455,55.091,73.455L55.091,73.455z M42.848,61.212h48.97
		c3.367,0,6.121-2.755,6.121-6.121V42.848c0-3.367-2.755-6.121-6.121-6.121h-48.97c-3.367,0-6.121,2.755-6.121,6.121V55.09
		C36.727,58.458,39.482,61.212,42.848,61.212L42.848,61.212z M355.03,122.424c0,3.373-2.748,6.121-6.121,6.121
		s-6.121-2.748-6.121-6.121s2.748-6.121,6.121-6.121S355.03,119.051,355.03,122.424L355.03,122.424z M336.667,122.424
		c0,6.764,5.478,12.242,12.242,12.242s12.242-5.478,12.242-12.242s-5.478-12.242-12.242-12.242S336.667,115.66,336.667,122.424
		L336.667,122.424z M287.697,128.545c-3.373,0-6.121-2.748-6.121-6.121s2.748-6.121,6.121-6.121c3.373,0,6.121,2.748,6.121,6.121
		S291.07,128.545,287.697,128.545L287.697,128.545z M287.697,110.182c-6.764,0-12.242,5.478-12.242,12.242
		c0,6.764,5.478,12.242,12.242,12.242s12.242-5.478,12.242-12.242S294.461,110.182,287.697,110.182L287.697,110.182z
		 M226.485,116.303c3.373,0,6.121,2.748,6.121,6.121s-2.748,6.121-6.121,6.121s-6.121-2.748-6.121-6.121
		C220.364,119.051,223.112,116.303,226.485,116.303L226.485,116.303z M226.485,134.667c6.764,0,12.242-5.478,12.242-12.242
		s-5.479-12.242-12.242-12.242s-12.242,5.478-12.242,12.242C214.242,129.188,219.721,134.667,226.485,134.667L226.485,134.667z
		 M165.273,116.303c3.373,0,6.121,2.748,6.121,6.121s-2.748,6.121-6.121,6.121s-6.121-2.748-6.121-6.121
		C159.152,119.051,161.9,116.303,165.273,116.303L165.273,116.303z M165.273,134.667c6.764,0,12.242-5.478,12.242-12.242
		s-5.478-12.242-12.242-12.242c-6.764,0-12.242,5.478-12.242,12.242C153.03,129.188,158.509,134.667,165.273,134.667
		L165.273,134.667z M104.061,116.303c3.373,0,6.121,2.748,6.121,6.121s-2.748,6.121-6.121,6.121s-6.121-2.748-6.121-6.121
		C97.939,119.051,100.688,116.303,104.061,116.303L104.061,116.303z M91.818,122.424c0,6.764,5.478,12.242,12.242,12.242
		s12.242-5.478,12.242-12.242s-5.478-12.242-12.242-12.242C97.297,110.182,91.818,115.66,91.818,122.424L91.818,122.424z
		 M42.848,116.303c3.373,0,6.121,2.748,6.121,6.121s-2.748,6.121-6.121,6.121c-3.373,0-6.121-2.748-6.121-6.121
		C36.727,119.051,39.476,116.303,42.848,116.303L42.848,116.303z M42.848,134.667c6.764,0,12.242-5.478,12.242-12.242
		s-5.478-12.242-12.242-12.242s-12.242,5.478-12.242,12.242C30.606,129.188,36.085,134.667,42.848,134.667L42.848,134.667z
		 M348.909,165.273c-3.373,0-6.121-2.748-6.121-6.121s2.748-6.121,6.121-6.121s6.121,2.748,6.121,6.121
		C355.03,162.524,352.282,165.273,348.909,165.273L348.909,165.273z M348.909,146.909c-6.764,0-12.242,5.478-12.242,12.242
		s5.478,12.242,12.242,12.242s12.242-5.478,12.242-12.242C361.152,152.388,355.673,146.909,348.909,146.909L348.909,146.909z
		 M287.697,165.273c-3.373,0-6.121-2.748-6.121-6.121s2.748-6.121,6.121-6.121c3.373,0,6.121,2.748,6.121,6.121
		C293.818,162.524,291.07,165.273,287.697,165.273L287.697,165.273z M287.697,146.909c-6.764,0-12.242,5.478-12.242,12.242
		s5.478,12.242,12.242,12.242s12.242-5.478,12.242-12.242C299.939,152.388,294.461,146.909,287.697,146.909L287.697,146.909z
		 M226.485,153.03c3.373,0,6.121,2.748,6.121,6.121s-2.748,6.121-6.121,6.121s-6.121-2.748-6.121-6.121
		C220.364,155.779,223.112,153.03,226.485,153.03L226.485,153.03z M226.485,171.394c6.764,0,12.242-5.478,12.242-12.242
		c0-6.764-5.479-12.242-12.242-12.242s-12.242,5.478-12.242,12.242C214.242,165.915,219.721,171.394,226.485,171.394
		L226.485,171.394z M165.273,153.03c3.373,0,6.121,2.748,6.121,6.121s-2.748,6.121-6.121,6.121s-6.121-2.748-6.121-6.121
		C159.152,155.779,161.9,153.03,165.273,153.03L165.273,153.03z M165.273,171.394c6.764,0,12.242-5.478,12.242-12.242
		c0-6.764-5.478-12.242-12.242-12.242c-6.764,0-12.242,5.478-12.242,12.242C153.03,165.915,158.509,171.394,165.273,171.394
		L165.273,171.394z M104.061,165.273c-3.373,0-6.121-2.748-6.121-6.121s2.748-6.121,6.121-6.121s6.121,2.748,6.121,6.121
		C110.182,162.524,107.433,165.273,104.061,165.273L104.061,165.273z M104.061,146.909c-6.764,0-12.242,5.478-12.242,12.242
		s5.478,12.242,12.242,12.242s12.242-5.478,12.242-12.242C116.303,152.388,110.825,146.909,104.061,146.909L104.061,146.909z
		 M42.848,153.03c3.373,0,6.121,2.748,6.121,6.121s-2.748,6.121-6.121,6.121c-3.373,0-6.121-2.748-6.121-6.121
		C36.727,155.779,39.476,153.03,42.848,153.03L42.848,153.03z M42.848,171.394c6.764,0,12.242-5.478,12.242-12.242
		c0-6.764-5.478-12.242-12.242-12.242s-12.242,5.478-12.242,12.242C30.606,165.915,36.085,171.394,42.848,171.394L42.848,171.394z
		 M306.061,36.727c-6.764,0-12.242,5.478-12.242,12.242s5.478,12.242,12.242,12.242s12.242-5.478,12.242-12.242
		S312.825,36.727,306.061,36.727L306.061,36.727z M342.788,61.212c6.764,0,12.242-5.478,12.242-12.242s-5.478-12.242-12.242-12.242
		s-12.242,5.478-12.242,12.242S336.024,61.212,342.788,61.212L342.788,61.212z M42.848,244.848c6.764,0,12.242-5.478,12.242-12.242
		c0-6.764-5.478-12.242-12.242-12.242s-12.242,5.478-12.242,12.242C30.606,239.37,36.085,244.848,42.848,244.848L42.848,244.848z
		 M42.848,208.121c6.764,0,12.242-5.478,12.242-12.242s-5.478-12.242-12.242-12.242s-12.242,5.478-12.242,12.242
		C30.606,202.643,36.085,208.121,42.848,208.121L42.848,208.121z M104.061,220.364c-6.764,0-12.242,5.478-12.242,12.242
		c0,6.764,5.478,12.242,12.242,12.242s12.242-5.478,12.242-12.242C116.303,225.842,110.825,220.364,104.061,220.364L104.061,220.364
		z M104.061,183.636c-6.764,0-12.242,5.478-12.242,12.242c0,6.764,5.478,12.242,12.242,12.242s12.242-5.478,12.242-12.242
		C116.303,189.115,110.825,183.636,104.061,183.636L104.061,183.636z M165.273,244.848c6.764,0,12.242-5.478,12.242-12.242
		c0-6.764-5.478-12.242-12.242-12.242c-6.764,0-12.242,5.478-12.242,12.242C153.03,239.37,158.509,244.848,165.273,244.848
		L165.273,244.848z M165.273,208.121c6.764,0,12.242-5.478,12.242-12.242s-5.478-12.242-12.242-12.242
		c-6.764,0-12.242,5.478-12.242,12.242C153.03,202.643,158.509,208.121,165.273,208.121L165.273,208.121z M226.485,244.848
		c6.764,0,12.242-5.478,12.242-12.242c0-6.764-5.479-12.242-12.242-12.242s-12.242,5.478-12.242,12.242
		C214.242,239.37,219.721,244.848,226.485,244.848L226.485,244.848z M226.485,208.121c6.764,0,12.242-5.478,12.242-12.242
		s-5.479-12.242-12.242-12.242s-12.242,5.478-12.242,12.242C214.242,202.643,219.721,208.121,226.485,208.121L226.485,208.121z
		 M287.697,220.364c-6.764,0-12.242,5.478-12.242,12.242c0,6.764,5.478,12.242,12.242,12.242s12.242-5.478,12.242-12.242
		S294.461,220.364,287.697,220.364L287.697,220.364z M287.697,183.636c-6.764,0-12.242,5.478-12.242,12.242
		c0,6.764,5.478,12.242,12.242,12.242s12.242-5.478,12.242-12.242C299.939,189.115,294.461,183.636,287.697,183.636L287.697,183.636
		z M348.909,220.364c-6.764,0-12.242,5.478-12.242,12.242c0,6.764,5.478,12.242,12.242,12.242s12.242-5.478,12.242-12.242
		C361.152,225.842,355.673,220.364,348.909,220.364L348.909,220.364z M348.909,183.636c-6.764,0-12.242,5.478-12.242,12.242
		c0,6.764,5.478,12.242,12.242,12.242s12.242-5.478,12.242-12.242C361.152,189.115,355.673,183.636,348.909,183.636L348.909,183.636
		z M226.485,55.091c3.379,0,6.121-2.742,6.121-6.121s-2.742-6.121-6.121-6.121s-6.121,2.742-6.121,6.121
		S223.106,55.091,226.485,55.091L226.485,55.091z M250.97,55.091c3.379,0,6.121-2.742,6.121-6.121s-2.742-6.121-6.121-6.121
		s-6.121,2.742-6.121,6.121S247.591,55.091,250.97,55.091L250.97,55.091z M275.455,55.091c3.379,0,6.121-2.742,6.121-6.121
		s-2.742-6.121-6.121-6.121s-6.121,2.742-6.121,6.121S272.076,55.091,275.455,55.091L275.455,55.091z M361.152,306.061h-6.121
		v-30.606c0-3.379-2.742-6.121-6.121-6.121s-6.121,2.742-6.121,6.121v30.606h-6.121c-3.367,0-6.121,2.755-6.121,6.121
		s2.755,6.121,6.121,6.121h6.121v30.606c0,3.379,2.742,6.121,6.121,6.121s6.121-2.742,6.121-6.121v-30.606h6.121
		c3.367,0,6.121-2.755,6.121-6.121S364.518,306.061,361.152,306.061L361.152,306.061z M299.939,293.818h-6.121v-18.364
		c0-3.379-2.742-6.121-6.121-6.121s-6.121,2.742-6.121,6.121v18.364h-6.121c-3.367,0-6.121,2.755-6.121,6.121
		s2.755,6.121,6.121,6.121h6.121v42.848c0,3.379,2.742,6.121,6.121,6.121s6.121-2.742,6.121-6.121V306.06h6.121
		c3.367,0,6.121-2.755,6.121-6.121S303.306,293.818,299.939,293.818L299.939,293.818z M238.727,281.576h-6.121v-6.121
		c0-3.379-2.742-6.121-6.121-6.121s-6.121,2.742-6.121,6.121v6.121h-6.121c-3.367,0-6.121,2.755-6.121,6.121
		c0,3.367,2.755,6.121,6.121,6.121h6.121v55.091c0,3.379,2.742,6.121,6.121,6.121s6.121-2.742,6.121-6.121v-55.091h6.121
		c3.367,0,6.121-2.755,6.121-6.121C244.848,284.33,242.094,281.576,238.727,281.576L238.727,281.576z M177.515,306.061h-6.121
		v-30.606c0-3.379-2.742-6.121-6.121-6.121s-6.121,2.742-6.121,6.121v30.606h-6.121c-3.367,0-6.121,2.755-6.121,6.121
		s2.755,6.121,6.121,6.121h6.121v30.606c0,3.379,2.742,6.121,6.121,6.121s6.121-2.742,6.121-6.121v-30.606h6.121
		c3.367,0,6.121-2.755,6.121-6.121S180.882,306.061,177.515,306.061L177.515,306.061z M116.303,318.303h-6.121v-42.848
		c0-3.379-2.742-6.121-6.121-6.121c-3.379,0-6.121,2.742-6.121,6.121v42.848h-6.121c-3.367,0-6.121,2.755-6.121,6.121
		c0,3.367,2.755,6.121,6.121,6.121h6.121v18.364c0,3.379,2.742,6.121,6.121,6.121c3.379,0,6.121-2.742,6.121-6.121v-18.364h6.121
		c3.367,0,6.121-2.755,6.121-6.121S119.67,318.303,116.303,318.303L116.303,318.303z M55.091,293.818H48.97v-18.364
		c0-3.379-2.742-6.121-6.121-6.121s-6.121,2.742-6.121,6.121v18.364h-6.121c-3.367,0-6.121,2.755-6.121,6.121
		s2.755,6.121,6.121,6.121h6.121v42.848c0,3.379,2.742,6.121,6.121,6.121s6.121-2.742,6.121-6.121V306.06h6.121
		c3.367,0,6.121-2.755,6.121-6.121S58.458,293.818,55.091,293.818L55.091,293.818z"/>
</g>
<g>
</g>
<g>
</g>
<g>
</g>
<g>
</g>
<g>
</g>
<g>
</g>
<g>
</g>
<g>
</g>
<g>
</g>
<g>
</g>
<g>
</g>
<g>
</g>
<g>
</g>
<g>
</g>
<g>
</g>
</svg>
