<?xml version="1.0" encoding="iso-8859-1"?>
<!-- Generator: Adobe Illustrator 19.0.0, SVG Export Plug-In . SVG Version: 6.00 Build 0)  -->
<svg version="1.1" id="Capa_1" xmlns="http://www.w3.org/2000/svg" xmlns:xlink="http://www.w3.org/1999/xlink" x="0px" y="0px"
	 viewBox="0 0 496 496" style="enable-background:new 0 0 496 496;" xml:space="preserve">
<g>
	<g>
		<g>
			<path d="M120,384h176v-64H120V384z M136,336h144v32H136V336z"/>
			<path d="M312,384h64v-64h-64V384z M328,336h32v32h-32V336z"/>
			<path d="M152,424c-13.232,0-24,10.768-24,24s10.768,24,24,24s24-10.768,24-24S165.232,424,152,424z M152,456
				c-4.416,0-8-3.584-8-8c0-4.416,3.584-8,8-8s8,3.584,8,8C160,452.416,156.416,456,152,456z"/>
			<path d="M216,424c-13.232,0-24,10.768-24,24s10.768,24,24,24s24-10.768,24-24S229.232,424,216,424z M216,456
				c-4.416,0-8-3.584-8-8c0-4.416,3.584-8,8-8s8,3.584,8,8C224,452.416,220.416,456,216,456z"/>
			<path d="M280,424c-13.232,0-24,10.768-24,24s10.768,24,24,24s24-10.768,24-24S293.232,424,280,424z M280,456
				c-4.416,0-8-3.584-8-8c0-4.416,3.584-8,8-8c4.416,0,8,3.584,8,8C288,452.416,284.416,456,280,456z"/>
			<path d="M344,424c-13.232,0-24,10.768-24,24s10.768,24,24,24s24-10.768,24-24S357.232,424,344,424z M344,456
				c-4.416,0-8-3.584-8-8c0-4.416,3.584-8,8-8c4.416,0,8,3.584,8,8C352,452.416,348.416,456,344,456z"/>
			<path d="M456,0H296c-22.056,0-40,17.944-40,40v248h-32V40c0-22.056-17.944-40-40-40H40C17.944,0,0,17.944,0,40v272
				c0,22.056,17.944,40,40,40h48v104c0,22.056,17.944,40,40,40h240c22.056,0,40-17.944,40-40v-88h48c22.056,0,40-17.944,40-40V40
				C496,17.944,478.056,0,456,0z M16,40c0-13.232,10.768-24,24-24h144c13.232,0,24,10.768,24,24v8H16V40z M195.312,248L208,235.312
				v25.376L195.312,248z M208,283.312v1.376L204.688,288h-41.376l-4-4L184,259.312L208,283.312z M184,236.688l-6.384-6.384
				l-11.312,11.312l6.384,6.384L148,272.688L123.312,248L148,223.312l8.136,8.136l11.312-11.312L159.312,212L184,187.312l24,24
				v1.376L184,236.688z M87.312,68l4-4h41.368l4,4L112,92.688l-7.776-7.776L92.912,96.224l7.776,7.776L76,128.688L51.312,104
				L76,79.312l7.696,7.696l11.312-11.312L87.312,68z M148,151.312L172.688,176L148,200.688L123.312,176L148,151.312z M112,164.688
				L87.312,140L112,115.312L136.688,140L112,164.688z M123.312,104L148,79.312L172.688,104L148,128.688L123.312,104z M100.688,176
				L76,200.688L51.312,176L76,151.312L100.688,176z M100.688,248L76,272.688L51.312,248L76,223.312L100.688,248z M87.312,212
				L112,187.312L136.688,212L112,236.688L87.312,212z M195.312,176L208,163.312v25.376L195.312,176z M184,164.688L159.312,140
				L184,115.312l24,24v1.376L184,164.688z M195.312,104L208,91.312v25.376L195.312,104z M184,92.688L159.312,68l4-4h41.368
				l3.32,3.312v1.376L184,92.688z M16,67.312L19.312,64H60.68l4,4L40,92.688l-24-24V67.312z M16,91.312L28.688,104L16,116.688
				V91.312z M16,139.312l24-24L64.688,140L40,164.688l-24-24V139.312z M16,163.312L28.688,176L16,188.688V163.312z M16,211.312
				l24-24L64.688,212L40,236.688l-24-24V211.312z M16,235.312L28.688,248L16,260.688V235.312z M16,283.312l24-24L64.688,284l-4,4
				H19.312L16,284.688V283.312z M88,328v8H40c-13.232,0-24-10.768-24-24v-8h80.208C91.128,310.704,88,318.96,88,328z M91.312,288
				l-4-4L112,259.312L136.688,284l-4,4H128H91.312z M392,400h-16v16h16v40c0,13.232-10.768,24-24,24H128c-13.232,0-24-10.768-24-24
				v-40h256v-16H104v-72c0-13.232,10.768-24,24-24h88h152c13.232,0,24,10.768,24,24V400z M360,264c0-8.824,7.176-16,16-16
				c8.824,0,16,7.176,16,16c0,8.824-7.176,16-16,16C367.176,280,360,272.824,360,264z M404.672,312.12
				c-3.4-7.824-9.296-14.24-16.608-18.52C399.744,288.824,408,277.376,408,264c0-17.648-14.352-32-32-32s-32,14.352-32,32
				c0,9.608,4.336,18.128,11.056,24H325.52c-3.552-7.472-5.52-15.656-5.52-24c0-30.88,25.128-56,56-56s56,25.12,56,56
				C432,284.04,421.504,302.128,404.672,312.12z M480,328c0,13.232-10.768,24-24,24h-48v-23.712c24.4-12.12,40-36.68,40-64.288
				c0-39.696-32.296-72-72-72c-39.704,0-72,32.304-72,72c0,8.224,1.552,16.32,4.264,24H272V40c0-13.232,10.768-24,24-24h160
				c13.232,0,24,10.768,24,24V328z"/>
			<path d="M376,64c-17.648,0-32,14.352-32,32s14.352,32,32,32s32-14.352,32-32S393.648,64,376,64z M376,112
				c-8.824,0-16-7.176-16-16s7.176-16,16-16c8.824,0,16,7.176,16,16S384.824,112,376,112z"/>
			<path d="M376,32c-35.288,0-64,28.712-64,64c0,35.288,28.712,64,64,64c35.288,0,64-28.712,64-64C440,60.712,411.288,32,376,32z
				 M376,144c-26.472,0-48-21.528-48-48s21.528-48,48-48s48,21.528,48,48S402.472,144,376,144z"/>
		</g>
	</g>
</g>
<g>
</g>
<g>
</g>
<g>
</g>
<g>
</g>
<g>
</g>
<g>
</g>
<g>
</g>
<g>
</g>
<g>
</g>
<g>
</g>
<g>
</g>
<g>
</g>
<g>
</g>
<g>
</g>
<g>
</g>
</svg>
