<?xml version="1.0" encoding="iso-8859-1"?>
<!-- Generator: Adobe Illustrator 19.0.0, SVG Export Plug-In . SVG Version: 6.00 Build 0)  -->
<svg version="1.1" id="Layer_1" xmlns="http://www.w3.org/2000/svg" xmlns:xlink="http://www.w3.org/1999/xlink" x="0px" y="0px"
	 viewBox="0 0 512 512" style="enable-background:new 0 0 512 512;" xml:space="preserve">
<g>
	<g>
		<path d="M336,312H176c-11.2,0-20,8.8-20,20v176c0,2.4,1.6,4,4,4h192c2.4,0,4-1.6,4-4V332C356,320.8,347.2,312,336,312z M348,504
			H164V332c0-6.8,5.2-12,12-12h160c6.8,0,12,5.2,12,12V504z"/>
	</g>
</g>
<g>
	<g>
		<path d="M120,108H48c-11.2,0-20,8.8-20,20v380c0,2.4,1.6,4,4,4h104c2.4,0,4-1.6,4-4V128C140,116.8,131.2,108,120,108z
			 M132.001,504L132.001,504H36V128c0-6.8,5.2-12,12-12h72c6.8,0,12,5.2,12,12V504z"/>
	</g>
</g>
<g>
	<g>
		<path d="M224,0h-48c-11.2,0-20,8.8-20,20v272c0,2.4,1.6,4.001,4,4.001h80c2.4,0,4-1.6,4-4V20C244,8.8,235.2,0,224,0z M236,288h-72
			V20h0c0-6.8,5.2-12,12-12h48c6.8,0,12,5.2,12,12V288z"/>
	</g>
</g>
<g>
	<g>
		<path d="M84,412c-20,0-36,16-36,36s16,36,36,36c20,0,36-16,36-36S104,412,84,412z M84,476c-15.6,0-28-12.4-28-28s12.4-28,28-28
			c15.6,0,28,12.4,28,28S99.6,476,84,476z"/>
	</g>
</g>
<g>
	<g>
		<path d="M84,320c-20,0-36,16-36,36c0,20,16,36,36,36c20,0,36-16,36-36C120,336,104,320,84,320z M84,384c-15.6,0-28-12.4-28-28
			s12.4-28,28-28c15.6,0,28,12.4,28,28S99.6,384,84,384z"/>
	</g>
</g>
<g>
	<g>
		<path d="M84,228c-20,0-36,16-36,36c0,20,16,36,36,36c20,0,36-16,36-36C120,244,104,228,84,228z M84,292c-15.6,0-28-12.4-28-28
			c0-15.6,12.4-28,28-28c15.6,0,28,12.4,28,28C112,279.6,99.6,292,84,292z"/>
	</g>
</g>
<g>
	<g>
		<path d="M84,136c-20,0-36,16-36,36c0,20,16,36,36,36c20,0,36-16,36-36C120,152,104,136,84,136z M84,200c-15.6,0-28-12.4-28-28
			c0-15.6,12.4-28,28-28c15.6,0,28,12.4,28,28S99.6,200,84,200z"/>
	</g>
</g>
<g>
	<g>
		<path d="M96,168c-2.4,0-4,1.6-4,4c0,4.4-3.6,8-8,8s-8-3.6-8-8c0-4.401,3.6-8,8-8c2.4,0,4-1.6,4-4c0-2.399-1.6-4-4-4
			c-8.8,0-16,7.2-16,16c0,8.8,7.2,16,16,16c8.8,0,16-7.2,16-16C100,169.6,98.4,168,96,168z"/>
	</g>
</g>
<g>
	<g>
		<path d="M96,260c-2.4,0-4,1.6-4,4c0,4.4-3.6,8-8,8s-8-3.6-8-8s3.601-8,8-8c2.4,0,4-1.6,4-4c0-2.399-1.6-4-4-4c-8.8,0-16,7.2-16,16
			s7.2,16,16,16c8.8,0,16-7.2,16-16C100,261.6,98.4,260,96,260z"/>
	</g>
</g>
<g>
	<g>
		<path d="M96,352c-2.4,0-4,1.6-4,4c0,4.4-3.6,8-8,8s-8-3.6-8-8s3.6-8,8-8c2.4,0,4-1.6,4-4c0-2.399-1.6-4-4-4c-8.8,0-16,7.2-16,16
			s7.2,16,16,16c8.8,0,16-7.2,16-16C100,353.6,98.4,352,96,352z"/>
	</g>
</g>
<g>
	<g>
		<path d="M96,444c-2.4,0-4,1.6-4,4c0,4.4-3.6,8-8,8s-8-3.6-8-8s3.6-8,8-8c2.4,0,4-1.6,4-4s-1.6-4-4-4c-8.8,0-16,7.2-16,16
			s7.2,16,16,16c8.8,0,16-7.2,16-16C100,445.6,98.4,444,96,444z"/>
	</g>
</g>
<g>
	<g>
		<path d="M464,108h-72c-11.2,0-20,8.8-20,20v380c0,2.4,1.6,4,4,4h104c2.4,0,4-1.6,4-4V128C484,116.8,475.2,108,464,108z
			 M476.001,504L476.001,504H380V128c0-6.8,5.2-12,12-12h72c6.8,0,12,5.2,12,12V504z"/>
	</g>
</g>
<g>
	<g>
		<path d="M428,412c-20,0-36,16-36,36s16,36,36,36c20,0,36-16,36-36S448,412,428,412z M428,476c-15.6,0-28-12.4-28-28s12.4-28,28-28
			s28,12.4,28,28S443.6,476,428,476z"/>
	</g>
</g>
<g>
	<g>
		<path d="M428,320c-20,0-36,16-36,36c0,20,16,36,36,36c20,0,36-16,36-36C464,336,448,320,428,320z M428,384c-15.6,0-28-12.4-28-28
			s12.4-28,28-28s28,12.4,28,28S443.6,384,428,384z"/>
	</g>
</g>
<g>
	<g>
		<path d="M428,228c-20,0-36,16-36,36c0,20,16,36,36,36c20,0,36-16,36-36C464,244,448,228,428,228z M428,292c-15.6,0-28-12.4-28-28
			c0-15.6,12.4-28,28-28s28,12.4,28,28C456,279.6,443.6,292,428,292z"/>
	</g>
</g>
<g>
	<g>
		<path d="M428,136c-20,0-36,16-36,36c0,20,16,36,36,36c20,0,36-16,36-36C464,152,448,136,428,136z M428,200c-15.6,0-28-12.4-28-28
			c0-15.6,12.4-28,28-28s28,12.4,28,28S443.6,200,428,200z"/>
	</g>
</g>
<g>
	<g>
		<path d="M440,168c-2.4,0-4,1.6-4,4c0,4.4-3.6,8-8,8c-4.4,0-8-3.6-8-8c0-4.401,3.6-8,8-8c2.4,0,4-1.6,4-4c0-2.399-1.6-4-4-4
			c-8.8,0-16,7.2-16,16c0,8.8,7.2,16,16,16c8.8,0,16-7.2,16-16C444,169.6,442.4,168,440,168z"/>
	</g>
</g>
<g>
	<g>
		<path d="M440,260c-2.4,0-4,1.6-4,4c0,4.4-3.6,8-8,8c-4.4,0-8-3.6-8-8s3.6-8,8-8c2.4,0,4-1.6,4-4s-1.6-4-4-4c-8.8,0-16,7.2-16,16
			c0,8.8,7.2,16,16,16c8.8,0,16-7.2,16-16C444,261.6,442.4,260,440,260z"/>
	</g>
</g>
<g>
	<g>
		<path d="M440,352c-2.4,0-4,1.6-4,4c0,4.4-3.6,8-8,8c-4.4,0-8-3.6-8-8s3.6-8,8-8c2.4,0,4-1.6,4-4c0-2.399-1.6-4-4-4
			c-8.8,0-16,7.2-16,16s7.2,16,16,16c8.8,0,16-7.2,16-16C444,353.6,442.4,352,440,352z"/>
	</g>
</g>
<g>
	<g>
		<path d="M440,444c-2.4,0-4,1.6-4,4c0,4.4-3.6,8-8,8c-4.4,0-8-3.6-8-8s3.6-8,8-8c2.4,0,4-1.6,4-4s-1.6-4-4-4c-8.8,0-16,7.2-16,16
			s7.2,16,16,16c8.8,0,16-7.2,16-16C444,445.6,442.4,444,440,444z"/>
	</g>
</g>
<g>
	<g>
		<path d="M256,344c-37.6,0-68,30.4-68,68c0,37.6,30.4,68,68,68s68-30.4,68-68C324,374.4,293.6,344,256,344z M256,472
			c-33.2,0-60-26.8-60-60c0-33.201,26.801-60,60-60c33.2,0,60,26.8,60,60C316,445.201,289.2,472,256,472z"/>
	</g>
</g>
<g>
	<g>
		<path d="M290.8,403.2c-0.4-2.4-2.8-3.6-4.8-3.2s-3.6,2.8-2.8,4.8c0.4,2.4,0.8,4.8,0.8,6.8c0,15.6-12.4,28-28,28s-28-12.4-28-28
			s12.4-28,28-28c2.8,0,5.6,0.4,8,1.2c2,0.8,4.4-0.4,4.8-2.8c0.8-2-0.4-4.4-2.8-4.8c-3.2-0.8-6.4-1.2-10-1.2c-20,0-36,16-36,36
			S236,448,256,448s36-16,36-36C292,408.8,291.6,406,290.8,403.2z"/>
	</g>
</g>
<g>
	<g>
		<path d="M200,220c-13.2,0-24,10.8-24,24c0,13.2,10.8,24,24,24s24-10.8,24-24C224,230.8,213.2,220,200,220z M200,260
			c-8.8,0-16-7.2-16-16c0-8.8,7.2-16,16-16s16,7.2,16,16C216,252.8,208.8,260,200,260z"/>
	</g>
</g>
<g>
	<g>
		<path d="M200,156c-13.2,0-24,10.8-24,24s10.8,24,24,24s24-10.8,24-24S213.2,156,200,156z M200,196c-8.8,0-16-7.2-16-16
			c0-8.8,7.2-16,16-16s16,7.2,16,16C216,188.8,208.8,196,200,196z"/>
	</g>
</g>
<g>
	<g>
		<path d="M200,92c-13.2,0-24,10.8-24,24c0,13.201,10.8,24,24,24s24-10.8,24-24S213.2,92,200,92z M200,132c-8.8,0-16-7.2-16-16
			c0-8.8,7.2-16,16-16s16,7.2,16,16C216,124.8,208.8,132,200,132z"/>
	</g>
</g>
<g>
	<g>
		<path d="M200,28c-13.2,0-24,10.8-24,24c0,13.201,10.8,24,24,24s24-10.8,24-24S213.2,28,200,28z M200,68c-8.8,0-16-7.2-16-16
			c0-8.8,7.2-16,16-16s16,7.2,16,16C216,60.8,208.8,68,200,68z"/>
	</g>
</g>
<g>
	<g>
		<path d="M336,0h-48c-11.2,0-20,8.8-20,20v272c0,2.4,1.6,4,4,4h80c2.4,0,4-1.6,4-4V20C356,8.8,347.2,0,336,0z M348,288h-72V20
			c0-6.8,5.2-12,12-12h48c6.8,0,12,5.2,12,12V288z"/>
	</g>
</g>
<g>
	<g>
		<path d="M312,220c-13.2,0-24,10.8-24,24c0,13.2,10.8,24,24,24c13.201,0,24-10.8,24-24C336,230.8,325.2,220,312,220z M312,260
			c-8.8,0-16-7.2-16-16c0-8.8,7.2-16,16-16s16,7.2,16,16C328,252.8,320.8,260,312,260z"/>
	</g>
</g>
<g>
	<g>
		<path d="M312,156c-13.2,0-24,10.8-24,24s10.8,24,24,24c13.201,0,24-10.8,24-24S325.2,156,312,156z M312,196c-8.8,0-16-7.2-16-16
			c0-8.8,7.2-16,16-16s16,7.2,16,16C328,188.8,320.8,196,312,196z"/>
	</g>
</g>
<g>
	<g>
		<path d="M312,92c-13.2,0-24,10.8-24,24c0,13.201,10.8,24,24,24c13.201,0,24-10.8,24-24S325.2,92,312,92z M312,132
			c-8.8,0-16-7.2-16-16c0-8.8,7.2-16,16-16s16,7.2,16,16C328,124.8,320.8,132,312,132z"/>
	</g>
</g>
<g>
	<g>
		<path d="M312,28c-13.2,0-24,10.8-24,24c0,13.201,10.8,24,24,24c13.201,0,24-10.8,24-24S325.2,28,312,28z M312,68
			c-8.8,0-16-7.2-16-16c0-8.8,7.2-16,16-16s16,7.2,16,16C328,60.8,320.8,68,312,68z"/>
	</g>
</g>
<g>
</g>
<g>
</g>
<g>
</g>
<g>
</g>
<g>
</g>
<g>
</g>
<g>
</g>
<g>
</g>
<g>
</g>
<g>
</g>
<g>
</g>
<g>
</g>
<g>
</g>
<g>
</g>
<g>
</g>
</svg>
