<?xml version="1.0" encoding="iso-8859-1"?>
<!-- Generator: Adobe Illustrator 19.0.0, SVG Export Plug-In . SVG Version: 6.00 Build 0)  -->
<svg version="1.1" id="Capa_1" xmlns="http://www.w3.org/2000/svg" xmlns:xlink="http://www.w3.org/1999/xlink" x="0px" y="0px"
	 viewBox="0 0 60 60" style="enable-background:new 0 0 60 60;" xml:space="preserve">
<g>
	<g>
		<path d="M54.581,4H43.5V2.919C43.5,1.31,42.19,0,40.581,0H5.419C3.81,0,2.5,1.31,2.5,2.919v47.283C2.5,51.745,3.755,53,5.298,53
			H16.5v1.202c0,1.543,1.255,2.798,2.798,2.798h35.404c1.543,0,2.798-1.255,2.798-2.798V6.919C57.5,5.31,56.19,4,54.581,4z
			 M16.5,45.444c-4.839-2.438-8-7.468-8-12.944s3.161-10.507,8-12.944V45.444z M16.5,6.919v10.444c-6.006,2.584-10,8.573-10,15.137
			s3.994,12.553,10,15.137V51H5.298C4.858,51,4.5,50.643,4.5,50.202V19h4c0.552,0,1-0.447,1-1s-0.448-1-1-1h-4v-2h4
			c0.552,0,1-0.447,1-1s-0.448-1-1-1h-4v-2h4c0.552,0,1-0.447,1-1s-0.448-1-1-1h-4V7h4c0.552,0,1-0.447,1-1s-0.448-1-1-1h-4V2.919
			C4.5,2.412,4.912,2,5.419,2h35.162C41.088,2,41.5,2.412,41.5,2.919V4H19.419C17.81,4,16.5,5.31,16.5,6.919z M55.5,54.202
			c0,0.44-0.358,0.798-0.798,0.798H19.298c-0.44,0-0.798-0.357-0.798-0.798V53v-4.573V23h4c0.552,0,1-0.447,1-1s-0.448-1-1-1h-4v-2
			h4c0.552,0,1-0.447,1-1s-0.448-1-1-1h-4v-0.427V15h4c0.552,0,1-0.447,1-1s-0.448-1-1-1h-4v-2h4c0.552,0,1-0.447,1-1s-0.448-1-1-1
			h-4V6.919C18.5,6.412,18.912,6,19.419,6H43.5h11.081C55.088,6,55.5,6.412,55.5,6.919V54.202z"/>
		<path d="M37,31c-3.033,0-5.5,2.468-5.5,5.5S33.967,42,37,42s5.5-2.468,5.5-5.5S40.033,31,37,31z M37,40c-1.93,0-3.5-1.57-3.5-3.5
			S35.07,33,37,33s3.5,1.57,3.5,3.5S38.93,40,37,40z"/>
		<path d="M53.5,18.5c0-5.238-4.262-9.5-9.5-9.5s-9.5,4.262-9.5,9.5c0,0.567,0.066,1.129,0.166,1.685
			C26.672,21.325,20.5,28.197,20.5,36.5C20.5,45.598,27.902,53,37,53s16.5-7.402,16.5-16.5c0-3.964-1.407-7.606-3.746-10.454
			C52.089,24.262,53.5,21.469,53.5,18.5z M51.5,36.5C51.5,44.495,44.995,51,37,51s-14.5-6.505-14.5-14.5
			c0-7.454,5.655-13.607,12.899-14.406l0.596-0.043C36.328,22.028,36.661,22,37,22c1.055,0,2.081,0.12,3.072,0.335l0.004,0.005
			l0.254,0.062c0.036,0.009,0.071,0.019,0.106,0.027c0.527,0.129,1.04,0.289,1.542,0.471c0.129,0.047,0.26,0.091,0.387,0.142
			c0.188,0.074,0.372,0.155,0.556,0.237c0.227,0.102,0.451,0.211,0.672,0.324c0.049,0.026,0.1,0.048,0.149,0.074
			c0.074,0.039,0.15,0.074,0.224,0.114c0.205,0.113,0.399,0.241,0.598,0.364c0.209,0.129,0.422,0.252,0.625,0.392
			c0.132,0.091,0.256,0.193,0.385,0.288c0.271,0.201,0.541,0.402,0.799,0.623c0.08,0.068,0.154,0.141,0.232,0.211
			c0.292,0.26,0.578,0.528,0.851,0.814C49.955,29.089,51.5,32.615,51.5,36.5z M40.5,18.5c0-1.93,1.57-3.5,3.5-3.5s3.5,1.57,3.5,3.5
			c0,1.666-1.187,3.083-2.805,3.408l0,0c-0.34-0.181-0.69-0.339-1.041-0.495c-0.099-0.044-0.195-0.094-0.296-0.136
			c-0.407-0.171-0.822-0.319-1.242-0.456c-0.087-0.029-0.172-0.063-0.26-0.09c-0.221-0.068-0.446-0.123-0.67-0.182
			C40.839,20.082,40.5,19.396,40.5,18.5z M48.385,24.576c-0.09-0.086-0.189-0.16-0.281-0.245c-0.261-0.238-0.522-0.475-0.798-0.696
			c-0.179-0.145-0.366-0.277-0.55-0.414c1.647-0.955,2.744-2.718,2.744-4.722c0-3.032-2.467-5.5-5.5-5.5s-5.5,2.468-5.5,5.5
			c0,0.545,0.103,1.08,0.265,1.598c-0.038-0.004-0.075-0.01-0.113-0.014C38.107,20.03,37.556,20,37,20
			c-0.117,0-0.232,0.003-0.348,0.007C36.551,19.512,36.5,19.008,36.5,18.5c0-4.136,3.364-7.5,7.5-7.5s7.5,3.364,7.5,7.5
			C51.5,20.909,50.323,23.174,48.385,24.576z"/>
		<path d="M25.5,58h-4c-0.552,0-1,0.447-1,1s0.448,1,1,1h4c0.552,0,1-0.447,1-1S26.052,58,25.5,58z"/>
		<path d="M9.5,54h-4c-0.552,0-1,0.447-1,1s0.448,1,1,1h4c0.552,0,1-0.447,1-1S10.052,54,9.5,54z"/>
		<path d="M52.5,58h-4c-0.552,0-1,0.447-1,1s0.448,1,1,1h4c0.552,0,1-0.447,1-1S53.052,58,52.5,58z"/>
	</g>
</g>
<g>
</g>
<g>
</g>
<g>
</g>
<g>
</g>
<g>
</g>
<g>
</g>
<g>
</g>
<g>
</g>
<g>
</g>
<g>
</g>
<g>
</g>
<g>
</g>
<g>
</g>
<g>
</g>
<g>
</g>
</svg>
