<?xml version="1.0" encoding="iso-8859-1"?>
<!-- Generator: Adobe Illustrator 19.0.0, SVG Export Plug-In . SVG Version: 6.00 Build 0)  -->
<svg version="1.1" id="Capa_1" xmlns="http://www.w3.org/2000/svg" xmlns:xlink="http://www.w3.org/1999/xlink" x="0px" y="0px"
	 viewBox="0 0 368 368" style="enable-background:new 0 0 368 368;" xml:space="preserve">
<g>
	<g>
		<path d="M183,172.4c-33.2,0-60.4,27.2-60.4,60.4s27.2,60.4,60.4,60.4s60.4-27.2,60.4-60.4C243.4,199.6,216.2,172.4,183,172.4z
			 M183,283.6c-28,0-50.8-22.8-50.8-50.8S155,182,183,182s50.8,22.8,50.8,50.8S211,283.6,183,283.6z"/>
	</g>
</g>
<g>
	<g>
		<path d="M315.4,146.8c-1.2-0.8-3.2-0.8-4.4-0.4l-22.8,11.2v-48.8c0-34.8-28.4-63.2-63.2-63.2h-36.8V0H179v45.6h-36.8
			C107.4,45.6,79,74,79,108.8V158l-22.8-11.2c-1.6-0.8-3.2-0.8-4.4,0.4c-1.2,0.8-2,2.4-2,4V316c0,1.6,0.8,3.2,2,4
			c0.8,0.4,1.6,0.8,2.4,0.8s1.2,0,2-0.4l24.8-12c6.8,11.6,16.8,21.6,28.4,28L97,361.6c-0.8,1.6-0.8,3.2,0.4,4.4c0.8,1.2,2.4,2,4,2
			h165.2c1.6,0,3.2-0.8,4-2s0.8-3.2,0.4-4.4l-12.4-25.2c12-6.4,21.6-16.4,28.4-28l24.8,12c0.8,0.4,1.2,0.4,2,0.4s1.6-0.4,2.4-0.8
			c1.2-0.8,2-2.4,2-4V150.8C317.4,149.2,316.6,148,315.4,146.8z M87.4,108.8c0-29.6,24.4-54,54-54h83.2c29.6,0,54,24.4,54,54v38
			c-5.6-6.8-12.8-12.8-20.4-17.2l11.6-24c0.8-1.6,0.8-3.2-0.4-4.4c-0.8-1.2-2.4-2-4-2H100.6c-1.6,0-3.2,0.8-4,2
			c-0.8,1.2-0.8,3.2-0.4,4.4l11.6,24c-8,4.4-14.8,10.4-20.4,17.2V108.8z M112.6,138l13.6,28.8c-3.6,3.2-6.8,6.4-9.6,10l-28.4-14
			C93.8,152.4,102.2,144,112.6,138z M108.6,108.8h150l-10.8,20.8l-15.2,31.6c-14-9.6-31.2-15.6-49.2-15.6
			c-18.4,0-35.2,5.6-49.2,15.6L108.6,108.8z M183,154.4c42.8,0,78,34.8,78,78s-35.2,78-78,78s-78-34.8-78-78
			C105,189.6,139.8,154.4,183,154.4z M239.8,166.8l14-28.8c10,6,18.4,14.4,24.4,24.8l-28.4,14C246.6,173.2,243.4,170,239.8,166.8z
			 M80.2,297.2l-22,10.8V158.593L79.4,168.8l31.2,15.2c-9.2,14-14.8,30.4-14.8,48.4c0,18.4,6,35.6,15.6,49.6L80.2,297.2z M88.6,304
			l28.8-14c2.8,3.2,6,6.4,9.2,9.2l-14,28.8C102.6,322,94.2,313.6,88.6,304z M107.8,358.4l26.4-53.6c14,9.6,30.8,15.2,48.8,15.2
			s34.8-5.6,48.8-15.2l26.4,53.6H107.8z M253.4,327.6l-14-28.8c3.2-2.8,6.4-6,9.2-9.2l28.8,14C271.8,313.6,263.4,322,253.4,327.6z
			 M308.2,308.4L308.2,308.4l-22-10.8l-31.6-15.2c10-14,15.6-31.2,15.6-49.6c0-18-5.6-34.8-14.8-48.4l31.2-15.2l21.6-10.4V308.4z"/>
	</g>
</g>
<g>
</g>
<g>
</g>
<g>
</g>
<g>
</g>
<g>
</g>
<g>
</g>
<g>
</g>
<g>
</g>
<g>
</g>
<g>
</g>
<g>
</g>
<g>
</g>
<g>
</g>
<g>
</g>
<g>
</g>
</svg>
