<?xml version="1.0" encoding="iso-8859-1"?>
<!-- Generator: Adobe Illustrator 19.0.0, SVG Export Plug-In . SVG Version: 6.00 Build 0)  -->
<svg version="1.1" id="Layer_1" xmlns="http://www.w3.org/2000/svg" xmlns:xlink="http://www.w3.org/1999/xlink" x="0px" y="0px"
	 viewBox="0 0 512 512" style="enable-background:new 0 0 512 512;" xml:space="preserve">
<g>
	<g>
		<path d="M376.491,89.752l-80.888-8.089L263.287,8.949c-2.765-6.219-11.889-6.221-14.654,0l-32.318,72.714l-80.888,8.089
			c-6.589,0.66-9.566,8.954-4.872,13.648l56.833,56.833l-16.264,81.317c-1.25,6.25,5.287,11.493,11.118,8.899l73.716-32.762
			l73.716,32.762c5.839,2.596,12.368-2.654,11.118-8.899l-16.264-81.317l56.833-56.833C386.057,98.707,383.08,90.412,376.491,89.752
			z M310.155,151.929c-1.894,1.895-2.718,4.613-2.193,7.242l14.067,70.333l-62.816-27.917c-2.056-0.914-4.457-0.914-6.513,0
			l-62.816,27.917l14.067-70.333c0.526-2.629-0.297-5.346-2.193-7.242l-47.899-47.904l68.688-6.869
			c2.867-0.286,5.359-2.089,6.529-4.722l26.883-60.486l26.883,60.486c1.171,2.633,3.663,4.436,6.529,4.722l68.689,6.869
			L310.155,151.929z"/>
	</g>
</g>
<g>
	<g>
		<path d="M212.095,260.839l-67.403,9.361l-46.344-55.829c-4.19-5.046-12.615-2.976-14.005,3.419l-15.428,70.987L5.134,312.585
			c-5.98,2.231-6.984,10.561-1.697,14.148L63.259,367.3l5.248,73.107c0.462,6.423,8.312,9.727,13.223,5.507l56.575-48.611
			l64.396,16.099c6.228,1.56,11.778-4.814,9.384-10.769l-26.212-65.213l34.409-64.882
			C223.291,266.861,218.442,259.962,212.095,260.839z M169.962,333.197c-1.106,2.087-1.237,4.555-0.356,6.747l21.74,54.086
			l-53.176-13.293c-2.526-0.632-5.197,0.001-7.17,1.697l-47.638,40.933l-4.386-61.097c-0.176-2.45-1.465-4.684-3.497-6.062
			l-50.186-34.033l53.333-19.908c2.556-0.955,4.453-3.142,5.032-5.809l12.862-59.185l38.685,46.603
			c1.772,2.135,4.52,3.202,7.273,2.82l56.29-7.817L169.962,333.197z"/>
	</g>
</g>
<g>
	<g>
		<path d="M511.943,319.142c-0.357-2.978-2.346-5.509-5.156-6.558l-63.782-23.808l-15.428-70.987
			c-1.39-6.393-9.816-8.468-14.005-3.419l-46.344,55.829l-67.404-9.361c-6.347-0.886-11.193,6.027-8.186,11.698l34.409,64.882
			l-26.212,65.211c-2.393,5.957,3.155,12.327,9.384,10.769l64.395-16.099l56.575,48.611c4.91,4.22,12.76,0.916,13.222-5.507
			l5.249-73.107l59.82-40.567C510.965,325.047,512.3,322.119,511.943,319.142z M436.442,356.208
			c-2.032,1.379-3.322,3.612-3.497,6.062l-4.387,61.097l-47.638-40.933c-1.955-1.681-4.669-2.322-7.17-1.697l-53.174,13.294
			l21.74-54.086c0.881-2.192,0.75-4.66-0.356-6.747l-28.806-54.318l56.29,7.817c2.744,0.382,5.499-0.685,7.272-2.82l38.685-46.602
			l12.863,59.185c0.579,2.666,2.475,4.855,5.031,5.809l53.334,19.908L436.442,356.208z"/>
	</g>
</g>
<g>
	<g>
		<path d="M486.878,115.37c-14.443,0-26.192-11.75-26.192-26.192c0-4.428-3.589-8.018-8.018-8.018s-8.018,3.59-8.018,8.018
			c0,14.442-11.749,26.192-26.192,26.192c-4.429,0-8.018,3.59-8.018,8.018s3.589,8.018,8.018,8.018
			c14.443,0,26.192,11.75,26.192,26.192c0,4.428,3.589,8.018,8.018,8.018s8.018-3.59,8.018-8.018
			c0-14.442,11.749-26.192,26.192-26.192c4.429,0,8.018-3.59,8.018-8.018S491.307,115.37,486.878,115.37z M452.668,132.867
			c-2.637-3.637-5.842-6.842-9.479-9.479c3.637-2.637,6.842-5.841,9.479-9.479c2.637,3.637,5.842,6.842,9.479,9.479
			C458.51,126.025,455.305,129.229,452.668,132.867z"/>
	</g>
</g>
<g>
	<g>
		<path d="M290.17,457.47c-14.443,0-26.192-11.75-26.192-26.192c0-4.428-3.589-8.018-8.018-8.018c-4.428,0-8.018,3.59-8.018,8.018
			c0,14.442-11.75,26.192-26.192,26.192c-4.428,0-8.018,3.59-8.018,8.018s3.59,8.018,8.018,8.018
			c14.442,0,26.192,11.75,26.192,26.192c0,4.428,3.59,8.018,8.018,8.018c4.429,0,8.018-3.59,8.018-8.018
			c0-14.442,11.749-26.192,26.192-26.192c4.429,0,8.018-3.59,8.018-8.018S294.6,457.47,290.17,457.47z M255.96,474.967
			c-2.637-3.637-5.841-6.842-9.479-9.479c3.637-2.637,6.842-5.841,9.479-9.479c2.637,3.637,5.842,6.842,9.479,9.479
			C261.803,468.125,258.598,471.329,255.96,474.967z"/>
	</g>
</g>
<g>
	<g>
		<path d="M84.911,115.37c-14.442,0-26.192-11.75-26.192-26.192c0-4.428-3.59-8.018-8.018-8.018c-4.428,0-8.018,3.59-8.018,8.018
			c0,14.442-11.75,26.192-26.192,26.192c-4.428,0-8.018,3.59-8.018,8.018s3.59,8.018,8.018,8.018
			c14.442,0,26.192,11.75,26.192,26.192c0,4.428,3.59,8.018,8.018,8.018s8.018-3.59,8.018-8.018
			c0-14.442,11.75-26.192,26.192-26.192c4.428,0,8.018-3.59,8.018-8.018S89.339,115.37,84.911,115.37z M50.701,132.867
			c-2.637-3.637-5.841-6.842-9.479-9.479c3.638-2.637,6.842-5.841,9.479-9.479c2.637,3.637,5.841,6.842,9.479,9.479
			C56.543,126.025,53.338,129.229,50.701,132.867z"/>
	</g>
</g>
<g>
</g>
<g>
</g>
<g>
</g>
<g>
</g>
<g>
</g>
<g>
</g>
<g>
</g>
<g>
</g>
<g>
</g>
<g>
</g>
<g>
</g>
<g>
</g>
<g>
</g>
<g>
</g>
<g>
</g>
</svg>
