<?xml version="1.0" encoding="iso-8859-1"?>
<!-- Generator: Adobe Illustrator 17.1.0, SVG Export Plug-In . SVG Version: 6.00 Build 0)  -->
<!DOCTYPE svg PUBLIC "-//W3C//DTD SVG 1.1//EN" "http://www.w3.org/Graphics/SVG/1.1/DTD/svg11.dtd">
<svg version="1.1" id="Capa_1" xmlns="http://www.w3.org/2000/svg" xmlns:xlink="http://www.w3.org/1999/xlink" x="0px" y="0px"
	 viewBox="0 0 550.752 550.752" style="enable-background:new 0 0 550.752 550.752;" xml:space="preserve">
<path d="M543.252,62.773H382.526c-4.143,0-7.5,3.357-7.5,7.5v13.289h-11.788v-9.093c0-4.143-3.357-7.5-7.5-7.5s-7.5,3.357-7.5,7.5
	v9.093H336.45v-9.093c0-4.143-3.357-7.5-7.5-7.5s-7.5,3.357-7.5,7.5v9.093h-11.787v-9.093c0-4.143-3.357-7.5-7.5-7.5
	s-7.5,3.357-7.5,7.5v9.093h-11.787v-9.093c0-4.143-3.357-7.5-7.5-7.5s-7.5,3.357-7.5,7.5v9.093h-11.788v-9.093
	c0-4.143-3.357-7.5-7.5-7.5s-7.5,3.357-7.5,7.5v9.093h-11.787v-9.093c0-4.143-3.357-7.5-7.5-7.5s-7.5,3.357-7.5,7.5v9.093H193.51
	V70.273c0-4.143-3.357-7.5-7.5-7.5H7.5c-4.143,0-7.5,3.357-7.5,7.5v410.206c0,4.143,3.357,7.5,7.5,7.5h178.51
	c4.143,0,7.5-3.357,7.5-7.5v-13.288h20.791v9.093c0,4.143,3.357,7.5,7.5,7.5s7.5-3.357,7.5-7.5v-9.093h11.787v9.093
	c0,4.143,3.357,7.5,7.5,7.5s7.5-3.357,7.5-7.5v-9.093h11.788v9.093c0,4.143,3.357,7.5,7.5,7.5s7.5-3.357,7.5-7.5v-9.093h11.787
	v9.093c0,4.143,3.357,7.5,7.5,7.5s7.5-3.357,7.5-7.5v-9.093h11.787v9.093c0,4.143,3.357,7.5,7.5,7.5s7.5-3.357,7.5-7.5v-9.093
	h11.788v9.093c0,4.143,3.357,7.5,7.5,7.5s7.5-3.357,7.5-7.5v-9.093h11.788v13.288c0,4.143,3.357,7.5,7.5,7.5h160.726
	c4.143,0,7.5-3.357,7.5-7.5V70.273C550.752,66.13,547.395,62.773,543.252,62.773z M80.094,375.297h46.945v6.386H42.223v-14.515
	h30.371v0.629C72.594,371.94,75.951,375.297,80.094,375.297z M80.094,344.04c-4.143,0-7.5,3.357-7.5,7.5v0.629H42.223v-20.518
	h30.371v0.629c0,4.143,3.357,7.5,7.5,7.5h46.945v4.26H80.094z M80.094,308.522c-4.143,0-7.5,3.357-7.5,7.5v0.629H42.223v-20.519
	h30.371v0.629c0,4.143,3.357,7.5,7.5,7.5h46.945v4.261H80.094z M80.094,273.003c-4.143,0-7.5,3.357-7.5,7.5v0.629H42.223v-14.514
	h84.816v6.385H80.094z M42.223,251.619v-15.516h30.371v0.63c0,4.143,3.357,7.5,7.5,7.5h46.945v7.386H42.223z M80.094,212.974
	c-4.143,0-7.5,3.357-7.5,7.5v0.629H42.223v-21.519h30.371v0.63c0,4.143,3.357,7.5,7.5,7.5h46.945v5.26H80.094z M80.094,176.456
	c-4.143,0-7.5,3.357-7.5,7.5v0.629H42.223V169.07h84.816v7.386H80.094z M42.223,396.683h84.816v9.387H80.094
	c-4.143,0-7.5,3.357-7.5,7.5v0.629H42.223V396.683z M80.094,144.683h46.945v9.387H42.223v-17.516h30.371v0.629
	C72.594,141.326,75.951,144.683,80.094,144.683z M42.223,429.199h30.371v0.629c0,4.143,3.357,7.5,7.5,7.5h46.945v9.388H42.223
	V429.199z M127.039,113.425H80.094c-4.143,0-7.5,3.357-7.5,7.5v0.629H42.223v-17.517h84.816V113.425z M15,77.773h12.223v395.206H15
	V77.773z M193.51,452.191V147.253c0-4.143-3.357-7.5-7.5-7.5s-7.5,3.357-7.5,7.5v325.726H42.223v-11.264h92.316
	c4.143,0,7.5-3.357,7.5-7.5V96.538c0-4.143-3.357-7.5-7.5-7.5H42.223V77.773H178.51v29.288c0,4.143,3.357,7.5,7.5,7.5
	s7.5-3.357,7.5-7.5v-8.499h20.791v353.629H193.51z M229.301,452.191V98.562h11.787v353.629H229.301z M256.088,452.191V98.562h11.788
	v353.629H256.088z M282.876,452.191V98.562h11.787v353.629H282.876z M309.663,452.191V98.562h11.787v353.629H309.663z
	 M336.45,452.191V98.562h11.788v353.629H336.45z M363.238,452.191V98.562h11.788v353.629H363.238z M535.752,472.979H390.026v-13.288
	V91.062V77.773h145.726V472.979z M422.707,443.37h80.363c4.143,0,7.5-3.357,7.5-7.5V114.882c0-4.143-3.357-7.5-7.5-7.5h-80.363
	c-4.143,0-7.5,3.357-7.5,7.5V435.87C415.207,440.012,418.564,443.37,422.707,443.37z M430.207,122.382h65.363V428.37h-65.363
	V122.382z M457.586,146.507c-1.4-1.39-2.2-3.319-2.2-5.3c0-1.979,0.8-3.91,2.2-5.31c1.399-1.391,3.33-2.19,5.3-2.19
	c1.98,0,3.91,0.8,5.31,2.19c1.391,1.399,2.19,3.33,2.19,5.31c0,1.97-0.8,3.91-2.19,5.3c-1.399,1.4-3.329,2.2-5.31,2.2
	C460.916,148.708,458.985,147.908,457.586,146.507z M444.186,173.297c-1.39-1.399-2.189-3.33-2.189-5.3c0-1.979,0.8-3.91,2.189-5.31
	c1.4-1.391,3.33-2.19,5.311-2.19c1.97,0,3.91,0.8,5.3,2.19c1.399,1.399,2.2,3.33,2.2,5.31c0,1.97-0.801,3.9-2.2,5.3
	c-1.39,1.4-3.33,2.2-5.3,2.2C447.516,175.498,445.586,174.698,444.186,173.297z M481.586,162.688c1.399,1.399,2.2,3.33,2.2,5.31
	c0,1.97-0.801,3.9-2.2,5.3c-1.4,1.4-3.33,2.2-5.3,2.2c-1.98,0-3.91-0.8-5.311-2.2c-1.39-1.399-2.189-3.33-2.189-5.3
	c0-1.979,0.8-3.91,2.189-5.31c1.4-1.391,3.33-2.19,5.311-2.19C478.256,160.498,480.186,161.297,481.586,162.688z M470.386,194.778
	c0,1.979-0.8,3.91-2.2,5.31c-1.39,1.391-3.319,2.2-5.3,2.2c-1.97,0-3.91-0.81-5.3-2.2c-1.4-1.399-2.2-3.33-2.2-5.31
	c0-1.97,0.8-3.9,2.2-5.3c1.39-1.4,3.33-2.2,5.3-2.2c1.98,0,3.91,0.8,5.3,2.2C469.586,190.877,470.386,192.808,470.386,194.778z
	 M444.195,226.868c-1.399-1.39-2.199-3.32-2.199-5.3c0-1.97,0.8-3.9,2.199-5.3c1.391-1.4,3.33-2.2,5.301-2.2
	c1.979,0,3.91,0.8,5.3,2.2c1.399,1.399,2.2,3.33,2.2,5.3c0,1.979-0.801,3.91-2.2,5.3c-1.39,1.4-3.32,2.2-5.3,2.2
	C447.525,229.068,445.586,228.268,444.195,226.868z M481.586,216.268c1.399,1.399,2.2,3.33,2.2,5.3c0,1.979-0.801,3.91-2.2,5.3
	c-1.4,1.4-3.33,2.2-5.3,2.2c-1.98,0-3.91-0.8-5.311-2.2c-1.39-1.39-2.189-3.32-2.189-5.3c0-1.97,0.8-3.9,2.189-5.3
	c1.4-1.4,3.33-2.2,5.311-2.2C478.256,214.068,480.186,214.868,481.586,216.268z M470.386,248.358c0,1.97-0.8,3.91-2.2,5.3
	c-1.39,1.4-3.319,2.2-5.3,2.2c-1.97,0-3.91-0.8-5.3-2.2c-1.4-1.4-2.2-3.33-2.2-5.3s0.8-3.91,2.2-5.3c1.39-1.4,3.33-2.2,5.3-2.2
	c1.98,0,3.91,0.8,5.3,2.2C469.586,244.448,470.386,246.377,470.386,248.358z M444.195,280.448c-1.399-1.4-2.199-3.33-2.199-5.3
	c0-1.98,0.8-3.91,2.199-5.3c1.391-1.4,3.32-2.2,5.301-2.2c1.97,0,3.91,0.8,5.3,2.2c1.399,1.39,2.2,3.319,2.2,5.3
	c0,1.97-0.801,3.899-2.2,5.3c-1.4,1.4-3.33,2.2-5.3,2.2C447.516,282.648,445.586,281.848,444.195,280.448z M481.586,269.848
	c1.399,1.39,2.2,3.319,2.2,5.3c0,1.97-0.801,3.91-2.2,5.3c-1.4,1.4-3.33,2.2-5.3,2.2c-1.98,0-3.91-0.8-5.311-2.2
	c-1.39-1.4-2.189-3.33-2.189-5.3c0-1.98,0.8-3.91,2.189-5.3c1.4-1.4,3.33-2.2,5.311-2.2
	C478.256,267.648,480.186,268.448,481.586,269.848z M470.386,301.927c0,1.98-0.8,3.91-2.2,5.311c-1.39,1.4-3.33,2.2-5.3,2.2
	s-3.9-0.8-5.3-2.2c-1.4-1.4-2.2-3.33-2.2-5.311c0-1.97,0.8-3.909,2.2-5.3c1.39-1.399,3.33-2.2,5.3-2.2c1.98,0,3.91,0.801,5.3,2.2
	C469.586,298.018,470.386,299.958,470.386,301.927z M444.195,334.018c-1.399-1.391-2.199-3.32-2.199-5.301
	c0-1.97,0.8-3.909,2.199-5.3c1.391-1.399,3.33-2.2,5.301-2.2c1.97,0,3.899,0.801,5.3,2.2c1.399,1.391,2.2,3.33,2.2,5.3
	c0,1.98-0.801,3.91-2.2,5.301c-1.39,1.399-3.33,2.199-5.3,2.199C447.516,336.217,445.586,335.417,444.195,334.018z M481.586,323.417
	c1.399,1.391,2.2,3.33,2.2,5.3c0,1.98-0.801,3.91-2.2,5.301c-1.4,1.399-3.33,2.199-5.311,2.199c-1.97,0-3.899-0.8-5.3-2.199
	c-1.39-1.391-2.189-3.32-2.189-5.301c0-1.97,0.8-3.909,2.189-5.3c1.4-1.399,3.33-2.2,5.3-2.2
	C478.256,321.217,480.186,322.018,481.586,323.417z M462.886,348.007c1.97,0,3.91,0.801,5.31,2.2c1.391,1.391,2.19,3.33,2.19,5.3
	c0,1.971-0.8,3.9-2.19,5.301c-1.399,1.399-3.34,2.199-5.31,2.199s-3.91-0.8-5.3-2.199c-1.4-1.4-2.2-3.33-2.2-5.301
	c0-1.97,0.8-3.909,2.2-5.3C458.976,348.808,460.916,348.007,462.886,348.007z M468.186,400.978c1.4,1.399,2.2,3.33,2.2,5.3
	c0,1.979-0.8,3.92-2.2,5.31c-1.39,1.391-3.319,2.19-5.3,2.19c-1.97,0-3.91-0.8-5.3-2.19c-1.4-1.399-2.2-3.33-2.2-5.31
	c0-1.97,0.8-3.9,2.2-5.3c1.39-1.391,3.33-2.2,5.3-2.2C464.866,398.778,466.796,399.587,468.186,400.978z M456.996,382.297
	c0,1.971-0.801,3.9-2.2,5.301c-1.4,1.399-3.33,2.199-5.3,2.199c-1.971,0-3.91-0.8-5.311-2.199c-1.39-1.4-2.189-3.33-2.189-5.301
	c0-1.979,0.8-3.909,2.189-5.31c1.4-1.39,3.34-2.19,5.311-2.19c1.97,0,3.899,0.801,5.3,2.19
	C456.195,378.388,456.996,380.318,456.996,382.297z M481.586,376.988c1.39,1.4,2.189,3.33,2.189,5.31c0,1.971-0.8,3.9-2.189,5.301
	c-1.4,1.399-3.33,2.199-5.311,2.199c-1.97,0-3.899-0.8-5.3-2.199c-1.39-1.4-2.189-3.33-2.189-5.301c0-1.979,0.8-3.909,2.189-5.31
	c1.4-1.39,3.33-2.19,5.3-2.19C478.256,374.797,480.186,375.598,481.586,376.988z"/>
<g>
</g>
<g>
</g>
<g>
</g>
<g>
</g>
<g>
</g>
<g>
</g>
<g>
</g>
<g>
</g>
<g>
</g>
<g>
</g>
<g>
</g>
<g>
</g>
<g>
</g>
<g>
</g>
<g>
</g>
</svg>
