<?xml version="1.0" encoding="iso-8859-1"?>
<!-- Generator: Adobe Illustrator 17.1.0, SVG Export Plug-In . SVG Version: 6.00 Build 0)  -->
<!DOCTYPE svg PUBLIC "-//W3C//DTD SVG 1.1//EN" "http://www.w3.org/Graphics/SVG/1.1/DTD/svg11.dtd">
<svg version="1.1" id="Capa_1" xmlns="http://www.w3.org/2000/svg" xmlns:xlink="http://www.w3.org/1999/xlink" x="0px" y="0px"
	 viewBox="0 0 564.999 564.999" style="enable-background:new 0 0 564.999 564.999;" xml:space="preserve">
<path d="M378.042,406.735c-2.672-4.174-2.662-10.089,0.023-14.385c0.139-0.222,0.266-0.45,0.38-0.686l24.842-50.887
	c4.46-9.136,3.303-19.756-3.021-27.717c-6.323-7.96-16.405-11.489-26.313-9.214l-13.136,3.018c-17.397,4-35.144-2.943-45.214-17.678
	l-8.46-12.38l-5.119-165.661L314.6,92.896c0.862-1.251,1.324-2.735,1.324-4.255v-4.074h2.727c4.142,0,7.5-3.357,7.5-7.5
	s-3.358-7.5-7.5-7.5h-2.727v-8.189h2.727c4.142,0,7.5-3.357,7.5-7.5s-3.358-7.5-7.5-7.5h-2.727v-8.188h2.727
	c4.142,0,7.5-3.357,7.5-7.5s-3.358-7.5-7.5-7.5h-2.727V7.5c0-4.143-3.358-7.5-7.5-7.5h-51.848c-4.142,0-7.5,3.357-7.5,7.5v15.689
	h-2.728c-4.142,0-7.5,3.357-7.5,7.5s3.358,7.5,7.5,7.5h2.728v8.188h-2.728c-4.142,0-7.5,3.357-7.5,7.5s3.358,7.5,7.5,7.5h2.728
	v8.189h-2.728c-4.142,0-7.5,3.357-7.5,7.5s3.358,7.5,7.5,7.5h2.728v4.074c0,1.52,0.462,3.004,1.324,4.255l12.574,18.251
	l-4.77,154.376c-24.377,3.613-43.816,11.274-57.828,22.804c-17.495,14.396-26.366,34.486-26.366,59.714
	c0,15.464,4.469,30.786,12.925,44.311c2.685,4.294,2.695,10.209,0.023,14.384c-16.537,25.839-28.485,44.509-28.485,76.043
	c0,32.694,12.877,55.72,38.272,68.434c24.265,12.149,56.967,13.787,85.755,13.787s61.49-1.638,85.755-13.787
	c25.396-12.714,38.272-35.739,38.272-68.434C406.527,451.244,394.579,432.574,378.042,406.735z M290,399.27
	c13.3-2.775,24.345-12.779,28.107-26.208c1.118-3.988-1.209-8.128-5.198-9.245c-3.991-1.117-8.128,1.21-9.245,5.198
	c-2.645,9.438-11.348,16.03-21.164,16.03c-12.117,0-21.976-9.858-21.976-21.977c0-12.117,9.858-21.976,21.976-21.976
	c6.879,0,13.233,3.133,17.434,8.595c2.525,3.283,7.233,3.897,10.518,1.373c1.883-1.448,2.883-3.615,2.922-5.819
	c0.264,0.408,0.503,0.834,0.702,1.289l21.992,50.384c1.464,4.185,0.85,8.658-1.698,12.303c-2.587,3.701-6.66,5.823-11.175,5.823
	h-19.559c-7.518,0-13.634-6.116-13.634-13.635V399.27z M293.299,314.399H271.7l6.118-197.98h9.363L293.299,314.399z M264.076,15
	h36.848v71.308l-10.411,15.111h-16.026l-10.411-15.11V15z M282.5,549.999c-67.311,0-109.028-11.245-109.028-67.221
	c0-25.992,8.479-40.395,26.119-67.957c5.774-9.021,5.799-21.247,0.062-30.422c-7.063-11.296-10.644-23.529-10.644-36.358
	c0-37.208,23.123-59.801,68.723-67.253l-1.263,40.88c-0.063,2.028,0.699,3.995,2.112,5.452s3.355,2.279,5.385,2.279h3.281
	c-12.797,5.821-21.722,18.718-21.722,33.669c0,17.82,12.671,32.735,29.476,36.211v2.126c0,15.789,12.845,28.635,28.634,28.635
	h19.559c9.343,0,18.117-4.572,23.47-12.229c5.353-7.658,6.632-17.469,3.422-26.243c-0.052-0.143-0.109-0.284-0.17-0.423
	l-22.093-50.615c-3.635-8.327-11.626-13.847-20.615-14.383c0.899-1.307,1.374-2.871,1.325-4.478l-0.555-17.962
	c13.993,15.651,35.285,22.582,56.202,17.778l13.136-3.018c4.284-0.986,8.474,0.482,11.208,3.925
	c2.734,3.442,3.215,7.855,1.287,11.807l-24.684,50.563c-5.513,9.133-5.415,21.157,0.284,30.061
	c17.64,27.563,26.119,41.965,26.119,67.957C391.527,538.754,349.81,549.999,282.5,549.999z M328.877,434.053h-92.756
	c-4.142,0-7.5,3.357-7.5,7.5v23.189c0,4.143,3.358,7.5,7.5,7.5h18.006c3.167,5.352,10.658,11.595,28.372,11.595
	s25.205-6.243,28.372-11.595h18.006c4.142,0,7.5-3.357,7.5-7.5v-23.189C336.377,437.41,333.02,434.053,328.877,434.053z
	 M321.377,457.242h-15.689c-3.96,0-7.203,3.068-7.48,6.958c-0.396,1.283-3.973,4.637-15.708,4.637s-15.313-3.354-15.709-4.638
	c-0.278-3.889-3.521-6.957-7.48-6.957h-15.688v-8.189h77.756V457.242z"/>
<g>
</g>
<g>
</g>
<g>
</g>
<g>
</g>
<g>
</g>
<g>
</g>
<g>
</g>
<g>
</g>
<g>
</g>
<g>
</g>
<g>
</g>
<g>
</g>
<g>
</g>
<g>
</g>
<g>
</g>
</svg>
