<?xml version="1.0" encoding="iso-8859-1"?>
<!-- Generator: Adobe Illustrator 17.1.0, SVG Export Plug-In . SVG Version: 6.00 Build 0)  -->
<!DOCTYPE svg PUBLIC "-//W3C//DTD SVG 1.1//EN" "http://www.w3.org/Graphics/SVG/1.1/DTD/svg11.dtd">
<svg version="1.1" id="Capa_1" xmlns="http://www.w3.org/2000/svg" xmlns:xlink="http://www.w3.org/1999/xlink" x="0px" y="0px"
	 viewBox="0 0 550.732 550.732" style="enable-background:new 0 0 550.732 550.732;" xml:space="preserve">
<path d="M368.594,396.275c-2.563-4.005-2.554-9.682,0.024-13.804c8.255-13.203,12.619-28.164,12.619-43.264
	c0-27.739-8.494-47.708-25.967-61.047c-12.875-9.829-30.295-15.915-56.049-19.521l-4.639-150.124l12.212-17.725
	c0.862-1.251,1.324-2.735,1.324-4.255v-3.773h2.462c4.142,0,7.5-3.357,7.5-7.5s-3.358-7.5-7.5-7.5h-2.462v-7.588h2.462
	c4.142,0,7.5-3.357,7.5-7.5s-3.358-7.5-7.5-7.5h-2.462v-7.588h2.462c4.142,0,7.5-3.357,7.5-7.5s-3.358-7.5-7.5-7.5h-2.462V7.5
	c0-4.143-3.358-7.5-7.5-7.5h-50.503c-4.142,0-7.5,3.357-7.5,7.5v15.087h-2.462c-4.142,0-7.5,3.357-7.5,7.5s3.358,7.5,7.5,7.5h2.462
	v7.588h-2.462c-4.142,0-7.5,3.357-7.5,7.5s3.358,7.5,7.5,7.5h2.462v7.588h-2.462c-4.142,0-7.5,3.357-7.5,7.5s3.358,7.5,7.5,7.5
	h2.462v3.773c0,1.52,0.461,3.004,1.324,4.255l12.212,17.725l-4.639,150.125c-39.219,5.52-82.016,20.577-82.016,80.567
	c0,15.1,4.364,30.061,12.619,43.263c2.577,4.123,2.587,9.8,0.024,13.805c-16.126,25.197-27.777,43.402-27.777,74.175
	c0,31.927,12.579,54.413,37.387,66.833c23.671,11.852,55.553,13.449,83.618,13.449s59.946-1.598,83.618-13.449
	c24.809-12.42,37.387-34.906,37.387-66.833C396.371,439.677,384.72,421.472,368.594,396.275z M285.685,306.244h-20.637
	l5.947-192.456h8.743L285.685,306.244z M257.615,15h35.503v69.202l-10.049,14.586h-15.406l-10.048-14.585V15z M275.366,535.732
	c-65.444,0-106.005-10.921-106.005-65.282c0-25.263,8.25-39.273,25.411-66.089c5.664-8.85,5.688-20.842,0.061-29.843
	c-6.86-10.97-10.338-22.851-10.338-35.311c0-22.185,6.581-38.079,20.119-48.593c10.462-8.125,25.342-13.495,46.426-16.731
	l-1.225,39.628c-0.063,2.028,0.699,3.995,2.112,5.452s3.355,2.279,5.385,2.279h2.304c-12.099,5.869-20.461,18.276-20.461,32.602
	c0,19.967,16.244,36.211,36.211,36.211c14.953,0,28.172-8.982,33.678-22.883c1.525-3.852-0.36-8.21-4.211-9.734
	c-3.851-1.526-8.209,0.359-9.735,4.211c-3.225,8.145-10.97,13.406-19.731,13.406c-11.696,0-21.211-9.516-21.211-21.211
	s9.516-21.211,21.211-21.211c6.639,0,12.772,3.023,16.827,8.296c2.526,3.283,7.234,3.897,10.518,1.373
	c3.283-2.525,3.898-7.234,1.373-10.518c-3.506-4.559-7.927-8.126-12.907-10.542h2.243c2.029,0,3.972-0.822,5.385-2.279
	s2.174-3.424,2.112-5.452l-1.225-39.65c41.278,6.14,66.546,20.247,66.546,65.345c0,12.46-3.478,24.341-10.338,35.312
	c-5.627,9.001-5.603,20.993,0.061,29.842c17.161,26.815,25.411,40.826,25.411,66.089
	C381.371,524.812,340.811,535.732,275.366,535.732z M321.31,422.795h-91.887c-4.142,0-7.5,3.357-7.5,7.5v22.587
	c0,4.143,3.358,7.5,7.5,7.5h91.887c4.142,0,7.5-3.357,7.5-7.5v-22.587C328.81,426.152,325.452,422.795,321.31,422.795z
	 M313.81,445.382h-76.887v-7.587h76.887V445.382z"/>
<g>
</g>
<g>
</g>
<g>
</g>
<g>
</g>
<g>
</g>
<g>
</g>
<g>
</g>
<g>
</g>
<g>
</g>
<g>
</g>
<g>
</g>
<g>
</g>
<g>
</g>
<g>
</g>
<g>
</g>
</svg>
