<?xml version="1.0" encoding="iso-8859-1"?>
<!-- Generator: Adobe Illustrator 17.1.0, SVG Export Plug-In . SVG Version: 6.00 Build 0)  -->
<!DOCTYPE svg PUBLIC "-//W3C//DTD SVG 1.1//EN" "http://www.w3.org/Graphics/SVG/1.1/DTD/svg11.dtd">
<svg version="1.1" id="Capa_1" xmlns="http://www.w3.org/2000/svg" xmlns:xlink="http://www.w3.org/1999/xlink" x="0px" y="0px"
	 viewBox="0 0 549.82 549.82" style="enable-background:new 0 0 549.82 549.82;" xml:space="preserve">
<path d="M202.974,170.342h286.409c4.143,0,7.5-3.358,7.5-7.5V34.735c0-4.142-3.357-7.5-7.5-7.5h-13.458
	c-0.66-0.09-1.328-0.086-1.987,0h-39.773c-0.595-0.074-1.196-0.068-1.79,0h-82.179c-0.163-0.007-0.326-0.003-0.49,0H308.42
	c-0.101-0.003-0.201-0.001-0.302,0h-41.279c-0.075-0.003-0.15,0.001-0.225,0h-63.64c-4.142,0-7.5,3.358-7.5,7.5v128.106
	C195.474,166.984,198.832,170.342,202.974,170.342z M291.659,42.235c-3.495,3.979-7.068,8.036-10.7,12.147
	c-7.339,8.322-14.645,16.545-20.828,23.495c-6.926,7.799-13.851,15.584-20.793,23.374l-7.086,7.963
	c-4.644,5.217-9.287,10.435-13.924,15.656c-2.59,2.921-5.217,5.886-7.854,8.865v-24.563c6.392-7.194,12.792-14.38,19.189-21.547
	c6.921-7.779,13.841-15.56,20.733-23.347c5.933-6.658,12.182-13.71,19.535-22.043H291.659z M333.193,42.235
	c-33.981,38.365-66.862,75.526-100.079,113.106h-21.701c6.055-6.884,12.183-13.8,18.136-20.516
	c4.629-5.213,9.269-10.426,13.909-15.639l7.084-7.961c6.943-7.791,13.875-15.583,20.802-23.383
	c6.19-6.958,13.509-15.196,20.863-23.534c6.71-7.596,13.217-15.003,19.394-22.073H333.193z M375.284,42.235
	c-14.68,17.017-29.889,33.709-44.702,49.949c-18.603,20.395-37.802,41.464-55.929,63.158h-21.518
	c33.097-37.437,65.985-74.599,100.098-113.106H375.284z M416.665,42.235c-17.383,19.823-35.062,39.68-52.263,58.995
	c-15.758,17.695-32.025,35.965-47.978,54.112h-22.122c15.498-18.096,31.643-35.816,47.361-53.049
	c17.706-19.412,35.98-39.463,53.334-60.057H416.665z M458.202,42.235l-20.624,23.319c-2.744,3.103-2.453,7.843,0.649,10.587
	c1.427,1.262,3.2,1.882,4.966,1.882c2.074,0,4.139-0.855,5.621-2.531l29.413-33.256h3.656v20.305l-82.123,92.801h-21.623
	l49.768-56.218c2.746-3.101,2.458-7.841-0.644-10.587c-3.103-2.747-7.843-2.458-10.587,0.645l-58.57,66.16h-21.689
	c13.098-14.836,26.314-29.678,39.189-44.136c20.079-22.547,40.811-45.833,60.987-68.97H458.202z M481.883,109.623l-40.458,45.719
	h-21.636l62.094-70.168V109.623z M461.454,155.342l20.429-23.086v23.086H461.454z M249.913,42.235
	c-3.776,4.265-7.307,8.24-10.732,12.083c-6.9,7.797-13.812,15.567-20.715,23.327c-2.662,2.982-5.327,5.983-7.991,8.972V42.235
	H249.913z M521.026,190.311c0.002-0.078,0.012-0.155,0.012-0.234V7.5c0-4.142-3.357-7.5-7.5-7.5H178.82
	c-0.061,0-0.12,0.008-0.18,0.009c-0.163,0.004-0.325,0.01-0.488,0.025c-0.094,0.008-0.187,0.021-0.28,0.033
	c-0.149,0.019-0.297,0.04-0.445,0.068c-0.106,0.02-0.209,0.044-0.313,0.068c-0.13,0.03-0.26,0.062-0.389,0.1
	c-0.118,0.034-0.234,0.073-0.35,0.113c-0.112,0.039-0.223,0.078-0.333,0.122c-0.13,0.052-0.257,0.109-0.383,0.168
	c-0.094,0.044-0.187,0.087-0.279,0.134c-0.137,0.071-0.27,0.148-0.402,0.228c-0.057,0.034-0.116,0.062-0.173,0.098L83.515,59.044
	c-2.169,1.375-3.484,3.765-3.484,6.334v63.84c0,2.508,1.253,4.85,3.34,6.24l77.295,51.53l-85.74,21.949
	c-2.922,0.748-5.111,3.173-5.558,6.156l-9.711,64.889c-0.331,2.208,0.34,4.449,1.83,6.112l70.503,78.75l-77.517-0.446
	c-0.015,0-0.029,0-0.043,0c-3.366,0-6.323,2.245-7.226,5.491l-18.148,65.289c-0.59,2.124-0.217,4.399,1.021,6.223l71.399,105.132
	c0.046,0.067,0.1,0.125,0.147,0.19c0.057,0.078,0.106,0.161,0.167,0.238c0.046,0.058,0.099,0.108,0.146,0.165
	c0.091,0.109,0.184,0.213,0.279,0.316c0.105,0.112,0.214,0.22,0.325,0.326c0.108,0.102,0.217,0.202,0.33,0.297
	c0.11,0.092,0.224,0.178,0.339,0.264c0.121,0.09,0.242,0.18,0.368,0.263c0.119,0.078,0.243,0.148,0.366,0.219
	c0.128,0.073,0.254,0.149,0.385,0.214c0.136,0.068,0.277,0.125,0.417,0.185c0.125,0.053,0.248,0.111,0.375,0.157
	c0.161,0.058,0.326,0.103,0.491,0.151c0.113,0.032,0.224,0.072,0.339,0.099c0.19,0.045,0.384,0.074,0.578,0.104
	c0.094,0.015,0.188,0.038,0.283,0.049c0.219,0.026,0.442,0.034,0.664,0.04c0.071,0.002,0.142,0.013,0.213,0.013
	c0.004,0,0.009-0.001,0.013-0.001h321.664c3.265,0,6.154-2.112,7.146-5.222l54.334-170.42c0.498-1.564,0.452-3.222-0.073-4.736
	l30.16-178.112c0.01-0.062,0.012-0.124,0.021-0.186c0.023-0.16,0.042-0.32,0.055-0.483
	C521.017,190.543,521.022,190.428,521.026,190.311z M117.199,534.819L145.3,417.966c0.969-4.027-1.511-8.077-5.539-9.045
	c-4.022-0.97-8.077,1.511-9.045,5.539l-26.36,109.613l-59.917-88.225l15.682-56.417l78.909,0.455l-1.321,5.491
	c-0.969,4.027,1.511,8.077,5.539,9.045c4.027,0.972,8.077-1.511,9.045-5.539l1.737-7.22l318.726-0.133l-48.871,153.288H117.199z
	 M95.031,69.503l76.289-48.368v1.578c0,4.142,3.358,7.5,7.5,7.5s7.5-3.358,7.5-7.5V15h319.718v167.577H186.32V53.143
	c0-4.142-3.358-7.5-7.5-7.5s-7.5,3.358-7.5,7.5v122.92l-76.289-50.859V69.503z M175.31,212.944c4.088,0.63,7.924-2.174,8.557-6.267
	l1.406-9.1H504.66l-28.25,166.833l-316.993,0.513l19.683-127.397c0.632-4.093-2.173-7.925-6.267-8.557
	c-4.093-0.638-7.924,2.173-8.557,6.267L145.41,357.347l-70.396-78.631l8.453-56.481l86.229-22.075l-0.653,4.226
	C168.411,208.48,171.217,212.312,175.31,212.944z M180.031,289.014l-8.824,56.72c-0.337,2.165,0.29,4.369,1.715,6.033
	c1.425,1.663,3.505,2.62,5.695,2.62c0.001,0,0.002,0,0.002,0l284.417-0.101c3.66-0.001,6.786-2.646,7.394-6.255l21.719-129.076
	c0.365-2.176-0.245-4.403-1.67-6.088c-1.426-1.685-3.521-2.656-5.728-2.656l-13.443,0.001c-0.65-0.086-1.307-0.084-1.957,0
	l-39.734,0.003c-0.591-0.071-1.188-0.069-1.779,0l-82.103,0.005c-0.152-0.006-0.304-0.004-0.456,0l-41.282,0.003
	c-0.109-0.002-0.218-0.003-0.326,0l-41.215,0.003c-0.106-0.003-0.212-0.001-0.318,0l-63.427,0.004c-3.697,0-6.842,2.694-7.41,6.347
	l-11.259,72.369C180.039,288.967,180.035,288.99,180.031,289.014z M285.438,225.222c-3.998,3.898-8.106,7.893-12.382,12.042
	c-8.17,7.939-16.354,15.845-24.55,23.75c-8.148,7.872-16.29,15.725-24.442,23.577l-8.239,7.945
	c-5.473,5.277-10.944,10.553-16.463,15.884c-2.785,2.695-5.608,5.427-8.441,8.17l3.557-22.865
	c7.637-7.387,15.284-14.769,22.93-22.136l0.523-0.505c7.958-7.689,15.92-15.383,23.865-23.094
	c7.067-6.818,14.768-14.284,23.486-22.767L285.438,225.222z M326.897,225.22c-40.195,38.849-78.965,76.353-118.012,114.156
	l-19.906,0.007c6.948-6.766,13.984-13.575,20.866-20.233c5.455-5.269,10.922-10.541,16.392-15.815l8.237-7.943
	c8.154-7.853,16.3-15.711,24.451-23.584c8.204-7.914,16.402-15.833,24.581-23.781c8.269-8.023,15.917-15.479,23.394-22.805
	L326.897,225.22z M368.911,225.217c-17.375,17.132-35.179,33.903-52.516,50.221c-21.953,20.661-44.617,42.008-66.219,63.923
	l-19.718,0.007c38.891-37.647,77.667-75.151,118.024-114.15L368.911,225.217z M410.201,225.215
	c-20.554,19.962-41.358,39.914-61.599,59.323c-18.707,17.937-38.024,36.461-56.951,54.81l-20.282,0.007
	c18.206-18.058,37.003-35.766,55.306-52.993c20.98-19.747,42.643-40.149,63.492-61.145L410.201,225.215z M451.64,225.212
	l-24.212,23.31c-2.984,2.873-3.074,7.621-0.202,10.604c1.473,1.529,3.437,2.298,5.404,2.298c1.872,0,3.746-0.696,5.2-2.097
	l35.438-34.117l2.617,0l-3.335,19.823l-98.145,94.285l-19.719,0.007l58.363-56.145c2.985-2.872,3.077-7.619,0.206-10.604
	c-2.872-2.984-7.62-3.077-10.604-0.205l-69.608,66.962l-19.813,0.007c15.294-14.769,30.721-29.562,45.752-43.975
	c23.896-22.911,48.574-46.578,72.723-70.151L451.64,225.212z M464.561,292.511l-48.791,46.792l-19.704,0.007l72.309-69.465
	L464.561,292.511z M437.45,339.295l22.941-22.001l-3.701,21.995L437.45,339.295z M243.754,225.225
	c-4.361,4.23-8.473,8.208-12.389,11.986c-7.953,7.719-15.907,15.405-23.857,23.087l-0.515,0.497
	c-2.899,2.793-5.798,5.599-8.698,8.397l6.84-43.965L243.754,225.225z M449.182,429.792c0.025-0.077,0.05-0.154,0.073-0.231
	l9.105-29.074c0.714-2.279,0.299-4.762-1.116-6.686c-1.414-1.921-3.656-3.055-6.041-3.055c-0.003,0-0.007,0-0.011,0l-13.465,0.018
	c-0.629-0.08-1.266-0.078-1.899,0.003l-39.756,0.054c-0.574-0.065-1.155-0.065-1.731,0.002l-81.977,0.112
	c-0.143-0.004-0.286-0.004-0.429,0.001l-41.176,0.056c-0.1,0-0.2-0.003-0.301,0l-41.033,0.056c-0.111-0.002-0.223-0.003-0.334,0
	l-62.908,0.086c-3.448,0.005-6.448,2.359-7.272,5.708l-29.338,119.199c-0.551,2.238-0.042,4.605,1.38,6.419
	c1.422,1.814,3.599,2.874,5.904,2.873l276.917-0.064c3.278-0.001,6.176-2.13,7.155-5.259l14.437-46.102
	c0.022-0.066,0.043-0.133,0.063-0.2L449.182,429.792z M421.764,467.155L367.94,510.28l-16.48,0.004l76.031-61.414L421.764,467.155z
	 M311.025,510.293l61.279-49.892c3.212-2.615,3.696-7.339,1.081-10.551c-2.614-3.211-7.338-3.695-10.552-1.081l-75.572,61.529
	l-16.711,0.004c15.722-12.925,31.638-25.933,47.162-38.619c26.209-21.418,53.287-43.549,80.155-65.866l17.72-0.024L390.1,426.559
	c-3.211,2.616-3.693,7.34-1.077,10.552c1.482,1.82,3.642,2.763,5.819,2.763c1.665,0,3.341-0.552,4.732-1.686l39.8-32.427
	l1.616-0.002l-5.417,17.299L327.581,510.29L311.025,510.293z M229.674,510.312c18.513-15.671,37.406-30.966,57.163-46.948
	c22.864-18.496,46.48-37.61,69.582-57.489l17.895-0.024c-22.21,18.353-44.448,36.53-66.093,54.219
	c-20.186,16.496-41.03,33.532-61.268,50.239L229.674,510.312z M189.865,510.321c40.398-33.758,81.485-68.065,125.022-104.39
	l18.352-0.025c-18.63,15.69-37.476,30.944-55.835,45.796c-23.511,19.019-47.788,38.669-70.793,58.615L189.865,510.321z
	 M149.48,510.331c6.676-5.642,13.409-11.306,19.968-16.822c5.616-4.716,11.254-9.443,16.907-14.182l9.074-7.608
	c8.65-7.245,17.319-14.515,26.019-21.821c8.781-7.364,17.582-14.756,26.395-22.196c8.991-7.582,17.372-14.679,25.639-21.714
	l17.955-0.025c-43.35,36.174-84.407,70.462-124.968,104.363L149.48,510.331z M156.296,470.229
	c8.066-6.829,16.161-13.669,24.278-20.517l0.391-0.33c8.512-7.2,17.055-14.425,25.606-21.689
	c7.624-6.441,15.988-13.536,25.515-21.648l18.175-0.025c-3.931,3.328-7.945,6.719-12.094,10.218
	c-8.804,7.433-17.592,14.814-26.364,22.171c-8.699,7.305-17.363,14.571-26.012,21.815l-9.075,7.609
	c-5.656,4.741-11.298,9.471-16.92,14.193c-2.667,2.243-5.367,4.514-8.076,6.794L156.296,470.229z M208.889,406.077
	c-4.219,3.579-8.207,6.956-12.013,10.171c-8.559,7.27-17.094,14.489-25.598,21.682l-0.383,0.324
	c-2.834,2.391-5.664,4.781-8.494,7.171l9.672-39.298L208.889,406.077z M391.936,510.275l21.793-17.461l-5.467,17.457
	L391.936,510.275z"/>
<g>
</g>
<g>
</g>
<g>
</g>
<g>
</g>
<g>
</g>
<g>
</g>
<g>
</g>
<g>
</g>
<g>
</g>
<g>
</g>
<g>
</g>
<g>
</g>
<g>
</g>
<g>
</g>
<g>
</g>
</svg>
