<?xml version="1.0" encoding="iso-8859-1"?>
<!-- Generator: Adobe Illustrator 17.1.0, SVG Export Plug-In . SVG Version: 6.00 Build 0)  -->
<!DOCTYPE svg PUBLIC "-//W3C//DTD SVG 1.1//EN" "http://www.w3.org/Graphics/SVG/1.1/DTD/svg11.dtd">
<svg version="1.1" id="Capa_1" xmlns="http://www.w3.org/2000/svg" xmlns:xlink="http://www.w3.org/1999/xlink" x="0px" y="0px"
	 viewBox="0 0 550.581 550.581" style="enable-background:new 0 0 550.581 550.581;" xml:space="preserve">
<path d="M527.779,107.607H22.802C10.229,107.607,0,117.836,0,130.41v266.442c0,12.573,10.229,22.802,22.802,22.802h35.904v15.82
	c0,4.142,3.358,7.5,7.5,7.5h46.081c4.142,0,7.5-3.358,7.5-7.5v-15.82h311.251v15.82c0,4.142,3.358,7.5,7.5,7.5h46.082
	c4.142,0,7.5-3.358,7.5-7.5v-15.82h35.659c12.573,0,22.802-10.229,22.802-22.802V130.41
	C550.581,117.836,540.352,107.607,527.779,107.607z M527.779,404.654h-20.044v-27.846h27.847v20.044
	C535.581,401.154,532.081,404.654,527.779,404.654z M484.62,404.654h-46.082H112.288H66.207h-8.36v-17.135h434.888v17.135H484.62z
	 M22.802,122.607h20.044v27.846H15V130.41C15,126.107,18.5,122.607,22.802,122.607z M492.734,369.308v3.211H57.847v-3.211
	c0-4.142-3.358-7.5-7.5-7.5h-3.212v-59.981h456.311v59.981h-3.211C496.092,361.808,492.734,365.166,492.734,369.308z
	 M49.221,165.454l12.823,11.203l-14.909,13.025v-24.228H49.221z M503.446,165.454v23.919l-14.556-12.717l12.822-11.202H503.446z
	 M452.459,188.566c-3.119,2.725-3.438,7.463-0.713,10.583c1.483,1.697,3.562,2.565,5.651,2.565c1.751,0,3.51-0.61,4.932-1.852
	l15.162-13.247l22.273,19.459l-22.274,19.461l-55.948-48.878l22.275-19.461l22.275,19.461L452.459,188.566z M47.135,286.826v-18.393
	l26.304-22.98l22.263,19.451l-25.092,21.922H47.135z M129.376,235.485l-22.275,19.46l-22.263-19.452l22.274-19.46L129.376,235.485z
	 M152.175,235.485l22.279-19.464l22.276,19.461l-22.28,19.465L152.175,235.485z M219.528,235.482l22.26-19.447l22.276,19.461
	l-22.26,19.447L219.528,235.482z M286.863,235.496l22.276-19.461l22.268,19.454l-22.275,19.461L286.863,235.496z M354.204,235.488
	l22.275-19.461l22.274,19.459l-22.276,19.461L354.204,235.488z M140.775,245.444l22.275,19.462l-22.276,19.461L118.5,264.905
	L140.775,245.444z M208.129,245.441l22.275,19.461l-22.281,19.466l-22.274-19.461L208.129,245.441z M275.463,245.455l22.269,19.455
	l-22.259,19.448l-22.27-19.456L275.463,245.455z M342.805,245.448l22.273,19.458l-22.275,19.46l-22.272-19.458L342.805,245.448z
	 M410.153,245.445l22.274,19.46l-22.275,19.462l-22.275-19.46L410.153,245.445z M421.552,235.487l13.631-11.909
	c3.119-2.725,3.438-7.463,0.713-10.583c-2.726-3.12-7.464-3.438-10.583-0.713l-15.162,13.246l-22.274-19.46l22.264-19.452
	l55.948,48.878l-22.264,19.452L421.552,235.487z M365.08,206.068l-22.275,19.461l-22.268-19.454l22.275-19.46L365.08,206.068z
	 M297.739,206.076l-22.276,19.461l-22.276-19.461l22.276-19.461L297.739,206.076z M230.388,206.076l-22.26,19.447l-22.276-19.461
	l22.26-19.447L230.388,206.076z M163.055,206.062l-22.279,19.464l-22.263-19.451l22.278-19.463L163.055,206.062z M376.479,196.109
	l-22.267-19.453l22.264-19.451l22.266,19.452L376.479,196.109z M309.138,196.116l-22.276-19.461l22.275-19.46l22.276,19.461
	L309.138,196.116z M241.788,196.117l-22.276-19.461l22.276-19.461l22.276,19.461L241.788,196.117z M174.454,196.103l-22.264-19.451
	l22.259-19.447l22.264,19.451L174.454,196.103z M107.115,196.116l-22.273-19.46l22.278-19.461l22.272,19.458L107.115,196.116z
	 M95.715,206.075l-22.274,19.46l-22.275-19.462l22.274-19.458L95.715,206.075z M62.042,235.495l-14.907,13.024v-26.048
	L62.042,235.495z M107.1,274.864l13.691,11.962H93.408L107.1,274.864z M174.45,274.865l13.69,11.961h-27.382L174.45,274.865z
	 M241.804,274.861l13.696,11.966h-27.393L241.804,274.861z M309.131,274.868l13.687,11.958h-27.374L309.131,274.868z
	 M376.477,274.866l13.69,11.96h-27.38L376.477,274.866z M443.827,274.864l13.692,11.962h-27.383L443.827,274.864z M488.889,235.494
	l14.557-12.718v25.436L488.889,235.494z M480.317,286.826l-25.091-21.921l22.264-19.452l25.956,22.676v18.697H480.317z
	 M410.142,166.698l-13.685-11.956h27.369L410.142,166.698z M342.813,166.697l-13.684-11.955h27.368L342.813,166.697z
	 M275.463,166.696l-13.683-11.954h27.366L275.463,166.696z M208.113,166.697l-13.684-11.955h27.368L208.113,166.697z
	 M140.791,166.693l-13.68-11.951h27.359L140.791,166.693z M73.443,166.698l-13.684-11.956h27.369L73.443,166.698z M492.734,139.742
	h-17.675c-4.142,0-7.5,3.358-7.5,7.5s3.358,7.5,7.5,7.5h16.115l-13.683,11.954l-23.116-20.196c-0.372-3.794-3.571-6.759-7.463-6.759
	h-2.839c-0.067-0.002-0.134,0-0.2,0h-0.107c-0.069,0-0.137-0.002-0.206,0H309.396c-0.072-0.002-0.143,0-0.215,0h-0.094
	c-0.069,0-0.137-0.002-0.206,0h-66.098c-0.625-0.078-1.258-0.081-1.886,0H107.385c-0.082-0.003-0.164,0-0.247,0h-0.075
	c-0.066,0-0.132-0.002-0.198,0H57.847v-17.135h434.888V139.742z M32.135,165.454v39.425c-0.054,0.397-0.073,0.796-0.064,1.196
	c-0.01,0.399,0.01,0.798,0.064,1.196v56.83c-0.089,0.665-0.091,1.34,0,2.007v28.209c0,0.003,0,0.006,0,0.01s0,0.006,0,0.01v67.472
	H15V165.454H32.135z M518.446,361.808v-67.462c0-0.006,0.001-0.013,0.001-0.019s-0.001-0.013-0.001-0.019V165.454h17.135v196.354
	H518.446z M535.581,150.454h-27.847v-27.846h20.044c4.302,0,7.802,3.5,7.802,7.802V150.454z M15,376.808h27.847v27.846H22.802
	c-4.302,0-7.802-3.5-7.802-7.802V376.808z M104.788,427.974H73.707v-8.32h31.081V427.974z M477.12,427.974h-31.082v-8.32h31.082
	V427.974z M408.22,312.419c-13.649,0-24.753,11.104-24.753,24.753s11.104,24.753,24.753,24.753s24.753-11.104,24.753-24.753
	S421.869,312.419,408.22,312.419z M408.22,346.926c-5.378,0-9.753-4.375-9.753-9.753s4.375-9.753,9.753-9.753
	s9.753,4.375,9.753,9.753S413.598,346.926,408.22,346.926z M461.58,318.03c-10.088,0-18.296,8.208-18.296,18.295
	c0,10.088,8.208,18.296,18.296,18.296c10.088,0,18.295-8.208,18.295-18.296C479.875,326.237,471.667,318.03,461.58,318.03z
	 M461.58,339.621c-1.817,0-3.296-1.479-3.296-3.296c0-1.817,1.479-3.295,3.296-3.295c1.817,0,3.295,1.479,3.295,3.295
	C464.875,338.143,463.396,339.621,461.58,339.621z M235.928,312.419c-13.649,0-24.753,11.104-24.753,24.753
	s11.104,24.753,24.753,24.753s24.753-11.104,24.753-24.753S249.577,312.419,235.928,312.419z M235.928,346.926
	c-5.378,0-9.753-4.375-9.753-9.753s4.375-9.753,9.753-9.753s9.753,4.375,9.753,9.753S241.306,346.926,235.928,346.926z
	 M350.79,312.42c-6.612,0-12.828,2.575-17.503,7.25c-4.675,4.675-7.25,10.891-7.25,17.503c0,6.612,2.575,12.828,7.25,17.503
	c4.675,4.675,10.891,7.25,17.503,7.25c6.612,0,12.828-2.575,17.503-7.25s7.25-10.891,7.25-17.503c0-6.612-2.575-12.828-7.25-17.503
	C363.617,314.995,357.401,312.42,350.79,312.42z M357.686,344.069c-1.842,1.842-4.292,2.856-6.896,2.856
	c-2.605,0-5.054-1.014-6.896-2.856s-2.856-4.292-2.856-6.896c0-2.605,1.014-5.054,2.857-6.896c1.842-1.842,4.291-2.856,6.896-2.856
	c2.605,0,5.054,1.014,6.896,2.857c1.842,1.842,2.856,4.291,2.856,6.896C360.542,339.778,359.528,342.227,357.686,344.069z
	 M160.994,319.669c-4.675,4.675-7.25,10.891-7.25,17.503c0,6.612,2.575,12.828,7.25,17.503c4.826,4.826,11.164,7.238,17.503,7.238
	s12.677-2.413,17.503-7.238c4.675-4.675,7.25-10.891,7.25-17.503c0-6.612-2.575-12.828-7.25-17.503
	C186.349,310.019,170.646,310.02,160.994,319.669z M185.393,344.069c-3.803,3.803-9.99,3.803-13.793,0
	c-1.842-1.842-2.856-4.292-2.856-6.896c0-2.605,1.014-5.054,2.856-6.896c1.901-1.901,4.399-2.852,6.896-2.852
	s4.995,0.951,6.896,2.853c1.842,1.842,2.856,4.291,2.856,6.896C188.25,339.778,187.235,342.227,185.393,344.069z M275.855,319.669
	c-4.675,4.675-7.25,10.891-7.25,17.503c0,6.612,2.575,12.828,7.25,17.503c4.826,4.826,11.164,7.238,17.503,7.238
	s12.677-2.413,17.503-7.238c4.675-4.675,7.25-10.891,7.25-17.503c0-6.612-2.575-12.828-7.25-17.503
	C301.211,310.019,285.508,310.02,275.855,319.669z M300.255,344.069c-3.803,3.803-9.99,3.803-13.793,0
	c-1.842-1.842-2.856-4.292-2.856-6.896c0-2.605,1.014-5.054,2.856-6.896c1.901-1.901,4.399-2.852,6.896-2.852
	s4.995,0.951,6.896,2.853c1.842,1.842,2.856,4.291,2.856,6.896C303.111,339.778,302.097,342.227,300.255,344.069z M89.001,307.068
	H64.602c-4.142,0-7.5,3.358-7.5,7.5v45.208c0,4.142,3.358,7.5,7.5,7.5h24.399c4.142,0,7.5-3.358,7.5-7.5v-45.208
	C96.501,310.426,93.144,307.068,89.001,307.068z M81.501,329.673h-9.399v-7.604h9.399V329.673z M72.102,344.673h9.399v7.604h-9.399
	V344.673z M131.609,307.068h-24.4c-4.142,0-7.5,3.358-7.5,7.5v45.208c0,4.142,3.358,7.5,7.5,7.5h24.4c4.142,0,7.5-3.358,7.5-7.5
	v-45.208C139.109,310.426,135.751,307.068,131.609,307.068z M124.109,329.673h-9.4v-7.604h9.4V329.673z M114.709,344.673h9.4v7.604
	h-9.4V344.673z"/>
<g>
</g>
<g>
</g>
<g>
</g>
<g>
</g>
<g>
</g>
<g>
</g>
<g>
</g>
<g>
</g>
<g>
</g>
<g>
</g>
<g>
</g>
<g>
</g>
<g>
</g>
<g>
</g>
<g>
</g>
</svg>
