<?xml version="1.0" encoding="iso-8859-1"?>
<!-- Generator: Adobe Illustrator 17.1.0, SVG Export Plug-In . SVG Version: 6.00 Build 0)  -->
<!DOCTYPE svg PUBLIC "-//W3C//DTD SVG 1.1//EN" "http://www.w3.org/Graphics/SVG/1.1/DTD/svg11.dtd">
<svg version="1.1" id="Capa_1" xmlns="http://www.w3.org/2000/svg" xmlns:xlink="http://www.w3.org/1999/xlink" x="0px" y="0px"
	 viewBox="0 0 546.002 546.002" style="enable-background:new 0 0 546.002 546.002;" xml:space="preserve">
<path d="M448.448,72.586c-0.009-0.075-0.023-0.15-0.034-0.225c-0.032-0.217-0.071-0.43-0.121-0.641
	c-0.019-0.079-0.039-0.157-0.06-0.235c-0.059-0.216-0.127-0.428-0.204-0.637c-0.023-0.062-0.043-0.125-0.068-0.186
	c-0.111-0.276-0.234-0.545-0.375-0.804L411.764,3.92C410.452,1.504,407.923,0,405.174,0H140.83c-2.749,0-5.278,1.504-6.591,3.92
	L98.421,69.855c-0.143,0.26-0.267,0.532-0.378,0.81c-0.024,0.06-0.044,0.121-0.066,0.181c-0.078,0.21-0.147,0.424-0.206,0.642
	c-0.021,0.077-0.041,0.154-0.059,0.231c-0.05,0.211-0.09,0.427-0.122,0.644c-0.011,0.074-0.025,0.147-0.034,0.222
	c-0.033,0.285-0.054,0.574-0.054,0.868v0v0v465.048c0,4.142,3.357,7.5,7.5,7.5h336.001c4.143,0,7.5-3.358,7.5-7.5V73.455
	C448.502,73.161,448.48,72.872,448.448,72.586z M400.713,15l27.68,50.955h-30.158c-4.143,0-7.5,3.358-7.5,7.5s3.357,7.5,7.5,7.5
	h35.268v450.048H112.501V80.954h238.025c4.143,0,7.5-3.358,7.5-7.5s-3.357-7.5-7.5-7.5H117.61L145.291,15H400.713z M122.379,97.206
	v35.479c-0.001,0.07-0.001,0.14,0,0.209v47.513c-0.001,0.072-0.001,0.143,0,0.215v11.699c-0.001,0.072-0.001,0.143,0,0.215v47.499
	c-0.001,0.072-0.001,0.143,0,0.215v11.71c-0.001,0.072-0.001,0.143,0,0.215v47.499c-0.001,0.072-0.001,0.143,0,0.215v11.71
	c-0.001,0.072-0.001,0.143,0,0.215v47.499c-0.001,0.072-0.001,0.143,0,0.215v11.698c-0.001,0.072-0.001,0.143,0,0.215v47.513
	c-0.001,0.07-0.001,0.14,0,0.21v11.701c-0.001,0.072-0.001,0.143,0,0.215v47.499c-0.001,0.072-0.001,0.143,0,0.215v35.856
	c0,4.142,3.357,7.5,7.5,7.5h23.573c0.031,0,0.061,0.004,0.092,0.004s0.061-0.004,0.092-0.004h59.455
	c0.031,0,0.061,0.004,0.092,0.004s0.062-0.004,0.092-0.004h0.189c0.031,0,0.061,0.004,0.092,0.004s0.062-0.004,0.092-0.004h59.07
	c0.031,0,0.061,0.004,0.092,0.004s0.062-0.004,0.092-0.004h0.201c0.031,0,0.061,0.004,0.092,0.004s0.061-0.004,0.092-0.004h59.07
	c0.031,0,0.061,0.004,0.092,0.004s0.062-0.004,0.092-0.004h0.188c0.031,0,0.061,0.004,0.092,0.004s0.062-0.004,0.092-0.004h59.455
	c0.031,0,0.061,0.004,0.092,0.004s0.062-0.004,0.092-0.004h23.574c4.143,0,7.5-3.358,7.5-7.5v-35.856
	c0.001-0.072,0.001-0.143,0-0.215v-47.499c0.001-0.072,0.001-0.143,0-0.215v-11.701c0.001-0.07,0.001-0.14,0-0.21V371.44
	c0.001-0.072,0.001-0.143,0-0.215v-11.698c0.001-0.072,0.001-0.143,0-0.215v-47.499c0.001-0.072,0.001-0.143,0-0.215v-11.71
	c0.001-0.072,0.001-0.143,0-0.215v-47.499c0.001-0.072,0.001-0.143,0-0.215v-11.71c0.001-0.072,0.001-0.143,0-0.215v-47.499
	c0.001-0.072,0.001-0.143,0-0.215v-11.699c0.001-0.072,0.001-0.143,0-0.215v-47.513c0.001-0.07,0.001-0.14,0-0.209V97.206
	c0-4.142-3.357-7.5-7.5-7.5H129.879C125.736,89.706,122.379,93.064,122.379,97.206z M150.809,104.706l22.133,22.133l-19.207,19.207
	l-16.357-16.358v-24.982H150.809z M408.625,104.706v24.982l-16.357,16.358l-19.207-19.207l22.134-22.134H408.625z M395.561,507.148
	l-22.501-22.501l19.213-19.213l16.352,16.352v25.362H395.561z M137.379,507.148v-25.362l16.352-16.352l19.212,19.212l-22.501,22.501
	H137.379z M332.634,444.221l-19.206-19.207l19.213-19.212l19.206,19.206L332.634,444.221z M194.157,425.009l19.206-19.206
	l19.212,19.212l-19.206,19.206L194.157,425.009z M302.821,414.408l-19.212-19.212l19.213-19.212l19.212,19.212L302.821,414.408z
	 M223.97,395.195l19.212-19.212l19.212,19.212l-19.212,19.212L223.97,395.195z M292.21,246.107l-19.209,19.21l-19.209-19.21
	l19.209-19.209L292.21,246.107z M273.002,324.95l-19.209-19.209l19.209-19.209l19.209,19.209L273.002,324.95z M273.001,384.588
	l-19.212-19.212l19.212-19.212l19.212,19.212L273.001,384.588z M243.186,256.714l19.209,19.21l-19.209,19.21l-19.21-19.21
	L243.186,256.714z M243.186,316.348l19.208,19.208l-19.212,19.212l-19.208-19.208L243.186,316.348z M302.821,354.769l-19.212-19.212
	l19.208-19.208l19.212,19.213L302.821,354.769z M302.818,295.134l-19.209-19.21l19.209-19.21l19.21,19.21L302.818,295.134z
	 M302.817,235.5l-19.208-19.209l19.212-19.212l19.208,19.208L302.817,235.5z M262.395,216.291L243.186,235.5l-19.212-19.213
	l19.208-19.208L262.395,216.291z M213.367,226.894l19.212,19.213l-19.21,19.21l-19.212-19.212L213.367,226.894z M213.369,286.531
	l19.21,19.21l-19.212,19.213l-19.211-19.211L213.369,286.531z M213.367,346.168l19.208,19.208l-19.212,19.212l-19.208-19.208
	L213.367,346.168z M253.789,425.015l19.212-19.212l19.212,19.212l-19.212,19.212L253.789,425.015z M332.64,384.588l-19.212-19.212
	l19.208-19.208l19.212,19.213L332.64,384.588z M332.636,324.954l-19.212-19.213l19.21-19.21l19.212,19.212L332.636,324.954z
	 M332.634,265.317l-19.21-19.21l19.212-19.213l19.211,19.211L332.634,265.317z M292.214,186.472l-19.212,19.212l-19.212-19.212
	l19.212-19.213L292.214,186.472z M232.575,186.472l-19.208,19.208l-19.212-19.213l19.208-19.208L232.575,186.472z M183.549,197.074
	l19.212,19.213l-19.211,19.211l-19.212-19.212L183.549,197.074z M183.55,256.712l19.212,19.212l-19.212,19.213l-19.212-19.212
	L183.55,256.712z M183.55,316.35l19.211,19.211l-19.212,19.213l-19.211-19.211L183.55,316.35z M183.549,375.988l19.207,19.207
	l-19.206,19.206l-19.207-19.207L183.549,375.988z M183.55,435.615l19.212,19.212L183.55,474.04l-19.212-19.212L183.55,435.615z
	 M223.976,454.828l19.206-19.206l19.212,19.212l-19.206,19.206L223.976,454.828z M283.608,454.834l19.213-19.212l19.206,19.207
	l-19.212,19.212L283.608,454.834z M343.241,454.828l19.213-19.213l19.212,19.212l-19.213,19.213L343.241,454.828z M362.454,414.402
	l-19.206-19.206l19.207-19.208l19.206,19.207L362.454,414.402z M362.455,354.774l-19.212-19.213l19.211-19.211l19.212,19.212
	L362.455,354.774z M362.454,295.136l-19.212-19.212l19.212-19.212l19.212,19.212L362.454,295.136z M362.454,235.498l-19.211-19.211
	l19.212-19.213l19.211,19.211L362.454,235.498z M351.848,186.467l-19.212,19.213l-19.208-19.208l12.54-12.54
	c2.929-2.929,2.929-7.678,0-10.606c-2.93-2.929-7.678-2.929-10.607,0l-12.539,12.539l-19.212-19.212l19.212-19.212L351.848,186.467z
	 M262.395,156.653l-19.212,19.212l-19.212-19.212l19.212-19.212L262.395,156.653z M202.756,156.653l-19.207,19.207l-19.206-19.207
	l19.207-19.207L202.756,156.653z M172.942,186.467l-19.211,19.211l-16.352-16.352v-5.709l16.357-16.357L172.942,186.467z
	 M172.943,246.105l-19.212,19.212l-16.352-16.352v-5.721l16.352-16.352L172.943,246.105z M172.943,305.743l-19.212,19.212
	l-16.352-16.352v-5.721l16.352-16.352L172.943,305.743z M172.942,365.381l-19.206,19.207l-16.357-16.357v-5.709l16.352-16.352
	L172.942,365.381z M172.943,425.009l-19.212,19.212l-16.352-16.352v-5.709l16.357-16.358L172.943,425.009z M213.369,465.435
	l19.212,19.212l-19.212,19.212l-19.212-19.212L213.369,465.435z M273.001,465.441l19.207,19.207l-19.206,19.206l-19.207-19.207
	L273.001,465.441z M332.634,465.435l19.212,19.212l-19.212,19.212l-19.212-19.212L332.634,465.435z M373.061,425.009l19.207-19.207
	l16.357,16.358v5.709l-16.352,16.352L373.061,425.009z M373.062,365.381l19.211-19.211l16.352,16.352v5.709l-16.357,16.357
	L373.062,365.381z M373.061,305.743l19.212-19.212l16.352,16.352v5.721l-16.352,16.352L373.061,305.743z M373.061,246.105
	l19.212-19.212l16.352,16.352v5.721l-16.352,16.352L373.061,246.105z M373.062,186.467l19.206-19.207l16.357,16.357v5.709
	l-16.352,16.352L373.062,186.467z M345.176,133.51c-2.929,2.929-2.929,7.677,0,10.606c1.465,1.464,3.384,2.197,5.304,2.197
	c1.919,0,3.839-0.732,5.304-2.197l6.67-6.67l19.207,19.207l-19.206,19.207l-49.027-49.027l19.206-19.206l19.212,19.212
	L345.176,133.51z M273.002,146.046l-19.212-19.212l19.212-19.212l19.212,19.212L273.002,146.046z M213.363,146.046l-19.207-19.207
	l19.212-19.212l19.207,19.207L213.363,146.046z M143.129,156.653l-5.75,5.75v-11.501L143.129,156.653z M143.124,216.285
	l-5.745,5.745v-11.49L143.124,216.285z M143.124,275.924l-5.745,5.745v-11.49L143.124,275.924z M143.124,335.563l-5.745,5.745
	v-11.49L143.124,335.563z M143.129,395.195l-5.75,5.751v-11.501L143.129,395.195z M143.124,454.828l-5.745,5.745v-11.49
	L143.124,454.828z M183.55,495.254l11.895,11.895h-23.789L183.55,495.254z M243.188,495.254l11.895,11.895h-23.789L243.188,495.254z
	 M302.815,495.254l11.894,11.894h-23.788L302.815,495.254z M362.453,495.254l11.894,11.894h-23.788L362.453,495.254z
	 M402.88,454.828l5.745-5.745v11.49L402.88,454.828z M402.874,395.195l5.75-5.75v11.501L402.874,395.195z M402.88,335.563
	l5.745-5.745v11.49L402.88,335.563z M402.88,275.924l5.745-5.745v11.49L402.88,275.924z M402.88,216.285l5.745-5.745v11.49
	L402.88,216.285z M402.874,156.653l5.75-5.751v11.501L402.874,156.653z M362.453,116.232l-11.527-11.527h23.054L362.453,116.232z
	 M302.821,116.226l-11.521-11.521h23.041L302.821,116.226z M243.182,116.226l-11.521-11.521h23.041L243.182,116.226z
	 M183.55,116.232l-11.526-11.526h23.053L183.55,116.232z"/>
<g>
</g>
<g>
</g>
<g>
</g>
<g>
</g>
<g>
</g>
<g>
</g>
<g>
</g>
<g>
</g>
<g>
</g>
<g>
</g>
<g>
</g>
<g>
</g>
<g>
</g>
<g>
</g>
<g>
</g>
</svg>
