<?xml version="1.0" encoding="iso-8859-1"?>
<!-- Generator: Adobe Illustrator 17.1.0, SVG Export Plug-In . SVG Version: 6.00 Build 0)  -->
<!DOCTYPE svg PUBLIC "-//W3C//DTD SVG 1.1//EN" "http://www.w3.org/Graphics/SVG/1.1/DTD/svg11.dtd">
<svg version="1.1" id="Capa_1" xmlns="http://www.w3.org/2000/svg" xmlns:xlink="http://www.w3.org/1999/xlink" x="0px" y="0px"
	 viewBox="0 0 550.752 550.752" style="enable-background:new 0 0 550.752 550.752;" xml:space="preserve">
<path d="M543.252,17.824H134.076H7.5c-4.143,0-7.5,3.358-7.5,7.5v500.104c0,4.142,3.357,7.5,7.5,7.5h126.576h409.176
	c4.143,0,7.5-3.358,7.5-7.5V25.324C550.752,21.182,547.395,17.824,543.252,17.824z M134.076,109.018c-4.143,0-7.5,3.358-7.5,7.5
	v401.41H15V32.824h111.576v30.387c0,4.142,3.357,7.5,7.5,7.5s7.5-3.358,7.5-7.5V32.824h394.176v485.104H141.576v-401.41
	C141.576,112.376,138.219,109.018,134.076,109.018z M151.678,500.58c1.363,1.401,3.265,2.274,5.374,2.274h363.712
	c4.143,0,7.5-3.358,7.5-7.5V55.398c0-4.142-3.357-7.5-7.5-7.5H157.052c-1.087,0-2.118,0.236-3.05,0.653
	c-2.751,1.111-4.694,3.803-4.694,6.952v439.615C149.308,497.274,150.222,499.212,151.678,500.58z M513.02,89.593l-22.565,18.717
	l-26.142-21.683l28.482-23.624h20.226V89.593z M164.552,335.261l22.8-18.911l26.143,21.684l-26.134,21.676l-22.809-18.919V335.261z
	 M164.552,272.405l22.8-18.911l26.143,21.684l-26.143,21.684l-22.8-18.912V272.405z M164.552,209.565l22.81-18.919l26.133,21.676
	l-26.143,21.684l-22.8-18.911V209.565z M164.552,190.077v-18.351l11.062,9.175L164.552,190.077z M502.193,180.902l10.827-8.98v17.96
	L502.193,180.902z M513.02,209.37v5.92l-22.564,18.716l-26.143-21.684l26.133-21.676L513.02,209.37z M513.02,278.146l-22.565,18.716
	l-26.142-21.684l26.142-21.684l22.565,18.716V278.146z M513.02,340.986l-22.574,18.724l-26.134-21.676l26.143-21.684l22.565,18.716
	V340.986z M513.02,360.474v17.96l-10.826-8.98L513.02,360.474z M312.76,338.027l26.144-21.685l26.144,21.685l-26.144,21.685
	L312.76,338.027z M350.651,243.758l26.143-21.684l26.133,21.676l-26.143,21.684L350.651,243.758z M327.156,243.758l-26.133,21.676
	L274.88,243.75l26.134-21.676L327.156,243.758z M338.903,253.502l26.133,21.676l-26.133,21.676l-26.133-21.676L338.903,253.502z
	 M350.651,306.598l26.133-21.676l26.143,21.684l-26.133,21.677L350.651,306.598z M327.156,306.598l-26.143,21.685l-26.133-21.677
	l26.143-21.684L327.156,306.598z M365.046,212.33l-26.142,21.684l-26.142-21.684l26.142-21.684L365.046,212.33z M301.012,347.771
	l26.144,21.685l-26.142,21.684l-26.144-21.685L301.012,347.771z M350.651,369.456l26.144-21.685l26.142,21.684l-26.144,21.685
	L350.651,369.456z M388.542,338.027l26.133-21.676l26.142,21.684l-26.134,21.677L388.542,338.027z M426.422,306.606l26.143-21.684
	l26.143,21.684l-26.143,21.684L426.422,306.606z M414.675,296.862l-26.143-21.685l26.143-21.684l26.143,21.684L414.675,296.862z
	 M426.422,243.75l26.142-21.684l26.143,21.684l-26.142,21.684L426.422,243.75z M414.674,234.006l-26.133-21.676l26.142-21.684
	l26.134,21.676L414.674,234.006z M376.793,202.586l-26.142-21.684l26.142-21.683l26.142,21.683L376.793,202.586z M327.156,180.902
	l-26.142,21.684l-26.142-21.683l26.142-21.683L327.156,180.902z M289.266,212.33l-26.134,21.676l-26.142-21.684l26.134-21.676
	L289.266,212.33z M251.385,243.75l-26.143,21.684l-26.142-21.684l26.143-21.684L251.385,243.75z M263.133,253.494l26.142,21.684
	l-26.143,21.685l-26.142-21.684L263.133,253.494z M251.384,306.606l-26.143,21.684l-26.142-21.684l26.142-21.684L251.384,306.606z
	 M263.132,316.35l26.133,21.676l-26.142,21.684l-26.134-21.677L263.132,316.35z M312.761,400.883l26.142-21.684l26.142,21.684
	l-26.142,21.684L312.761,400.883z M365.045,149.475l-26.142,21.683l-26.142-21.683l26.142-21.683L365.045,149.475z M274.88,432.304
	l26.134-21.677l26.142,21.684l-26.134,21.677L274.88,432.304z M350.651,432.311l26.142-21.684l26.134,21.677l-26.142,21.684
	L350.651,432.311z M376.793,139.731l-26.142-21.683l26.134-21.677l26.142,21.683L376.793,139.731z M225.242,347.778l26.134,21.677
	l-26.134,21.677l-26.134-21.677L225.242,347.778z M263.123,379.198l26.144,21.685l-26.134,21.677l-26.144-21.685L263.123,379.198z
	 M426.421,432.304l26.144-21.685l26.142,21.684l-26.144,21.686L426.421,432.304z M414.674,422.56l-26.134-21.677l26.144-21.685
	l26.134,21.677L414.674,422.56z M426.431,369.454l26.134-21.677l26.134,21.677l-26.133,21.677L426.431,369.454z M502.202,306.606
	l10.817-8.972v17.945L502.202,306.606z M502.203,243.75l10.817-8.972v17.944L502.203,243.75z M452.564,202.578l-26.134-21.676
	l26.134-21.676l26.133,21.676L452.564,202.578z M414.683,171.158l-26.142-21.683l26.134-21.676l26.142,21.683L414.683,171.158z
	 M426.422,118.054l26.142-21.683l26.142,21.683l-26.142,21.683L426.422,118.054z M301.022,96.372l26.134,21.676l-26.142,21.683
	l-17.818-14.78c-3.188-2.643-7.917-2.204-10.561,0.985c-2.645,3.188-2.204,7.916,0.984,10.561l15.647,12.978l-26.142,21.683
	l-26.133-21.676L301.022,96.372z M251.376,180.902l-26.134,21.676l-26.133-21.676l26.134-21.676L251.376,180.902z M175.604,243.75
	l-11.052,9.167v-18.335L175.604,243.75z M175.604,306.606l-11.052,9.167v-18.335L175.604,306.606z M175.613,369.454l-11.062,9.175
	v-18.35L175.613,369.454z M225.241,410.619l26.144,21.685l-26.142,21.684l-26.144-21.685L225.241,410.619z M263.133,442.048
	l26.142,21.684l-26.142,21.683l-26.142-21.683L263.133,442.048z M338.903,442.055l26.134,21.677l-26.134,21.677l-26.134-21.677
	L338.903,442.055z M414.674,442.048l26.142,21.684l-26.142,21.684l-26.142-21.684L414.674,442.048z M338.903,108.304L312.77,86.628
	l26.134-21.677l26.133,21.676L338.903,108.304z M301.022,473.476l17.051,14.143h-34.102L301.022,473.476z M376.785,473.476
	l17.051,14.143h-34.101L376.785,473.476z M414.674,108.31l-26.141-21.683l26.141-21.683l26.142,21.682L414.674,108.31z
	 M376.785,76.883l-16.735-13.88h33.469L376.785,76.883z M301.022,76.884l-16.735-13.881h33.47L301.022,76.884z M289.274,86.628
	l-64.031,53.11l-26.142-21.684l26.142-21.683l17.826,14.786c1.4,1.161,3.097,1.728,4.784,1.728c2.154,0,4.294-0.924,5.776-2.712
	c2.645-3.188,2.204-7.916-0.984-10.561l-15.655-12.985l26.142-21.682L289.274,86.628z M164.552,398.117l22.809-18.919l26.133,21.677
	l-26.142,21.684l-22.8-18.911V398.117z M175.604,432.302l-11.052,9.167v-18.335L175.604,432.302z M225.243,473.476l17.051,14.143
	h-34.101L225.243,473.476z M452.563,473.476l17.05,14.143h-34.101L452.563,473.476z M464.311,463.732l26.144-21.685l22.564,18.716
	v26.856h-19.911L464.311,463.732z M502.202,432.302l10.817-8.972v17.944L502.202,432.302z M490.455,422.559l-26.142-21.684
	l26.133-21.677l22.573,18.724v5.92L490.455,422.559z M513.02,152.434l-22.574,18.724l-26.133-21.676l26.142-21.684l22.565,18.716
	V152.434z M502.202,118.054l10.817-8.973v17.945L502.202,118.054z M452.564,76.883l-16.735-13.88h33.469L452.564,76.883z
	 M225.243,76.883l-16.735-13.88h33.47L225.243,76.883z M175.604,118.054l-11.053,9.167v-18.335L175.604,118.054z M187.353,127.798
	l26.142,21.684l-26.134,21.676l-22.81-18.919v-5.529L187.353,127.798z M164.552,460.958l22.8-18.911l26.144,21.685l-28.798,23.887
	h-20.146V460.958z M185.013,63.003l28.482,23.624l-26.142,21.683l-22.801-18.912V63.003H185.013z M99.81,116.329H41.766
	c-4.143,0-7.5,3.358-7.5,7.5v124.816c0,4.142,3.357,7.5,7.5,7.5H99.81c4.143,0,7.5-3.358,7.5-7.5V123.829
	C107.31,119.687,103.952,116.329,99.81,116.329z M49.266,241.145V131.329H92.31v109.816H49.266z M89.72,153.126
	c0,4.142-3.357,7.5-7.5,7.5H58.592c-4.143,0-7.5-3.358-7.5-7.5s3.357-7.5,7.5-7.5H82.22C86.362,145.626,89.72,148.984,89.72,153.126
	z M81.139,178.649H59.673c-4.143,0-7.5,3.358-7.5,7.5v38.038c0,4.142,3.357,7.5,7.5,7.5h21.466c4.143,0,7.5-3.358,7.5-7.5v-38.038
	C88.639,182.007,85.281,178.649,81.139,178.649z M67.173,216.687v-23.038h6.466v23.038H67.173z"/>
<g>
</g>
<g>
</g>
<g>
</g>
<g>
</g>
<g>
</g>
<g>
</g>
<g>
</g>
<g>
</g>
<g>
</g>
<g>
</g>
<g>
</g>
<g>
</g>
<g>
</g>
<g>
</g>
<g>
</g>
</svg>
