<?xml version="1.0" encoding="iso-8859-1"?>
<!-- Generator: Adobe Illustrator 17.1.0, SVG Export Plug-In . SVG Version: 6.00 Build 0)  -->
<!DOCTYPE svg PUBLIC "-//W3C//DTD SVG 1.1//EN" "http://www.w3.org/Graphics/SVG/1.1/DTD/svg11.dtd">
<svg version="1.1" id="Capa_1" xmlns="http://www.w3.org/2000/svg" xmlns:xlink="http://www.w3.org/1999/xlink" x="0px" y="0px"
	 viewBox="0 0 550.753 550.753" style="enable-background:new 0 0 550.753 550.753;" xml:space="preserve">
<path d="M164.878,347.589h220.997c16.378,0,29.702-13.324,29.702-29.702V250.99c0-77.307-62.894-140.2-140.201-140.2
	s-140.201,62.894-140.201,140.2v66.896C135.176,334.265,148.5,347.589,164.878,347.589z M150.176,250.99
	c0-69.035,56.165-125.2,125.201-125.2c69.036,0,125.201,56.165,125.201,125.2v66.896c0,8.106-6.596,14.702-14.702,14.702H164.878
	c-8.107,0-14.702-6.596-14.702-14.702V250.99z M483.673,301.254h-21.65v-56.578c0-28.175-8.546-57.134-24.171-83.574V7.5
	c0-4.143-3.357-7.5-7.5-7.5h-90.436c-4.143,0-7.5,3.357-7.5,7.5v67.256c-3.228-1.079-6.482-2.066-9.763-2.961V50.356
	c0-19.718-16.047-35.759-35.771-35.759h-19.658c-19.725,0-35.771,16.041-35.771,35.759v20.559
	c-4.417,1.114-8.791,2.396-13.116,3.841V7.5c0-4.143-3.358-7.5-7.5-7.5h-90.355c-4.142,0-7.5,3.357-7.5,7.5v153.469
	c-15.675,26.476-24.25,55.484-24.25,83.707v56.578H67.08c-24.513,0-44.455,19.943-44.455,44.456v137.962
	c0,24.513,19.942,44.456,44.455,44.456h18.44c7.541,13.484,21.955,22.625,38.471,22.625h302.769
	c16.516,0,30.931-9.141,38.472-22.625h18.44c24.513,0,44.455-19.943,44.455-44.456V345.71
	C528.128,321.197,508.186,301.254,483.673,301.254z M347.416,15h75.436v124.255c-4.387-5.556-9.102-10.941-14.146-16.11
	c-18.054-18.503-38.842-32.868-61.29-42.638V15z M246.452,50.356c0-11.446,9.318-20.759,20.771-20.759h19.658
	c11.453,0,20.771,9.313,20.771,20.759v18.016c-1.553-0.284-3.11-0.547-4.671-0.791V56.783c0-11.546-9.394-20.939-20.94-20.939
	h-9.979c-11.546,0-20.94,9.394-20.94,20.939v10.321c-1.561,0.213-3.118,0.446-4.671,0.7V50.356z M275.376,65.451
	c-3.094,0-6.179,0.08-9.253,0.238v-8.906c0-3.275,2.665-5.939,5.94-5.939h9.979c3.275,0,5.94,2.664,5.94,5.939v9.121
	C283.8,65.611,279.598,65.451,275.376,65.451z M127.981,15h75.355v65.506c-22.447,9.77-43.236,24.134-61.289,42.637
	c-5.013,5.138-9.702,10.491-14.066,16.011V15z M103.731,244.676c0-25.68,8.062-52.365,22.407-76.575
	c0.567-0.652,1.021-1.402,1.337-2.222c23.784-38.842,63.823-70.941,112.69-81.627c0.212-0.035,0.42-0.078,0.625-0.13
	c11.107-2.383,22.662-3.671,34.587-3.671c6.507,0,12.901,0.391,19.176,1.124c0.076,0.009,0.151,0.021,0.227,0.028
	c6.192,0.732,12.262,1.809,18.2,3.2c0.273,0.083,0.554,0.146,0.84,0.198c7.332,1.758,14.459,3.994,21.354,6.667
	c1.143,0.934,2.567,1.533,4.126,1.66c35.857,14.997,65.135,41.71,84.069,72.7c0.312,0.799,0.755,1.532,1.306,2.171
	c14.308,24.184,22.348,50.831,22.348,76.477v125.417c-6.071-3.159-12.958-4.956-20.262-4.956H123.992
	c-7.303,0-14.19,1.797-20.261,4.955V244.676z M67.08,513.128c-16.242,0-29.455-13.214-29.455-29.456V345.71
	c0-14.281,10.217-26.217,23.724-28.892v68.618c0,4.143,3.358,7.5,7.5,7.5s7.5-3.357,7.5-7.5v-69.182h12.382v66.558
	c-5.519,7.359-8.793,16.494-8.793,26.379v97.507c0,2.184,0.166,4.33,0.474,6.43H67.08z M426.761,535.753H123.992
	c-16.021,0-29.054-13.034-29.054-29.055v-58.314h287.377v5.694h-5.105c-4.143,0-7.5,3.357-7.5,7.5v42.849c0,4.143,3.357,7.5,7.5,7.5
	h25.21c4.143,0,7.5-3.357,7.5-7.5v-42.849c0-4.143-3.357-7.5-7.5-7.5h-5.104v-5.694h9.619c4.143,0,7.5-3.357,7.5-7.5
	s-3.357-7.5-7.5-7.5H94.938v-24.192c0-16.021,13.034-29.054,29.054-29.054h302.769c16.021,0,29.055,13.033,29.055,29.054v24.192
	h-15.992c-4.143,0-7.5,3.357-7.5,7.5s3.357,7.5,7.5,7.5h15.992v58.314C455.815,522.719,442.781,535.753,426.761,535.753z
	 M394.919,469.078v27.849h-10.21v-27.849H394.919z M513.128,483.672c0,16.242-13.214,29.456-29.455,29.456h-13.332
	c0.309-2.1,0.474-4.246,0.474-6.43v-97.507c0-9.885-3.274-19.02-8.793-26.379v-66.559h12.382v69.182c0,4.143,3.357,7.5,7.5,7.5
	s7.5-3.357,7.5-7.5v-68.618c13.507,2.675,23.724,14.611,23.724,28.892V483.672z M223.705,295.784h109.507c4.143,0,7.5-3.357,7.5-7.5
	v-62.173c0-4.143-3.357-7.5-7.5-7.5H223.705c-4.142,0-7.5,3.357-7.5,7.5v62.173C216.205,292.427,219.563,295.784,223.705,295.784z
	 M231.205,233.611h94.507v47.173h-94.507V233.611z"/>
<g>
</g>
<g>
</g>
<g>
</g>
<g>
</g>
<g>
</g>
<g>
</g>
<g>
</g>
<g>
</g>
<g>
</g>
<g>
</g>
<g>
</g>
<g>
</g>
<g>
</g>
<g>
</g>
<g>
</g>
</svg>
