<?xml version="1.0" encoding="iso-8859-1"?>
<!-- Generator: Adobe Illustrator 17.1.0, SVG Export Plug-In . SVG Version: 6.00 Build 0)  -->
<!DOCTYPE svg PUBLIC "-//W3C//DTD SVG 1.1//EN" "http://www.w3.org/Graphics/SVG/1.1/DTD/svg11.dtd">
<svg version="1.1" id="Capa_1" xmlns="http://www.w3.org/2000/svg" xmlns:xlink="http://www.w3.org/1999/xlink" x="0px" y="0px"
	 viewBox="0 0 550.755 550.755" style="enable-background:new 0 0 550.755 550.755;" xml:space="preserve">
<path d="M355.379,420.55c-2.296-4.418-4.67-8.985-7.005-13.996c-1.288-3.22,3.181-15.936,6.138-24.351
	c3.608-10.268,7.339-20.886,8.553-30.753c0.616-5.005,1.647-13.383-4.312-20.049l-0.25-0.275
	c-4.837-5.291-11.961-7.745-19.048-6.567c-7.131,1.185-13.112,5.845-15.999,12.463l-1.252,2.871
	c-1.551,3.556-4.778,6.073-8.634,6.735c-3.663,0.63-7.185-0.526-9.656-3.173c-0.166-0.177-0.328-0.36-0.485-0.548l-7.406-8.831
	l-4.247-228.605l0.183-4.752c0.198-5.542,3.876-10.407,9.155-12.107c3.331-1.072,5.477-4.306,5.173-7.791l-2.775-31.791
	c4.013-1.372,7.664-3.748,10.557-6.95c4.739-5.244,7.063-12.308,6.375-19.381c-1.286-13.226-12.698-23.218-25.97-22.678
	c-14.322,0.55-21.012,14.14-23.21,18.605c-7.612,15.465-22.449,68.84-23.077,71.104c-0.647,2.337-0.126,4.843,1.401,6.727
	l9.344,11.53l-3.87,208.302c-1.315,3.417-6.891,5.471-15.495,5.664c-2.247,0.034-4.514-0.96-6.523-2.925
	c-4.69-4.585-7.379-13.553-7.379-24.603c0-6.861-3.464-12.932-9.267-16.238c-6.143-3.501-13.817-3.389-20.03,0.292
	c-4.439,2.63-11.849,9.336-11.59,24.702c0.379,22.537,14.763,80.599,18.489,91.532c1.375,4.032,1.215,8.434-0.397,10.952
	c-0.18,0.28-0.34,0.573-0.481,0.875c-2.342,5.024-4.716,9.593-7.012,14.011c-7.518,14.466-14.011,26.96-14.011,45.038
	c0,25.377,9.696,47.051,28.039,62.678c16.894,14.393,40.176,22.368,65.613,22.487c0.048,0.001,0.096,0.001,0.144,0.001h0.434
	c0.048,0,0.096,0,0.144-0.001c25.437-0.119,48.719-8.095,65.613-22.487c18.343-15.627,28.038-37.301,28.038-62.678
	C369.39,447.51,362.897,435.017,355.379,420.55z M270.038,317.717c0.001-0.019,0.001-0.038,0.001-0.056l3.804-204.771h3.069
	l4.62,248.649h-12.309L270.038,317.717z M284.722,25.251c4.353-8.843,7.664-10.14,10.328-10.242
	c5.236-0.222,9.955,3.899,10.465,9.141c0.284,2.925-0.63,5.721-2.574,7.872c-1.949,2.157-4.622,3.352-7.525,3.363
	c-2.097,0.009-4.095,0.896-5.508,2.444s-2.114,3.619-1.932,5.708l2.909,33.324c-7.539,4.438-12.704,12.225-13.74,21.028h-7.087
	l-6.373-7.863C267.213,77.552,278.805,37.273,284.722,25.251z M275.378,535.755c-46.535-0.088-79.012-28.916-79.012-70.166
	c0-14.413,5.437-24.875,12.321-38.121c2.309-4.442,4.694-9.032,7.108-14.185c3.868-6.407,4.499-15.11,1.67-23.41
	c-3.345-9.814-17.348-66.639-17.689-86.944c-0.096-5.685,1.449-9.893,4.237-11.544c1.563-0.928,3.51-0.992,4.958-0.166
	c1.14,0.649,1.694,1.698,1.694,3.206c0,15.283,4.224,27.829,11.893,35.327c4.89,4.782,11.05,7.338,17.346,7.196
	c6.07-0.136,10.924-1.029,14.819-2.38l-0.536,28.836c-22.103,13.492-36.718,41.11-36.718,70.1c0,34.535,21.648,55.153,57.909,55.153
	s57.909-20.618,57.909-55.153c0-16.519-4.826-27.075-12.189-41.296c-1.904-3.679-6.431-5.119-10.108-3.212
	c-3.678,1.904-5.117,6.43-3.212,10.108c7.144,13.798,10.509,21.689,10.509,34.399c0,33.188-23.334,40.153-42.909,40.153
	s-42.909-6.966-42.909-40.153c0-23.274,11.774-46.112,29.001-56.971c0.038,0,0.075,0.006,0.113,0.006h27.575
	c1.583,1.064,3.155,2.283,4.697,3.689c1.438,1.312,3.248,1.958,5.052,1.958c2.035,0,4.064-0.824,5.544-2.446
	c2.791-3.061,2.572-7.805-0.488-10.596c-2.387-2.176-4.863-4.078-7.392-5.696l-0.123-6.647c5.565,4.108,12.629,5.817,19.663,4.61
	c8.85-1.52,16.269-7.323,19.844-15.522l1.252-2.871c1.222-2.803,3.7-3.495,4.708-3.663c0.989-0.164,3.506-0.309,5.524,1.899
	l0.193,0.213c1.139,1.273,1.062,3.952,0.545,8.15c-1.016,8.258-4.474,18.097-7.817,27.611c-5.332,15.175-9.544,27.16-5.588,35.646
	c2.479,5.318,4.928,10.032,7.297,14.591c6.884,13.246,12.321,23.708,12.321,38.122C354.39,506.839,321.913,535.667,275.378,535.755z
	 M300.137,437.131c0,4.143-3.358,7.5-7.5,7.5h-34.518c-4.142,0-7.5-3.357-7.5-7.5s3.358-7.5,7.5-7.5h34.518
	C296.779,429.631,300.137,432.989,300.137,437.131z M300.137,455.399c0,4.143-3.358,7.5-7.5,7.5h-34.518c-4.142,0-7.5-3.357-7.5-7.5
	s3.358-7.5,7.5-7.5h34.518C296.779,447.899,300.137,451.256,300.137,455.399z M340.285,462.8c1.98,0,3.91,0.8,5.3,2.2
	c1.4,1.39,2.2,3.329,2.2,5.3c0,1.979-0.8,3.91-2.2,5.3c-1.39,1.4-3.32,2.2-5.3,2.2s-3.91-0.8-5.3-2.2c-1.4-1.39-2.2-3.32-2.2-5.3
	c0-1.971,0.8-3.91,2.2-5.3C336.374,463.6,338.305,462.8,340.285,462.8z M336.584,486.5c1.4,1.39,2.2,3.329,2.2,5.3
	c0,1.97-0.8,3.899-2.2,5.3c-1.39,1.4-3.33,2.2-5.3,2.2c-1.97,0-3.91-0.8-5.3-2.2c-1.4-1.39-2.2-3.32-2.2-5.3
	c0-1.98,0.8-3.91,2.2-5.3c1.39-1.4,3.32-2.2,5.3-2.2S335.194,485.1,336.584,486.5z M321.584,503.2c1.4,1.4,2.2,3.33,2.2,5.301
	c0,1.979-0.8,3.909-2.2,5.31c-1.39,1.39-3.32,2.2-5.3,2.2c-1.97,0-3.9-0.811-5.3-2.2c-1.4-1.4-2.2-3.33-2.2-5.31
	c0-1.971,0.8-3.9,2.2-5.301c1.4-1.399,3.33-2.199,5.3-2.199C318.265,501,320.194,501.8,321.584,503.2z"/>
<g>
</g>
<g>
</g>
<g>
</g>
<g>
</g>
<g>
</g>
<g>
</g>
<g>
</g>
<g>
</g>
<g>
</g>
<g>
</g>
<g>
</g>
<g>
</g>
<g>
</g>
<g>
</g>
<g>
</g>
</svg>
