<?xml version="1.0" encoding="iso-8859-1"?>
<!-- Generator: Adobe Illustrator 17.1.0, SVG Export Plug-In . SVG Version: 6.00 Build 0)  -->
<!DOCTYPE svg PUBLIC "-//W3C//DTD SVG 1.1//EN" "http://www.w3.org/Graphics/SVG/1.1/DTD/svg11.dtd">
<svg version="1.1" id="Capa_1" xmlns="http://www.w3.org/2000/svg" xmlns:xlink="http://www.w3.org/1999/xlink" x="0px" y="0px"
	 viewBox="0 0 554.085 554.085" style="enable-background:new 0 0 554.085 554.085;" xml:space="preserve">
<path d="M252.694,403.144c0-4.143,3.358-7.5,7.5-7.5h32.252c4.143,0,7.5,3.357,7.5,7.5s-3.357,7.5-7.5,7.5h-32.252
	C256.052,410.644,252.694,407.286,252.694,403.144z M260.194,430.248h32.252c4.143,0,7.5-3.357,7.5-7.5s-3.357-7.5-7.5-7.5h-32.252
	c-4.142,0-7.5,3.357-7.5,7.5S256.052,430.248,260.194,430.248z M373.042,341.465l-35.134,94.606l25.797,53.479
	c0.945,1.959,0.993,4.23,0.133,6.228c-0.86,1.996-2.545,3.521-4.617,4.18l-169.325,53.776c-0.745,0.236-1.511,0.352-2.269,0.352
	c-1.962,0-3.88-0.77-5.309-2.201c-1.981-1.985-2.69-4.91-1.836-7.582c1.075-3.363,25.9-80.629,47.585-113.283l-10.653-57.948
	c-0.387-2.105,0.144-4.275,1.459-5.964c1.315-1.689,3.289-2.735,5.424-2.876l19.904-1.312c2.301-0.936,4.265-2.488,5.716-4.527
	l6.208-8.719l4.383-250.765c0.001-0.064,0.01-0.127,0.013-0.191c0.002-0.06-0.001-0.12,0.003-0.18
	c0.144-2.148-1.417-4.039-3.553-4.303l-2.308-0.285c-2.275-0.281-4.297-1.588-5.489-3.547c-1.191-1.96-1.42-4.356-0.623-6.506
	l23.357-62.935c0.632-1.702,1.86-3.118,3.456-3.983l29.633-16.07c2.685-1.456,5.985-1.14,8.346,0.806
	c2.357,1.943,3.301,5.123,2.384,8.038l-24.323,77.32l0.715,11.501c0.003,0.051,0,0.102,0.002,0.153
	c0.002,0.059,0.011,0.117,0.012,0.177l4.553,250.04l0.022,0.022c4.358,4.34,11.241,5.022,16.368,1.626l38.943-25.803
	c5.189-3.438,11.69-3.159,16.565,0.708S375.209,335.631,373.042,341.465z M270.93,361.044h10.973l-4.634-254.506h-1.891
	l-4.282,244.999c0.032,0.435,0.021,0.872-0.023,1.308L270.93,361.044z M265.458,81.451c4.074,2.181,7.224,5.784,8.851,10.087h2.343
	l-0.306-4.924c-0.057-0.918,0.055-1.839,0.331-2.717l19.18-60.97l-10.865,5.893L265.458,81.451z M358.033,338.796l-36.672,24.298
	c-7.353,4.871-16.377,5.822-24.36,3.168l0.039,2.146c0.036,2.013-0.737,3.955-2.147,5.392s-3.339,2.245-5.352,2.245h-26.243
	c-2.012,0-3.939-0.809-5.35-2.243c-0.369-0.375-0.692-0.787-0.971-1.224c-2.607,2.124-5.577,3.783-8.838,4.871
	c-0.608,0.202-1.24,0.326-1.879,0.368l-12.57,0.828l9.691,52.714c0.368,2.002-0.093,4.066-1.277,5.721
	c-15.513,21.68-34.172,73.065-42.688,97.894l147.022-46.693l-23.427-48.565c-0.887-1.838-0.986-3.957-0.276-5.87L358.033,338.796z
	 M306.223,449.402c0-4.143-3.357-7.5-7.5-7.5h-43.37c-4.142,0-7.5,3.357-7.5,7.5v26.623c0,4.143,3.358,7.5,7.5,7.5h18.352
	c4.142,0,7.5-3.357,7.5-7.5s-3.357-7.5-7.5-7.5h-10.852v-11.623h28.37v11.845c-3.265,0.812-5.685,3.762-5.685,7.278
	c0,4.143,3.357,7.5,7.5,7.5h5.685c4.143,0,7.5-3.357,7.5-7.5V449.402z M322.942,475.414c-1.4,1.39-2.2,3.319-2.2,5.3
	c0,1.979,0.8,3.91,2.2,5.3c1.39,1.4,3.319,2.2,5.3,2.2c1.97,0,3.91-0.8,5.3-2.2c1.4-1.39,2.2-3.33,2.2-5.3c0-1.98-0.8-3.91-2.2-5.3
	c-1.4-1.4-3.33-2.2-5.3-2.2S324.331,474.014,322.942,475.414z M311.992,481.464c-1.98,0-3.91,0.8-5.3,2.2
	c-1.4,1.39-2.2,3.319-2.2,5.3c0,1.97,0.8,3.91,2.2,5.3c1.39,1.4,3.33,2.2,5.3,2.2s3.91-0.8,5.3-2.2c1.4-1.4,2.2-3.33,2.2-5.3
	c0-1.971-0.8-3.91-2.2-5.3C315.902,482.264,313.971,481.464,311.992,481.464z M314.242,462.714c0,1.97,0.8,3.91,2.2,5.3
	c1.39,1.4,3.33,2.2,5.3,2.2c1.979,0,3.91-0.8,5.3-2.2c1.4-1.39,2.2-3.33,2.2-5.3c0-1.98-0.8-3.91-2.2-5.3
	c-1.39-1.4-3.33-2.2-5.3-2.2s-3.91,0.8-5.3,2.2C315.041,458.804,314.242,460.733,314.242,462.714z"/>
<g>
</g>
<g>
</g>
<g>
</g>
<g>
</g>
<g>
</g>
<g>
</g>
<g>
</g>
<g>
</g>
<g>
</g>
<g>
</g>
<g>
</g>
<g>
</g>
<g>
</g>
<g>
</g>
<g>
</g>
</svg>
