<?xml version="1.0" encoding="iso-8859-1"?>
<!-- Generator: Adobe Illustrator 17.1.0, SVG Export Plug-In . SVG Version: 6.00 Build 0)  -->
<!DOCTYPE svg PUBLIC "-//W3C//DTD SVG 1.1//EN" "http://www.w3.org/Graphics/SVG/1.1/DTD/svg11.dtd">
<svg version="1.1" id="Capa_1" xmlns="http://www.w3.org/2000/svg" xmlns:xlink="http://www.w3.org/1999/xlink" x="0px" y="0px"
	 viewBox="0 0 551.494 551.494" style="enable-background:new 0 0 551.494 551.494;" xml:space="preserve">
<path d="M513.582,229.822c-24.616-19.524-60.237-34.267-105.93-43.866V153.79c0-17.613-18.875-31.169-56.101-40.29
	c-26.884-6.587-58.141-9.587-75.805-9.587s-48.921,3-75.805,9.587c-37.227,9.121-56.102,22.677-56.102,40.29v32.167
	c-45.694,9.6-81.315,24.343-105.931,43.867C13.109,249.496,0,274.062,0,300.865c0,36.37,28.339,73.206,77.75,101.063
	c52.218,29.439,122.535,45.652,197.997,45.652s145.778-16.213,197.997-45.652c49.411-27.857,77.75-64.693,77.75-101.063
	C551.494,274.061,538.385,249.494,513.582,229.822z M466.377,388.862c-50.007,28.192-117.707,43.719-190.63,43.719
	s-140.624-15.526-190.631-43.719C41.212,364.109,15,331.214,15,300.865c0-22.377,10.844-42.325,32.231-59.288
	c22.24-17.642,54.713-31.175,96.609-40.285v90.393c0,1.821,0.663,3.581,1.865,4.949c1.615,1.839,40.591,45.043,130.041,45.043
	c27.312,0,52.665-4.073,75.356-12.105c3.904-1.383,5.949-5.669,4.567-9.573c-1.383-3.903-5.668-5.949-9.573-4.567
	c-21.079,7.463-44.749,11.246-70.351,11.246c-43.004,0-73.012-10.871-90.613-19.99c-14.13-7.32-22.754-14.717-26.293-18.08v-96.44
	c0-0.014,0-0.028,0-0.042V153.79c0-9.252,16.699-18.867,44.671-25.721c27.418-6.718,58.221-9.156,72.235-9.156
	s44.817,2.438,72.234,9.156c27.972,6.854,44.671,16.469,44.671,25.721v38.171c-0.002,0.107-0.003,0.215,0,0.322v96.329
	c-1.576,1.502-4.15,3.795-7.752,6.508c-3.308,2.493-3.969,7.195-1.477,10.504c2.493,3.308,7.193,3.969,10.504,1.477
	c7.669-5.779,11.454-10.004,11.86-10.466c1.201-1.369,1.864-3.128,1.864-4.949v-90.394c41.895,9.109,74.368,22.644,96.608,40.284
	c21.389,16.964,32.233,36.912,32.233,59.29C536.494,331.214,510.282,364.109,466.377,388.862z M371.309,160.455
	c1.903,3.679,0.465,8.204-3.214,10.108c-2.183,1.129-53.89,27.66-92.348,27.66c-42.051,0-90.385-25.449-92.422-26.532
	c-3.657-1.945-5.045-6.486-3.101-10.144c1.945-3.657,6.485-5.046,10.144-3.101c0.602,0.318,47.163,24.776,85.379,24.776
	c34.846,0,84.951-25.723,85.453-25.982C364.879,155.337,369.403,156.775,371.309,160.455z"/>
<g>
</g>
<g>
</g>
<g>
</g>
<g>
</g>
<g>
</g>
<g>
</g>
<g>
</g>
<g>
</g>
<g>
</g>
<g>
</g>
<g>
</g>
<g>
</g>
<g>
</g>
<g>
</g>
<g>
</g>
</svg>
