<?xml version="1.0" encoding="iso-8859-1"?>
<!-- Generator: Adobe Illustrator 17.1.0, SVG Export Plug-In . SVG Version: 6.00 Build 0)  -->
<!DOCTYPE svg PUBLIC "-//W3C//DTD SVG 1.1//EN" "http://www.w3.org/Graphics/SVG/1.1/DTD/svg11.dtd">
<svg version="1.1" id="Capa_1" xmlns="http://www.w3.org/2000/svg" xmlns:xlink="http://www.w3.org/1999/xlink" x="0px" y="0px"
	 viewBox="0 0 550.104 550.104" style="enable-background:new 0 0 550.104 550.104;" xml:space="preserve">
<path d="M542.604,36.55H7.5c-4.142,0-7.5,3.358-7.5,7.5v342.113c0,4.142,3.358,7.5,7.5,7.5h15.145v112.391
	c0,4.142,3.358,7.5,7.5,7.5h22.254c4.142,0,7.5-3.358,7.5-7.5v-24.177l32.985,24.739c0.288,3.879,3.519,6.938,7.472,6.938h22.255
	c4.142,0,7.5-3.358,7.5-7.5V393.663h288.175v112.391c0,4.142,3.358,7.5,7.5,7.5h22.254c4.142,0,7.5-3.358,7.5-7.5v-24.176
	l32.985,24.739c0.289,3.879,3.519,6.938,7.472,6.938h22.255c4.142,0,7.5-3.358,7.5-7.5V393.663h16.852c4.142,0,7.5-3.358,7.5-7.5
	V44.05C550.104,39.907,546.746,36.55,542.604,36.55z M518.251,378.663h-22.255H448.04h-22.254H122.611h-22.255H52.399H30.145H15
	V51.55h520.104v327.113H518.251z M433.286,393.663h7.254v104.891h-7.254V393.663z M458.833,393.663h29.664v22.248L458.833,393.663z
	 M455.54,409.943l27.957,20.967l-27.957,20.967V409.943z M488.497,445.91v41.935l-27.957-20.967L488.497,445.91z M510.751,498.554
	h-7.255V393.663h7.255V498.554z M37.645,393.663h7.254v104.891h-7.254V393.663z M63.192,393.663h29.664v22.248L63.192,393.663z
	 M59.899,409.943l27.957,20.967l-27.957,20.968V409.943z M92.856,445.91v41.934L64.9,466.878L92.856,445.91z M115.111,498.554
	h-7.255V393.663h7.255V498.554z M513.958,66.692H36.145c-4.142,0-7.5,3.358-7.5,7.5V356.02c0,4.142,3.358,7.5,7.5,7.5h477.813
	c4.142,0,7.5-3.358,7.5-7.5V74.192C521.458,70.05,518.101,66.692,513.958,66.692z M506.458,81.692V348.52H180.031l202.584-193.021
	c2.999-2.857,3.113-7.604,0.256-10.604s-7.605-3.113-10.604-0.256L158.286,348.52H77.642L357.688,81.692h80.643l-20.56,19.589
	c-2.999,2.857-3.113,7.604-0.256,10.604c1.474,1.547,3.45,2.326,5.431,2.326c1.859,0,3.721-0.687,5.173-2.07l31.957-30.449H506.458z
	 M43.645,348.52V81.692h292.298L55.897,348.52H43.645z"/>
<g>
</g>
<g>
</g>
<g>
</g>
<g>
</g>
<g>
</g>
<g>
</g>
<g>
</g>
<g>
</g>
<g>
</g>
<g>
</g>
<g>
</g>
<g>
</g>
<g>
</g>
<g>
</g>
<g>
</g>
</svg>
