<?xml version="1.0" encoding="iso-8859-1"?>
<!-- Generator: Adobe Illustrator 17.1.0, SVG Export Plug-In . SVG Version: 6.00 Build 0)  -->
<!DOCTYPE svg PUBLIC "-//W3C//DTD SVG 1.1//EN" "http://www.w3.org/Graphics/SVG/1.1/DTD/svg11.dtd">
<svg version="1.1" id="Capa_1" xmlns="http://www.w3.org/2000/svg" xmlns:xlink="http://www.w3.org/1999/xlink" x="0px" y="0px"
	 viewBox="0 0 554.943 554.943" style="enable-background:new 0 0 554.943 554.943;" xml:space="preserve">
<path d="M552.746,162.411c-1.699-1.7-4.108-2.482-6.486-2.103l-16.512,2.638c-1.729,0.276-3.306,1.148-4.459,2.466l-7.568,8.644
	c-2.17-0.226-4.42,0.49-6.084,2.154l-32.835,32.834c-2.937-2.833-7.61-2.807-10.508,0.09l-13.428,13.428
	c-0.002,0.002-0.004,0.003-0.006,0.005c-0.001,0.001-0.003,0.003-0.004,0.005l-39.949,39.949c-2.643,2.643-2.892,6.763-0.766,9.696
	l-3.662,3.662c-0.318-34.679-14.023-67.641-39.07-92.688c-25.184-25.184-58.667-39.053-94.282-39.053
	c-35.612,0-69.093,13.867-94.275,39.047c-0.002,0.002-0.005,0.004-0.007,0.006l-70.615,70.615c-1.313-1.028-2.936-1.6-4.621-1.6
	c-1.989,0-3.896,0.79-5.304,2.197l-53.387,53.387c-2.897,2.897-2.923,7.572-0.089,10.508l-32.835,32.835
	c-1.663,1.663-2.379,3.913-2.153,6.083l-8.644,7.567c-1.317,1.153-2.189,2.731-2.466,4.46l-2.638,16.512
	c-0.379,2.374,0.403,4.786,2.103,6.486c1.418,1.417,3.33,2.197,5.304,2.197c0.393,0,0.789-0.031,1.184-0.094l16.512-2.638
	c1.729-0.276,3.307-1.149,4.46-2.466l7.567-8.644c0.259,0.027,0.519,0.043,0.779,0.043c1.919,0,3.839-0.732,5.304-2.197
	l18.886-18.886c0.002-0.002,0.003-0.003,0.005-0.005s0.003-0.003,0.005-0.005l13.939-13.939c1.397,1.348,3.26,2.107,5.205,2.107
	c1.989,0,3.896-0.79,5.304-2.197l53.387-53.387c2.712-2.712,2.907-6.981,0.598-9.924l3.177-3.177
	c0.398,35.032,14.218,67.909,39.034,92.725c25.184,25.184,58.667,39.053,94.282,39.053s69.099-13.87,94.282-39.053l71.083-71.084
	c1.349,1.141,3.061,1.777,4.84,1.777c1.989,0,3.896-0.79,5.304-2.197l53.388-53.387c1.406-1.406,2.196-3.314,2.196-5.303
	c0-1.945-0.76-3.809-2.107-5.205l13.937-13.937c0.002-0.002,0.005-0.004,0.008-0.007s0.004-0.005,0.007-0.008l18.884-18.884
	c1.406-1.406,2.196-3.314,2.196-5.303c0-0.262-0.016-0.522-0.042-0.78l8.644-7.567c1.317-1.153,2.189-2.731,2.466-4.46l2.638-16.512
	C555.229,166.523,554.446,164.11,552.746,162.411z M67.755,310.165c1.156,0.668,2.449,1.01,3.745,1.01
	c1.919,0,3.839-0.732,5.304-2.197c2.453-2.453,2.843-6.18,1.187-9.048l16.458-16.458c1.156,0.668,2.449,1.01,3.745,1.01
	c1.919,0,3.839-0.732,5.304-2.197c2.453-2.453,2.843-6.18,1.186-9.048l2.926-2.926l16.517,16.517l-2.774,2.774l-4.468-4.537
	c-2.909-2.951-7.657-2.987-10.606-0.08c-2.951,2.907-2.987,7.655-0.08,10.606l4.547,4.617l-16.036,16.036l-4.578-4.545
	c-2.939-2.918-7.688-2.903-10.606,0.038c-2.918,2.939-2.901,7.688,0.038,10.606l4.54,4.507l-2.756,2.757l-16.517-16.517
	L67.755,310.165z M145.489,256.137l-15.42,15.421l-7.189-7.189l27.04-27.04C147.994,243.455,146.512,249.737,145.489,256.137z
	 M159.911,261.144c0.057-0.287,0.094-0.577,0.118-0.869c3.63-25.083,15.18-48.235,33.424-66.479
	c22.35-22.351,52.066-34.66,83.675-34.66s61.324,12.309,83.675,34.66c25.986,25.985,38.217,61.569,33.789,97.97l-12.813,12.813
	c4.615-17.809,4.737-36.796-0.152-55.106c-4.879-18.274-14.566-35.041-28.013-48.488c-20.431-20.43-47.594-31.682-76.486-31.682
	s-56.056,11.251-76.486,31.682c-20.43,20.43-31.682,47.594-31.682,76.486s11.252,56.056,31.682,76.486
	c0.482,0.482,0.972,0.955,1.462,1.427c0.233,0.238,0.449,0.485,0.685,0.721c12.147,12.147,26.747,20.366,42.217,24.703
	c10.268,3.178,21.067,4.831,32.122,4.831c28.893,0,56.056-11.252,76.486-31.682l53.105-53.105c0.202-0.181,0.394-0.373,0.576-0.576
	l17.382-17.381l7.189,7.189l-71.063,71.063c-22.351,22.351-52.066,34.66-83.675,34.66s-61.325-12.309-83.675-34.66
	c-22.351-22.351-34.66-52.067-34.66-83.675C158.792,271.961,159.175,266.511,159.911,261.144z M339.839,219.056
	c-35.029-35.029-90.411-37.56-128.411-7.64c17.576-17.484,40.897-27.112,65.699-27.112c24.887,0,48.282,9.691,65.879,27.288
	c11.585,11.584,19.928,26.022,24.128,41.751c4.214,15.783,4.107,32.148,0.126,47.497
	C371.236,271.815,362.105,241.322,339.839,219.056z M212.711,344.779c-31.233-31.992-31.016-83.416,0.685-115.117
	c15.97-15.97,36.94-23.952,57.918-23.952c20.973,0,41.952,7.986,57.918,23.952c31.937,31.937,31.937,83.9,0,115.837
	c-21.555,21.555-52.229,28.539-79.715,20.998C235.857,362.278,223.293,354.918,212.711,344.779z M478.14,245.673
	c-2.453,2.453-2.843,6.179-1.187,9.047l-16.459,16.458c-2.867-1.656-6.593-1.266-9.047,1.186c-2.454,2.453-2.844,6.18-1.188,9.048
	l-2.927,2.927l-15.79-15.791l-0.726-0.726l2.793-2.793l4.427,4.533c1.469,1.505,3.417,2.26,5.366,2.26c1.89,0,3.78-0.71,5.239-2.134
	c2.964-2.895,3.02-7.643,0.125-10.606l-4.551-4.659l16.007-16.007l4.599,4.547c1.462,1.445,3.367,2.167,5.272,2.167
	c1.934,0,3.866-0.743,5.334-2.227c2.912-2.946,2.885-7.694-0.062-10.606l-4.538-4.486l2.766-2.766l16.516,16.516l-2.926,2.926
	C484.321,242.829,480.594,243.219,478.14,245.673z M489.414,219.646l8.635-8.635l6.098,6.098l-8.635,8.635L489.414,219.646z
	 M508.656,200.403l8.284-8.284l6.098,6.098l-8.284,8.284L508.656,200.403z M537.827,180.368l-6.092,5.333l-2.278-2.278l5.333-6.092
	l3.614-0.577L537.827,180.368z M16.539,377.898l0.577-3.614l6.091-5.333l2.279,2.279l-5.333,6.091L16.539,377.898z M38.002,362.532
	l-6.098-6.098l8.284-8.284l6.098,6.098L38.002,362.532z M50.796,337.543l8.636-8.636l6.098,6.098l-8.636,8.636L50.796,337.543z"/>
<g>
</g>
<g>
</g>
<g>
</g>
<g>
</g>
<g>
</g>
<g>
</g>
<g>
</g>
<g>
</g>
<g>
</g>
<g>
</g>
<g>
</g>
<g>
</g>
<g>
</g>
<g>
</g>
<g>
</g>
</svg>
