<?xml version="1.0" encoding="iso-8859-1"?>
<!-- Generator: Adobe Illustrator 17.1.0, SVG Export Plug-In . SVG Version: 6.00 Build 0)  -->
<!DOCTYPE svg PUBLIC "-//W3C//DTD SVG 1.1//EN" "http://www.w3.org/Graphics/SVG/1.1/DTD/svg11.dtd">
<svg version="1.1" id="Capa_1" xmlns="http://www.w3.org/2000/svg" xmlns:xlink="http://www.w3.org/1999/xlink" x="0px" y="0px"
	 viewBox="0 0 553.132 553.132" style="enable-background:new 0 0 553.132 553.132;" xml:space="preserve">
<path d="M466.343,371.468l-28.066-122.467c0.018-0.209,0.032-0.419,0.032-0.633c0-2.967-1.727-5.523-4.226-6.74l-3.729-3.156V92.979
	l3.079-1.342c2.735-1.192,4.504-3.893,4.504-6.876V32.078C437.938,14.391,423.548,0,405.86,0H146.404
	c-17.688,0-32.078,14.391-32.078,32.078v52.684c0,2.983,1.769,5.684,4.504,6.876l3.947,1.72v144.381l-5.796,4.905
	c-0.02,0.017-0.035,0.038-0.055,0.055c-0.266,0.23-0.515,0.479-0.746,0.744c-0.028,0.033-0.059,0.063-0.086,0.095
	c-0.232,0.275-0.44,0.569-0.631,0.876c-0.032,0.052-0.064,0.104-0.095,0.156c-0.185,0.313-0.35,0.639-0.488,0.979
	c-0.012,0.029-0.021,0.06-0.032,0.089c-0.132,0.336-0.24,0.683-0.322,1.04c-0.005,0.022-0.015,0.042-0.02,0.064l-0.021,0.096
	c-0.002,0.01-0.005,0.02-0.007,0.029l-27.735,124.81c-2.122,9.548,0.171,19.4,6.292,27.03c1.244,1.55,2.616,2.958,4.088,4.23
	v142.694c0,3.272,2.122,6.167,5.242,7.152c0.745,0.234,1.505,0.349,2.257,0.349c2.399,0,4.711-1.155,6.142-3.194l51.614-73.6
	c0.885-1.262,1.359-2.766,1.359-4.307v-61.319h216.914v61.319c0,1.738,0.604,3.423,1.709,4.766l60.569,73.6
	c1.453,1.766,3.593,2.734,5.792,2.734c0.847,0,1.702-0.144,2.53-0.44c2.98-1.068,4.969-3.894,4.969-7.06V402.759
	c1.419-1.248,2.742-2.626,3.945-4.136C466.284,390.94,468.537,381.043,466.343,371.468z M415.355,225.777l-8.851-7.491V103.373
	l8.851-3.857V225.777z M137.776,99.894l7.984,3.479v114.913l-7.984,6.757V99.894z M101.384,374.93l26.458-119.062h234.852
	c4.142,0,7.5-3.357,7.5-7.5s-3.358-7.5-7.5-7.5H142.296l15.809-13.38c1.684-1.425,2.655-3.519,2.655-5.725V98.46
	c0-2.983-1.769-5.684-4.504-6.876l-21.822-9.509c-0.718-0.479-1.525-0.832-2.388-1.041l-2.721-1.186V32.078
	c0-9.417,7.661-17.078,17.078-17.078H405.86c9.417,0,17.078,7.661,17.078,17.078v47.771l-26.93,11.735
	c-2.735,1.192-4.504,3.893-4.504,6.876v123.304c0,2.206,0.971,4.3,2.655,5.725l15.809,13.38h-10.096c-4.142,0-7.5,3.357-7.5,7.5
	s3.358,7.5,7.5,7.5h24.591l27.26,118.95c1.168,5.098-0.031,10.367-3.29,14.458c-3.259,4.09-8.127,6.436-13.357,6.436h-317.02
	c-3.053,0-5.975-0.821-8.535-2.302c-0.492-0.425-1.04-0.785-1.631-1.072c-1.159-0.862-2.228-1.86-3.156-3.018
	C101.475,385.258,100.255,380.013,101.384,374.93z M148.735,469.664l-36.614,52.21V410.155c1.938,0.361,3.921,0.557,5.935,0.557
	h30.68V469.664z M441.218,524.715l-45.569-55.373v-58.63h39.426c2.087,0,4.14-0.21,6.143-0.598V524.715z"/>
<g>
</g>
<g>
</g>
<g>
</g>
<g>
</g>
<g>
</g>
<g>
</g>
<g>
</g>
<g>
</g>
<g>
</g>
<g>
</g>
<g>
</g>
<g>
</g>
<g>
</g>
<g>
</g>
<g>
</g>
</svg>
