<?xml version="1.0" encoding="iso-8859-1"?>
<!-- Generator: Adobe Illustrator 17.1.0, SVG Export Plug-In . SVG Version: 6.00 Build 0)  -->
<!DOCTYPE svg PUBLIC "-//W3C//DTD SVG 1.1//EN" "http://www.w3.org/Graphics/SVG/1.1/DTD/svg11.dtd">
<svg version="1.1" id="Capa_1" xmlns="http://www.w3.org/2000/svg" xmlns:xlink="http://www.w3.org/1999/xlink" x="0px" y="0px"
	 viewBox="0 0 547.742 547.742" style="enable-background:new 0 0 547.742 547.742;" xml:space="preserve">
<path d="M545.3,66.281c-1.556-1.421-3.64-2.133-5.736-1.931L6.821,112.782C2.958,113.132,0,116.371,0,120.25v48.224
	c0,4.143,3.357,7.5,7.5,7.5h16.716v33.431H13.554c-4.143,0-7.5,3.357-7.5,7.5v259.021c0,4.143,3.357,7.5,7.5,7.5h36.323
	c4.143,0,7.5-3.357,7.5-7.5V216.905c0-4.143-3.357-7.5-7.5-7.5H39.216v-33.431h45.538v33.431H74.093c-4.143,0-7.5,3.357-7.5,7.5
	v246.81c0,4.143,3.357,7.5,7.5,7.5h36.323c4.143,0,7.5-3.357,7.5-7.5v-246.81c0-4.143-3.357-7.5-7.5-7.5H99.754v-33.431h45.539
	v33.431h-10.661c-4.143,0-7.5,3.357-7.5,7.5v234.599c0,4.143,3.357,7.5,7.5,7.5h36.323c4.143,0,7.5-3.357,7.5-7.5V216.905
	c0-4.143-3.357-7.5-7.5-7.5h-10.662v-33.431h45.539v33.431H195.17c-4.143,0-7.5,3.357-7.5,7.5v222.387c0,4.143,3.357,7.5,7.5,7.5
	h36.323c4.143,0,7.5-3.357,7.5-7.5V216.905c0-4.143-3.357-7.5-7.5-7.5h-10.661v-33.431h45.539v33.431h-10.662
	c-4.143,0-7.5,3.357-7.5,7.5V427.08c0,4.143,3.357,7.5,7.5,7.5h36.323c4.143,0,7.5-3.357,7.5-7.5V216.905c0-4.143-3.357-7.5-7.5-7.5
	h-10.661v-33.431h45.538v33.431h-10.661c-4.143,0-7.5,3.357-7.5,7.5v197.964c0,4.143,3.357,7.5,7.5,7.5h36.323
	c4.143,0,7.5-3.357,7.5-7.5V216.905c0-4.143-3.357-7.5-7.5-7.5h-10.662v-33.431h45.539v33.431h-10.661c-4.143,0-7.5,3.357-7.5,7.5
	v185.753c0,4.143,3.357,7.5,7.5,7.5h36.323c4.143,0,7.5-3.357,7.5-7.5V216.905c0-4.143-3.357-7.5-7.5-7.5h-10.662v-33.431h45.539
	v33.431h-10.662c-4.143,0-7.5,3.357-7.5,7.5v173.541c0,4.143,3.357,7.5,7.5,7.5h36.324c4.143,0,7.5-3.357,7.5-7.5V216.905
	c0-4.143-3.357-7.5-7.5-7.5h-10.662v-33.431h45.539v33.431h-10.662c-4.143,0-7.5,3.357-7.5,7.5v161.329c0,4.143,3.357,7.5,7.5,7.5
	h36.323c4.143,0,7.5-3.357,7.5-7.5V216.905c0-4.143-3.357-7.5-7.5-7.5h-10.661v-33.431h16.716c4.143,0,7.5-3.357,7.5-7.5V71.819
	C547.742,69.711,546.855,67.701,545.3,66.281z M42.377,468.426H21.054V224.405h21.323V468.426z M102.916,456.214H81.593v-231.81
	h21.323V456.214z M163.455,444.003h-21.323V224.405h21.323V444.003z M223.993,431.791H202.67V224.405h21.323V431.791z
	 M284.532,419.58h-21.323V224.405h21.323V419.58z M345.071,407.368h-21.323V224.405h21.323V407.368z M405.61,395.158h-21.323
	V224.405h21.323V395.158z M466.149,382.946h-21.324V224.405h21.324V382.946z M526.688,370.734h-21.323V224.405h21.323V370.734z
	 M532.742,160.974H15V127.1l517.742-47.068V160.974z M33.296,143.434c0-4.143,3.357-7.5,7.5-7.5h397.703c4.143,0,7.5,3.357,7.5,7.5
	s-3.357,7.5-7.5,7.5H40.796C36.653,150.934,33.296,147.576,33.296,143.434z M469.215,143.434c0-4.143,3.357-7.5,7.5-7.5h30.23
	c4.143,0,7.5,3.357,7.5,7.5s-3.357,7.5-7.5,7.5h-30.23C472.572,150.934,469.215,147.576,469.215,143.434z"/>
<g>
</g>
<g>
</g>
<g>
</g>
<g>
</g>
<g>
</g>
<g>
</g>
<g>
</g>
<g>
</g>
<g>
</g>
<g>
</g>
<g>
</g>
<g>
</g>
<g>
</g>
<g>
</g>
<g>
</g>
</svg>
