<?xml version="1.0" encoding="iso-8859-1"?>
<!-- Generator: Adobe Illustrator 17.1.0, SVG Export Plug-In . SVG Version: 6.00 Build 0)  -->
<!DOCTYPE svg PUBLIC "-//W3C//DTD SVG 1.1//EN" "http://www.w3.org/Graphics/SVG/1.1/DTD/svg11.dtd">
<svg version="1.1" id="Capa_1" xmlns="http://www.w3.org/2000/svg" xmlns:xlink="http://www.w3.org/1999/xlink" x="0px" y="0px"
	 viewBox="0 0 550.752 550.752" style="enable-background:new 0 0 550.752 550.752;" xml:space="preserve">
<path d="M481.629,108.497C437.054,63.923,377.789,39.374,314.75,39.374c-13.349,0-26.527,1.113-39.434,3.272
	c-12.912-2.165-26.13-3.272-39.314-3.272c-63.039,0-122.304,24.549-166.878,69.123C24.548,153.073,0,212.338,0,275.376
	S24.548,397.68,69.124,442.255c44.575,44.574,103.84,69.123,166.878,69.123c13.184,0,26.402-1.107,39.315-3.271
	c12.907,2.159,26.084,3.271,39.434,3.271c63.038,0,122.304-24.549,166.879-69.123c44.574-44.575,69.123-103.841,69.123-166.879
	S526.204,153.073,481.629,108.497z M15,275.376c0-120.352,96.703-218.531,216.487-220.945
	c-31.022,11.675-59.476,29.927-83.616,54.066c-44.575,44.575-69.124,103.841-69.124,166.879s24.548,122.304,69.124,166.879
	c24.14,24.139,52.593,42.391,83.616,54.066C111.703,493.907,15,395.728,15,275.376z M314.75,496.378
	c-121.861,0-221.002-99.141-221.002-221.002S192.889,54.374,314.75,54.374s221.002,99.141,221.002,221.002
	S436.612,496.378,314.75,496.378z M140.823,275.376c0,4.143-3.358,7.5-7.5,7.5s-7.5-3.357-7.5-7.5
	c0-104.175,84.752-188.927,188.928-188.927c4.143,0,7.5,3.357,7.5,7.5s-3.357,7.5-7.5,7.5
	C218.846,101.449,140.823,179.473,140.823,275.376z M178.2,275.376c0,4.143-3.358,7.5-7.5,7.5s-7.5-3.357-7.5-7.5
	c0-83.565,67.985-151.551,151.551-151.551c4.143,0,7.5,3.357,7.5,7.5s-3.357,7.5-7.5,7.5
	C239.456,138.825,178.2,200.082,178.2,275.376z M324.617,409.971c0.021,0.015,0.044,0.025,0.066,0.04
	c0.29,0.207,0.594,0.395,0.913,0.559c0.054,0.028,0.108,0.052,0.162,0.078c0.299,0.146,0.607,0.275,0.926,0.38
	c0.029,0.01,0.056,0.022,0.085,0.031c0.319,0.101,0.649,0.175,0.985,0.232c0.087,0.015,0.174,0.028,0.262,0.04
	c0.315,0.043,0.635,0.072,0.962,0.074c0.016,0,0.032,0.004,0.048,0.004c0.006,0,0.011-0.001,0.017-0.001h24.743
	c-12.404,3.565-25.5,5.479-39.035,5.479c-4.143,0-7.5,3.357-7.5,7.5s3.357,7.5,7.5,7.5c86.301,0,156.511-70.21,156.511-156.511
	c0-4.143-3.357-7.5-7.5-7.5s-7.5,3.357-7.5,7.5c0,48.956-24.991,92.18-62.883,117.598c-0.653-13.252-2.493-26.337-5.479-39.128
	c21.748-20.278,34.137-48.61,34.137-78.47c0-19.406-5.238-38.422-15.148-54.993c-2.124-3.553-6.729-4.714-10.286-2.587
	c-3.555,2.126-4.713,6.731-2.587,10.286c8.519,14.244,13.021,30.599,13.021,47.294c0,22.986-8.535,44.922-23.737,61.782
	c-6.185-19.396-15.08-37.943-26.551-55.148l-7.195-10.794c-1.391-2.087-3.732-3.34-6.24-3.34h-57.126
	c-0.316,0-0.626,0.026-0.931,0.064c-0.079,0.01-0.157,0.024-0.236,0.036c-0.246,0.039-0.488,0.089-0.725,0.151
	c-0.063,0.016-0.125,0.03-0.188,0.048c-0.302,0.087-0.597,0.189-0.881,0.311c-0.003,0.001-0.005,0.003-0.008,0.004
	c-0.275,0.119-0.539,0.257-0.795,0.407c-0.063,0.037-0.125,0.075-0.187,0.114c-0.215,0.134-0.423,0.277-0.623,0.432
	c-0.044,0.034-0.091,0.065-0.134,0.101c-0.233,0.188-0.453,0.39-0.661,0.604c-0.048,0.049-0.092,0.102-0.138,0.152
	c-0.166,0.18-0.323,0.368-0.471,0.564c-0.045,0.06-0.091,0.119-0.135,0.18c-0.181,0.254-0.349,0.518-0.498,0.794l0,0l0,0.001
	c-0.146,0.272-0.27,0.557-0.382,0.848c-0.025,0.064-0.048,0.128-0.071,0.193c-0.089,0.25-0.165,0.506-0.227,0.768
	c-0.011,0.045-0.025,0.089-0.035,0.135c-0.064,0.296-0.111,0.599-0.139,0.907c-0.006,0.069-0.006,0.139-0.01,0.208
	c-0.01,0.159-0.024,0.318-0.024,0.479v44.331c0,15.266,3.17,30.191,9.052,43.915c-38.089-11.657-65.276-47.245-65.276-88.246
	c0-50.888,41.4-92.287,92.287-92.287c8.991,0,17.878,1.29,26.411,3.833c3.973,1.18,8.147-1.076,9.33-5.045
	c1.184-3.97-1.076-8.147-5.045-9.33c-9.926-2.958-20.253-4.458-30.696-4.458c-59.158,0-107.287,48.129-107.287,107.287
	c0,52.501,38.343,97.394,89.75,105.852C304.481,392.249,313.714,402.031,324.617,409.971z M293.687,319.707v-18.883
	c15.381,26.363,24.609,55.644,27.129,86.005C303.611,368.964,293.687,344.867,293.687,319.707z M339.299,282.876l4.969,7.454
	c12.829,19.243,22.202,40.287,27.895,62.339c0.062,0.333,0.146,0.662,0.254,0.986c3.519,13.92,5.578,28.236,6.104,42.753h-42.116
	c-1.368-40.516-13.812-79.599-36.206-113.532H339.299z M255.619,243.151c-1.44,0-2.897-0.414-4.182-1.279
	c-3.436-2.313-4.346-6.975-2.033-10.41c14.674-21.796,39.102-34.809,65.346-34.809c4.143,0,7.5,3.357,7.5,7.5s-3.357,7.5-7.5,7.5
	c-21.244,0-41.021,10.537-52.904,28.186C260.399,241.99,258.03,243.151,255.619,243.151z M252.308,262.59
	c-0.851,4.179-1.282,8.48-1.282,12.786c0,4.143-3.358,7.5-7.5,7.5s-7.5-3.357-7.5-7.5c0-5.308,0.533-10.616,1.583-15.776
	c0.826-4.06,4.783-6.685,8.845-5.854C250.513,254.572,253.134,258.531,252.308,262.59z M510.447,275.376
	c0,107.907-87.789,195.696-195.696,195.696c-4.143,0-7.5-3.357-7.5-7.5s3.357-7.5,7.5-7.5c99.637,0,180.696-81.06,180.696-180.696
	c0-4.143,3.357-7.5,7.5-7.5S510.447,271.234,510.447,275.376z"/>
<g>
</g>
<g>
</g>
<g>
</g>
<g>
</g>
<g>
</g>
<g>
</g>
<g>
</g>
<g>
</g>
<g>
</g>
<g>
</g>
<g>
</g>
<g>
</g>
<g>
</g>
<g>
</g>
<g>
</g>
</svg>
