<?xml version="1.0" encoding="iso-8859-1"?>
<!-- Generator: Adobe Illustrator 17.1.0, SVG Export Plug-In . SVG Version: 6.00 Build 0)  -->
<!DOCTYPE svg PUBLIC "-//W3C//DTD SVG 1.1//EN" "http://www.w3.org/Graphics/SVG/1.1/DTD/svg11.dtd">
<svg version="1.1" id="Capa_1" xmlns="http://www.w3.org/2000/svg" xmlns:xlink="http://www.w3.org/1999/xlink" x="0px" y="0px"
	 viewBox="0 0 550.752 550.752" style="enable-background:new 0 0 550.752 550.752;" xml:space="preserve">
<path d="M495.713,91.065H55.038C24.69,91.065,0,115.756,0,146.104v258.543c0,30.349,24.69,55.039,55.038,55.039h440.675
	c30.349,0,55.039-24.69,55.039-55.039V146.104C550.752,115.756,526.062,91.065,495.713,91.065z M535.752,404.647
	c0,22.078-17.961,40.039-40.039,40.039H55.038C32.961,444.687,15,426.726,15,404.647V146.104c0-22.078,17.961-40.039,40.038-40.039
	h440.675c22.078,0,40.039,17.961,40.039,40.039V404.647z M72.641,284.031h74.152c13.904,0,25.217-11.313,25.217-25.217v-49.8
	c0-13.904-11.313-25.217-25.217-25.217H72.641c-13.904,0-25.217,11.313-25.217,25.217v49.8
	C47.424,272.719,58.736,284.031,72.641,284.031z M87.616,223.15v21.528H62.424V223.15H87.616z M157.01,223.15v21.528h-25.191V223.15
	H157.01z M116.818,216.807v34.216h-14.202v-34.216H116.818z M62.468,259.679h25.247c0.557,3.592,3.654,6.344,7.402,6.344h7.101
	v3.009H72.641C67.299,269.031,62.909,264.909,62.468,259.679z M146.793,269.031h-29.576v-3.009h7.102
	c3.748,0,6.845-2.752,7.402-6.344h25.246C156.525,264.909,152.135,269.031,146.793,269.031z M156.966,208.15H131.72
	c-0.557-3.592-3.654-6.344-7.402-6.344h-7.102v-3.009h29.576C152.135,198.798,156.525,202.92,156.966,208.15z M72.641,198.798
	h29.576v3.009h-7.101c-3.748,0-6.845,2.752-7.402,6.344H62.468C62.909,202.92,67.299,198.798,72.641,198.798z M48.704,320.39
	c0-4.143,3.357-7.5,7.5-7.5h60.882c4.143,0,7.5,3.357,7.5,7.5s-3.357,7.5-7.5,7.5H56.204
	C52.062,327.89,48.704,324.532,48.704,320.39z M144.414,312.89h60.881c4.143,0,7.5,3.357,7.5,7.5s-3.357,7.5-7.5,7.5h-60.881
	c-4.143,0-7.5-3.357-7.5-7.5S140.271,312.89,144.414,312.89z M301.005,320.39c0,4.143-3.357,7.5-7.5,7.5h-60.882
	c-4.143,0-7.5-3.357-7.5-7.5s3.357-7.5,7.5-7.5h60.882C297.647,312.89,301.005,316.247,301.005,320.39z M381.714,327.89h-60.881
	c-4.143,0-7.5-3.357-7.5-7.5s3.357-7.5,7.5-7.5h60.881c4.143,0,7.5,3.357,7.5,7.5S385.856,327.89,381.714,327.89z M261.456,403.074
	c0,4.143-3.357,7.5-7.5,7.5h-15.499c-4.143,0-7.5-3.357-7.5-7.5s3.357-7.5,7.5-7.5h15.499
	C258.099,395.574,261.456,398.932,261.456,403.074z M212.796,403.074c0,4.143-3.357,7.5-7.5,7.5H56.928c-4.143,0-7.5-3.357-7.5-7.5
	s3.357-7.5,7.5-7.5h148.368C209.438,395.574,212.796,398.932,212.796,403.074z M124.586,359.817c0,4.143-3.357,7.5-7.5,7.5h-30.44
	c-4.143,0-7.5-3.357-7.5-7.5s3.357-7.5,7.5-7.5h30.44C121.229,352.317,124.586,355.675,124.586,359.817z M184.055,352.317
	c4.143,0,7.5,3.357,7.5,7.5s-3.357,7.5-7.5,7.5h-30.44c-4.143,0-7.5-3.357-7.5-7.5s3.357-7.5,7.5-7.5H184.055z M469.771,343.262
	c-9.936,0-19.358,3.46-26.833,9.664c-7.483-6.204-16.907-9.664-26.837-9.664c-23.229,0-42.128,18.898-42.128,42.128
	s18.898,42.128,42.128,42.128c9.932,0,19.357-3.46,26.838-9.663c7.475,6.203,16.896,9.663,26.832,9.663
	c23.229,0,42.128-18.898,42.128-42.128S493.001,343.262,469.771,343.262z M416.102,412.518c-14.958,0-27.128-12.17-27.128-27.128
	s12.17-27.128,27.128-27.128c8.189,0,15.854,3.641,21.034,9.995c3.93,4.809,6.094,10.893,6.094,17.133
	c0,0.78-0.034,1.558-0.101,2.331c-0.468,5.411-2.555,10.597-5.999,14.81C431.956,408.877,424.291,412.518,416.102,412.518z
	 M469.771,412.518c-6.344,0-12.367-2.182-17.157-6.11c0.026-0.045,0.048-0.093,0.073-0.138c0.394-0.691,0.767-1.394,1.121-2.106
	c0.081-0.163,0.157-0.328,0.236-0.492c0.304-0.632,0.594-1.271,0.866-1.918c0.053-0.126,0.11-0.251,0.162-0.377
	c0.302-0.739,0.581-1.487,0.841-2.242c0.062-0.178,0.119-0.357,0.178-0.537c0.227-0.687,0.438-1.378,0.629-2.075
	c0.028-0.103,0.06-0.203,0.087-0.305c0.206-0.775,0.385-1.558,0.547-2.345c0.039-0.191,0.076-0.382,0.112-0.573
	c0.143-0.745,0.27-1.493,0.372-2.246c0.009-0.063,0.021-0.126,0.029-0.189c0.105-0.803,0.181-1.611,0.24-2.421
	c0.014-0.197,0.027-0.394,0.038-0.591c0.048-0.818,0.081-1.639,0.081-2.461s-0.033-1.643-0.081-2.461
	c-0.012-0.197-0.024-0.394-0.038-0.591c-0.059-0.811-0.135-1.619-0.24-2.422c-0.008-0.062-0.02-0.123-0.028-0.185
	c-0.103-0.755-0.23-1.505-0.373-2.252c-0.036-0.19-0.072-0.379-0.111-0.568c-0.162-0.789-0.342-1.574-0.549-2.351
	c-0.026-0.097-0.056-0.192-0.083-0.29c-0.193-0.706-0.407-1.405-0.636-2.099c-0.057-0.173-0.113-0.346-0.172-0.518
	c-0.262-0.76-0.542-1.514-0.847-2.258c-0.048-0.116-0.1-0.23-0.149-0.346c-0.278-0.663-0.574-1.317-0.886-1.964
	c-0.073-0.152-0.144-0.304-0.219-0.455c-0.358-0.721-0.736-1.433-1.135-2.133c-0.023-0.041-0.042-0.083-0.066-0.124
	c4.79-3.929,10.813-6.11,17.157-6.11c14.958,0,27.128,12.17,27.128,27.128S484.729,412.518,469.771,412.518z"/>
<g>
</g>
<g>
</g>
<g>
</g>
<g>
</g>
<g>
</g>
<g>
</g>
<g>
</g>
<g>
</g>
<g>
</g>
<g>
</g>
<g>
</g>
<g>
</g>
<g>
</g>
<g>
</g>
<g>
</g>
</svg>
