<?xml version="1.0" encoding="iso-8859-1"?>
<!-- Generator: Adobe Illustrator 17.1.0, SVG Export Plug-In . SVG Version: 6.00 Build 0)  -->
<!DOCTYPE svg PUBLIC "-//W3C//DTD SVG 1.1//EN" "http://www.w3.org/Graphics/SVG/1.1/DTD/svg11.dtd">
<svg version="1.1" id="Capa_1" xmlns="http://www.w3.org/2000/svg" xmlns:xlink="http://www.w3.org/1999/xlink" x="0px" y="0px"
	 viewBox="0 0 550.752 550.752" style="enable-background:new 0 0 550.752 550.752;" xml:space="preserve">
<path d="M204.472,286.798c0.51-1.113,0.996-2.239,1.463-3.374c0.057-0.138,0.114-0.277,0.17-0.416
	c4.372-10.782,6.786-22.559,6.786-34.89c0-12.333-2.415-24.111-6.788-34.894c-0.054-0.135-0.111-0.27-0.166-0.405
	c-0.469-1.14-0.957-2.269-1.468-3.386c-0.194-0.427-0.395-0.851-0.596-1.276c-0.394-0.826-0.796-1.647-1.214-2.459
	c-4.316-8.451-9.987-16.382-17.049-23.445c-7.065-7.065-15-12.738-23.454-17.054c-0.805-0.413-1.618-0.812-2.437-1.203
	c-0.432-0.205-0.863-0.409-1.297-0.607c-1.109-0.508-2.231-0.993-3.364-1.459c-0.143-0.058-0.285-0.118-0.428-0.175
	c-10.78-4.37-22.555-6.784-34.884-6.784c-12.338,0-24.12,2.417-34.907,6.793c-0.125,0.051-0.25,0.103-0.375,0.154
	c-1.15,0.472-2.29,0.965-3.417,1.482c-0.416,0.19-0.83,0.386-1.244,0.582c-0.836,0.399-1.668,0.807-2.49,1.229
	c-8.445,4.315-16.372,9.983-23.431,17.042c-7.059,7.059-12.728,14.985-17.042,23.431c-0.423,0.823-0.831,1.655-1.23,2.492
	c-0.196,0.414-0.392,0.827-0.581,1.242c-0.517,1.128-1.01,2.269-1.483,3.42c-0.05,0.123-0.102,0.246-0.151,0.37
	c-4.377,10.787-6.794,22.57-6.794,34.909c0,12.337,2.417,24.119,6.792,34.905c0.051,0.127,0.104,0.254,0.156,0.381
	c0.471,1.147,0.963,2.285,1.478,3.409c0.191,0.42,0.389,0.837,0.587,1.255c0.397,0.833,0.803,1.661,1.224,2.48
	c4.315,8.447,9.985,16.375,17.045,23.436c7.062,7.061,14.991,12.731,23.44,17.047c0.815,0.419,1.638,0.823,2.467,1.218
	c0.422,0.2,0.844,0.4,1.269,0.593c1.12,0.513,2.252,1.003,3.395,1.472c0.132,0.054,0.263,0.108,0.395,0.161
	c10.784,4.374,22.564,6.79,34.898,6.79c12.332,0,24.11-2.415,34.892-6.787c0.137-0.055,0.274-0.112,0.411-0.168
	c1.137-0.468,2.264-0.954,3.378-1.465c0.43-0.196,0.858-0.398,1.286-0.601c0.822-0.392,1.64-0.793,2.449-1.209
	c8.452-4.316,16.384-9.987,23.448-17.051c7.064-7.064,12.736-14.997,17.052-23.45c0.415-0.809,0.816-1.625,1.208-2.448
	C204.073,287.657,204.276,287.229,204.472,286.798z M193.399,274.201c-0.273,0.776-0.573,1.544-0.871,2.313
	c-0.197,0.504-0.389,1.011-0.597,1.51c-0.202,0.489-0.42,0.972-0.632,1.457c-0.337,0.766-0.674,1.533-1.035,2.286
	c-0.099,0.208-0.206,0.415-0.307,0.622c-7.639,15.587-20.315,28.269-35.896,35.917c-0.229,0.112-0.456,0.229-0.687,0.339
	c-0.731,0.35-1.475,0.677-2.218,1.004c-0.509,0.223-1.015,0.451-1.528,0.663c-0.475,0.197-0.957,0.379-1.436,0.567
	c-0.794,0.309-1.589,0.618-2.391,0.9c-0.202,0.072-0.407,0.137-0.609,0.207c-16.466,5.642-34.45,5.64-50.914-0.007
	c-0.192-0.066-0.386-0.128-0.578-0.196c-0.813-0.286-1.619-0.599-2.424-0.913c-0.468-0.184-0.938-0.361-1.402-0.554
	c-0.524-0.216-1.043-0.45-1.563-0.678c-0.731-0.323-1.463-0.644-2.183-0.989c-0.243-0.115-0.482-0.239-0.723-0.357
	c-15.56-7.646-28.221-20.312-35.857-35.877c-0.108-0.221-0.221-0.441-0.327-0.663c-0.354-0.74-0.685-1.493-1.017-2.246
	c-0.218-0.499-0.442-0.995-0.649-1.497c-0.202-0.486-0.388-0.979-0.581-1.47c-0.304-0.783-0.609-1.565-0.887-2.355
	c-0.076-0.215-0.146-0.434-0.22-0.649c-5.629-16.448-5.628-34.408,0.006-50.854c0.072-0.208,0.138-0.417,0.212-0.624
	c0.281-0.799,0.589-1.59,0.897-2.381c0.189-0.482,0.372-0.967,0.57-1.444c0.211-0.511,0.439-1.017,0.661-1.525
	c0.328-0.743,0.654-1.487,1.004-2.218c0.11-0.232,0.229-0.461,0.342-0.692c7.648-15.578,20.328-28.251,35.911-35.89
	c0.21-0.102,0.417-0.21,0.628-0.31c0.752-0.36,1.517-0.697,2.283-1.033c0.486-0.213,0.97-0.431,1.46-0.633
	c0.499-0.208,1.005-0.399,1.509-0.596c0.769-0.299,1.538-0.598,2.314-0.872c0.23-0.082,0.463-0.156,0.693-0.235
	c8.211-2.806,16.798-4.22,25.389-4.22c8.617,0,17.232,1.422,25.469,4.247c0.191,0.066,0.385,0.127,0.575,0.195
	c0.816,0.287,1.624,0.601,2.431,0.916c0.465,0.182,0.932,0.359,1.392,0.55c0.528,0.218,1.051,0.453,1.575,0.683
	c0.727,0.321,1.455,0.64,2.17,0.983c0.247,0.117,0.491,0.243,0.737,0.364c15.559,7.647,28.217,20.313,35.852,35.879
	c0.106,0.218,0.218,0.434,0.322,0.652c0.356,0.744,0.689,1.501,1.023,2.258c0.216,0.494,0.438,0.987,0.644,1.484
	c0.204,0.491,0.392,0.989,0.586,1.485c0.302,0.777,0.604,1.554,0.881,2.339c0.079,0.222,0.15,0.448,0.227,0.671
	c5.619,16.427,5.62,34.362,0.006,50.791C193.555,273.737,193.481,273.971,193.399,274.201z M61.78,250.011
	c0,4.143-3.358,7.5-7.5,7.5s-7.5-3.357-7.5-7.5c0-41.276,33.581-74.857,74.857-74.857c4.142,0,7.5,3.357,7.5,7.5s-3.358,7.5-7.5,7.5
	C88.632,190.153,61.78,217.005,61.78,250.011z M81.814,250.011c0,4.143-3.358,7.5-7.5,7.5s-7.5-3.357-7.5-7.5
	c0-30.23,24.594-54.824,54.824-54.824c4.142,0,7.5,3.357,7.5,7.5s-3.358,7.5-7.5,7.5C99.679,210.187,81.814,228.052,81.814,250.011z
	 M121.638,215.099c-9.325,0-18.092,3.632-24.686,10.227c-13.611,13.611-13.611,35.76,0,49.372
	c6.594,6.594,15.361,10.226,24.686,10.226s18.092-3.632,24.686-10.226c13.612-13.612,13.612-35.761,0-49.372
	C139.73,218.73,130.963,215.099,121.638,215.099z M135.717,264.09L135.717,264.09c-3.761,3.762-8.761,5.833-14.08,5.833
	c-5.318,0-10.319-2.071-14.08-5.832c-7.763-7.764-7.763-20.396,0-28.159c3.761-3.762,8.761-5.833,14.08-5.833
	c5.319,0,10.319,2.071,14.08,5.833C143.48,243.694,143.48,256.327,135.717,264.09z M543.252,108.181H7.5c-4.142,0-7.5,3.357-7.5,7.5
	v286.854v32.537c0,4.143,3.358,7.5,7.5,7.5h535.752c4.142,0,7.5-3.357,7.5-7.5v-32.537V115.681
	C550.752,111.538,547.394,108.181,543.252,108.181z M15,427.571v-17.537h466.435c4.142,0,7.5-3.357,7.5-7.5s-3.358-7.5-7.5-7.5H15
	V123.181h520.752v271.854h-11.338c-4.142,0-7.5,3.357-7.5,7.5s3.358,7.5,7.5,7.5h11.338v17.537H15z M249.783,283.543
	c4.142,0,7.5-3.357,7.5-7.5v-35.895c0-4.143-3.358-7.5-7.5-7.5h-2.585v-1.474c0-4.143-3.358-7.5-7.5-7.5s-7.5,3.357-7.5,7.5v1.474
	h-2.585c-4.142,0-7.5,3.357-7.5,7.5v35.895c0,4.143,3.358,7.5,7.5,7.5h2.585v55.315c0,4.143,3.358,7.5,7.5,7.5s7.5-3.357,7.5-7.5
	v-55.315H249.783z M237.112,268.543v-20.895h5.171v20.895H237.112z M282.876,338.858v-10.447h2.585c4.142,0,7.5-3.357,7.5-7.5
	v-35.895c0-4.143-3.358-7.5-7.5-7.5h-2.585v-46.342c0-4.143-3.358-7.5-7.5-7.5s-7.5,3.357-7.5,7.5v46.342h-2.585
	c-4.142,0-7.5,3.357-7.5,7.5v35.895c0,4.143,3.358,7.5,7.5,7.5h2.585v10.447c0,4.143,3.358,7.5,7.5,7.5
	S282.876,343.001,282.876,338.858z M277.961,292.517v20.895h-5.171v-20.895H277.961z M311.055,346.358c4.142,0,7.5-3.357,7.5-7.5
	v-55.315h2.585c4.142,0,7.5-3.357,7.5-7.5v-35.895c0-4.143-3.358-7.5-7.5-7.5h-2.585v-1.474c0-4.143-3.358-7.5-7.5-7.5
	s-7.5,3.357-7.5,7.5v1.474h-2.585c-4.142,0-7.5,3.357-7.5,7.5v35.895c0,4.143,3.358,7.5,7.5,7.5h2.585v55.315
	C303.555,343.001,306.913,346.358,311.055,346.358z M313.64,247.648v20.895h-5.171v-20.895H313.64z M236.695,214.918
	c11.01,0,19.968-8.957,19.968-19.967c0-11.011-8.958-19.968-19.968-19.968c-11.01,0-19.967,8.957-19.967,19.968
	C216.728,205.961,225.686,214.918,236.695,214.918z M236.695,189.983c2.739,0,4.968,2.229,4.968,4.968
	c0,2.738-2.229,4.967-4.968,4.967c-2.739,0-4.967-2.229-4.967-4.967C231.728,192.212,233.957,189.983,236.695,189.983z
	 M275.363,193.266c11.01,0,19.967-8.957,19.967-19.968c0-11.01-8.958-19.967-19.967-19.967c-11.01,0-19.968,8.957-19.968,19.967
	C255.395,184.309,264.353,193.266,275.363,193.266z M275.363,168.331c2.739,0,4.967,2.229,4.967,4.967
	c0,2.739-2.229,4.968-4.967,4.968c-2.739,0-4.968-2.229-4.968-4.968C270.395,170.56,272.624,168.331,275.363,168.331z
	 M236.695,171.542c11.01,0,19.968-8.957,19.968-19.968c0-11.01-8.958-19.967-19.968-19.967c-11.01,0-19.967,8.957-19.967,19.967
	C216.728,162.585,225.686,171.542,236.695,171.542z M236.695,146.607c2.739,0,4.968,2.229,4.968,4.967
	c0,2.739-2.229,4.968-4.968,4.968c-2.739,0-4.967-2.229-4.967-4.968C231.728,148.836,233.957,146.607,236.695,146.607z
	 M314.057,174.983c-11.01,0-19.968,8.957-19.968,19.968c0,11.01,8.958,19.967,19.968,19.967c11.01,0,19.967-8.957,19.967-19.967
	C334.024,183.94,325.066,174.983,314.057,174.983z M314.057,199.918c-2.739,0-4.968-2.229-4.968-4.967
	c0-2.739,2.229-4.968,4.968-4.968c2.739,0,4.967,2.229,4.967,4.968C319.024,197.689,316.795,199.918,314.057,199.918z
	 M314.057,131.607c-11.01,0-19.968,8.957-19.968,19.967c0,11.011,8.958,19.968,19.968,19.968c11.01,0,19.967-8.957,19.967-19.968
	C334.024,140.564,325.066,131.607,314.057,131.607z M314.057,156.542c-2.739,0-4.968-2.229-4.968-4.968
	c0-2.738,2.229-4.967,4.968-4.967c2.739,0,4.967,2.229,4.967,4.967C319.024,154.313,316.795,156.542,314.057,156.542z
	 M246.39,359.949c0,4.143-3.358,7.5-7.5,7.5h-10.303c-4.142,0-7.5-3.357-7.5-7.5s3.358-7.5,7.5-7.5h10.303
	C243.032,352.449,246.39,355.807,246.39,359.949z M88.178,364.385c0,4.143-3.358,7.5-7.5,7.5H59.589c-4.142,0-7.5-3.357-7.5-7.5
	s3.358-7.5,7.5-7.5h21.089C84.82,356.885,88.178,360.242,88.178,364.385z M139.097,364.385c0,4.143-3.358,7.5-7.5,7.5h-21.09
	c-4.142,0-7.5-3.357-7.5-7.5s3.358-7.5,7.5-7.5h21.09C135.739,356.885,139.097,360.242,139.097,364.385z M190.015,364.385
	c0,4.143-3.358,7.5-7.5,7.5h-21.089c-4.142,0-7.5-3.357-7.5-7.5s3.358-7.5,7.5-7.5h21.089
	C186.657,356.885,190.015,360.242,190.015,364.385z M399.521,364.385c0,4.143-3.358,7.5-7.5,7.5h-21.089c-4.142,0-7.5-3.357-7.5-7.5
	s3.358-7.5,7.5-7.5h21.089C396.163,356.885,399.521,360.242,399.521,364.385z M450.439,364.385c0,4.143-3.358,7.5-7.5,7.5H421.85
	c-4.142,0-7.5-3.357-7.5-7.5s3.358-7.5,7.5-7.5h21.089C447.081,356.885,450.439,360.242,450.439,364.385z M501.357,364.385
	c0,4.143-3.358,7.5-7.5,7.5h-21.089c-4.142,0-7.5-3.357-7.5-7.5s3.358-7.5,7.5-7.5h21.089
	C497.999,356.885,501.357,360.242,501.357,364.385z M274.148,359.949c0,4.143-3.358,7.5-7.5,7.5h-10.303c-4.142,0-7.5-3.357-7.5-7.5
	s3.358-7.5,7.5-7.5h10.303C270.79,352.449,274.148,355.807,274.148,359.949z M301.907,359.949c0,4.143-3.358,7.5-7.5,7.5h-10.303
	c-4.142,0-7.5-3.357-7.5-7.5s3.358-7.5,7.5-7.5h10.303C298.549,352.449,301.907,355.807,301.907,359.949z M329.665,359.949
	c0,4.143-3.358,7.5-7.5,7.5h-10.303c-4.142,0-7.5-3.357-7.5-7.5s3.358-7.5,7.5-7.5h10.303
	C326.307,352.449,329.665,355.807,329.665,359.949z M246.39,381.361c0,4.143-3.358,7.5-7.5,7.5h-10.303c-4.142,0-7.5-3.357-7.5-7.5
	s3.358-7.5,7.5-7.5h10.303C243.032,373.861,246.39,377.219,246.39,381.361z M274.148,381.361c0,4.143-3.358,7.5-7.5,7.5h-10.303
	c-4.142,0-7.5-3.357-7.5-7.5s3.358-7.5,7.5-7.5h10.303C270.79,373.861,274.148,377.219,274.148,381.361z M301.907,381.361
	c0,4.143-3.358,7.5-7.5,7.5h-10.303c-4.142,0-7.5-3.357-7.5-7.5s3.358-7.5,7.5-7.5h10.303
	C298.549,373.861,301.907,377.219,301.907,381.361z M329.665,381.361c0,4.143-3.358,7.5-7.5,7.5h-10.303c-4.142,0-7.5-3.357-7.5-7.5
	s3.358-7.5,7.5-7.5h10.303C326.307,373.861,329.665,377.219,329.665,381.361z M126.942,244.71c1.39,1.391,2.2,3.33,2.2,5.301
	c0,1.97-0.81,3.909-2.2,5.3c-1.4,1.399-3.33,2.2-5.31,2.2c-1.97,0-3.9-0.801-5.3-2.2c-1.39-1.391-2.19-3.33-2.19-5.3
	c0-1.98,0.8-3.91,2.19-5.301c1.4-1.399,3.33-2.199,5.3-2.199C123.612,242.511,125.542,243.311,126.942,244.71z M345.785,209.419
	c-0.517,1.128-1.01,2.269-1.483,3.42c-0.05,0.123-0.102,0.246-0.151,0.37c-4.377,10.787-6.794,22.57-6.794,34.909
	c0,12.337,2.417,24.119,6.792,34.905c0.051,0.127,0.104,0.254,0.156,0.381c0.471,1.147,0.963,2.285,1.478,3.409
	c0.191,0.42,0.389,0.837,0.587,1.255c0.397,0.833,0.803,1.661,1.224,2.48c4.315,8.447,9.985,16.375,17.045,23.436
	c7.062,7.062,14.992,12.732,23.441,17.047c0.814,0.418,1.637,0.822,2.465,1.217c0.423,0.2,0.845,0.401,1.271,0.594
	c1.119,0.513,2.251,1.002,3.393,1.472c0.132,0.054,0.264,0.109,0.396,0.162c10.784,4.374,22.563,6.79,34.898,6.79
	c12.333,0,24.11-2.415,34.893-6.788c0.137-0.055,0.272-0.112,0.409-0.167c1.138-0.468,2.265-0.955,3.38-1.466
	c0.43-0.196,0.857-0.398,1.284-0.601c0.823-0.393,1.641-0.794,2.451-1.21c8.452-4.316,16.384-9.987,23.447-17.05
	c7.064-7.064,12.736-14.997,17.052-23.45c0.415-0.809,0.816-1.625,1.208-2.448c0.203-0.429,0.406-0.857,0.602-1.288
	c0.51-1.113,0.996-2.239,1.463-3.374c0.057-0.138,0.114-0.277,0.17-0.416c4.372-10.782,6.786-22.559,6.786-34.89
	c0-12.333-2.415-24.111-6.788-34.894c-0.054-0.135-0.111-0.27-0.166-0.405c-0.469-1.14-0.957-2.269-1.469-3.386
	c-0.194-0.427-0.395-0.851-0.596-1.276c-0.394-0.826-0.797-1.647-1.214-2.459c-4.316-8.451-9.987-16.382-17.049-23.445
	c-7.064-7.064-14.998-12.736-23.451-17.052c-0.808-0.415-1.624-0.815-2.445-1.207c-0.429-0.203-0.858-0.406-1.289-0.603
	c-1.112-0.51-2.237-0.996-3.372-1.462c-0.14-0.057-0.28-0.115-0.42-0.172c-10.781-4.371-22.557-6.785-34.888-6.785
	c-12.337,0-24.118,2.417-34.904,6.792c-0.128,0.051-0.255,0.104-0.382,0.156c-1.148,0.472-2.285,0.963-3.41,1.479
	c-0.419,0.191-0.835,0.388-1.252,0.586c-0.834,0.397-1.662,0.804-2.482,1.225c-8.447,4.315-16.374,9.984-23.434,17.044
	c-7.059,7.059-12.728,14.985-17.042,23.431c-0.423,0.823-0.831,1.655-1.23,2.492C346.17,208.59,345.974,209.003,345.785,209.419z
	 M356.84,222.059c0.281-0.799,0.589-1.59,0.897-2.381c0.189-0.482,0.372-0.967,0.57-1.444c0.211-0.511,0.439-1.017,0.661-1.525
	c0.328-0.743,0.654-1.487,1.004-2.218c0.11-0.232,0.229-0.461,0.342-0.692c7.648-15.578,20.328-28.251,35.911-35.89
	c0.21-0.102,0.417-0.21,0.628-0.31c0.752-0.36,1.517-0.697,2.283-1.033c0.486-0.213,0.97-0.431,1.46-0.633
	c0.499-0.208,1.005-0.399,1.509-0.596c0.769-0.299,1.538-0.598,2.314-0.872c0.23-0.082,0.463-0.156,0.693-0.235
	c8.212-2.806,16.798-4.22,25.389-4.22c8.616,0,17.232,1.422,25.469,4.247c0.191,0.066,0.385,0.127,0.575,0.195
	c0.816,0.287,1.624,0.601,2.431,0.916c0.465,0.182,0.932,0.359,1.392,0.55c0.528,0.218,1.051,0.453,1.575,0.683
	c0.727,0.321,1.455,0.64,2.17,0.983c0.247,0.117,0.491,0.243,0.737,0.364c15.559,7.647,28.217,20.313,35.852,35.879
	c0.106,0.218,0.218,0.434,0.322,0.652c0.356,0.744,0.689,1.501,1.023,2.258c0.216,0.494,0.438,0.987,0.644,1.484
	c0.204,0.491,0.392,0.989,0.586,1.485c0.302,0.777,0.604,1.554,0.881,2.339c0.079,0.222,0.151,0.448,0.227,0.671
	c5.619,16.427,5.62,34.362,0.006,50.791c-0.08,0.231-0.154,0.465-0.236,0.696c-0.273,0.776-0.573,1.544-0.871,2.313
	c-0.197,0.504-0.389,1.011-0.596,1.51c-0.202,0.489-0.42,0.972-0.632,1.457c-0.337,0.766-0.674,1.533-1.035,2.286
	c-0.099,0.208-0.206,0.415-0.307,0.622c-7.638,15.585-20.312,28.265-35.89,35.914c-0.232,0.113-0.462,0.232-0.696,0.343
	c-0.728,0.349-1.469,0.674-2.209,1c-0.512,0.224-1.022,0.454-1.537,0.667c-0.472,0.196-0.951,0.376-1.427,0.563
	c-0.797,0.31-1.595,0.621-2.4,0.904c-0.199,0.071-0.401,0.135-0.601,0.204c-16.465,5.644-34.45,5.643-50.915-0.003
	c-0.195-0.068-0.392-0.13-0.586-0.199c-0.81-0.285-1.613-0.597-2.415-0.909c-0.471-0.185-0.945-0.364-1.411-0.558
	c-0.521-0.215-1.036-0.447-1.554-0.674c-0.734-0.324-1.469-0.647-2.192-0.992c-0.24-0.114-0.476-0.236-0.714-0.353
	c-15.563-7.645-28.226-20.313-35.864-35.881c-0.108-0.221-0.221-0.441-0.327-0.663c-0.354-0.74-0.685-1.493-1.017-2.246
	c-0.218-0.499-0.442-0.995-0.649-1.497c-0.202-0.486-0.388-0.979-0.581-1.47c-0.304-0.783-0.609-1.565-0.887-2.355
	c-0.076-0.215-0.146-0.434-0.22-0.649c-5.629-16.448-5.628-34.408,0.006-50.854C356.701,222.475,356.767,222.265,356.84,222.059z
	 M357.537,250.011c0-41.276,33.581-74.857,74.857-74.857c4.142,0,7.5,3.357,7.5,7.5s-3.358,7.5-7.5,7.5
	c-33.005,0-59.857,26.852-59.857,59.857c0,4.143-3.358,7.5-7.5,7.5S357.537,254.153,357.537,250.011z M392.57,250.011
	c0,4.143-3.358,7.5-7.5,7.5s-7.5-3.357-7.5-7.5c0-30.23,24.594-54.824,54.824-54.824c4.142,0,7.5,3.357,7.5,7.5s-3.358,7.5-7.5,7.5
	C410.435,210.187,392.57,228.052,392.57,250.011z M407.708,225.325c-13.611,13.611-13.611,35.76,0,49.372
	c6.594,6.594,15.361,10.226,24.686,10.226s18.092-3.632,24.686-10.227v0.001c13.612-13.612,13.612-35.761,0-49.372
	c-6.594-6.595-15.361-10.227-24.686-10.227S414.302,218.73,407.708,225.325z M446.474,264.09L446.474,264.09
	c-3.761,3.762-8.761,5.833-14.08,5.833c-5.318,0-10.319-2.071-14.08-5.832c-7.763-7.764-7.763-20.396,0-28.159
	c3.761-3.762,8.761-5.833,14.08-5.833c5.319,0,10.319,2.071,14.08,5.833C454.237,243.694,454.237,256.327,446.474,264.09z
	 M432.393,242.511c1.98,0,3.91,0.8,5.31,2.199c1.39,1.391,2.19,3.32,2.19,5.301c0,1.97-0.8,3.909-2.19,5.3
	c-1.4,1.399-3.33,2.2-5.31,2.2c-1.97,0-3.91-0.801-5.3-2.2c-1.4-1.4-2.2-3.33-2.2-5.3c0-1.971,0.8-3.91,2.2-5.301
	C428.482,243.311,430.422,242.511,432.393,242.511z"/>
<g>
</g>
<g>
</g>
<g>
</g>
<g>
</g>
<g>
</g>
<g>
</g>
<g>
</g>
<g>
</g>
<g>
</g>
<g>
</g>
<g>
</g>
<g>
</g>
<g>
</g>
<g>
</g>
<g>
</g>
</svg>
