<?xml version="1.0" encoding="iso-8859-1"?>
<!-- Generator: Adobe Illustrator 17.1.0, SVG Export Plug-In . SVG Version: 6.00 Build 0)  -->
<!DOCTYPE svg PUBLIC "-//W3C//DTD SVG 1.1//EN" "http://www.w3.org/Graphics/SVG/1.1/DTD/svg11.dtd">
<svg version="1.1" id="Capa_1" xmlns="http://www.w3.org/2000/svg" xmlns:xlink="http://www.w3.org/1999/xlink" x="0px" y="0px"
	 viewBox="0 0 548.682 548.682" style="enable-background:new 0 0 548.682 548.682;" xml:space="preserve">
<path d="M251.818,414.695h43.119c4.143,0,7.5-3.357,7.5-7.5v-24.476c0-4.143-3.357-7.5-7.5-7.5h-43.119c-4.143,0-7.5,3.357-7.5,7.5
	v24.476C244.318,411.338,247.676,414.695,251.818,414.695z M259.318,390.219h28.119v9.476h-28.119V390.219z M251.818,370.863h43.119
	c4.143,0,7.5-3.357,7.5-7.5v-24.477c0-4.143-3.357-7.5-7.5-7.5h-43.119c-4.143,0-7.5,3.357-7.5,7.5v24.477
	C244.318,367.505,247.676,370.863,251.818,370.863z M259.318,346.386h28.119v9.477h-28.119V346.386z M331.187,409.165
	c0.546,2.311-0.034,4.744-1.565,6.56l-27.184,32.236v15.78c0,4.143-3.357,7.5-7.5,7.5h-7.667c-4.143,0-7.5-3.357-7.5-7.5
	s3.357-7.5,7.5-7.5h0.167v-22.039h-28.119v22.039h6.003c4.143,0,7.5,3.357,7.5,7.5s-3.357,7.5-7.5,7.5h-13.503
	c-4.143,0-7.5-3.357-7.5-7.5v-37.039c0-4.143,3.357-7.5,7.5-7.5h43.119c3.538,0,6.495,2.451,7.285,5.746l13.498-16.007l-1.297-5.488
	c-0.953-4.031,1.543-8.071,5.574-9.023c4.029-0.951,8.07,1.543,9.023,5.574L331.187,409.165z M395.157,264.987
	c-5.644-4.477-13.172-4.8-19.18-0.818l-52.063,34.496c-7.848,5.2-18.389,4.156-25.062-2.487l-1.571-1.564l-5.294-164.973
	c-0.001-0.04-0.008-0.078-0.01-0.117c-0.002-0.036,0.001-0.072-0.001-0.108l-0.984-15.844L323.651,9.752
	c0.917-2.915-0.026-6.095-2.384-8.038c-2.36-1.944-5.66-2.264-8.346-0.806l-39.617,21.484c-1.597,0.865-2.824,2.281-3.456,3.983
	l-31.227,84.139c-0.798,2.149-0.568,4.546,0.622,6.505c1.191,1.959,3.213,3.266,5.488,3.548l3.086,0.382
	c4.187,0.518,7.245,4.221,6.963,8.43c-0.003,0.044,0,0.087-0.002,0.131c-0.002,0.044-0.009,0.087-0.011,0.131l-5.319,165.736
	l-9.312,13.078c-2.476,3.479-5.927,6.031-9.979,7.382l-23.831,7.942c-3.439,1.146-5.566,4.588-5.054,8.176l10.448,73.14
	l-63.631,127.262c-0.997,1.993-1.056,4.327-0.16,6.367c0.896,2.041,2.651,3.578,4.793,4.194c0.944,0.271,20.448,5.765,52.448,5.765
	c5.313,0,10.972-0.151,16.946-0.503c38.438-2.265,97.935-13.672,163.085-55.158c3.207-2.042,4.379-6.16,2.727-9.585l-34.957-72.465
	l47.349-127.493C402.83,276.723,400.803,269.465,395.157,264.987z M282.866,313.062H263.89l5.639-175.682h7.699L282.866,313.062z
	 M282.932,34.235l20.85-11.307l-27.516,87.469c-0.276,0.878-0.389,1.799-0.331,2.717l0.576,9.267h-7.638
	c-1.94-6.601-6.789-12.055-13.19-14.726L282.932,34.235z M386.26,278.256L337.8,408.743c-0.71,1.913-0.61,4.032,0.276,5.87
	l33.423,69.284c-59.902,36.695-114.145,47.087-149.534,49.264c-25.765,1.586-45.456-0.836-56.136-2.738l60.357-120.715
	c0.683-1.365,0.933-2.905,0.717-4.415l-9.895-69.263l17.893-5.963c5.278-1.759,9.969-4.687,13.811-8.578
	c0.2,1.604,0.906,3.115,2.045,4.291c1.413,1.459,3.356,2.282,5.388,2.282h34.465c2.031,0,3.975-0.823,5.388-2.282
	s2.174-3.429,2.108-5.458l-0.217-6.759c10.824,5.126,23.913,4.494,34.31-2.395l52.063-34.496c0.243-0.161,0.812-0.539,1.573,0.067
	C386.599,277.344,386.361,277.984,386.26,278.256z M344.665,473.354c1.399-1.399,3.329-2.2,5.31-2.2c1.97,0,3.91,0.801,5.3,2.2
	c1.4,1.391,2.2,3.33,2.2,5.3c0,1.98-0.8,3.91-2.2,5.301c-1.39,1.399-3.33,2.199-5.3,2.199c-1.98,0-3.91-0.8-5.31-2.199
	c-1.391-1.391-2.19-3.32-2.19-5.301C342.475,476.684,343.274,474.755,344.665,473.354z M327.605,487.404
	c1.39,1.391,2.2,3.33,2.2,5.301c0,1.979-0.811,3.909-2.2,5.31c-1.4,1.39-3.33,2.19-5.31,2.19c-1.971,0-3.9-0.801-5.301-2.19
	c-1.39-1.4-2.199-3.33-2.199-5.31c0-1.971,0.81-3.9,2.199-5.301c1.4-1.399,3.33-2.199,5.301-2.199
	C324.274,485.205,326.204,486.005,327.605,487.404z M333.595,442.694c1.399-1.39,3.33-2.189,5.31-2.189c1.971,0,3.91,0.8,5.3,2.189
	c1.4,1.4,2.2,3.33,2.2,5.311c0,1.97-0.8,3.899-2.2,5.3c-1.399,1.4-3.329,2.2-5.3,2.2c-1.979,0-3.91-0.8-5.31-2.2
	c-1.391-1.39-2.19-3.33-2.19-5.3C331.404,446.024,332.204,444.094,333.595,442.694z"/>
<g>
</g>
<g>
</g>
<g>
</g>
<g>
</g>
<g>
</g>
<g>
</g>
<g>
</g>
<g>
</g>
<g>
</g>
<g>
</g>
<g>
</g>
<g>
</g>
<g>
</g>
<g>
</g>
<g>
</g>
</svg>
