<?xml version="1.0" encoding="iso-8859-1"?>
<!-- Generator: Adobe Illustrator 17.1.0, SVG Export Plug-In . SVG Version: 6.00 Build 0)  -->
<!DOCTYPE svg PUBLIC "-//W3C//DTD SVG 1.1//EN" "http://www.w3.org/Graphics/SVG/1.1/DTD/svg11.dtd">
<svg version="1.1" id="Capa_1" xmlns="http://www.w3.org/2000/svg" xmlns:xlink="http://www.w3.org/1999/xlink" x="0px" y="0px"
	 viewBox="0 0 550.753 550.753" style="enable-background:new 0 0 550.753 550.753;" xml:space="preserve">
<g>
	<path d="M319.96,502.971c-1.97,0-3.91,0.8-5.3,2.19c-1.4,1.399-2.2,3.33-2.2,5.31c0,1.97,0.8,3.91,2.2,5.3
		c1.399,1.4,3.33,2.2,5.3,2.2c1.979,0,3.91-0.8,5.31-2.2c1.391-1.399,2.19-3.33,2.19-5.3c0-1.979-0.8-3.91-2.19-5.31
		C323.87,503.771,321.939,502.971,319.96,502.971z"/>
	<path d="M228.018,394.575h-0.583c-9.591,0-18.09,5.754-21.653,14.659l-5.442,13.605c-3.876,0.291-6.932,3.521-6.932,7.471
		c0,1.932,0.737,3.688,1.937,5.017l-4.195,10.488c-1.271,3.178-4.303,5.23-7.725,5.23h-0.583c-4.142,0-7.5,3.357-7.5,7.5
		s3.358,7.5,7.5,7.5h0.583c9.592,0,18.091-5.755,21.652-14.66l5.442-13.604c3.876-0.291,6.933-3.52,6.933-7.471
		c0-1.932-0.737-3.688-1.937-5.018l4.195-10.487c1.271-3.178,4.304-5.23,7.726-5.23h0.583c4.142,0,7.5-3.357,7.5-7.5
		S232.16,394.575,228.018,394.575z"/>
	<path d="M368.769,463.371c-1.399-1.4-3.33-2.2-5.3-2.2c-1.979,0-3.91,0.8-5.31,2.2c-1.391,1.399-2.19,3.33-2.19,5.3
		c0,1.979,0.8,3.91,2.19,5.31c1.399,1.391,3.33,2.19,5.31,2.19c1.97,0,3.9-0.8,5.3-2.19c1.4-1.399,2.2-3.33,2.2-5.31
		C370.969,466.701,370.17,464.771,368.769,463.371z"/>
	<path d="M378.026,383.727c-3.017-5.805-6.136-11.806-9.222-18.427c-2.194-4.71,3.673-21.406,7.956-33.598
		c4.682-13.322,9.523-27.099,11.082-39.766c0.757-6.162,2.025-16.476-4.98-24.308l-0.402-0.445
		c-5.798-6.344-14.334-9.28-22.839-7.874c-8.557,1.422-15.733,7.013-19.197,14.955l-1.638,3.756
		c-2.342,5.37-7.213,9.173-13.029,10.172c-5.582,0.957-10.946-0.812-14.726-4.856c-0.244-0.261-0.481-0.53-0.714-0.808
		l-10.541-12.57l-5.181-161.443l12.209-17.721c0.862-1.251,1.324-2.735,1.324-4.255v-3.774h2.462c4.143,0,7.5-3.357,7.5-7.5
		s-3.357-7.5-7.5-7.5h-2.462v-7.589h2.462c4.143,0,7.5-3.357,7.5-7.5s-3.357-7.5-7.5-7.5h-2.462v-7.588h2.462
		c4.143,0,7.5-3.357,7.5-7.5s-3.357-7.5-7.5-7.5h-2.462V7.5c0-4.143-3.357-7.5-7.5-7.5h-50.505c-4.142,0-7.5,3.357-7.5,7.5v15.089
		h-2.462c-4.142,0-7.5,3.357-7.5,7.5s3.358,7.5,7.5,7.5h2.462v7.588h-2.462c-4.142,0-7.5,3.357-7.5,7.5s3.358,7.5,7.5,7.5h2.462
		v7.589h-2.462c-4.142,0-7.5,3.357-7.5,7.5s3.358,7.5,7.5,7.5h2.462v3.774c0,1.52,0.462,3.004,1.324,4.255l12.21,17.721
		l-5.181,161.443l-10.541,12.57c-0.233,0.278-0.473,0.549-0.716,0.809c-3.776,4.043-9.14,5.811-14.723,4.854
		c-5.816-0.999-10.688-4.802-13.029-10.172l-1.639-3.757c-3.463-7.941-10.64-13.532-19.196-14.954
		c-8.5-1.414-17.041,1.531-22.833,7.866c-0.142,0.155-0.281,0.31-0.396,0.438c-6.391,7.146-5.679,15.925-5.107,22.979l0.082,1.019
		c0.937,11.88,5.962,26.071,10.822,39.796c4.134,11.674,10.38,29.316,8.248,33.893c-3.086,6.621-6.205,12.623-9.222,18.428
		c-9.699,18.663-18.076,34.782-18.076,57.877c0,32.514,12.408,60.271,35.882,80.27c21.699,18.486,51.647,28.729,84.4,28.877
		c0.053,0.001,0.106,0.002,0.159,0.002h0.567c0.053,0,0.106-0.001,0.159-0.002c32.753-0.148,62.701-10.391,84.4-28.877
		c23.475-19.999,35.883-47.756,35.883-80.27C396.102,418.509,387.725,402.391,378.026,383.727z M308.989,300.199h-6.37
		c-0.574-0.455-1.215-0.826-1.907-1.099l-0.162-5.042C303.031,296.601,305.885,298.664,308.989,300.199z M257.624,15h35.505v69.206
		L283.08,98.792h-15.407l-10.049-14.586V15z M290.465,313.574v10.202h-8.841c-0.013,0-0.026-0.002-0.039-0.002
		s-0.026,0.002-0.039,0.002h-21.258v-10.202H290.465z M265.066,298.574l5.93-184.782h8.761l5.931,184.782H265.066z M275.376,535.753
		c-62.264-0.118-105.726-38.8-105.726-94.148c0-19.43,7.231-33.345,16.386-50.96c3.09-5.945,6.285-12.094,9.507-19.009
		c4.724-10.136-0.76-25.625-7.704-45.235c-4.536-12.81-9.226-26.056-10.008-35.969l-0.084-1.051
		c-0.474-5.839-0.662-9.531,1.361-11.794l0.255-0.282c2.393-2.618,5.787-3.782,9.31-3.197c3.579,0.595,6.46,2.837,7.906,6.152
		l1.639,3.757c4.368,10.016,13.429,17.103,24.241,18.959c10.262,1.763,20.577-1.573,27.745-8.919l-0.162,5.044
		c-2.782,1.097-4.754,3.802-4.754,6.974v25.202c0,4.143,3.358,7.5,7.5,7.5h21.297v4.978c0,4.143,3.357,7.5,7.5,7.5
		s7.5-3.357,7.5-7.5v-4.978h8.88c4.143,0,7.5-3.357,7.5-7.5v-16.077h27.38c2.983,0,4.537,1.957,5.067,2.798
		c0.529,0.842,1.321,2.426,0.331,5.779c0,0-4.806,22.781-7.422,30.069c-3.636,10.132-4.563,20.795,0.251,30.426l17.552,35.103
		c1.643,3.285,1.778,7.117,0.373,10.511c-1.406,3.395-4.211,6.007-7.697,7.169c-4.58,1.528-9.549,0.355-12.962-3.059l-22.873-22.874
		v-14.693c0-4.143-3.357-7.5-7.5-7.5h-8.88v-15.171c0-4.143-3.357-7.5-7.5-7.5s-7.5,3.357-7.5,7.5v15.171h-21.297
		c-4.142,0-7.5,3.357-7.5,7.5v45.177c0,4.143,3.358,7.5,7.5,7.5h45.177c4.143,0,7.5-3.357,7.5-7.5v-9.27l12.267,12.267
		c5.296,5.295,12.301,8.121,19.499,8.121c2.939,0,5.912-0.472,8.813-1.438c7.612-2.538,13.74-8.245,16.812-15.659
		c3.07-7.414,2.773-15.782-0.815-22.96l-17.551-35.102c-2.727-5.454-2.202-11.493-0.143-17.231
		c2.615-7.288,7.422-30.069,7.422-30.069c2.27-8.475,2.703-14.115-1.162-20.256c-3.133-4.977-8.088-8.329-13.716-9.42
		c-0.154-0.195,0.052-0.387,0.052-0.387c6.889-3.319,12.456-8.989,15.593-16.184l1.638-3.756c1.445-3.315,4.327-5.558,7.906-6.152
		c3.517-0.586,6.917,0.579,9.305,3.192l0.284,0.314c2.085,2.331,2.061,6.189,1.285,12.491c-1.36,11.056-5.928,24.054-10.345,36.624
		c-6.804,19.362-12.178,34.655-7.4,44.906c3.223,6.915,6.418,13.063,9.507,19.008c9.155,17.616,16.387,31.53,16.387,50.961
		C381.102,496.953,337.64,535.635,275.376,535.753z M290.465,403.928v10.297c0,0.002,0,0.003,0,0.005v19.875h-30.177v-30.177h21.2
		c0.032,0,0.064,0.005,0.097,0.005s0.064-0.004,0.097-0.005H290.465z"/>
	<path d="M344.83,486.15c-1.97,0-3.91,0.801-5.3,2.2c-1.4,1.391-2.2,3.33-2.2,5.3c0,1.971,0.8,3.91,2.2,5.301
		c1.39,1.399,3.33,2.199,5.3,2.199s3.91-0.8,5.3-2.199c1.4-1.391,2.2-3.32,2.2-5.301c0-1.97-0.8-3.909-2.2-5.3
		C348.74,486.951,346.809,486.15,344.83,486.15z"/>
</g>
<g>
</g>
<g>
</g>
<g>
</g>
<g>
</g>
<g>
</g>
<g>
</g>
<g>
</g>
<g>
</g>
<g>
</g>
<g>
</g>
<g>
</g>
<g>
</g>
<g>
</g>
<g>
</g>
<g>
</g>
</svg>
