<?xml version="1.0" encoding="iso-8859-1"?>
<!-- Generator: Adobe Illustrator 17.1.0, SVG Export Plug-In . SVG Version: 6.00 Build 0)  -->
<!DOCTYPE svg PUBLIC "-//W3C//DTD SVG 1.1//EN" "http://www.w3.org/Graphics/SVG/1.1/DTD/svg11.dtd">
<svg version="1.1" id="Capa_1" xmlns="http://www.w3.org/2000/svg" xmlns:xlink="http://www.w3.org/1999/xlink" x="0px" y="0px"
	 viewBox="0 0 549.008 549.008" style="enable-background:new 0 0 549.008 549.008;" xml:space="preserve">
<g>
	<path d="M326.694,441.778c-1.39,1.4-2.199,3.33-2.199,5.311c0,1.97,0.81,3.91,2.199,5.3c1.4,1.4,3.33,2.2,5.311,2.2
		c1.97,0,3.899-0.8,5.3-2.2c1.39-1.4,2.2-3.33,2.2-5.3s-0.811-3.91-2.2-5.311c-1.4-1.39-3.33-2.189-5.3-2.189
		C330.024,439.588,328.095,440.388,326.694,441.778z"/>
	<path d="M373.416,400.264c-2.323-3.631-2.605-9.827-0.7-15.417c4.244-12.45,14.353-43.064,15.462-46.428
		c7.894-18.691,1.435-31.219-6.537-36.28c-8.165-5.186-18.49-3.674-25.291,3.634c-1.484,1.231-10.713,8.272-27.634,8.272
		c-11.904,0-25.322-22.276-30.613-34.297l-4.916-153.201l0.205-5.748c0.265-7.419,5.189-13.933,12.256-16.209
		c3.33-1.072,5.476-4.306,5.172-7.791l-3.487-39.951c5.095-1.498,9.743-4.381,13.363-8.387c5.458-6.039,8.134-14.176,7.342-22.325
		c0,0,0,0,0-0.001c-1.481-15.23-14.564-26.693-29.906-26.113c-14.745,0.565-22.376,12.667-26.834,21.722
		c-9.189,18.672-27.193,83.436-27.955,86.184c-0.629,2.271-0.155,4.705,1.28,6.573l11.123,14.477l-4.531,141.199
		c-1.134,3.304-7.498,18.01-31.089,18.539c-5.432,0.105-9.49-1.233-12.466-4.144c-4.559-4.458-6.969-13.14-6.969-25.106
		c0-7.921-3.99-14.923-10.673-18.731c-7.117-4.058-16.021-3.921-23.233,0.351c-5.219,3.092-13.928,11.016-13.619,29.349
		c0.472,28.134,18.465,100.734,23.128,114.415c1.905,5.591,1.624,11.787-0.7,15.418c-18.223,28.473-27.854,57.434-27.854,83.752
		c0,16.393,7.254,38.797,41.812,52.438c21.101,8.33,49.684,12.554,84.955,12.554c35.271,0,63.854-4.224,84.954-12.554
		c34.558-13.642,41.812-36.046,41.812-52.438C401.27,457.699,391.638,428.738,373.416,400.264z M284.755,28.367
		c4.51-9.16,8.683-13.155,13.952-13.357c0.172-0.006,0.343-0.01,0.514-0.01c7.028,0,13.202,5.545,13.887,12.587
		c0.391,4.017-0.867,7.858-3.541,10.816c-2.641,2.922-6.411,4.606-10.346,4.623c-2.097,0.009-4.095,0.895-5.508,2.444
		c-1.414,1.549-2.115,3.618-1.933,5.708l3.628,41.56c-9.622,5.269-16.12,15.16-16.939,26.297h-11.446l-8.218-10.695
		C262.761,94.322,277.349,43.413,284.755,28.367z M283.177,282.289l0.916,28.535h-19.176l1.256-39.128
		c0.001-0.024,0.001-0.048,0.002-0.073l4.416-137.588h7.828l4.709,146.733C283.092,281.271,283.108,281.779,283.177,282.289z
		 M261.361,325.824h26.762c1.931,2.833,3.924,5.683,6.011,8.434H252.82c-4.143,0-7.5,3.357-7.5,7.5v23.087
		c0,4.143,3.357,7.5,7.5,7.5h43.369c4.143,0,7.5-3.357,7.5-7.5v-19.849c6.21,5.669,13.359,9.534,22.025,9.534
		c8.705,0,17.151-1.743,25.145-5.187c-4.833,14.395-8.196,24.37-10.003,29.671c-4.864,14.273-3.668,25.896,3.878,37.685
		c15.076,23.557,23.045,46.835,23.045,67.318c0,6.986-3.21,13.029-8.587,16.164c-5.452,3.179-12.178,2.821-18.941-1.008
		c-6.14-3.475-8.962-9.91-12.23-17.361c-4.329-9.872-9.613-21.895-24.331-27.727v-7.641l27.352-32.435
		c1.531-1.815,2.111-4.249,1.565-6.56l-2.178-9.215c-0.953-4.031-5.001-6.524-9.023-5.574c-4.031,0.952-6.527,4.993-5.574,9.023
		l1.31,5.541l-13.645,16.181c-0.761-3.337-3.74-5.828-7.307-5.828H252.82c-4.143,0-7.5,3.357-7.5,7.5v26.453
		c-9.964-1.642-17.377-4.973-22.516-10.107c-5.09-5.085-6.527-22.626,6.552-44.127c12.729-20.926,1.609-41.409-6.51-56.365
		c-2.866-5.28-7.664-14.117-6.61-16.355c0.977-2.077,1.491-2.064,1.873-2.064c1.994,0.025,5.418,1.488,8.729,2.903
		c4.9,2.095,10.454,4.468,16.442,4.676C250.968,330.357,256.913,328.954,261.361,325.824z M288.689,349.257v8.087H260.32v-8.087
		H288.689z M274.505,534.008c-41.741,0-111.767-6.495-111.767-49.992c0-23.447,8.813-49.612,25.489-75.667
		c5.735-8.963,4.93-20.517,2.263-28.341c-4.36-12.795-21.888-83.6-22.327-109.829c-0.134-7.968,2.091-13.718,6.266-16.19
		c2.549-1.51,5.752-1.599,8.162-0.225c1.414,0.806,3.1,2.448,3.1,5.699c0,16.326,3.863,28.381,11.482,35.831
		c5.928,5.798,13.742,8.644,23.288,8.415c13.064-0.292,22.854-4.109,29.971-9.175l-0.647,20.167c-1.9,0.404-4.105,0.46-5.983,0.398
		c-3.189-0.111-7.194-1.823-11.068-3.479c-7.849-3.353-22.461-9.6-30.069,6.565c-4.287,9.109,1.195,19.208,7,29.9
		c8.855,16.312,14.532,28.83,6.878,41.413c-17.384,28.576-14.436,52.448-4.34,62.534c8.154,8.146,19.54,13.024,34.675,14.86
		c1.371,1.783,3.52,2.937,5.943,2.937h18.352c4.143,0,7.5-3.357,7.5-7.5s-3.357-7.5-7.5-7.5H260.32v-22.254h28.369v22.476
		c-3.265,0.812-5.685,3.762-5.685,7.278c0,4.143,3.357,7.5,7.5,7.5h5.685c1.362,0,2.635-0.368,3.736-1.002
		c7.678,3.814,10.708,10.685,14.359,19.007c3.794,8.651,8.096,18.458,18.578,24.392c6.004,3.397,12.26,5.104,18.312,5.103
		c5.472,0,10.776-1.394,15.573-4.19c10.039-5.853,16.032-16.74,16.032-29.123c0-23.354-8.787-49.429-25.411-75.405
		c-5.049-7.888-5.698-14.829-2.314-24.759c1.906-5.592,5.531-16.346,10.774-31.965c1.788-5.329,0.226-11.185-3.981-14.916
		c-4.194-3.722-10.175-4.573-15.233-2.17c-6.606,3.137-13.638,4.728-20.898,4.728c-9.165,0-17.144-10.306-26.465-24.027
		l-0.153-4.778c7.631,9.712,17.743,18.32,29.619,18.32c24.351,0,37.439-11.895,37.985-12.4c0.177-0.164,0.345-0.336,0.505-0.517
		c1.886-2.126,4.336-2.632,6.394-1.327c3.283,2.085,4.761,8.463,0.663,18.012c-0.086,0.199-0.163,0.402-0.23,0.608
		c-0.11,0.334-11.066,33.539-15.514,46.587c-2.667,7.824-3.473,19.379,2.264,28.342c16.675,26.055,25.488,52.22,25.488,75.666
		C386.27,527.513,316.246,534.008,274.505,534.008z"/>
	<path d="M245.32,406.966c0,4.143,3.357,7.5,7.5,7.5h43.369c4.143,0,7.5-3.357,7.5-7.5v-23.087c0-4.143-3.357-7.5-7.5-7.5H252.82
		c-4.143,0-7.5,3.357-7.5,7.5V406.966z M260.32,391.379h28.369v8.087H260.32V391.379z"/>
	<path d="M350.314,490.039c1.98,0,3.91-0.801,5.311-2.2c1.39-1.391,2.189-3.33,2.189-5.3c0-1.971-0.8-3.91-2.189-5.301
		c-1.4-1.399-3.33-2.199-5.311-2.199c-1.97,0-3.91,0.8-5.3,2.199c-1.4,1.391-2.2,3.33-2.2,5.301c0,1.97,0.8,3.909,2.2,5.3
		C346.415,489.238,348.345,490.039,350.314,490.039z"/>
</g>
<g>
</g>
<g>
</g>
<g>
</g>
<g>
</g>
<g>
</g>
<g>
</g>
<g>
</g>
<g>
</g>
<g>
</g>
<g>
</g>
<g>
</g>
<g>
</g>
<g>
</g>
<g>
</g>
<g>
</g>
</svg>
