<?xml version="1.0" encoding="iso-8859-1"?>
<!-- Generator: Adobe Illustrator 17.1.0, SVG Export Plug-In . SVG Version: 6.00 Build 0)  -->
<!DOCTYPE svg PUBLIC "-//W3C//DTD SVG 1.1//EN" "http://www.w3.org/Graphics/SVG/1.1/DTD/svg11.dtd">
<svg version="1.1" id="Capa_1" xmlns="http://www.w3.org/2000/svg" xmlns:xlink="http://www.w3.org/1999/xlink" x="0px" y="0px"
	 viewBox="0 0 550.752 550.752" style="enable-background:new 0 0 550.752 550.752;" xml:space="preserve">
<path d="M550.601,156.944c-0.103-0.504-0.258-0.989-0.457-1.451l-38.266-89.287c-1.182-2.758-3.894-4.546-6.894-4.546H45.768
	c-3,0-5.712,1.788-6.894,4.546L0.608,155.495c-0.198,0.461-0.353,0.945-0.456,1.448C0.048,157.447,0,157.953,0,158.456v323.136
	c0,4.142,3.358,7.5,7.5,7.5h535.752c4.143,0,7.5-3.358,7.5-7.5V158.456C550.753,157.953,550.704,157.447,550.601,156.944z
	 M535.752,474.092H15v-308.14h426.204c4.143,0,7.5-3.358,7.5-7.5s-3.357-7.5-7.5-7.5H18.874L50.713,76.66h449.325l31.84,74.292
	h-26.895c-4.143,0-7.5,3.358-7.5,7.5s3.357,7.5,7.5,7.5h30.769V474.092z M511.099,137.997c1.386-2.111,1.617-4.779,0.613-7.097
	l-17.784-41.07c-1.188-2.744-3.893-4.52-6.883-4.52H63.707c-2.99,0-5.694,1.776-6.882,4.52L39.041,130.9
	c-1.004,2.318-0.773,4.985,0.613,7.097s3.743,3.383,6.269,3.383H504.83C507.356,141.38,509.712,140.108,511.099,137.997z
	 M57.343,126.38l11.289-26.07H482.12l11.289,26.07H57.343z M160.572,355.048H71.28c-4.142,0-7.5,3.358-7.5,7.5v63.78
	c0,4.142,3.358,7.5,7.5,7.5h89.292c4.142,0,7.5-3.358,7.5-7.5v-63.78C168.072,358.406,164.714,355.048,160.572,355.048z
	 M153.072,418.828H78.78v-48.78h74.292V418.828z M382.68,362.548v63.78c0,4.142,3.357,7.5,7.5,7.5h89.292c4.143,0,7.5-3.358,7.5-7.5
	v-63.78c0-4.142-3.357-7.5-7.5-7.5H390.18C386.038,355.048,382.68,358.406,382.68,362.548z M397.68,370.048h74.292v48.78H397.68
	V370.048z M25.512,182.024v65.72c0,4.142,3.358,7.5,7.5,7.5h43.524v10.512H33.012c-4.142,0-7.5,3.358-7.5,7.5v186.326
	c0,4.142,3.358,7.5,7.5,7.5H517.74c4.143,0,7.5-3.358,7.5-7.5V273.256c0-4.142-3.357-7.5-7.5-7.5h-43.523v-10.512h43.523
	c4.143,0,7.5-3.358,7.5-7.5v-65.72c0-4.142-3.357-7.5-7.5-7.5H33.012C28.87,174.524,25.512,177.881,25.512,182.024z M510.24,280.756
	v171.326H40.512V280.756h36.024v24.39c0,4.142,3.358,7.5,7.5,7.5h63.78c4.142,0,7.5-3.358,7.5-7.5v-24.39h240.12v24.39
	c0,4.142,3.357,7.5,7.5,7.5h63.78c4.143,0,7.5-3.358,7.5-7.5v-24.39H510.24z M459.216,247.725c0,0.007-0.001,0.013-0.001,0.019
	s0.001,0.013,0.001,0.019v25.473c0,0.006-0.001,0.013-0.001,0.019s0.001,0.013,0.001,0.019v24.371h-48.78v-24.371
	c0-0.006,0.001-0.013,0.001-0.019s-0.001-0.013-0.001-0.019v-49.883h48.78V247.725z M395.436,265.756h-240.12v-10.512h240.12
	V265.756z M140.316,247.734c0,0.003,0,0.006,0,0.01s0,0.006,0,0.01v49.892h-48.78v-74.292h48.78V247.734z M40.512,189.524H510.24
	v50.72h-36.023v-24.39c0-4.142-3.357-7.5-7.5-7.5h-63.78c-4.143,0-7.5,3.358-7.5,7.5v24.39h-240.12v-24.39
	c0-4.142-3.358-7.5-7.5-7.5h-63.78c-4.142,0-7.5,3.358-7.5,7.5v24.39H40.512V189.524z M461.102,377.558H408.55
	c-4.143,0-7.5,3.358-7.5,7.5v21.321c0,4.142,3.357,7.5,7.5,7.5h52.552c4.143,0,7.5-3.358,7.5-7.5v-21.321
	C468.602,380.916,465.245,377.558,461.102,377.558z M453.602,398.879H416.05v-6.321h37.552V398.879z M89.65,413.879h52.552
	c4.142,0,7.5-3.358,7.5-7.5v-21.321c0-4.142-3.358-7.5-7.5-7.5H89.65c-4.142,0-7.5,3.358-7.5,7.5v21.321
	C82.15,410.521,85.508,413.879,89.65,413.879z M97.15,392.558h37.552v6.321H97.15V392.558z M422.823,275.911h24.007
	c4.143,0,7.5-3.358,7.5-7.5v-27.524c0-4.142-3.357-7.5-7.5-7.5h-24.007c-4.143,0-7.5,3.358-7.5,7.5v27.524
	C415.323,272.553,418.68,275.911,422.823,275.911z M430.323,248.387h9.007v12.524h-9.007V248.387z M103.922,275.911h24.007
	c4.142,0,7.5-3.358,7.5-7.5v-27.524c0-4.142-3.358-7.5-7.5-7.5h-24.007c-4.142,0-7.5,3.358-7.5,7.5v27.524
	C96.422,272.553,99.78,275.911,103.922,275.911z M111.422,248.387h9.007v12.524h-9.007V248.387z"/>
<g>
</g>
<g>
</g>
<g>
</g>
<g>
</g>
<g>
</g>
<g>
</g>
<g>
</g>
<g>
</g>
<g>
</g>
<g>
</g>
<g>
</g>
<g>
</g>
<g>
</g>
<g>
</g>
<g>
</g>
</svg>
