<?xml version="1.0" encoding="iso-8859-1"?>
<!-- Generator: Adobe Illustrator 17.1.0, SVG Export Plug-In . SVG Version: 6.00 Build 0)  -->
<!DOCTYPE svg PUBLIC "-//W3C//DTD SVG 1.1//EN" "http://www.w3.org/Graphics/SVG/1.1/DTD/svg11.dtd">
<svg version="1.1" id="Capa_1" xmlns="http://www.w3.org/2000/svg" xmlns:xlink="http://www.w3.org/1999/xlink" x="0px" y="0px"
	 viewBox="0 0 556.705 556.705" style="enable-background:new 0 0 556.705 556.705;" xml:space="preserve">
<path d="M549.205,86.508H7.5c-4.143,0-7.5,3.358-7.5,7.5v303.996c0,4.142,3.357,7.5,7.5,7.5h25.266
	c-14.057,3.741-24.447,16.574-24.447,31.793c0,18.141,14.759,32.899,32.899,32.899s32.899-14.759,32.899-32.899
	c0-15.219-10.389-28.053-24.447-31.793H248.66c-14.057,3.741-24.446,16.574-24.446,31.793c0,18.141,14.758,32.899,32.898,32.899
	s32.899-14.759,32.899-32.899c0-15.219-10.389-28.053-24.447-31.793h243.322c-12.74,4.54-21.886,16.718-21.886,30.997
	c0,18.141,14.759,32.899,32.899,32.899s32.899-14.759,32.899-32.899c0-14.279-9.146-26.457-21.886-30.997h18.291
	c4.143,0,7.5-3.358,7.5-7.5V94.008C556.705,89.867,553.348,86.508,549.205,86.508z M519.9,454.4c-9.87,0-17.899-8.03-17.899-17.899
	c0-7.19,4.27-13.386,10.399-16.23v16.23c0,4.142,3.357,7.5,7.5,7.5s7.5-3.358,7.5-7.5v-16.23c6.129,2.844,10.399,9.041,10.399,16.23
	C537.8,446.371,529.771,454.4,519.9,454.4z M257.112,455.197c-9.869,0-17.898-8.03-17.898-17.899c0-7.189,4.27-13.386,10.398-16.23
	v16.23c0,4.142,3.357,7.5,7.5,7.5s7.5-3.358,7.5-7.5v-16.23c6.129,2.844,10.399,9.041,10.399,16.23
	C275.012,447.167,266.982,455.197,257.112,455.197z M41.219,455.197c-9.87,0-17.899-8.03-17.899-17.899
	c0-7.19,4.27-13.386,10.399-16.23v16.23c0,4.142,3.357,7.5,7.5,7.5s7.5-3.358,7.5-7.5v-16.23c6.129,2.844,10.399,9.041,10.399,16.23
	C59.118,447.167,51.089,455.197,41.219,455.197z M239.214,390.504v-27.935c0-4.142-3.357-7.5-7.5-7.5s-7.5,3.358-7.5,7.5v27.935H15
	V101.508h209.214v221.094c0,4.142,3.357,7.5,7.5,7.5s7.5-3.358,7.5-7.5V101.508h302.491v288.996H239.214z M164.649,143.246h-91.67
	c-4.143,0-7.5,3.357-7.5,7.5v65.479c0,4.142,3.357,7.5,7.5,7.5h91.67c4.143,0,7.5-3.358,7.5-7.5v-65.479
	C172.149,146.603,168.792,143.246,164.649,143.246z M80.479,208.724v-50.479h76.67v50.479H80.479z M200.529,109.106H33.691
	c-4.143,0-7.5,3.357-7.5,7.5v192.243c0,4.142,3.357,7.5,7.5,7.5h166.838c4.143,0,7.5-3.358,7.5-7.5V116.606
	C208.029,112.464,204.672,109.106,200.529,109.106z M41.191,301.349V124.106h151.838v177.243H41.191z M200.529,327.802H33.691
	c-4.143,0-7.5,3.358-7.5,7.5v38.502c0,4.142,3.357,7.5,7.5,7.5h166.838c4.143,0,7.5-3.358,7.5-7.5v-38.502
	C208.029,331.16,204.672,327.802,200.529,327.802z M41.191,366.304v-23.502h151.838v23.502H41.191z M523.806,327.802H263.892
	c-4.143,0-7.5,3.358-7.5,7.5v38.502c0,4.142,3.357,7.5,7.5,7.5h259.914c4.143,0,7.5-3.358,7.5-7.5v-38.502
	C531.306,331.16,527.948,327.802,523.806,327.802z M271.392,366.304v-23.502h244.914v23.502H271.392z M523.806,109.106H263.892
	c-4.143,0-7.5,3.357-7.5,7.5v193.297c0,4.142,3.357,7.5,7.5,7.5h259.914c4.143,0,7.5-3.358,7.5-7.5V116.606
	C531.306,112.464,527.948,109.106,523.806,109.106z M271.392,302.403V124.106h244.914v178.297H271.392z"/>
<g>
</g>
<g>
</g>
<g>
</g>
<g>
</g>
<g>
</g>
<g>
</g>
<g>
</g>
<g>
</g>
<g>
</g>
<g>
</g>
<g>
</g>
<g>
</g>
<g>
</g>
<g>
</g>
<g>
</g>
</svg>
