<?xml version="1.0" encoding="iso-8859-1"?>
<!-- Generator: Adobe Illustrator 17.1.0, SVG Export Plug-In . SVG Version: 6.00 Build 0)  -->
<!DOCTYPE svg PUBLIC "-//W3C//DTD SVG 1.1//EN" "http://www.w3.org/Graphics/SVG/1.1/DTD/svg11.dtd">
<svg version="1.1" id="Capa_1" xmlns="http://www.w3.org/2000/svg" xmlns:xlink="http://www.w3.org/1999/xlink" x="0px" y="0px"
	 viewBox="0 0 550.752 550.752" style="enable-background:new 0 0 550.752 550.752;" xml:space="preserve">
<path d="M478.55,94.325c-19.829-28.08-48.693-51.663-83.473-68.197C359.124,9.035,317.697,0,275.274,0
	c-41.681,0-82.481,8.74-117.989,25.274c-34.325,15.983-63.093,38.858-83.194,66.152c-19.896,27.015-28.966,57.908-26.227,89.341
	c2.718,31.2,16.883,60.822,40.961,85.665c39.538,40.792,97.089,89.339,156.639,102.374V520.93c0,16.444,13.378,29.822,29.823,29.822
	c16.444,0,29.823-13.378,29.823-29.822V368.795c59.806-13.119,117.561-62.064,156.643-102.391
	C510.356,216.251,516.949,148.706,478.55,94.325z M275.287,535.752c-8.173,0-14.823-6.649-14.823-14.822V371.314
	c2.066,0.234,4.132,0.422,6.199,0.562c0.171,0.011,0.342,0.017,0.511,0.017c3.913,0,7.209-3.035,7.476-6.997
	c0.278-4.133-2.847-7.708-6.979-7.986c-38.501-2.589-77.555-23.937-111.779-50.205c3.83-4.308,7.863-8.38,12.079-12.21
	c28.661,24.064,56.006,39.476,81.354,45.832c0.013,0.003,0.027,0.004,0.04,0.007c0.207,0.051,0.417,0.084,0.627,0.117
	c0.092,0.015,0.184,0.038,0.275,0.048c0.188,0.022,0.378,0.027,0.567,0.035c0.107,0.004,0.214,0.02,0.321,0.02
	c0.039,0,0.077-0.009,0.116-0.01c0.358-0.005,0.716-0.033,1.073-0.09c0.137-0.022,0.268-0.064,0.403-0.094
	c0.255-0.056,0.509-0.111,0.758-0.193c0.152-0.051,0.296-0.12,0.444-0.18c0.219-0.089,0.438-0.175,0.651-0.286
	c0.168-0.088,0.325-0.193,0.486-0.293c0.143-0.088,0.292-0.16,0.43-0.259c0.046-0.033,0.087-0.071,0.132-0.104
	c0.063-0.047,0.123-0.098,0.184-0.147c0.273-0.218,0.532-0.448,0.766-0.696c0.014-0.015,0.03-0.028,0.044-0.043
	c0.253-0.271,0.476-0.563,0.682-0.863c0.04-0.058,0.08-0.115,0.118-0.174c0.198-0.306,0.372-0.623,0.521-0.951
	c0.027-0.06,0.051-0.12,0.077-0.18c0.15-0.352,0.277-0.712,0.371-1.081c0.003-0.012,0.009-0.022,0.012-0.034
	c0.021-0.085,0.032-0.171,0.051-0.256c0.03-0.139,0.061-0.277,0.083-0.417c0.019-0.124,0.03-0.248,0.043-0.371
	c0.012-0.118,0.026-0.235,0.033-0.353c0.008-0.134,0.008-0.268,0.008-0.401c0-0.11,0.002-0.219-0.002-0.329
	c-0.005-0.133-0.018-0.264-0.03-0.395c-0.01-0.113-0.02-0.225-0.035-0.337c-0.017-0.124-0.041-0.245-0.064-0.367
	c-0.023-0.12-0.045-0.239-0.074-0.358c-0.027-0.112-0.06-0.221-0.092-0.332c-0.036-0.125-0.073-0.25-0.116-0.375
	c-0.037-0.105-0.08-0.208-0.121-0.312c-0.049-0.122-0.096-0.244-0.152-0.364c-0.052-0.111-0.11-0.219-0.167-0.327
	c-0.055-0.106-0.109-0.213-0.17-0.317c-0.076-0.129-0.16-0.253-0.243-0.378c-0.045-0.067-0.083-0.136-0.13-0.202l-44.916-62.702
	c3.168-1.356,6.38-2.615,9.634-3.763l35.177,49.778c1.461,2.068,3.778,3.173,6.131,3.173c0.064,0,0.129-0.013,0.193-0.015
	c0.096,0.004,0.19,0.015,0.288,0.015c4.142,0,7.5-3.357,7.5-7.5v-54.501c1.358-0.034,2.718-0.057,4.082-0.057
	c1.333,0,2.662,0.023,3.989,0.056v54.5c0,0.092,0.01,0.182,0.014,0.273c0.005,0.125,0.008,0.251,0.019,0.376
	c0.012,0.137,0.031,0.272,0.05,0.408c0.015,0.102,0.028,0.205,0.047,0.306c0.027,0.147,0.061,0.292,0.097,0.436
	c0.022,0.09,0.044,0.18,0.069,0.269c0.041,0.144,0.088,0.285,0.138,0.425c0.032,0.09,0.063,0.18,0.099,0.27
	c0.052,0.131,0.109,0.258,0.167,0.385c0.045,0.097,0.09,0.194,0.139,0.289c0.058,0.113,0.121,0.223,0.185,0.333
	c0.061,0.104,0.122,0.208,0.188,0.31c0.063,0.097,0.129,0.19,0.196,0.284c0.076,0.105,0.152,0.21,0.234,0.313
	c0.07,0.088,0.144,0.172,0.218,0.256c0.085,0.098,0.171,0.195,0.262,0.288c0.086,0.088,0.176,0.172,0.266,0.256
	c0.086,0.08,0.171,0.161,0.262,0.238c0.112,0.095,0.229,0.184,0.346,0.272c0.061,0.046,0.115,0.096,0.178,0.14
	c0.014,0.01,0.03,0.016,0.044,0.026c0.284,0.199,0.584,0.375,0.895,0.533c0.064,0.032,0.128,0.062,0.193,0.093
	c0.302,0.143,0.611,0.271,0.934,0.374c0.015,0.005,0.03,0.01,0.045,0.015c0.306,0.094,0.623,0.163,0.945,0.218
	c0.097,0.017,0.193,0.032,0.29,0.044c0.291,0.038,0.585,0.063,0.885,0.066c0.03,0,0.06,0.007,0.091,0.007
	c0.068,0,0.136-0.01,0.204-0.012c0.208-0.006,0.415-0.015,0.618-0.037c0.093-0.01,0.185-0.028,0.278-0.042
	c0.184-0.027,0.366-0.057,0.546-0.097c0.096-0.021,0.19-0.048,0.285-0.073c0.173-0.046,0.343-0.096,0.51-0.153
	c0.098-0.034,0.195-0.069,0.292-0.107c0.16-0.063,0.317-0.131,0.471-0.205c0.097-0.045,0.194-0.089,0.29-0.139
	c0.16-0.084,0.315-0.178,0.468-0.273c0.099-0.062,0.198-0.121,0.295-0.187c0.192-0.132,0.379-0.273,0.557-0.422
	c0.089-0.074,0.172-0.156,0.258-0.235c0.121-0.111,0.24-0.224,0.354-0.343c0.078-0.082,0.154-0.166,0.229-0.251
	c0.126-0.145,0.246-0.295,0.361-0.45c0.038-0.051,0.081-0.095,0.118-0.146l35.288-49.934c3.262,1.141,6.48,2.396,9.656,3.746
	l-45.052,63c-0.05,0.069-0.09,0.143-0.136,0.213c-0.078,0.117-0.156,0.233-0.227,0.354c-0.063,0.107-0.118,0.216-0.176,0.325
	c-0.055,0.105-0.111,0.21-0.162,0.318c-0.056,0.121-0.105,0.243-0.154,0.365c-0.042,0.104-0.084,0.207-0.121,0.313
	c-0.043,0.123-0.08,0.247-0.116,0.372c-0.033,0.11-0.065,0.221-0.093,0.333c-0.029,0.119-0.052,0.238-0.075,0.358
	c-0.024,0.123-0.047,0.245-0.064,0.369c-0.016,0.111-0.026,0.223-0.036,0.334c-0.013,0.133-0.025,0.266-0.03,0.399
	c-0.004,0.109-0.003,0.217-0.003,0.325c0,0.134,0.001,0.269,0.009,0.404c0.007,0.117,0.02,0.232,0.032,0.348
	c0.013,0.125,0.025,0.25,0.044,0.375c0.021,0.135,0.05,0.268,0.078,0.402c0.018,0.085,0.029,0.171,0.05,0.257
	c0.004,0.015,0.011,0.028,0.015,0.043c0.093,0.366,0.218,0.724,0.365,1.073c0.027,0.064,0.053,0.127,0.081,0.19
	c0.149,0.327,0.321,0.644,0.517,0.949c0.039,0.06,0.08,0.117,0.12,0.176c0.206,0.301,0.429,0.594,0.682,0.867
	c0.008,0.009,0.018,0.017,0.026,0.026c0.238,0.253,0.502,0.488,0.779,0.71c0.064,0.051,0.126,0.103,0.191,0.151
	c0.048,0.037,0.092,0.077,0.141,0.112c0.136,0.097,0.282,0.167,0.422,0.254c0.161,0.1,0.318,0.206,0.487,0.293
	c0.213,0.111,0.431,0.197,0.65,0.286c0.149,0.061,0.293,0.129,0.445,0.18c0.25,0.083,0.504,0.138,0.758,0.194
	c0.135,0.03,0.267,0.072,0.404,0.094c0.359,0.058,0.72,0.086,1.081,0.091c0.037,0,0.072,0.009,0.109,0.009
	c0.127,0,0.257-0.017,0.385-0.023c0.167-0.009,0.334-0.011,0.5-0.03c0.084-0.01,0.168-0.031,0.252-0.044
	c0.214-0.033,0.429-0.066,0.64-0.118c0.011-0.002,0.021-0.003,0.032-0.006c25.532-6.318,53.053-21.782,81.876-45.985
	c4.212,3.825,8.242,7.892,12.07,12.193c-32.184,24.693-68.788,45.159-105.201,49.622c-4.111,0.504-7.036,4.245-6.532,8.356
	c0.454,3.706,3.545,6.441,7.154,6.575V520.93C290.11,529.103,283.46,535.752,275.287,535.752z M198.634,272.622l32.538,45.423
	c-16.311-7.353-33.515-18.48-51.427-33.279C185.765,280.267,192.075,276.208,198.634,272.622z M256.252,284.75l-19.111-27.043
	c6.263-1.53,12.642-2.689,19.111-3.457V284.75z M313.028,257.593l-18.706,26.47V254.24
	C300.651,254.988,306.894,256.113,313.028,257.593z M370.85,284.748c-18.134,14.985-35.557,26.22-52.076,33.583l32.832-45.912
	C358.29,276.052,364.721,280.168,370.85,284.748z M450.981,255.965c-12.973,13.386-28.052,27.755-44.541,41.343
	c-5.57-6.319-11.534-12.183-17.847-17.566c-0.054-0.066-0.101-0.136-0.158-0.201c-0.583-0.67-1.263-1.203-1.995-1.613
	c-27.894-23.021-62.261-36.823-98.813-39.37c-0.064-0.007-0.13-0.008-0.195-0.014c-4.025-0.276-8.073-0.432-12.146-0.432
	c-4.062,0-8.101,0.156-12.116,0.431c-0.076,0.006-0.153,0.008-0.228,0.016c-36.494,2.547-70.825,16.332-98.702,39.319
	c-0.775,0.417-1.493,0.971-2.106,1.674c-0.083,0.096-0.155,0.197-0.232,0.296c-6.281,5.366-12.217,11.208-17.76,17.502
	c-16.417-13.534-31.487-27.885-44.545-41.358c-44.211-45.614-49.482-106.719-13.427-155.672C124.93,47.693,197.391,15,275.275,15
	c79.506,0,152.702,33.711,191.021,87.978C500.338,151.187,494.326,211.237,450.981,255.965z"/>
<g>
</g>
<g>
</g>
<g>
</g>
<g>
</g>
<g>
</g>
<g>
</g>
<g>
</g>
<g>
</g>
<g>
</g>
<g>
</g>
<g>
</g>
<g>
</g>
<g>
</g>
<g>
</g>
<g>
</g>
</svg>
