<?xml version="1.0" encoding="iso-8859-1"?>
<!-- Generator: Adobe Illustrator 17.1.0, SVG Export Plug-In . SVG Version: 6.00 Build 0)  -->
<!DOCTYPE svg PUBLIC "-//W3C//DTD SVG 1.1//EN" "http://www.w3.org/Graphics/SVG/1.1/DTD/svg11.dtd">
<svg version="1.1" id="Capa_1" xmlns="http://www.w3.org/2000/svg" xmlns:xlink="http://www.w3.org/1999/xlink" x="0px" y="0px"
	 viewBox="0 0 550.662 550.662" style="enable-background:new 0 0 550.662 550.662;" xml:space="preserve">
<path d="M146.023,27.008h-5.732H70.84c-10.517,0-19.073,8.557-19.073,19.075v210.921c0,10.518,8.557,19.075,19.073,19.075h69.45
	c4.143,0,7.5-3.358,7.5-7.5V41.79c3.288-0.796,5.732-3.75,5.732-7.282C153.523,30.366,150.165,27.008,146.023,27.008z
	 M66.767,46.083c0-2.247,1.827-4.075,4.073-4.075h61.95v219.07H70.84c-2.246,0-4.073-1.828-4.073-4.075V46.083z M479.822,0H70.841
	c-25.41,0-46.083,20.673-46.083,46.083v210.921c0,25.41,20.673,46.083,46.083,46.083h61.949v144.086H59.266
	c-4.143,0-7.5,3.358-7.5,7.5v20.968c0,4.142,3.357,7.5,7.5,7.5h73.524v12.008h-6.004c-4.143,0-7.5,3.358-7.5,7.5v40.513
	c0,4.142,3.357,7.5,7.5,7.5h54.017c4.143,0,7.5-3.358,7.5-7.5v-40.513c0-4.142-3.357-7.5-7.5-7.5h-6.005v-12.008h201.065v12.008
	h-6.004c-4.143,0-7.5,3.358-7.5,7.5v40.513c0,4.142,3.357,7.5,7.5,7.5h54.016c4.143,0,7.5-3.358,7.5-7.5v-40.513
	c0-4.142-3.357-7.5-7.5-7.5h-6.004v-12.008h73.525c4.143,0,7.5-3.358,7.5-7.5v-20.968c0-4.142-3.357-7.5-7.5-7.5h-73.525V303.087
	h61.95c25.41,0,46.082-20.672,46.082-46.083V46.083C525.904,20.673,505.232,0,479.822,0z M479.822,288.087h-69.45
	c-4.143,0-7.5,3.358-7.5,7.5v159.086c0,4.142,3.357,7.5,7.5,7.5h73.525v5.968h-73.525c-4.143,0-7.5,3.358-7.5,7.5v19.508h-12.008
	v-19.508c0-4.142-3.357-7.5-7.5-7.5H167.298c-4.143,0-7.5,3.358-7.5,7.5v19.508H147.79v-19.508c0-4.142-3.357-7.5-7.5-7.5H66.766
	v-5.968h73.524c4.143,0,7.5-3.358,7.5-7.5V295.587c0-4.142-3.357-7.5-7.5-7.5H70.841c-17.14,0-31.083-13.943-31.083-31.083V46.083
	C39.758,28.944,53.701,15,70.841,15h408.98c17.139,0,31.082,13.944,31.082,31.083v210.921
	C510.904,274.144,496.96,288.087,479.822,288.087z M173.303,535.662h-39.017v-25.513h6.004h27.008h6.005V535.662z M416.375,535.662
	H377.36v-25.513h6.004h27.008h6.004V535.662z M383.364,288.087H167.298c-4.143,0-7.5,3.358-7.5,7.5v159.086
	c0,4.142,3.357,7.5,7.5,7.5h216.065c4.143,0,7.5-3.358,7.5-7.5V295.587C390.864,291.445,387.506,288.087,383.364,288.087z
	 M174.798,447.173V303.087h201.065v144.086H174.798z M390.864,34.508v17.141c0,4.142-3.357,7.5-7.5,7.5s-7.5-3.358-7.5-7.5v-9.641
	H174.798v219.07h201.065V97.521c0-4.142,3.357-7.5,7.5-7.5s7.5,3.358,7.5,7.5v171.057c0,4.142-3.357,7.5-7.5,7.5H167.298
	c-4.143,0-7.5-3.358-7.5-7.5V34.508c0-4.142,3.357-7.5,7.5-7.5h216.065C387.506,27.008,390.864,30.366,390.864,34.508z
	 M479.822,27.008h-69.45h-5.732c-4.143,0-7.5,3.358-7.5,7.5c0,3.532,2.445,6.486,5.732,7.282v226.789c0,4.142,3.357,7.5,7.5,7.5
	h69.45c10.519,0,19.075-8.557,19.075-19.075V46.083C498.897,35.565,490.34,27.008,479.822,27.008z M483.897,257.004
	c0,2.247-1.828,4.075-4.075,4.075h-61.95V42.008h61.95c2.247,0,4.075,1.828,4.075,4.075V257.004z"/>
<g>
</g>
<g>
</g>
<g>
</g>
<g>
</g>
<g>
</g>
<g>
</g>
<g>
</g>
<g>
</g>
<g>
</g>
<g>
</g>
<g>
</g>
<g>
</g>
<g>
</g>
<g>
</g>
<g>
</g>
</svg>
