<?xml version="1.0" encoding="iso-8859-1"?>
<!-- Generator: Adobe Illustrator 17.1.0, SVG Export Plug-In . SVG Version: 6.00 Build 0)  -->
<!DOCTYPE svg PUBLIC "-//W3C//DTD SVG 1.1//EN" "http://www.w3.org/Graphics/SVG/1.1/DTD/svg11.dtd">
<svg version="1.1" id="Capa_1" xmlns="http://www.w3.org/2000/svg" xmlns:xlink="http://www.w3.org/1999/xlink" x="0px" y="0px"
	 viewBox="0 0 549.719 549.719" style="enable-background:new 0 0 549.719 549.719;" xml:space="preserve">
<path d="M488.383,187.321h-84.278c-14.547,0-26.382-11.835-26.382-26.382C377.723,72.197,305.526,0,216.783,0h-50.735
	C77.306,0,5.108,72.197,5.108,160.939v163.305v117.993c0,4.143,3.358,7.5,7.5,7.5h9.529v92.481c0,4.143,3.358,7.5,7.5,7.5h27.247
	c4.142,0,7.5-3.357,7.5-7.5v-92.481h419.154v92.481c0,4.143,3.358,7.5,7.5,7.5h27.247c4.142,0,7.5-3.357,7.5-7.5v-92.481h11.325
	c4.142,0,7.5-3.357,7.5-7.5V324.244v-80.695C544.61,212.545,519.387,187.321,488.383,187.321z M166.048,15h50.735
	c80.472,0,145.94,65.468,145.94,145.939c0,22.818,18.564,41.382,41.382,41.382h84.278c22.732,0,41.227,18.494,41.227,41.228v4.656
	h-23.153c-4.142,0-7.5,3.357-7.5,7.5s3.358,7.5,7.5,7.5h23.153v53.539H513.33H34.948h-14.84v-53.539H438.34
	c4.142,0,7.5-3.357,7.5-7.5s-3.358-7.5-7.5-7.5H20.108v-87.266C20.108,80.468,85.577,15,166.048,15z M433.851,407.19v-75.446h17.617
	v41.258c0,4.143,3.358,7.5,7.5,7.5h3.372v26.688H433.851z M390.362,407.19v-26.688h3.372c4.142,0,7.5-3.357,7.5-7.5v-41.258h17.617
	v75.446H390.362z M346.873,407.19v-26.688h3.372c4.142,0,7.5-3.357,7.5-7.5v-41.258h6.745v41.258c0,4.143,3.358,7.5,7.5,7.5h3.373
	v26.688H346.873z M303.384,407.19v-26.688h3.372c4.142,0,7.5-3.357,7.5-7.5v-41.258H321v41.258c0,4.143,3.358,7.5,7.5,7.5h3.373
	v26.688H303.384z M259.895,407.19v-75.446h17.617v41.258c0,4.143,3.358,7.5,7.5,7.5h3.373v26.688H259.895z M216.405,407.19v-26.688
	h3.372c4.142,0,7.5-3.357,7.5-7.5v-41.258h17.617v75.446H216.405z M172.916,407.19v-26.688h3.372c4.142,0,7.5-3.357,7.5-7.5v-41.258
	h6.745v41.258c0,4.143,3.358,7.5,7.5,7.5h3.373v26.688H172.916z M129.427,407.19v-75.446h17.617v41.258c0,4.143,3.358,7.5,7.5,7.5
	h3.373v26.688H129.427z M85.938,407.19v-26.688h3.372c4.142,0,7.5-3.357,7.5-7.5v-41.258h17.617v75.446H85.938z M42.448,407.19
	v-75.446h17.617v41.258c0,4.143,3.358,7.5,7.5,7.5h3.373v26.688H42.448z M49.385,534.719H37.138v-84.981h12.247V534.719z
	 M510.786,534.719h-12.247v-84.981h12.247V534.719z M518.286,434.737h-27.247H56.885H29.638h-9.529V331.744h7.34v82.946
	c0,4.143,3.358,7.5,7.5,7.5h445.765c4.142,0,7.5-3.357,7.5-7.5s-3.358-7.5-7.5-7.5h-3.373v-26.688h3.373c4.142,0,7.5-3.357,7.5-7.5
	v-41.258h17.617v75.446h-1.167c-4.142,0-7.5,3.357-7.5,7.5s3.358,7.5,7.5,7.5h8.667c4.142,0,7.5-3.357,7.5-7.5v-82.946h8.781
	v102.993H518.286z"/>
<g>
</g>
<g>
</g>
<g>
</g>
<g>
</g>
<g>
</g>
<g>
</g>
<g>
</g>
<g>
</g>
<g>
</g>
<g>
</g>
<g>
</g>
<g>
</g>
<g>
</g>
<g>
</g>
<g>
</g>
</svg>
