<?xml version="1.0" encoding="iso-8859-1"?>
<!-- Generator: Adobe Illustrator 17.1.0, SVG Export Plug-In . SVG Version: 6.00 Build 0)  -->
<!DOCTYPE svg PUBLIC "-//W3C//DTD SVG 1.1//EN" "http://www.w3.org/Graphics/SVG/1.1/DTD/svg11.dtd">
<svg version="1.1" id="Capa_1" xmlns="http://www.w3.org/2000/svg" xmlns:xlink="http://www.w3.org/1999/xlink" x="0px" y="0px"
	 viewBox="0 0 552.84 552.84" style="enable-background:new 0 0 552.84 552.84;" xml:space="preserve">
<path d="M385.976,60.438c-16.493,0-29.91,13.417-29.91,29.91v50.95c-2.168-0.721-4.484-1.118-6.891-1.118h-30.979
	c-2.676,0-5.241,0.482-7.613,1.365c-2.475-9.374-11.027-16.305-21.168-16.305h-30.979c-2.407,0-4.723,0.396-6.891,1.117V37.292
	C251.545,16.729,234.816,0,214.253,0S176.96,16.729,176.96,37.292v209.819l-25.667,17.045
	c-12.279,8.154-17.412,23.551-12.483,37.441c0.052,0.145,0.107,0.288,0.167,0.43l38.615,90.716l24.604,56.077
	c1.074,2.892,2.601,5.528,4.468,7.858v88.662c0,2.095,0.876,4.094,2.416,5.514c1.391,1.282,3.208,1.986,5.083,1.986
	c0.202,0,0.405-0.008,0.608-0.025l168.781-13.727c3.894-0.316,6.892-3.569,6.892-7.476v-85.488l20.417-57.374
	c0.046-0.131,0.089-0.263,0.128-0.396c3.249-11.028,4.896-22.449,4.896-33.944V90.348C415.886,73.855,402.469,60.438,385.976,60.438
	z M400.886,354.411c0,9.992-1.422,19.92-4.227,29.511l-20.78,58.394c-0.02,0.058-0.037,0.116-0.056,0.174
	c-0.019,0.06-0.04,0.118-0.058,0.178c-0.004,0.015-0.01,0.029-0.014,0.044c-1.681,5.707-7.01,9.692-12.959,9.692h-109.42
	c-4.142,0-7.5,3.358-7.5,7.5s3.358,7.5,7.5,7.5h109.42c4.484,0,8.794-1.087,12.653-3.016v60.312l-153.781,12.507v-70.767
	c2.336,0.62,4.768,0.964,7.257,0.964c4.142,0,7.5-3.358,7.5-7.5s-3.358-7.5-7.5-7.5c-5.676,0-10.783-3.587-12.708-8.926
	c-0.057-0.158-0.12-0.315-0.187-0.469l-24.665-56.216l-38.483-90.408c-2.506-7.342,0.235-15.43,6.713-19.732l17.37-11.535v36.495
	c0,4.142,3.358,7.5,7.5,7.5s7.5-3.358,7.5-7.5v-50.478V37.292C191.96,25,201.961,15,214.253,15s22.292,10,22.292,22.292v109.839
	v59.182c0,4.143,3.358,7.5,7.5,7.5s7.5-3.357,7.5-7.5v-59.182c0-3.8,3.091-6.891,6.891-6.891h30.979
	c3.799,0,6.891,3.091,6.891,6.891v14.94v44.242c0,4.143,3.358,7.5,7.5,7.5s7.5-3.357,7.5-7.5v-44.242
	c0-3.799,3.091-6.891,6.891-6.891h30.979c3.8,0,6.891,3.092,6.891,6.891v12.171v6.244v25.826c0,4.143,3.358,7.5,7.5,7.5
	s7.5-3.357,7.5-7.5v-25.826v-6.244v-12.171V90.348c0-8.222,6.688-14.91,14.91-14.91s14.91,6.688,14.91,14.91V354.411z
	 M352.981,239.532c0,4.142-3.358,7.5-7.5,7.5s-7.5-3.358-7.5-7.5c0-2.369-1.927-4.296-4.296-4.296s-4.296,1.927-4.296,4.296
	c0,4.142-3.358,7.5-7.5,7.5s-7.5-3.358-7.5-7.5c0-10.64,8.656-19.296,19.296-19.296S352.981,228.892,352.981,239.532z
	 M293.221,239.532c0,4.142-3.358,7.5-7.5,7.5s-7.5-3.358-7.5-7.5c0-2.369-1.927-4.296-4.296-4.296s-4.296,1.927-4.296,4.296
	c0,4.142-3.358,7.5-7.5,7.5s-7.5-3.358-7.5-7.5c0-10.64,8.656-19.296,19.296-19.296S293.221,228.892,293.221,239.532z
	 M235.46,239.532c0,4.142-3.358,7.5-7.5,7.5s-7.5-3.358-7.5-7.5c0-2.369-1.927-4.296-4.296-4.296s-4.296,1.927-4.296,4.296
	c0,4.142-3.358,7.5-7.5,7.5s-7.5-3.358-7.5-7.5c0-10.64,8.656-19.296,19.296-19.296S235.46,228.892,235.46,239.532z
	 M396.439,236.193c0,4.142-3.358,7.5-7.5,7.5s-7.5-3.358-7.5-7.5c0-0.528-0.43-0.958-0.958-0.958c-0.528,0-0.958,0.43-0.958,0.958
	c0,4.142-3.358,7.5-7.5,7.5s-7.5-3.358-7.5-7.5c0-8.799,7.159-15.958,15.958-15.958C389.28,220.236,396.439,227.394,396.439,236.193
	z"/>
<g>
</g>
<g>
</g>
<g>
</g>
<g>
</g>
<g>
</g>
<g>
</g>
<g>
</g>
<g>
</g>
<g>
</g>
<g>
</g>
<g>
</g>
<g>
</g>
<g>
</g>
<g>
</g>
<g>
</g>
</svg>
