<?xml version="1.0" encoding="iso-8859-1"?>
<!-- Generator: Adobe Illustrator 17.1.0, SVG Export Plug-In . SVG Version: 6.00 Build 0)  -->
<!DOCTYPE svg PUBLIC "-//W3C//DTD SVG 1.1//EN" "http://www.w3.org/Graphics/SVG/1.1/DTD/svg11.dtd">
<svg version="1.1" id="Capa_1" xmlns="http://www.w3.org/2000/svg" xmlns:xlink="http://www.w3.org/1999/xlink" x="0px" y="0px"
	 viewBox="0 0 544.259 544.259" style="enable-background:new 0 0 544.259 544.259;" xml:space="preserve">
<path d="M314.936,306.303c-43.488,0-78.869,35.38-78.869,78.868v24.443c0,4.142,3.357,7.5,7.5,7.5s7.5-3.358,7.5-7.5v-24.443
	c0-35.217,28.651-63.868,63.869-63.868c4.143,0,7.5-3.358,7.5-7.5C322.436,309.66,319.079,306.303,314.936,306.303z
	 M427.538,295.802l-91.512,92.91l-18.667,51.497c-1.065,3.501-2.803,6.675-5.025,9.423v87.127c0,2.099-0.88,4.102-2.426,5.522
	c-1.389,1.276-3.202,1.978-5.074,1.978c-0.21,0-0.421-0.009-0.633-0.026l-166.089-14.061c-3.883-0.329-6.867-3.577-6.867-7.473
	v-83.552l-20.084-56.438c-0.046-0.131-0.089-0.263-0.128-0.396c-3.2-10.864-4.822-22.114-4.822-33.437V89.026
	c0-16.296,13.258-29.553,29.553-29.553c16.296,0,29.553,13.257,29.553,29.553v49.97c2.1-0.68,4.337-1.052,6.661-1.052h30.484
	c2.602,0,5.097,0.461,7.409,1.305c2.493-9.211,10.924-16.007,20.913-16.007h30.484c2.324,0,4.561,0.372,6.661,1.052V36.816
	C267.93,16.516,284.446,0,304.747,0s36.816,16.516,36.816,36.816v210.43v27.199l35.664-31.644
	c7.563-6.711,17.272-9.937,27.353-9.082c10.075,0.854,19.107,5.669,25.434,13.558C441.607,261.737,440.543,282.598,427.538,295.802z
	 M224.123,159.605v11.977v27.581v3.978v41.492c0,4.134,3.363,7.498,7.498,7.498h28.811c4.135,0,7.498-3.364,7.498-7.498v-29.026
	v-12.465v-3.978v-54.26c0-3.673-2.988-6.661-6.661-6.661h-30.484c-3.673,0-6.661,2.988-6.661,6.661V159.605z M165.316,159.605
	v11.977v6.145v66.906c0,4.134,3.363,7.498,7.497,7.498h28.813c4.134,0,7.497-3.363,7.497-7.498v-41.492v-3.978v-27.581v-11.977
	c0-3.673-2.988-6.662-6.661-6.662h-30.484C168.305,152.944,165.316,155.932,165.316,159.605z M418.31,256.661
	c-3.729-4.652-9.057-7.491-14.998-7.995c-5.948-0.504-11.67,1.398-16.13,5.355l-48.142,42.715c-2.209,1.959-5.364,2.44-8.053,1.23
	c-2.693-1.21-4.425-3.888-4.425-6.84v-43.881V36.816c0-12.029-9.787-21.816-21.816-21.816c-12.03,0-21.817,9.787-21.817,21.816
	v108.087v54.26v3.978v12.465v29.026v2.499c0,1.164-0.273,2.261-0.746,3.244c-2.545,9.632-11.332,16.755-21.752,16.755h-28.811
	c-5.757,0-11.014-2.176-14.998-5.746c-3.983,3.57-9.24,5.746-14.997,5.746h-28.813c-12.405,0-22.497-10.092-22.497-22.498v-66.906
	v-6.145v-11.977V89.026c0-8.024-6.528-14.553-14.553-14.553s-14.553,6.528-14.553,14.553v259.85c0,9.819,1.397,19.575,4.153,29.002
	l20.447,57.46c0.021,0.059,0.039,0.12,0.058,0.179c0.019,0.057,0.038,0.113,0.055,0.171c0.005,0.015,0.01,0.03,0.015,0.044
	c1.64,5.565,6.836,9.452,12.638,9.452h107.674c4.143,0,7.5,3.358,7.5,7.5s-3.357,7.5-7.5,7.5H158.577
	c-4.365,0-8.562-1.046-12.332-2.899v58.521l151.089,12.791v-69.297c-2.234,0.575-4.557,0.885-6.93,0.885c-4.143,0-7.5-3.358-7.5-7.5
	s3.357-7.5,7.5-7.5c3.265,0,6.338-1.231,8.694-3.3c0.3-0.356,0.631-0.685,0.992-0.979c1.34-1.451,2.372-3.204,2.952-5.173
	c0.043-0.146,0.091-0.292,0.144-0.437l19.297-53.235c0.367-1.015,0.95-1.938,1.707-2.707l92.661-94.077
	C424.52,277.49,425.147,265.188,418.31,256.661z"/>
<g>
</g>
<g>
</g>
<g>
</g>
<g>
</g>
<g>
</g>
<g>
</g>
<g>
</g>
<g>
</g>
<g>
</g>
<g>
</g>
<g>
</g>
<g>
</g>
<g>
</g>
<g>
</g>
<g>
</g>
</svg>
