<?xml version="1.0" encoding="iso-8859-1"?>
<!-- Generator: Adobe Illustrator 17.1.0, SVG Export Plug-In . SVG Version: 6.00 Build 0)  -->
<!DOCTYPE svg PUBLIC "-//W3C//DTD SVG 1.1//EN" "http://www.w3.org/Graphics/SVG/1.1/DTD/svg11.dtd">
<svg version="1.1" id="Capa_1" xmlns="http://www.w3.org/2000/svg" xmlns:xlink="http://www.w3.org/1999/xlink" x="0px" y="0px"
	 viewBox="0 0 565.187 565.187" style="enable-background:new 0 0 565.187 565.187;" xml:space="preserve">
<path d="M424.681,32.764h-19.382c-3.975,0-7.735,0.937-11.072,2.601c-3.215-10.028-12.629-17.31-23.711-17.31h-37.437
	c-3.678,0-7.173,0.803-10.317,2.24C320.6,8.758,310.451,0,298.296,0h-37.437c-8.598,0-16.193,4.383-20.667,11.031
	c-3.632-3.362-8.285-5.517-14.116-5.517h-37.438c-13.725,0-24.891,11.166-24.891,24.891c0,0.002,0,0.005,0,0.007s0,0.004,0,0.007
	l0.205,108.772l-31.71,21.058c-14.241,9.457-20.193,27.313-14.476,43.422c0.051,0.145,0.107,0.288,0.167,0.429l46.543,109.344
	l29.775,82.561c1.307,3.624,3.233,6.899,5.605,9.763v151.917c0,2.113,0.892,4.129,2.456,5.55c1.387,1.26,3.188,1.95,5.044,1.95
	c0.238,0,0.477-0.011,0.715-0.034l203.97-19.525c3.848-0.368,6.785-3.601,6.785-7.466V393.104L443.72,308.6
	c3.884-13.185,5.853-26.837,5.853-40.58V57.655C449.573,43.93,438.406,32.764,424.681,32.764z M434.573,268.02
	c0,12.308-1.764,24.534-5.241,36.342l-25.16,85.415c-0.005,0.016-0.009,0.032-0.014,0.047l-0.024,0.08
	c-2.227,7.557-9.283,12.834-17.161,12.834H250c-4.142,0-7.5,3.358-7.5,7.5s3.358,7.5,7.5,7.5h136.973
	c6.065,0,11.861-1.707,16.855-4.705v118.312l-188.97,18.089V416.051c3.28,1.092,6.758,1.687,10.333,1.687c4.142,0,7.5-3.358,7.5-7.5
	s-3.358-7.5-7.5-7.5c-7.516,0-14.279-4.75-16.829-11.82l-29.847-82.76c-0.048-0.132-0.099-0.264-0.154-0.393l-46.529-109.31
	c-3.291-9.56,0.271-20.105,8.708-25.708l23.42-15.553v45.282c0,4.143,3.358,7.5,7.5,7.5s7.5-3.357,7.5-7.5V143.21
	c0-0.002,0-0.005,0-0.007s0-0.004,0-0.006l-0.213-112.791c0-5.454,4.437-9.891,9.891-9.891h37.438
	c6.586,0,9.891,12.178,9.891,18.996v49.535c0,4.142,3.358,7.5,7.5,7.5s7.5-3.358,7.5-7.5V39.511v-5.669v-8.95
	c0-5.454,4.437-9.892,9.891-9.892h37.437c5.454,0,9.892,4.438,9.892,9.892v18.055v46.099c0,4.142,3.357,7.5,7.5,7.5
	s7.5-3.358,7.5-7.5V42.946c0-5.454,4.438-9.892,9.892-9.892h37.437c5.454,0,9.892,4.438,9.892,9.892v14.709v31.39
	c0,4.142,3.357,7.5,7.5,7.5s7.5-3.358,7.5-7.5v-31.39c0-5.454,4.438-9.892,9.892-9.892h19.382c5.454,0,9.892,4.438,9.892,9.892
	V268.02z M373.553,129.189c0,4.142-3.357,7.5-7.5,7.5s-7.5-3.358-7.5-7.5c0-3.725-3.03-6.755-6.755-6.755
	c-3.726,0-6.756,3.03-6.756,6.755c0,4.142-3.357,7.5-7.5,7.5s-7.5-3.358-7.5-7.5c0-11.996,9.76-21.755,21.756-21.755
	S373.553,117.193,373.553,129.189z M301.333,129.189c0,4.142-3.357,7.5-7.5,7.5s-7.5-3.358-7.5-7.5c0-3.725-3.03-6.755-6.755-6.755
	c-3.725,0-6.755,3.03-6.755,6.755c0,4.142-3.358,7.5-7.5,7.5s-7.5-3.358-7.5-7.5c0-11.996,9.759-21.755,21.755-21.755
	S301.333,117.193,301.333,129.189z M229.114,129.189c0,4.142-3.358,7.5-7.5,7.5s-7.5-3.358-7.5-7.5c0-3.725-3.03-6.755-6.755-6.755
	s-6.755,3.03-6.755,6.755c0,4.142-3.358,7.5-7.5,7.5s-7.5-3.358-7.5-7.5c0-11.996,9.759-21.755,21.755-21.755
	S229.114,117.193,229.114,129.189z M429.697,125.155c0,4.142-3.357,7.5-7.5,7.5s-7.5-3.358-7.5-7.5c0-1.5-1.221-2.721-2.722-2.721
	c-1.5,0-2.721,1.221-2.721,2.721c0,4.142-3.357,7.5-7.5,7.5s-7.5-3.358-7.5-7.5c0-9.771,7.949-17.721,17.721-17.721
	S429.697,115.384,429.697,125.155z"/>
<g>
</g>
<g>
</g>
<g>
</g>
<g>
</g>
<g>
</g>
<g>
</g>
<g>
</g>
<g>
</g>
<g>
</g>
<g>
</g>
<g>
</g>
<g>
</g>
<g>
</g>
<g>
</g>
<g>
</g>
</svg>
