<?xml version="1.0" encoding="iso-8859-1"?>
<!-- Generator: Adobe Illustrator 17.1.0, SVG Export Plug-In . SVG Version: 6.00 Build 0)  -->
<!DOCTYPE svg PUBLIC "-//W3C//DTD SVG 1.1//EN" "http://www.w3.org/Graphics/SVG/1.1/DTD/svg11.dtd">
<svg version="1.1" id="Capa_1" xmlns="http://www.w3.org/2000/svg" xmlns:xlink="http://www.w3.org/1999/xlink" x="0px" y="0px"
	 viewBox="0 0 552.185 552.185" style="enable-background:new 0 0 552.185 552.185;" xml:space="preserve">
<path d="M414.24,60.364c-16.478,0-29.883,13.405-29.883,29.883v50.875c-2.163-0.718-4.473-1.112-6.874-1.112h-30.94
	c-2.67,0-5.229,0.48-7.597,1.36c-2.478-9.361-11.021-16.282-21.15-16.282h-30.94c-2.401,0-4.711,0.395-6.874,1.112V37.256
	C279.981,16.713,263.268,0,242.725,0s-37.256,16.713-37.256,37.256v212.409c-0.079,0.435-0.126,0.881-0.126,1.339v27.561
	l-36.061-31.997c-7.612-6.755-17.388-10.001-27.533-9.142c-10.142,0.86-19.233,5.707-25.601,13.647
	c-11.67,14.555-10.599,35.552,2.492,48.843l86.277,93.688l24.826,51.937c1.127,3.703,2.988,7.055,5.393,9.914v89.229
	c0,2.099,0.879,4.102,2.424,5.521c1.39,1.277,3.203,1.979,5.076,1.979c0.209,0,0.42-0.009,0.63-0.026l168.576-14.207
	c3.884-0.327,6.87-3.576,6.87-7.474v-84.885l20.392-57.304c0.046-0.131,0.089-0.263,0.128-0.396
	c3.244-11.016,4.89-22.423,4.89-33.905V90.247C444.123,73.77,430.717,60.364,414.24,60.364z M429.123,353.988
	c0,9.979-1.42,19.894-4.221,29.472l-20.755,58.322c-0.021,0.06-0.039,0.121-0.059,0.181c-0.018,0.056-0.038,0.112-0.055,0.169
	c-0.004,0.015-0.01,0.03-0.015,0.045c-1.678,5.696-6.997,9.674-12.935,9.674H281.798c-4.143,0-7.5,3.357-7.5,7.5
	c0,4.142,3.357,7.5,7.5,7.5h109.286c4.475,0,8.776-1.085,12.629-3.007v59.739l-153.576,12.943v-71.712
	c2.171,0.538,4.426,0.825,6.726,0.825c4.143,0,7.5-3.358,7.5-7.5s-3.357-7.5-7.5-7.5c-5.876,0-11.14-3.937-12.801-9.575
	c-0.043-0.146-0.091-0.292-0.144-0.436l-25.456-53.675c-0.367-1.015-0.95-1.938-1.707-2.707l-87.427-94.854
	c-7.755-7.874-8.39-20.313-1.477-28.934c3.771-4.704,9.157-7.575,15.165-8.084c6.011-0.512,11.801,1.414,16.311,5.415l48.538,43.068
	c2.208,1.959,5.36,2.441,8.053,1.23c2.692-1.21,4.425-3.888,4.425-6.84v-43.071c0.079-0.435,0.126-0.881,0.126-1.338V37.256
	c0-12.272,9.984-22.256,22.257-22.256c12.271,0,22.255,9.983,22.255,22.256v109.705v59.11c0,4.142,3.357,7.5,7.5,7.5
	s7.5-3.358,7.5-7.5v-59.11c0-3.79,3.084-6.873,6.874-6.873h30.94c3.79,0,6.874,3.083,6.874,6.873v14.922v44.188
	c0,4.142,3.357,7.5,7.5,7.5s7.5-3.358,7.5-7.5v-44.188c0-3.79,3.083-6.873,6.873-6.873h30.94c3.79,0,6.874,3.083,6.874,6.873v12.157
	v6.237v25.795c0,4.142,3.357,7.5,7.5,7.5s7.5-3.358,7.5-7.5v-25.795v-6.237v-12.157V90.247c0-8.207,6.677-14.883,14.883-14.883
	s14.883,6.676,14.883,14.883V353.988z M381.295,239.249c0,4.142-3.357,7.5-7.5,7.5s-7.5-3.358-7.5-7.5
	c0-2.361-1.921-4.282-4.281-4.282c-2.361,0-4.282,1.921-4.282,4.282c0,4.142-3.357,7.5-7.5,7.5s-7.5-3.358-7.5-7.5
	c0-10.632,8.65-19.282,19.282-19.282S381.295,228.617,381.295,239.249z M321.607,239.249c0,4.142-3.357,7.5-7.5,7.5
	s-7.5-3.358-7.5-7.5c0-2.361-1.921-4.282-4.281-4.282c-2.361,0-4.282,1.921-4.282,4.282c0,4.142-3.357,7.5-7.5,7.5
	s-7.5-3.358-7.5-7.5c0-10.632,8.65-19.282,19.282-19.282S321.607,228.617,321.607,239.249z M261.92,239.249
	c0,4.142-3.357,7.5-7.5,7.5s-7.5-3.358-7.5-7.5c0-2.361-1.921-4.282-4.282-4.282c-2.36,0-4.281,1.921-4.281,4.282
	c0,4.142-3.357,7.5-7.5,7.5s-7.5-3.358-7.5-7.5c0-10.632,8.649-19.282,19.281-19.282S261.92,228.617,261.92,239.249z
	 M427.696,235.915c0,4.142-3.357,7.5-7.5,7.5s-7.5-3.358-7.5-7.5c0-0.523-0.426-0.948-0.948-0.948s-0.947,0.425-0.947,0.948
	c0,4.142-3.357,7.5-7.5,7.5s-7.5-3.358-7.5-7.5c0-8.794,7.154-15.948,15.947-15.948
	C420.542,219.967,427.696,227.121,427.696,235.915z"/>
<g>
</g>
<g>
</g>
<g>
</g>
<g>
</g>
<g>
</g>
<g>
</g>
<g>
</g>
<g>
</g>
<g>
</g>
<g>
</g>
<g>
</g>
<g>
</g>
<g>
</g>
<g>
</g>
<g>
</g>
</svg>
