<?xml version="1.0" encoding="iso-8859-1"?>
<!-- Generator: Adobe Illustrator 17.1.0, SVG Export Plug-In . SVG Version: 6.00 Build 0)  -->
<!DOCTYPE svg PUBLIC "-//W3C//DTD SVG 1.1//EN" "http://www.w3.org/Graphics/SVG/1.1/DTD/svg11.dtd">
<svg version="1.1" id="Capa_1" xmlns="http://www.w3.org/2000/svg" xmlns:xlink="http://www.w3.org/1999/xlink" x="0px" y="0px"
	 viewBox="0 0 550.752 550.752" style="enable-background:new 0 0 550.752 550.752;" xml:space="preserve">
<path d="M546.417,257.745l-31.511-40.489c-1.421-1.826-3.605-2.894-5.919-2.894h-25.999l-17.174-18.911
	c-1.421-1.565-3.438-2.458-5.552-2.458H90.725c-2.114,0-4.131,0.893-5.553,2.458l-17.173,18.911H40.713
	c-2.313,0-4.498,1.067-5.919,2.894L1.581,259.931c-0.045,0.058-0.082,0.119-0.125,0.178c-0.086,0.117-0.17,0.234-0.249,0.356
	c-0.06,0.092-0.114,0.185-0.169,0.279c-0.069,0.117-0.136,0.234-0.198,0.355c-0.054,0.104-0.103,0.208-0.151,0.314
	c-0.053,0.115-0.104,0.23-0.151,0.348c-0.046,0.114-0.087,0.229-0.126,0.345c-0.039,0.114-0.077,0.228-0.11,0.344
	c-0.036,0.124-0.067,0.248-0.096,0.373c-0.026,0.112-0.052,0.223-0.073,0.336c-0.025,0.135-0.044,0.27-0.062,0.406
	c-0.014,0.107-0.028,0.213-0.037,0.322c-0.013,0.145-0.018,0.291-0.022,0.436C0.009,264.395,0,264.465,0,264.538v64.291
	c0,4.143,3.357,7.5,7.5,7.5h36.579v13.93c0,4.143,3.357,7.5,7.5,7.5h447.605c4.143,0,7.5-3.357,7.5-7.5v-13.93h36.567
	c4.143,0,7.5-3.357,7.5-7.5v-64.291C550.752,261.528,548.975,258.939,546.417,257.745z M491.685,342.758H59.079v-5.444h432.605
	V342.758z M505.319,229.363l21.539,27.675h-20.174v-12.31c0.369-2.19-0.228-4.521-1.837-6.293l-8.239-9.072H505.319z
	 M94.045,207.994h362.896l25.525,28.107h-14.801c-4.143,0-7.5,3.357-7.5,7.5s3.357,7.5,7.5,7.5h24.019v5.444H59.079v-5.444h366.308
	c4.143,0,7.5-3.357,7.5-7.5s-3.357-7.5-7.5-7.5H68.521L94.045,207.994z M44.38,229.363h9.998l-8.351,9.196
	c-0.038,0.042-0.07,0.088-0.107,0.13c-0.089,0.103-0.174,0.207-0.258,0.314c-0.071,0.091-0.141,0.183-0.207,0.277
	c-0.074,0.104-0.143,0.211-0.212,0.319c-0.064,0.102-0.128,0.204-0.187,0.308c-0.06,0.106-0.116,0.215-0.171,0.324
	c-0.055,0.11-0.11,0.22-0.16,0.332c-0.049,0.11-0.093,0.222-0.136,0.335c-0.044,0.115-0.088,0.23-0.127,0.347
	c-0.038,0.115-0.071,0.231-0.103,0.348c-0.033,0.119-0.065,0.238-0.092,0.359c-0.026,0.116-0.048,0.233-0.068,0.351
	c-0.022,0.127-0.043,0.253-0.058,0.381c-0.014,0.113-0.024,0.227-0.032,0.342c-0.01,0.136-0.018,0.272-0.021,0.408
	c-0.001,0.056-0.008,0.111-0.008,0.167v13.437H22.841L44.38,229.363z M535.752,321.329H15v-49.291h520.752V321.329z M37.995,316.595
	h33.72c4.143,0,7.5-3.357,7.5-7.5v-24.824c0-4.143-3.357-7.5-7.5-7.5h-33.72c-4.143,0-7.5,3.357-7.5,7.5v24.824
	C30.495,313.238,33.853,316.595,37.995,316.595z M45.495,291.771h18.72v9.824h-18.72V291.771z M93.126,316.595h33.719
	c4.143,0,7.5-3.357,7.5-7.5v-24.824c0-4.143-3.357-7.5-7.5-7.5H93.126c-4.143,0-7.5,3.357-7.5,7.5v24.824
	C85.626,313.238,88.983,316.595,93.126,316.595z M100.626,291.771h18.719v9.824h-18.719V291.771z M148.256,316.595h33.719
	c4.143,0,7.5-3.357,7.5-7.5v-24.824c0-4.143-3.357-7.5-7.5-7.5h-33.719c-4.143,0-7.5,3.357-7.5,7.5v24.824
	C140.756,313.238,144.113,316.595,148.256,316.595z M155.756,291.771h18.719v9.824h-18.719V291.771z M203.386,316.595h33.72
	c4.143,0,7.5-3.357,7.5-7.5v-24.824c0-4.143-3.357-7.5-7.5-7.5h-33.72c-4.143,0-7.5,3.357-7.5,7.5v24.824
	C195.886,313.238,199.243,316.595,203.386,316.595z M210.886,291.771h18.72v9.824h-18.72V291.771z M258.517,316.595h33.719
	c4.143,0,7.5-3.357,7.5-7.5v-24.824c0-4.143-3.357-7.5-7.5-7.5h-33.719c-4.143,0-7.5,3.357-7.5,7.5v24.824
	C251.017,313.238,254.374,316.595,258.517,316.595z M266.017,291.771h18.719v9.824h-18.719V291.771z M313.646,316.595h33.719
	c4.143,0,7.5-3.357,7.5-7.5v-24.824c0-4.143-3.357-7.5-7.5-7.5h-33.719c-4.143,0-7.5,3.357-7.5,7.5v24.824
	C306.146,313.238,309.504,316.595,313.646,316.595z M321.146,291.771h18.719v9.824h-18.719V291.771z M368.776,316.595h33.72
	c4.143,0,7.5-3.357,7.5-7.5v-24.824c0-4.143-3.357-7.5-7.5-7.5h-33.72c-4.143,0-7.5,3.357-7.5,7.5v24.824
	C361.276,313.238,364.634,316.595,368.776,316.595z M376.276,291.771h18.72v9.824h-18.72V291.771z M423.907,316.595h33.719
	c4.143,0,7.5-3.357,7.5-7.5v-24.824c0-4.143-3.357-7.5-7.5-7.5h-33.719c-4.143,0-7.5,3.357-7.5,7.5v24.824
	C416.407,313.238,419.765,316.595,423.907,316.595z M431.407,291.771h18.719v9.824h-18.719V291.771z M479.037,316.595h33.719
	c4.143,0,7.5-3.357,7.5-7.5v-24.824c0-4.143-3.357-7.5-7.5-7.5h-33.719c-4.143,0-7.5,3.357-7.5,7.5v24.824
	C471.537,313.238,474.895,316.595,479.037,316.595z M486.537,291.771h18.719v9.824h-18.719V291.771z"/>
<g>
</g>
<g>
</g>
<g>
</g>
<g>
</g>
<g>
</g>
<g>
</g>
<g>
</g>
<g>
</g>
<g>
</g>
<g>
</g>
<g>
</g>
<g>
</g>
<g>
</g>
<g>
</g>
<g>
</g>
</svg>
