<?xml version="1.0" encoding="iso-8859-1"?>
<!-- Generator: Adobe Illustrator 17.1.0, SVG Export Plug-In . SVG Version: 6.00 Build 0)  -->
<!DOCTYPE svg PUBLIC "-//W3C//DTD SVG 1.1//EN" "http://www.w3.org/Graphics/SVG/1.1/DTD/svg11.dtd">
<svg version="1.1" id="Capa_1" xmlns="http://www.w3.org/2000/svg" xmlns:xlink="http://www.w3.org/1999/xlink" x="0px" y="0px"
	 viewBox="0 0 549.93 549.93" style="enable-background:new 0 0 549.93 549.93;" xml:space="preserve">
<path d="M158.208,138.423c21.754,10.194,48.056,17.25,76.453,20.686c0.435,0.091,0.876,0.141,1.318,0.154
	c12.661,1.479,25.726,2.244,38.985,2.244c43.524,0,84.989-8.198,116.755-23.084c28.658-13.43,45.767-30.347,45.767-45.253
	c0-14.907-17.109-31.824-45.767-45.253c-12.929-6.059-27.465-11.009-43.092-14.75c-0.381-0.121-0.768-0.211-1.161-0.27
	c-22.46-5.273-47.129-8.064-72.502-8.064c-43.525,0-84.99,8.198-116.756,23.084c-28.657,13.429-45.766,30.346-45.766,45.253
	C112.442,108.077,129.551,124.994,158.208,138.423z M422.487,93.17c0,13.708-50.723,53.337-147.522,53.337
	c-7.691,0-15.089-0.252-22.196-0.719l57.186-57.342c2.925-2.933,2.918-7.682-0.015-10.606c-2.934-2.925-7.683-2.918-10.606,0.015
	l-65.881,66.06c-9.349-1.21-18.096-2.799-26.235-4.672l98.053-98.053c9.309,0.853,18.08,2.081,26.306,3.602l-14.68,15.164
	c-2.881,2.977-2.804,7.725,0.172,10.605c1.457,1.41,3.337,2.111,5.216,2.111c1.96,0,3.918-0.764,5.39-2.283l21.116-21.813
	C397.382,61.054,422.487,83.527,422.487,93.17z M274.965,39.833c3.493,0,6.919,0.058,10.292,0.158l-94.768,94.768
	c-41.6-12.812-63.047-32.676-63.047-41.588C127.442,79.462,178.166,39.833,274.965,39.833z M524.836,235.593h-13.917v-2.596
	c0-0.242-0.013-0.484-0.037-0.725c-0.01-0.106-0.029-0.209-0.044-0.314c-0.018-0.131-0.035-0.261-0.06-0.391
	c-0.024-0.126-0.057-0.249-0.087-0.373c-0.026-0.105-0.05-0.211-0.081-0.315c-0.038-0.129-0.083-0.255-0.127-0.382
	c-0.024-0.067-0.042-0.135-0.067-0.201l-9.88-25.599c-1.116-2.892-3.897-4.8-6.997-4.8h-25.455V93.17
	c0-25.978-20.855-49.91-58.723-67.388C373.336,9.157,325.607,0,274.965,0S176.593,9.157,140.57,25.783
	C102.701,43.26,81.846,67.192,81.846,93.17v106.727H56.391c-3.1,0-5.881,1.907-6.997,4.8l-9.88,25.599
	c-0.025,0.065-0.043,0.133-0.066,0.199c-0.045,0.127-0.09,0.255-0.129,0.385c-0.03,0.103-0.054,0.208-0.08,0.312
	c-0.031,0.125-0.063,0.248-0.088,0.375c-0.025,0.129-0.041,0.259-0.059,0.389c-0.015,0.105-0.034,0.209-0.044,0.316
	c-0.023,0.24-0.037,0.482-0.037,0.725v2.596H25.094c-4.142,0-7.5,3.358-7.5,7.5v30.058c0,4.142,3.358,7.5,7.5,7.5h13.917v113.755
	c0,2.051,0.84,4.013,2.325,5.428l43.165,41.151c-1.756,5.179-2.655,10.466-2.655,15.775c0,25.978,20.855,49.91,58.724,67.387
	c36.023,16.626,83.752,25.782,134.395,25.782s98.372-9.156,134.395-25.782c37.868-17.478,58.723-41.41,58.723-67.387
	c0-5.312-0.89-10.6-2.648-15.781l43.159-41.145c1.484-1.415,2.325-3.377,2.325-5.428V280.651h13.917c4.142,0,7.5-3.358,7.5-7.5
	v-30.058C532.336,238.951,528.978,235.593,524.836,235.593z M488.394,214.897l4.091,10.599h-24.401v-10.599H488.394z
	 M295.254,456.765c-0.003,11.185-9.103,20.284-20.289,20.284c-11.188,0-20.289-9.102-20.289-20.289s9.102-20.289,20.289-20.289
	c11.186,0,20.287,9.099,20.289,20.284c0,0.002,0,0.003,0,0.005S295.254,456.763,295.254,456.765z M96.846,362.767l36.942,36.942
	c1.406,1.407,3.314,2.197,5.303,2.197h271.746c1.989,0,3.897-0.79,5.303-2.197l36.942-36.942v14.868l-31.688,30.599H128.534
	l-31.688-30.599V362.767z M116.544,361.252c7.02,4.817,15.037,9.333,24.026,13.481c10.088,4.656,21.096,8.726,32.827,12.173h-31.198
	L116.544,361.252z M376.533,386.906c11.731-3.447,22.739-7.517,32.827-12.173c8.988-4.148,17.005-8.665,24.025-13.481
	l-25.654,25.654H376.533z M274.965,15c96.55,0,178.118,35.797,178.118,78.17c0,42.372-81.568,78.17-178.118,78.17
	c-96.55,0-178.119-35.798-178.119-78.17C96.846,50.797,178.415,15,274.965,15z M140.57,160.558
	c36.023,16.626,83.752,25.782,134.395,25.782s98.372-9.156,134.395-25.782c19.039-8.787,33.773-19.208,43.723-30.698v77.537v42.835
	c0,18.046-14.894,32.248-27.388,40.985c-3.395,2.374-4.222,7.05-1.849,10.444c1.459,2.086,3.787,3.203,6.153,3.203
	c1.484,0,2.983-0.439,4.292-1.354c7.473-5.225,13.75-10.791,18.792-16.617v20.452c0,42.373-81.568,78.17-178.118,78.17
	c-96.55,0-178.119-35.798-178.119-78.17v-20.424c9.95,11.49,24.684,21.91,43.724,30.698c36.023,16.626,83.752,25.782,134.395,25.782
	c37.433,0,73.677-5.049,104.813-14.6c3.96-1.215,6.185-5.41,4.971-9.37c-1.215-3.96-5.406-6.187-9.37-4.971
	c-29.729,9.12-64.453,13.94-100.414,13.94c-96.55,0-178.119-35.797-178.119-78.17v-42.835V129.86
	C106.796,141.35,121.53,151.77,140.57,160.558z M81.846,214.897v10.599H57.445l4.091-10.599H81.846z M32.594,265.651v-15.058h6.417
	v15.058H32.594z M54.011,273.151v-30.058v-2.596h27.835v66.849v73.473c0,2.035,0.827,3.982,2.29,5.395l36.158,34.916
	c1.398,1.35,3.266,2.105,5.21,2.105h138.466c-11.768,3.869-20.819,13.767-23.484,26.026H114.919l-60.908-58.066V273.151z
	 M453.083,456.76c0,42.373-81.568,78.17-178.118,78.17c-96.55,0-178.119-35.797-178.119-78.17c0-1.262,0.079-2.526,0.227-3.789
	l9.669,9.218c1.395,1.33,3.248,2.072,5.175,2.072h128.569c3.449,15.867,17.594,27.789,34.479,27.789s31.031-11.923,34.479-27.789
	h128.568c1.927,0,3.78-0.742,5.175-2.072l9.671-9.219C453.006,454.233,453.083,455.497,453.083,456.76z M435.01,449.26H309.444
	c-2.665-12.259-11.716-22.157-23.484-26.026h138.465c1.944,0,3.812-0.755,5.21-2.105l36.158-34.916
	c1.463-1.413,2.29-3.36,2.29-5.395v-73.473v-66.849h27.835v2.587c0,0.003,0,0.006,0,0.01v30.058c0,0.003,0,0.006,0,0.01v118.033
	L435.01,449.26z M517.336,265.651h-6.417v-15.058h6.417V265.651z"/>
<g>
</g>
<g>
</g>
<g>
</g>
<g>
</g>
<g>
</g>
<g>
</g>
<g>
</g>
<g>
</g>
<g>
</g>
<g>
</g>
<g>
</g>
<g>
</g>
<g>
</g>
<g>
</g>
<g>
</g>
</svg>
