<?xml version="1.0" encoding="iso-8859-1"?>
<!-- Generator: Adobe Illustrator 17.1.0, SVG Export Plug-In . SVG Version: 6.00 Build 0)  -->
<!DOCTYPE svg PUBLIC "-//W3C//DTD SVG 1.1//EN" "http://www.w3.org/Graphics/SVG/1.1/DTD/svg11.dtd">
<svg version="1.1" id="Capa_1" xmlns="http://www.w3.org/2000/svg" xmlns:xlink="http://www.w3.org/1999/xlink" x="0px" y="0px"
	 viewBox="0 0 551.093 551.093" style="enable-background:new 0 0 551.093 551.093;" xml:space="preserve">
<path d="M399.32,225.464c-64.719,0-117.371,52.652-117.371,117.371s52.652,117.371,117.371,117.371
	c64.718,0,117.371-52.652,117.371-117.371S464.038,225.464,399.32,225.464z M399.32,445.206
	c-56.448,0-102.371-45.923-102.371-102.371s45.923-102.371,102.371-102.371c56.447,0,102.371,45.923,102.371,102.371
	S455.767,445.206,399.32,445.206z M477.111,383.342c6.339-12.125,9.931-25.904,9.931-40.507c0-48.371-39.352-87.723-87.722-87.723
	c-14.604,0-28.383,3.592-40.508,9.931c-0.376,0.161-0.741,0.352-1.092,0.577c-12.532,6.779-23.238,16.519-31.171,28.278
	c-0.124,0.108-0.249,0.214-0.367,0.332c-0.924,0.924-1.555,2.029-1.896,3.201c-8.05,13.253-12.689,28.797-12.689,45.404
	c0,48.371,39.352,87.723,87.723,87.723c17.069,0,33.012-4.906,46.502-13.374c0.441-0.223,0.865-0.492,1.264-0.807
	c12.282-8.005,22.447-18.998,29.449-31.944C476.759,384.082,476.951,383.717,477.111,383.342z M333.437,312.091l96.627,96.627
	c-9.345,4.379-19.76,6.84-30.744,6.84c-40.1,0-72.723-32.623-72.723-72.723C326.597,331.851,329.058,321.436,333.437,312.091z
	 M443.277,400.718L341.436,298.877c5.27-6.923,11.754-12.868,19.128-17.532l71.011,71.011c1.464,1.464,3.384,2.197,5.303,2.197
	s3.839-0.732,5.303-2.197c2.929-2.929,2.929-7.678,0-10.606l-67.375-67.375c7.664-2.752,15.914-4.262,24.514-4.262
	c40.099,0,72.722,32.623,72.722,72.723c0,8.599-1.51,16.85-4.262,24.513l-4.777-4.777c-2.929-2.929-7.678-2.929-10.606,0
	c-2.929,2.929-2.929,7.678,0,10.606l8.413,8.413C456.145,388.965,450.2,395.448,443.277,400.718z M543.593,191.062H376.501V63.985
	c0-4.142-3.358-7.5-7.5-7.5H178.523h-44.102c-1.989,0-3.897,0.79-5.304,2.197c-1.406,1.407-2.196,3.315-2.196,5.304l0.015,155.971
	c-10.807,3.413-20.975,9.913-29.96,19.055c-1.126,0.334-2.25,0.662-3.382,1.015c-38.024,11.856-64.906,29.832-79.828,53.012
	c-0.004,0.007-0.01,0.013-0.014,0.02c-0.001,0.002-0.002,0.004-0.003,0.006C4.653,307.206,0,323.281,0,341.093
	c0,49.12,33.623,83.876,97.234,100.636c13.82,13.998,30.24,21.523,47.57,21.523h38.129c15.497,0,30.506-6.154,43.587-17.818h21.026
	v41.674c0,4.142,3.358,7.5,7.5,7.5h288.547c4.142,0,7.5-3.358,7.5-7.5V198.562C551.093,194.419,547.735,191.062,543.593,191.062z
	 M106.938,430.182c-0.16-0.189-0.33-0.371-0.509-0.544c-0.157-0.167-0.314-0.333-0.47-0.502c0.236,0.022,0.474,0.036,0.716,0.036
	h6.499c3.816,0,6.959-2.852,7.432-6.539c0.704,1.149,1.409,2.296,2.145,3.411c5.881,8.91,12.526,16.334,19.732,22.147
	C129.74,447.513,117.503,441.26,106.938,430.182z M21.564,309.816c3.809,6.792,6.809,17.843,6.809,31.277
	c0,13.622-3.053,24.741-6.92,31.498C17.17,363.077,15,352.579,15,341.093C15,329.783,17.196,319.352,21.564,309.816z
	 M43.373,341.093c0-19.058-5.079-35.772-13.352-45.237c10.978-14.333,27.958-26.158,50.862-35.396
	c-12.79,22.165-19.835,50.47-19.835,79.756c0,30.088,7.267,58.581,20.541,80.959c-23.405-8.557-40.696-20.114-51.779-34.599
	C38.214,377.166,43.373,360.367,43.373,341.093z M107.116,249.969c6.002-6.219,12.671-11.012,19.823-14.052l0.001,12.555
	c-2.263,2.981-4.401,6.126-6.41,9.418c-0.682-3.44-3.714-6.035-7.355-6.035h-6.499c-0.495,0-0.978,0.051-1.447,0.143
	c0.15-0.167,0.299-0.337,0.45-0.503C106.232,251.054,106.712,250.539,107.116,249.969z M106.676,414.172
	c-3.851,0-7.02,2.904-7.447,6.64c-0.706-0.987-1.403-1.995-2.087-3.031c-5.156-7.811-9.429-16.622-12.753-26.15
	c1.153,0.724,2.513,1.148,3.975,1.148h9.575c3.647,0,6.684-2.605,7.358-6.055c2.754,9.996,6.426,19.425,10.915,28.094
	c-0.929-0.412-1.955-0.646-3.036-0.646H106.676z M99.186,259.551c0.105,4.051,3.414,7.305,7.49,7.305h6.499
	c0.927,0,1.811-0.176,2.631-0.484c-4.436,8.728-8.052,18.268-10.764,28.369c-0.999-2.968-3.799-5.107-7.103-5.107h-9.575
	c-1.846,0-3.534,0.67-4.841,1.777C87.442,279.34,92.77,268.53,99.186,259.551z M330.321,191.062h-16.18v-84.157h16.18V191.062z
	 M299.142,191.062h-44.096c-4.142,0-7.5,3.358-7.5,7.5v28.044h-33.01l-0.013-119.701h84.619V191.062z M88.364,377.779
	c-3.076,0-5.717,1.854-6.874,4.504c-3.292-12.109-5.119-25.158-5.388-38.638c1.224,2.479,3.77,4.188,6.721,4.188h9.575
	c3.04,0,5.652-1.813,6.83-4.413c0.22,12.798,1.741,25.279,4.496,37.085c-1.376-1.665-3.456-2.726-5.785-2.726H88.364z
	 M81.195,299.343c0.943,3.064,3.795,5.291,7.168,5.291h9.575c2.034,0,3.875-0.813,5.227-2.127
	c-2.41,11.102-3.766,22.768-3.961,34.689c-1.188-2.573-3.785-4.363-6.806-4.363h-9.575c-2.969,0-5.528,1.73-6.743,4.233
	C76.326,323.814,78.116,311.084,81.195,299.343z M262.546,206.062h273.547v273.547H262.546V206.062z M345.321,191.062V99.404
	c0-4.142-3.358-7.5-7.5-7.5H207.022h0h0c-0.104,0-0.206,0.011-0.31,0.016c-0.153,0.006-0.307,0.008-0.457,0.023
	c-0.946,0.096-1.836,0.374-2.645,0.788c-0.054,0.028-0.11,0.05-0.163,0.079c-0.096,0.052-0.185,0.113-0.278,0.169
	c-0.114,0.068-0.231,0.133-0.34,0.207c-0.082,0.056-0.159,0.12-0.239,0.178c-0.114,0.084-0.23,0.164-0.339,0.253
	c-0.088,0.073-0.169,0.154-0.253,0.23c-0.093,0.084-0.19,0.165-0.279,0.254c-0.089,0.089-0.17,0.187-0.254,0.28
	c-0.076,0.084-0.157,0.165-0.23,0.253c-0.057,0.069-0.107,0.145-0.162,0.216c-0.092,0.119-0.186,0.237-0.27,0.362
	c-0.009,0.013-0.015,0.027-0.024,0.039c-0.125,0.188-0.244,0.38-0.352,0.579c-0.03,0.055-0.053,0.113-0.081,0.168
	c-0.082,0.16-0.164,0.32-0.234,0.487c-0.061,0.144-0.11,0.294-0.162,0.442c-0.029,0.083-0.064,0.163-0.09,0.247
	c-0.042,0.135-0.071,0.274-0.106,0.411c-0.026,0.103-0.058,0.203-0.079,0.308c-0.016,0.081-0.024,0.164-0.038,0.246
	c-0.028,0.166-0.059,0.33-0.076,0.499c-0.005,0.049-0.003,0.099-0.007,0.148c-0.017,0.204-0.031,0.409-0.031,0.618v0c0,0,0,0,0,0
	l0.023,216.764c0,3.827-1.489,7.424-4.195,10.13c-2.706,2.706-6.303,4.196-10.13,4.196h-3.056c2.436-4.292,3.836-9.246,3.837-14.523
	l0.023-158.78c0-4.142-3.357-7.5-7.499-7.501c0,0,0,0,0,0c-4.142,0-7.5,3.357-7.5,7.499L171,315.971
	c-0.001,8.009-6.518,14.525-14.527,14.525s-14.526-6.516-14.527-14.525l-0.023-244.486h29.101v23.68c0,4.142,3.358,7.5,7.5,7.5
	s7.5-3.358,7.5-7.5v-23.68h175.478v119.577H345.321z M182.933,448.252c-5.276,0-10.477-0.962-15.523-2.818h30.935
	C193.305,447.29,188.137,448.252,182.933,448.252z M145.312,430.434c-3.548-3.686-6.911-7.91-10.042-12.653
	c-13.603-20.61-21.095-48.157-21.095-77.565c0-22.704,4.523-44.385,12.766-62.461l0.004,38.217
	c0.002,16.279,13.248,29.524,29.527,29.524h28.747c7.834,0,15.199-3.051,20.738-8.59s8.589-12.904,8.588-20.738l-0.008-74.562
	h33.009v188.829H145.312z"/>
<g>
</g>
<g>
</g>
<g>
</g>
<g>
</g>
<g>
</g>
<g>
</g>
<g>
</g>
<g>
</g>
<g>
</g>
<g>
</g>
<g>
</g>
<g>
</g>
<g>
</g>
<g>
</g>
<g>
</g>
</svg>
