<?xml version="1.0" encoding="iso-8859-1"?>
<!-- Generator: Adobe Illustrator 17.1.0, SVG Export Plug-In . SVG Version: 6.00 Build 0)  -->
<!DOCTYPE svg PUBLIC "-//W3C//DTD SVG 1.1//EN" "http://www.w3.org/Graphics/SVG/1.1/DTD/svg11.dtd">
<svg version="1.1" id="Capa_1" xmlns="http://www.w3.org/2000/svg" xmlns:xlink="http://www.w3.org/1999/xlink" x="0px" y="0px"
	 viewBox="0 0 547.892 547.892" style="enable-background:new 0 0 547.892 547.892;" xml:space="preserve">
<path d="M487.103,359.269c5.744-11.069,9.01-23.622,9.01-36.93c0-44.374-36.101-80.475-80.475-80.475
	c-13.307,0-25.859,3.266-36.927,9.009c-0.439,0.174-0.864,0.392-1.271,0.652c-11.458,6.205-21.25,15.107-28.516,25.853
	c-0.099,0.089-0.201,0.172-0.296,0.268c-0.904,0.904-1.527,1.982-1.873,3.126c-7.353,12.14-11.592,26.367-11.592,41.567
	c0,44.374,36.101,80.475,80.475,80.475c15.612,0,30.19-4.483,42.542-12.209c0.508-0.25,0.994-0.556,1.446-0.928
	c11.18-7.328,20.442-17.348,26.832-29.15C486.714,360.124,486.931,359.704,487.103,359.269z M355.921,295.545l86.512,86.512
	c-8.185,3.687-17.25,5.757-26.794,5.757c-36.103,0-65.475-29.372-65.475-65.475C350.164,312.794,352.234,303.73,355.921,295.545z
	 M455.679,374.088l-91.79-91.79c4.569-5.891,10.117-10.98,16.401-15.029l64.21,64.209c1.465,1.464,3.385,2.197,5.304,2.197
	s3.839-0.732,5.304-2.197c2.929-2.929,2.929-7.678,0-10.606l-60.518-60.517c6.611-2.251,13.686-3.491,21.049-3.491
	c36.103,0,65.475,29.372,65.475,65.475c0,7.363-1.24,14.438-3.491,21.05l-3.576-3.576c-2.928-2.93-7.677-2.929-10.606,0
	c-2.929,2.929-2.929,7.678,0.001,10.606l7.268,7.268C466.66,363.971,461.571,369.52,455.679,374.088z M540.392,256.518h-42.862
	c-4.348-5.399-9.216-10.36-14.53-14.808v-42.585c0-4.142-3.357-7.5-7.5-7.5H355.777c-4.143,0-7.5,3.358-7.5,7.5v31.098h-32.044
	l-23.049-12.088c-0.01-0.005-0.019-0.01-0.029-0.015l-0.073-0.038c-0.051-0.026-0.103-0.046-0.154-0.071
	c-0.163-0.081-0.328-0.16-0.497-0.229c-0.082-0.034-0.166-0.06-0.248-0.091c-0.146-0.054-0.292-0.108-0.443-0.152
	c-0.113-0.034-0.226-0.059-0.339-0.087c-0.07-0.017-0.138-0.038-0.209-0.054V99.259c0-4.142-3.357-7.5-7.5-7.5H132.271h-35.06
	c-1.989,0-3.897,0.791-5.304,2.197c-1.406,1.407-2.196,3.314-2.196,5.304l0.011,117.963h-10.81
	c-21.463,0-41.511,10.744-56.451,30.253C7.978,266.391,0,291.428,0,317.976s7.978,51.585,22.462,70.5
	c14.939,19.509,34.988,30.253,56.451,30.253h8.256l21.229,33.679c1.373,2.179,3.769,3.501,6.345,3.501h125.284
	c2.508,0,4.85-1.253,6.24-3.34l22.56-33.84h20.75c0.009,0,0.017,0.002,0.026,0.002c0.244,0,0.489-0.015,0.735-0.039
	c0.064-0.006,0.127-0.018,0.191-0.026c0.167-0.021,0.333-0.044,0.5-0.076c0.114-0.022,0.225-0.051,0.336-0.078
	c0.112-0.027,0.225-0.054,0.336-0.087c0.135-0.039,0.267-0.085,0.399-0.132c0.059-0.021,0.119-0.036,0.178-0.059l23.493-8.981
	h32.507v39.379c0,4.142,3.357,7.5,7.5,7.5h119.722c4.143,0,7.5-3.358,7.5-7.5v-45.664c4.289-3.589,8.291-7.51,11.959-11.728h45.433
	c4.143,0,7.5-3.358,7.5-7.5V264.018C547.892,259.875,544.534,256.518,540.392,256.518z M363.277,441.132V413.46
	c15.426,8.899,33.31,13.994,52.361,13.994c19.052,0,36.935-5.095,52.36-13.994v27.672H363.277z M288.341,403.681
	c-13.5-0.496-26.353-8.929-36.312-23.916c-10.896-16.397-16.896-38.34-16.896-61.789c0-4.142-3.357-7.5-7.5-7.5s-7.5,3.358-7.5,7.5
	c0,26.369,6.891,51.261,19.403,70.091c4.041,6.082,8.523,11.32,13.347,15.662h-12.857c-4.143,0-7.5,3.358-7.5,7.5s3.357,7.5,7.5,7.5
	h10.773l-14.786,22.18H118.88l-13.98-22.18h97.947c4.143,0,7.5-3.358,7.5-7.5s-3.357-7.5-7.5-7.5H78.913
	C43.671,403.729,15,365.26,15,317.976s28.671-85.752,63.913-85.752h10.812l0.002,24.02c-11.677,11.032-18.314,26.318-18.314,42.489
	c0,32.24,26.229,58.469,58.47,58.469s58.469-26.229,58.469-58.469c0-4.142-3.357-7.5-7.5-7.5s-7.5,3.358-7.5,7.5
	c0,23.969-19.5,43.469-43.469,43.469c-23.97,0-43.47-19.5-43.47-43.469c0-5.798,1.155-11.44,3.317-16.652l0.002,17.5
	c0.001,13.79,11.221,25.008,25.011,25.008h22.853c6.639,0,12.879-2.585,17.573-7.28c4.693-4.694,7.278-10.935,7.277-17.574
	l-0.003-29.793c0.551,0.623,1.091,1.259,1.609,1.916c1.48,1.878,3.678,2.859,5.896,2.859c1.625,0,3.262-0.526,4.637-1.609
	c3.254-2.563,3.813-7.279,1.25-10.533c-3.818-4.845-8.317-8.992-13.394-12.397l-0.002-17.954h90.468
	c-4.272,3.837-8.276,8.374-11.938,13.57c-2.387,3.386-1.576,8.065,1.809,10.451c1.313,0.926,2.821,1.37,4.314,1.37
	c2.356,0,4.677-1.107,6.137-3.18c9.66-13.705,21.904-21.499,34.646-22.148l23.029,12.078c1.074,0.563,2.27,0.858,3.483,0.858h29.904
	c-3.782,3.502-7.306,7.277-10.542,11.295h-42.863c-4.143,0-7.5,3.358-7.5,7.5V383.74c0,4.142,3.357,7.5,7.5,7.5h45.434
	c0.89,1.023,1.802,2.026,2.73,3.014h-24.663c-0.915,0-1.823,0.167-2.678,0.495L288.341,403.681z M132.271,131.546
	c4.143,0,7.5-3.358,7.5-7.5v-17.287h136.422v110.464h-9.786v-89.807c0-4.142-3.357-7.5-7.5-7.5h-103.98h0c0,0,0,0,0,0
	c-0.097,0-0.191,0.011-0.288,0.015c-0.417,0.016-0.827,0.057-1.223,0.138c-0.062,0.013-0.121,0.033-0.182,0.047
	c-3.325,0.769-5.806,3.742-5.806,7.301v0c0,0,0,0,0,0l0.01,96.674c-0.018,0.209-0.032,0.419-0.032,0.632
	c0,0.214,0.014,0.425,0.032,0.635l0.008,74.378c0,2.631-1.024,5.105-2.885,6.966c-1.845,1.846-4.296,2.866-6.903,2.883
	c1.344-3.066,2.095-6.448,2.096-10.004l0.019-126.225c0.001-4.142-3.356-7.5-7.499-7.501c0,0,0,0-0.001,0
	c-4.142,0-7.499,3.357-7.5,7.499l-0.019,126.225c-0.001,5.519-4.491,10.009-10.011,10.009s-10.01-4.491-10.011-10.01l-0.019-192.819
	h20.059v17.287C124.771,128.188,128.129,131.546,132.271,131.546z M162.427,134.917h64.193v82.307h-64.184L162.427,134.917z
	 M241.62,134.917h9.787v82.307h-9.787V134.917z M467.999,231.217c-15.426-8.898-33.309-13.994-52.36-13.994
	c-19.052,0-36.936,5.096-52.361,13.994v-24.593h104.722V231.217z M323.653,271.518c-8.361,15.072-13.13,32.399-13.13,50.821
	c0,19.69,5.447,38.13,14.906,53.901h-27.043V271.518H323.653z M415.639,412.455c-49.69,0-90.116-40.426-90.116-90.116
	c0-19.537,6.252-37.639,16.856-52.417c1.039-0.813,1.856-1.891,2.351-3.136c3.911-4.98,8.337-9.537,13.192-13.597
	c1.834-0.547,3.369-1.777,4.319-3.394c14.955-11.037,33.426-17.571,53.397-17.571c19.971,0,38.442,6.534,53.396,17.571
	c0.951,1.617,2.485,2.848,4.32,3.395c4.855,4.059,9.281,8.616,13.192,13.597c0.495,1.245,1.313,2.323,2.351,3.136
	c10.604,14.778,16.856,32.881,16.856,52.417C505.754,372.029,465.328,412.455,415.639,412.455z M507.624,271.518h25.268V376.24
	h-27.043c9.459-15.771,14.906-34.211,14.906-53.901C520.754,303.917,515.984,286.589,507.624,271.518z"/>
<g>
</g>
<g>
</g>
<g>
</g>
<g>
</g>
<g>
</g>
<g>
</g>
<g>
</g>
<g>
</g>
<g>
</g>
<g>
</g>
<g>
</g>
<g>
</g>
<g>
</g>
<g>
</g>
<g>
</g>
</svg>
