<?xml version="1.0" encoding="iso-8859-1"?>
<!-- Generator: Adobe Illustrator 17.1.0, SVG Export Plug-In . SVG Version: 6.00 Build 0)  -->
<!DOCTYPE svg PUBLIC "-//W3C//DTD SVG 1.1//EN" "http://www.w3.org/Graphics/SVG/1.1/DTD/svg11.dtd">
<svg version="1.1" id="Capa_1" xmlns="http://www.w3.org/2000/svg" xmlns:xlink="http://www.w3.org/1999/xlink" x="0px" y="0px"
	 viewBox="0 0 550.752 550.752" style="enable-background:new 0 0 550.752 550.752;" xml:space="preserve">
<path d="M148.997,106.219c-5.302-13.774-16.411-24.685-30.322-29.706c-0.23-0.091-0.464-0.17-0.701-0.238
	c-5.194-1.789-10.76-2.775-16.554-2.775c-28.104,0-50.968,22.864-50.968,50.967s22.864,50.968,50.968,50.968
	s50.968-22.864,50.968-50.968c0-6.209-1.12-12.16-3.161-17.668C149.158,106.604,149.083,106.411,148.997,106.219z M118.478,143.553
	c2.929-2.929,2.929-7.678,0-10.606c-2.93-2.929-7.678-2.929-10.607,0L84.58,156.237c-6.549-3.486-11.895-8.938-15.254-15.563
	l48.3-48.3c6.625,3.359,12.077,8.704,15.563,15.254l-8.094,8.094c-2.929,2.929-2.929,7.678,0.001,10.606
	c1.464,1.465,3.384,2.197,5.303,2.197s3.839-0.732,5.304-2.197l1.681-1.681c-0.097,19.69-16.094,35.687-35.784,35.784
	L118.478,143.553z M65.482,123.304c0.605-18.907,15.866-34.168,34.774-34.774L65.482,123.304z M264.91,106.219
	c-5.302-13.774-16.411-24.685-30.322-29.706c-0.23-0.091-0.464-0.17-0.701-0.238c-5.194-1.789-10.76-2.775-16.554-2.775
	c-28.104,0-50.968,22.864-50.968,50.967s22.864,50.968,50.968,50.968s50.968-22.864,50.968-50.968c0-6.209-1.12-12.16-3.162-17.668
	C265.072,106.604,264.996,106.411,264.91,106.219z M234.391,143.553c2.929-2.929,2.929-7.678-0.001-10.606
	c-2.928-2.93-7.677-2.929-10.606,0l-23.29,23.291c-6.55-3.486-11.895-8.938-15.254-15.563l48.3-48.3
	c6.625,3.359,12.077,8.704,15.563,15.254l-8.094,8.094c-2.929,2.929-2.929,7.678,0.001,10.606c1.464,1.465,3.384,2.197,5.303,2.197
	s3.839-0.732,5.304-2.197l1.681-1.681c-0.097,19.69-16.094,35.687-35.784,35.784L234.391,143.553z M181.396,123.304
	c0.605-18.907,15.866-34.168,34.774-34.774L181.396,123.304z M380.816,106.2c-5.305-13.765-16.41-24.669-30.314-29.687
	c-0.23-0.091-0.464-0.17-0.701-0.238c-5.194-1.789-10.76-2.775-16.554-2.775c-28.104,0-50.967,22.864-50.967,50.967
	s22.863,50.968,50.967,50.968s50.968-22.864,50.968-50.968c0-6.198-1.115-12.141-3.151-17.64
	C380.991,106.616,380.908,106.407,380.816,106.2z M350.305,143.553c2.929-2.929,2.929-7.678,0-10.606
	c-2.93-2.929-7.678-2.929-10.607,0l-23.291,23.291c-6.549-3.486-11.895-8.938-15.254-15.564l48.3-48.299
	c6.626,3.359,12.078,8.705,15.564,15.255l-8.094,8.093c-2.93,2.929-2.93,7.677-0.001,10.606c1.465,1.465,3.384,2.197,5.304,2.197
	c1.919,0,3.839-0.732,5.303-2.197l1.682-1.682c-0.097,19.69-16.093,35.687-35.783,35.785L350.305,143.553z M297.31,123.303
	c0.606-18.907,15.866-34.167,34.773-34.773L297.31,123.303z M465.714,76.276c-5.194-1.789-10.759-2.775-16.553-2.775
	c-28.104,0-50.968,22.864-50.968,50.967s22.864,50.968,50.968,50.968s50.967-22.864,50.967-50.968c0-6.2-1.116-12.143-3.152-17.643
	c-0.073-0.211-0.154-0.418-0.246-0.623c-5.304-13.765-16.408-24.669-30.311-29.688C466.188,76.423,465.952,76.344,465.714,76.276z
	 M472.836,115.722c-2.93,2.929-2.93,7.677-0.001,10.606c1.465,1.465,3.384,2.197,5.304,2.197c1.919,0,3.839-0.732,5.303-2.197
	l1.682-1.682c-0.097,19.69-16.094,35.688-35.784,35.785l16.879-16.879c2.929-2.929,2.929-7.678,0-10.606
	c-2.93-2.929-7.678-2.929-10.607,0l-23.291,23.291c-6.549-3.486-11.895-8.938-15.254-15.563l48.3-48.3
	c6.625,3.359,12.077,8.705,15.563,15.254L472.836,115.722z M413.223,123.304c0.605-18.907,15.866-34.168,34.774-34.774
	L413.223,123.304z M148.997,221.425c-5.307-13.788-16.433-24.706-30.362-29.72c-0.216-0.084-0.435-0.159-0.656-0.223
	c-5.196-1.79-10.762-2.776-16.558-2.776c-28.104,0-50.968,22.864-50.968,50.968s22.864,50.967,50.968,50.967
	s50.968-22.864,50.968-50.967c0-6.209-1.12-12.161-3.162-17.668C149.158,221.81,149.083,221.616,148.997,221.425z M118.478,258.758
	c2.929-2.929,2.929-7.678,0-10.606s-7.677-2.93-10.607,0l-23.291,23.29c-6.549-3.486-11.894-8.937-15.254-15.562l48.3-48.3
	c6.625,3.359,12.077,8.704,15.563,15.254l-8.094,8.094c-2.929,2.929-2.929,7.678,0.001,10.606c1.464,1.465,3.384,2.197,5.303,2.197
	s3.839-0.732,5.304-2.197l1.681-1.681c-0.097,19.69-16.094,35.687-35.784,35.784L118.478,258.758z M65.482,238.51
	c0.605-18.908,15.866-34.169,34.774-34.774L65.482,238.51z M264.91,221.425c-5.307-13.788-16.433-24.706-30.362-29.72
	c-0.216-0.084-0.435-0.159-0.656-0.223c-5.196-1.79-10.762-2.776-16.558-2.776c-28.104,0-50.968,22.864-50.968,50.968
	s22.864,50.967,50.968,50.967s50.968-22.864,50.968-50.967c0-6.209-1.12-12.161-3.162-17.668
	C265.072,221.81,264.996,221.616,264.91,221.425z M234.391,258.758c2.929-2.929,2.929-7.678,0-10.606
	c-2.93-2.929-7.678-2.929-10.607,0l-23.29,23.291c-6.55-3.486-11.895-8.937-15.254-15.563l48.3-48.3
	c6.625,3.359,12.077,8.704,15.563,15.254l-8.094,8.094c-2.929,2.929-2.929,7.678,0.001,10.606c1.464,1.465,3.384,2.197,5.303,2.197
	s3.839-0.732,5.304-2.197l1.681-1.681c-0.097,19.69-16.093,35.686-35.783,35.783L234.391,258.758z M181.396,238.51
	c0.605-18.908,15.866-34.169,34.774-34.774L181.396,238.51z M380.816,221.406c-5.31-13.779-16.432-24.689-30.354-29.701
	c-0.216-0.084-0.435-0.159-0.656-0.223c-5.196-1.79-10.762-2.776-16.558-2.776c-28.104,0-50.967,22.864-50.967,50.968
	s22.863,50.967,50.967,50.967s50.968-22.864,50.968-50.967c0-6.199-1.115-12.141-3.151-17.641
	C380.991,221.821,380.908,221.612,380.816,221.406z M350.305,258.758c2.929-2.929,2.929-7.678,0-10.606s-7.677-2.93-10.607,0
	l-23.291,23.291c-6.549-3.486-11.895-8.938-15.254-15.563l48.3-48.3c6.626,3.359,12.078,8.705,15.563,15.255l-8.094,8.093
	c-2.93,2.929-2.93,7.677-0.001,10.606c1.465,1.465,3.384,2.197,5.304,2.197c1.919,0,3.839-0.732,5.303-2.197l1.682-1.682
	c-0.097,19.69-16.093,35.687-35.783,35.784L350.305,258.758z M297.31,238.509c0.606-18.907,15.867-34.168,34.773-34.773
	L297.31,238.509z M496.73,221.408c-5.309-13.779-16.429-24.689-30.351-29.702c-0.218-0.085-0.438-0.16-0.66-0.224
	c-5.196-1.79-10.762-2.776-16.558-2.776c-28.104,0-50.968,22.864-50.968,50.968s22.864,50.967,50.968,50.967
	s50.967-22.864,50.967-50.967c0-6.2-1.116-12.143-3.152-17.643C496.904,221.82,496.822,221.613,496.73,221.408z M466.219,258.758
	c2.929-2.929,2.929-7.678,0-10.606s-7.677-2.93-10.607,0l-23.291,23.29c-6.549-3.486-11.894-8.937-15.253-15.562l48.3-48.3
	c6.625,3.359,12.077,8.705,15.563,15.255l-8.094,8.093c-2.93,2.929-2.93,7.677-0.001,10.606c1.465,1.465,3.384,2.197,5.304,2.197
	c1.919,0,3.839-0.732,5.303-2.197l1.682-1.682c-0.097,19.69-16.094,35.687-35.783,35.784L466.219,258.758z M413.223,238.51
	c0.605-18.908,15.866-34.169,34.774-34.774L413.223,238.51z M148.997,336.63c-5.302-13.774-16.411-24.685-30.322-29.706
	c-0.23-0.091-0.464-0.17-0.701-0.238c-5.194-1.789-10.76-2.775-16.554-2.775c-28.104,0-50.968,22.864-50.968,50.967
	s22.864,50.968,50.968,50.968s50.968-22.864,50.968-50.968c0-6.209-1.12-12.16-3.161-17.668
	C149.158,337.015,149.083,336.821,148.997,336.63z M118.478,373.963c2.929-2.929,2.929-7.678,0-10.606
	c-2.93-2.929-7.678-2.929-10.607,0L84.58,386.648c-6.549-3.486-11.895-8.938-15.254-15.563l48.3-48.3
	c6.625,3.359,12.077,8.704,15.563,15.254l-8.094,8.094c-2.929,2.929-2.929,7.678,0.001,10.606c1.464,1.465,3.384,2.197,5.303,2.197
	s3.839-0.732,5.304-2.197l1.681-1.681c-0.097,19.69-16.094,35.687-35.784,35.784L118.478,373.963z M65.482,353.715
	c0.605-18.907,15.866-34.168,34.774-34.774L65.482,353.715z M264.91,336.63c-5.302-13.774-16.411-24.685-30.322-29.706
	c-0.23-0.091-0.464-0.17-0.701-0.238c-5.194-1.789-10.76-2.775-16.554-2.775c-28.104,0-50.968,22.864-50.968,50.967
	s22.864,50.968,50.968,50.968s50.968-22.864,50.968-50.968c0-6.209-1.12-12.16-3.162-17.668
	C265.072,337.015,264.996,336.821,264.91,336.63z M234.391,373.963c2.929-2.929,2.929-7.678-0.001-10.606
	c-2.928-2.93-7.677-2.929-10.606,0l-23.29,23.291c-6.55-3.486-11.895-8.938-15.254-15.563l48.3-48.3
	c6.625,3.359,12.077,8.704,15.563,15.254l-8.094,8.094c-2.929,2.929-2.929,7.678,0.001,10.606c1.464,1.465,3.384,2.197,5.303,2.197
	s3.839-0.732,5.304-2.197l1.681-1.681c-0.097,19.69-16.094,35.687-35.784,35.784L234.391,373.963z M181.396,353.715
	c0.605-18.907,15.866-34.168,34.774-34.774L181.396,353.715z M380.816,336.611c-5.305-13.765-16.41-24.669-30.314-29.687
	c-0.23-0.091-0.464-0.17-0.701-0.238c-5.194-1.789-10.76-2.775-16.554-2.775c-28.104,0-50.967,22.864-50.967,50.967
	s22.863,50.968,50.967,50.968s50.968-22.864,50.968-50.968c0-6.198-1.115-12.141-3.151-17.64
	C380.991,337.026,380.908,336.817,380.816,336.611z M350.305,373.963c2.929-2.929,2.929-7.678,0-10.606
	c-2.93-2.929-7.678-2.929-10.607,0l-23.291,23.291c-6.549-3.486-11.895-8.938-15.254-15.564l48.3-48.299
	c6.626,3.359,12.078,8.705,15.564,15.255l-8.094,8.093c-2.93,2.929-2.93,7.677-0.001,10.606c1.465,1.465,3.384,2.197,5.304,2.197
	c1.919,0,3.839-0.732,5.303-2.197l1.682-1.682c-0.097,19.69-16.093,35.687-35.783,35.785L350.305,373.963z M297.31,353.714
	c0.606-18.907,15.866-34.167,34.773-34.773L297.31,353.714z M496.73,336.613c-5.304-13.765-16.408-24.669-30.311-29.688
	c-0.232-0.092-0.467-0.171-0.705-0.239c-5.194-1.789-10.759-2.775-16.553-2.775c-28.104,0-50.968,22.864-50.968,50.967
	s22.864,50.968,50.968,50.968s50.967-22.864,50.967-50.968c0-6.2-1.116-12.143-3.152-17.643
	C496.904,337.025,496.822,336.818,496.73,336.613z M466.219,373.963c2.929-2.929,2.929-7.678,0-10.606
	c-2.93-2.929-7.678-2.929-10.607,0l-23.291,23.291c-6.549-3.486-11.895-8.938-15.254-15.563l48.3-48.3
	c6.625,3.359,12.077,8.705,15.563,15.254l-8.094,8.093c-2.93,2.929-2.93,7.677-0.001,10.606c1.465,1.465,3.384,2.197,5.304,2.197
	c1.919,0,3.839-0.732,5.303-2.197l1.682-1.682c-0.097,19.69-16.094,35.688-35.784,35.785L466.219,373.963z M413.223,353.715
	c0.605-18.907,15.866-34.168,34.774-34.774L413.223,353.715z M148.997,451.836c-5.307-13.788-16.433-24.706-30.362-29.72
	c-0.216-0.084-0.435-0.159-0.656-0.223c-5.196-1.79-10.762-2.776-16.558-2.776c-28.104,0-50.968,22.864-50.968,50.968
	s22.864,50.967,50.968,50.967s50.968-22.864,50.968-50.967c0-6.209-1.12-12.161-3.162-17.668
	C149.158,452.22,149.083,452.027,148.997,451.836z M118.478,489.169c2.929-2.929,2.929-7.678,0-10.606s-7.677-2.93-10.607,0
	l-23.291,23.29c-6.549-3.486-11.894-8.937-15.254-15.562l48.3-48.3c6.625,3.359,12.077,8.704,15.563,15.254l-8.094,8.094
	c-2.929,2.929-2.929,7.678,0.001,10.606c1.464,1.465,3.384,2.197,5.303,2.197s3.839-0.732,5.304-2.197l1.681-1.681
	c-0.097,19.69-16.094,35.687-35.784,35.784L118.478,489.169z M65.482,468.921c0.605-18.908,15.866-34.169,34.774-34.774
	L65.482,468.921z M264.91,451.836c-5.307-13.788-16.433-24.706-30.362-29.72c-0.216-0.084-0.435-0.159-0.656-0.223
	c-5.196-1.79-10.762-2.776-16.558-2.776c-28.104,0-50.968,22.864-50.968,50.968s22.864,50.967,50.968,50.967
	s50.968-22.864,50.968-50.967c0-6.209-1.12-12.161-3.162-17.668C265.072,452.22,264.996,452.027,264.91,451.836z M234.391,489.169
	c2.929-2.929,2.929-7.678,0-10.606c-2.93-2.929-7.678-2.929-10.607,0l-23.29,23.291c-6.55-3.486-11.895-8.937-15.254-15.563
	l48.3-48.3c6.625,3.359,12.077,8.704,15.563,15.254l-8.094,8.094c-2.929,2.929-2.929,7.678,0.001,10.606
	c1.464,1.465,3.384,2.197,5.303,2.197s3.839-0.732,5.304-2.197l1.681-1.681c-0.097,19.69-16.093,35.686-35.783,35.783
	L234.391,489.169z M181.396,468.921c0.605-18.908,15.866-34.169,34.774-34.774L181.396,468.921z M380.816,451.817
	c-5.31-13.779-16.432-24.689-30.354-29.701c-0.216-0.084-0.435-0.159-0.656-0.223c-5.196-1.79-10.762-2.776-16.558-2.776
	c-28.104,0-50.967,22.864-50.967,50.968s22.863,50.967,50.967,50.967s50.968-22.864,50.968-50.967
	c0-6.199-1.115-12.141-3.151-17.641C380.991,452.232,380.908,452.023,380.816,451.817z M350.305,489.169
	c2.929-2.929,2.929-7.678,0-10.606s-7.677-2.93-10.607,0l-23.291,23.291c-6.549-3.486-11.895-8.938-15.254-15.563l48.3-48.3
	c6.626,3.359,12.078,8.705,15.563,15.255l-8.094,8.093c-2.93,2.929-2.93,7.677-0.001,10.606c1.465,1.465,3.384,2.197,5.304,2.197
	c1.919,0,3.839-0.732,5.303-2.197l1.682-1.682c-0.097,19.69-16.093,35.687-35.783,35.784L350.305,489.169z M297.31,468.92
	c0.606-18.907,15.867-34.168,34.773-34.773L297.31,468.92z M496.73,451.819c-5.309-13.779-16.429-24.689-30.351-29.702
	c-0.218-0.085-0.438-0.16-0.66-0.224c-5.196-1.79-10.762-2.776-16.558-2.776c-28.104,0-50.968,22.864-50.968,50.968
	s22.864,50.967,50.968,50.967s50.967-22.864,50.967-50.967c0-6.2-1.116-12.143-3.152-17.643
	C496.904,452.231,496.822,452.023,496.73,451.819z M466.219,489.169c2.929-2.929,2.929-7.678,0-10.606s-7.677-2.93-10.607,0
	l-23.291,23.29c-6.549-3.486-11.894-8.937-15.253-15.562l48.3-48.3c6.625,3.359,12.077,8.705,15.563,15.255l-8.094,8.093
	c-2.93,2.929-2.93,7.677-0.001,10.606c1.465,1.465,3.384,2.197,5.304,2.197c1.919,0,3.839-0.732,5.303-2.197l1.682-1.682
	c-0.097,19.69-16.094,35.687-35.783,35.784L466.219,489.169z M413.223,468.921c0.605-18.908,15.866-34.169,34.774-34.774
	L413.223,468.921z M528.047,47.714L498.895,3.379C497.509,1.27,495.153,0,492.629,0H58.3c-2.522,0-4.875,1.268-6.263,3.374
	L22.76,47.808c-0.004,0.006-0.008,0.012-0.012,0.018l-0.037,0.056c-0.033,0.05-0.058,0.102-0.09,0.153
	c-0.096,0.153-0.19,0.308-0.276,0.468c-0.043,0.08-0.078,0.163-0.118,0.244c-0.067,0.139-0.135,0.277-0.194,0.421
	c-0.042,0.104-0.077,0.209-0.115,0.314c-0.044,0.124-0.09,0.247-0.128,0.373c-0.038,0.126-0.067,0.253-0.098,0.38
	c-0.026,0.109-0.056,0.217-0.077,0.328c-0.029,0.15-0.049,0.3-0.069,0.451c-0.012,0.092-0.028,0.183-0.037,0.276
	c-0.017,0.176-0.022,0.352-0.027,0.528c-0.001,0.064-0.01,0.126-0.01,0.19v0.072c0,0.005,0,0.009,0,0.013v491.159
	c0,4.142,3.357,7.5,7.5,7.5h492.632c4.143,0,7.5-3.358,7.5-7.5V53.424C529.518,51.524,529.199,49.467,528.047,47.714z M488.584,15
	l19.403,29.508h-15.359c-4.143,0-7.5,3.358-7.5,7.5s3.357,7.5,7.5,7.5h21.478v476.244H36.474V59.508H449.16
	c4.143,0,7.5-3.358,7.5-7.5s-3.357-7.5-7.5-7.5H42.897L62.34,15H488.584z M87.595,29.754c0-4.142,3.357-7.5,7.5-7.5h57.87
	c4.143,0,7.5,3.358,7.5,7.5s-3.357,7.5-7.5,7.5h-57.87C90.952,37.254,87.595,33.896,87.595,29.754z M390.291,29.754
	c0-4.142,3.357-7.5,7.5-7.5h57.869c4.143,0,7.5,3.358,7.5,7.5s-3.357,7.5-7.5,7.5h-57.869
	C393.648,37.254,390.291,33.896,390.291,29.754z"/>
<g>
</g>
<g>
</g>
<g>
</g>
<g>
</g>
<g>
</g>
<g>
</g>
<g>
</g>
<g>
</g>
<g>
</g>
<g>
</g>
<g>
</g>
<g>
</g>
<g>
</g>
<g>
</g>
<g>
</g>
</svg>
