<?xml version="1.0" encoding="iso-8859-1"?>
<!-- Generator: Adobe Illustrator 17.1.0, SVG Export Plug-In . SVG Version: 6.00 Build 0)  -->
<!DOCTYPE svg PUBLIC "-//W3C//DTD SVG 1.1//EN" "http://www.w3.org/Graphics/SVG/1.1/DTD/svg11.dtd">
<svg version="1.1" id="Capa_1" xmlns="http://www.w3.org/2000/svg" xmlns:xlink="http://www.w3.org/1999/xlink" x="0px" y="0px"
	 viewBox="0 0 550.754 550.754" style="enable-background:new 0 0 550.754 550.754;" xml:space="preserve">
<path d="M308.273,197.201c0.321,1.262,0.968,2.458,1.956,3.446c0.191,0.191,0.391,0.369,0.597,0.535
	c10.063,14.991,23.678,27.405,39.632,36.028c0.424,0.282,0.871,0.517,1.333,0.704c15.351,8.029,32.796,12.578,51.287,12.578
	c61.224,0,111.032-49.809,111.032-111.033c0-18.491-4.55-35.938-12.579-51.289c-0.186-0.46-0.42-0.905-0.701-1.327
	c-8.875-16.421-21.768-30.363-37.351-40.506c-0.448-0.367-0.931-0.669-1.434-0.917c-17.098-10.76-37.316-16.994-58.967-16.994
	c-61.224,0-111.033,49.809-111.033,111.033C292.044,160.594,297.981,180.366,308.273,197.201z M403.077,43.427
	c15.604,0,30.349,3.744,43.389,10.376L317.42,182.849c-6.632-13.04-10.376-27.785-10.376-43.389
	C307.044,86.507,350.124,43.427,403.077,43.427z M473.116,101.842c-2.929,2.929-2.929,7.678,0,10.606
	c1.465,1.464,3.385,2.197,5.304,2.197s3.839-0.732,5.304-2.197l8.555-8.555c4.404,11.005,6.831,23.007,6.831,35.566
	c0,52.953-43.08,96.033-96.032,96.033c-12.559,0-24.562-2.427-35.567-6.831l89.342-89.342c2.929-2.929,2.929-7.678,0-10.606
	c-2.93-2.928-7.678-2.93-10.607,0l-92.883,92.883c-10.895-6.619-20.37-15.347-27.867-25.608l134.11-134.11
	c10.261,7.497,18.989,16.972,25.608,27.867L473.116,101.842z M491.489,428.227c-0.921-3.219-3.863-5.438-7.211-5.438h-48.472h-1.081
	l27.388-56.65c0.492-1.018,0.748-2.134,0.748-3.265v-97.437c47.066-22.426,79.675-70.463,79.675-125.978
	C542.536,62.561,479.975,0,403.077,0H187.995c-76.898,0-139.46,62.561-139.46,139.459c0,39.55,16.733,77.081,46.027,103.531v119.885
	c0,0.276,0.017,0.547,0.046,0.815c0.007,0.061,0.02,0.121,0.028,0.182c0.028,0.21,0.061,0.418,0.106,0.622
	c0.015,0.069,0.035,0.136,0.053,0.204c0.049,0.195,0.103,0.388,0.167,0.576c0.024,0.072,0.052,0.142,0.078,0.213
	c0.068,0.183,0.142,0.363,0.224,0.539c0.017,0.037,0.029,0.076,0.047,0.112l27.387,56.65H48.033c-3.348,0-6.29,2.219-7.211,5.438
	L8.507,541.189c-0.647,2.263-0.194,4.699,1.223,6.579s3.635,2.984,5.988,2.984h255.847c0.008,0,0.016,0.002,0.024,0.002
	c0.009,0,0.019-0.002,0.028-0.002h244.975c0.007,0,0.015,0,0.02,0c4.143,0,7.5-3.358,7.5-7.5c0-0.914-0.163-1.79-0.463-2.601
	L491.489,428.227z M277.249,535.752l-12.668-44.286c-1.139-3.982-5.293-6.284-9.273-5.148c-3.982,1.139-6.287,5.291-5.148,9.273
	l11.488,40.161H25.665l28.023-97.963h80.965h58.795h32.591h7.585l4.615,16.134c0.942,3.293,3.944,5.439,7.207,5.439
	c0.683,0,1.378-0.094,2.066-0.291c3.982-1.139,6.287-5.292,5.148-9.273l-3.436-12.009h173.503c0.012,0,0.023,0.002,0.035,0.002
	c0.009,0,0.019-0.002,0.028-0.002h13.015h42.816l28.023,97.963H277.249z M187.995,15h152.142
	c-5.164,2.618-10.192,5.547-15.039,8.822c-3.433,2.319-4.335,6.981-2.017,10.413s6.98,4.335,10.413,2.017
	C354.074,22.349,378.135,15,403.077,15c68.627,0,124.459,55.832,124.459,124.459s-55.832,124.459-124.459,124.459
	c-68.628,0-124.46-55.832-124.46-124.459c0-22.564,6.098-44.66,17.634-63.9c2.13-3.553,0.977-8.159-2.576-10.29
	c-3.551-2.13-8.159-0.977-10.289,2.576c-12.933,21.57-19.769,46.334-19.769,71.614c0,54.292,31.188,101.432,76.587,124.459h-109.72
	V146.306c0-0.233-0.011-0.464-0.032-0.692c-0.371-28.999-24.076-52.474-53.161-52.474h-29.536c-29.083,0-52.786,23.474-53.16,52.47
	c-0.021,0.229-0.032,0.461-0.032,0.696v75.369c-19.883-22.589-31.027-51.729-31.027-82.215C63.535,70.833,119.367,15,187.995,15z
	 M412.288,278.607v49.809l-13.307,25.073H344.57l10.45-19.691c0.574-1.083,0.875-2.29,0.875-3.516v-51.364h47.182
	C406.172,278.919,409.242,278.807,412.288,278.607z M340.895,278.919v49.498l-13.306,25.073h-83.799l-13.305-25.073v-49.498H340.895
	z M230.678,422.789l-29.73-59.58V146.306c0-0.233-0.011-0.464-0.032-0.692c-0.182-14.215-5.98-27.093-15.26-36.539
	c17.033,3.825,29.801,19.06,29.801,37.231c0,0.216,0.009,0.43,0.027,0.642v183.336c0,1.226,0.301,2.433,0.875,3.516l16.295,30.706
	c0.002,0.004,0.005,0.007,0.007,0.011c0.149,0.28,0.319,0.546,0.501,0.803c0.049,0.07,0.101,0.136,0.152,0.204
	c0.143,0.188,0.293,0.367,0.453,0.54c0.056,0.061,0.11,0.125,0.168,0.184c0.202,0.205,0.416,0.398,0.641,0.579
	c0.068,0.054,0.138,0.103,0.207,0.155c0.181,0.136,0.368,0.264,0.562,0.384c0.07,0.043,0.14,0.088,0.211,0.129
	c0.522,0.299,1.082,0.536,1.673,0.704c0.067,0.019,0.135,0.035,0.202,0.052c0.229,0.058,0.463,0.106,0.7,0.142
	c0.082,0.013,0.162,0.027,0.244,0.037c0.277,0.033,0.558,0.054,0.843,0.057c0.022,0,0.045,0.005,0.067,0.005
	c0.008,0,0.016-0.001,0.024-0.001h92.758c0.008,0,0.016,0.001,0.024,0.001c0.007,0,0.015-0.001,0.022-0.001h71.377
	c2.775,0,5.324-1.533,6.625-3.984l16.296-30.707c0.574-1.083,0.875-2.29,0.875-3.516v-53.473c7.053-1.24,13.925-3.007,20.573-5.268
	v89.614l-29.796,61.632H230.678z M144.977,370.375c4.143,0,7.5-3.358,7.5-7.5s-3.357-7.5-7.5-7.5h-35.415V239.768
	c0-0.009,0-0.018,0-0.028v-92.79c0.019-0.213,0.027-0.428,0.027-0.645c0-21.045,17.121-38.166,38.165-38.166
	c21.045,0,38.166,17.121,38.166,38.166c0,0.216,0.009,0.431,0.027,0.643v208.427h-8.657c-4.143,0-7.5,3.358-7.5,7.5
	s3.357,7.5,7.5,7.5h10.469l26.155,52.414h-20.467h-54.09l-25.34-52.414H144.977z M176.426,146.515
	c0-15.809-12.862-28.671-28.672-28.671s-28.671,12.862-28.671,28.671s12.861,28.671,28.671,28.671S176.426,162.324,176.426,146.515z
	 M147.754,160.186c-7.538,0-13.671-6.133-13.671-13.671s6.133-13.671,13.671-13.671c7.539,0,13.672,6.133,13.672,13.671
	S155.294,160.186,147.754,160.186z M448.041,455.115c-0.91-3.234-3.859-5.469-7.22-5.469h-127.79c-2.348,0-4.561,1.1-5.979,2.971
	s-1.877,4.299-1.241,6.56l16.667,59.249c0.91,3.234,3.859,5.469,7.22,5.469h18.665c0.009,0,0.017,0.001,0.026,0.001
	c0.007,0,0.014-0.001,0.021-0.001h36.817c0.009,0,0.017,0.001,0.026,0.001c0.007,0,0.014-0.001,0.021-0.001h72.212
	c0.008,0,0.015,0,0.02,0c4.143,0,7.5-3.358,7.5-7.5c0-0.902-0.159-1.768-0.451-2.569L448.041,455.115z M365.496,464.646
	l-21.769,44.249h-8.347l-12.447-44.249H365.496z M397.307,508.895l6.752-13.725c1.829-3.717,0.298-8.212-3.419-10.04
	c-3.718-1.83-8.212-0.298-10.04,3.419l-10.009,20.346h-20.148l21.769-44.249h20.147l-0.982,1.995
	c-1.829,3.717-0.298,8.212,3.419,10.041c1.064,0.524,2.193,0.772,3.305,0.772c2.769,0,5.431-1.539,6.735-4.19l4.24-8.617h16.063
	l12.447,44.249H397.307z"/>
<g>
</g>
<g>
</g>
<g>
</g>
<g>
</g>
<g>
</g>
<g>
</g>
<g>
</g>
<g>
</g>
<g>
</g>
<g>
</g>
<g>
</g>
<g>
</g>
<g>
</g>
<g>
</g>
<g>
</g>
</svg>
