<?xml version="1.0" encoding="iso-8859-1"?>
<!-- Generator: Adobe Illustrator 17.1.0, SVG Export Plug-In . SVG Version: 6.00 Build 0)  -->
<!DOCTYPE svg PUBLIC "-//W3C//DTD SVG 1.1//EN" "http://www.w3.org/Graphics/SVG/1.1/DTD/svg11.dtd">
<svg version="1.1" id="Capa_1" xmlns="http://www.w3.org/2000/svg" xmlns:xlink="http://www.w3.org/1999/xlink" x="0px" y="0px"
	 viewBox="0 0 558.387 558.387" style="enable-background:new 0 0 558.387 558.387;" xml:space="preserve">
<path d="M148.828,121.828c0,28.18-22.926,51.106-51.105,51.106s-51.105-22.926-51.105-51.106s22.926-51.106,51.105-51.106
	c14.186,0,27.853,5.971,37.498,16.382c2.814,3.039,2.634,7.784-0.405,10.599c-3.038,2.814-7.783,2.633-10.599-0.405
	c-6.815-7.357-16.473-11.576-26.494-11.576c-19.908,0-36.105,16.197-36.105,36.106s16.197,36.106,36.105,36.106
	s36.105-16.197,36.105-36.106c0-4.142,3.357-7.5,7.5-7.5S148.828,117.686,148.828,121.828z M103.023,91.783
	c-1.391-1.39-3.33-2.19-5.3-2.19c-1.971,0-3.91,0.8-5.301,2.19c-1.399,1.4-2.199,3.33-2.199,5.31c0,1.97,0.8,3.9,2.199,5.3
	c1.391,1.4,3.33,2.2,5.301,2.2c1.97,0,3.909-0.8,5.3-2.2c1.399-1.4,2.2-3.33,2.2-5.3C105.224,95.113,104.423,93.184,103.023,91.783z
	 M97.724,139.063c-1.971,0-3.91,0.8-5.301,2.2c-1.399,1.39-2.199,3.33-2.199,5.3c0,1.97,0.8,3.91,2.199,5.3
	c1.391,1.4,3.33,2.2,5.301,2.2c1.979,0,3.909-0.8,5.3-2.2c1.399-1.39,2.2-3.33,2.2-5.3c0-1.97-0.801-3.91-2.2-5.3
	C101.633,139.863,99.693,139.063,97.724,139.063z M129.963,121.833c0-1.98-0.81-3.91-2.2-5.31c-1.399-1.4-3.329-2.2-5.3-2.2
	c-1.979,0-3.91,0.8-5.31,2.2c-1.391,1.4-2.19,3.33-2.19,5.31c0,1.97,0.8,3.9,2.19,5.3c1.399,1.39,3.33,2.19,5.31,2.19
	c1.971,0,3.9-0.8,5.3-2.19C129.153,125.733,129.963,123.803,129.963,121.833z M103.023,116.523c-1.391-1.4-3.33-2.19-5.3-2.19
	c-1.971,0-3.91,0.79-5.301,2.19c-1.399,1.4-2.199,3.33-2.199,5.3c0,1.98,0.8,3.91,2.199,5.31c1.391,1.39,3.33,2.19,5.301,2.19
	c1.97,0,3.909-0.8,5.3-2.19c1.399-1.4,2.2-3.33,2.2-5.31C105.224,119.854,104.423,117.923,103.023,116.523z M80.483,121.823
	c0-1.97-0.8-3.9-2.19-5.3c-1.399-1.4-3.33-2.2-5.31-2.2c-1.971,0-3.91,0.8-5.3,2.2c-1.4,1.39-2.2,3.33-2.2,5.3
	c0,1.98,0.8,3.91,2.2,5.31c1.39,1.39,3.329,2.19,5.3,2.19c1.979,0,3.91-0.8,5.31-2.19C79.684,125.733,80.483,123.803,80.483,121.823
	z M115.213,111.833c1.98,0,3.91-0.8,5.3-2.2c1.4-1.39,2.2-3.32,2.2-5.3c0-1.97-0.8-3.91-2.2-5.3c-1.39-1.4-3.319-2.2-5.3-2.2
	c-1.97,0-3.91,0.8-5.3,2.2c-1.4,1.39-2.2,3.33-2.2,5.3c0,1.98,0.8,3.91,2.2,5.3C111.303,111.033,113.243,111.833,115.213,111.833z
	 M80.233,146.823c1.97,0,3.899-0.8,5.3-2.2c1.4-1.4,2.2-3.33,2.2-5.3c0-1.98-0.8-3.91-2.2-5.31c-1.4-1.39-3.33-2.19-5.3-2.19
	c-1.98,0-3.91,0.8-5.311,2.19c-1.39,1.4-2.189,3.33-2.189,5.31c0,1.97,0.8,3.9,2.189,5.3
	C76.323,146.023,78.253,146.823,80.233,146.823z M109.913,144.624c1.39,1.4,3.33,2.2,5.3,2.2c1.98,0,3.91-0.8,5.3-2.2
	c1.4-1.4,2.2-3.33,2.2-5.3c0-1.98-0.8-3.91-2.2-5.31c-1.39-1.39-3.319-2.19-5.3-2.19c-1.97,0-3.91,0.8-5.3,2.19
	c-1.4,1.4-2.2,3.33-2.2,5.31C107.713,141.293,108.513,143.223,109.913,144.624z M85.533,99.033c-1.4-1.4-3.33-2.2-5.3-2.2
	c-1.98,0-3.91,0.8-5.311,2.2c-1.39,1.4-2.189,3.33-2.189,5.3c0,1.98,0.8,3.91,2.189,5.31c1.4,1.39,3.33,2.19,5.311,2.19
	c1.97,0,3.899-0.8,5.3-2.19c1.4-1.4,2.2-3.33,2.2-5.31C87.733,102.363,86.934,100.423,85.533,99.033z M504.27,114.328
	c-4.143,0-7.5,3.358-7.5,7.5c0,19.909-16.197,36.106-36.106,36.106c-19.908,0-36.105-16.197-36.105-36.106
	s16.197-36.106,36.105-36.106c10.021,0,19.679,4.219,26.494,11.576c2.815,3.038,7.561,3.219,10.599,0.405
	c3.039-2.815,3.22-7.561,0.405-10.599c-9.646-10.411-23.313-16.382-37.498-16.382c-28.18,0-51.105,22.926-51.105,51.106
	s22.926,51.106,51.105,51.106c28.181,0,51.106-22.926,51.106-51.106C511.77,117.686,508.412,114.328,504.27,114.328z
	 M465.963,91.783c-1.39-1.39-3.33-2.19-5.3-2.19c-1.979,0-3.91,0.8-5.3,2.19c-1.4,1.4-2.2,3.33-2.2,5.31c0,1.97,0.8,3.9,2.2,5.3
	c1.39,1.4,3.33,2.2,5.3,2.2s3.91-0.8,5.3-2.2c1.4-1.4,2.2-3.33,2.2-5.3C468.163,95.113,467.363,93.184,465.963,91.783z
	 M460.663,139.063c-1.97,0-3.91,0.8-5.3,2.2c-1.4,1.4-2.2,3.33-2.2,5.3c0,1.97,0.8,3.91,2.2,5.31c1.39,1.39,3.33,2.19,5.3,2.19
	s3.91-0.8,5.3-2.19c1.4-1.4,2.2-3.34,2.2-5.31c0-1.97-0.8-3.9-2.2-5.3C464.573,139.863,462.633,139.063,460.663,139.063z
	 M492.903,121.823c0-1.97-0.8-3.9-2.2-5.3s-3.33-2.2-5.3-2.2c-1.98,0-3.91,0.8-5.311,2.2c-1.39,1.39-2.189,3.33-2.189,5.3
	c0,1.98,0.8,3.91,2.189,5.31c1.4,1.39,3.33,2.19,5.311,2.19c1.97,0,3.899-0.8,5.3-2.19
	C492.104,125.733,492.903,123.803,492.903,121.823z M465.963,116.523c-1.39-1.39-3.319-2.19-5.3-2.19c-1.979,0-3.91,0.8-5.3,2.19
	c-1.4,1.4-2.2,3.33-2.2,5.3c0,1.98,0.8,3.91,2.2,5.31c1.39,1.39,3.33,2.19,5.3,2.19s3.91-0.8,5.3-2.19c1.4-1.4,2.2-3.33,2.2-5.31
	C468.163,119.854,467.363,117.923,465.963,116.523z M443.423,121.823c0-1.97-0.8-3.9-2.199-5.3c-1.391-1.4-3.32-2.2-5.301-2.2
	c-1.97,0-3.899,0.8-5.3,2.2c-1.399,1.4-2.2,3.33-2.2,5.3c0,1.98,0.801,3.91,2.2,5.31c1.4,1.39,3.33,2.2,5.3,2.2
	c1.98,0,3.91-0.81,5.301-2.2C442.623,125.733,443.423,123.803,443.423,121.823z M478.153,111.833c1.979,0,3.91-0.8,5.3-2.19
	c1.4-1.4,2.2-3.33,2.2-5.31c0-1.97-0.8-3.9-2.2-5.3c-1.39-1.4-3.32-2.2-5.3-2.2c-1.97,0-3.91,0.8-5.3,2.2c-1.4,1.4-2.2,3.33-2.2,5.3
	c0,1.98,0.8,3.91,2.2,5.31C474.243,111.033,476.184,111.833,478.153,111.833z M443.173,146.823c1.971,0,3.91-0.8,5.301-2.2
	c1.399-1.4,2.199-3.33,2.199-5.3c0-1.98-0.8-3.91-2.199-5.31c-1.391-1.39-3.33-2.19-5.301-2.19c-1.97,0-3.91,0.8-5.31,2.19
	c-1.39,1.4-2.19,3.33-2.19,5.31c0,1.97,0.801,3.9,2.19,5.3C439.263,146.023,441.193,146.823,443.173,146.823z M472.854,144.624
	c1.39,1.4,3.33,2.2,5.3,2.2c1.979,0,3.91-0.8,5.3-2.2c1.4-1.4,2.2-3.33,2.2-5.3c0-1.98-0.8-3.91-2.2-5.31
	c-1.39-1.39-3.32-2.19-5.3-2.19c-1.97,0-3.91,0.8-5.3,2.19c-1.4,1.4-2.2,3.33-2.2,5.31
	C470.653,141.293,471.453,143.223,472.854,144.624z M448.474,99.033c-1.4-1.4-3.33-2.2-5.301-2.2c-1.97,0-3.91,0.8-5.31,2.2
	c-1.39,1.4-2.19,3.33-2.19,5.3c0,1.97,0.801,3.91,2.19,5.31c1.399,1.39,3.34,2.19,5.31,2.19c1.971,0,3.91-0.8,5.301-2.19
	c1.399-1.4,2.199-3.33,2.199-5.31C450.673,102.363,449.873,100.434,448.474,99.033z M549.238,32.238v102.064
	c0,4.142-3.357,7.5-7.5,7.5s-7.5-3.358-7.5-7.5v-4.975h-4.231v54.344c0,4.142-3.357,7.5-7.5,7.5H398.82c-4.143,0-7.5-3.358-7.5-7.5
	v-54.344h-4.231v4.975c0,4.142-3.357,7.5-7.5,7.5s-7.5-3.358-7.5-7.5V39.738h-4.321v94.564c0,4.142-3.357,7.5-7.5,7.5
	s-7.5-3.358-7.5-7.5v-4.975h-4.23v54.344c0,4.142-3.357,7.5-7.5,7.5h-42.989v11.236c1.828,1.368,3.016,3.543,3.016,6.002v49.475
	c0,2.458-1.188,4.634-3.016,6.002v141.066c1.828,1.368,3.016,3.543,3.016,6.002v25.096c0,4.142-3.357,7.5-7.5,7.5h-0.594
	l66.734,103.267c2.248,3.479,1.251,8.122-2.229,10.37c-1.258,0.813-2.669,1.202-4.063,1.202c-2.461,0-4.871-1.209-6.306-3.43
	l-45.258-70.033l-15.155,10.13v25.646c0,4.142-3.357,7.5-7.5,7.5s-7.5-3.358-7.5-7.5v-25.627l-15.372-10.189l-45.681,70.098
	c-1.438,2.206-3.84,3.406-6.29,3.406c-1.404,0-2.824-0.394-4.088-1.217c-3.471-2.262-4.45-6.908-2.188-10.378l67.28-103.243h-0.531
	c-4.143,0-7.5-3.358-7.5-7.5v-25.096c0-2.458,1.188-4.633,3.015-6.001V263.884c-1.827-1.368-3.015-3.543-3.015-6.001v-49.475
	c0-2.458,1.188-4.633,3.015-6.001v-11.236H217.35c-4.143,0-7.5-3.358-7.5-7.5v-54.344h-4.23v4.975c0,4.142-3.357,7.5-7.5,7.5
	s-7.5-3.358-7.5-7.5V39.738h-4.322v94.564c0,4.142-3.357,7.5-7.5,7.5s-7.5-3.358-7.5-7.5v-4.975h-4.23v54.344
	c0,4.142-3.357,7.5-7.5,7.5H35.879c-4.143,0-7.5-3.358-7.5-7.5v-54.344h-4.23v4.975c0,4.142-3.357,7.5-7.5,7.5s-7.5-3.358-7.5-7.5
	V32.238c0-4.142,3.357-7.5,7.5-7.5h20.039V7.5c0-4.142,3.357-7.5,7.5-7.5h470.011c4.143,0,7.5,3.358,7.5,7.5v17.238h20.04
	C545.881,24.738,549.238,28.096,549.238,32.238z M406.32,176.171h108.687V67.484H406.32V176.171z M530.007,59.984v54.343h4.231
	v-74.59h-20.04H387.089v74.59h4.231V59.984c0-4.142,3.357-7.5,7.5-7.5h123.687C526.649,52.484,530.007,55.842,530.007,59.984z
	 M379.589,24.738h127.109V15H51.688v9.738h127.109h19.322h162.148H379.589z M171.297,39.738H44.188H24.148v74.59h4.23V59.984
	c0-4.142,3.357-7.5,7.5-7.5h123.688c4.143,0,7.5,3.358,7.5,7.5v54.343h4.23V39.738z M43.379,176.171h108.688V67.484H43.379V176.171z
	 M352.768,39.738H205.619v74.59h4.23V59.984c0-4.142,3.357-7.5,7.5-7.5h123.688c4.143,0,7.5,3.358,7.5,7.5v54.343h4.23V39.738z
	 M333.537,176.171V67.484H224.85v108.687h42.988h22.71H333.537z M264.511,472.315l7.182,4.76v-15.782L264.511,472.315z
	 M286.693,477.01l7.012-4.687l-7.012-10.851V477.01z M286.063,418.452h-13.74v10.096h13.74V418.452z M283.048,265.383h-7.71v138.069
	h7.71V265.383z M272.323,250.383h13.74v-34.475h-13.74V250.383z M283.048,191.171h-7.71v9.737h7.71V191.171z M322.799,114.328
	c-4.143,0-7.5,3.358-7.5,7.5c0,19.909-16.197,36.106-36.105,36.106c-19.909,0-36.106-16.197-36.106-36.106
	s16.197-36.106,36.106-36.106c10.021,0,19.679,4.219,26.494,11.576c2.815,3.038,7.562,3.219,10.599,0.405
	c3.039-2.815,3.22-7.561,0.405-10.599c-9.646-10.411-23.313-16.382-37.498-16.382c-28.181,0-51.106,22.926-51.106,51.106
	s22.926,51.106,51.106,51.106c28.18,0,51.105-22.926,51.105-51.106C330.299,117.686,326.941,114.328,322.799,114.328z
	 M284.493,91.783c-1.39-1.39-3.32-2.19-5.3-2.19c-1.98,0-3.91,0.8-5.3,2.19c-1.4,1.4-2.2,3.33-2.2,5.31c0,1.97,0.8,3.9,2.2,5.3
	c1.39,1.4,3.319,2.2,5.3,2.2c1.979,0,3.91-0.8,5.3-2.2c1.4-1.4,2.2-3.33,2.2-5.3C286.693,95.113,285.894,93.184,284.493,91.783z
	 M279.193,139.063c-1.98,0-3.91,0.8-5.3,2.2c-1.4,1.39-2.2,3.33-2.2,5.3c0,1.98,0.8,3.91,2.2,5.3c1.39,1.4,3.319,2.2,5.3,2.2
	c1.979,0,3.91-0.8,5.3-2.2c1.4-1.39,2.2-3.32,2.2-5.3c0-1.97-0.8-3.91-2.2-5.3C283.104,139.863,281.173,139.063,279.193,139.063z
	 M311.434,121.823c0-1.97-0.801-3.9-2.2-5.3c-1.391-1.4-3.33-2.2-5.3-2.2c-1.98,0-3.91,0.8-5.311,2.2
	c-1.39,1.4-2.189,3.33-2.189,5.3c0,1.98,0.8,3.91,2.189,5.31c1.4,1.39,3.33,2.19,5.311,2.19c1.97,0,3.909-0.8,5.3-2.19
	C310.633,125.733,311.434,123.803,311.434,121.823z M284.493,116.523c-1.39-1.4-3.32-2.2-5.3-2.2c-1.98,0-3.91,0.8-5.3,2.2
	c-1.4,1.4-2.2,3.33-2.2,5.3c0,1.98,0.8,3.91,2.2,5.31c1.39,1.39,3.319,2.19,5.3,2.19c1.97,0,3.91-0.8,5.3-2.19
	c1.4-1.4,2.2-3.33,2.2-5.31C286.693,119.854,285.894,117.923,284.493,116.523z M261.953,121.823c0-1.97-0.8-3.9-2.2-5.3
	c-1.39-1.4-3.319-2.2-5.3-2.2c-1.97,0-3.9,0.8-5.3,2.2c-1.4,1.4-2.2,3.33-2.2,5.3c0,1.98,0.8,3.91,2.2,5.31
	c1.399,1.39,3.33,2.2,5.3,2.2c1.98,0,3.91-0.81,5.3-2.2C261.153,125.733,261.953,123.803,261.953,121.823z M296.684,111.833
	c1.979,0,3.909-0.8,5.31-2.19c1.39-1.4,2.19-3.33,2.19-5.31c0-1.97-0.801-3.9-2.19-5.3c-1.4-1.4-3.33-2.2-5.31-2.2
	c-1.971,0-3.91,0.8-5.301,2.2c-1.399,1.39-2.199,3.33-2.199,5.3c0,1.98,0.8,3.91,2.199,5.31
	C292.783,111.033,294.713,111.833,296.684,111.833z M261.703,146.823c1.97,0,3.91-0.8,5.3-2.2c1.4-1.4,2.2-3.33,2.2-5.3
	c0-1.98-0.8-3.91-2.2-5.31c-1.39-1.39-3.33-2.19-5.3-2.19c-1.979,0-3.91,0.8-5.31,2.19c-1.391,1.4-2.19,3.33-2.19,5.31
	c0,1.97,0.8,3.9,2.19,5.3C257.793,146.023,259.724,146.823,261.703,146.823z M291.383,144.624c1.4,1.4,3.33,2.2,5.301,2.2
	c1.979,0,3.909-0.8,5.31-2.2c1.39-1.4,2.19-3.33,2.19-5.3c0-1.98-0.801-3.91-2.19-5.31c-1.4-1.39-3.33-2.19-5.31-2.19
	c-1.971,0-3.91,0.8-5.301,2.19c-1.399,1.4-2.199,3.33-2.199,5.31C289.184,141.293,289.983,143.223,291.383,144.624z M267.003,99.033
	c-1.399-1.4-3.33-2.2-5.3-2.2c-1.979,0-3.91,0.8-5.31,2.2c-1.391,1.4-2.19,3.33-2.19,5.3c0,1.98,0.8,3.91,2.19,5.31
	c1.399,1.39,3.33,2.19,5.31,2.19c1.97,0,3.91-0.8,5.3-2.19c1.4-1.4,2.2-3.33,2.2-5.31
	C269.203,102.363,268.403,100.434,267.003,99.033z"/>
<g>
</g>
<g>
</g>
<g>
</g>
<g>
</g>
<g>
</g>
<g>
</g>
<g>
</g>
<g>
</g>
<g>
</g>
<g>
</g>
<g>
</g>
<g>
</g>
<g>
</g>
<g>
</g>
<g>
</g>
</svg>
