<?xml version="1.0" encoding="iso-8859-1"?>
<!-- Generator: Adobe Illustrator 17.1.0, SVG Export Plug-In . SVG Version: 6.00 Build 0)  -->
<!DOCTYPE svg PUBLIC "-//W3C//DTD SVG 1.1//EN" "http://www.w3.org/Graphics/SVG/1.1/DTD/svg11.dtd">
<svg version="1.1" id="Capa_1" xmlns="http://www.w3.org/2000/svg" xmlns:xlink="http://www.w3.org/1999/xlink" x="0px" y="0px"
	 viewBox="0 0 552.488 552.488" style="enable-background:new 0 0 552.488 552.488;" xml:space="preserve">
<path d="M104.754,87.843c-20.684,0-37.512,16.828-37.512,37.512s16.828,37.512,37.512,37.512s37.512-16.828,37.512-37.512
	S125.438,87.843,104.754,87.843z M104.754,147.867c-12.413,0-22.512-10.099-22.512-22.512s10.099-22.512,22.512-22.512
	s22.512,10.099,22.512,22.512S117.167,147.867,104.754,147.867z M276.244,87.843c-20.684,0-37.512,16.828-37.512,37.512
	s16.828,37.512,37.512,37.512s37.512-16.828,37.512-37.512S296.928,87.843,276.244,87.843z M276.244,147.867
	c-12.413,0-22.512-10.099-22.512-22.512s10.099-22.512,22.512-22.512s22.512,10.099,22.512,22.512S288.657,147.867,276.244,147.867z
	 M447.734,87.843c-20.684,0-37.512,16.828-37.512,37.512s16.828,37.512,37.512,37.512s37.512-16.828,37.512-37.512
	S468.418,87.843,447.734,87.843z M447.734,147.867c-12.413,0-22.512-10.099-22.512-22.512s10.099-22.512,22.512-22.512
	s22.512,10.099,22.512,22.512S460.147,147.867,447.734,147.867z M521.401,38.518c-4.142,0-7.5,3.358-7.5,7.5v4.289h-22.747v-6.886
	C491.155,19.479,471.676,0,447.734,0c-23.943,0-43.421,19.479-43.421,43.421v6.886h-22.746v-4.289c0-4.142-3.358-7.5-7.5-7.5
	s-7.5,3.358-7.5,7.5v97.796h-9.156V46.018c0-4.142-3.358-7.5-7.5-7.5s-7.5,3.358-7.5,7.5v4.289h-22.746v-6.886
	C319.665,19.479,300.186,0,276.244,0c-23.943,0-43.421,19.479-43.421,43.421v6.886h-22.746v-4.289c0-4.142-3.358-7.5-7.5-7.5
	s-7.5,3.358-7.5,7.5v97.796h-9.155V46.018c0-4.142-3.358-7.5-7.5-7.5s-7.5,3.358-7.5,7.5v4.289h-22.746v-6.886
	C148.175,19.479,128.697,0,104.754,0C80.811,0,61.333,19.479,61.333,43.421v6.886H38.587v-4.289c0-4.142-3.358-7.5-7.5-7.5
	s-7.5,3.358-7.5,7.5v105.296c0,4.142,3.358,7.5,7.5,7.5h14.027v18.68c0,4.142,3.358,7.5,7.5,7.5h104.279c4.142,0,7.5-3.358,7.5-7.5
	v-18.68h14.028h24.155h14.027v18.68c0,4.142,3.358,7.5,7.5,7.5h30.243v28.851h-14.024c-4.142,0-7.5,3.358-7.5,7.5v96.411
	c0,4.142,3.358,7.5,7.5,7.5h14.024v81.531c-1.798,1.37-2.963,3.528-2.963,5.962v23.716c0,4.142,3.358,7.5,7.5,7.5h3.521
	l-63.164,96.927c-2.261,3.47-1.281,8.117,2.189,10.378c1.264,0.824,2.684,1.217,4.088,1.217c2.45,0,4.853-1.2,6.291-3.406
	l16.371-25.122h95.677l16.219,25.098c1.435,2.221,3.846,3.43,6.306,3.43c1.395,0,2.806-0.389,4.064-1.202
	c3.479-2.249,4.477-6.891,2.229-10.37l-62.653-96.951h3.583c4.142,0,7.5-3.358,7.5-7.5V412.75c0-2.435-1.165-4.592-2.963-5.962
	v-81.531h14.024c4.142,0,7.5-3.358,7.5-7.5v-96.411c0-4.142-3.358-7.5-7.5-7.5h-14.024v-28.851h30.243c4.142,0,7.5-3.358,7.5-7.5
	v-18.68h14.027h24.156h14.027v18.68c0,4.142,3.358,7.5,7.5,7.5h104.279c4.142,0,7.5-3.358,7.5-7.5v-18.68h14.028
	c4.142,0,7.5-3.358,7.5-7.5V46.018C528.901,41.876,525.543,38.518,521.401,38.518z M38.587,65.307h22.746v0.409h-8.719
	c-4.142,0-7.5,3.358-7.5,7.5v70.599h-6.527V65.307z M104.754,15c13.819,0,25.36,9.915,27.897,23.004
	c-2.945-1.732-6.796-1.278-9.243,1.309c-2.847,3.009-2.715,7.755,0.294,10.603c4.444,4.205,7.483,9.753,8.773,15.8H77.029
	c2.849-13.404,14.194-23.452,27.725-23.452c4.142,0,7.5-3.358,7.5-7.5s-3.358-7.5-7.5-7.5c-10.596,0-20.313,3.962-27.858,10.526
	C79.516,24.806,91.01,15,104.754,15z M60.114,80.715h89.279v89.279H60.114V80.715z M156.893,65.715h-8.718v-0.409h22.746v78.508
	h-6.528V73.215C164.393,69.073,161.035,65.715,156.893,65.715z M290.641,169.995h-28.794h-30.243v-18.67c0-0.003,0-0.006,0-0.01
	s0-0.006,0-0.01V80.715h89.28v89.279H290.641z M210.076,65.307h22.746v0.409h-8.719c-4.142,0-7.5,3.358-7.5,7.5v70.599h-6.527
	V65.307z M276.244,15c13.773,0,25.285,9.849,27.873,22.873c-3.023-2.025-7.149-1.608-9.685,1.154
	c-2.803,3.05-2.602,7.795,0.448,10.597c4.62,4.245,7.773,9.899,9.09,16.091h-55.451c2.849-13.404,14.194-23.452,27.725-23.452
	c4.142,0,7.5-3.358,7.5-7.5s-3.358-7.5-7.5-7.5c-10.596,0-20.313,3.962-27.859,10.526C251.006,24.806,262.5,15,276.244,15z
	 M328.384,65.715h-8.719v-0.409h22.746v78.508h-6.527V73.215C335.884,69.073,332.526,65.715,328.384,65.715z M283.141,213.845
	h-13.794v-28.851h13.794V213.845z M304.665,310.256h-14.024h-28.794h-14.024v-81.411h14.024h28.794h14.024V310.256z
	 M268.744,461.712v47.248h-30.79L268.744,461.712z M283.744,461.89l30.419,47.07h-30.419V461.89z M276.13,428.965
	c-0.002,0-0.004,0-0.006,0h-9.741v-8.716h19.72v8.716H276.13z M283.141,405.25h-13.794v-79.993h13.794V405.25z M381.567,65.307
	h22.746v0.409h-8.718c-4.142,0-7.5,3.358-7.5,7.5v70.599h-6.527V65.307z M447.734,15c13.772,0,25.284,9.847,27.873,22.87
	c-3.024-2.032-7.157-1.616-9.697,1.15c-2.801,3.051-2.599,7.796,0.452,10.597c4.625,4.246,7.78,9.903,9.098,16.099h-55.451
	c2.849-13.404,14.194-23.452,27.725-23.452c4.142,0,7.5-3.358,7.5-7.5s-3.358-7.5-7.5-7.5c-10.596,0-20.313,3.962-27.859,10.526
	C422.495,24.806,433.99,15,447.734,15z M403.094,80.715h89.279v89.279h-89.279V80.715z M499.873,65.715h-8.719v-0.409h22.747v78.508
	h-6.528V73.215C507.373,69.073,504.015,65.715,499.873,65.715z M276.244,261.95c-5.887,0-11.422,2.293-15.584,6.455
	c-4.163,4.163-6.456,9.697-6.456,15.584c0,5.887,2.293,11.421,6.455,15.583c4.163,4.163,9.697,6.456,15.584,6.456
	c5.886,0,11.421-2.293,15.583-6.455l0,0c4.162-4.163,6.455-9.697,6.455-15.583c0-5.887-2.293-11.422-6.455-15.584
	C287.665,264.243,282.131,261.95,276.244,261.95z M281.221,288.966L281.221,288.966c-1.33,1.33-3.097,2.063-4.977,2.063
	c-1.88,0-3.648-0.732-4.978-2.063c-1.33-1.329-2.062-3.097-2.062-4.977c0-1.88,0.732-3.648,2.063-4.978
	c1.329-1.33,3.097-2.062,4.977-2.062c1.88,0,3.647,0.732,4.977,2.063c1.33,1.329,2.062,3.097,2.062,4.977
	C283.283,285.87,282.551,287.637,281.221,288.966z M258.884,238.763h34.72c4.142,0,7.5,3.358,7.5,7.5s-3.358,7.5-7.5,7.5h-34.72
	c-4.142,0-7.5-3.358-7.5-7.5S254.741,238.763,258.884,238.763z"/>
<g>
</g>
<g>
</g>
<g>
</g>
<g>
</g>
<g>
</g>
<g>
</g>
<g>
</g>
<g>
</g>
<g>
</g>
<g>
</g>
<g>
</g>
<g>
</g>
<g>
</g>
<g>
</g>
<g>
</g>
</svg>
