<?xml version="1.0" encoding="iso-8859-1"?>
<!-- Generator: Adobe Illustrator 17.1.0, SVG Export Plug-In . SVG Version: 6.00 Build 0)  -->
<!DOCTYPE svg PUBLIC "-//W3C//DTD SVG 1.1//EN" "http://www.w3.org/Graphics/SVG/1.1/DTD/svg11.dtd">
<svg version="1.1" id="Capa_1" xmlns="http://www.w3.org/2000/svg" xmlns:xlink="http://www.w3.org/1999/xlink" x="0px" y="0px"
	 viewBox="0 0 550.752 550.752" style="enable-background:new 0 0 550.752 550.752;" xml:space="preserve">
<path d="M429.09,321.693c-0.068-0.267-0.149-0.534-0.249-0.798l-17.538-46.485c3.313-0.777,5.783-3.744,5.783-7.295V81.697V53.048
	c0-1.848-0.682-3.63-1.915-5.006L374.346,2.494C372.923,0.907,370.893,0,368.761,0H181.99c-2.132,0-4.162,0.907-5.585,2.494
	l-40.826,45.548c-1.233,1.375-1.915,3.158-1.915,5.006v28.648v185.419c0,3.56,2.482,6.533,5.809,7.301l-17.526,46.479
	c-0.058,0.154-0.102,0.31-0.149,0.465c-8.07,19.514-12.535,40.882-12.535,63.277c0,91.595,74.519,166.114,166.113,166.114
	s166.113-74.518,166.113-166.114C441.489,362.37,437.074,341.117,429.09,321.693z M275.376,535.752
	c-83.324,0-151.113-67.789-151.113-151.114s67.789-151.113,151.113-151.113s151.113,67.789,151.113,151.113
	S358.7,535.752,275.376,535.752z M148.664,84.736l39.854-41.088h135.668c4.143,0,7.5-3.358,7.5-7.5s-3.357-7.5-7.5-7.5H185.344
	c-2.028,0-3.971,0.822-5.384,2.278l-31.296,32.266v-7.274L185.34,15h180.071l36.676,40.917v7.274l-31.296-32.266
	c-1.413-1.456-3.355-2.278-5.384-2.278H354.22c-4.143,0-7.5,3.358-7.5,7.5s3.357,7.5,7.5,7.5h8.014l39.854,41.088v165.243
	l-5.511-14.608c-0.034-0.095-0.069-0.19-0.107-0.284l-7.073-18.748V97.683c0-1.761-0.619-3.465-1.749-4.814l-29.083-34.74
	c-1.425-1.702-3.531-2.686-5.751-2.686H197.941c-2.22,0-4.325,0.983-5.751,2.686l-29.085,34.74c-1.13,1.35-1.749,3.054-1.749,4.814
	v118.701l-7.028,18.638c-0.049,0.12-0.094,0.242-0.137,0.364l-5.526,14.655V84.736z M359.877,138.098
	c-0.004-0.011-0.009-0.022-0.013-0.034l-0.035-0.093c-0.028-0.074-0.063-0.142-0.093-0.214c-0.052-0.126-0.099-0.254-0.159-0.38
	c-0.017-0.035-0.036-0.069-0.052-0.104c-0.002-0.004-0.004-0.008-0.006-0.012c-15.454-32.168-48.466-52.947-84.143-52.947
	c-35.721,0-68.772,20.829-84.202,53.064c-0.069,0.145-0.124,0.292-0.183,0.438c-0.021,0.053-0.048,0.103-0.068,0.156l-0.025,0.067
	c-0.009,0.025-0.019,0.049-0.028,0.074l-14.514,38.491v-76.197l25.087-29.965H349.31l25.086,29.965v76.173L359.877,138.098z
	 M167.727,242c28.626-29.075,66.789-45.077,107.649-45.077c15.888,0,31.533,2.452,46.504,7.289c3.941,1.273,8.17-0.889,9.442-4.831
	c1.273-3.942-0.89-8.169-4.831-9.442c-16.462-5.318-33.66-8.015-51.115-8.015c-35.263,0-68.7,10.843-96.672,30.967l26.129-69.294
	c13.005-26.908,40.659-44.282,70.543-44.282c29.883,0,57.538,17.374,70.543,44.283l26.173,69.374
	c-2.664-1.911-5.383-3.745-8.154-5.495c-3.502-2.211-8.135-1.165-10.346,2.338c-2.211,3.502-1.164,8.135,2.338,10.346
	c9.838,6.211,18.952,13.575,27.13,21.882l9.378,24.858c-30.052-29.88-71.436-48.373-117.062-48.373
	c-45.606,0-86.975,18.478-117.024,48.336L167.727,242z M357.956,272.677c-0.485-0.46-1.015-0.846-1.578-1.151
	c-22.833-16.398-50.809-26.067-81.003-26.067c-76.744,0-139.181,62.436-139.181,139.18c0,30.211,9.681,58.201,26.096,81.042
	c0.294,0.533,0.661,1.037,1.095,1.5c7.21,9.757,15.663,18.539,25.123,26.117c0.031,0.031,0.056,0.066,0.088,0.097
	c0.447,0.447,0.94,0.818,1.459,1.128c23.581,18.351,53.195,29.296,85.32,29.296c76.744,0,139.181-62.436,139.181-139.181
	C414.557,338.788,392.266,298.05,357.956,272.677z M275.376,508.819c-25.929,0-50.023-7.993-69.959-21.637l45.833-45.833
	c7.414,3.166,15.569,4.923,24.127,4.923c33.985,0,61.634-27.649,61.634-61.634c0-4.142-3.357-7.5-7.5-7.5s-7.5,3.358-7.5,7.5
	c0,25.714-20.92,46.634-46.634,46.634c-4.283,0-8.428-0.592-12.371-1.678l77.813-77.814c2.929-2.929,2.929-7.677,0-10.606
	c-2.93-2.929-7.678-2.929-10.607,0L248.6,422.785c-5.819-4.097-10.667-9.482-14.113-15.748l118.922-118.921
	c5.481,4.44,10.578,9.334,15.233,14.629l-10.551,10.55c-2.93,2.929-2.93,7.678-0.001,10.607c1.465,1.465,3.384,2.197,5.304,2.197
	c1.919,0,3.839-0.732,5.303-2.197l9.223-9.222c13.645,19.936,21.638,44.031,21.638,69.96
	C399.557,453.112,343.85,508.819,275.376,508.819z M275.376,260.458c24.09,0,46.594,6.902,65.654,18.822L229.201,391.108
	c-0.295-2.116-0.459-4.274-0.459-6.47c0-25.714,20.92-46.634,46.634-46.634c4.143,0,7.5-3.358,7.5-7.5s-3.357-7.5-7.5-7.5
	c-33.985,0-61.634,27.649-61.634,61.634c0,6.606,1.057,12.968,2.99,18.939l-46.714,46.714c-11.92-19.06-18.822-41.564-18.822-65.653
	C151.195,316.165,206.902,260.458,275.376,260.458z M223.566,417.958c3.851,5.968,8.698,11.23,14.313,15.548l-44.398,44.398
	c-5.294-4.655-10.189-9.751-14.629-15.233L223.566,417.958z"/>
<g>
</g>
<g>
</g>
<g>
</g>
<g>
</g>
<g>
</g>
<g>
</g>
<g>
</g>
<g>
</g>
<g>
</g>
<g>
</g>
<g>
</g>
<g>
</g>
<g>
</g>
<g>
</g>
<g>
</g>
</svg>
