<?xml version="1.0" encoding="iso-8859-1"?>
<!-- Generator: Adobe Illustrator 17.1.0, SVG Export Plug-In . SVG Version: 6.00 Build 0)  -->
<!DOCTYPE svg PUBLIC "-//W3C//DTD SVG 1.1//EN" "http://www.w3.org/Graphics/SVG/1.1/DTD/svg11.dtd">
<svg version="1.1" id="Capa_1" xmlns="http://www.w3.org/2000/svg" xmlns:xlink="http://www.w3.org/1999/xlink" x="0px" y="0px"
	 viewBox="0 0 550.391 550.391" style="enable-background:new 0 0 550.391 550.391;" xml:space="preserve">
<path d="M542.891,233.516H437.398c11.499-8.118,22.332-19.402,32.036-33.581c18.611-27.198,30.174-61.826,30.174-90.372
	c0-58.475-47.572-106.047-106.047-106.047S287.514,51.089,287.514,109.564c0,0.898,0.012,1.803,0.034,2.713
	c0.004,0.138,0.011,0.276,0.015,0.415c0.802,27.919,12.187,61.031,30.124,87.244c9.703,14.179,20.537,25.463,32.036,33.581h-47.9
	v-38.646c0-9.771-11.878-21.572-26.628-21.572c-14.683,0-26.628,11.945-26.628,26.628v33.589h-47.9
	c11.499-8.118,22.332-19.402,32.035-33.581c18.612-27.198,30.174-61.826,30.174-90.372c0-58.475-47.573-106.047-106.047-106.047
	S50.783,51.089,50.783,109.564c0,0.898,0.012,1.803,0.034,2.713c0.004,0.138,0.011,0.276,0.015,0.415
	c0.802,27.919,12.187,61.031,30.125,87.244c9.703,14.179,20.536,25.463,32.035,33.581H7.5c-4.142,0-7.5,3.358-7.5,7.5v24.328
	c0,4.142,3.358,7.5,7.5,7.5h105.492c-11.499,8.118-22.332,19.402-32.035,33.581c-17.938,26.212-29.323,59.325-30.125,87.244
	c-0.004,0.138-0.012,0.276-0.015,0.415c-0.023,0.91-0.034,1.815-0.034,2.713c0,58.475,47.572,106.047,106.047,106.047
	c39.12,0,73.357-21.295,91.738-52.899v89.429c0,4.142,3.358,7.5,7.5,7.5h38.256c4.143,0,7.5-3.358,7.5-7.5v-89.429
	c18.381,31.604,52.617,52.899,91.737,52.899c58.475,0,106.047-47.573,106.047-106.047c0-28.545-11.563-63.174-30.174-90.372
	c-9.703-14.179-20.537-25.463-32.036-33.581h105.493c4.143,0,7.5-3.358,7.5-7.5v-24.328
	C550.391,236.874,547.034,233.516,542.891,233.516z M156.83,215.611c14.744,0,29.018-2.97,42.424-8.828
	c3.795-1.658,5.528-6.08,3.87-9.875c-1.659-3.796-6.08-5.53-9.875-3.87c-11.501,5.025-23.754,7.573-36.418,7.573
	c-49.418,0-89.767-39.576-91.017-88.699c-0.019-0.788-0.03-1.571-0.03-2.348c0-50.204,40.843-91.047,91.047-91.047
	s91.047,40.843,91.047,91.047c0,25.282-10.646,49.639-29.208,66.825c-3.04,2.814-3.222,7.56-0.408,10.599
	c1.012,1.093,2.275,1.811,3.618,2.158c-0.512,0.779-1.031,1.552-1.555,2.319c-18.289,26.725-41.431,42.052-63.494,42.052
	c-20.307,0-41.526-12.994-59.036-35.9C114.68,208.974,134.994,215.611,156.83,215.611z M393.561,215.611
	c14.744,0,29.018-2.97,42.424-8.828c3.796-1.658,5.528-6.08,3.87-9.875c-1.659-3.797-6.081-5.529-9.876-3.87
	c-11.501,5.025-23.754,7.573-36.418,7.573c-49.418,0-89.767-39.576-91.017-88.699c-0.019-0.788-0.03-1.571-0.03-2.348
	c0-50.204,40.844-91.047,91.047-91.047s91.047,40.843,91.047,91.047c0,25.283-10.646,49.64-29.208,66.825
	c-3.039,2.814-3.222,7.559-0.408,10.599c1.012,1.093,2.275,1.811,3.618,2.158c-0.512,0.779-1.031,1.552-1.556,2.319
	c-18.288,26.725-41.431,42.052-63.493,42.052c-20.307,0-41.526-12.994-59.035-35.899
	C351.412,208.975,371.725,215.611,393.561,215.611z M455.4,329.972c18.563,17.186,29.208,41.542,29.208,66.825
	c0,50.204-40.844,91.047-91.047,91.047s-91.047-40.844-91.047-91.047c0-0.777,0.011-1.561,0.03-2.348
	c1.25-49.123,41.599-88.699,91.017-88.699c12.663,0,24.916,2.548,36.418,7.574c3.796,1.659,8.218-0.074,9.876-3.87
	s-0.074-8.217-3.87-9.875c-13.407-5.858-27.681-8.829-42.424-8.829c-21.836,0-42.149,6.636-59.035,17.994
	c17.509-22.906,38.728-35.899,59.035-35.899c22.063,0,45.205,15.328,63.493,42.052c0.525,0.767,1.043,1.54,1.555,2.318
	c-1.342,0.348-2.605,1.065-3.617,2.159C452.178,322.413,452.361,327.158,455.4,329.972z M156.83,487.844
	c-50.204,0-91.047-40.844-91.047-91.047c0-0.777,0.011-1.561,0.03-2.348c1.25-49.123,41.599-88.699,91.017-88.699
	c12.664,0,24.917,2.548,36.418,7.574c3.795,1.659,8.216-0.074,9.875-3.87c1.659-3.795-0.074-8.217-3.87-9.875
	c-13.407-5.858-27.681-8.829-42.424-8.829c-21.836,0-42.15,6.636-59.036,17.994c17.51-22.906,38.729-35.9,59.036-35.9
	c22.063,0,45.206,15.328,63.494,42.052c0.525,0.767,1.043,1.54,1.555,2.319c-1.342,0.348-2.606,1.065-3.618,2.158
	c-2.814,3.039-2.631,7.784,0.408,10.599c18.562,17.186,29.208,41.543,29.208,66.825C247.877,447.001,207.033,487.844,156.83,487.844
	z M317.688,306.426c-6.1,8.915-11.437,18.631-15.864,28.666v-62.247h47.9C338.225,280.962,327.391,292.247,317.688,306.426z
	 M232.703,306.426c-9.703-14.179-20.536-25.463-32.035-33.581h47.9v62.247C244.14,325.056,238.803,315.341,232.703,306.426z
	 M263.567,272.844h23.256v259.03h-23.256V272.844z M15,257.844v-9.328h252.649c4.142,0,7.5-3.358,7.5-7.5s-3.358-7.5-7.5-7.5h-4.082
	v-33.589c0-6.412,5.216-11.628,11.628-11.628c6.423,0,11.12,4.979,11.628,6.758v43.913c-0.185,0.651-0.29,1.336-0.29,2.047
	c0,4.142,3.357,7.5,7.5,7.5h241.357v9.328H15z M235.565,109.564c0-43.415-35.32-78.735-78.735-78.735s-78.735,35.32-78.735,78.735
	s35.32,78.735,78.735,78.735S235.565,152.979,235.565,109.564z M156.83,173.299c-35.144,0-63.735-28.592-63.735-63.735
	s28.592-63.735,63.735-63.735s63.735,28.592,63.735,63.735S191.973,173.299,156.83,173.299z M472.296,109.564
	c0-43.415-35.32-78.735-78.735-78.735s-78.735,35.32-78.735,78.735s35.32,78.735,78.735,78.735S472.296,152.979,472.296,109.564z
	 M393.561,173.299c-35.144,0-63.735-28.592-63.735-63.735s28.592-63.735,63.735-63.735s63.735,28.592,63.735,63.735
	S428.705,173.299,393.561,173.299z M156.83,318.062c-43.415,0-78.735,35.32-78.735,78.735s35.32,78.736,78.735,78.736
	s78.735-35.321,78.735-78.736S200.245,318.062,156.83,318.062z M156.83,460.533c-35.144,0-63.735-28.592-63.735-63.736
	c0-35.144,28.592-63.735,63.735-63.735s63.735,28.592,63.735,63.735C220.565,431.941,191.973,460.533,156.83,460.533z
	 M393.561,318.062c-43.415,0-78.735,35.32-78.735,78.735s35.32,78.736,78.735,78.736s78.735-35.321,78.735-78.736
	S436.976,318.062,393.561,318.062z M393.561,460.533c-35.144,0-63.735-28.592-63.735-63.736c0-35.144,28.592-63.735,63.735-63.735
	s63.735,28.592,63.735,63.735C457.296,431.941,428.705,460.533,393.561,460.533z M196.449,109.564
	c0,21.846-17.773,39.619-39.619,39.619c-21.846,0-39.619-17.773-39.619-39.619s17.773-39.619,39.619-39.619
	c4.142,0,7.5,3.358,7.5,7.5s-3.358,7.5-7.5,7.5c-13.575,0-24.619,11.044-24.619,24.619s11.044,24.619,24.619,24.619
	c13.575,0,24.619-11.044,24.619-24.619c0-4.142,3.358-7.5,7.5-7.5S196.449,105.422,196.449,109.564z M196.449,396.797
	c0,21.846-17.773,39.619-39.619,39.619c-21.846,0-39.619-17.773-39.619-39.619c0-21.846,17.773-39.619,39.619-39.619
	c4.142,0,7.5,3.358,7.5,7.5s-3.358,7.5-7.5,7.5c-13.575,0-24.619,11.044-24.619,24.619c0,13.575,11.044,24.619,24.619,24.619
	c13.575,0,24.619-11.044,24.619-24.619c0-4.142,3.358-7.5,7.5-7.5S196.449,392.655,196.449,396.797z M433.18,109.564
	c0,21.846-17.773,39.619-39.619,39.619s-39.619-17.773-39.619-39.619s17.773-39.619,39.619-39.619c4.143,0,7.5,3.358,7.5,7.5
	s-3.357,7.5-7.5,7.5c-13.575,0-24.619,11.044-24.619,24.619s11.044,24.619,24.619,24.619s24.619-11.044,24.619-24.619
	c0-4.142,3.357-7.5,7.5-7.5S433.18,105.422,433.18,109.564z M433.18,396.797c0,21.846-17.773,39.619-39.619,39.619
	s-39.619-17.773-39.619-39.619c0-21.846,17.773-39.619,39.619-39.619c4.143,0,7.5,3.358,7.5,7.5s-3.357,7.5-7.5,7.5
	c-13.575,0-24.619,11.044-24.619,24.619c0,13.575,11.044,24.619,24.619,24.619s24.619-11.044,24.619-24.619
	c0-4.142,3.357-7.5,7.5-7.5S433.18,392.655,433.18,396.797z"/>
<g>
</g>
<g>
</g>
<g>
</g>
<g>
</g>
<g>
</g>
<g>
</g>
<g>
</g>
<g>
</g>
<g>
</g>
<g>
</g>
<g>
</g>
<g>
</g>
<g>
</g>
<g>
</g>
<g>
</g>
</svg>
