<?xml version="1.0" encoding="iso-8859-1"?>
<!-- Generator: Adobe Illustrator 17.1.0, SVG Export Plug-In . SVG Version: 6.00 Build 0)  -->
<!DOCTYPE svg PUBLIC "-//W3C//DTD SVG 1.1//EN" "http://www.w3.org/Graphics/SVG/1.1/DTD/svg11.dtd">
<svg version="1.1" id="Capa_1" xmlns="http://www.w3.org/2000/svg" xmlns:xlink="http://www.w3.org/1999/xlink" x="0px" y="0px"
	 viewBox="0 0 549.931 549.931" style="enable-background:new 0 0 549.931 549.931;" xml:space="preserve">
<path d="M374.152,273.573c-3.583,2.078-4.804,6.667-2.726,10.251c9.788,16.879,14.962,36.178,14.962,55.811
	c0,43.171-25.134,82.313-63.541,100.62v-19.86c0.81-1.18,1.492-2.463,2.013-3.838l12.554-28.615l19.698-46.276
	c0.061-0.142,0.116-0.284,0.168-0.429c3.081-8.684-0.127-18.307-7.802-23.402l-11.465-7.613v-62.437
	c1.894,1.302,3.763,2.642,5.57,4.056c1.371,1.073,3,1.594,4.617,1.594c2.228,0,4.432-0.987,5.911-2.878
	c2.553-3.262,1.979-7.976-1.284-10.528c-4.688-3.669-9.658-7.013-14.814-9.987v-24.975c0-12.522-10.188-22.711-22.711-22.711
	s-22.71,10.188-22.71,22.711v9.376c-5.823-0.812-11.721-1.229-17.627-1.229c-11.825,0-23.488,1.625-34.741,4.835
	c-3.351-2.996-7.758-4.835-12.596-4.835c-10.378,0-18.824,8.391-18.932,18.743c-37.214,22.952-60.155,63.808-60.155,107.68
	c0,49.492,28.542,93.961,73.134,114.673v2.893c0,3.898,2.986,7.146,6.871,7.474l86.172,7.252c0.21,0.018,0.42,0.026,0.629,0.026
	c1.873,0,3.687-0.701,5.076-1.979c1.545-1.421,2.424-3.423,2.424-5.521v-7.788c47.197-19.325,78.541-65.671,78.541-117.03
	c0-22.272-5.873-44.173-16.985-63.336C382.325,272.718,377.737,271.496,374.152,273.573z M292.592,289.297v2.063v15.4
	c-5.95,0.166-11.356,2.532-15.433,6.318c-0.047-0.05-0.079-0.116-0.079-0.19V291.36v-2.063v-14.311v-6.214v-7.476h15.512V289.297z
	 M262.081,274.986v14.311v2.063v21.527c0,0.155-0.126,0.281-0.281,0.281h-14.948c-0.155,0-0.281-0.126-0.281-0.281v-34.713v-3.188
	v-6.062h15.511V274.986z M323.013,234.478c0,0.028,0,0.056,0,0.084v72.181h-15.421V291.36v-2.063v-28.152v-37.674
	c0-0.027,0-0.054,0-0.081v-18.324c0-4.252,3.459-7.711,7.71-7.711c4.252,0,7.711,3.459,7.711,7.711V234.478z M231.57,232.153v36.619
	v6.214v3.188v34.713c0,8.426,6.855,15.281,15.281,15.281h14.948c2.844,0,5.499-0.795,7.781-2.153
	c0.125,0.074,0.245,0.156,0.373,0.227c-0.243,1.359-0.377,2.756-0.377,4.184c0,11.849,8.749,21.693,20.125,23.414
	c-8.184,5.169-13.641,14.278-13.641,24.652v19.993c0,4.143,3.357,7.5,7.5,7.5s7.5-3.357,7.5-7.5v-19.993
	c0-7.806,6.351-14.156,14.157-14.156c4.143,0,7.5-3.357,7.5-7.5v-2.729h11.236c4.143,0,7.5-3.357,7.5-7.5s-3.357-7.5-7.5-7.5
	h-30.695c-4.788,0-8.683-3.895-8.683-8.682c0-4.788,3.895-8.683,8.683-8.683h34.991l12.931,8.587
	c1.881,1.249,2.696,3.579,2.021,5.719l-19.556,45.941l-12.609,28.74c-0.067,0.154-0.13,0.311-0.187,0.469
	c-0.169,0.468-0.442,0.878-0.785,1.212c-0.012,0.012-0.024,0.023-0.036,0.036c-0.587,0.555-1.375,0.885-2.215,0.885
	c-4.143,0-7.5,3.357-7.5,7.5s3.357,7.5,7.5,7.5c0.011,0,0.023-0.001,0.034-0.001v21.835c-0.177,0.914-0.183,1.868,0,2.818v3.311
	l-71.172-5.99v-0.874c0-0.023,0-0.047,0-0.07v-21.251c0.914,0.144,1.845,0.223,2.789,0.223h44.097c4.143,0,7.5-3.357,7.5-7.5
	s-3.357-7.5-7.5-7.5h-44.097c-1.421,0-2.693-0.952-3.095-2.314c-0.004-0.014-0.009-0.026-0.013-0.04
	c-0.018-0.061-0.039-0.121-0.059-0.182c-0.019-0.058-0.036-0.117-0.056-0.175l-10.574-29.712c-1.314-4.53-1.981-9.218-1.981-13.937
	V232.153c0-2.173,1.769-3.941,3.942-3.941C229.801,228.212,231.57,229.98,231.57,232.153z M292.592,229.599v16.698h-15.664
	c-5.606,0-10.497,3.123-13.023,7.722c-0.549-0.062-1.106-0.094-1.672-0.094H246.57v-21.771c0-0.09-0.012-0.177-0.013-0.267
	c9.228-2.427,18.752-3.675,28.409-3.675C280.881,228.212,286.787,228.678,292.592,229.599z M163.542,339.635
	c0-35.463,17.018-68.684,45.145-89.556v116.894c0,6.222,0.892,12.401,2.649,18.368c0.039,0.133,0.082,0.264,0.128,0.395
	l10.212,28.694v23.082C186.023,418.134,163.542,380.866,163.542,339.635z M458.118,150.704l-0.133-0.041
	c-10.855-3.337-18.132-13.209-18.106-24.565l0.267-118.581c0.005-1.992-0.784-3.903-2.19-5.313C436.547,0.793,434.637,0,432.645,0
	h-66.078c-4.143,0-7.5,3.357-7.5,7.5v4.696c-13.099,32.688-46.71,54.566-84.102,54.566c-37.392,0-71.003-21.878-84.103-54.566V7.5
	c0-4.143-3.357-7.5-7.5-7.5h-66.077c-4.143,0-7.5,3.357-7.5,7.5v118.737c0,11.284-7.238,21.121-18.011,24.479
	c-3.134,0.977-5.269,3.878-5.269,7.16v384.555c0,4.143,3.357,7.5,7.5,7.5h361.918c4.143,0,7.5-3.357,7.5-7.5V157.876
	C463.424,154.579,461.271,151.668,458.118,150.704z M274.965,81.763c33.41,0,64.272-15.147,83.754-39.546
	c-3.783,42.897-39.89,76.656-83.754,76.656s-79.971-33.759-83.755-76.656C210.692,66.616,241.555,81.763,274.965,81.763z
	 M448.424,534.931H101.506V162.991c14.124-6.631,23.279-20.778,23.279-36.754V15h51.077v19.771
	c0,54.645,44.457,99.102,99.103,99.102c54.645,0,99.102-44.457,99.102-99.102V15h51.062l-0.25,111.064
	c-0.036,16.134,9.228,30.379,23.546,36.97V534.931z"/>
<g>
</g>
<g>
</g>
<g>
</g>
<g>
</g>
<g>
</g>
<g>
</g>
<g>
</g>
<g>
</g>
<g>
</g>
<g>
</g>
<g>
</g>
<g>
</g>
<g>
</g>
<g>
</g>
<g>
</g>
</svg>
