<?xml version="1.0" encoding="iso-8859-1"?>
<!-- Generator: Adobe Illustrator 17.1.0, SVG Export Plug-In . SVG Version: 6.00 Build 0)  -->
<!DOCTYPE svg PUBLIC "-//W3C//DTD SVG 1.1//EN" "http://www.w3.org/Graphics/SVG/1.1/DTD/svg11.dtd">
<svg version="1.1" id="Capa_1" xmlns="http://www.w3.org/2000/svg" xmlns:xlink="http://www.w3.org/1999/xlink" x="0px" y="0px"
	 viewBox="0 0 550.753 550.753" style="enable-background:new 0 0 550.753 550.753;" xml:space="preserve">
<path d="M391.357,75.581c0-0.095-0.011-0.188-0.014-0.282C391.038,33.728,357.138,0,315.497,0h-80.241
	c-41.641,0-75.542,33.728-75.846,75.299c-0.003,0.094-0.014,0.187-0.014,0.282c0,0.032,0.004,0.062,0.005,0.093
	c0,0.062-0.005,0.124-0.005,0.186v162.161c0,0.063,0.005,0.124,0.005,0.187c0,0.032-0.005,0.062-0.005,0.094
	c0,0.096,0.011,0.189,0.014,0.283c0.252,34.218,23.27,63.102,54.63,72.255l1.062,14.881h-9.508c-2.084,0-4.074,0.867-5.493,2.394
	s-2.139,3.574-1.987,5.653l1.982,27.12c0.286,3.919,3.55,6.953,7.48,6.953h10.532l1.438,20.154c0.28,3.925,3.546,6.966,7.481,6.966
	h3.263c-1.873,1.364-3.094,3.567-3.094,6.061v142.23c0,4.143,3.358,7.5,7.5,7.5h81.36c4.143,0,7.5-3.357,7.5-7.5v-142.23
	c0-2.494-1.222-4.697-3.094-6.061h3.263c3.935,0,7.201-3.041,7.481-6.966l1.438-20.154h10.531c3.93,0,7.193-3.034,7.48-6.953
	l1.982-27.12c0.151-2.079-0.568-4.127-1.987-5.653s-3.409-2.394-5.493-2.394h-9.508l1.062-14.881
	c31.36-9.153,54.378-38.038,54.63-72.255c0.004-0.095,0.014-0.188,0.014-0.283c0-0.032-0.004-0.062-0.005-0.094
	c0-0.063,0.005-0.124,0.005-0.187V75.86c0-0.062-0.005-0.124-0.005-0.186C391.353,75.643,391.357,75.613,391.357,75.581z
	 M214.548,352.842l-0.886-12.12h2.508l0.861,12.12H214.548z M336.205,352.842h-2.482l0.86-12.12h2.508L336.205,352.842z
	 M308.556,535.753h-66.36v-127.23h30.503c4.142,0,7.5-3.357,7.5-7.5s-3.358-7.5-7.5-7.5h-16.943v-6.061v-33.18h12.12v12.84
	c0,4.143,3.358,7.5,7.5,7.5s7.5-3.357,7.5-7.5v-12.84h12.12v33.18v6.3c-3.247,0.824-5.651,3.758-5.651,7.261
	c0,4.143,3.357,7.5,7.5,7.5h11.711V535.753z M320.118,332.669c-0.001,0.007-0.002,0.014-0.003,0.022l-0.202,2.842l-3.171,44.43
	h-6.745v-33.18c0-4.143-3.357-7.5-7.5-7.5h-54.241c-4.142,0-7.5,3.357-7.5,7.5v33.18h-6.745l-4.735-66.338
	c1.975,0.155,3.965,0.258,5.98,0.258h80.241c2.015,0,4.005-0.103,5.98-0.258L320.118,332.669z M322.997,298.403v-19.422
	c0-4.143-3.357-7.5-7.5-7.5s-7.5,3.357-7.5,7.5v19.9h-25.12v-19.9c0-4.143-3.358-7.5-7.5-7.5s-7.5,3.357-7.5,7.5v19.9h-25.12v-19.9
	c0-4.143-3.358-7.5-7.5-7.5s-7.5,3.357-7.5,7.5v19.422c-27.477-3.394-49.327-25.163-52.846-52.601h65.785c4.142,0,7.5-3.357,7.5-7.5
	s-3.358-7.5-7.5-7.5h-66.299v-25.681h66.299c4.142,0,7.5-3.357,7.5-7.5s-3.358-7.5-7.5-7.5h-66.299v-25.68h66.299
	c4.142,0,7.5-3.357,7.5-7.5s-3.358-7.5-7.5-7.5h-66.299v-25.681h66.299c4.142,0,7.5-3.357,7.5-7.5s-3.358-7.5-7.5-7.5h-66.299
	v-25.68h66.299c4.142,0,7.5-3.357,7.5-7.5s-3.358-7.5-7.5-7.5H174.91c3.519-27.439,25.368-49.208,52.846-52.602V34.9
	c0,4.143,3.358,7.5,7.5,7.5s7.5-3.357,7.5-7.5V15h25.12v19.9c0,4.143,3.358,7.5,7.5,7.5s7.5-3.357,7.5-7.5V15h25.12v19.9
	c0,4.143,3.357,7.5,7.5,7.5s7.5-3.357,7.5-7.5V15.479c27.478,3.394,49.327,25.163,52.846,52.602h-5.546c-4.143,0-7.5,3.357-7.5,7.5
	s3.357,7.5,7.5,7.5h6.061v25.68h-66.3c-4.143,0-7.5,3.357-7.5,7.5s3.357,7.5,7.5,7.5h66.3v25.681h-66.3c-4.143,0-7.5,3.357-7.5,7.5
	s3.357,7.5,7.5,7.5h66.3v25.68h-66.3c-4.143,0-7.5,3.357-7.5,7.5s3.357,7.5,7.5,7.5h66.3v25.681h-66.3c-4.143,0-7.5,3.357-7.5,7.5
	s3.357,7.5,7.5,7.5h65.785C372.323,273.241,350.474,295.009,322.997,298.403z M302.557,75.581c0-4.143,3.357-7.5,7.5-7.5h37.585
	c4.143,0,7.5,3.357,7.5,7.5s-3.357,7.5-7.5,7.5h-37.585C305.915,83.081,302.557,79.724,302.557,75.581z M275.376,135.881
	c-11.613,0-21.06,9.447-21.06,21.061c0,11.612,9.447,21.06,21.06,21.06s21.06-9.447,21.06-21.06
	C296.436,145.328,286.989,135.881,275.376,135.881z M275.376,163.001c-3.341,0-6.06-2.719-6.06-6.06c0-3.342,2.719-6.061,6.06-6.061
	s6.06,2.719,6.06,6.061C281.436,160.282,278.718,163.001,275.376,163.001z M297.074,420.643h-43.395c-4.142,0-7.5,3.357-7.5,7.5
	v87.99c0,4.143,3.358,7.5,7.5,7.5h43.395c4.143,0,7.5-3.357,7.5-7.5v-87.99C304.574,424,301.217,420.643,297.074,420.643z
	 M289.574,508.633h-28.395v-72.99h28.395V508.633z"/>
<g>
</g>
<g>
</g>
<g>
</g>
<g>
</g>
<g>
</g>
<g>
</g>
<g>
</g>
<g>
</g>
<g>
</g>
<g>
</g>
<g>
</g>
<g>
</g>
<g>
</g>
<g>
</g>
<g>
</g>
</svg>
