<?xml version="1.0" encoding="iso-8859-1"?>
<!-- Generator: Adobe Illustrator 17.1.0, SVG Export Plug-In . SVG Version: 6.00 Build 0)  -->
<!DOCTYPE svg PUBLIC "-//W3C//DTD SVG 1.1//EN" "http://www.w3.org/Graphics/SVG/1.1/DTD/svg11.dtd">
<svg version="1.1" id="Capa_1" xmlns="http://www.w3.org/2000/svg" xmlns:xlink="http://www.w3.org/1999/xlink" x="0px" y="0px"
	 viewBox="0 0 556.443 556.443" style="enable-background:new 0 0 556.443 556.443;" xml:space="preserve">
<path d="M384.772,181.295c-0.388-0.438-38.909-44.084-52.363-60.429c-8.971-10.895-34.84-48.055-40.268-55.874
	c0.076-1.252,0.12-2.507,0.12-3.758c0-15.312-5.662-29.318-14.986-40.066c-0.197-0.266-0.406-0.526-0.643-0.77
	c-0.041-0.042-0.086-0.078-0.128-0.119C265.288,7.837,249.057,0,231.026,0c-33.765,0-61.233,27.47-61.233,61.234
	c0,17.307,7.229,32.947,18.811,44.095c0.062,0.069,0.117,0.141,0.182,0.208c0.216,0.223,0.445,0.424,0.68,0.615
	c10.926,10.117,25.53,16.316,41.56,16.316c0.359,0,0.719-0.012,1.078-0.018c0.023,0.016,0.043,0.035,0.066,0.051
	c0.05,0.035,3.069,2.124,7.694,5.352v41.842v41.926c0,1.7,0.572,3.263,1.525,4.521v304.032c-32.71,1.652-49.035,7.409-49.761,7.67
	c-2.975,1.072-4.958,3.895-4.958,7.057v14.044c0,4.143,3.357,7.5,7.5,7.5h130.268c4.143,0,7.5-3.357,7.5-7.5v-14.044
	c0-3.173-1.997-6.003-4.986-7.066c-0.732-0.261-17.208-5.999-49.736-7.657l0.004-304.035c0.953-1.258,1.525-2.821,1.525-4.521
	v-41.926v0v0l-0.001-14.145c4.866,3.59,8.466,6.345,10.755,8.23c16.343,13.451,59.988,51.974,60.427,52.361
	c1.422,1.256,3.194,1.878,4.963,1.878c1.924,0,3.845-0.737,5.305-2.196l24.26-24.26
	C387.255,188.761,387.395,184.265,384.772,181.295z M234.871,107.292c-1.279,0.105-2.563,0.176-3.845,0.176
	c-9.423,0-18.193-2.84-25.51-7.7l64.825-62.827c4.382,7.065,6.92,15.387,6.92,24.294c0,1.283-0.071,2.567-0.177,3.845
	L234.871,107.292z M231.026,15c11.179,0,21.442,3.989,29.445,10.616l-65.959,63.927c-6.083-7.829-9.719-17.649-9.719-28.309
	C184.793,35.74,205.533,15,231.026,15z M263.746,169.695v34.425h-8.881v-34.426c0-2.448,1.992-4.44,4.44-4.44
	S263.746,167.246,263.746,169.695L263.746,169.695z M316.939,540.565v0.878H201.672v-0.906c7.375-1.855,23.04-4.952,47.436-5.659
	c4.057-0.118,7.283-3.439,7.283-7.497V219.12h5.83l-0.004,308.262c0,4.057,3.226,7.378,7.28,7.497
	C293.613,535.585,309.467,538.709,316.939,540.565z M275.615,134.74c-2.283-1.64-5.294-1.864-7.797-0.578
	c-2.501,1.284-4.074,3.86-4.074,6.673l0.001,9.95c-1.428-0.335-2.91-0.531-4.439-0.531c-1.53,0-3.012,0.196-4.44,0.532v-13.586
	c2.607,0.263,5.275-0.845,6.892-3.139c2.385-3.387,1.573-8.065-1.813-10.451c-4.476-3.152-8.594-6.034-11.862-8.314l35.845-35.844
	c6.837,9.802,19.089,27.252,28.307,39.731l-24.42,24.42C284.344,141.039,280.28,138.086,275.615,134.74z M354.566,200.236
	c-12.012-10.573-41.135-36.126-54.768-47.405l21.664-21.664c11.282,13.636,36.833,42.756,47.405,54.768L354.566,200.236z"/>
<g>
</g>
<g>
</g>
<g>
</g>
<g>
</g>
<g>
</g>
<g>
</g>
<g>
</g>
<g>
</g>
<g>
</g>
<g>
</g>
<g>
</g>
<g>
</g>
<g>
</g>
<g>
</g>
<g>
</g>
</svg>
