<?xml version="1.0" encoding="iso-8859-1"?>
<!-- Generator: Adobe Illustrator 17.1.0, SVG Export Plug-In . SVG Version: 6.00 Build 0)  -->
<!DOCTYPE svg PUBLIC "-//W3C//DTD SVG 1.1//EN" "http://www.w3.org/Graphics/SVG/1.1/DTD/svg11.dtd">
<svg version="1.1" id="Capa_1" xmlns="http://www.w3.org/2000/svg" xmlns:xlink="http://www.w3.org/1999/xlink" x="0px" y="0px"
	 viewBox="0 0 550.752 550.752" style="enable-background:new 0 0 550.752 550.752;" xml:space="preserve">
<path d="M364.96,34.051C346.441,11.456,316.301,0,275.376,0s-71.065,11.456-89.583,34.051
	c-34.299,41.849-20.385,111.333-12.071,152.848c0.927,4.628,1.802,8.999,2.518,12.875c2.923,15.819,15.122,28.277,29.744,31.422
	l10.984,236.028c0.182,3.924,3.36,7.02,7.26,7.14l0.524,9.076h-0.292c-2.058,0-4.026,0.846-5.442,2.34
	c-1.417,1.493-2.156,3.504-2.047,5.559l2.786,52.313c0.212,3.982,3.502,7.102,7.489,7.102h96.263c3.987,0,7.277-3.119,7.489-7.102
	l2.786-52.313c0.109-2.055-0.63-4.065-2.047-5.559c-1.416-1.494-3.384-2.34-5.442-2.34h-0.293l0.524-9.076
	c3.9-0.12,7.078-3.216,7.26-7.14l10.983-236.028c14.622-3.145,26.821-15.604,29.744-31.423c0.716-3.874,1.591-8.245,2.518-12.873
	C385.344,145.385,399.259,75.9,364.96,34.051z M318.383,498.439l-1.987,37.313h-82.04l-1.987-37.313H318.383z M239.775,483.439
	l-0.523-9.064h48.854c4.142,0,7.5-3.357,7.5-7.5s-3.358-7.5-7.5-7.5h-56.488l-8.78-188.67h65.268c4.142,0,7.5-3.357,7.5-7.5
	s-3.358-7.5-7.5-7.5H222.14l-1.104-23.731h108.681l-1.104,23.731h-6.21c-4.142,0-7.5,3.357-7.5,7.5s3.358,7.5,7.5,7.5h5.512
	l-8.78,188.67h-5.57c-4.142,0-7.5,3.357-7.5,7.5c0,3.432,2.307,6.318,5.453,7.21l-0.54,9.355H239.775z M337.573,216.974H213.178
	c-10.377,0-20.124-8.753-22.189-19.926c-0.736-3.985-1.622-8.41-2.56-13.095c-7.792-38.911-20.833-104.037,8.965-140.394
	C212.926,24.608,239.163,15,275.376,15s62.45,9.608,77.982,28.56c29.799,36.357,16.757,101.483,8.964,140.395
	c-0.938,4.685-1.824,9.108-2.56,13.094C357.698,208.221,347.951,216.974,337.573,216.974z"/>
<g>
</g>
<g>
</g>
<g>
</g>
<g>
</g>
<g>
</g>
<g>
</g>
<g>
</g>
<g>
</g>
<g>
</g>
<g>
</g>
<g>
</g>
<g>
</g>
<g>
</g>
<g>
</g>
<g>
</g>
</svg>
