<?xml version="1.0" encoding="iso-8859-1"?>
<!-- Generator: Adobe Illustrator 17.1.0, SVG Export Plug-In . SVG Version: 6.00 Build 0)  -->
<!DOCTYPE svg PUBLIC "-//W3C//DTD SVG 1.1//EN" "http://www.w3.org/Graphics/SVG/1.1/DTD/svg11.dtd">
<svg version="1.1" id="Capa_1" xmlns="http://www.w3.org/2000/svg" xmlns:xlink="http://www.w3.org/1999/xlink" x="0px" y="0px"
	 viewBox="0 0 550.753 550.753" style="enable-background:new 0 0 550.753 550.753;" xml:space="preserve">
<path d="M281.432,36.109c0-4.143,3.357-7.5,7.5-7.5h5.492c4.143,0,7.5,3.357,7.5,7.5s-3.357,7.5-7.5,7.5h-5.492
	C284.789,43.609,281.432,40.252,281.432,36.109z M345.498,529.75v13.503c0,4.143-3.357,7.5-7.5,7.5H212.755
	c-4.143,0-7.5-3.357-7.5-7.5V529.75c0-3.162,1.983-5.985,4.959-7.057c0.71-0.256,16.667-5.88,48.616-7.425V224.357
	c-3.839-0.329-6.853-3.543-6.853-7.467v-53.388h-1.147c-3.891,0-7.136-2.976-7.472-6.852l-2.655-30.608
	c-9.173-6.144-15.225-16.601-15.225-28.447V34.218C225.479,15.35,240.828,0,259.696,0h31.36c18.868,0,34.218,15.35,34.218,34.218
	v63.378c0,11.846-6.052,22.302-15.224,28.446l-2.655,30.609c-0.336,3.876-3.581,6.852-7.472,6.852h-1.147v53.388
	c0,3.924-3.014,7.138-6.853,7.467v290.915c31.769,1.55,47.87,7.156,48.587,7.411C343.501,523.747,345.498,526.577,345.498,529.75z
	 M241.318,28.609h20.504c4.143,0,7.5,3.357,7.5,7.5s-3.357,7.5-7.5,7.5h-21.344v4.901h21.344c4.143,0,7.5,3.357,7.5,7.5
	s-3.357,7.5-7.5,7.5h-21.344v4.791h21.344c4.143,0,7.5,3.357,7.5,7.5s-3.357,7.5-7.5,7.5h-21.344v4.902h21.344
	c4.143,0,7.5,3.357,7.5,7.5s-3.357,7.5-7.5,7.5h-20.504c1.666,5.448,5.688,9.876,10.878,12.084v-1.683c0-4.143,3.357-7.5,7.5-7.5
	s7.5,3.357,7.5,7.5v3.209h16.36v-3.209c0-4.143,3.357-7.5,7.5-7.5s7.5,3.357,7.5,7.5v1.683c5.189-2.208,9.212-6.636,10.878-12.084
	h-20.503c-4.143,0-7.5-3.357-7.5-7.5s3.357-7.5,7.5-7.5h21.343v-4.902h-21.343c-4.143,0-7.5-3.357-7.5-7.5s3.357-7.5,7.5-7.5h21.343
	v-4.791h-21.343c-4.143,0-7.5-3.357-7.5-7.5s3.357-7.5,7.5-7.5h21.343V43.28c-3.068-0.94-5.3-3.794-5.3-7.171
	c0-3.118,1.902-5.789,4.609-6.921c-1.552-5.709-5.657-10.378-11.027-12.663v1.683c0,4.143-3.357,7.5-7.5,7.5s-7.5-3.357-7.5-7.5V15
	h-16.36v3.209c0,4.143-3.357,7.5-7.5,7.5s-7.5-3.357-7.5-7.5v-1.683C247.007,18.734,242.984,23.161,241.318,28.609z M256.245,131.64
	l1.463,16.862h1.77h31.799h1.77l1.463-16.862c-1.135,0.114-2.287,0.174-3.452,0.174h-31.36
	C258.531,131.813,257.38,131.754,256.245,131.64z M266.978,163.502v45.888h16.799v-45.888H266.978z M330.498,535.425
	c-7.352-1.81-22.814-4.813-46.274-5.432c-4.137-0.108-7.403-3.548-7.301-7.685l0.001-0.023V224.39h-3.094l0.001,297.916
	c0.104,4.139-3.164,7.579-7.303,7.687c-23.557,0.614-38.954,3.609-46.273,5.421v0.34h110.243V535.425z"/>
<g>
</g>
<g>
</g>
<g>
</g>
<g>
</g>
<g>
</g>
<g>
</g>
<g>
</g>
<g>
</g>
<g>
</g>
<g>
</g>
<g>
</g>
<g>
</g>
<g>
</g>
<g>
</g>
<g>
</g>
</svg>
