<?xml version="1.0" encoding="iso-8859-1"?>
<!-- Generator: Adobe Illustrator 17.1.0, SVG Export Plug-In . SVG Version: 6.00 Build 0)  -->
<!DOCTYPE svg PUBLIC "-//W3C//DTD SVG 1.1//EN" "http://www.w3.org/Graphics/SVG/1.1/DTD/svg11.dtd">
<svg version="1.1" id="Capa_1" xmlns="http://www.w3.org/2000/svg" xmlns:xlink="http://www.w3.org/1999/xlink" x="0px" y="0px"
	 viewBox="0 0 550.752 550.752" style="enable-background:new 0 0 550.752 550.752;" xml:space="preserve">
<path d="M364.652,439.137c0.007,0,0.014,0.001,0.021,0.001c0.076,0,0.152-0.011,0.227-0.013c0.194-0.006,0.387-0.013,0.577-0.034
	c0.1-0.011,0.198-0.031,0.298-0.045c0.177-0.026,0.354-0.055,0.527-0.093c0.093-0.021,0.185-0.047,0.277-0.071
	c0.185-0.049,0.367-0.103,0.547-0.166c0.081-0.028,0.162-0.058,0.243-0.089c0.201-0.078,0.397-0.165,0.59-0.259
	c0.044-0.021,0.089-0.036,0.133-0.058c0.02-0.01,0.038-0.023,0.058-0.034c0.139-0.073,0.272-0.154,0.406-0.235
	c0.083-0.051,0.169-0.099,0.25-0.152c0.104-0.069,0.203-0.145,0.303-0.219c0.103-0.075,0.207-0.148,0.304-0.228
	c0.064-0.053,0.124-0.111,0.187-0.166c0.123-0.107,0.246-0.214,0.361-0.328c0.036-0.036,0.068-0.075,0.103-0.111
	c0.132-0.138,0.263-0.276,0.384-0.423c0.036-0.043,0.067-0.091,0.102-0.135c0.112-0.143,0.224-0.286,0.325-0.435
	c0.072-0.106,0.134-0.217,0.201-0.327c0.056-0.093,0.117-0.182,0.168-0.277c0.094-0.171,0.177-0.349,0.258-0.528
	c0.017-0.038,0.038-0.074,0.054-0.112c0.078-0.18,0.144-0.366,0.208-0.554c0.014-0.042,0.032-0.082,0.045-0.124
	c0.05-0.156,0.089-0.317,0.129-0.477c0.02-0.079,0.044-0.157,0.061-0.237c0.026-0.123,0.043-0.249,0.063-0.374
	c0.02-0.123,0.043-0.246,0.057-0.371c0.01-0.095,0.014-0.191,0.021-0.287c0.012-0.158,0.022-0.316,0.024-0.476
	c0-0.022,0.003-0.043,0.003-0.064V163.764c0-0.248-0.013-0.496-0.037-0.744c-0.01-0.106-0.031-0.21-0.045-0.315
	c-0.019-0.137-0.036-0.275-0.063-0.411c-0.024-0.121-0.058-0.239-0.087-0.358c-0.03-0.118-0.056-0.237-0.091-0.355
	s-0.08-0.23-0.121-0.345c-0.042-0.116-0.08-0.233-0.127-0.348c-0.045-0.108-0.097-0.211-0.147-0.317
	c-0.055-0.116-0.106-0.234-0.167-0.348c-0.054-0.101-0.116-0.197-0.174-0.295c-0.067-0.112-0.13-0.226-0.203-0.335
	c-0.072-0.107-0.151-0.207-0.228-0.31c-0.07-0.093-0.134-0.189-0.208-0.279c-0.146-0.178-0.301-0.348-0.463-0.512
	c-0.012-0.012-0.022-0.025-0.033-0.037c-0.01-0.01-0.022-0.019-0.032-0.029c-0.165-0.163-0.337-0.32-0.517-0.467
	c-0.089-0.073-0.183-0.137-0.275-0.206c-0.104-0.078-0.206-0.159-0.315-0.231c-0.108-0.073-0.221-0.135-0.332-0.202
	c-0.099-0.059-0.195-0.121-0.297-0.175c-0.114-0.061-0.23-0.112-0.346-0.167c-0.106-0.05-0.21-0.103-0.319-0.148
	c-0.113-0.047-0.228-0.084-0.342-0.125c-0.116-0.042-0.231-0.087-0.351-0.123c-0.115-0.035-0.233-0.061-0.35-0.09
	c-0.12-0.03-0.239-0.064-0.362-0.088c-0.136-0.027-0.273-0.043-0.41-0.063c-0.105-0.015-0.209-0.035-0.316-0.046
	c-0.247-0.024-0.495-0.037-0.743-0.037h-65.048V7.5c0-4.142-3.357-7.5-7.5-7.5h-33.484c-4.143,0-7.5,3.358-7.5,7.5v148.761h-65.05
	c-0.03,0-0.059,0.004-0.089,0.005c-0.216,0.003-0.433,0.012-0.648,0.033c-0.122,0.012-0.241,0.034-0.361,0.052
	c-0.122,0.018-0.244,0.032-0.365,0.056c-0.133,0.026-0.261,0.062-0.391,0.095c-0.107,0.027-0.215,0.05-0.321,0.082
	c-0.126,0.038-0.249,0.086-0.373,0.13c-0.107,0.039-0.215,0.074-0.321,0.117c-0.115,0.048-0.226,0.104-0.339,0.157
	c-0.109,0.052-0.22,0.1-0.327,0.157c-0.108,0.058-0.21,0.123-0.315,0.186c-0.105,0.063-0.212,0.123-0.315,0.192
	c-0.114,0.076-0.22,0.161-0.33,0.242c-0.087,0.065-0.176,0.125-0.261,0.195c-0.181,0.148-0.354,0.305-0.52,0.47
	c-0.01,0.01-0.021,0.018-0.03,0.027c-0.012,0.012-0.022,0.026-0.034,0.038c-0.161,0.163-0.316,0.333-0.462,0.511
	c-0.076,0.093-0.143,0.191-0.214,0.286c-0.075,0.1-0.153,0.198-0.222,0.302c-0.075,0.112-0.14,0.228-0.208,0.342
	c-0.057,0.096-0.117,0.189-0.17,0.287c-0.063,0.117-0.115,0.237-0.171,0.356c-0.048,0.103-0.099,0.203-0.143,0.308
	c-0.048,0.117-0.088,0.236-0.13,0.355c-0.04,0.112-0.083,0.223-0.118,0.338c-0.036,0.12-0.063,0.241-0.093,0.362
	c-0.029,0.116-0.062,0.231-0.085,0.349c-0.028,0.142-0.045,0.285-0.065,0.427c-0.014,0.1-0.033,0.198-0.043,0.298
	c-0.025,0.249-0.038,0.498-0.038,0.748v267.871c0,0.022,0.003,0.043,0.003,0.065c0.001,0.159,0.012,0.317,0.024,0.475
	c0.007,0.096,0.01,0.193,0.021,0.289c0.014,0.123,0.036,0.245,0.056,0.367c0.02,0.127,0.038,0.254,0.064,0.379
	c0.017,0.078,0.04,0.153,0.059,0.23c0.04,0.163,0.08,0.325,0.131,0.483c0.013,0.04,0.03,0.079,0.043,0.119
	c0.064,0.189,0.131,0.377,0.21,0.559c0.016,0.037,0.036,0.072,0.052,0.108c0.082,0.181,0.166,0.36,0.26,0.533
	c0.047,0.087,0.103,0.169,0.154,0.254c0.071,0.118,0.138,0.237,0.215,0.35c0.094,0.139,0.199,0.272,0.303,0.405
	c0.043,0.054,0.081,0.112,0.125,0.165c0.115,0.139,0.239,0.27,0.364,0.4c0.042,0.044,0.08,0.091,0.123,0.133
	c0.109,0.109,0.227,0.21,0.343,0.312c0.069,0.061,0.135,0.124,0.206,0.182c0.092,0.075,0.19,0.143,0.286,0.214
	c0.106,0.079,0.212,0.16,0.323,0.233c0.075,0.049,0.154,0.093,0.23,0.14c0.14,0.086,0.281,0.17,0.427,0.247
	c0.018,0.01,0.035,0.021,0.053,0.031c0.041,0.021,0.083,0.034,0.124,0.054c0.195,0.096,0.394,0.184,0.597,0.263
	c0.082,0.032,0.163,0.061,0.245,0.09c0.177,0.061,0.357,0.115,0.54,0.164c0.095,0.025,0.189,0.052,0.285,0.073
	c0.17,0.038,0.344,0.066,0.518,0.092c0.102,0.015,0.203,0.036,0.305,0.047c0.189,0.02,0.381,0.027,0.574,0.033
	c0.077,0.002,0.153,0.013,0.23,0.013c0.007,0,0.014-0.001,0.021-0.001h65.034v104.115c0,4.142,3.357,7.5,7.5,7.5h33.484
	c4.143,0,7.5-3.358,7.5-7.5V439.137H364.652z M258.634,171.261h33.484h54.443l-14.764,14.764H218.955l-14.764-14.764H258.634z
	 M296.804,291.082c4.143,0,7.5-3.358,7.5-7.5s-3.357-7.5-7.5-7.5h-73.456v-7.514h104.056v7.514h-5.287c-4.143,0-7.5,3.358-7.5,7.5
	s3.357,7.5,7.5,7.5h5.287v7.514H223.348v-7.514H296.804z M223.348,231.053v-7.514h104.056v7.514H223.348z M327.403,246.053v7.514
	H223.348v-7.514H327.403z M327.403,313.596v7.514H223.348v-7.514H327.403z M223.348,343.624v-7.514h104.056v7.514H223.348z
	 M327.403,208.539H223.348v-7.514h104.056V208.539z M223.348,358.624h104.056v7.514H223.348V358.624z M342.403,371.826V196.631
	l14.765-14.764v218.729L342.403,371.826z M208.348,196.632v175.194l-14.764,28.769V181.868L208.348,196.632z M220.429,381.138
	h109.893l22.067,42.999h-60.271h-33.484h-60.271L220.429,381.138z M266.134,15h18.484v141.261h-18.484V15z M284.618,535.752h-18.484
	v-96.615h18.484V535.752z M307.132,29.823c0-4.142,3.357-7.5,7.5-7.5h50.228c4.143,0,7.5,3.358,7.5,7.5s-3.357,7.5-7.5,7.5h-50.228
	C310.489,37.323,307.132,33.965,307.132,29.823z M307.132,52.146c0-4.142,3.357-7.5,7.5-7.5h27.904c4.143,0,7.5,3.358,7.5,7.5
	s-3.357,7.5-7.5,7.5h-27.904C310.489,59.646,307.132,56.288,307.132,52.146z M372.359,74.469c0,4.142-3.357,7.5-7.5,7.5h-50.228
	c-4.143,0-7.5-3.358-7.5-7.5s3.357-7.5,7.5-7.5h50.228C369.002,66.969,372.359,70.327,372.359,74.469z M307.132,96.792
	c0-4.142,3.357-7.5,7.5-7.5h27.904c4.143,0,7.5,3.358,7.5,7.5s-3.357,7.5-7.5,7.5h-27.904
	C310.489,104.292,307.132,100.934,307.132,96.792z M372.359,119.115c0,4.142-3.357,7.5-7.5,7.5h-50.228c-4.143,0-7.5-3.358-7.5-7.5
	s3.357-7.5,7.5-7.5h50.228C369.002,111.615,372.359,114.973,372.359,119.115z M314.632,148.938c-4.143,0-7.5-3.358-7.5-7.5
	s3.357-7.5,7.5-7.5h27.904c4.143,0,7.5,3.358,7.5,7.5s-3.357,7.5-7.5,7.5H314.632z M178.393,29.823c0-4.142,3.357-7.5,7.5-7.5
	h50.227c4.143,0,7.5,3.358,7.5,7.5s-3.357,7.5-7.5,7.5h-50.227C181.75,37.323,178.393,33.965,178.393,29.823z M243.619,52.146
	c0,4.142-3.357,7.5-7.5,7.5h-27.903c-4.143,0-7.5-3.358-7.5-7.5s3.357-7.5,7.5-7.5h27.903
	C240.262,44.646,243.619,48.004,243.619,52.146z M178.393,74.469c0-4.142,3.357-7.5,7.5-7.5h50.227c4.143,0,7.5,3.358,7.5,7.5
	s-3.357,7.5-7.5,7.5h-50.227C181.75,81.969,178.393,78.611,178.393,74.469z M243.619,96.792c0,4.142-3.357,7.5-7.5,7.5h-27.903
	c-4.143,0-7.5-3.358-7.5-7.5s3.357-7.5,7.5-7.5h27.903C240.262,89.292,243.619,92.65,243.619,96.792z M178.393,119.115
	c0-4.142,3.357-7.5,7.5-7.5h50.227c4.143,0,7.5,3.358,7.5,7.5s-3.357,7.5-7.5,7.5h-50.227
	C181.75,126.615,178.393,123.257,178.393,119.115z M342.536,446.46c4.143,0,7.5,3.358,7.5,7.5s-3.357,7.5-7.5,7.5h-27.904
	c-4.143,0-7.5-3.358-7.5-7.5s3.357-7.5,7.5-7.5H342.536z M372.359,476.283c0,4.142-3.357,7.5-7.5,7.5h-50.228
	c-4.143,0-7.5-3.358-7.5-7.5s3.357-7.5,7.5-7.5h50.228C369.002,468.783,372.359,472.141,372.359,476.283z M307.132,498.606
	c0-4.142,3.357-7.5,7.5-7.5h27.904c4.143,0,7.5,3.358,7.5,7.5s-3.357,7.5-7.5,7.5h-27.904
	C310.489,506.106,307.132,502.748,307.132,498.606z M372.359,520.929c0,4.142-3.357,7.5-7.5,7.5h-50.228c-4.143,0-7.5-3.358-7.5-7.5
	s3.357-7.5,7.5-7.5h50.228C369.002,513.429,372.359,516.787,372.359,520.929z M243.619,453.96c0,4.142-3.357,7.5-7.5,7.5h-27.903
	c-4.143,0-7.5-3.358-7.5-7.5s3.357-7.5,7.5-7.5h27.903C240.262,446.46,243.619,449.818,243.619,453.96z M243.619,476.283
	c0,4.142-3.357,7.5-7.5,7.5h-50.227c-4.143,0-7.5-3.358-7.5-7.5s3.357-7.5,7.5-7.5h50.227
	C240.262,468.783,243.619,472.141,243.619,476.283z M243.619,498.606c0,4.142-3.357,7.5-7.5,7.5h-27.903c-4.143,0-7.5-3.358-7.5-7.5
	s3.357-7.5,7.5-7.5h27.903C240.262,491.106,243.619,494.464,243.619,498.606z M243.619,520.929c0,4.142-3.357,7.5-7.5,7.5h-50.227
	c-4.143,0-7.5-3.358-7.5-7.5s3.357-7.5,7.5-7.5h50.227C240.262,513.429,243.619,516.787,243.619,520.929z M243.619,141.438
	c0,4.142-3.357,7.5-7.5,7.5h-27.903c-4.143,0-7.5-3.358-7.5-7.5s3.357-7.5,7.5-7.5h27.903
	C240.262,133.938,243.619,137.296,243.619,141.438z"/>
<g>
</g>
<g>
</g>
<g>
</g>
<g>
</g>
<g>
</g>
<g>
</g>
<g>
</g>
<g>
</g>
<g>
</g>
<g>
</g>
<g>
</g>
<g>
</g>
<g>
</g>
<g>
</g>
<g>
</g>
</svg>
