<?xml version="1.0" encoding="iso-8859-1"?>
<!-- Generator: Adobe Illustrator 17.1.0, SVG Export Plug-In . SVG Version: 6.00 Build 0)  -->
<!DOCTYPE svg PUBLIC "-//W3C//DTD SVG 1.1//EN" "http://www.w3.org/Graphics/SVG/1.1/DTD/svg11.dtd">
<svg version="1.1" id="Capa_1" xmlns="http://www.w3.org/2000/svg" xmlns:xlink="http://www.w3.org/1999/xlink" x="0px" y="0px"
	 viewBox="0 0 540.687 540.687" style="enable-background:new 0 0 540.687 540.687;" xml:space="preserve">
<path d="M533.187,314.468h-30.205c-1.664-26.699-12.182-52.753-30.683-75.783v-84.526c0-37.147-21.415-71.852-60.301-97.722
	c-37.944-25.244-88.252-39.146-141.654-39.146c-53.403,0-103.711,13.902-141.655,39.146c-38.886,25.87-60.301,60.575-60.301,97.722
	v84.528c-18.501,23.029-29.019,49.083-30.683,75.782H7.5c-4.143,0-7.5,3.358-7.5,7.5c0,4.142,3.357,7.5,7.5,7.5h30.205
	c2.433,39.971,24.293,77.293,62.343,106.428L79.504,456.44c-2.929,2.929-2.929,7.678,0,10.606c1.465,1.464,3.385,2.197,5.304,2.197
	s3.839-0.732,5.304-2.197l22.332-22.333c41.262,27.268,94.134,42.742,150.4,44.007v27.175c0,4.142,3.357,7.5,7.5,7.5
	s7.5-3.358,7.5-7.5v-27.175c56.354-1.267,109.305-16.787,150.594-44.135l22.46,22.46c1.465,1.465,3.384,2.197,5.304,2.197
	c1.919,0,3.839-0.732,5.304-2.197c2.929-2.929,2.929-7.678,0-10.606l-20.683-20.684c37.938-29.115,59.731-66.382,62.16-106.288
	h30.205c4.143,0,7.5-3.358,7.5-7.5C540.687,317.826,537.329,314.468,533.187,314.468z M270.344,473.816
	c-120.139,0-217.879-68.119-217.879-151.848c0-19.535,5.461-38.895,15.923-56.895v56.895c0,0.368,0.035,0.728,0.087,1.082
	c1.453,35.663,22.7,68.844,60.214,93.801c37.944,25.244,88.252,39.146,141.655,39.146c53.402,0,103.71-13.902,141.654-39.146
	c37.514-24.958,58.761-58.138,60.214-93.801c0.051-0.354,0.087-0.713,0.087-1.082v-56.896
	c10.462,18.001,15.923,37.362,15.923,56.896C488.222,405.697,390.482,473.816,270.344,473.816z M113.617,240.682
	c-0.316,0.83-0.497,1.727-0.497,2.668v78.618c0,4.142,3.357,7.5,7.5,7.5s7.5-3.358,7.5-7.5v-70.475
	c0.191,0.128,0.376,0.26,0.568,0.388c37.944,25.244,88.252,39.147,141.655,39.147c48.72,0,95.732-11.844,132.377-33.349
	c3.572-2.096,4.769-6.692,2.673-10.264c-2.098-3.573-6.694-4.767-10.265-2.672c-34.378,20.175-78.694,31.286-124.785,31.286
	c-103.088,0-186.956-54.67-186.956-121.869c0-65.56,79.833-119.186,179.456-121.762v81.504c0,4.142,3.357,7.5,7.5,7.5
	s7.5-3.358,7.5-7.5V32.397c99.622,2.576,179.455,56.202,179.455,121.762c0,19.303-6.803,37.797-20.219,54.968
	c-2.55,3.264-1.972,7.978,1.293,10.528c3.264,2.549,7.976,1.972,10.527-1.292c3.104-3.973,5.895-8.057,8.398-12.225v112.992
	c0,67.198-83.868,121.868-186.955,121.868c-56.883,0-107.906-16.651-142.224-42.862v-29.784c0-4.142-3.357-7.5-7.5-7.5
	s-7.5,3.358-7.5,7.5v16.651c-18.806-19.007-29.732-41.623-29.732-65.874V206.294C90.841,218.637,100.986,230.208,113.617,240.682z"
	/>
<g>
</g>
<g>
</g>
<g>
</g>
<g>
</g>
<g>
</g>
<g>
</g>
<g>
</g>
<g>
</g>
<g>
</g>
<g>
</g>
<g>
</g>
<g>
</g>
<g>
</g>
<g>
</g>
<g>
</g>
</svg>
