<?xml version="1.0" encoding="iso-8859-1"?>
<!-- Generator: Adobe Illustrator 17.1.0, SVG Export Plug-In . SVG Version: 6.00 Build 0)  -->
<!DOCTYPE svg PUBLIC "-//W3C//DTD SVG 1.1//EN" "http://www.w3.org/Graphics/SVG/1.1/DTD/svg11.dtd">
<svg version="1.1" id="Capa_1" xmlns="http://www.w3.org/2000/svg" xmlns:xlink="http://www.w3.org/1999/xlink" x="0px" y="0px"
	 viewBox="0 0 548.476 548.476" style="enable-background:new 0 0 548.476 548.476;" xml:space="preserve">
<path d="M531.778,0H163.863c-4.142,0-7.5,3.357-7.5,7.5v354.163c-14.541-7.979-30.787-12.145-47.687-12.145
	c-54.853,0-99.479,44.626-99.479,99.479s44.626,99.479,99.479,99.479s99.479-44.626,99.479-99.479V125.374h279.332v236.289
	c-14.541-7.979-30.788-12.145-47.687-12.145c-54.853,0-99.479,44.626-99.479,99.479s44.626,99.479,99.479,99.479
	c54.853,0,99.479-44.626,99.479-99.479V7.5C539.278,3.357,535.92,0,531.778,0z M524.278,448.997
	c0,46.582-37.897,84.479-84.479,84.479c-46.582,0-84.479-37.897-84.479-84.479c0-46.582,37.897-84.479,84.479-84.479
	c18.446,0,35.972,5.841,50.683,16.891c2.271,1.707,5.312,1.983,7.856,0.713c2.542-1.27,4.148-3.868,4.148-6.709V117.874
	c0-4.142-3.358-7.5-7.5-7.5H200.655c-4.142,0-7.5,3.358-7.5,7.5v331.123c0,46.582-37.897,84.479-84.479,84.479
	s-84.479-37.897-84.479-84.479c0-46.582,37.897-84.479,84.479-84.479c18.446,0,35.972,5.841,50.683,16.891
	c2.272,1.707,5.313,1.983,7.856,0.713c2.542-1.27,4.148-3.867,4.148-6.709V15h352.915V448.997z M441.026,509.61
	c0,4.142-3.358,7.5-7.5,7.5c-37.558,0-68.113-30.555-68.113-68.113c0-21.401,10.254-41.825,27.431-54.633
	c3.32-2.477,8.02-1.792,10.496,1.529c2.476,3.32,1.792,8.02-1.529,10.496c-13.598,10.14-21.397,25.67-21.397,42.608
	c0,29.286,23.826,53.113,53.113,53.113C437.668,502.11,441.026,505.468,441.026,509.61z M475.89,405.011
	c-1.474,1.961-3.725,2.996-6.002,2.996c-1.568,0-3.148-0.49-4.499-1.504c-9.247-6.947-20.265-10.619-31.863-10.619
	c-4.142,0-7.5-3.358-7.5-7.5s3.358-7.5,7.5-7.5c14.873,0,29.006,4.711,40.873,13.625C477.71,396.998,478.378,401.699,475.89,405.011
	z M110.455,509.61c0,4.142-3.358,7.5-7.5,7.5c-37.558,0-68.113-30.555-68.113-68.113c0-21.401,10.254-41.825,27.43-54.633
	c3.32-2.476,8.019-1.792,10.496,1.529c2.476,3.32,1.792,8.02-1.529,10.496c-13.598,10.141-21.397,25.671-21.397,42.609
	c0,29.286,23.826,53.113,53.113,53.113C107.097,502.11,110.455,505.468,110.455,509.61z M145.319,405.011
	c-1.474,1.962-3.724,2.996-6.002,2.996c-1.568,0-3.148-0.49-4.499-1.504c-9.248-6.947-20.266-10.619-31.863-10.619
	c-4.142,0-7.5-3.358-7.5-7.5s3.358-7.5,7.5-7.5c14.873,0,29.006,4.711,40.872,13.625
	C147.139,396.997,147.807,401.699,145.319,405.011z"/>
<g>
</g>
<g>
</g>
<g>
</g>
<g>
</g>
<g>
</g>
<g>
</g>
<g>
</g>
<g>
</g>
<g>
</g>
<g>
</g>
<g>
</g>
<g>
</g>
<g>
</g>
<g>
</g>
<g>
</g>
</svg>
