<?xml version="1.0" encoding="iso-8859-1"?>
<!-- Generator: Adobe Illustrator 17.1.0, SVG Export Plug-In . SVG Version: 6.00 Build 0)  -->
<!DOCTYPE svg PUBLIC "-//W3C//DTD SVG 1.1//EN" "http://www.w3.org/Graphics/SVG/1.1/DTD/svg11.dtd">
<svg version="1.1" id="Capa_1" xmlns="http://www.w3.org/2000/svg" xmlns:xlink="http://www.w3.org/1999/xlink" x="0px" y="0px"
	 viewBox="0 0 550.466 550.466" style="enable-background:new 0 0 550.466 550.466;" xml:space="preserve">
<path d="M490.606,458.443c0.061-0.074,0.113-0.152,0.17-0.228c0.09-0.119,0.182-0.237,0.266-0.362
	c0.066-0.099,0.124-0.202,0.185-0.303c0.065-0.108,0.132-0.214,0.192-0.325c0.057-0.107,0.106-0.218,0.158-0.328
	c0.053-0.111,0.109-0.222,0.156-0.336c0.045-0.109,0.081-0.22,0.121-0.331c0.043-0.12,0.089-0.239,0.127-0.362
	c0.034-0.112,0.058-0.225,0.087-0.338c0.031-0.124,0.066-0.247,0.091-0.373c0.026-0.132,0.042-0.266,0.061-0.399
	c0.016-0.108,0.036-0.215,0.047-0.326c0.024-0.247,0.037-0.495,0.037-0.744V7.5c0-4.142-3.358-7.5-7.5-7.5H65.663
	c-4.142,0-7.5,3.358-7.5,7.5v535.466c0,4.142,3.358,7.5,7.5,7.5h329.899c2.241,0,4.247-0.988,5.621-2.547l88.917-88.917
	C490.278,458.825,490.446,458.638,490.606,458.443z M73.163,15h404.141v431.193h-8.447c-4.142,0-7.5,3.358-7.5,7.5
	c0,3.482,2.377,6.401,5.594,7.246l-63.888,63.888v-63.634h35.269c4.142,0,7.5-3.358,7.5-7.5s-3.358-7.5-7.5-7.5h-42.769
	c-4.142,0-7.5,3.358-7.5,7.5v81.773H73.163V15z M390.485,408.389c1.411-1.942,1.807-4.443,1.065-6.727L351.9,279.631l105.933-76.965
	c2.629-1.91,3.729-5.295,2.725-8.385c-1.004-3.09-3.884-5.182-7.133-5.182H328.52l-14.167-25.291v-25.976h71.597
	c4.142,0,7.5-3.357,7.5-7.5V94.944c0-4.142-3.358-7.5-7.5-7.5h-96.496l-7.433-22.876c-1.004-3.09-3.884-5.183-7.133-5.183
	s-6.129,2.092-7.133,5.183l-40.463,124.531H96.353c-3.249,0-6.129,2.092-7.133,5.182c-1.004,3.09,0.096,6.475,2.725,8.385
	l105.933,76.965l-40.462,124.531c-1.004,3.09,0.096,6.476,2.725,8.385c1.314,0.955,2.861,1.432,4.408,1.432s3.094-0.478,4.408-1.432
	l105.933-76.964l102.493,74.465c1.281,0.931,2.824,1.432,4.408,1.432h2.628C386.818,411.48,389.074,410.331,390.485,408.389z
	 M378.45,122.832h-71.597c-4.142,0-7.5,3.358-7.5,7.5v35.512c0,0.014,0,0.027,0,0.041v102.353c0,16.987-13.82,30.807-30.807,30.807
	c-16.987,0-30.807-13.82-30.807-30.807c0-16.987,13.82-30.807,30.807-30.807c4.308,0,8.962,1.037,13.107,2.92
	c2.321,1.054,5.02,0.857,7.163-0.523c2.144-1.381,3.439-3.756,3.439-6.306V102.444h86.195V122.832z M279.296,320.245
	c-2.628-1.91-6.188-1.91-8.816,0l-91.667,66.6l35.014-107.761c1.004-3.09-0.096-6.476-2.725-8.386l-91.667-66.6h113.307
	c3.249,0,6.129-2.093,7.133-5.183l35.014-107.761l2.367,7.285v124.866c-2.919-0.575-5.86-0.875-8.709-0.875
	c-25.258,0-45.807,20.549-45.807,45.807c0,25.258,20.549,45.807,45.807,45.807c25.258,0,45.807-20.549,45.807-45.807V194.5
	l3.229,5.763c1.327,2.368,3.829,3.835,6.543,3.835h106.217l-91.667,66.6c-2.629,1.91-3.729,5.295-2.725,8.386l35.014,107.761
	L279.296,320.245z"/>
<g>
</g>
<g>
</g>
<g>
</g>
<g>
</g>
<g>
</g>
<g>
</g>
<g>
</g>
<g>
</g>
<g>
</g>
<g>
</g>
<g>
</g>
<g>
</g>
<g>
</g>
<g>
</g>
<g>
</g>
</svg>
