<?xml version="1.0" encoding="iso-8859-1"?>
<!-- Generator: Adobe Illustrator 17.1.0, SVG Export Plug-In . SVG Version: 6.00 Build 0)  -->
<!DOCTYPE svg PUBLIC "-//W3C//DTD SVG 1.1//EN" "http://www.w3.org/Graphics/SVG/1.1/DTD/svg11.dtd">
<svg version="1.1" id="Capa_1" xmlns="http://www.w3.org/2000/svg" xmlns:xlink="http://www.w3.org/1999/xlink" x="0px" y="0px"
	 viewBox="0 0 549.93 549.93" style="enable-background:new 0 0 549.93 549.93;" xml:space="preserve">
<path d="M414.452,108.453H189.124c-4.142,0-7.5,3.358-7.5,7.5v206.243c-7.919-3.545-16.515-5.382-25.399-5.382
	c-34.37,0-62.332,27.962-62.332,62.332s27.962,62.332,62.332,62.332c38.185,0,69.332-27.962,69.332-62.332V189.251h153.461v132.944
	c-7.918-3.544-16.515-5.382-25.398-5.382c-34.37,0-62.332,27.962-62.332,62.332s27.962,62.332,62.332,62.332
	s68.332-27.962,68.332-62.332V115.953C421.952,111.811,418.594,108.453,414.452,108.453z M406.952,379.146
	c0,26.099-27.233,47.332-53.332,47.332s-47.332-21.233-47.332-47.332s21.233-47.332,47.332-47.332
	c10.335,0,20.153,3.272,28.394,9.463c2.272,1.707,5.315,1.982,7.856,0.713c2.542-1.27,4.148-3.868,4.148-6.71V181.751
	c0-4.142-3.357-7.5-7.5-7.5H218.057c-4.142,0-7.5,3.358-7.5,7.5v197.395c0,26.099-28.233,47.332-54.332,47.332
	s-47.332-21.233-47.332-47.332s21.233-47.332,47.332-47.332c10.335,0,20.154,3.272,28.395,9.463
	c2.272,1.707,5.313,1.982,7.856,0.713c2.542-1.271,4.148-3.868,4.148-6.71V123.453h210.328V379.146z M361.842,412.497
	c0,3.708-3.006,6.715-6.715,6.715c-21.541,0-39.065-17.524-39.065-39.065c0-12.275,5.881-23.988,15.731-31.333
	c2.974-2.217,7.181-1.604,9.397,1.369c2.216,2.973,1.604,7.18-1.369,9.397c-6.564,4.895-10.329,12.392-10.329,20.568
	c0,14.135,11.5,25.636,25.635,25.636C358.836,405.782,361.842,408.788,361.842,412.497z M379.906,358.298
	c-1.319,1.756-3.334,2.682-5.374,2.682c-1.403,0-2.819-0.438-4.028-1.346c-4.462-3.352-9.779-5.124-15.378-5.124
	c-3.709,0-6.715-3.006-6.715-6.715s3.006-6.715,6.715-6.715c8.531,0,16.637,2.703,23.444,7.816
	C381.536,351.124,382.134,355.333,379.906,358.298z M164.183,412.497c0,3.708-3.006,6.715-6.715,6.715
	c-21.541,0-39.065-17.524-39.065-39.065c0-12.275,5.881-23.988,15.731-31.333c2.974-2.217,7.181-1.604,9.397,1.369
	c2.216,2.973,1.604,7.18-1.369,9.397c-6.564,4.895-10.329,12.392-10.329,20.568c0,14.135,11.5,25.636,25.635,25.636
	C161.177,405.782,164.183,408.788,164.183,412.497z M182.247,358.298c-1.319,1.756-3.334,2.682-5.374,2.682
	c-1.403,0-2.819-0.438-4.028-1.346c-4.462-3.352-9.779-5.124-15.378-5.124c-3.709,0-6.715-3.006-6.715-6.715
	s3.006-6.715,6.715-6.715c8.531,0,16.637,2.703,23.444,7.816C183.877,351.124,184.475,355.333,182.247,358.298z M496.188,438.263
	c35.174-47.541,53.742-103.917,53.742-163.297c0-73.446-28.602-142.496-80.535-194.43C417.46,28.602,348.411,0,274.965,0
	S132.47,28.602,80.536,80.536S0,201.52,0,274.965s28.602,142.496,80.536,194.429c51.934,51.934,120.983,80.535,194.429,80.535
	c51.378,0,101.373-14.229,144.801-41.184l90.408,20.877c0.58,0.134,1.165,0.197,1.747,0.192c4.124-0.021,7.46-3.371,7.46-7.5
	c0-0.897-0.157-1.757-0.446-2.555L496.188,438.263z M420.693,493.565c-2.047-0.643-4.346-0.403-6.28,0.829
	c-41.639,26.519-89.859,40.535-139.448,40.535C131.62,534.93,15,418.311,15,274.965S131.62,15,274.965,15
	S534.93,131.62,534.93,274.965c0,57.352-18.32,111.738-52.979,157.279c-1.642,2.156-1.932,4.926-0.981,7.292l20.272,72.63
	L420.693,493.565z"/>
<g>
</g>
<g>
</g>
<g>
</g>
<g>
</g>
<g>
</g>
<g>
</g>
<g>
</g>
<g>
</g>
<g>
</g>
<g>
</g>
<g>
</g>
<g>
</g>
<g>
</g>
<g>
</g>
<g>
</g>
</svg>
