<?xml version="1.0" encoding="iso-8859-1"?>
<!-- Generator: Adobe Illustrator 17.1.0, SVG Export Plug-In . SVG Version: 6.00 Build 0)  -->
<!DOCTYPE svg PUBLIC "-//W3C//DTD SVG 1.1//EN" "http://www.w3.org/Graphics/SVG/1.1/DTD/svg11.dtd">
<svg version="1.1" id="Capa_1" xmlns="http://www.w3.org/2000/svg" xmlns:xlink="http://www.w3.org/1999/xlink" x="0px" y="0px"
	 viewBox="0 0 550.279 550.279" style="enable-background:new 0 0 550.279 550.279;" xml:space="preserve">
<path d="M524.608,120.135H119.907v-8.59c0-11.176-9.092-20.268-20.268-20.268h-50.78c-11.176,0-20.269,9.092-20.269,20.268v8.59
	H25.67C11.516,120.135,0,131.651,0,145.806v287.524c0,14.155,11.516,25.671,25.67,25.671h498.938
	c14.155,0,25.671-11.516,25.671-25.671V145.806C550.279,131.651,538.764,120.135,524.608,120.135z M43.591,111.545
	c0-2.904,2.363-5.268,5.269-5.268h50.78c2.904,0,5.268,2.363,5.268,5.268v8.59H43.591V111.545z M535.279,433.331
	c0,5.884-4.787,10.671-10.671,10.671H120.494V197.278c0-4.143-3.357-7.5-7.5-7.5s-7.5,3.357-7.5,7.5v246.724H25.67
	c-5.884,0-10.67-4.787-10.67-10.671V145.806c0-5.884,4.786-10.671,10.67-10.671h10.421h69.403v14.522c0,4.143,3.357,7.5,7.5,7.5
	s7.5-3.357,7.5-7.5v-14.522h404.114c5.884,0,10.671,4.787,10.671,10.671V433.331z M280.912,154.875
	c-74.271,0-134.694,60.423-134.694,134.693s60.424,134.694,134.694,134.694s134.694-60.424,134.694-134.694
	S355.183,154.875,280.912,154.875z M280.912,409.262c-66,0-119.694-53.694-119.694-119.694c0-65.999,53.694-119.693,119.694-119.693
	s119.694,53.694,119.694,119.693C400.606,355.568,346.912,409.262,280.912,409.262z M365.607,220.633
	c-10.257-12.579-23.254-22.837-38.074-29.858c-0.352-0.2-0.715-0.37-1.088-0.509c-13.869-6.385-29.291-9.953-45.533-9.953
	c-60.243,0-109.255,49.012-109.255,109.255c0,34.13,15.735,64.651,40.326,84.701c0.01,0.01,0.019,0.022,0.029,0.032
	c0.395,0.395,0.824,0.731,1.276,1.019c18.615,14.711,42.111,23.503,67.624,23.503c60.243,0,109.255-49.012,109.255-109.256
	c0-25.509-8.79-49.002-23.497-67.615c-0.289-0.455-0.628-0.888-1.025-1.285C365.633,220.655,365.62,220.645,365.607,220.633z
	 M280.912,195.313c10.313,0,20.242,1.67,29.538,4.746L191.403,319.105c-3.075-9.295-4.745-19.224-4.745-29.537
	C186.657,237.595,228.939,195.313,280.912,195.313z M280.912,383.824c-19.24,0-37.149-5.799-52.079-15.735l103.821-103.821
	c2.929-2.93,2.929-7.678,0-10.607c-2.93-2.928-7.678-2.928-10.607,0L216.963,358.744c-7.691-7.115-14.197-15.492-19.185-24.799
	l127.511-127.51c9.307,4.988,17.683,11.494,24.798,19.185l-7.769,7.769c-2.929,2.93-2.929,7.678,0,10.607
	c1.465,1.464,3.385,2.196,5.304,2.196s3.839-0.732,5.304-2.196l6.506-6.506c9.936,14.931,15.735,32.839,15.735,52.08
	C375.167,341.541,332.885,383.824,280.912,383.824z M505.474,154.875h-89.779c-10.739,0-19.476,8.736-19.476,19.476v26.927
	c0,10.739,8.736,19.476,19.476,19.476h89.779c10.739,0,19.476-8.736,19.476-19.476V174.35
	C524.949,163.611,516.213,154.875,505.474,154.875z M468.084,169.875h10.438v35.878h-10.438V169.875z M453.084,205.752h-10.438
	v-35.878h10.438V205.752z M411.219,201.277V174.35c0-2.468,2.008-4.476,4.476-4.476h11.951v35.878h-11.951
	C413.227,205.752,411.219,203.745,411.219,201.277z M509.949,201.277c0,2.468-2.008,4.476-4.476,4.476h-11.951v-35.878h11.951
	c2.468,0,4.476,2.008,4.476,4.476V201.277z M177.694,170.843c0-13.493-10.978-24.471-24.471-24.471
	c-13.492,0-24.47,10.978-24.47,24.471c0,13.492,10.978,24.47,24.47,24.47C166.717,195.313,177.694,184.335,177.694,170.843z
	 M143.754,170.843c0-5.222,4.248-9.471,9.47-9.471s9.471,4.249,9.471,9.471s-4.249,9.47-9.471,9.47S143.754,176.065,143.754,170.843
	z"/>
<g>
</g>
<g>
</g>
<g>
</g>
<g>
</g>
<g>
</g>
<g>
</g>
<g>
</g>
<g>
</g>
<g>
</g>
<g>
</g>
<g>
</g>
<g>
</g>
<g>
</g>
<g>
</g>
<g>
</g>
</svg>
