<?xml version="1.0" encoding="iso-8859-1"?>
<!-- Generator: Adobe Illustrator 17.1.0, SVG Export Plug-In . SVG Version: 6.00 Build 0)  -->
<!DOCTYPE svg PUBLIC "-//W3C//DTD SVG 1.1//EN" "http://www.w3.org/Graphics/SVG/1.1/DTD/svg11.dtd">
<svg version="1.1" id="Capa_1" xmlns="http://www.w3.org/2000/svg" xmlns:xlink="http://www.w3.org/1999/xlink" x="0px" y="0px"
	 viewBox="0 0 549.351 549.351" style="enable-background:new 0 0 549.351 549.351;" xml:space="preserve">
<path d="M547.02,153.333L419.007,31.566c-1.57-1.493-3.618-2.165-5.624-2.043c-0.147-0.009-0.292-0.022-0.441-0.022h-55.944
	c-0.438-0.079-0.889-0.121-1.35-0.121c-4.143,0-7.5,3.357-7.5,7.5c0,1.509-0.06,3.004-0.149,4.491
	c-9.694,23.142-33.845,34.406-73.772,34.406c-39.925,0-64.076-11.263-73.771-34.403c-0.09-1.488-0.149-2.984-0.149-4.494
	c0-4.143-3.357-7.5-7.5-7.5c-0.461,0-0.912,0.042-1.35,0.121h-55.871c-0.072,0-0.142,0.009-0.214,0.011
	c-0.149,0.004-0.298,0.009-0.448,0.022c-0.107,0.009-0.213,0.024-0.319,0.038c-0.136,0.018-0.271,0.037-0.406,0.062
	c-0.112,0.021-0.222,0.046-0.333,0.072c-0.127,0.03-0.253,0.061-0.378,0.097c-0.111,0.032-0.22,0.069-0.329,0.106
	c-0.122,0.042-0.244,0.085-0.364,0.133c-0.107,0.042-0.211,0.089-0.315,0.137c-0.118,0.054-0.234,0.108-0.35,0.168
	c-0.103,0.054-0.204,0.111-0.304,0.169c-0.109,0.063-0.218,0.128-0.325,0.197c-0.104,0.068-0.205,0.141-0.305,0.213
	c-0.096,0.069-0.192,0.138-0.285,0.213c-0.108,0.086-0.21,0.177-0.313,0.269c-0.059,0.053-0.122,0.1-0.18,0.155L2.332,153.333
	c-2.914,2.771-3.125,7.348-0.477,10.374l71.348,81.539c1.474,1.685,3.55,2.562,5.648,2.562c1.482,0,2.976-0.438,4.274-1.34
	l22.297-15.484l0.459,281.5c0.007,4.137,3.362,7.487,7.5,7.487h321.689c4.143,0,7.5-3.357,7.5-7.5V230.042l23.653,16.425
	c1.299,0.902,2.792,1.34,4.274,1.34c2.098,0,4.175-0.878,5.648-2.562l71.347-81.539C550.143,160.681,549.933,156.105,547.02,153.333
	z M274.228,90.776c26.278,0,46.84-4.526,61.987-13.698c-13.195,20.277-36.044,33.723-61.987,33.723
	c-25.943,0-48.791-13.445-61.986-33.722C227.389,86.25,247.951,90.776,274.228,90.776z M469.275,230.323l-26.702-18.543v-29.818
	c0-4.143-3.357-7.5-7.5-7.5s-7.5,3.357-7.5,7.5v323.01H120.87l-0.603-369.41c-0.007-4.138-3.363-7.487-7.5-7.487
	c-0.004,0-0.008,0-0.013,0c-4.142,0.007-7.494,3.37-7.487,7.513l0.126,77.156l-25.316,17.581l-62.193-71.077L138.583,44.5h47.006
	c0.018,0.064,0.042,0.127,0.062,0.191c3.971,45.385,42.178,81.108,88.576,81.108c46.4,0,84.608-35.726,88.577-81.113
	c0.02-0.062,0.043-0.124,0.061-0.187h47.975l120.628,114.743L469.275,230.323z M429.084,147.171v-11.598c0-4.143,3.357-7.5,7.5-7.5
	s7.5,3.357,7.5,7.5v11.598c0,4.143-3.357,7.5-7.5,7.5S429.084,151.314,429.084,147.171z M397.522,264.238h-84.896l-4.1-7.317
	v-23.444h47.123c4.143,0,7.5-3.357,7.5-7.5v-24.438c0-4.143-3.357-7.5-7.5-7.5h-69.676l-4.612-14.195
	c-1.004-3.09-3.884-5.183-7.133-5.183s-6.129,2.092-7.133,5.183l-27.422,84.396h-88.738c-3.249,0-6.129,2.092-7.133,5.183
	c-1.004,3.09,0.096,6.476,2.725,8.385l71.791,52.16l-27.422,84.396c-1.004,3.09,0.096,6.476,2.725,8.385
	c1.314,0.955,2.861,1.433,4.408,1.433s3.094-0.478,4.408-1.433l71.791-52.159l69.415,50.433c1.281,0.932,2.824,1.433,4.408,1.433
	h1.815c2.4,0,4.656-1.149,6.067-3.092s1.808-4.442,1.065-6.726l-26.861-82.669l71.792-52.16c2.629-1.909,3.729-5.295,2.725-8.385
	C403.651,266.33,400.771,264.238,397.522,264.238z M348.149,218.476h-47.123c-4.143,0-7.5,3.357-7.5,7.5v32.991
	c0,0.008,0,0.016,0,0.016v59.225c0,10.451-8.502,18.954-18.953,18.954s-18.954-8.503-18.954-18.954s8.503-18.954,18.954-18.954
	c1.182,0,2.283,0.097,3.369,0.294c2.185,0.402,4.441-0.194,6.149-1.618c1.709-1.425,2.696-3.535,2.696-5.76v-83.133h61.361V218.476z
	 M316.913,321.033c-2.629,1.909-3.729,5.295-2.725,8.385l21.973,67.626l-57.525-41.795c-2.629-1.91-6.188-1.91-8.816,0
	l-57.525,41.794l21.973-67.625c1.004-3.09-0.096-6.476-2.725-8.385l-57.524-41.795h71.104c3.249,0,6.129-2.092,7.133-5.183
	l19.532-60.114v70.426c-17.424,1.422-31.169,16.057-31.169,33.841c0,18.723,15.231,33.954,33.954,33.954
	c18.722,0,33.953-15.231,33.953-33.954v-38.971h65.913L316.913,321.033z"/>
<g>
</g>
<g>
</g>
<g>
</g>
<g>
</g>
<g>
</g>
<g>
</g>
<g>
</g>
<g>
</g>
<g>
</g>
<g>
</g>
<g>
</g>
<g>
</g>
<g>
</g>
<g>
</g>
<g>
</g>
</svg>
