<?xml version="1.0" encoding="iso-8859-1"?>
<!-- Generator: Adobe Illustrator 17.1.0, SVG Export Plug-In . SVG Version: 6.00 Build 0)  -->
<!DOCTYPE svg PUBLIC "-//W3C//DTD SVG 1.1//EN" "http://www.w3.org/Graphics/SVG/1.1/DTD/svg11.dtd">
<svg version="1.1" id="Capa_1" xmlns="http://www.w3.org/2000/svg" xmlns:xlink="http://www.w3.org/1999/xlink" x="0px" y="0px"
	 viewBox="0 0 554.871 554.871" style="enable-background:new 0 0 554.871 554.871;" xml:space="preserve">
<path d="M522.217,257.916L406.72,142.418c-2.146-2.145-5.371-2.789-8.174-1.625c-2.803,1.16-4.63,3.896-4.63,6.929
	c0,14.861-6.344,28.916-17.403,38.559c-44.144,38.479-69.461,94.133-69.461,152.693v106.811c0,5.854-2.282,11.359-6.427,15.504
	c-4.144,4.145-9.655,6.427-15.519,6.427c-8.186,0-15.55-4.567-19.305-11.539c5.408-5.004,8.595-12.086,8.595-19.672
	c0-9.245-4.67-17.611-12.221-22.499l-0.545-17.422c7.804-4.81,12.766-13.403,12.766-22.838c0-10-5.639-19.056-14.205-23.653
	l-0.472-15.205c8.87-4.471,14.677-13.582,14.677-23.914c0-10.947-6.542-20.485-16.19-24.624l-0.412-13.336
	c9.811-4.057,16.602-13.752,16.602-24.799c0-11.672-7.572-21.753-18.161-25.38l-0.365-11.862
	c10.824-3.471,18.526-13.55,18.526-25.53c0-12.484-8.57-23.004-20.135-25.988l-2.792-89.943
	c-0.533-17.116-8.573-33.609-22.64-46.441c-12.934-11.798-29.648-18.842-44.711-18.842H155.3c-0.536,0-1.057,0.058-1.561,0.165
	h-13.03C139.527,1.803,136.922,0,133.889,0H76.023c-2.021,0-3.956,0.815-5.368,2.262l-38.401,39.35
	c-2.107,2.159-2.715,5.37-1.544,8.15s3.895,4.588,6.912,4.588h96.268c3.63,0,6.656-2.578,7.35-6.004h10.45
	c1.071,0.59,2.301,0.927,3.611,0.927h27.648c3.903,0.133,12.461,3.461,17.919,9.211c2.792,2.941,4.169,5.854,4.09,8.654
	l-10.695,377.231c-0.032,1.08-0.047,2.16-0.047,3.225c0,59.153,48.157,107.277,107.35,107.277
	c59.193,0,107.351-48.157,107.351-107.351v-21.683c0-51.682,4.606-82.034,15.401-101.489c10.067-18.142,25.357-26.817,48.503-39.949
	l1.827-1.036c11.174-6.34,21.729-12.328,33.258-12.328h9.324c0.007-0.001,0.015-0.001,0.02,0c4.143,0,7.5-3.357,7.5-7.5
	C524.75,261.298,523.77,259.29,522.217,257.916z M236.832,210.029c0.583,0.255,1.176,0.491,1.779,0.705
	c0.113,0.04,0.227,0.077,0.34,0.115c0.63,0.214,1.268,0.413,1.918,0.58c0.002,0.001,0.005,0.002,0.007,0.002l0.33,10.709
	c-0.037,0.009-0.073,0.022-0.11,0.032c-0.64,0.159-1.269,0.343-1.89,0.547c-0.117,0.039-0.234,0.079-0.351,0.119
	c-0.624,0.215-1.239,0.447-1.841,0.705c-0.066,0.028-0.13,0.06-0.196,0.089c-0.554,0.243-1.097,0.505-1.631,0.783v-15.177
	c0.43,0.225,0.867,0.437,1.311,0.639C236.61,209.928,236.72,209.979,236.832,210.029z M236.282,272.553
	c0.635,0.296,1.282,0.57,1.942,0.816c0.027,0.01,0.053,0.021,0.08,0.031c0.665,0.245,1.346,0.458,2.035,0.652
	c0.097,0.027,0.193,0.056,0.29,0.083c0.667,0.178,1.344,0.329,2.03,0.456c0.06,0.011,0.118,0.029,0.179,0.04l0.305,9.872
	c-0.197,0.033-0.39,0.074-0.585,0.111c-0.166,0.031-0.333,0.06-0.497,0.094c-0.289,0.061-0.575,0.129-0.86,0.199
	c-0.124,0.031-0.25,0.057-0.374,0.089c-0.403,0.105-0.803,0.219-1.199,0.341c-0.119,0.037-0.236,0.08-0.355,0.119
	c-0.278,0.091-0.556,0.182-0.831,0.281c-0.158,0.057-0.314,0.12-0.471,0.18c-0.232,0.089-0.463,0.178-0.692,0.273
	c-0.166,0.069-0.329,0.142-0.494,0.215c-0.216,0.095-0.431,0.191-0.644,0.292c-0.165,0.078-0.329,0.159-0.493,0.24
	c-0.154,0.077-0.309,0.152-0.462,0.232v-15.157c0.292,0.153,0.586,0.303,0.884,0.446
	C236.141,272.491,236.212,272.521,236.282,272.553z M236.185,335.267c0.203,0.096,0.408,0.188,0.615,0.278
	c0.181,0.08,0.361,0.158,0.544,0.234c0.209,0.086,0.421,0.168,0.633,0.25c0.184,0.071,0.368,0.142,0.554,0.208
	c0.216,0.077,0.435,0.149,0.653,0.221c0.186,0.061,0.371,0.124,0.559,0.181c0.226,0.069,0.454,0.131,0.682,0.194
	c0.185,0.051,0.368,0.104,0.554,0.152c0.239,0.061,0.48,0.113,0.722,0.167c0.179,0.04,0.357,0.084,0.538,0.121
	c0.268,0.054,0.54,0.099,0.811,0.145c0.157,0.026,0.312,0.058,0.469,0.082c0.424,0.064,0.851,0.119,1.281,0.164l0.291,9.36
	c-0.044,0.004-0.087,0.011-0.131,0.015c-0.201,0.02-0.4,0.046-0.6,0.07c-0.237,0.028-0.474,0.056-0.708,0.09
	c-0.201,0.03-0.399,0.065-0.598,0.099c-0.23,0.039-0.461,0.078-0.689,0.123c-0.198,0.039-0.394,0.083-0.591,0.126
	c-0.227,0.05-0.454,0.101-0.679,0.157c-0.193,0.048-0.385,0.1-0.577,0.152c-0.224,0.061-0.447,0.124-0.668,0.19
	c-0.189,0.057-0.377,0.116-0.565,0.177c-0.219,0.072-0.438,0.145-0.655,0.222c-0.186,0.066-0.371,0.133-0.555,0.203
	c-0.214,0.082-0.427,0.166-0.639,0.252c-0.181,0.074-0.361,0.149-0.54,0.227c-0.211,0.092-0.421,0.188-0.629,0.285
	c-0.175,0.081-0.349,0.163-0.522,0.248c-0.187,0.092-0.372,0.188-0.556,0.284v-15.171c0.153,0.08,0.309,0.157,0.464,0.234
	C235.828,335.096,236.006,335.183,236.185,335.267z M250.795,362.354c5.065,1.439,8.602,6.124,8.602,11.391
	c0,5.02-3.173,9.506-7.926,11.173c-1.235,0.438-2.55,0.661-3.908,0.661c-6.525,0-11.834-5.309-11.834-11.834
	s5.309-11.834,11.834-11.834C248.681,361.911,249.762,362.059,250.795,362.354z M235.188,412.706v-15.16
	c0.171,0.089,0.342,0.177,0.515,0.262c0.183,0.091,0.367,0.178,0.552,0.264c0.205,0.096,0.411,0.19,0.619,0.281
	c0.187,0.082,0.376,0.16,0.565,0.238c0.211,0.086,0.423,0.171,0.637,0.252c0.19,0.072,0.382,0.142,0.574,0.21
	c0.218,0.077,0.437,0.152,0.658,0.223c0.193,0.063,0.387,0.123,0.582,0.181c0.224,0.067,0.448,0.131,0.674,0.192
	c0.197,0.053,0.394,0.104,0.592,0.153c0.228,0.056,0.458,0.109,0.688,0.159c0.2,0.044,0.4,0.085,0.602,0.124
	c0.233,0.045,0.468,0.087,0.703,0.126c0.202,0.033,0.405,0.066,0.609,0.095c0.238,0.034,0.477,0.064,0.716,0.091
	c0.205,0.024,0.41,0.046,0.617,0.065c0.242,0.022,0.485,0.04,0.729,0.056c0.207,0.013,0.414,0.026,0.623,0.034
	c0.101,0.004,0.201,0.014,0.303,0.017l0.285,9.107c-0.15,0.003-0.297,0.015-0.447,0.02c-0.216,0.008-0.431,0.016-0.645,0.029
	c-0.239,0.014-0.476,0.034-0.714,0.054c-0.213,0.019-0.425,0.037-0.637,0.061c-0.235,0.026-0.469,0.057-0.702,0.089
	c-0.21,0.029-0.419,0.058-0.627,0.091c-0.232,0.038-0.463,0.081-0.693,0.124c-0.206,0.039-0.412,0.078-0.616,0.121
	c-0.229,0.049-0.455,0.103-0.681,0.158c-0.202,0.049-0.404,0.097-0.604,0.15c-0.225,0.06-0.448,0.125-0.671,0.191
	c-0.197,0.058-0.394,0.115-0.589,0.177c-0.221,0.071-0.439,0.147-0.658,0.223c-0.194,0.068-0.388,0.134-0.579,0.206
	c-0.215,0.08-0.427,0.166-0.639,0.252c-0.19,0.077-0.38,0.153-0.568,0.234c-0.211,0.091-0.418,0.187-0.626,0.283
	c-0.184,0.085-0.369,0.169-0.552,0.259C235.585,412.497,235.386,412.602,235.188,412.706z M247.563,424.67
	c1.537,0,3.033,0.289,4.444,0.857c4.489,1.823,7.39,6.131,7.39,10.977c0,4.367-2.387,8.358-6.249,10.43
	c-1.726,0.932-3.605,1.404-5.585,1.404c-6.525,0-11.834-5.309-11.834-11.834S241.037,424.67,247.563,424.67z M250.332,322.468
	c-0.038,0.009-0.075,0.018-0.113,0.027c-0.815,0.206-1.708,0.311-2.657,0.311c-6.525,0-11.834-5.309-11.834-11.833
	c0-0.431,0.026-0.856,0.071-1.275c0.014-0.128,0.04-0.251,0.058-0.378c0.041-0.29,0.084-0.58,0.146-0.863
	c0.031-0.142,0.073-0.281,0.109-0.421c0.067-0.261,0.137-0.521,0.221-0.775c0.047-0.143,0.103-0.283,0.155-0.424
	c0.091-0.243,0.186-0.483,0.292-0.718c0.064-0.141,0.132-0.28,0.202-0.418c0.112-0.224,0.23-0.444,0.355-0.659
	c0.081-0.139,0.164-0.276,0.25-0.412c0.128-0.201,0.263-0.396,0.403-0.589c0.101-0.139,0.201-0.277,0.307-0.411
	c0.136-0.172,0.281-0.337,0.427-0.502c0.125-0.141,0.248-0.283,0.38-0.417c0.132-0.135,0.273-0.262,0.411-0.391
	c0.16-0.148,0.316-0.3,0.484-0.439c0.096-0.08,0.198-0.151,0.296-0.228c1.089-0.851,2.325-1.521,3.67-1.951
	c0.033-0.01,0.066-0.024,0.099-0.034c0.3-0.093,0.607-0.167,0.917-0.236c0.094-0.021,0.187-0.045,0.282-0.064
	c0.27-0.053,0.545-0.091,0.821-0.125c0.151-0.019,0.302-0.038,0.455-0.051c0.229-0.02,0.462-0.029,0.695-0.035
	c0.244-0.006,0.489-0.008,0.736,0.002c0.126,0.005,0.252,0.008,0.379,0.017c0.385,0.027,0.772,0.07,1.163,0.136
	c0.032,0.005,0.063,0.007,0.095,0.013c5.672,0.972,9.789,5.871,9.789,11.649C259.397,316.479,255.669,321.206,250.332,322.468z
	 M249.079,259.945c-0.488,0.068-0.999,0.103-1.517,0.103c-6.525,0-11.834-5.309-11.834-11.834s5.309-11.834,11.834-11.834
	c0.359,0,0.544,0.015,0.607,0.021c0.08,0.008,0.159,0.015,0.239,0.02c6.161,0.42,10.987,5.601,10.987,11.793
	C259.397,254.131,254.988,259.17,249.079,259.945z M259.397,185.441c0,6.432-5.03,11.624-11.452,11.822
	c-0.102,0.003-0.105,0.003-0.207,0.01l-0.175,0.001c-6.525,0-11.834-5.309-11.834-11.833c0-6.44,5.032-11.634,11.457-11.823
	c0.074-0.003,0.148-0.006,0.222-0.01l0.155-0.001C254.088,173.607,259.397,178.916,259.397,185.441z M126.389,39.35h-7.255V15h7.255
	V39.35z M104.134,39.35h-7.812V15h7.812V39.35z M79.183,15h2.14v24.35H55.421L79.183,15z M141.389,19.393h6.411v13.953h-6.411
	V19.393z M467.246,270.316l-1.827,1.037c-23.523,13.346-42.104,23.888-54.217,45.717c-12.115,21.835-17.285,54.364-17.285,108.768
	v21.683c0,50.922-41.429,92.351-92.351,92.351s-92.35-41.396-92.35-92.277c0-0.92,0.014-1.854,0.041-2.793l10.695-377.24
	c0.191-6.839-2.646-13.549-8.206-19.405c-8.417-8.866-20.715-13.694-28.513-13.881c-0.06-0.001-0.12-0.002-0.18-0.002h-20.25V19.228
	h21.314c23,0,51.483,22.638,52.358,50.749l2.791,89.919c-0.043,0.014-0.083,0.032-0.126,0.046c-0.596,0.194-1.183,0.407-1.759,0.64
	c-0.095,0.039-0.189,0.08-0.283,0.119c-0.574,0.24-1.141,0.495-1.693,0.773c-0.019,0.01-0.04,0.018-0.059,0.028
	c-0.054,0.027-0.106,0.056-0.16,0.083v-5.094c0-4.143-3.358-7.5-7.5-7.5s-7.5,3.357-7.5,7.5V474.98c0,4.143,3.358,7.5,7.5,7.5
	s7.5-3.357,7.5-7.5v-14.678c3.706,1.935,7.913,3.036,12.375,3.036c0.72,0,1.438-0.04,2.154-0.098
	c0.187-0.015,0.373-0.033,0.559-0.052c0.644-0.066,1.284-0.151,1.92-0.262c0.059-0.01,0.12-0.014,0.179-0.024
	c6.263,11.963,18.803,19.813,32.732,19.813c9.87,0,19.148-3.843,26.126-10.82c6.977-6.979,10.819-16.251,10.819-26.11V338.974
	c0-54.224,23.442-105.757,64.317-141.387c10.226-8.915,17.339-20.722,20.574-33.731l92.842,92.843
	C487.822,258.643,477.392,264.56,467.246,270.316z M411.558,193.853c2.722,3.123,2.396,7.861-0.727,10.582
	c-30.153,26.275-51.463,62.271-60.004,101.354c-0.767,3.507-3.871,5.9-7.32,5.9c-0.53,0-1.068-0.057-1.608-0.175
	c-4.046-0.885-6.609-4.882-5.726-8.929c9.224-42.209,32.238-81.082,64.803-109.46C404.1,190.405,408.836,190.73,411.558,193.853z
	 M331.507,345.831c0-5.358,0.216-10.781,0.642-16.119c0.33-4.129,3.938-7.193,8.073-6.88c4.129,0.33,7.209,3.944,6.88,8.073
	c-0.395,4.942-0.595,9.964-0.595,14.926c0,4.143-3.357,7.5-7.5,7.5S331.507,349.974,331.507,345.831z M357.979,353.83
	c-15.513,0-28.134,12.621-28.134,28.134s12.621,28.133,28.134,28.133s28.133-12.62,28.133-28.133S373.492,353.83,357.979,353.83z
	 M357.979,395.097c-7.242,0-13.134-5.892-13.134-13.133c0-7.242,5.892-13.134,13.134-13.134c7.241,0,13.133,5.892,13.133,13.134
	C371.112,389.205,365.22,395.097,357.979,395.097z M357.979,414.213c-15.513,0-28.134,12.621-28.134,28.134
	s12.621,28.133,28.134,28.133s28.133-12.62,28.133-28.133S373.492,414.213,357.979,414.213z M357.979,455.479
	c-7.242,0-13.134-5.892-13.134-13.133c0-7.242,5.892-13.134,13.134-13.134c7.241,0,13.133,5.892,13.133,13.134
	C371.112,449.588,365.22,455.479,357.979,455.479z"/>
<g>
</g>
<g>
</g>
<g>
</g>
<g>
</g>
<g>
</g>
<g>
</g>
<g>
</g>
<g>
</g>
<g>
</g>
<g>
</g>
<g>
</g>
<g>
</g>
<g>
</g>
<g>
</g>
<g>
</g>
</svg>
