<?xml version="1.0" encoding="iso-8859-1"?>
<!-- Generator: Adobe Illustrator 17.1.0, SVG Export Plug-In . SVG Version: 6.00 Build 0)  -->
<!DOCTYPE svg PUBLIC "-//W3C//DTD SVG 1.1//EN" "http://www.w3.org/Graphics/SVG/1.1/DTD/svg11.dtd">
<svg version="1.1" id="Capa_1" xmlns="http://www.w3.org/2000/svg" xmlns:xlink="http://www.w3.org/1999/xlink" x="0px" y="0px"
	 viewBox="0 0 550.752 550.752" style="enable-background:new 0 0 550.752 550.752;" xml:space="preserve">
<path d="M61.222,243.119c-13.878,0-25.169,11.291-25.169,25.169s11.291,25.169,25.169,25.169s25.169-11.291,25.169-25.169
	S75.1,243.119,61.222,243.119z M61.222,278.458c-5.607,0-10.169-4.562-10.169-10.169c0-5.607,4.562-10.169,10.169-10.169
	c5.607,0,10.169,4.562,10.169,10.169C71.391,273.896,66.829,278.458,61.222,278.458z M473.985,291.71h-2.449
	c-1.145-6.752-3.808-12.99-7.625-18.358l1.746-1.747c2.929-2.929,2.929-7.678-0.001-10.607c-2.928-2.929-7.677-2.928-10.606,0
	l-1.746,1.746c-5.367-3.817-11.606-6.479-18.358-7.625v-2.449c0-4.142-3.357-7.5-7.5-7.5s-7.5,3.358-7.5,7.5v2.449
	c-6.752,1.145-12.991,3.808-18.359,7.625l-1.747-1.747c-2.928-2.929-7.677-2.928-10.606,0c-2.929,2.929-2.929,7.678,0.001,10.607
	l1.746,1.746c-3.818,5.368-6.48,11.606-7.625,18.358h-2.449c-4.143,0-7.5,3.358-7.5,7.5s3.357,7.5,7.5,7.5h2.449
	c1.145,6.752,3.808,12.991,7.625,18.358l-1.746,1.746c-2.93,2.929-2.93,7.678-0.001,10.607c1.465,1.464,3.384,2.197,5.304,2.197
	c1.919,0,3.839-0.732,5.303-2.196l1.747-1.747c5.368,3.817,11.606,6.48,18.359,7.625v2.449c0,4.142,3.357,7.5,7.5,7.5
	s7.5-3.358,7.5-7.5V343.3c6.752-1.146,12.99-3.808,18.358-7.625l1.746,1.746c1.465,1.464,3.384,2.197,5.304,2.197
	c1.919,0,3.839-0.732,5.303-2.196c2.93-2.929,2.93-7.678,0.001-10.607l-1.746-1.747c3.817-5.367,6.479-11.606,7.625-18.358h2.449
	c4.143,0,7.5-3.358,7.5-7.5S478.128,291.71,473.985,291.71z M427.447,328.941c-16.394,0-29.731-13.337-29.731-29.731
	c0-13.803,9.457-25.438,22.231-28.771v15.195c0,4.142,3.357,7.5,7.5,7.5s7.5-3.358,7.5-7.5v-15.195
	c12.774,3.333,22.23,14.968,22.23,28.771C457.177,315.603,443.841,328.941,427.447,328.941z M43.425,312.334
	c-4.754,4.754-7.372,11.074-7.372,17.797s2.618,13.043,7.372,17.797c4.907,4.907,11.352,7.36,17.797,7.36s12.891-2.454,17.797-7.36
	c9.813-9.813,9.813-25.78,0-35.594C69.206,302.52,53.238,302.52,43.425,312.334z M68.413,337.322
	c-3.965,3.964-10.417,3.965-14.382,0c-1.921-1.92-2.979-4.474-2.979-7.19s1.058-5.27,2.979-7.191
	c1.983-1.983,4.586-2.974,7.191-2.974c2.604,0,5.208,0.991,7.19,2.974C72.377,326.905,72.378,333.357,68.413,337.322z
	 M242.467,243.119c-13.878,0-25.169,11.291-25.169,25.169s11.291,25.169,25.169,25.169c13.878,0,25.169-11.291,25.169-25.169
	S256.345,243.119,242.467,243.119z M242.467,278.458c-5.607,0-10.169-4.562-10.169-10.169c0-5.607,4.562-10.169,10.169-10.169
	s10.169,4.562,10.169,10.169C252.635,273.896,248.074,278.458,242.467,278.458z M224.669,312.334
	c-4.754,4.754-7.372,11.074-7.372,17.797s2.618,13.043,7.372,17.797c4.907,4.907,11.352,7.36,17.797,7.36s12.891-2.454,17.797-7.36
	c9.813-9.813,9.813-25.78,0-35.594C250.45,302.52,234.483,302.52,224.669,312.334z M249.657,337.322
	c-3.965,3.964-10.417,3.965-14.382,0c-1.921-1.92-2.979-4.474-2.979-7.19s1.058-5.27,2.979-7.191
	c1.983-1.983,4.586-2.974,7.191-2.974c2.604,0,5.208,0.991,7.19,2.974C253.622,326.905,253.622,333.357,249.657,337.322z
	 M123.064,243.119c-6.723,0-13.043,2.618-17.797,7.372s-7.372,11.074-7.372,17.797s2.618,13.043,7.372,17.797
	c4.754,4.754,11.074,7.372,17.797,7.372c6.723,0,13.043-2.618,17.797-7.372c4.754-4.754,7.372-11.074,7.372-17.797
	s-2.618-13.043-7.372-17.797C136.108,245.738,129.787,243.119,123.064,243.119z M130.254,275.479
	c-1.92,1.921-4.474,2.979-7.19,2.979s-5.27-1.058-7.191-2.979c-1.921-1.92-2.979-4.474-2.979-7.19s1.058-5.27,2.979-7.191
	s4.475-2.979,7.191-2.979s5.27,1.058,7.19,2.979s2.979,4.475,2.979,7.191S132.176,273.558,130.254,275.479z M184.906,243.119
	c-6.723,0-13.043,2.618-17.797,7.372c-4.754,4.754-7.372,11.074-7.372,17.797s2.618,13.043,7.372,17.797
	c4.754,4.754,11.074,7.372,17.797,7.372s13.043-2.618,17.797-7.372c4.754-4.754,7.372-11.074,7.372-17.797
	s-2.618-13.043-7.372-17.797S191.629,243.119,184.906,243.119z M192.097,275.479c-1.921,1.921-4.475,2.979-7.191,2.979
	s-5.27-1.058-7.19-2.979c-1.921-1.92-2.979-4.474-2.979-7.19s1.058-5.27,2.979-7.191c1.92-1.921,4.474-2.979,7.19-2.979
	s5.27,1.058,7.191,2.979s2.979,4.475,2.979,7.191S194.018,273.558,192.097,275.479z M184.906,304.962
	c-6.723,0-13.043,2.618-17.797,7.372c-4.754,4.754-7.372,11.074-7.372,17.797s2.618,13.043,7.372,17.797
	c4.754,4.754,11.074,7.372,17.797,7.372s13.043-2.618,17.797-7.372c4.754-4.754,7.372-11.074,7.372-17.797
	s-2.618-13.043-7.372-17.797S191.629,304.962,184.906,304.962z M192.097,337.322c-1.921,1.921-4.475,2.979-7.191,2.979
	s-5.27-1.058-7.19-2.979l0,0c-1.921-1.92-2.979-4.474-2.979-7.19s1.058-5.27,2.979-7.191c1.92-1.921,4.474-2.979,7.19-2.979
	s5.27,1.058,7.191,2.979s2.979,4.475,2.979,7.191S194.018,335.401,192.097,337.322z M508.027,304.879
	c-13.9,0-25.21,11.31-25.21,25.21s11.31,25.21,25.21,25.21c13.901,0,25.211-11.31,25.211-25.21S521.928,304.879,508.027,304.879z
	 M508.027,340.3c-5.63,0-10.21-4.581-10.21-10.21s4.58-10.21,10.21-10.21s10.211,4.581,10.211,10.21S513.657,340.3,508.027,340.3z
	 M336.926,248.295h-35.339c-4.143,0-7.5,3.358-7.5,7.5v25.076c0,4.142,3.357,7.5,7.5,7.5h35.339c4.143,0,7.5-3.358,7.5-7.5v-25.076
	C344.426,251.653,341.068,248.295,336.926,248.295z M309.087,273.371v-10.076h20.339v10.076H309.087z M336.926,309.21h-35.339
	c-4.143,0-7.5,3.358-7.5,7.5v25.076c0,4.142,3.357,7.5,7.5,7.5h35.339c4.143,0,7.5-3.358,7.5-7.5V316.71
	C344.426,312.568,341.068,309.21,336.926,309.21z M309.087,334.286V324.21h20.339v10.076H309.087z M550.714,231.438
	c-0.007-0.074-0.022-0.146-0.031-0.22c-0.022-0.169-0.043-0.337-0.077-0.505c-0.026-0.131-0.062-0.257-0.095-0.385
	c-0.027-0.107-0.05-0.215-0.083-0.322c-0.057-0.189-0.126-0.372-0.197-0.554c-0.018-0.045-0.031-0.091-0.049-0.135
	c-0.105-0.253-0.222-0.499-0.353-0.737l-37.776-70.272c-1.308-2.432-3.846-3.949-6.606-3.949H45.308
	c-2.761,0-5.299,1.517-6.606,3.949L0.919,228.588c-0.128,0.234-0.243,0.475-0.346,0.723c-0.026,0.063-0.046,0.128-0.07,0.191
	c-0.063,0.165-0.126,0.329-0.177,0.499c-0.037,0.12-0.063,0.242-0.094,0.363c-0.029,0.115-0.061,0.227-0.085,0.344
	c-0.036,0.179-0.06,0.359-0.082,0.54c-0.008,0.063-0.02,0.124-0.027,0.187c-0.027,0.268-0.04,0.536-0.038,0.804v133.996
	c0,4.142,3.358,7.5,7.5,7.5h6.177v15.159c0,4.142,3.358,7.5,7.5,7.5h43.715c4.142,0,7.5-3.358,7.5-7.5v-15.159h405.969v15.159
	c0,4.142,3.357,7.5,7.5,7.5h43.715c4.143,0,7.5-3.358,7.5-7.5v-15.159h6.176c4.143,0,7.5-3.358,7.5-7.5V232.234
	C550.754,231.969,550.74,231.703,550.714,231.438z M485.861,358.735H64.892H21.177H15v-119.05h462.088c4.143,0,7.5-3.358,7.5-7.5
	s-3.357-7.5-7.5-7.5H20.047l29.744-55.327h451.17l29.743,55.327h-15.808c-4.143,0-7.5,3.358-7.5,7.5s3.357,7.5,7.5,7.5h20.855
	v119.05h-6.176H485.861z M57.392,381.394H28.677v-7.659h28.715V381.394z M522.076,381.394h-28.715v-7.659h28.715V381.394z
	 M148.714,184.066c0-4.142,3.358-7.5,7.5-7.5h238.325c4.143,0,7.5,3.358,7.5,7.5s-3.357,7.5-7.5,7.5H156.214
	C152.072,191.566,148.714,188.208,148.714,184.066z M435.068,207.655c0,4.142-3.357,7.5-7.5,7.5H123.185c-4.142,0-7.5-3.358-7.5-7.5
	s3.358-7.5,7.5-7.5h304.383C431.711,200.155,435.068,203.513,435.068,207.655z"/>
<g>
</g>
<g>
</g>
<g>
</g>
<g>
</g>
<g>
</g>
<g>
</g>
<g>
</g>
<g>
</g>
<g>
</g>
<g>
</g>
<g>
</g>
<g>
</g>
<g>
</g>
<g>
</g>
<g>
</g>
</svg>
