<?xml version="1.0" encoding="iso-8859-1"?>
<!-- Generator: Adobe Illustrator 17.1.0, SVG Export Plug-In . SVG Version: 6.00 Build 0)  -->
<!DOCTYPE svg PUBLIC "-//W3C//DTD SVG 1.1//EN" "http://www.w3.org/Graphics/SVG/1.1/DTD/svg11.dtd">
<svg version="1.1" id="Capa_1" xmlns="http://www.w3.org/2000/svg" xmlns:xlink="http://www.w3.org/1999/xlink" x="0px" y="0px"
	 viewBox="0 0 555.709 555.709" style="enable-background:new 0 0 555.709 555.709;" xml:space="preserve">
<path d="M522.986,0H32.723c-4.142,0-7.5,3.358-7.5,7.5v482.16c0,4.142,3.358,7.5,7.5,7.5h18.604
	c-10.908,4.648-18.575,15.476-18.575,28.062c0,16.811,13.677,30.487,30.487,30.487s30.487-13.677,30.487-30.487
	c0-12.586-7.667-23.414-18.575-28.062H246.72c-10.908,4.648-18.575,15.476-18.575,28.062c0,16.811,13.677,30.487,30.487,30.487
	s30.487-13.677,30.487-30.487c0-12.586-7.667-23.414-18.575-28.062h212.451c-10.073,4.982-17.018,15.364-17.018,27.341
	c0,16.811,13.677,30.487,30.487,30.487s30.487-13.677,30.487-30.487c0-11.977-6.946-22.359-17.018-27.341h13.052
	c4.142,0,7.5-3.358,7.5-7.5V7.5C530.486,3.358,527.128,0,522.986,0z M496.465,539.989c-8.54,0-15.487-6.948-15.487-15.487
	c0-5.819,3.23-10.894,7.987-13.54v13.54c0,4.142,3.358,7.5,7.5,7.5s7.5-3.358,7.5-7.5v-13.54c4.758,2.646,7.987,7.721,7.987,13.54
	C511.952,533.041,505.004,539.989,496.465,539.989z M258.632,540.709c-8.54,0-15.487-6.948-15.487-15.487
	c0-5.819,3.23-10.894,7.987-13.54v13.54c0,4.142,3.358,7.5,7.5,7.5s7.5-3.358,7.5-7.5v-13.54c4.758,2.646,7.987,7.721,7.987,13.54
	C274.119,533.762,267.172,540.709,258.632,540.709z M63.24,540.709c-8.54,0-15.487-6.948-15.487-15.487
	c0-5.819,3.23-10.894,7.987-13.54v13.54c0,4.142,3.358,7.5,7.5,7.5s7.5-3.358,7.5-7.5v-13.54c4.758,2.646,7.987,7.721,7.987,13.54
	C78.727,533.762,71.78,540.709,63.24,540.709z M243.145,482.16v-24.57c0-4.142-3.358-7.5-7.5-7.5s-7.5,3.358-7.5,7.5v24.57H40.223
	V15h187.921v406.419c0,4.142,3.358,7.5,7.5,7.5s7.5-3.358,7.5-7.5V15h272.341v467.16H243.145z M174.949,51.349H91.984
	c-4.142,0-7.5,3.358-7.5,7.5v59.261c0,4.142,3.358,7.5,7.5,7.5h82.965c4.142,0,7.5-3.358,7.5-7.5V58.849
	C182.449,54.707,179.092,51.349,174.949,51.349z M99.484,110.61V66.349h67.965v44.261H99.484z M207.422,20.451H56.427
	c-4.142,0-7.5,3.358-7.5,7.5v381.021c0,4.142,3.358,7.5,7.5,7.5h150.995c4.142,0,7.5-3.358,7.5-7.5V27.951
	C214.922,23.809,211.564,20.451,207.422,20.451z M63.927,401.472V35.451h135.995v366.021H63.927z M207.422,425.413H56.427
	c-4.142,0-7.5,3.358-7.5,7.5v34.846c0,4.142,3.358,7.5,7.5,7.5h150.995c4.142,0,7.5-3.358,7.5-7.5v-34.846
	C214.922,428.771,211.564,425.413,207.422,425.413z M63.927,460.259v-19.846h135.995v19.846H63.927z M161.594,81.6v14.807
	c0,4.142-3.358,7.5-7.5,7.5s-7.5-3.358-7.5-7.5V89.1h-26.255v7.307c0,4.142-3.358,7.5-7.5,7.5s-7.5-3.358-7.5-7.5V81.6
	c0-4.142,3.358-7.5,7.5-7.5h41.255C158.237,74.1,161.594,77.458,161.594,81.6z M499.999,20.451H264.767c-4.142,0-7.5,3.358-7.5,7.5
	V76.24v62.473v0.859v62.473v2.193v71.541v2.06v71.541v71.54v46.839c0,4.142,3.358,7.5,7.5,7.5h235.232c4.142,0,7.5-3.358,7.5-7.5
	V420.92v-71.54v-71.541v-2.06v-71.541v-2.193v-62.473v-0.859V76.24V27.951C507.499,23.809,504.141,20.451,499.999,20.451z
	 M272.267,428.42h220.232v31.839H272.267V428.42z M492.499,413.42H272.267v-56.54h220.232V413.42z M272.267,341.88v-56.541h220.232
	v56.541H272.267z M492.499,68.74H272.267V35.451h220.232V68.74z M492.499,194.546H272.267v-47.473h220.232V194.546z M492.499,268.28
	H272.267v-56.541h220.232V268.28z M492.499,131.213H272.267V83.74h220.232V131.213z M363.865,291.139h-75.259
	c-4.142,0-7.5,3.358-7.5,7.5v30.229c0,4.142,3.358,7.5,7.5,7.5h75.259c4.142,0,7.5-3.358,7.5-7.5v-30.229
	C371.365,294.497,368.008,291.139,363.865,291.139z M296.106,321.368v-15.229h60.259v15.229H296.106z M420.456,373.051
	c0-4.142,3.358-7.5,7.5-7.5h42.938c4.142,0,7.5,3.358,7.5,7.5s-3.358,7.5-7.5,7.5h-42.938
	C423.814,380.551,420.456,377.193,420.456,373.051z M420.456,397.583c0-4.142,3.358-7.5,7.5-7.5h42.938c4.142,0,7.5,3.358,7.5,7.5
	s-3.358,7.5-7.5,7.5h-42.938C423.814,405.083,420.456,401.725,420.456,397.583z M353.581,373.051c0-4.142,3.358-7.5,7.5-7.5h42.938
	c4.142,0,7.5,3.358,7.5,7.5s-3.358,7.5-7.5,7.5h-42.938C356.939,380.551,353.581,377.193,353.581,373.051z M353.581,397.583
	c0-4.142,3.358-7.5,7.5-7.5h42.938c4.142,0,7.5,3.358,7.5,7.5s-3.358,7.5-7.5,7.5h-42.938
	C356.939,405.083,353.581,401.725,353.581,397.583z M286.705,373.051c0-4.142,3.358-7.5,7.5-7.5h42.938c4.142,0,7.5,3.358,7.5,7.5
	s-3.358,7.5-7.5,7.5h-42.938C290.063,380.551,286.705,377.193,286.705,373.051z M286.705,397.583c0-4.142,3.358-7.5,7.5-7.5h42.938
	c4.142,0,7.5,3.358,7.5,7.5s-3.358,7.5-7.5,7.5h-42.938C290.063,405.083,286.705,401.725,286.705,397.583z M450.142,118.909V96.045
	c0-4.142,3.358-7.5,7.5-7.5s7.5,3.358,7.5,7.5v22.864c0,4.142-3.358,7.5-7.5,7.5S450.142,123.051,450.142,118.909z M428.639,118.909
	V96.045c0-4.142,3.358-7.5,7.5-7.5s7.5,3.358,7.5,7.5v22.864c0,4.142-3.358,7.5-7.5,7.5S428.639,123.051,428.639,118.909z
	 M407.137,118.909V96.045c0-4.142,3.358-7.5,7.5-7.5s7.5,3.358,7.5,7.5v22.864c0,4.142-3.358,7.5-7.5,7.5
	S407.137,123.051,407.137,118.909z M385.634,118.909V96.045c0-4.142,3.358-7.5,7.5-7.5s7.5,3.358,7.5,7.5v22.864
	c0,4.142-3.358,7.5-7.5,7.5S385.634,123.051,385.634,118.909z M364.131,118.909V96.045c0-4.142,3.358-7.5,7.5-7.5s7.5,3.358,7.5,7.5
	v22.864c0,4.142-3.358,7.5-7.5,7.5S364.131,123.051,364.131,118.909z M342.629,118.909V96.045c0-4.142,3.358-7.5,7.5-7.5
	s7.5,3.358,7.5,7.5v22.864c0,4.142-3.358,7.5-7.5,7.5S342.629,123.051,342.629,118.909z M321.126,118.909V96.045
	c0-4.142,3.358-7.5,7.5-7.5s7.5,3.358,7.5,7.5v22.864c0,4.142-3.358,7.5-7.5,7.5S321.126,123.051,321.126,118.909z M299.623,118.909
	V96.045c0-4.142,3.358-7.5,7.5-7.5s7.5,3.358,7.5,7.5v22.864c0,4.142-3.358,7.5-7.5,7.5S299.623,123.051,299.623,118.909z
	 M450.142,182.348v-23.078c0-4.142,3.358-7.5,7.5-7.5s7.5,3.358,7.5,7.5v23.078c0,4.142-3.358,7.5-7.5,7.5
	S450.142,186.49,450.142,182.348z M428.639,182.348v-23.078c0-4.142,3.358-7.5,7.5-7.5s7.5,3.358,7.5,7.5v23.078
	c0,4.142-3.358,7.5-7.5,7.5S428.639,186.49,428.639,182.348z M407.137,182.348v-23.078c0-4.142,3.358-7.5,7.5-7.5s7.5,3.358,7.5,7.5
	v23.078c0,4.142-3.358,7.5-7.5,7.5S407.137,186.49,407.137,182.348z M385.634,182.348v-23.078c0-4.142,3.358-7.5,7.5-7.5
	s7.5,3.358,7.5,7.5v23.078c0,4.142-3.358,7.5-7.5,7.5S385.634,186.49,385.634,182.348z M364.131,182.348v-23.078
	c0-4.142,3.358-7.5,7.5-7.5s7.5,3.358,7.5,7.5v23.078c0,4.142-3.358,7.5-7.5,7.5S364.131,186.49,364.131,182.348z M342.629,182.348
	v-23.078c0-4.142,3.358-7.5,7.5-7.5s7.5,3.358,7.5,7.5v23.078c0,4.142-3.358,7.5-7.5,7.5S342.629,186.49,342.629,182.348z
	 M321.126,182.348v-23.078c0-4.142,3.358-7.5,7.5-7.5s7.5,3.358,7.5,7.5v23.078c0,4.142-3.358,7.5-7.5,7.5
	S321.126,186.49,321.126,182.348z M299.623,182.348v-23.078c0-4.142,3.358-7.5,7.5-7.5s7.5,3.358,7.5,7.5v23.078
	c0,4.142-3.358,7.5-7.5,7.5S299.623,186.49,299.623,182.348z M414.176,251.643c-2.03,2.666-1.834,6.485,0.602,8.92
	c1.328,1.328,3.069,1.992,4.81,1.992c1.451,0,2.898-0.468,4.11-1.391c3.453,1.907,7.418,2.995,11.634,2.995
	c4.216,0,8.181-1.089,11.634-2.995c1.212,0.923,2.659,1.391,4.11,1.391c1.741,0,3.482-0.664,4.81-1.992
	c2.436-2.435,2.631-6.254,0.602-8.92c1.906-3.453,2.995-7.418,2.995-11.634c0-4.216-1.088-8.181-2.995-11.634
	c2.03-2.666,1.834-6.485-0.601-8.92c-2.435-2.435-6.254-2.631-8.92-0.601c-3.453-1.907-7.418-2.995-11.634-2.995
	c-4.216,0-8.181,1.089-11.634,2.995c-2.666-2.03-6.485-1.834-8.92,0.601c-2.436,2.435-2.631,6.254-0.601,8.92
	c-1.907,3.453-2.995,7.418-2.995,11.634C411.181,244.225,412.27,248.19,414.176,251.643z M438.578,236.764
	c1.328,1.328,3.069,1.992,4.81,1.992c0.795,0,1.589-0.146,2.344-0.423c0.088,0.547,0.146,1.104,0.146,1.676
	c0,0.572-0.058,1.129-0.146,1.676c-2.411-0.884-5.22-0.365-7.154,1.569c-1.935,1.935-2.454,4.744-1.57,7.154
	c-0.547,0.088-1.104,0.146-1.676,0.146c-0.572,0-1.129-0.058-1.676-0.146c0.884-2.411,0.365-5.22-1.57-7.154
	c-1.935-1.935-4.744-2.453-7.154-1.569c-0.088-0.547-0.146-1.104-0.146-1.676c0-0.572,0.058-1.129,0.146-1.676
	c0.756,0.277,1.549,0.423,2.344,0.423c1.741,0,3.482-0.664,4.81-1.992c1.935-1.935,2.454-4.744,1.57-7.154
	c0.547-0.088,1.104-0.146,1.676-0.146c0.572,0,1.129,0.058,1.676,0.146C436.124,232.02,436.642,234.829,438.578,236.764z
	 M361.889,251.644c-2.03,2.666-1.834,6.485,0.602,8.92c1.328,1.328,3.069,1.992,4.81,1.992c1.451,0,2.898-0.468,4.11-1.391
	c3.453,1.907,7.418,2.995,11.634,2.995c4.216,0,8.181-1.089,11.634-2.995c1.212,0.923,2.659,1.391,4.11,1.391
	c1.741,0,3.482-0.664,4.81-1.992c2.436-2.435,2.631-6.254,0.602-8.92c1.907-3.453,2.995-7.418,2.995-11.634
	c0-4.216-1.088-8.181-2.995-11.634c2.03-2.666,1.834-6.485-0.601-8.92c-2.435-2.435-6.254-2.631-8.92-0.601
	c-3.453-1.907-7.418-2.995-11.634-2.995c-4.216,0-8.181,1.088-11.634,2.995c-2.666-2.03-6.485-1.834-8.92,0.601
	c-2.436,2.435-2.631,6.254-0.601,8.92c-1.907,3.453-2.995,7.418-2.995,11.634C358.894,244.225,359.982,248.19,361.889,251.644z
	 M386.29,236.764c1.328,1.328,3.069,1.992,4.81,1.992c0.795,0,1.589-0.146,2.344-0.423c0.088,0.547,0.146,1.104,0.146,1.676
	c0,0.572-0.058,1.129-0.146,1.676c-2.411-0.884-5.22-0.365-7.154,1.569c-1.935,1.935-2.454,4.744-1.57,7.154
	c-0.547,0.088-1.104,0.146-1.676,0.146c-0.572,0-1.128-0.058-1.676-0.146c0.884-2.411,0.365-5.22-1.57-7.154
	c-1.935-1.935-4.744-2.453-7.154-1.569c-0.088-0.547-0.146-1.104-0.146-1.676c0-0.572,0.058-1.129,0.146-1.676
	c0.756,0.277,1.549,0.423,2.344,0.423c1.741,0,3.482-0.664,4.81-1.992c1.935-1.935,2.454-4.744,1.57-7.154
	c0.547-0.088,1.104-0.146,1.676-0.146c0.572,0,1.129,0.058,1.676,0.146C383.836,232.02,384.355,234.829,386.29,236.764z
	 M309.601,251.644c-2.03,2.666-1.834,6.485,0.602,8.92c1.328,1.328,3.069,1.992,4.81,1.992c1.451,0,2.898-0.468,4.11-1.391
	c3.453,1.907,7.418,2.995,11.634,2.995c4.216,0,8.181-1.089,11.634-2.995c1.212,0.923,2.659,1.391,4.11,1.391
	c1.741,0,3.482-0.664,4.81-1.992c2.435-2.435,2.631-6.254,0.602-8.92c1.906-3.453,2.995-7.418,2.995-11.634
	c0-4.216-1.088-8.181-2.995-11.634c2.03-2.666,1.834-6.485-0.601-8.92c-2.435-2.435-6.254-2.631-8.92-0.601
	c-3.453-1.907-7.418-2.995-11.634-2.995c-4.216,0-8.181,1.088-11.634,2.995c-2.666-2.03-6.485-1.834-8.92,0.601
	c-2.436,2.435-2.631,6.254-0.601,8.92c-1.907,3.453-2.995,7.418-2.995,11.634C306.606,244.225,307.694,248.19,309.601,251.644z
	 M334.002,236.764c1.328,1.328,3.069,1.992,4.81,1.992c0.795,0,1.589-0.146,2.344-0.423c0.088,0.547,0.146,1.104,0.146,1.676
	c0,0.572-0.058,1.129-0.146,1.676c-2.411-0.884-5.22-0.365-7.154,1.569c-1.935,1.935-2.454,4.744-1.57,7.154
	c-0.547,0.088-1.104,0.146-1.676,0.146c-0.572,0-1.128-0.058-1.676-0.146c0.884-2.411,0.365-5.22-1.57-7.154
	c-1.935-1.935-4.744-2.453-7.154-1.569c-0.088-0.547-0.146-1.104-0.146-1.676c0-0.572,0.058-1.129,0.146-1.676
	c0.756,0.277,1.549,0.423,2.344,0.423c1.741,0,3.482-0.664,4.81-1.992c1.935-1.935,2.454-4.744,1.57-7.154
	c0.547-0.088,1.104-0.146,1.676-0.146c0.572,0,1.129,0.058,1.676,0.146C331.549,232.02,332.067,234.829,334.002,236.764z
	 M407.639,313.452c0,4.674-3.789,8.464-8.464,8.464c-4.674,0-8.464-3.789-8.464-8.464c0-4.674,3.789-8.464,8.464-8.464
	C403.85,304.988,407.639,308.778,407.639,313.452z M441.485,313.452c0,4.674-3.789,8.464-8.464,8.464s-8.464-3.789-8.464-8.464
	c0-4.674,3.789-8.464,8.464-8.464S441.485,308.778,441.485,313.452z M475.331,313.452c0,4.674-3.789,8.464-8.464,8.464
	s-8.464-3.789-8.464-8.464c0-4.674,3.789-8.464,8.464-8.464S475.331,308.778,475.331,313.452z"/>
<g>
</g>
<g>
</g>
<g>
</g>
<g>
</g>
<g>
</g>
<g>
</g>
<g>
</g>
<g>
</g>
<g>
</g>
<g>
</g>
<g>
</g>
<g>
</g>
<g>
</g>
<g>
</g>
<g>
</g>
</svg>
