<?xml version="1.0" encoding="iso-8859-1"?>
<!-- Generator: Adobe Illustrator 17.1.0, SVG Export Plug-In . SVG Version: 6.00 Build 0)  -->
<!DOCTYPE svg PUBLIC "-//W3C//DTD SVG 1.1//EN" "http://www.w3.org/Graphics/SVG/1.1/DTD/svg11.dtd">
<svg version="1.1" id="Capa_1" xmlns="http://www.w3.org/2000/svg" xmlns:xlink="http://www.w3.org/1999/xlink" x="0px" y="0px"
	 viewBox="0 0 550.752 550.752" style="enable-background:new 0 0 550.752 550.752;" xml:space="preserve">
<path d="M275.376,505.532c63.854,0,115.803-51.949,115.803-115.802S339.23,273.927,275.376,273.927s-115.803,51.949-115.803,115.802
	S211.522,505.532,275.376,505.532z M275.376,288.927c55.583,0,100.803,45.22,100.803,100.802s-45.22,100.802-100.803,100.802
	s-100.803-45.22-100.803-100.802S219.793,288.927,275.376,288.927z M231.775,389.729c0,24.042,19.56,43.601,43.601,43.601
	s43.601-19.559,43.601-43.601s-19.559-43.601-43.601-43.601S231.775,365.688,231.775,389.729z M303.977,389.729
	c0,15.771-12.83,28.601-28.601,28.601s-28.601-12.83-28.601-28.601s12.831-28.601,28.601-28.601S303.977,373.959,303.977,389.729z
	 M275.376,364.179c14.088,0,25.55,11.462,25.55,25.551c0,4.142-3.358,7.5-7.5,7.5s-7.5-3.358-7.5-7.5
	c0-5.818-4.733-10.551-10.55-10.551c-4.142,0-7.5-3.358-7.5-7.5S271.234,364.179,275.376,364.179z M275.376,153.771
	c-17.406,0-31.567,14.161-31.567,31.567s14.161,31.567,31.567,31.567s31.567-14.161,31.567-31.567S292.782,153.771,275.376,153.771z
	 M275.376,201.905c-9.135,0-16.567-7.432-16.567-16.567s7.432-16.567,16.567-16.567s16.567,7.432,16.567,16.567
	S284.511,201.905,275.376,201.905z M183.641,389.729c0-50.583,41.152-91.735,91.735-91.735c29.97,0,58.113,14.693,75.283,39.303
	c2.37,3.397,1.538,8.072-1.859,10.442s-8.073,1.538-10.442-1.86c-14.366-20.592-37.911-32.885-62.981-32.885
	c-42.312,0-76.735,34.423-76.735,76.735s34.423,76.735,76.735,76.735s76.735-34.423,76.735-76.735c0-4.142,3.358-7.5,7.5-7.5
	s7.5,3.358,7.5,7.5c0,50.583-41.152,91.735-91.735,91.735S183.641,440.312,183.641,389.729z M275.376,265.04
	c43.948,0,79.702-35.754,79.702-79.702s-35.754-79.702-79.702-79.702s-79.702,35.754-79.702,79.702S231.428,265.04,275.376,265.04z
	 M275.376,120.636c35.677,0,64.702,29.025,64.702,64.702c0,35.677-29.025,64.702-64.702,64.702s-64.702-29.025-64.702-64.702
	C210.674,149.661,239.699,120.636,275.376,120.636z M217.906,185.338c0-31.689,25.781-57.47,57.47-57.47
	c18.775,0,36.406,9.204,47.162,24.62c2.325,3.333,1.508,7.919-1.824,10.245c-3.333,2.325-7.92,1.508-10.245-1.824
	c-8.006-11.474-21.125-18.325-35.093-18.325c-23.575,0-42.754,19.179-42.754,42.754c0,23.575,19.18,42.754,42.754,42.754
	s42.754-19.18,42.754-42.754c0-4.064,3.294-7.358,7.358-7.358s7.358,3.294,7.358,7.358c0,31.689-25.781,57.47-57.47,57.47
	S217.906,217.027,217.906,185.338z M451.411,66.125c-0.01-0.078-0.023-0.154-0.035-0.231c-0.037-0.24-0.085-0.476-0.144-0.708
	c-0.017-0.067-0.033-0.134-0.052-0.201c-0.169-0.595-0.41-1.158-0.712-1.683c-0.015-0.026-0.026-0.055-0.041-0.081L415.184,3.68
	C413.834,1.399,411.38,0,408.73,0H142.022c-2.65,0-5.104,1.399-6.454,3.68L100.326,63.22c-0.015,0.024-0.025,0.052-0.039,0.077
	c-0.304,0.526-0.545,1.092-0.715,1.689c-0.018,0.064-0.034,0.13-0.05,0.195c-0.06,0.234-0.108,0.472-0.145,0.713
	c-0.012,0.076-0.025,0.152-0.035,0.228c-0.037,0.301-0.061,0.605-0.061,0.916v0c0,0,0,0,0,0v476.212c0,4.142,3.358,7.5,7.5,7.5
	h337.192c4.142,0,7.5-3.358,7.5-7.5V67.041C451.472,66.73,451.448,66.425,451.411,66.125z M114.28,535.752V74.54h239.314
	c4.142,0,7.5-3.358,7.5-7.5s-3.358-7.5-7.5-7.5H119.935L146.298,15h258.156l26.364,44.541h-29.089c-4.142,0-7.5,3.357-7.5,7.5
	c0,4.142,3.358,7.5,7.5,7.5h34.743v461.212H114.28z M416.474,84.988H134.283c-4.142,0-7.5,3.358-7.5,7.5V519.8
	c0,4.142,3.358,7.5,7.5,7.5h282.191c4.142,0,7.5-3.358,7.5-7.5V92.488C423.974,88.346,420.616,84.988,416.474,84.988z
	 M408.974,512.3H141.783V99.988h267.191V512.3z"/>
<g>
</g>
<g>
</g>
<g>
</g>
<g>
</g>
<g>
</g>
<g>
</g>
<g>
</g>
<g>
</g>
<g>
</g>
<g>
</g>
<g>
</g>
<g>
</g>
<g>
</g>
<g>
</g>
<g>
</g>
</svg>
