<?xml version="1.0" encoding="iso-8859-1"?>
<!-- Generator: Adobe Illustrator 17.1.0, SVG Export Plug-In . SVG Version: 6.00 Build 0)  -->
<!DOCTYPE svg PUBLIC "-//W3C//DTD SVG 1.1//EN" "http://www.w3.org/Graphics/SVG/1.1/DTD/svg11.dtd">
<svg version="1.1" id="Capa_1" xmlns="http://www.w3.org/2000/svg" xmlns:xlink="http://www.w3.org/1999/xlink" x="0px" y="0px"
	 viewBox="0 0 550.752 550.752" style="enable-background:new 0 0 550.752 550.752;" xml:space="preserve">
<path d="M453.703,0H217.965h-2.707H97.049C81.931,0,69.632,12.3,69.632,27.418v495.917c0,15.118,12.299,27.417,27.417,27.417
	h118.209h2.707h235.738c15.118,0,27.417-12.299,27.417-27.417V27.418C481.121,12.3,468.821,0,453.703,0z M466.121,523.335
	c0,6.847-5.57,12.417-12.417,12.417H217.965h-2.707c-6.847,0-12.418-5.57-12.418-12.417V88.849c0-4.142-3.358-7.5-7.5-7.5
	s-7.5,3.358-7.5,7.5v434.486c0,4.468,1.081,8.686,2.986,12.417H97.049c-6.847,0-12.417-5.57-12.417-12.417V27.418
	c0-6.847,5.57-12.418,12.417-12.418h93.777c-1.904,3.731-2.986,7.949-2.986,12.418v14.808c0,4.142,3.358,7.5,7.5,7.5
	s7.5-3.358,7.5-7.5V27.418c0-6.847,5.571-12.418,12.418-12.418h2.707h235.738c6.847,0,12.417,5.571,12.417,12.418V523.335z
	 M248.134,240.751c0,47.611,38.735,86.346,86.346,86.346s86.346-38.735,86.346-86.346s-38.735-86.346-86.346-86.346
	S248.134,193.14,248.134,240.751z M334.48,169.405c39.34,0,71.346,32.006,71.346,71.346s-32.006,71.346-71.346,71.346
	s-71.346-32.006-71.346-71.346S295.14,169.405,334.48,169.405z M334.48,206.969c-18.627,0-33.782,15.155-33.782,33.782
	s15.154,33.782,33.782,33.782s33.782-15.154,33.782-33.782S353.108,206.969,334.48,206.969z M334.48,259.533
	c-10.356,0-18.782-8.425-18.782-18.782s8.425-18.782,18.782-18.782s18.782,8.426,18.782,18.782S344.837,259.533,334.48,259.533z
	 M350.714,241.752c0,4.142-3.358,7.5-7.5,7.5s-7.5-3.358-7.5-7.5c0-1.232-1.002-2.234-2.234-2.234c-4.142,0-7.5-3.358-7.5-7.5
	s3.358-7.5,7.5-7.5C342.983,224.518,350.714,232.249,350.714,241.752z M271.57,240.751c0-34.689,28.222-62.911,62.911-62.911
	c20.553,0,39.853,10.075,51.627,26.952c2.37,3.397,1.538,8.072-1.859,10.442c-3.396,2.37-8.073,1.538-10.442-1.859
	c-8.971-12.858-23.672-20.535-39.325-20.535c-26.418,0-47.911,21.493-47.911,47.911s21.493,47.911,47.911,47.911
	c26.418,0,47.911-21.493,47.911-47.911c0-4.142,3.358-7.5,7.5-7.5s7.5,3.358,7.5,7.5c0,34.689-28.222,62.911-62.911,62.911
	C299.792,303.663,271.57,275.441,271.57,240.751z M334.48,347.14c-47.611,0-86.346,38.735-86.346,86.346
	s38.735,86.346,86.346,86.346s86.346-38.735,86.346-86.346S382.092,347.14,334.48,347.14z M334.48,504.833
	c-39.34,0-71.346-32.006-71.346-71.346s32.006-71.346,71.346-71.346s71.346,32.006,71.346,71.346S373.821,504.833,334.48,504.833z
	 M334.48,399.704c-18.627,0-33.782,15.155-33.782,33.782s15.154,33.782,33.782,33.782s33.782-15.155,33.782-33.782
	S353.108,399.704,334.48,399.704z M334.48,452.269c-10.356,0-18.782-8.426-18.782-18.782s8.425-18.782,18.782-18.782
	s18.782,8.426,18.782,18.782S344.837,452.269,334.48,452.269z M350.714,434.487c0,4.142-3.358,7.5-7.5,7.5s-7.5-3.358-7.5-7.5
	c0-1.232-1.002-2.234-2.234-2.234c-4.142,0-7.5-3.358-7.5-7.5s3.358-7.5,7.5-7.5C342.983,417.252,350.714,424.984,350.714,434.487z
	 M397.392,433.486c0,34.689-28.222,62.911-62.911,62.911c-34.689,0-62.911-28.222-62.911-62.911s28.222-62.911,62.911-62.911
	c20.553,0,39.853,10.075,51.627,26.952c2.37,3.397,1.538,8.072-1.859,10.442c-3.396,2.37-8.073,1.538-10.442-1.859
	c-8.971-12.858-23.672-20.535-39.325-20.535c-26.418,0-47.911,21.493-47.911,47.911s21.493,47.911,47.911,47.911
	c26.418,0,47.911-21.493,47.911-47.911c0-4.142,3.358-7.5,7.5-7.5S397.392,429.344,397.392,433.486z M244.874,46.276
	c-0.055,0.176-0.098,0.356-0.141,0.537c-0.016,0.067-0.038,0.133-0.051,0.2c-0.01,0.049-0.015,0.101-0.024,0.15
	c-0.084,0.453-0.13,0.907-0.13,1.359c0,0.003,0,0.006,0,0.009v61.84c0,0.048,0.006,0.095,0.007,0.142
	c0.003,0.156,0.011,0.311,0.024,0.467c0.008,0.1,0.018,0.2,0.029,0.299c0.017,0.138,0.038,0.276,0.063,0.414
	c0.021,0.117,0.043,0.232,0.07,0.347c0.026,0.115,0.056,0.229,0.088,0.343c0.038,0.135,0.078,0.269,0.123,0.401
	c0.032,0.094,0.067,0.187,0.103,0.28c0.057,0.147,0.117,0.291,0.182,0.433c0.02,0.043,0.034,0.087,0.055,0.13
	c0.014,0.03,0.034,0.055,0.049,0.084c0.148,0.297,0.309,0.587,0.494,0.86c0.011,0.016,0.023,0.03,0.034,0.045
	c0.166,0.241,0.349,0.469,0.541,0.688c0.065,0.075,0.132,0.148,0.2,0.219c0.184,0.194,0.376,0.379,0.579,0.552
	c0.039,0.033,0.075,0.068,0.114,0.1c0.227,0.186,0.468,0.354,0.716,0.513c0.071,0.045,0.142,0.087,0.214,0.13
	c0.232,0.137,0.47,0.263,0.717,0.376c0.036,0.017,0.071,0.036,0.108,0.052c0.287,0.125,0.585,0.231,0.889,0.32
	c0.059,0.017,0.12,0.03,0.179,0.046c0.241,0.064,0.487,0.116,0.737,0.156c0.087,0.014,0.172,0.029,0.259,0.04
	c0.277,0.034,0.558,0.056,0.844,0.059c0.029,0,0.058,0.006,0.087,0.006c0.012,0,0.024-0.002,0.035-0.002h164.31
	c0.012,0,0.024,0.002,0.035,0.002c0.009,0,0.019-0.002,0.028-0.002h0.493c4.142,0,7.5-3.358,7.5-7.5v-61.84
	c0-4.142-3.358-7.5-7.5-7.5h-0.56c-0.01,0-0.02,0-0.031,0H252.108c-0.015,0-0.031,0-0.046,0h-0.035c-0.051,0-0.1,0.007-0.151,0.008
	c-0.191,0.004-0.381,0.01-0.57,0.029c-0.114,0.011-0.225,0.031-0.337,0.047c-0.126,0.018-0.253,0.033-0.377,0.058
	c-0.143,0.028-0.283,0.065-0.424,0.101c-0.092,0.024-0.184,0.044-0.274,0.071c-0.15,0.044-0.296,0.098-0.441,0.151
	c-0.081,0.03-0.162,0.056-0.242,0.089c-0.139,0.056-0.273,0.12-0.408,0.185c-0.086,0.041-0.173,0.08-0.257,0.124
	c-0.117,0.062-0.23,0.129-0.343,0.197c-0.099,0.059-0.198,0.116-0.295,0.179c-0.091,0.06-0.179,0.125-0.267,0.19
	c-0.111,0.08-0.223,0.16-0.33,0.247c-0.07,0.057-0.136,0.117-0.204,0.177c-0.116,0.101-0.232,0.203-0.342,0.311
	c-0.058,0.057-0.112,0.118-0.169,0.178c-0.109,0.115-0.219,0.231-0.321,0.353c-0.06,0.072-0.114,0.148-0.172,0.222
	c-0.089,0.115-0.178,0.228-0.261,0.349c-0.075,0.11-0.142,0.225-0.212,0.338c-0.055,0.091-0.114,0.18-0.166,0.274
	c-0.098,0.176-0.185,0.359-0.268,0.543c-0.016,0.036-0.037,0.07-0.053,0.107c-0.002,0.004-0.003,0.008-0.004,0.012
	c-0.097,0.225-0.183,0.455-0.258,0.69C244.879,46.264,244.876,46.27,244.874,46.276z M384.635,86.724
	c-0.42-0.203-0.858-0.365-1.308-0.486c-0.351-0.095-0.55-0.245-0.635-0.333V71.182c0.092-0.097,0.319-0.264,0.721-0.354
	c0.461-0.103,0.912-0.249,1.346-0.436l24.676-10.669v38.956L384.635,86.724z M379.366,56.381c-6.914,1.882-11.674,7.8-11.674,14.649
	v15.024c0,6.521,4.471,12.353,10.967,14.439l4.932,2.377h-98.735l4.932-2.377c6.496-2.087,10.967-7.918,10.967-14.439V71.031
	c0-6.849-4.76-12.768-11.674-14.649l-0.809-0.35h91.903L379.366,56.381z M283.688,70.392c0.434,0.188,0.884,0.333,1.346,0.436
	c0.402,0.09,0.628,0.257,0.721,0.354v14.723c-0.084,0.088-0.284,0.238-0.635,0.333c-0.45,0.121-0.888,0.284-1.308,0.486
	L259.527,98.43V59.946L283.688,70.392z M427.241,123.485c-15.502,0-28.113,12.611-28.113,28.113s12.611,28.113,28.113,28.113
	s28.113-12.611,28.113-28.113S442.743,123.485,427.241,123.485z M427.241,164.712c-7.23,0-13.113-5.883-13.113-13.113
	s5.883-13.113,13.113-13.113s13.113,5.883,13.113,13.113S434.471,164.712,427.241,164.712z M241.721,179.712
	c15.502,0,28.113-12.611,28.113-28.113s-12.611-28.113-28.113-28.113s-28.114,12.611-28.114,28.113S226.219,179.712,241.721,179.712
	z M241.721,138.485c7.23,0,13.113,5.883,13.113,13.113s-5.883,13.113-13.113,13.113c-7.231,0-13.114-5.883-13.114-13.113
	S234.49,138.485,241.721,138.485z M427.241,309.005c-15.502,0-28.113,12.611-28.113,28.113s12.611,28.114,28.113,28.114
	s28.113-12.612,28.113-28.114S442.743,309.005,427.241,309.005z M427.241,350.232c-7.23,0-13.113-5.883-13.113-13.114
	c0-7.23,5.883-13.113,13.113-13.113s13.113,5.883,13.113,13.113C440.354,344.35,434.471,350.232,427.241,350.232z M269.834,337.119
	c0-15.502-12.611-28.113-28.113-28.113s-28.114,12.611-28.114,28.113s12.612,28.114,28.114,28.114S269.834,352.621,269.834,337.119z
	 M241.721,350.232c-7.231,0-13.114-5.883-13.114-13.114c0-7.23,5.883-13.113,13.114-13.113c7.23,0,13.113,5.883,13.113,13.113
	C254.834,344.35,248.951,350.232,241.721,350.232z M173.282,116.752h-76.57c-4.142,0-7.5,3.358-7.5,7.5v54.693
	c0,4.142,3.358,7.5,7.5,7.5h76.57c4.142,0,7.5-3.358,7.5-7.5v-54.693C180.782,120.11,177.424,116.752,173.282,116.752z
	 M104.212,171.445v-39.693h61.57v39.693H104.212z M161.258,146.907v13.163c0,4.142-3.358,7.5-7.5,7.5s-7.5-3.358-7.5-7.5v-5.663
	h-22.521v5.663c0,4.142-3.358,7.5-7.5,7.5s-7.5-3.358-7.5-7.5v-13.163c0-4.142,3.358-7.5,7.5-7.5h37.521
	C157.9,139.407,161.258,142.765,161.258,146.907z"/>
<g>
</g>
<g>
</g>
<g>
</g>
<g>
</g>
<g>
</g>
<g>
</g>
<g>
</g>
<g>
</g>
<g>
</g>
<g>
</g>
<g>
</g>
<g>
</g>
<g>
</g>
<g>
</g>
<g>
</g>
</svg>
