<?xml version="1.0" encoding="iso-8859-1"?>
<!-- Generator: Adobe Illustrator 17.1.0, SVG Export Plug-In . SVG Version: 6.00 Build 0)  -->
<!DOCTYPE svg PUBLIC "-//W3C//DTD SVG 1.1//EN" "http://www.w3.org/Graphics/SVG/1.1/DTD/svg11.dtd">
<svg version="1.1" id="Capa_1" xmlns="http://www.w3.org/2000/svg" xmlns:xlink="http://www.w3.org/1999/xlink" x="0px" y="0px"
	 viewBox="0 0 550.752 550.752" style="enable-background:new 0 0 550.752 550.752;" xml:space="preserve">
<path d="M526.244,125.009H223.259c-18.839-7.668-39.425-11.906-60.986-11.906s-42.148,4.237-60.986,11.906H36.414
	c-13.514,0-24.508,10.994-24.508,24.508v64.873C4.237,233.228,0,253.815,0,275.376s4.237,42.148,11.906,60.986v63.236
	c0,13.514,10.994,24.508,24.508,24.508h60.997c19.876,8.702,41.813,13.543,64.862,13.543s44.986-4.841,64.862-13.543h299.109
	c13.514,0,24.508-10.994,24.508-24.508V149.517C550.752,136.003,539.758,125.009,526.244,125.009z M535.752,399.598
	c0,5.243-4.265,9.508-9.508,9.508H254.079c20.557-14.156,37.7-32.922,49.93-54.796H519.44c0,0,0.001,0,0.002,0c0,0,0.001,0,0.002,0
	c0.002,0,0.004,0,0.006,0c0.386,0,0.762-0.039,1.132-0.095c0.067-0.01,0.134-0.019,0.202-0.031c0.368-0.067,0.725-0.16,1.072-0.279
	c0.063-0.021,0.125-0.045,0.187-0.068c0.361-0.134,0.711-0.29,1.043-0.475c0.036-0.02,0.071-0.044,0.107-0.065
	c0.361-0.21,0.707-0.443,1.027-0.708c0.001-0.001,0.002-0.001,0.004-0.002c0.033-0.028,0.062-0.059,0.095-0.087
	c0.152-0.131,0.302-0.264,0.443-0.406c0.089-0.089,0.168-0.184,0.251-0.277c0.079-0.088,0.161-0.173,0.236-0.265
	c0.09-0.11,0.17-0.224,0.253-0.338c0.061-0.083,0.124-0.164,0.181-0.25c0.076-0.114,0.143-0.232,0.212-0.349
	c0.056-0.094,0.114-0.187,0.165-0.283c0.058-0.109,0.107-0.22,0.159-0.331c0.053-0.112,0.107-0.222,0.155-0.337
	c0.041-0.1,0.075-0.202,0.111-0.304c0.047-0.129,0.095-0.257,0.135-0.39c0.029-0.097,0.051-0.196,0.076-0.294
	c0.035-0.138,0.073-0.275,0.1-0.416c0.022-0.112,0.035-0.225,0.052-0.338c0.019-0.128,0.042-0.254,0.055-0.384
	c0.018-0.187,0.024-0.375,0.028-0.563c0.001-0.055,0.008-0.11,0.008-0.165v-0.016c0-0.001,0-0.002,0-0.002v-142.83
	c0-0.001,0-0.002,0-0.002v-0.016c0-0.056-0.007-0.11-0.008-0.165c-0.004-0.188-0.01-0.376-0.028-0.563
	c-0.013-0.13-0.036-0.256-0.055-0.384c-0.017-0.113-0.03-0.226-0.052-0.338c-0.028-0.141-0.065-0.278-0.1-0.416
	c-0.025-0.098-0.047-0.197-0.076-0.294c-0.04-0.132-0.088-0.26-0.135-0.39c-0.037-0.102-0.07-0.204-0.111-0.304
	c-0.047-0.115-0.102-0.225-0.155-0.337c-0.052-0.111-0.102-0.222-0.159-0.331c-0.052-0.097-0.11-0.189-0.165-0.283
	c-0.069-0.117-0.136-0.235-0.212-0.349c-0.057-0.086-0.121-0.167-0.181-0.25c-0.083-0.114-0.163-0.228-0.253-0.338
	c-0.075-0.092-0.157-0.177-0.236-0.265c-0.083-0.093-0.163-0.188-0.251-0.277c-0.141-0.142-0.291-0.276-0.443-0.406
	c-0.033-0.028-0.062-0.059-0.095-0.087c-0.002-0.001-0.003-0.002-0.005-0.004c-0.193-0.159-0.393-0.309-0.601-0.449
	c-0.055-0.037-0.113-0.067-0.169-0.103c-0.152-0.096-0.304-0.192-0.463-0.277c-0.092-0.05-0.188-0.09-0.281-0.135
	c-0.126-0.061-0.251-0.125-0.382-0.18c-0.109-0.046-0.221-0.081-0.331-0.121c-0.119-0.043-0.237-0.09-0.359-0.127
	c-0.125-0.038-0.252-0.066-0.378-0.097c-0.111-0.028-0.22-0.06-0.333-0.083c-0.159-0.032-0.32-0.052-0.481-0.073
	c-0.083-0.011-0.164-0.028-0.248-0.036c-0.248-0.025-0.496-0.038-0.745-0.038c-0.003,0-0.005,0-0.008,0h-23.811
	c-4.142,0-7.5,3.358-7.5,7.5s3.358,7.5,7.5,7.5h7.86l-23.292,28.122H320.555c-2.201-9.732-5.279-19.135-9.146-28.122h149.244
	c4.142,0,7.5-3.358,7.5-7.5s-3.358-7.5-7.5-7.5H304.009c-12.708-22.728-30.72-42.101-52.354-56.433h274.59
	c5.243,0,9.508,4.265,9.508,9.508V399.598z M26.906,364.757c11.544,17.425,26.357,32.501,43.561,44.348H36.414
	c-5.243,0-9.508-4.265-9.508-9.508V364.757z M15,275.376c0-81.207,66.066-147.273,147.273-147.273s147.272,66.066,147.272,147.273
	s-66.066,147.273-147.272,147.273S15,356.582,15,275.376z M36.414,140.009h36.478c-18.238,12.083-33.903,27.747-45.985,45.985
	v-36.477C26.906,144.274,31.171,140.009,36.414,140.009z M320.555,311.188h159.642l23.292,28.122h-192.08
	C315.277,330.323,318.355,320.92,320.555,311.188z M491.224,300.985v-51.219l20.717-25.012v101.242L491.224,300.985z
	 M476.224,296.188H323.215c0.876-6.816,1.33-13.762,1.33-20.812s-0.454-13.996-1.33-20.812h153.009V296.188z M297.272,275.376
	c0-10.903-1.308-21.504-3.76-31.664c-0.058-0.324-0.134-0.646-0.236-0.963c-2.601-10.441-6.42-20.404-11.299-29.731
	c-0.1-0.213-0.21-0.422-0.332-0.628c-22.67-42.791-67.67-72.013-119.373-72.013c-57.187,0-106.177,35.744-125.817,86.062
	c-0.071,0.163-0.131,0.331-0.19,0.5c-5.803,15.043-8.993,31.374-8.993,48.438c0,74.439,60.561,135,135,135
	C236.712,410.376,297.272,349.815,297.272,275.376z M136.601,392.602l144.217-98.559c-1.191,7.591-3.097,14.948-5.645,22
	l-116.022,79.292C151.432,395.137,143.895,394.198,136.601,392.602z M102.662,379.495L280.96,257.647
	c0.837,5.629,1.282,11.385,1.306,17.238l-164.05,112.113C112.831,384.865,107.635,382.353,102.662,379.495z M190.648,391.978
	l69.833-47.725C243.986,367.702,219.316,385,190.648,391.978z M59.129,336.638l197.673-135.099c3.074,3.926,5.905,8.05,8.479,12.345
	L67.577,348.996C64.514,345.065,61.692,340.937,59.129,336.638z M52.222,323.19c-2.051-4.703-3.813-9.561-5.255-14.553
	l132.451-90.518c3.419-2.337,4.297-7.004,1.96-10.424c-2.337-3.42-7.003-4.298-10.424-1.96l-127.41,87.072
	c-0.824-5.637-1.26-11.399-1.268-17.259l163.752-111.913c5.399,2.121,10.607,4.624,15.593,7.473l-20.784,14.204
	c-3.419,2.337-4.297,7.004-1.96,10.424c1.453,2.125,3.805,3.269,6.199,3.269c1.458,0,2.931-0.424,4.225-1.309l25.795-17.629
	c4.101,3.141,7.997,6.537,11.658,10.17L52.222,323.19z M49.522,234.285l115.41-78.875c7.753,0.169,15.326,1.082,22.654,2.662
	L43.788,256.347C45.006,248.733,46.938,241.353,49.522,234.285z M133.161,158.955l-68.666,46.928
	C80.845,182.945,105.057,165.985,133.161,158.955z M272.215,227.314c2.061,4.696,3.831,9.546,5.284,14.531L89.224,370.511
	c-4.092-3.149-7.98-6.551-11.631-10.191L272.215,227.314z M491.224,168.225c0,4.142-3.358,7.5-7.5,7.5H328.951
	c-4.142,0-7.5-3.358-7.5-7.5s3.358-7.5,7.5-7.5h154.772C487.866,160.725,491.224,164.083,491.224,168.225z M491.224,382.526
	c0,4.142-3.358,7.5-7.5,7.5H328.951c-4.142,0-7.5-3.358-7.5-7.5s3.358-7.5,7.5-7.5h154.772
	C487.866,375.026,491.224,378.384,491.224,382.526z"/>
<g>
</g>
<g>
</g>
<g>
</g>
<g>
</g>
<g>
</g>
<g>
</g>
<g>
</g>
<g>
</g>
<g>
</g>
<g>
</g>
<g>
</g>
<g>
</g>
<g>
</g>
<g>
</g>
<g>
</g>
</svg>
