<?xml version="1.0" encoding="iso-8859-1"?>
<!-- Generator: Adobe Illustrator 17.1.0, SVG Export Plug-In . SVG Version: 6.00 Build 0)  -->
<!DOCTYPE svg PUBLIC "-//W3C//DTD SVG 1.1//EN" "http://www.w3.org/Graphics/SVG/1.1/DTD/svg11.dtd">
<svg version="1.1" id="Capa_1" xmlns="http://www.w3.org/2000/svg" xmlns:xlink="http://www.w3.org/1999/xlink" x="0px" y="0px"
	 viewBox="0 0 555.804 555.804" style="enable-background:new 0 0 555.804 555.804;" xml:space="preserve">
<path d="M259.81,417.115v24.633c0,3.384,2.242,6.243,5.322,7.176l-54.94,95.643c-2.063,3.592-0.824,8.176,2.768,10.239
	c1.178,0.676,2.461,0.998,3.729,0.998c2.598,0,5.123-1.352,6.51-3.766l47.205-82.177v40.004c0,4.142,3.357,7.5,7.5,7.5
	s7.5-3.358,7.5-7.5v-39.789l46.656,81.937c1.383,2.429,3.917,3.791,6.524,3.791c1.258,0,2.533-0.317,3.704-0.984
	c3.6-2.05,4.856-6.629,2.807-10.229l-54.468-95.655c3.104-0.919,5.369-3.787,5.369-7.188v-24.633V277.03h67.668
	c4.143,0,7.5-3.358,7.5-7.5V47.021c0-0.243-0.013-0.485-0.037-0.726c-0.011-0.112-0.031-0.22-0.046-0.33
	c-0.018-0.125-0.033-0.251-0.057-0.375c-0.026-0.133-0.06-0.263-0.093-0.394c-0.025-0.098-0.047-0.197-0.076-0.295
	c-0.041-0.138-0.089-0.272-0.137-0.407c-0.022-0.063-0.04-0.128-0.064-0.19L355.291,4.783C354.171,1.899,351.395,0,348.301,0
	H207.503c-3.094,0-5.87,1.899-6.99,4.783L185.15,44.304c-0.024,0.061-0.04,0.124-0.062,0.185c-0.049,0.137-0.098,0.273-0.139,0.413
	c-0.028,0.095-0.05,0.191-0.074,0.287c-0.033,0.133-0.068,0.265-0.094,0.401c-0.024,0.122-0.039,0.245-0.056,0.369
	c-0.016,0.112-0.036,0.223-0.047,0.336c-0.023,0.239-0.036,0.479-0.036,0.72c0,0.002,0,0.004,0,0.006v0v0V269.53
	c0,4.142,3.357,7.5,7.5,7.5h67.669V417.115z M288.495,262.03H267.31h-67.669V54.521h124.716c4.143,0,7.5-3.358,7.5-7.5
	s-3.357-7.5-7.5-7.5H203.103L212.635,15H343.17l9.531,24.521h-8.096c-4.143,0-7.5,3.358-7.5,7.5s3.357,7.5,7.5,7.5h11.558V262.03
	H288.495z M280.995,434.248h-3.246c-0.002,0-0.004,0-0.006,0h-2.934v-9.633h6.186V434.248z M280.995,409.615h-6.186V277.03h6.186
	V409.615z M277.902,138.615c-33.523,0-60.797,27.273-60.797,60.797c0,33.523,27.273,60.797,60.797,60.797
	s60.797-27.273,60.797-60.797C338.699,165.888,311.426,138.615,277.902,138.615z M277.902,245.209
	c-25.253,0-45.797-20.544-45.797-45.797c0-25.253,20.544-45.797,45.797-45.797s45.797,20.544,45.797,45.797
	C323.699,224.665,303.155,245.209,277.902,245.209z M277.902,179.831c-10.797,0-19.581,8.784-19.581,19.581
	s8.784,19.581,19.581,19.581s19.581-8.784,19.581-19.581S288.699,179.831,277.902,179.831z M277.902,203.993
	c-2.526,0-4.581-2.055-4.581-4.581s2.055-4.581,4.581-4.581s4.581,2.055,4.581,4.581S280.429,203.993,277.902,203.993z
	 M316.308,199.412c0,21.177-17.229,38.405-38.405,38.405s-38.405-17.229-38.405-38.405s17.229-38.406,38.405-38.406
	c12.547,0,24.328,6.15,31.516,16.451c2.37,3.397,1.537,8.072-1.86,10.442c-3.396,2.371-8.071,1.537-10.442-1.859
	c-4.383-6.283-11.565-10.034-19.213-10.034c-12.905,0-23.405,10.5-23.405,23.406s10.5,23.405,23.405,23.405
	s23.405-10.5,23.405-23.405c0-4.142,3.357-7.5,7.5-7.5S316.308,195.27,316.308,199.412z M348.614,64.673
	c-0.006-0.089-0.007-0.179-0.017-0.268c-0.016-0.153-0.044-0.306-0.07-0.458c-0.015-0.091-0.025-0.184-0.044-0.274
	c-0.028-0.136-0.068-0.27-0.104-0.405c-0.027-0.102-0.049-0.206-0.08-0.307c-0.032-0.104-0.076-0.206-0.113-0.309
	c-0.046-0.127-0.087-0.255-0.14-0.379c-0.034-0.08-0.076-0.156-0.113-0.235c-0.067-0.144-0.132-0.288-0.208-0.427
	c-0.039-0.071-0.085-0.138-0.126-0.208c-0.084-0.143-0.168-0.287-0.261-0.424c-0.047-0.069-0.101-0.134-0.151-0.201
	c-0.097-0.133-0.195-0.266-0.301-0.392c-0.011-0.013-0.02-0.027-0.031-0.041c-0.055-0.065-0.116-0.122-0.173-0.184
	c-0.097-0.107-0.193-0.214-0.296-0.315c-0.088-0.087-0.181-0.166-0.273-0.248c-0.09-0.08-0.178-0.16-0.271-0.236
	c-0.103-0.083-0.21-0.16-0.316-0.237c-0.091-0.066-0.181-0.132-0.274-0.194c-0.109-0.072-0.221-0.137-0.333-0.202
	c-0.1-0.058-0.199-0.117-0.301-0.171c-0.108-0.056-0.218-0.107-0.328-0.158c-0.114-0.053-0.227-0.105-0.344-0.152
	c-0.103-0.042-0.208-0.078-0.313-0.115c-0.126-0.045-0.253-0.089-0.382-0.127c-0.104-0.03-0.208-0.055-0.313-0.08
	c-0.131-0.032-0.262-0.065-0.397-0.091c-0.114-0.021-0.229-0.036-0.343-0.052c-0.125-0.018-0.25-0.037-0.377-0.049
	c-0.138-0.013-0.277-0.016-0.416-0.021c-0.089-0.003-0.176-0.013-0.266-0.013h-17.247c-4.143,0-7.5,3.358-7.5,7.5
	c0,3.224,2.038,5.965,4.894,7.025l-19.094,16.221h-48.583l-18.535-15.746h66.22c4.143,0,7.5-3.358,7.5-7.5s-3.357-7.5-7.5-7.5
	h-86.632c-0.09,0-0.177,0.01-0.266,0.013c-0.139,0.005-0.277,0.008-0.416,0.021c-0.127,0.011-0.252,0.031-0.377,0.049
	c-0.115,0.016-0.229,0.031-0.343,0.052c-0.134,0.025-0.265,0.058-0.397,0.091c-0.105,0.026-0.209,0.05-0.313,0.08
	c-0.129,0.038-0.255,0.082-0.382,0.127c-0.105,0.037-0.21,0.073-0.313,0.115c-0.116,0.047-0.229,0.099-0.343,0.152
	c-0.11,0.051-0.22,0.102-0.329,0.158c-0.102,0.054-0.201,0.113-0.301,0.171c-0.112,0.065-0.224,0.13-0.333,0.202
	c-0.094,0.062-0.184,0.128-0.274,0.194c-0.106,0.077-0.213,0.153-0.316,0.237c-0.093,0.075-0.182,0.156-0.271,0.236
	c-0.092,0.082-0.184,0.161-0.273,0.248c-0.103,0.101-0.199,0.208-0.296,0.315c-0.057,0.063-0.118,0.119-0.173,0.184
	c-0.011,0.013-0.02,0.027-0.031,0.041c-0.106,0.126-0.203,0.259-0.301,0.392c-0.05,0.068-0.104,0.133-0.151,0.201
	c-0.094,0.137-0.177,0.281-0.261,0.424c-0.041,0.07-0.087,0.137-0.126,0.208c-0.074,0.136-0.138,0.278-0.204,0.419
	c-0.038,0.082-0.082,0.161-0.117,0.243c-0.051,0.12-0.091,0.245-0.136,0.368c-0.039,0.106-0.083,0.211-0.117,0.319
	c-0.031,0.1-0.053,0.205-0.08,0.307c-0.036,0.135-0.076,0.269-0.104,0.405c-0.019,0.09-0.029,0.183-0.044,0.274
	c-0.026,0.153-0.054,0.305-0.07,0.458c-0.009,0.088-0.01,0.179-0.017,0.268c-0.011,0.159-0.023,0.318-0.024,0.478
	c0,0.018-0.003,0.035-0.003,0.052v61.492c0,0.018,0.002,0.035,0.003,0.052c0.001,0.159,0.013,0.319,0.024,0.478
	c0.006,0.089,0.007,0.179,0.017,0.268c0.016,0.153,0.044,0.306,0.07,0.458c0.015,0.091,0.025,0.184,0.044,0.274
	c0.028,0.136,0.068,0.27,0.104,0.405c0.027,0.102,0.049,0.206,0.08,0.307c0.034,0.107,0.078,0.212,0.117,0.319
	c0.045,0.123,0.085,0.248,0.136,0.368c0.035,0.083,0.079,0.162,0.117,0.243c0.066,0.141,0.129,0.283,0.204,0.419
	c0.039,0.071,0.085,0.138,0.126,0.208c0.084,0.143,0.168,0.287,0.261,0.424c0.047,0.069,0.101,0.134,0.151,0.201
	c0.097,0.133,0.195,0.266,0.301,0.392c0.011,0.013,0.02,0.027,0.031,0.041c0.042,0.049,0.089,0.091,0.132,0.139
	c0.121,0.135,0.244,0.268,0.375,0.395c0.079,0.076,0.16,0.147,0.241,0.219c0.112,0.099,0.225,0.196,0.342,0.288
	c0.093,0.073,0.186,0.143,0.282,0.211c0.115,0.082,0.234,0.16,0.354,0.236c0.097,0.061,0.195,0.123,0.295,0.179
	c0.131,0.074,0.265,0.142,0.401,0.208c0.093,0.045,0.184,0.093,0.279,0.134c0.158,0.069,0.32,0.129,0.483,0.188
	c0.076,0.027,0.151,0.059,0.228,0.083c0.194,0.063,0.394,0.114,0.594,0.161c0.051,0.012,0.1,0.028,0.151,0.039
	c0.233,0.049,0.47,0.086,0.711,0.113c0.021,0.002,0.041,0.007,0.062,0.01c0.259,0.027,0.521,0.042,0.787,0.042h126.477
	c0.266,0,0.528-0.015,0.787-0.042c0.021-0.002,0.041-0.007,0.062-0.01c0.24-0.027,0.478-0.064,0.711-0.113
	c0.051-0.011,0.1-0.027,0.151-0.039c0.201-0.047,0.4-0.098,0.594-0.161c0.077-0.025,0.152-0.056,0.228-0.083
	c0.163-0.059,0.326-0.119,0.484-0.188c0.094-0.041,0.186-0.089,0.278-0.134c0.136-0.067,0.271-0.134,0.401-0.208
	c0.1-0.056,0.197-0.118,0.295-0.179c0.12-0.076,0.239-0.154,0.354-0.236c0.095-0.068,0.189-0.138,0.282-0.211
	c0.117-0.092,0.231-0.189,0.342-0.288c0.081-0.072,0.162-0.143,0.241-0.219c0.131-0.126,0.254-0.259,0.375-0.395
	c0.043-0.048,0.09-0.089,0.132-0.139c0.011-0.013,0.02-0.027,0.031-0.041c0.106-0.126,0.203-0.259,0.301-0.392
	c0.05-0.068,0.104-0.133,0.151-0.201c0.094-0.137,0.177-0.281,0.261-0.424c0.041-0.07,0.087-0.137,0.126-0.208
	c0.076-0.138,0.141-0.283,0.208-0.427c0.037-0.079,0.079-0.155,0.113-0.235c0.052-0.123,0.094-0.252,0.14-0.379
	c0.037-0.103,0.08-0.205,0.113-0.309c0.031-0.1,0.053-0.205,0.08-0.307c0.036-0.135,0.076-0.269,0.104-0.405
	c0.019-0.09,0.029-0.183,0.044-0.274c0.026-0.153,0.054-0.305,0.07-0.458c0.009-0.088,0.01-0.179,0.017-0.268
	c0.011-0.159,0.023-0.318,0.024-0.478c0-0.018,0.003-0.035,0.003-0.052V65.203c0-0.018-0.002-0.035-0.003-0.052
	C348.637,64.991,348.625,64.832,348.614,64.673z M239.272,95.949l-17.108,14.533V81.415L239.272,95.949z M253.611,103.449h48.583
	l18.535,15.746h-85.652L253.611,103.449z M316.533,95.949l17.108-14.534v29.067L316.533,95.949z"/>
<g>
</g>
<g>
</g>
<g>
</g>
<g>
</g>
<g>
</g>
<g>
</g>
<g>
</g>
<g>
</g>
<g>
</g>
<g>
</g>
<g>
</g>
<g>
</g>
<g>
</g>
<g>
</g>
<g>
</g>
</svg>
