<?xml version="1.0" encoding="iso-8859-1"?>
<!-- Generator: Adobe Illustrator 17.1.0, SVG Export Plug-In . SVG Version: 6.00 Build 0)  -->
<!DOCTYPE svg PUBLIC "-//W3C//DTD SVG 1.1//EN" "http://www.w3.org/Graphics/SVG/1.1/DTD/svg11.dtd">
<svg version="1.1" id="Capa_1" xmlns="http://www.w3.org/2000/svg" xmlns:xlink="http://www.w3.org/1999/xlink" x="0px" y="0px"
	 viewBox="0 0 550.752 550.752" style="enable-background:new 0 0 550.752 550.752;" xml:space="preserve">
<path d="M275.376,189.085c-62.352,0-113.079,50.727-113.079,113.079s50.727,113.079,113.079,113.079s113.079-50.727,113.079-113.079
	S337.728,189.085,275.376,189.085z M275.376,400.242c-54.081,0-98.079-43.998-98.079-98.079s43.998-98.079,98.079-98.079
	s98.079,43.998,98.079,98.079S329.457,400.242,275.376,400.242z M232.683,302.164c0,23.541,19.152,42.693,42.693,42.693
	s42.693-19.152,42.693-42.693s-19.152-42.693-42.693-42.693S232.683,278.623,232.683,302.164z M275.376,329.856
	c-15.27,0-27.693-12.423-27.693-27.693s12.423-27.693,27.693-27.693s27.693,12.423,27.693,27.693S290.646,329.856,275.376,329.856z
	 M298.356,302.164c0,4.142-3.358,7.5-7.5,7.5s-7.5-3.358-7.5-7.5c0-4.4-3.58-7.98-7.98-7.98c-4.142,0-7.5-3.358-7.5-7.5
	s3.358-7.5,7.5-7.5C288.047,279.183,298.356,289.492,298.356,302.164z M357.611,302.164c0,45.344-36.891,82.235-82.235,82.235
	s-82.235-36.891-82.235-82.235s36.891-82.235,82.235-82.235c26.866,0,52.095,13.171,67.486,35.231
	c2.37,3.397,1.538,8.072-1.859,10.442c-3.398,2.371-8.073,1.537-10.442-1.859c-12.588-18.043-33.217-28.814-55.184-28.814
	c-37.073,0-67.235,30.162-67.235,67.235s30.162,67.235,67.235,67.235s67.235-30.162,67.235-67.235c0-4.142,3.358-7.5,7.5-7.5
	S357.611,298.021,357.611,302.164z M549.245,163.73l0.007-0.005c-1.169-1.559-12.561-15.623-52.089-29.372
	c-51.897-18.051-126.517-27.204-221.787-27.204c-95.271,0-169.891,9.153-221.788,27.204C14.06,148.103,2.669,162.167,1.5,163.726
	c-0.034,0.045-0.061,0.093-0.093,0.139c-0.083,0.116-0.162,0.234-0.239,0.355c-0.058,0.092-0.114,0.183-0.168,0.276
	c-0.068,0.118-0.131,0.238-0.193,0.36c-0.051,0.102-0.102,0.204-0.148,0.307c-0.052,0.116-0.1,0.234-0.146,0.354
	c-0.044,0.113-0.086,0.225-0.124,0.34c-0.038,0.114-0.071,0.229-0.104,0.345c-0.035,0.124-0.067,0.247-0.096,0.372
	c-0.025,0.11-0.046,0.222-0.066,0.334c-0.024,0.134-0.045,0.268-0.061,0.402c-0.013,0.107-0.023,0.215-0.032,0.323
	c-0.011,0.142-0.018,0.284-0.022,0.426C0.007,168.115,0,168.169,0,168.226v267.876c0,4.142,3.358,7.5,7.5,7.5h535.752
	c4.142,0,7.5-3.358,7.5-7.5V168.226C550.752,166.537,550.187,164.984,549.245,163.73z M275.376,122.15
	c114.213,0,179.395,13.803,213.963,25.383c13.702,4.59,23.781,9.193,31.072,13.192h-18.576c-4.142,0-7.5,3.358-7.5,7.5
	s3.358,7.5,7.5,7.5h33.917v252.876H15V175.726h433.259c4.142,0,7.5-3.358,7.5-7.5s-3.358-7.5-7.5-7.5H30.348
	c6.771-3.715,15.943-7.951,28.168-12.204C93.104,136.491,158.803,122.15,275.376,122.15z M87.863,187.513
	c-26.292,0-47.681,21.39-47.681,47.681s21.39,47.682,47.681,47.682s47.682-21.39,47.682-47.682S114.154,187.513,87.863,187.513z
	 M87.863,267.876c-18.021,0-32.681-14.661-32.681-32.682s14.661-32.681,32.681-32.681s32.682,14.661,32.682,32.681
	S105.883,267.876,87.863,267.876z M110.861,235.194c0,12.681-10.317,22.998-22.998,22.998s-22.998-10.317-22.998-22.998
	c0-12.681,10.317-22.998,22.998-22.998c4.142,0,7.5,3.358,7.5,7.5s-3.358,7.5-7.5,7.5c-4.41,0-7.998,3.588-7.998,7.998
	c0,4.41,3.588,7.998,7.998,7.998s7.998-3.588,7.998-7.998c0-4.142,3.358-7.5,7.5-7.5S110.861,231.052,110.861,235.194z
	 M415.208,235.194c0,26.292,21.39,47.682,47.682,47.682s47.681-21.39,47.681-47.682s-21.39-47.681-47.681-47.681
	S415.208,208.903,415.208,235.194z M462.889,202.513c18.021,0,32.681,14.661,32.681,32.681s-14.661,32.682-32.681,32.682
	s-32.682-14.661-32.682-32.682S444.869,202.513,462.889,202.513z M439.891,235.194c0-12.681,10.317-22.998,22.998-22.998
	c4.142,0,7.5,3.358,7.5,7.5s-3.358,7.5-7.5,7.5c-4.41,0-7.998,3.588-7.998,7.998c0,4.41,3.588,7.998,7.998,7.998
	s7.998-3.588,7.998-7.998c0-4.142,3.358-7.5,7.5-7.5s7.5,3.358,7.5,7.5c0,12.681-10.317,22.998-22.998,22.998
	S439.891,247.875,439.891,235.194z M87.863,321.506c-26.292,0-47.681,21.39-47.681,47.681c0,26.292,21.39,47.682,47.681,47.682
	s47.682-21.39,47.682-47.682C135.544,342.896,114.154,321.506,87.863,321.506z M87.863,401.869
	c-18.021,0-32.681-14.661-32.681-32.682s14.661-32.681,32.681-32.681s32.682,14.661,32.682,32.681S105.883,401.869,87.863,401.869z
	 M110.861,369.187c0,12.681-10.317,22.998-22.998,22.998s-22.998-10.317-22.998-22.998s10.317-22.998,22.998-22.998
	c4.142,0,7.5,3.358,7.5,7.5s-3.358,7.5-7.5,7.5c-4.41,0-7.998,3.588-7.998,7.998s3.588,7.998,7.998,7.998s7.998-3.588,7.998-7.998
	c0-4.142,3.358-7.5,7.5-7.5S110.861,365.045,110.861,369.187z M462.889,321.506c-26.292,0-47.682,21.39-47.682,47.681
	c0,26.292,21.39,47.682,47.682,47.682s47.681-21.39,47.681-47.682C510.57,342.896,489.181,321.506,462.889,321.506z
	 M462.889,401.869c-18.021,0-32.682-14.661-32.682-32.682s14.661-32.681,32.682-32.681s32.681,14.661,32.681,32.681
	S480.91,401.869,462.889,401.869z M485.887,369.187c0,12.681-10.317,22.998-22.998,22.998s-22.998-10.317-22.998-22.998
	s10.317-22.998,22.998-22.998c4.142,0,7.5,3.358,7.5,7.5s-3.358,7.5-7.5,7.5c-4.41,0-7.998,3.588-7.998,7.998
	s3.588,7.998,7.998,7.998s7.998-3.588,7.998-7.998c0-4.142,3.358-7.5,7.5-7.5S485.887,365.045,485.887,369.187z"/>
<g>
</g>
<g>
</g>
<g>
</g>
<g>
</g>
<g>
</g>
<g>
</g>
<g>
</g>
<g>
</g>
<g>
</g>
<g>
</g>
<g>
</g>
<g>
</g>
<g>
</g>
<g>
</g>
<g>
</g>
</svg>
