<?xml version="1.0" encoding="iso-8859-1"?>
<!-- Generator: Adobe Illustrator 17.1.0, SVG Export Plug-In . SVG Version: 6.00 Build 0)  -->
<!DOCTYPE svg PUBLIC "-//W3C//DTD SVG 1.1//EN" "http://www.w3.org/Graphics/SVG/1.1/DTD/svg11.dtd">
<svg version="1.1" id="Capa_1" xmlns="http://www.w3.org/2000/svg" xmlns:xlink="http://www.w3.org/1999/xlink" x="0px" y="0px"
	 viewBox="0 0 550.752 550.752" style="enable-background:new 0 0 550.752 550.752;" xml:space="preserve">
<path d="M366.492,85.74c-30.154,0-59.252,7.227-85.279,20.844c-19.651,9.682-123.371,59.79-193.171,74.026
	C33.735,191.684,0,225.937,0,269.999c0,38.006,24.922,68.965,66.969,83.702v103.812c0,4.142,3.357,7.5,7.5,7.5h154.028
	c4.143,0,7.5-3.358,7.5-7.5v-19.734v-25.849c28.364,12.835,48.01,22.861,48.44,23.081c0.3,0.154,0.606,0.281,0.915,0.391
	c24.496,12.066,52.038,18.858,81.139,18.858c101.602,0,184.26-82.659,184.26-184.26S468.094,85.74,366.492,85.74z M366.492,439.259
	c-93.33,0-169.26-75.93-169.26-169.26c0-27.35,6.672-54.516,19.295-78.559c1.925-3.667,0.513-8.202-3.154-10.127
	c-3.669-1.925-8.201-0.512-10.127,3.154c-13.747,26.186-21.014,55.762-21.014,85.532c0,46.895,17.619,89.746,46.572,122.304
	c-11.529-5.07-24.056-10.386-37.049-15.594c-0.425-0.22-0.874-0.401-1.342-0.537c-22.341-8.919-45.992-17.476-68.264-23.875v-68.906
	c0-4.142-3.357-7.5-7.5-7.5H74.469c-4.143,0-7.5,3.358-7.5,7.5v54.275C46.236,329.3,15,310.04,15,269.999
	c0-54.917,58.201-71.055,76.04-74.693c45.114-9.201,102.437-32.208,144.203-50.699c0.169,1.629,0.865,3.215,2.101,4.475
	c2.903,2.958,7.651,3,10.606,0.1c11.982-11.758,25.419-21.526,39.896-29.138c1.819-0.901,2.985-1.486,3.388-1.689
	c0.186-0.094,0.362-0.199,0.536-0.305c22.974-11.32,48.41-17.311,74.722-17.311c93.33,0,169.26,75.93,169.26,169.26
	S459.822,439.259,366.492,439.259z M122.15,367.924c19.208,5.704,39.353,12.954,58.666,20.569v41.786H122.15V367.924z
	 M220.997,430.323c-3.764,0.401-6.696,3.585-6.696,7.456c0,3.871,2.932,7.056,6.696,7.458v4.776H81.969v-159.12h25.182v146.886
	c0,4.142,3.357,7.5,7.5,7.5h83.888c4.143,0,7.5-3.358,7.5-7.5s-3.357-7.5-7.5-7.5h-2.722v-35.738
	c8.737,3.599,17.189,7.207,25.181,10.709V430.323z M366.492,111.522c-87.385,0-158.477,71.092-158.477,158.477
	s71.092,158.477,158.477,158.477s158.477-71.092,158.477-158.477S453.877,111.522,366.492,111.522z M366.492,413.476
	c-79.113,0-143.477-64.364-143.477-143.477s64.363-143.477,143.477-143.477s143.477,64.364,143.477,143.477
	S445.605,413.476,366.492,413.476z M437.767,226.52c-15.825-28.471-45.595-46.062-78.284-46.062
	c-49.374,0-89.542,40.168-89.542,89.542s40.168,89.542,89.542,89.542c32.688,0,62.458-17.591,78.284-46.062
	c15.365-8.425,25.806-24.755,25.806-43.48C463.573,251.274,453.132,234.945,437.767,226.52z M359.483,344.541
	c-41.103,0-74.542-33.439-74.542-74.542s33.439-74.542,74.542-74.542c21.656,0,41.774,9.275,55.73,25.008l-55.06-16.947
	c-0.715-0.22-1.458-0.332-2.206-0.332c-36.841,0-66.813,29.972-66.813,66.813c0,36.827,29.95,66.79,66.773,66.811
	c0.012,0,0.024,0.003,0.037,0.003c0.025,0,0.051-0.005,0.076-0.006c0.307-0.003,0.608-0.029,0.906-0.067
	c0.083-0.011,0.166-0.024,0.249-0.038c0.356-0.059,0.706-0.136,1.043-0.243l54.996-16.928
	C401.257,335.265,381.138,344.541,359.483,344.541z M414.062,304.552c-0.019,0-0.038,0.001-0.058,0.001
	c-19.046-0.008-34.539-15.506-34.539-34.553c0-4.142-3.357-7.5-7.5-7.5s-7.5,3.358-7.5,7.5c0,17.815,9.454,33.459,23.604,42.194
	l-31.164,9.592c-28.089-0.559-50.771-23.566-50.771-51.786c0-28.205,22.653-51.219,50.721-51.801l31.197,9.602
	c-3.387,2.205-4.433,6.714-2.313,10.186c2.158,3.536,6.773,4.653,10.31,2.494c5.391-3.292,11.602-5.032,17.959-5.034
	c0.017,0,0.034,0.001,0.051,0.001c19.034,0.022,34.514,15.513,34.514,34.553C448.573,289.038,433.095,304.529,414.062,304.552z"/>
<g>
</g>
<g>
</g>
<g>
</g>
<g>
</g>
<g>
</g>
<g>
</g>
<g>
</g>
<g>
</g>
<g>
</g>
<g>
</g>
<g>
</g>
<g>
</g>
<g>
</g>
<g>
</g>
<g>
</g>
</svg>
