<?xml version="1.0" encoding="iso-8859-1"?>
<!-- Generator: Adobe Illustrator 17.1.0, SVG Export Plug-In . SVG Version: 6.00 Build 0)  -->
<!DOCTYPE svg PUBLIC "-//W3C//DTD SVG 1.1//EN" "http://www.w3.org/Graphics/SVG/1.1/DTD/svg11.dtd">
<svg version="1.1" id="Capa_1" xmlns="http://www.w3.org/2000/svg" xmlns:xlink="http://www.w3.org/1999/xlink" x="0px" y="0px"
	 viewBox="0 0 546.003 546.003" style="enable-background:new 0 0 546.003 546.003;" xml:space="preserve">
<g>
	<path d="M444.149,72.645c-0.007-0.06-0.019-0.12-0.027-0.18c-0.028-0.208-0.06-0.414-0.104-0.617
		c-0.016-0.071-0.036-0.14-0.054-0.21c-0.047-0.19-0.099-0.378-0.161-0.562c-0.026-0.076-0.055-0.151-0.083-0.227
		c-0.065-0.174-0.134-0.346-0.211-0.513c-0.017-0.038-0.029-0.078-0.047-0.115L411.94,4.266C410.694,1.659,408.062,0,405.173,0
		H140.829c-2.889,0-5.521,1.659-6.767,4.266l-31.521,65.955c-0.017,0.036-0.029,0.075-0.046,0.112
		c-0.078,0.17-0.149,0.344-0.214,0.521c-0.027,0.074-0.056,0.146-0.081,0.221c-0.062,0.186-0.115,0.376-0.163,0.569
		c-0.017,0.068-0.037,0.135-0.053,0.204c-0.045,0.204-0.078,0.413-0.105,0.623c-0.008,0.058-0.02,0.116-0.027,0.174
		c-0.029,0.266-0.045,0.536-0.045,0.81v0v0v465.048c0,4.142,3.358,7.5,7.5,7.5h327.387c4.142,0,7.5-3.358,7.5-7.5V73.455
		C444.195,73.181,444.178,72.911,444.149,72.645z M429.195,531.003H116.808V80.954h233.718c4.142,0,7.5-3.358,7.5-7.5
		s-3.358-7.5-7.5-7.5H121.205L145.557,15h254.887l24.353,50.955h-26.563c-4.142,0-7.5,3.358-7.5,7.5s3.358,7.5,7.5,7.5h30.96
		V531.003z"/>
	<path d="M126.361,97.206v417.443c0,4.142,3.358,7.5,7.5,7.5h278.28c4.142,0,7.5-3.358,7.5-7.5V97.206c0-4.142-3.358-7.5-7.5-7.5
		h-278.28C129.719,89.706,126.361,93.064,126.361,97.206z M141.361,104.706h263.28v402.443h-263.28V104.706z"/>
	<path d="M395.372,130.178c-0.008-0.085-0.024-0.168-0.035-0.252c-0.021-0.159-0.041-0.318-0.073-0.476
		c-0.022-0.109-0.052-0.215-0.078-0.322c-0.032-0.129-0.061-0.259-0.1-0.387c-0.039-0.13-0.087-0.255-0.133-0.381
		c-0.037-0.103-0.07-0.206-0.112-0.307c-0.063-0.153-0.137-0.301-0.21-0.449c-0.035-0.072-0.066-0.145-0.104-0.215
		c-0.1-0.188-0.211-0.37-0.327-0.548c-0.018-0.029-0.033-0.058-0.052-0.087c-0.002-0.002-0.004-0.005-0.005-0.007
		c-0.14-0.209-0.289-0.411-0.449-0.605c-0.066-0.08-0.139-0.151-0.207-0.228c-0.093-0.104-0.183-0.21-0.281-0.308
		c-0.12-0.12-0.247-0.229-0.373-0.339c-0.056-0.049-0.109-0.102-0.166-0.149c-0.12-0.099-0.247-0.188-0.372-0.279
		c-0.073-0.052-0.143-0.109-0.217-0.159c-0.107-0.072-0.219-0.134-0.329-0.2c-0.101-0.061-0.2-0.124-0.304-0.18
		c-0.086-0.046-0.176-0.085-0.264-0.127c-0.133-0.065-0.266-0.132-0.404-0.188c-0.063-0.026-0.128-0.046-0.191-0.07
		c-0.165-0.063-0.329-0.126-0.499-0.177c-0.044-0.013-0.089-0.022-0.133-0.034c-0.188-0.053-0.378-0.104-0.572-0.143
		c-0.043-0.009-0.088-0.012-0.131-0.02c-0.218-0.04-0.439-0.072-0.663-0.092c-0.221-0.02-0.443-0.033-0.665-0.033
		c-0.005,0-0.009-0.001-0.014-0.001h-31.339c-4.142,0-7.5,3.358-7.5,7.5s3.358,7.5,7.5,7.5h6.568l-8.838,19.892H191.703
		l-8.838-19.892h132.645c4.142,0,7.5-3.358,7.5-7.5s-3.358-7.5-7.5-7.5H158.093c-0.004,0-0.008,0-0.011,0
		c-0.244,0.001-0.487,0.013-0.729,0.037c-0.152,0.015-0.3,0.042-0.449,0.066c-0.096,0.015-0.192,0.025-0.287,0.044
		c-0.177,0.036-0.35,0.083-0.523,0.131c-0.06,0.017-0.122,0.029-0.182,0.047c-0.159,0.048-0.313,0.107-0.467,0.166
		c-0.074,0.028-0.15,0.051-0.223,0.082c-0.129,0.054-0.253,0.116-0.378,0.177c-0.096,0.046-0.194,0.089-0.289,0.139
		c-0.096,0.051-0.187,0.11-0.28,0.166c-0.119,0.07-0.238,0.138-0.354,0.215c-0.066,0.044-0.127,0.094-0.191,0.14
		c-0.135,0.096-0.269,0.192-0.398,0.297c-0.047,0.039-0.089,0.082-0.135,0.121c-0.137,0.118-0.274,0.237-0.404,0.367
		c-0.076,0.076-0.144,0.159-0.217,0.238c-0.091,0.099-0.184,0.193-0.27,0.297c-0.16,0.193-0.308,0.395-0.448,0.604
		c-0.002,0.002-0.004,0.005-0.005,0.007c-0.019,0.028-0.033,0.058-0.052,0.087c-0.116,0.178-0.226,0.36-0.327,0.548
		c-0.038,0.071-0.068,0.144-0.104,0.215c-0.073,0.148-0.146,0.296-0.21,0.449c-0.042,0.102-0.075,0.205-0.112,0.307
		c-0.046,0.126-0.094,0.251-0.133,0.381c-0.039,0.128-0.068,0.258-0.1,0.387c-0.026,0.107-0.056,0.213-0.078,0.322
		c-0.031,0.158-0.052,0.317-0.073,0.476c-0.011,0.084-0.027,0.167-0.035,0.252c-0.02,0.201-0.027,0.403-0.031,0.604
		c-0.001,0.044-0.007,0.087-0.007,0.131v0.026c0,0.008,0,0.015,0,0.023v118.413c0,0.052,0.007,0.103,0.008,0.155
		c0.003,0.137,0.01,0.274,0.021,0.411c0.009,0.118,0.019,0.235,0.033,0.352c0.015,0.119,0.034,0.236,0.054,0.354
		c0.022,0.129,0.045,0.257,0.073,0.383c0.024,0.106,0.053,0.21,0.081,0.315c0.036,0.131,0.072,0.261,0.114,0.389
		c0.034,0.104,0.074,0.206,0.113,0.308c0.046,0.122,0.093,0.243,0.145,0.362c0.048,0.11,0.103,0.217,0.157,0.325
		c0.053,0.105,0.105,0.211,0.162,0.313c0.065,0.115,0.136,0.228,0.207,0.34c0.057,0.09,0.113,0.18,0.174,0.267
		c0.079,0.113,0.163,0.223,0.249,0.333c0.065,0.083,0.129,0.166,0.197,0.246c0.086,0.101,0.176,0.198,0.268,0.295
		c0.08,0.085,0.161,0.169,0.246,0.25c0.086,0.082,0.175,0.162,0.265,0.241c0.102,0.089,0.206,0.176,0.312,0.26
		c0.042,0.033,0.079,0.069,0.122,0.101c0.028,0.021,0.058,0.034,0.086,0.054c0.294,0.215,0.602,0.412,0.926,0.583
		c0.044,0.023,0.088,0.042,0.132,0.064c0.299,0.15,0.61,0.281,0.931,0.391c0.044,0.015,0.086,0.033,0.13,0.048
		c0.325,0.104,0.661,0.183,1.003,0.242c0.082,0.014,0.164,0.026,0.247,0.038c0.331,0.046,0.667,0.078,1.011,0.079
		c0.009,0,0.019,0.002,0.028,0.002c0.003,0,0.006,0,0.009,0h229.811c0.003,0,0.006,0,0.009,0c0.009,0,0.019-0.002,0.028-0.002
		c0.344-0.001,0.68-0.033,1.011-0.079c0.082-0.012,0.164-0.023,0.246-0.038c0.343-0.06,0.679-0.138,1.004-0.242
		c0.043-0.014,0.085-0.032,0.129-0.047c0.321-0.11,0.632-0.241,0.932-0.392c0.044-0.022,0.088-0.041,0.131-0.063
		c0.325-0.171,0.632-0.368,0.926-0.583c0.028-0.02,0.058-0.033,0.086-0.054c0.043-0.032,0.08-0.068,0.122-0.101
		c0.107-0.084,0.21-0.171,0.312-0.26c0.09-0.079,0.18-0.159,0.265-0.241c0.084-0.081,0.165-0.166,0.246-0.25
		c0.092-0.097,0.182-0.194,0.268-0.295c0.068-0.08,0.132-0.163,0.197-0.246c0.085-0.11,0.17-0.219,0.249-0.333
		c0.061-0.087,0.117-0.177,0.174-0.267c0.071-0.113,0.142-0.225,0.207-0.34c0.058-0.103,0.11-0.208,0.162-0.313
		c0.054-0.108,0.108-0.215,0.157-0.325c0.052-0.119,0.099-0.24,0.145-0.362c0.039-0.102,0.078-0.204,0.113-0.308
		c0.042-0.128,0.078-0.258,0.114-0.389c0.029-0.105,0.057-0.209,0.081-0.315c0.028-0.126,0.051-0.254,0.073-0.383
		c0.02-0.118,0.039-0.235,0.054-0.354c0.014-0.116,0.024-0.234,0.033-0.352c0.01-0.137,0.018-0.274,0.021-0.411
		c0.001-0.052,0.008-0.103,0.008-0.155V130.963c0-0.008,0-0.015,0-0.023v-0.026c0-0.044-0.006-0.087-0.007-0.131
		C395.4,130.581,395.392,130.38,395.372,130.178z M196.932,173.306h152.139v26.785H196.932V173.306z M165.593,144.927l16.339,24.892
		v35.271l-16.339,21.785V144.927z M173.093,241.876l20.089-26.785h159.639l20.089,26.785H173.093z M380.41,226.876l-16.339-21.785
		V169.82l16.339-24.892V226.876z"/>
	<path d="M273.001,285.947c-55.976,0-101.516,45.54-101.516,101.516s45.54,101.516,101.516,101.516s101.516-45.54,101.516-101.516
		S328.977,285.947,273.001,285.947z M273.001,473.978c-47.705,0-86.516-38.811-86.516-86.516s38.811-86.516,86.516-86.516
		s86.516,38.811,86.516,86.516S320.706,473.978,273.001,473.978z"/>
	<path d="M327.518,379.962c-4.142,0-7.5,3.358-7.5,7.5c0,25.925-21.092,47.017-47.017,47.017s-47.017-21.092-47.017-47.017
		s21.092-47.017,47.017-47.017c15.361,0,29.788,7.533,38.591,20.152c2.371,3.397,7.046,4.23,10.442,1.859
		c3.397-2.37,4.229-7.045,1.859-10.442c-11.606-16.637-30.632-26.569-50.893-26.569c-34.196,0-62.017,27.821-62.017,62.017
		s27.821,62.017,62.017,62.017s62.017-27.821,62.017-62.017C335.018,383.32,331.661,379.962,327.518,379.962z"/>
	<path d="M273.001,348.624c-21.416,0-38.839,17.423-38.839,38.838c0,21.416,17.423,38.839,38.839,38.839
		c21.416,0,38.838-17.423,38.838-38.839C311.84,366.047,294.417,348.624,273.001,348.624z M273.001,411.301
		c-13.145,0-23.839-10.694-23.839-23.839c0-13.145,10.694-23.838,23.839-23.838c13.145,0,23.838,10.694,23.838,23.838
		C296.84,400.607,286.146,411.301,273.001,411.301z"/>
	<path d="M273.001,366.998c-4.142,0-7.5,3.358-7.5,7.5s3.358,7.5,7.5,7.5c3.013,0,5.464,2.451,5.464,5.464
		c0,4.142,3.358,7.5,7.5,7.5s7.5-3.358,7.5-7.5C293.465,376.178,284.285,366.998,273.001,366.998z"/>
</g>
<g>
</g>
<g>
</g>
<g>
</g>
<g>
</g>
<g>
</g>
<g>
</g>
<g>
</g>
<g>
</g>
<g>
</g>
<g>
</g>
<g>
</g>
<g>
</g>
<g>
</g>
<g>
</g>
<g>
</g>
</svg>
