<?xml version="1.0" encoding="iso-8859-1"?>
<!-- Generator: Adobe Illustrator 17.1.0, SVG Export Plug-In . SVG Version: 6.00 Build 0)  -->
<!DOCTYPE svg PUBLIC "-//W3C//DTD SVG 1.1//EN" "http://www.w3.org/Graphics/SVG/1.1/DTD/svg11.dtd">
<svg version="1.1" id="Capa_1" xmlns="http://www.w3.org/2000/svg" xmlns:xlink="http://www.w3.org/1999/xlink" x="0px" y="0px"
	 viewBox="0 0 550.47 550.47" style="enable-background:new 0 0 550.47 550.47;" xml:space="preserve">
<path d="M265.828,305.801c2.844,3.011,2.709,7.758-0.302,10.602c-1.449,1.369-3.301,2.048-5.148,2.048
	c-1.992,0-3.979-0.788-5.454-2.35l-33.951-35.945c-2.844-3.011-2.709-7.758,0.302-10.602c3.012-2.844,7.759-2.708,10.602,0.302
	L265.828,305.801z M549.556,46.357L527.45,86.93l2.245,1.223c1.747,0.952,3.043,2.558,3.606,4.466
	c0.562,1.908,0.343,3.961-0.608,5.708l-12.797,23.488c-1.361,2.498-3.935,3.913-6.593,3.913c-1.212,0-2.442-0.294-3.582-0.916
	l-16.563-9.023l-58.688,371.69c-0.562,14.529-17.276,26.28-49.723,34.933c-29.104,7.761-67.671,12.035-108.598,12.035
	c-40.927,0-79.495-4.274-108.599-12.035c-32.448-8.653-49.161-20.404-49.723-34.933L58.995,114.872l-18.248,9.942
	c-1.111,0.605-2.346,0.914-3.588,0.914c-0.711,0-1.425-0.101-2.12-0.306c-1.908-0.563-3.515-1.859-4.466-3.606L17.777,98.327
	c-1.982-3.637-0.64-8.192,2.998-10.174l2.245-1.223L0.914,46.357c-0.952-1.747-1.17-3.8-0.608-5.708
	c0.563-1.908,1.859-3.515,3.606-4.466l35.324-19.245c3.639-1.982,8.193-0.639,10.174,2.998l22.105,40.574l2.245-1.223
	c3.638-1.981,8.193-0.64,10.174,2.998l12.797,23.488c0.952,1.747,1.17,3.8,0.608,5.708c-0.563,1.908-1.859,3.515-3.606,4.466
	l-17.554,9.563l126.605,133.639c2.849,3.007,2.72,7.754-0.287,10.603c-3.008,2.848-7.755,2.719-10.603-0.287L76.14,127.277
	l52.281,331.115l136.705-346.319H245.98c-4.142,0-7.5-3.358-7.5-7.5V77.825c0-4.142,3.358-7.5,7.5-7.5h2.557V24.12
	c0-4.142,3.358-7.5,7.5-7.5h40.226c4.142,0,7.5,3.358,7.5,7.5v46.205h2.557c4.142,0,7.5,3.358,7.5,7.5v26.748
	c0,4.142-3.358,7.5-7.5,7.5h-19.146l136.705,346.319l52.339-331.482L356.973,250.57c-2.875,2.981-7.623,3.068-10.605,0.193
	c-2.981-2.875-3.068-7.623-0.193-10.605l129.246-134.033l-18.685-10.18c-1.747-0.952-3.043-2.558-3.606-4.466
	c-0.562-1.908-0.343-3.961,0.608-5.708l12.797-23.488c1.981-3.637,6.536-4.98,10.174-2.998l2.245,1.223l22.105-40.574
	c1.981-3.637,6.537-4.98,10.174-2.998l35.324,19.245c1.747,0.952,3.044,2.558,3.606,4.466
	C550.726,42.556,550.507,44.609,549.556,46.357z M532.795,45.766l-22.152-12.069l-18.517,33.988l6.722,3.662
	c3.637,1.981,4.979,6.537,2.998,10.174c-1.981,3.637-6.536,4.979-10.174,2.998l-15.553-8.473l-5.62,10.316l39.814,21.691
	l5.62-10.316l-8.518-4.641c-3.637-1.981-4.979-6.537-2.998-10.174c1.924-3.531,6.272-4.89,9.852-3.152L532.795,45.766z
	 M298.819,97.073V85.325h-9.08c-4.142,0-7.5-3.358-7.5-7.5c0-3.81,2.844-6.95,6.523-7.429V31.62h-25.226v38.705h8.801
	c4.142,0,7.5,3.358,7.5,7.5s-3.358,7.5-7.5,7.5H253.48v11.748H298.819z M132.801,486.722c0,3.77,8.071,13.053,38.615,21.198
	c27.879,7.435,65.074,11.529,104.734,11.529c39.659,0,76.854-4.094,104.733-11.529c30.544-8.145,38.615-17.428,38.615-21.198
	c0-2.413-3.152-6.856-12.74-11.807c-0.119-0.059-0.239-0.119-0.355-0.185c-6.712-3.418-16.494-7.068-30.43-10.456
	c-4.025-0.979-6.495-5.034-5.516-9.059c0.978-4.024,5.031-6.498,9.059-5.516c1.147,0.279,2.276,0.561,3.387,0.847L282.555,345.258
	c-2.858-2.999-2.744-7.746,0.255-10.604c2.999-2.857,7.745-2.744,10.604,0.255l111.971,117.484L276.15,125L146.736,452.846
	l169.193-180.761c2.831-3.024,7.577-3.18,10.601-0.351c3.024,2.831,3.181,7.577,0.351,10.601L169.427,450.554
	c28.878-7.453,66.658-11.559,106.723-11.559c21.264,0,41.857,1.143,61.207,3.397c4.114,0.479,7.061,4.203,6.582,8.318
	c-0.48,4.114-4.205,7.059-8.318,6.582c-18.775-2.188-38.785-3.297-59.471-3.297c-39.66,0-76.855,4.094-104.734,11.529
	C140.872,473.67,132.801,482.952,132.801,486.722z M79.971,86.362l-5.62-10.316l-5.801,3.16c-3.639,1.981-8.193,0.639-10.174-2.998
	c-1.386-2.544-1.142-5.534,0.372-7.781l-18.922-34.73L17.674,45.766l18.517,33.988l8.917-4.858
	c3.638-1.983,8.193-0.639,10.174,2.998c1.982,3.638,0.64,8.192-2.998,10.174l-15.502,8.446l0,0l0,0l-2.245,1.223l5.62,10.316
	L79.971,86.362z"/>
<g>
</g>
<g>
</g>
<g>
</g>
<g>
</g>
<g>
</g>
<g>
</g>
<g>
</g>
<g>
</g>
<g>
</g>
<g>
</g>
<g>
</g>
<g>
</g>
<g>
</g>
<g>
</g>
<g>
</g>
</svg>
