<?xml version="1.0" encoding="iso-8859-1"?>
<!-- Generator: Adobe Illustrator 17.1.0, SVG Export Plug-In . SVG Version: 6.00 Build 0)  -->
<!DOCTYPE svg PUBLIC "-//W3C//DTD SVG 1.1//EN" "http://www.w3.org/Graphics/SVG/1.1/DTD/svg11.dtd">
<svg version="1.1" id="Capa_1" xmlns="http://www.w3.org/2000/svg" xmlns:xlink="http://www.w3.org/1999/xlink" x="0px" y="0px"
	 viewBox="0 0 551.179 551.179" style="enable-background:new 0 0 551.179 551.179;" xml:space="preserve">
<path d="M432.601,515.45V35.726c0-0.02,0.003-0.038,0.003-0.058s-0.003-0.038-0.003-0.058V7.5c0-4.142-3.358-7.5-7.5-7.5h-30.933
	c-4.142,0-7.5,3.358-7.5,7.5v28.1c0,0.023-0.003,0.045-0.003,0.068s0.003,0.045,0.003,0.068v15.819h-54.6V35.736
	c0-0.023,0.003-0.045,0.003-0.068s-0.003-0.045-0.003-0.068V7.5c0-4.142-3.358-7.5-7.5-7.5h-30.933c-4.142,0-7.5,3.358-7.5,7.5
	v28.11c0,0.02-0.003,0.038-0.003,0.058s0.003,0.038,0.003,0.058v15.829h-33.978V35.726c0-0.02,0.003-0.038,0.003-0.058
	s-0.003-0.038-0.003-0.058V7.5c0-4.142-3.358-7.5-7.5-7.5h-30.934c-4.142,0-7.5,3.358-7.5,7.5v28.11c0,0.02-0.003,0.038-0.003,0.058
	s0.003,0.038,0.003,0.058v15.829h-41.708V7.504c0-4.142-3.358-7.5-7.5-7.5h-30.939c-4.142,0-7.5,3.358-7.5,7.5v536.175
	c0,4.142,3.358,7.5,7.5,7.5h30.939c4.142,0,7.5-3.358,7.5-7.5v-44.059h41.708v15.829c0,0.02-0.003,0.038-0.003,0.058
	s0.003,0.038,0.003,0.058v28.11c0,4.142,3.358,7.5,7.5,7.5h30.934c4.142,0,7.5-3.358,7.5-7.5v-28.11c0-0.02,0.003-0.038,0.003-0.058
	s-0.003-0.038-0.003-0.058v-15.829h33.978v15.829c0,0.02-0.003,0.038-0.003,0.058s0.003,0.038,0.003,0.058v28.11
	c0,4.142,3.358,7.5,7.5,7.5h30.933c4.142,0,7.5-3.358,7.5-7.5v-28.101c0-0.023,0.003-0.045,0.003-0.068s-0.003-0.045-0.003-0.068
	v-15.819h54.6v15.819c0,0.023-0.003,0.045-0.003,0.068s0.003,0.045,0.003,0.068v28.101c0,4.142,3.358,7.5,7.5,7.5h30.933
	c4.142,0,7.5-3.358,7.5-7.5v-28.11c0-0.02,0.003-0.038,0.003-0.058S432.601,515.469,432.601,515.45z M324.568,484.621h-30.933
	h-41.478v-5.622h41.478h30.933h62.1v5.622H324.568z M157.112,484.621c-0.033,0-0.064-0.005-0.097-0.005s-0.064,0.004-0.097,0.005
	h-5.061c-1.55,0-2.811-1.261-2.811-2.811s1.261-2.811,2.811-2.811h54.366v5.622H157.112z M317.068,28.168h-15.933V15h15.933V28.168z
	 M317.068,43.168v8.387h-15.933v-8.387H317.068z M293.625,66.555c0.003,0,0.006,0,0.01,0h30.933c0.003,0,0.006,0,0.01,0h62.09v5.623
	h-62.09c-0.003,0-0.006,0-0.01,0h-30.933c-0.003,0-0.006,0-0.01,0h-41.468v-5.623H293.625z M401.668,523.008h15.933v13.168h-15.933
	V523.008z M401.668,508.008v-15.887v-20.622v-8.231v-31.787V285.899v-20.623V121.696V87.909v-8.231V59.055V43.168h15.933v464.84
	H401.668z M237.157,471.499v20.622v15.887h-15.934v-15.887v-20.622v-85.386v-31.787v-68.427v-20.622v-68.426v-31.787V79.677V59.055
	V43.168h15.934v15.887v20.623v55.52v31.787v65.28v33.013v0.774v19.848v1.227v31.787v65.223v31.787V471.499z M221.223,523.008h15.934
	v13.168h-15.934V523.008z M151.857,278.399c-1.55,0-2.811-1.261-2.811-2.811s1.261-2.811,2.811-2.811h54.366v5.622H151.857z
	 M164.515,317.239l41.708,40.27v10.936l-41.708-40.27V317.239z M206.223,293.399v43.26l-41.708-40.27v-2.99H206.223z
	 M206.223,257.777h-41.708v-2.989l41.708-40.27V257.777z M206.223,193.667l-41.708,40.27v-10.935l41.708-40.271V193.667z
	 M164.515,463.999V349.026l41.708,40.271v74.702H164.515z M237.157,28.168h-15.934V15h15.934V28.168z M299.836,361.764l-0.992-0.958
	l0,0l-46.687-45.077v-10.936l134.511,129.873v10.936L299.836,361.764z M298.844,190.371L298.844,190.371l0.992-0.958l86.831-83.837
	v12.937L252.157,248.385v-12.937L298.844,190.371z M317.068,257.777h-15.933v-34.829l15.933-15.384V257.777z M286.135,257.777
	h-22.11l22.11-21.347V257.777z M286.135,316.748l-24.182-23.348h24.182V316.748z M317.068,346.471l-15.933-15.384v-37.688h15.933
	V346.471z M324.568,278.399h-30.933h-41.478v-5.623h41.478h30.933h62.1v5.623H324.568z M252.157,170.214l33.978-32.134v43.711
	l-33.978,32.806V170.214z M332.068,257.777V192.08l54.6-52.717v118.414H332.068z M301.135,167.308v-43.414l8.963-8.477
	c3.046-2.881,4.441-7.781,5.002-10.445c0.107-0.508,0.161-1.025,0.161-1.544c0-5.585-2.813-11.789-6.892-16.25h8.7v64.747
	L301.135,167.308z M296.522,96.47c1.468,1.251,3.334,4.077,3.682,6.275c-0.218,0.77-0.516,1.631-0.745,2.088l-47.301,44.734v-11.141
	L296.522,96.47z M286.135,369.385v43.654l-33.978-32.134v-44.326L286.135,369.385z M252.157,401.551l47.301,44.735
	c0.223,0.443,0.518,1.277,0.746,2.086c-0.347,2.199-2.214,5.026-3.682,6.277l-44.365-41.958V401.551z M332.068,361.097v-67.698h54.6
	v120.415L332.068,361.097z M315.1,446.147c-0.561-2.665-1.956-7.564-5.002-10.445l-8.963-8.477v-43.357l15.933,15.384v64.747h-8.75
	c4.108-4.464,6.943-10.698,6.943-16.307C315.26,447.173,315.207,446.655,315.1,446.147z M332.068,137.442V87.178h52.059
	L332.068,137.442z M332.068,413.734l52.059,50.264h-52.059V413.734z M284.517,87.178l-32.36,30.604V87.178H284.517z
	 M252.157,433.338l32.42,30.661h-32.42V433.338z M417.601,28.168h-15.933V15h15.933V28.168z M206.223,72.177h-49.189
	c-0.007,0-0.013-0.001-0.019-0.001s-0.013,0.001-0.019,0.001h-5.138c-1.55,0-2.811-1.261-2.811-2.811s1.261-2.811,2.811-2.811h5.129
	c0.01,0,0.019,0.001,0.029,0.001s0.019-0.001,0.029-0.001h49.179V72.177z M149.515,28.168h-15.939V15.004h15.939V28.168z
	 M133.575,523.008h15.939v13.171h-15.939V523.008z M133.575,508.008V43.168h15.939v8.559c-8.716,1.153-15.469,8.614-15.469,17.639
	s6.753,16.486,15.469,17.639v17.006c0,4.142,3.358,7.5,7.5,7.5s7.5-3.358,7.5-7.5V87.177h41.708v74.703l-41.708,40.271v-55.244
	c0-4.142-3.358-7.5-7.5-7.5s-7.5,3.358-7.5,7.5v72.748c-0.001,0.036,0,0.073,0,0.109v38.185
	c-8.716,1.153-15.469,8.614-15.469,17.639s6.753,16.486,15.469,17.639v5.428c-0.068,0.589-0.071,1.183,0,1.771v163.745
	c-8.716,1.153-15.469,8.614-15.469,17.639s6.753,16.486,15.469,17.639v8.559H133.575z M301.135,523.008h15.933v13.168h-15.933
	V523.008z M317.068,508.008h-15.933v-8.387h15.933V508.008z"/>
<g>
</g>
<g>
</g>
<g>
</g>
<g>
</g>
<g>
</g>
<g>
</g>
<g>
</g>
<g>
</g>
<g>
</g>
<g>
</g>
<g>
</g>
<g>
</g>
<g>
</g>
<g>
</g>
<g>
</g>
</svg>
