<?xml version="1.0" encoding="iso-8859-1"?>
<!-- Generator: Adobe Illustrator 17.1.0, SVG Export Plug-In . SVG Version: 6.00 Build 0)  -->
<!DOCTYPE svg PUBLIC "-//W3C//DTD SVG 1.1//EN" "http://www.w3.org/Graphics/SVG/1.1/DTD/svg11.dtd">
<svg version="1.1" id="Capa_1" xmlns="http://www.w3.org/2000/svg" xmlns:xlink="http://www.w3.org/1999/xlink" x="0px" y="0px"
	 viewBox="0 0 552.512 552.512" style="enable-background:new 0 0 552.512 552.512;" xml:space="preserve">
<path d="M552.474,226.11c-0.007-0.075-0.023-0.147-0.033-0.221c-0.022-0.168-0.043-0.336-0.077-0.503
	c-0.04-0.201-0.093-0.398-0.149-0.593c-0.011-0.039-0.018-0.078-0.03-0.117c-0.08-0.262-0.174-0.518-0.281-0.768l-47.406-112.813
	c-1.17-2.783-3.895-4.594-6.914-4.594H54.928c-3.02,0-5.744,1.811-6.914,4.594L0.607,223.908c-0.107,0.249-0.2,0.505-0.281,0.767
	c-0.012,0.039-0.019,0.078-0.03,0.117c-0.056,0.195-0.109,0.392-0.149,0.593c-0.034,0.167-0.055,0.335-0.077,0.503
	c-0.01,0.074-0.025,0.146-0.033,0.221c-0.027,0.268-0.04,0.535-0.038,0.801v25.357c0,4.142,3.357,7.5,7.5,7.5h15.125v149.449
	c-3.975,0.188-7.142,3.461-7.142,7.482v21.813c0,4.142,3.357,7.5,7.5,7.5h37.85c4.143,0,7.5-3.358,7.5-7.5v-21.813
	c0-4.021-3.167-7.294-7.142-7.482v-31.64H491.32v31.64c-3.975,0.188-7.142,3.461-7.142,7.482v21.813c0,4.142,3.357,7.5,7.5,7.5
	h37.85c4.143,0,7.5-3.358,7.5-7.5v-21.813c0-4.021-3.167-7.294-7.142-7.482V259.768h15.125c4.143,0,7.5-3.358,7.5-7.5v-25.356
	C552.514,226.645,552.501,226.378,552.474,226.11z M522.387,244.768H498.82H53.692H30.125H15v-10.403h419.347
	c4.143,0,7.5-3.358,7.5-7.5s-3.357-7.5-7.5-7.5H18.787L59.911,121.5h432.689l41.124,97.864h-20.333c-4.143,0-7.5,3.358-7.5,7.5
	s3.357,7.5,7.5,7.5h24.119v10.403H522.387z M499.179,424.199h22.85v6.813h-22.85V424.199z M514.887,409.199h-8.566v-31.811
	c3.344-0.755,5.844-3.738,5.844-7.31s-2.499-6.556-5.844-7.31v-63.495c3.344-0.755,5.844-3.738,5.844-7.31s-2.499-6.556-5.844-7.31
	v-24.882h8.566V409.199z M30.484,424.199h22.85v6.813h-22.85V424.199z M37.625,409.199V259.768h8.566v24.882
	c-3.344,0.755-5.844,3.738-5.844,7.31s2.5,6.556,5.844,7.31v63.495c-3.344,0.755-5.844,3.738-5.844,7.31s2.5,6.556,5.844,7.31
	v31.811H37.625z M61.192,284.461v-24.693H491.32v24.693H61.192z M61.192,299.461H491.32v63.116H61.192V299.461z"/>
<g>
</g>
<g>
</g>
<g>
</g>
<g>
</g>
<g>
</g>
<g>
</g>
<g>
</g>
<g>
</g>
<g>
</g>
<g>
</g>
<g>
</g>
<g>
</g>
<g>
</g>
<g>
</g>
<g>
</g>
</svg>
