<?xml version="1.0" encoding="iso-8859-1"?>
<!-- Generator: Adobe Illustrator 17.1.0, SVG Export Plug-In . SVG Version: 6.00 Build 0)  -->
<!DOCTYPE svg PUBLIC "-//W3C//DTD SVG 1.1//EN" "http://www.w3.org/Graphics/SVG/1.1/DTD/svg11.dtd">
<svg version="1.1" id="Capa_1" xmlns="http://www.w3.org/2000/svg" xmlns:xlink="http://www.w3.org/1999/xlink" x="0px" y="0px"
	 viewBox="0 0 548.996 548.996" style="enable-background:new 0 0 548.996 548.996;" xml:space="preserve">
<path d="M541.496,446.422h-1.692V287.106v-40.382c0-0.043-0.006-0.085-0.006-0.129c-0.003-0.144-0.011-0.288-0.022-0.433
	c-0.009-0.12-0.019-0.239-0.034-0.357c-0.014-0.114-0.033-0.228-0.052-0.342c-0.025-0.147-0.053-0.293-0.086-0.437
	c-0.009-0.041-0.014-0.081-0.024-0.122l-45.495-181.98c-0.834-3.339-3.834-5.681-7.276-5.681H62.187
	c-3.441,0-6.441,2.342-7.276,5.681L9.416,244.906c-0.01,0.041-0.015,0.081-0.024,0.122c-0.033,0.144-0.061,0.29-0.086,0.437
	c-0.02,0.114-0.038,0.228-0.052,0.342c-0.014,0.118-0.025,0.237-0.034,0.357c-0.011,0.145-0.019,0.289-0.022,0.433
	c-0.001,0.043-0.006,0.085-0.006,0.129v40.382v159.316H7.5c-4.142,0-7.5,3.358-7.5,7.5v30.33c0,4.142,3.358,7.5,7.5,7.5h48.713
	c4.142,0,7.5-3.358,7.5-7.5v-30.33c0-4.142-3.358-7.5-7.5-7.5h-1.691v-15.09h439.952v15.09h-1.692c-4.142,0-7.5,3.358-7.5,7.5v30.33
	c0,4.142,3.358,7.5,7.5,7.5h48.714c4.142,0,7.5-3.358,7.5-7.5v-30.33C548.996,449.78,545.638,446.422,541.496,446.422z
	 M532.304,461.422h1.692v15.33h-33.714v-15.33h1.692H532.304z M39.522,423.832v22.59H24.191V294.606h15.331V423.832z
	 M480.953,72.244l41.745,166.98h-20.725c-4.142,0-7.5,3.358-7.5,7.5s3.358,7.5,7.5,7.5h22.831v25.382h-22.83H47.022H24.191v-25.382
	h401.957c4.142,0,7.5-3.358,7.5-7.5s-3.358-7.5-7.5-7.5H26.297l41.746-166.98H480.953z M54.522,294.849h439.952v121.483H54.522
	V294.849z M509.474,423.832V294.606h15.33v151.816h-15.33V423.832z M48.713,461.422v15.33H15v-15.33h1.691h30.331H48.713z
	 M265.637,308.726c-0.634-3.583-3.747-6.193-7.385-6.193H71.325c-4.142,0-7.5,3.358-7.5,7.5v68.295c0,2.449,1.195,4.743,3.202,6.146
	c1.277,0.893,2.781,1.354,4.298,1.354c0.866,0,1.737-0.15,2.573-0.456l186.927-68.295
	C264.243,315.828,266.271,312.308,265.637,308.726z M215.869,317.532l-137.044,50.07v-50.07H215.869z M477.671,302.532H323.236
	c-0.075,0-0.149,0.008-0.223,0.01c-0.12,0.004-0.239,0.006-0.359,0.016c-0.134,0.01-0.265,0.028-0.397,0.045
	c-0.094,0.013-0.189,0.021-0.283,0.037c-0.232,0.039-0.461,0.089-0.685,0.149c-0.012,0.003-0.023,0.008-0.035,0.011
	c-0.221,0.06-0.437,0.132-0.65,0.212c-0.017,0.006-0.033,0.01-0.05,0.016l-35.48,13.585c-0.002,0.001-0.005,0.001-0.007,0.002
	L82.435,394.143c-3.377,1.292-5.352,4.811-4.695,8.368c0.657,3.556,3.758,6.137,7.375,6.137h375.475
	c3.537,0,6.594-2.472,7.334-5.931s-1.037-6.965-4.265-8.413l-156.366-70.137l15.737-6.026l151.608,67.045
	c0.97,0.429,2.003,0.641,3.033,0.641c1.432,0,2.856-0.41,4.093-1.215c2.125-1.384,3.407-3.749,3.407-6.285v-68.295
	C485.171,305.89,481.813,302.532,477.671,302.532z M125.706,393.648l161.813-61.91l138.023,61.91H125.706z M358.74,317.532h111.431
	v49.278L358.74,317.532z"/>
<g>
</g>
<g>
</g>
<g>
</g>
<g>
</g>
<g>
</g>
<g>
</g>
<g>
</g>
<g>
</g>
<g>
</g>
<g>
</g>
<g>
</g>
<g>
</g>
<g>
</g>
<g>
</g>
<g>
</g>
</svg>
