<?xml version="1.0" encoding="iso-8859-1"?>
<!-- Generator: Adobe Illustrator 17.1.0, SVG Export Plug-In . SVG Version: 6.00 Build 0)  -->
<!DOCTYPE svg PUBLIC "-//W3C//DTD SVG 1.1//EN" "http://www.w3.org/Graphics/SVG/1.1/DTD/svg11.dtd">
<svg version="1.1" id="Capa_1" xmlns="http://www.w3.org/2000/svg" xmlns:xlink="http://www.w3.org/1999/xlink" x="0px" y="0px"
	 viewBox="0 0 544.261 544.261" style="enable-background:new 0 0 544.261 544.261;" xml:space="preserve">
<path d="M536.761,264.63h-91.736v-19.818c0-4.142-3.357-7.5-7.5-7.5s-7.5,3.358-7.5,7.5v19.818h-18.079v-51.157h18.079v4.099
	c0,4.142,3.357,7.5,7.5,7.5s7.5-3.358,7.5-7.5v-4.099h9.04c4.143,0,7.5-3.358,7.5-7.5v-33.079c0-4.142-3.357-7.5-7.5-7.5h-91.737
	v-19.818c0-4.142-3.357-7.5-7.5-7.5s-7.5,3.358-7.5,7.5v19.818h-18.078v-51.158h18.078v4.099c0,4.142,3.357,7.5,7.5,7.5
	s7.5-3.358,7.5-7.5v-4.099h9.04c4.143,0,7.5-3.358,7.5-7.5V73.657c0-4.142-3.357-7.5-7.5-7.5H7.5c-4.142,0-7.5,3.358-7.5,7.5v33.079
	c0,4.142,3.358,7.5,7.5,7.5h9.039v356.367c0,4.142,3.358,7.5,7.5,7.5h33.079c4.142,0,7.5-3.358,7.5-7.5V114.236h34.618v51.158h-9.04
	c-4.142,0-7.5,3.358-7.5,7.5v33.079c0,4.142,3.358,7.5,7.5,7.5h9.04v257.13c0,4.142,3.358,7.5,7.5,7.5h33.079
	c4.142,0,7.5-3.358,7.5-7.5v-257.13h34.619v51.157h-9.04c-4.142,0-7.5,3.358-7.5,7.5v33.079c0,4.142,3.358,7.5,7.5,7.5h9.04v157.894
	c0,4.142,3.358,7.5,7.5,7.5h33.079c4.142,0,7.5-3.358,7.5-7.5V312.709h84.237v157.894c0,4.142,3.357,7.5,7.5,7.5h33.078
	c4.143,0,7.5-3.358,7.5-7.5V312.709h34.618v157.894c0,4.142,3.357,7.5,7.5,7.5h33.079c4.143,0,7.5-3.358,7.5-7.5V312.709h34.618
	v157.894c0,4.142,3.357,7.5,7.5,7.5h33.079c4.143,0,7.5-3.358,7.5-7.5V344.049c0-4.142-3.357-7.5-7.5-7.5s-7.5,3.358-7.5,7.5v86.817
	h-18.079V312.709h18.079v4.099c0,4.142,3.357,7.5,7.5,7.5s7.5-3.358,7.5-7.5v-4.099h9.039c4.143,0,7.5-3.358,7.5-7.5V272.13
	C544.261,267.988,540.903,264.63,536.761,264.63z M520.222,297.709h-33.079h-49.618h-33.079h-49.618h-25.578V279.63h25.578h49.608
	c0.003,0,0.006,0,0.01,0h33.079c0.003,0,0.006,0,0.01,0h91.727v18.079H520.222z M222.512,297.709h-33.079h-9.04V279.63h9.04h33.079
	h91.737v18.079H222.512z M196.934,213.473h18.079v51.157h-18.079V213.473z M139.815,198.473h-33.079h-9.04v-18.079h9.04h33.079
	h91.737v18.079h-9.04h-33.079H139.815z M114.236,114.236h18.079v51.158h-18.079V114.236z M57.118,99.236H24.039H15V81.157h133.854
	v18.079h-9.04h-33.079H57.118z M354.827,99.236h-33.078H163.854V81.157h200.013v18.079H354.827z M446.564,198.473h-9.04h-33.079
	h-49.618h-33.078h-75.197v-18.079h75.197h33.078h91.737V198.473z M329.249,213.473h18.078v51.157h-18.078V213.473z M314.249,213.473
	v51.157h-84.237v-51.157H314.249z M362.327,264.63v-51.157h34.618v51.157H362.327z M147.315,165.394v-51.158h166.934v51.158H147.315
	z M329.249,445.866h18.078v17.237h-18.078V445.866z M347.327,430.866h-18.078V312.709h18.078V430.866z M31.539,445.866h18.079
	v17.237H31.539V445.866z M49.618,430.866H31.539v-316.63h18.079V430.866z M114.236,445.866h18.079v17.237h-18.079V445.866z
	 M132.315,430.866h-18.079V213.473h18.079V430.866z M196.934,445.866h18.079v17.237h-18.079V445.866z M215.012,430.866h-18.079
	V312.709h18.079V430.866z M411.945,445.866h18.079v17.237h-18.079V445.866z M430.024,430.866h-18.079V312.709h18.079V430.866z
	 M512.722,463.103h-18.079v-17.237h18.079V463.103z"/>
<g>
</g>
<g>
</g>
<g>
</g>
<g>
</g>
<g>
</g>
<g>
</g>
<g>
</g>
<g>
</g>
<g>
</g>
<g>
</g>
<g>
</g>
<g>
</g>
<g>
</g>
<g>
</g>
<g>
</g>
</svg>
