<?xml version="1.0" encoding="iso-8859-1"?>
<!-- Generator: Adobe Illustrator 17.1.0, SVG Export Plug-In . SVG Version: 6.00 Build 0)  -->
<!DOCTYPE svg PUBLIC "-//W3C//DTD SVG 1.1//EN" "http://www.w3.org/Graphics/SVG/1.1/DTD/svg11.dtd">
<svg version="1.1" id="Capa_1" xmlns="http://www.w3.org/2000/svg" xmlns:xlink="http://www.w3.org/1999/xlink" x="0px" y="0px"
	 viewBox="0 0 557.126 557.126" style="enable-background:new 0 0 557.126 557.126;" xml:space="preserve">
<path d="M459.082,411.061c1.205-1.898,2.381-3.816,3.526-5.753c0.001-0.002,0.002-0.004,0.003-0.006
	c10.25-17.29,17.979-35.919,22.972-55.368c4.445-17.311,6.7-35.244,6.7-53.303c0-2.257-0.035-4.513-0.105-6.765
	c-0.493-15.767-2.705-31.391-6.595-46.538c0-0.002-0.001-0.004-0.001-0.004c-4.996-19.454-12.727-38.084-22.974-55.369
	c-8.05-13.613-17.646-26.366-28.521-37.902c-2.842-3.015-7.589-3.153-10.602-0.313c-3.015,2.841-3.154,7.588-0.313,10.602
	c8.095,8.587,15.412,17.907,21.856,27.775c-16.169,4.756-33.902,0.448-46.157-11.794c-12.246-12.245-16.551-29.98-11.791-46.162
	c3.174,2.073,6.299,4.227,9.334,6.466c3.332,2.459,8.028,1.75,10.488-1.584c2.458-3.334,1.749-8.029-1.584-10.488
	c-5.735-4.229-11.747-8.211-17.87-11.84c-0.003-0.001-0.005-0.003-0.008-0.005c-0.067-0.04-0.133-0.082-0.2-0.122
	c-17.303-10.239-35.934-17.964-55.375-22.957c-17.308-4.448-35.241-6.703-53.303-6.703c-4.515,0-9.023,0.141-13.514,0.422
	c-13.475,0.843-26.808,2.945-39.788,6.28c-19.442,4.994-38.069,12.726-55.354,22.974c-1.938,1.145-3.856,2.32-5.755,3.525
	c-28.479,18.073-52.458,42.795-69.609,71.836c-0.002,0.004-0.004,0.007-0.006,0.011l0,0.001l0,0
	c-10.248,17.285-17.977,35.907-22.972,55.35c-4.447,17.309-6.702,35.242-6.702,53.303s2.255,35.994,6.702,53.303
	c4.997,19.447,12.729,38.074,22.973,55.353c1.144,1.937,2.318,3.854,3.522,5.752c2.05,3.232,4.205,6.393,6.423,9.506
	c16.021,22.476,36.326,41.774,59.668,56.587c1.899,1.206,3.819,2.381,5.757,3.527c0.001,0.001,0.003,0.001,0.004,0.002
	c32.767,19.412,70.337,29.674,108.652,29.674c38.317,0,75.898-10.257,108.676-29.658c3.873-2.29,7.669-4.701,11.383-7.228
	C422.764,457.025,443.422,435.724,459.082,411.061z M414.926,441.149c-0.449,0.424-0.907,0.839-1.361,1.259
	c-0.968,0.896-1.941,1.787-2.926,2.664c-0.528,0.47-1.06,0.935-1.593,1.4c-0.952,0.83-1.912,1.649-2.879,2.461
	c-0.531,0.446-1.062,0.892-1.597,1.333c-1.071,0.879-2.154,1.744-3.244,2.601c-0.43,0.338-0.855,0.684-1.287,1.019
	c-1.519,1.175-3.053,2.331-4.606,3.463c-0.291,0.212-0.589,0.416-0.882,0.626c-1.271,0.916-2.552,1.82-3.845,2.705
	c-0.551,0.377-1.109,0.746-1.664,1.117c-0.653,0.438-1.313,0.866-1.972,1.296c-4.757-16.179-0.444-33.911,11.798-46.152
	c8.824-8.815,20.552-13.67,33.023-13.67c4.442,0,8.877,0.641,13.126,1.879c-0.434,0.664-0.866,1.33-1.307,1.989
	c-0.365,0.545-0.727,1.093-1.098,1.634c-0.884,1.29-1.785,2.567-2.699,3.836c-0.215,0.298-0.422,0.602-0.638,0.899
	c-1.131,1.552-2.286,3.085-3.46,4.603c-0.336,0.435-0.683,0.861-1.023,1.293c-0.854,1.086-1.716,2.166-2.593,3.233
	c-0.444,0.541-0.895,1.076-1.344,1.612c-0.807,0.962-1.623,1.917-2.448,2.863c-0.468,0.537-0.937,1.073-1.411,1.605
	c-0.872,0.979-1.757,1.946-2.648,2.908c-0.425,0.458-0.845,0.922-1.274,1.376c-1.296,1.372-2.607,2.73-3.94,4.065
	c-0.03,0.03-0.058,0.06-0.088,0.089C417.693,438.509,416.317,439.836,414.926,441.149z M473.026,255.627
	c0.162,0.772,0.326,1.543,0.479,2.317c0.125,0.635,0.255,1.269,0.374,1.905c0.288,1.538,0.553,3.081,0.805,4.627
	c0.058,0.356,0.125,0.71,0.181,1.067c0.298,1.897,0.565,3.799,0.808,5.706c0.068,0.533,0.123,1.068,0.186,1.601
	c0.165,1.386,0.321,2.774,0.457,4.165c0.068,0.688,0.126,1.377,0.187,2.066c0.111,1.264,0.21,2.529,0.297,3.796
	c0.048,0.705,0.095,1.409,0.136,2.115c0.077,1.328,0.136,2.658,0.187,3.989c0.023,0.615,0.053,1.228,0.071,1.843
	c0.056,1.934,0.091,3.869,0.091,5.806s-0.035,3.873-0.091,5.806c-0.018,0.615-0.048,1.229-0.071,1.843
	c-0.051,1.331-0.11,2.661-0.187,3.989c-0.041,0.706-0.088,1.41-0.136,2.115c-0.087,1.267-0.186,2.532-0.297,3.796
	c-0.061,0.689-0.119,1.378-0.187,2.066c-0.136,1.39-0.292,2.778-0.457,4.164c-0.064,0.534-0.118,1.07-0.187,1.604
	c-0.243,1.906-0.51,3.808-0.808,5.704c-0.057,0.361-0.124,0.719-0.183,1.08c-0.25,1.541-0.515,3.079-0.802,4.613
	c-0.12,0.64-0.25,1.278-0.376,1.916c-0.152,0.771-0.316,1.54-0.477,2.309c-14.825-8.056-24.329-23.656-24.329-41.005
	S458.201,263.683,473.026,255.627z M239.82,101.72c0.667-0.132,1.333-0.268,2.003-0.392c1.344-0.251,2.693-0.48,4.043-0.703
	c0.578-0.095,1.153-0.202,1.732-0.292c1.775-0.277,3.555-0.527,5.339-0.756c1.037-0.133,2.077-0.244,3.116-0.36
	c0.801-0.09,1.602-0.183,2.405-0.264c1.178-0.118,2.358-0.22,3.539-0.317c0.638-0.052,1.275-0.103,1.914-0.15
	c1.278-0.093,2.558-0.177,3.838-0.245c0.47-0.025,0.942-0.044,1.413-0.066c6.267-0.291,12.551-0.291,18.817,0
	c0.467,0.022,0.934,0.041,1.401,0.066c1.282,0.068,2.563,0.153,3.844,0.245c0.637,0.047,1.274,0.097,1.911,0.15
	c1.181,0.097,2.361,0.199,3.539,0.317c0.804,0.081,1.606,0.174,2.409,0.264c1.038,0.116,2.076,0.228,3.111,0.36
	c1.788,0.23,3.572,0.48,5.351,0.758c0.55,0.086,1.097,0.188,1.646,0.278c1.383,0.228,2.764,0.463,4.141,0.72
	c0.641,0.12,1.279,0.25,1.917,0.376c0.774,0.153,1.546,0.317,2.318,0.479c-8.058,14.815-23.656,24.31-41.001,24.31
	c-17.33,0-32.925-9.496-40.996-24.311C238.318,102.028,239.068,101.868,239.82,101.72z M158.256,176.324
	c-8.815,8.816-20.543,13.672-33.022,13.672c-4.434,0-8.862-0.639-13.105-1.871c0.431-0.66,0.859-1.321,1.297-1.975
	c0.368-0.55,0.733-1.102,1.106-1.648c0.876-1.281,1.771-2.548,2.677-3.807c0.221-0.307,0.435-0.62,0.657-0.926
	c1.128-1.549,2.28-3.08,3.452-4.595c0.342-0.442,0.694-0.875,1.039-1.313c0.849-1.078,1.704-2.151,2.574-3.21
	c0.449-0.547,0.906-1.089,1.361-1.632c0.8-0.953,1.608-1.9,2.425-2.838c0.474-0.543,0.948-1.086,1.428-1.625
	c0.866-0.973,1.745-1.934,2.63-2.889c0.429-0.464,0.854-0.932,1.288-1.391c1.281-1.357,2.577-2.699,3.896-4.02
	c0.043-0.043,0.086-0.089,0.13-0.132c1.353-1.352,2.729-2.68,4.12-3.993c0.447-0.422,0.902-0.834,1.353-1.252
	c0.972-0.9,1.949-1.794,2.939-2.675c0.523-0.466,1.051-0.927,1.579-1.387c0.959-0.836,1.926-1.662,2.901-2.479
	c0.525-0.44,1.048-0.88,1.577-1.315c1.086-0.892,2.185-1.769,3.29-2.637c0.414-0.326,0.823-0.658,1.24-0.981
	c1.528-1.182,3.072-2.344,4.634-3.482c0.254-0.185,0.515-0.363,0.77-0.546c1.311-0.945,2.631-1.876,3.965-2.789
	c0.53-0.363,1.066-0.716,1.6-1.074c0.669-0.448,1.345-0.887,2.02-1.327C174.833,146.354,170.513,164.08,158.256,176.324z
	 M84.118,337.635c-0.16-0.762-0.322-1.523-0.473-2.287c-0.128-0.649-0.26-1.296-0.382-1.946c-0.283-1.516-0.545-3.038-0.793-4.562
	c-0.061-0.377-0.132-0.752-0.191-1.129c-0.297-1.892-0.564-3.79-0.806-5.693c-0.069-0.539-0.124-1.081-0.188-1.621
	c-0.164-1.38-0.32-2.762-0.455-4.147c-0.068-0.691-0.127-1.383-0.187-2.075c-0.11-1.261-0.21-2.523-0.296-3.787
	c-0.048-0.708-0.096-1.415-0.137-2.124c-0.077-1.325-0.136-2.652-0.186-3.979c-0.023-0.617-0.053-1.233-0.071-1.85
	c-0.056-1.933-0.091-3.868-0.091-5.806s0.035-3.872,0.091-5.806c0.018-0.617,0.048-1.233,0.071-1.849
	c0.051-1.328,0.11-2.655,0.186-3.98c0.041-0.708,0.088-1.416,0.137-2.123c0.086-1.264,0.186-2.526,0.296-3.787
	c0.061-0.692,0.12-1.384,0.187-2.075c0.136-1.385,0.291-2.767,0.455-4.147c0.064-0.54,0.12-1.081,0.188-1.621
	c0.242-1.903,0.51-3.801,0.806-5.693c0.059-0.377,0.129-0.751,0.191-1.127c0.248-1.525,0.51-3.046,0.793-4.563
	c0.122-0.65,0.254-1.298,0.382-1.946c0.151-0.764,0.313-1.525,0.473-2.287c14.814,8.055,24.311,23.653,24.311,41.004
	S98.933,329.58,84.118,337.635z M170.077,463.079c-0.658-0.43-1.317-0.857-1.97-1.294c-0.56-0.375-1.123-0.747-1.679-1.127
	c-1.285-0.88-2.558-1.778-3.821-2.688c-0.301-0.217-0.607-0.426-0.907-0.644c-1.55-1.129-3.082-2.282-4.597-3.455
	c-0.443-0.343-0.877-0.695-1.317-1.041c-1.079-0.849-2.152-1.705-3.212-2.576c-0.543-0.446-1.081-0.898-1.619-1.35
	c-0.961-0.806-1.914-1.62-2.859-2.444c-0.536-0.468-1.072-0.936-1.604-1.409c-0.984-0.876-1.957-1.766-2.923-2.661
	c-0.453-0.42-0.911-0.835-1.36-1.259c-1.396-1.318-2.778-2.651-4.136-4.008c-0.027-0.027-0.052-0.054-0.079-0.081
	c-1.333-1.334-2.643-2.691-3.938-4.063c-0.422-0.448-0.836-0.903-1.254-1.355c-0.9-0.971-1.793-1.948-2.674-2.937
	c-0.465-0.522-0.925-1.049-1.385-1.575c-0.837-0.96-1.665-1.929-2.483-2.906c-0.438-0.522-0.877-1.044-1.31-1.571
	c-0.896-1.092-1.778-2.196-2.651-3.307c-0.321-0.408-0.648-0.81-0.966-1.221c-1.181-1.527-2.343-3.07-3.479-4.631
	c-0.198-0.271-0.386-0.548-0.583-0.82c-0.933-1.295-1.852-2.599-2.754-3.917c-0.362-0.529-0.715-1.063-1.071-1.595
	c-0.445-0.664-0.88-1.335-1.317-2.004c4.244-1.233,8.672-1.871,13.106-1.871c12.479,0,24.206,4.854,33.024,13.673
	C170.513,429.183,174.834,446.91,170.077,463.079z M183.251,471c8.132-22.325,2.742-47.554-14.388-64.668
	c-11.649-11.648-27.144-18.063-43.629-18.063c-7.162,0-14.318,1.263-21.034,3.686c-6.869-12.513-12.353-25.72-16.362-39.408
	c21.548-10.016,35.592-31.671,35.592-55.915s-14.043-45.899-35.592-55.915c4.009-13.684,9.491-26.889,16.363-39.407
	c6.715,2.423,13.871,3.686,21.033,3.686c16.486,0,31.98-6.416,43.627-18.063c17.132-17.115,22.523-42.345,14.391-64.671
	c12.514-6.869,25.72-12.351,39.403-16.357c10.035,21.548,31.688,35.592,55.909,35.592c24.238,0,45.892-14.043,55.914-35.59
	c13.684,4.005,26.894,9.483,39.417,16.344c-8.127,22.332-2.744,47.566,14.373,64.684c11.875,11.861,27.639,18.088,43.629,18.088
	c7.08,0,14.205-1.226,21.055-3.721c6.868,12.515,12.351,25.724,16.357,39.415c-21.56,10.019-35.611,31.674-35.611,55.916
	s14.051,45.897,35.611,55.916c-4.007,13.691-9.49,26.901-16.361,39.421c-6.722-2.43-13.885-3.696-21.056-3.696
	c-16.475,0-31.968,6.413-43.628,18.06c-17.116,17.117-22.498,42.351-14.369,64.683c-29.089,15.928-61.905,24.319-95.331,24.319
	C245.141,495.333,212.333,486.939,183.251,471z M557.126,296.631c0-27.381-17.598-50.964-43.341-58.913
	c-5.776-23.157-14.924-45.227-27.244-65.726c5.642-10.745,8.029-23.089,6.734-35.255c-1.486-13.965-7.788-27.134-17.739-37.075
	c-11.648-11.66-27.137-18.082-43.61-18.082c-10.063,0-19.894,2.443-28.71,7.088c-20.492-12.313-42.563-21.467-65.733-27.26
	c-3.619-11.576-10.661-21.984-20.178-29.667c-10.924-8.817-24.683-13.674-38.741-13.674c-27.379,0-50.963,17.6-58.913,43.344
	c-23.147,5.792-45.213,14.944-65.718,27.256c-8.816-4.65-18.651-7.094-28.72-7.094c-16.479,0-31.971,6.424-43.621,18.086
	c-9.947,9.948-16.242,23.12-17.723,37.089c-1.29,12.173,1.101,24.519,6.75,35.261c-12.301,20.448-21.452,42.51-27.256,65.707
	C17.608,245.666,0,269.251,0,296.631c0,27.381,17.607,50.966,43.363,58.915c5.803,23.196,14.957,45.26,27.256,65.706
	c-5.648,10.743-8.04,23.088-6.75,35.261c1.481,13.969,7.775,27.141,17.721,37.086c11.652,11.664,27.145,18.088,43.623,18.088
	c10.067,0,19.901-2.443,28.717-7.092c37.572,22.559,80.563,34.462,124.634,34.462c44.082,0,87.079-11.903,124.654-34.462
	c8.816,4.645,18.646,7.087,28.708,7.087c16.475,0,31.963-6.422,43.606-18.078c9.949-9.938,16.248-23.101,17.737-37.061
	c1.298-12.172-1.088-24.521-6.734-35.266c12.322-20.505,21.474-42.575,27.25-65.732
	C539.528,347.596,557.126,324.013,557.126,296.631z M542.126,296.631c0,17.68-9.685,33.271-24.621,41.205
	c0.004-0.021,0.007-0.042,0.01-0.063c0.019-0.111,0.034-0.223,0.053-0.334c0.325-1.919,0.621-3.845,0.9-5.774
	c0.089-0.616,0.172-1.234,0.256-1.851c0.206-1.506,0.397-3.014,0.575-4.525c0.071-0.606,0.145-1.212,0.212-1.819
	c0.225-2.048,0.433-4.099,0.606-6.155c0.006-0.066,0.009-0.133,0.015-0.199c0.167-1.993,0.303-3.99,0.421-5.989
	c0.037-0.62,0.066-1.24,0.098-1.861c0.079-1.524,0.143-3.05,0.193-4.577c0.02-0.615,0.043-1.229,0.058-1.844
	c0.052-2.07,0.087-4.141,0.087-6.214c0-2.073-0.035-4.144-0.087-6.214c-0.016-0.615-0.038-1.228-0.058-1.843
	c-0.05-1.528-0.114-3.054-0.193-4.579c-0.032-0.62-0.062-1.239-0.098-1.858c-0.118-2.001-0.254-4-0.421-5.995
	c-0.006-0.064-0.009-0.129-0.014-0.193c-0.174-2.056-0.381-4.107-0.606-6.156c-0.067-0.606-0.141-1.211-0.212-1.817
	c-0.178-1.511-0.369-3.02-0.575-4.527c-0.084-0.617-0.167-1.234-0.255-1.85c-0.279-1.928-0.575-3.854-0.899-5.772
	c-0.019-0.112-0.035-0.225-0.054-0.336c-0.004-0.021-0.006-0.042-0.01-0.063C532.441,263.362,542.126,278.953,542.126,296.631z
	 M431.926,96.581c12.464,0,24.184,4.859,33.004,13.688c12.528,12.517,16.706,30.408,11.732,46.587
	c-0.019-0.026-0.038-0.052-0.056-0.078c-0.088-0.124-0.179-0.246-0.268-0.369c-1.109-1.558-2.239-3.101-3.385-4.632
	c-0.376-0.502-0.757-1.001-1.136-1.5c-0.919-1.209-1.85-2.41-2.792-3.602c-0.378-0.478-0.753-0.958-1.134-1.433
	c-1.287-1.604-2.589-3.198-3.916-4.77c-0.072-0.085-0.147-0.169-0.219-0.254c-1.262-1.49-2.546-2.963-3.844-4.423
	c-0.419-0.471-0.843-0.938-1.266-1.407c-1.012-1.121-2.034-2.232-3.066-3.334c-0.427-0.456-0.852-0.913-1.282-1.366
	c-1.413-1.485-2.838-2.959-4.287-4.409c-0.035-0.035-0.071-0.069-0.105-0.104c-1.431-1.43-2.884-2.836-4.35-4.23
	c-0.453-0.43-0.91-0.856-1.366-1.283c-1.104-1.035-2.219-2.059-3.342-3.073c-0.465-0.419-0.927-0.84-1.395-1.256
	c-1.494-1.328-3-2.642-4.525-3.933c-0.05-0.042-0.098-0.086-0.148-0.128c-1.578-1.334-3.178-2.641-4.79-3.934
	c-0.467-0.375-0.939-0.744-1.409-1.116c-1.208-0.954-2.423-1.897-3.648-2.828c-0.484-0.368-0.968-0.738-1.455-1.102
	c-1.583-1.184-3.176-2.354-4.787-3.498c-0.074-0.053-0.146-0.107-0.22-0.16c-0.027-0.019-0.053-0.039-0.079-0.058
	C422.747,97.259,427.305,96.581,431.926,96.581z M278.563,33.069c17.686,0,33.282,9.686,41.221,24.622
	c-2.23-0.381-4.469-0.719-6.711-1.037c-0.155-0.022-0.31-0.043-0.465-0.064c-11.246-1.576-22.633-2.384-34.044-2.384
	c-11.419,0-22.817,0.81-34.075,2.39c-0.123,0.017-0.246,0.033-0.368,0.051c-2.259,0.321-4.514,0.661-6.76,1.044
	C245.296,42.754,260.887,33.069,278.563,33.069z M92.201,110.264c8.819-8.827,20.543-13.689,33.012-13.689
	c4.625,0,9.185,0.68,13.544,1.999c-0.015,0.01-0.029,0.021-0.043,0.031c-0.146,0.103-0.288,0.21-0.433,0.314
	c-1.54,1.096-3.065,2.214-4.58,3.347c-0.505,0.377-1.005,0.76-1.507,1.141c-1.211,0.921-2.414,1.853-3.608,2.797
	c-0.473,0.374-0.948,0.746-1.419,1.123c-1.612,1.293-3.212,2.601-4.791,3.935c-0.043,0.036-0.085,0.074-0.129,0.111
	c-1.536,1.299-3.051,2.623-4.554,3.96c-0.452,0.402-0.9,0.809-1.349,1.214c-1.146,1.035-2.282,2.08-3.409,3.136
	c-0.435,0.407-0.871,0.813-1.302,1.223c-2.999,2.852-5.926,5.781-8.777,8.781c-0.418,0.44-0.831,0.884-1.246,1.327
	c-1.046,1.118-2.082,2.245-3.107,3.381c-0.412,0.457-0.825,0.911-1.233,1.371c-1.341,1.509-2.668,3.03-3.97,4.571
	c-0.031,0.037-0.063,0.072-0.093,0.108c-1.329,1.574-2.632,3.17-3.92,4.777c-0.386,0.481-0.765,0.966-1.147,1.45
	c-0.938,1.188-1.864,2.385-2.78,3.59c-0.381,0.501-0.763,1.002-1.14,1.506c-1.167,1.562-2.319,3.134-3.448,4.722
	c-0.066,0.093-0.134,0.183-0.2,0.276c-0.01,0.015-0.021,0.03-0.032,0.045C75.729,140.693,79.911,122.556,92.201,110.264z
	 M15,296.631c0-17.679,9.694-33.271,24.64-41.207c-0.005,0.028-0.009,0.056-0.014,0.084c-0.011,0.068-0.021,0.136-0.032,0.203
	c-0.333,1.963-0.635,3.933-0.92,5.906c-0.087,0.601-0.167,1.203-0.249,1.805c-0.208,1.522-0.401,3.046-0.581,4.573
	c-0.07,0.595-0.143,1.19-0.208,1.785c-0.226,2.054-0.434,4.111-0.608,6.172c-0.004,0.053-0.007,0.107-0.012,0.16
	c-0.168,2.006-0.305,4.015-0.423,6.026c-0.037,0.618-0.066,1.236-0.098,1.855c-0.078,1.525-0.143,3.051-0.193,4.579
	c-0.02,0.615-0.043,1.229-0.058,1.844c-0.052,2.07-0.087,4.141-0.087,6.214s0.035,4.144,0.087,6.214
	c0.016,0.615,0.038,1.23,0.058,1.844c0.05,1.527,0.115,3.053,0.193,4.578c0.032,0.619,0.062,1.238,0.098,1.856
	c0.119,2.012,0.255,4.021,0.423,6.027c0.004,0.053,0.007,0.105,0.012,0.158c0.174,2.061,0.382,4.117,0.608,6.17
	c0.066,0.598,0.139,1.196,0.209,1.793c0.179,1.522,0.372,3.042,0.579,4.559c0.083,0.607,0.164,1.214,0.252,1.821
	c0.282,1.956,0.583,3.908,0.912,5.855c0.014,0.085,0.026,0.171,0.041,0.257c0.004,0.024,0.008,0.049,0.012,0.073
	C24.694,329.904,15,314.31,15,296.631z M125.213,496.687c-12.469,0-24.192-4.861-33.014-13.692
	c-12.289-12.288-16.472-30.425-11.661-46.543c0.009,0.013,0.019,0.026,0.028,0.039c0.067,0.095,0.137,0.188,0.204,0.282
	c1.127,1.586,2.277,3.156,3.442,4.715c0.38,0.508,0.765,1.012,1.149,1.518c0.91,1.198,1.831,2.388,2.764,3.569
	c0.387,0.491,0.773,0.984,1.164,1.472c1.285,1.602,2.583,3.194,3.908,4.763c0.044,0.052,0.089,0.102,0.133,0.154
	c1.289,1.525,2.602,3.029,3.928,4.522c0.417,0.469,0.838,0.933,1.258,1.399c1.014,1.124,2.039,2.239,3.074,3.345
	c0.424,0.453,0.847,0.908,1.274,1.358c1.401,1.475,2.816,2.937,4.253,4.376c0.021,0.021,0.042,0.044,0.063,0.065
	c1.458,1.459,2.941,2.893,4.435,4.315c0.444,0.423,0.894,0.84,1.341,1.259c1.112,1.042,2.233,2.073,3.364,3.094
	c0.46,0.415,0.918,0.832,1.381,1.243c1.483,1.319,2.979,2.624,4.493,3.906c0.063,0.053,0.124,0.108,0.186,0.161
	c1.574,1.329,3.168,2.632,4.775,3.921c0.478,0.383,0.96,0.76,1.441,1.14c1.188,0.938,2.384,1.866,3.589,2.781
	c0.505,0.384,1.009,0.769,1.517,1.149c1.52,1.137,3.051,2.259,4.596,3.359c0.137,0.098,0.272,0.199,0.409,0.296
	c0.016,0.011,0.032,0.023,0.048,0.035C134.397,496.008,129.838,496.687,125.213,496.687z M158.032,489.519
	c-1.819-1.139-3.622-2.305-5.408-3.497c-3.092-2.063-6.124-4.217-9.112-6.432c-19.46-14.417-36.672-31.963-50.673-51.725
	c-2.484-3.506-4.867-7.081-7.143-10.72c-0.001-0.002-0.003-0.004-0.005-0.006l0,0c-13.401-21.363-23.077-44.682-28.759-69.302
	c-0.006-0.028-0.013-0.056-0.019-0.084c-0.263-1.146-0.496-2.301-0.741-3.453c-0.215-1.01-0.442-2.016-0.643-3.03
	c-0.213-1.073-0.4-2.153-0.597-3.23c-0.187-1.019-0.386-2.035-0.559-3.058c-0.184-1.086-0.341-2.179-0.509-3.269
	c-0.157-1.019-0.327-2.035-0.471-3.056c-0.156-1.111-0.284-2.227-0.424-3.341c-0.126-1.006-0.266-2.01-0.379-3.019
	c-0.129-1.155-0.23-2.313-0.342-3.47c-0.094-0.972-0.202-1.942-0.284-2.916c-0.103-1.231-0.177-2.466-0.26-3.7
	c-0.061-0.904-0.138-1.806-0.188-2.711c-0.079-1.406-0.125-2.814-0.178-4.222c-0.028-0.735-0.071-1.469-0.092-2.205
	c-0.06-2.146-0.09-4.294-0.09-6.443c0-2.255,0.037-4.509,0.103-6.761c0.25-8.533,0.969-17.035,2.157-25.445
	c0.901-6.377,2.071-12.701,3.505-18.947c5.682-24.644,15.361-47.978,28.775-69.361c18.22-29.121,43.233-54.146,72.336-72.372
	C179.479,90.32,202.82,80.638,227.4,74.972c33.378-7.655,68.987-7.65,102.344,0c0.001,0,0.003,0,0.004,0.001
	c24.601,5.668,47.938,15.348,69.363,28.77c3.64,2.281,7.216,4.667,10.722,7.155c2.741,1.944,5.426,3.968,8.08,6.032
	c1.506,1.172,2.998,2.363,4.475,3.573c1.804,1.478,3.586,2.982,5.344,4.514c1.5,1.307,2.984,2.633,4.45,3.978
	c2.442,2.24,4.851,4.517,7.195,6.861c0.086,0.086,0.168,0.176,0.254,0.262c2.586,2.594,5.101,5.257,7.56,7.97
	c9.017,9.948,17.171,20.666,24.277,32.013c0.001,0.001,0.002,0.002,0.002,0.003c13.43,21.438,23.103,44.777,28.751,69.368
	c3.826,16.664,5.766,33.877,5.766,51.16c0,17.284-1.939,34.497-5.766,51.161c-5.648,24.59-15.322,47.929-28.753,69.37
	c-0.042,0.067-0.081,0.135-0.12,0.203c-0.6,0.955-1.224,1.894-1.838,2.84c-0.544,0.837-1.075,1.681-1.63,2.51
	c-0.621,0.929-1.267,1.843-1.902,2.763c-0.583,0.845-1.156,1.698-1.751,2.535c-0.637,0.896-1.297,1.775-1.946,2.662
	c-0.618,0.844-1.226,1.696-1.856,2.532c-0.653,0.865-1.328,1.714-1.993,2.57c-0.652,0.839-1.292,1.686-1.956,2.516
	c-0.665,0.832-1.351,1.646-2.028,2.468c-0.688,0.836-1.365,1.681-2.064,2.507c-0.68,0.804-1.382,1.59-2.073,2.384
	c-0.718,0.825-1.426,1.659-2.156,2.474c-0.707,0.789-1.434,1.56-2.152,2.339c-0.737,0.8-1.463,1.61-2.211,2.399
	c-0.733,0.774-1.487,1.529-2.23,2.293c-0.754,0.775-1.499,1.56-2.264,2.324c-0.771,0.77-1.561,1.519-2.342,2.278
	c-0.759,0.737-1.508,1.484-2.276,2.21c-0.827,0.781-1.673,1.54-2.511,2.308c-0.745,0.683-1.479,1.377-2.232,2.05
	c-0.877,0.783-1.773,1.544-2.662,2.313c-0.734,0.636-1.458,1.284-2.201,1.911c-0.958,0.809-1.937,1.594-2.908,2.388
	c-0.69,0.564-1.371,1.14-2.067,1.696c-1.064,0.849-2.148,1.672-3.227,2.501c-0.622,0.479-1.234,0.97-1.861,1.442
	c-1.236,0.93-2.491,1.833-3.746,2.738c-0.485,0.35-0.961,0.713-1.449,1.059c-1.597,1.133-3.212,2.238-4.837,3.329
	c-0.155,0.104-0.307,0.214-0.462,0.318c-1.786,1.192-3.588,2.358-5.406,3.497c-0.001,0-0.001,0.001-0.002,0.001
	c-36.085,22.593-77.769,34.536-120.546,34.536C235.796,524.057,194.117,512.114,158.032,489.519z M464.925,482.998
	c-8.815,8.824-20.535,13.685-33,13.685c-4.621,0-9.178-0.679-13.535-1.997c0.015-0.011,0.03-0.022,0.045-0.033
	c0.142-0.1,0.281-0.205,0.422-0.306c1.538-1.095,3.06-2.211,4.573-3.342c0.52-0.388,1.035-0.782,1.551-1.175
	c1.187-0.903,2.365-1.816,3.536-2.74c0.496-0.392,0.995-0.782,1.488-1.178c1.595-1.28,3.179-2.574,4.742-3.894
	c0.099-0.083,0.195-0.17,0.294-0.253c1.476-1.251,2.935-2.523,4.382-3.808c0.478-0.425,0.952-0.855,1.427-1.284
	c1.114-1.006,2.218-2.021,3.314-3.047c0.459-0.43,0.92-0.858,1.376-1.292c1.489-1.416,2.966-2.844,4.418-4.296
	c0.035-0.035,0.069-0.071,0.104-0.106c1.424-1.426,2.826-2.873,4.215-4.333c0.43-0.452,0.854-0.908,1.28-1.363
	c1.038-1.108,2.066-2.225,3.083-3.352c0.414-0.458,0.829-0.915,1.239-1.376c1.354-1.523,2.695-3.057,4.011-4.613
	c0.016-0.02,0.033-0.038,0.05-0.058c1.335-1.58,2.645-3.182,3.939-4.795c0.373-0.465,0.74-0.934,1.11-1.401
	c0.957-1.21,1.902-2.429,2.836-3.657c0.365-0.479,0.731-0.958,1.092-1.44c1.207-1.612,2.399-3.235,3.565-4.876
	c0.03-0.042,0.061-0.083,0.09-0.124c0.013-0.019,0.028-0.037,0.041-0.056C481.409,452.596,477.217,470.718,464.925,482.998z"/>
<g>
</g>
<g>
</g>
<g>
</g>
<g>
</g>
<g>
</g>
<g>
</g>
<g>
</g>
<g>
</g>
<g>
</g>
<g>
</g>
<g>
</g>
<g>
</g>
<g>
</g>
<g>
</g>
<g>
</g>
</svg>
