<?xml version="1.0" encoding="iso-8859-1"?>
<!-- Generator: Adobe Illustrator 17.1.0, SVG Export Plug-In . SVG Version: 6.00 Build 0)  -->
<!DOCTYPE svg PUBLIC "-//W3C//DTD SVG 1.1//EN" "http://www.w3.org/Graphics/SVG/1.1/DTD/svg11.dtd">
<svg version="1.1" id="Capa_1" xmlns="http://www.w3.org/2000/svg" xmlns:xlink="http://www.w3.org/1999/xlink" x="0px" y="0px"
	 viewBox="0 0 550.752 550.752" style="enable-background:new 0 0 550.752 550.752;" xml:space="preserve">
<path d="M543.252,133.938H7.5c-4.142,0-7.5,3.357-7.5,7.5v267.876c0,4.143,3.358,7.5,7.5,7.5h535.752c4.142,0,7.5-3.357,7.5-7.5
	V141.438C550.752,137.295,547.394,133.938,543.252,133.938z M535.752,401.814H329.016V388.4c0-4.143-3.358-7.5-7.5-7.5
	s-7.5,3.357-7.5,7.5v13.414H15V148.938h299.016v13.413c0,4.143,3.358,7.5,7.5,7.5s7.5-3.357,7.5-7.5v-13.413h206.736V401.814z
	 M517.268,258.197c0,4.143-3.358,7.5-7.5,7.5H375.829c-4.142,0-7.5-3.357-7.5-7.5s3.358-7.5,7.5-7.5h133.938
	C513.91,250.697,517.268,254.054,517.268,258.197z M517.268,359.086c0,4.143-3.358,7.5-7.5,7.5H375.829c-4.142,0-7.5-3.357-7.5-7.5
	s3.358-7.5,7.5-7.5h133.938C513.91,351.586,517.268,354.944,517.268,359.086z M517.268,325.602c0,4.143-3.358,7.5-7.5,7.5H387.427
	c-4.142,0-7.5-3.357-7.5-7.5s3.358-7.5,7.5-7.5h122.341C513.91,318.102,517.268,321.459,517.268,325.602z M517.268,291.681
	c0,4.143-3.358,7.5-7.5,7.5H409.314c-4.142,0-7.5-3.357-7.5-7.5s3.358-7.5,7.5-7.5h100.454
	C513.91,284.181,517.268,287.539,517.268,291.681z M351.587,225.149v-50.227c0-4.143,3.358-7.5,7.5-7.5h150.681
	c4.142,0,7.5,3.357,7.5,7.5v50.227c0,4.143-3.358,7.5-7.5,7.5h-12.681c-4.142,0-7.5-3.357-7.5-7.5s3.358-7.5,7.5-7.5h5.181v-35.227
	H366.587v35.227h104.921c4.142,0,7.5,3.357,7.5,7.5s-3.358,7.5-7.5,7.5H359.087C354.945,232.649,351.587,229.292,351.587,225.149z
	 M329.016,190.831v20.913c0,4.143-3.358,7.5-7.5,7.5s-7.5-3.357-7.5-7.5v-20.913c0-4.143,3.358-7.5,7.5-7.5
	S329.016,186.688,329.016,190.831z M329.016,240.222v20.914c0,4.143-3.358,7.5-7.5,7.5s-7.5-3.357-7.5-7.5v-20.914
	c0-4.143,3.358-7.5,7.5-7.5S329.016,236.08,329.016,240.222z M329.016,289.615v20.914c0,4.143-3.358,7.5-7.5,7.5s-7.5-3.357-7.5-7.5
	v-20.914c0-4.143,3.358-7.5,7.5-7.5S329.016,285.472,329.016,289.615z M329.016,339.007v20.914c0,4.143-3.358,7.5-7.5,7.5
	s-7.5-3.357-7.5-7.5v-20.914c0-4.143,3.358-7.5,7.5-7.5S329.016,334.865,329.016,339.007z M242.255,180.752H103.267
	c-4.142,0-7.5,3.357-7.5,7.5v100.051c-0.737-0.04-1.477-0.061-2.217-0.061c-21.961,0-39.827,17.867-39.827,39.828
	s17.866,39.827,39.827,39.827s39.828-17.866,39.828-39.827v-93.526h78.768v53.759c-0.737-0.04-1.477-0.061-2.217-0.061
	c-21.961,0-39.827,17.867-39.827,39.828s17.866,39.827,39.827,39.827s39.827-17.866,39.827-39.827V188.252
	C249.755,184.11,246.397,180.752,242.255,180.752z M234.755,328.071c0,13.689-11.137,24.827-24.827,24.827
	s-24.827-11.138-24.827-24.827c0-13.69,11.137-24.828,24.827-24.828c2.437,0,4.839,0.351,7.147,1.043
	c1.444,0.526,3.05,0.614,4.607,0.172c3.231-0.911,5.463-3.86,5.463-7.218v-70.195c0-4.143-3.358-7.5-7.5-7.5h-93.768
	c-4.142,0-7.5,3.357-7.5,7.5v101.026c0,13.689-11.138,24.827-24.828,24.827s-24.827-11.138-24.827-24.827
	c0-13.69,11.137-24.828,24.827-24.828c2.472,0,4.909,0.36,7.246,1.072c2.059,0.721,4.361,0.512,6.281-0.614
	c2.403-1.412,3.809-4.031,3.69-6.788v-101.16h123.988V328.071z"/>
<g>
</g>
<g>
</g>
<g>
</g>
<g>
</g>
<g>
</g>
<g>
</g>
<g>
</g>
<g>
</g>
<g>
</g>
<g>
</g>
<g>
</g>
<g>
</g>
<g>
</g>
<g>
</g>
<g>
</g>
</svg>
