<?xml version="1.0" encoding="iso-8859-1"?>
<!-- Generator: Adobe Illustrator 17.1.0, SVG Export Plug-In . SVG Version: 6.00 Build 0)  -->
<!DOCTYPE svg PUBLIC "-//W3C//DTD SVG 1.1//EN" "http://www.w3.org/Graphics/SVG/1.1/DTD/svg11.dtd">
<svg version="1.1" id="Capa_1" xmlns="http://www.w3.org/2000/svg" xmlns:xlink="http://www.w3.org/1999/xlink" x="0px" y="0px"
	 viewBox="0 0 543.713 543.713" style="enable-background:new 0 0 543.713 543.713;" xml:space="preserve">
<path d="M510.326,324.552H323.671v-1.729c0-4.143-3.358-7.5-7.5-7.5h-28.159c-1.145-0.709-2.491-1.125-3.937-1.125h-36.317v-73.661
	c46.896,1.797,80.082,5.038,98.712,9.646c6.576,1.627,16.473,8.563,26.471,18.552c5.17,5.174,9.125,12.695,12.95,19.968
	c6.115,11.63,12.438,23.655,24.512,23.655c14.049,0,26.831-10.09,35.991-28.411c8.334-16.669,12.923-38.663,12.923-61.929
	c0-23.27-4.589-45.265-12.923-61.932c-9.159-18.318-21.941-28.407-35.991-28.407c-12.125,0-18.456,11.984-24.579,23.575
	c-3.842,7.272-7.815,14.793-13.058,20.036c-9.99,9.989-19.833,16.932-26.328,18.57c-21.102,5.317-62.887,8.813-124.193,10.388
	h-0.435c-9.481,0-92.277,0.29-149.53,0.516C32.424,204.919,0,237.474,0,277.334c0,40.017,32.556,72.572,72.572,72.572h211.502
	c0.155,0,0.306-0.014,0.458-0.023v17.235c-3.874,0.293-6.927,3.529-6.927,7.479v1.729h-20.043v-2.854
	c0-3.493-2.412-6.524-5.816-7.309l-21.408-4.931c-0.837-3.229-3.762-5.616-7.252-5.616h-18.904c-4.142,0-7.5,3.357-7.5,7.5v41.42
	c0,4.143,3.358,7.5,7.5,7.5h18.904c3.49,0,6.415-2.387,7.252-5.615l21.407-4.93c3.405-0.784,5.817-3.815,5.817-7.309v-2.855h20.043
	v1.729c0,4.143,3.358,7.5,7.5,7.5h31.065c4.142,0,7.5-3.357,7.5-7.5v-1.729h186.655c18.41,0,33.387-14.978,33.387-33.387
	C543.713,339.529,528.736,324.552,510.326,324.552z M211.683,370.616h3.904v26.42h-3.904V370.616z M242.563,388.213l-11.976,2.758
	v-14.289l11.976,2.759V388.213z M15,277.334c0-31.621,25.722-57.447,57.338-57.571c57.241-0.226,140.005-0.516,149.471-0.516h0.511
	c0.066-0.006,0.139-0.001,0.209-0.003c62.467-1.602,105.389-5.249,127.576-10.84c12.517-3.158,26.215-15.458,33.266-22.509
	c6.843-6.843,11.556-15.765,15.715-23.637c3.474-6.575,8.231-15.581,11.316-15.581c16.041,0,33.914,30.94,33.914,75.339
	s-17.873,75.34-33.914,75.34c-3.013,0-7.766-9.037-11.236-15.637c-4.143-7.878-8.837-16.807-15.62-23.594
	c-8.633-8.625-21.448-19.53-33.475-22.505c-20.653-5.108-57.514-8.592-109.56-10.356c-2.029-0.065-4.005,0.691-5.467,2.104
	c-1.461,1.413-2.287,3.359-2.287,5.393v88.937c0,4.143,3.358,7.5,7.5,7.5h36.317v5.709H72.572C40.827,334.906,15,309.079,15,277.334
	z M308.671,385.555h-16.065v-3.48c3.874-0.293,6.927-3.529,6.927-7.479V341.28c0-4.143-3.358-7.5-7.5-7.5h-0.458v-3.458h17.096
	v3.479c-3.875,0.293-6.927,3.529-6.927,7.479v33.316c0,3.949,3.052,7.186,6.927,7.479V385.555z M316.744,367.118v-18.359
	c3.875-0.293,6.927-3.529,6.927-7.479v-1.729h16.065v36.774h-16.065v-1.729C323.671,370.647,320.619,367.411,316.744,367.118z
	 M510.326,376.326h-155.59v-36.774h155.59c10.139,0,18.387,8.249,18.387,18.388S520.465,376.326,510.326,376.326z M74.556,224.401
	l-1.456-0.003c-28.888,0-52.39,23.506-52.39,52.398c0,28.894,23.506,52.4,52.399,52.4h1.429c4.142,0,7.5-3.357,7.5-7.5v-89.796
	C82.039,227.765,78.691,224.411,74.556,224.401z M67.039,313.705c-17.745-2.909-31.329-18.353-31.329-36.908
	c0-18.558,13.585-34.002,31.329-36.907V313.705z M111.703,224.517l-19.446-0.076c-0.01,0-0.02,0-0.03,0
	c-1.983,0-3.887,0.786-5.292,2.186c-1.413,1.408-2.208,3.32-2.208,5.314v89.756c0,4.143,3.358,7.5,7.5,7.5h19.448
	c4.142,0,7.5-3.357,7.5-7.5v-89.68C119.174,227.886,115.833,224.533,111.703,224.517z M104.174,314.197h-4.448V239.47l4.448,0.018
	V314.197z M223.293,224.844l-3.947-0.106c-0.078-0.001-0.159-0.005-0.234-0.002c-0.561,0.004-1.698,0.005-3.337,0.005
	c-11.613,0-49.561-0.081-86.392-0.185c-0.007,0-0.014,0-0.021,0c-1.985,0-3.89,0.787-5.296,2.189
	c-1.411,1.407-2.204,3.317-2.204,5.311v89.642c0,4.143,3.358,7.5,7.5,7.5h93.725c4.142,0,7.5-3.357,7.5-7.5v-89.356
	C230.586,228.279,227.354,224.956,223.293,224.844z M215.586,314.197h-78.725v-74.621c34.166,0.093,67.693,0.163,78.725,0.164
	V314.197z M350.057,220.562c-1.013-4.017,1.421-8.094,5.438-9.107c2.881-0.727,6.147-2.018,9.445-3.734
	c3.675-1.913,8.203-0.484,10.116,3.189c1.913,3.674,0.484,8.203-3.19,10.115c-4.377,2.279-8.651,3.952-12.702,4.975
	c-0.615,0.155-1.233,0.229-1.84,0.229C353.969,226.229,350.915,223.963,350.057,220.562z M381.823,205.817
	c-2.929-2.929-2.929-7.678,0-10.606c10.915-10.916,17.007-23.126,21.902-32.938c1.178-2.36,2.29-4.59,3.411-6.697
	c1.945-3.658,6.486-5.046,10.144-3.099c3.657,1.945,5.044,6.487,3.098,10.144c-1.029,1.935-2.099,4.078-3.231,6.349
	c-5.38,10.784-12.077,24.206-24.718,36.847c-1.464,1.465-3.384,2.197-5.303,2.197S383.288,207.281,381.823,205.817z"/>
<g>
</g>
<g>
</g>
<g>
</g>
<g>
</g>
<g>
</g>
<g>
</g>
<g>
</g>
<g>
</g>
<g>
</g>
<g>
</g>
<g>
</g>
<g>
</g>
<g>
</g>
<g>
</g>
<g>
</g>
</svg>
