<?xml version="1.0" encoding="iso-8859-1"?>
<!-- Generator: Adobe Illustrator 17.1.0, SVG Export Plug-In . SVG Version: 6.00 Build 0)  -->
<!DOCTYPE svg PUBLIC "-//W3C//DTD SVG 1.1//EN" "http://www.w3.org/Graphics/SVG/1.1/DTD/svg11.dtd">
<svg version="1.1" id="Capa_1" xmlns="http://www.w3.org/2000/svg" xmlns:xlink="http://www.w3.org/1999/xlink" x="0px" y="0px"
	 viewBox="0 0 552.397 552.397" style="enable-background:new 0 0 552.397 552.397;" xml:space="preserve">
<path d="M500.489,161.813c-12.675,0-19.386,12.704-25.876,24.99c-4.139,7.834-8.419,15.936-14.099,21.615
	c-10.777,10.777-21.425,18.275-28.481,20.057c-23.412,5.899-60.649,9.411-116.911,11.009c-1.356-1.349-3.225-2.183-5.288-2.183
	h-3.59v-4.972h3.602c4.142,0,7.5-3.357,7.5-7.5s-3.358-7.5-7.5-7.5H287.64c-4.142,0-7.5,3.357-7.5,7.5s3.358,7.5,7.5,7.5h3.603
	v4.972h-3.614c-2.399,0-4.53,1.13-5.902,2.883c-3.183,0.031-6.983,0.059-10.518,0.085c-1.455,0.011-2.861,0.022-4.176,0.032
	c-1.369-1.819-3.539-3-5.99-3h-3.602v-4.972h3.601c4.142,0,7.5-3.357,7.5-7.5s-3.358-7.5-7.5-7.5h-22.204
	c-4.142,0-7.5,3.357-7.5,7.5s3.358,7.5,7.5,7.5h3.603v4.972h-3.603c-2.581,0-4.856,1.304-6.205,3.288
	c-4.398,0.015-9.862,0.027-14.162,0.035c-1.346-2.004-3.633-3.323-6.229-3.323h-3.602v-4.972h3.602c4.142,0,7.5-3.357,7.5-7.5
	s-3.358-7.5-7.5-7.5h-22.205c-4.142,0-7.5,3.357-7.5,7.5s3.358,7.5,7.5,7.5h3.603v4.972h-3.603c-2.586,0-4.865,1.308-6.214,3.299
	c-2.238-0.015-3.704-0.035-5.369-0.058c-1.842-0.025-3.949-0.055-7.593-0.085c-0.203-0.002-0.401-0.002-0.604-0.002
	c-27.946,0-52.508,17.554-61.738,43.492H90.012c-2.337,0-4.424,1.069-5.799,2.745H62.482c-1.024-1.244-2.441-2.167-4.102-2.55
	l-23.276-5.362c-0.721-3.39-3.729-5.933-7.333-5.933H7.5c-4.142,0-7.5,3.357-7.5,7.5v44.414c0,4.143,3.358,7.5,7.5,7.5h20.271
	c3.604,0,6.613-2.543,7.333-5.933l23.276-5.362c1.66-0.382,3.078-1.305,4.102-2.55h21.73c1.375,1.676,3.463,2.746,5.8,2.746h16.3
	c6.832,32.077,35.417,55.511,69.07,55.511h7.155v6.411c0,4.143,3.358,7.5,7.5,7.5h22.205c4.142,0,7.5-3.357,7.5-7.5v-6.411h11.597
	v6.411c0,4.143,3.358,7.5,7.5,7.5h22.205c4.142,0,7.5-3.357,7.5-7.5v-6.411h11.585v6.411c0,4.143,3.358,7.5,7.5,7.5h22.204
	c4.142,0,7.5-3.357,7.5-7.5v-6.411h44.715c25.562,0,46.357-20.796,46.357-46.357c0-12.374-4.821-24.019-13.579-32.791
	c-8.756-8.756-20.397-13.578-32.779-13.578h-44.715v-7.143c54.188,1.571,90.777,5.089,114.731,11.012
	c7.142,1.767,17.85,9.258,28.638,20.035c5.602,5.606,9.862,13.708,13.982,21.542c6.482,12.328,13.186,25.076,25.804,25.076
	c29.107,0,51.909-42.313,51.909-96.328C552.397,204.125,529.596,161.813,500.489,161.813z M317.333,321.163h44.715
	c5.047,0,9.153,4.106,9.153,9.153c0,2.442-0.953,4.74-2.692,6.479c-1.718,1.725-4.013,2.674-6.461,2.674h-44.715V321.163z
	 M268.543,298.947h11.585v7.216h-11.585V298.947z M280.129,283.947h-11.585v-7.964c0.732,0.005,1.479,0.01,2.246,0.015
	c3.102,0.02,6.404,0.041,9.339,0.063V283.947z M268.543,321.163h11.585v18.307h-11.585V321.163z M271.321,255.269
	c2.917-0.022,6.013-0.045,8.808-0.07v5.862c-2.921-0.022-6.178-0.043-9.244-0.063c-0.801-0.005-1.58-0.01-2.341-0.015v-5.694
	C269.442,255.282,270.37,255.276,271.321,255.269z M231.339,283.947h-11.597v-8.219c3.673,0.003,7.91,0.007,11.597,0.013V283.947z
	 M219.742,298.947h11.597v7.216h-11.597V298.947z M231.339,260.741c-3.69-0.006-7.926-0.01-11.597-0.013v-5.107
	c3.707-0.007,7.923-0.016,11.597-0.028V260.741z M219.742,321.163h11.597v18.307h-11.597V321.163z M182.538,283.947h-31.732
	c5.105-4.86,11.935-7.755,19.317-7.854c3.617-0.049,5.723-0.096,7.658-0.139c1.479-0.033,2.858-0.064,4.756-0.092V283.947z
	 M182.538,339.47h-8.825c-12.621,0-22.786-6.82-28.065-18.307h36.89V339.47z M170.265,255.455c0.154,0,0.311,0,0.466,0.002
	c3.611,0.03,5.696,0.059,7.519,0.083c1.386,0.019,2.636,0.036,4.288,0.051v5.27c-2.056,0.029-3.521,0.062-5.092,0.097
	c-1.901,0.043-3.972,0.089-7.525,0.138c-16,0.215-30.313,9.027-37.761,22.853h-7.4C133.069,266.75,150.572,255.455,170.265,255.455z
	 M15,287.848h5.271v29.414H15V287.848z M35.271,294.212l13.926,3.208v10.27l-13.926,3.208V294.212z M64.197,303.417v-1.725h18.311
	v1.725 M97.512,298.947h16.423c0.039,0,0.077,0.006,0.116,0.006c0.046,0,0.09-0.005,0.135-0.006h22.697
	c0.014,0,0.028,0.002,0.042,0.002c0.009,0,0.017-0.002,0.026-0.002h45.586v7.216h-47.096c-0.039,0-0.078,0-0.117,0h-22.724
	c-0.007,0-0.014,0-0.021,0H97.512V298.947z M175.382,361.674c-25.399,0-47.121-16.915-53.626-40.511h7.847
	c6.49,20.427,23.25,33.307,44.108,33.307h8.825v7.204H175.382z M204.742,375.585h-7.205V252.301h7.205V375.585z M219.742,361.674
	v-7.204h11.597v7.204H219.742z M253.543,375.585h-7.205V252.301h7.205V375.585z M268.543,361.674v-7.204h11.585v7.204H268.543z
	 M302.333,375.585h-7.204V252.301h7.204V375.585z M362.048,298.947c8.375,0,16.249,3.262,22.168,9.181
	c5.926,5.936,9.189,13.815,9.189,22.188c0,17.291-14.067,31.357-31.357,31.357h-44.715v-7.204h44.715
	c6.465,0,12.533-2.517,17.078-7.077c4.563-4.563,7.076-10.628,7.076-17.076c0-13.318-10.835-24.153-24.153-24.153h-44.715v-7.216
	H362.048z M525.18,317.597c-6.95,13.9-15.949,21.873-24.691,21.873c-3.559,0-8.532-9.458-12.528-17.057
	c-4.424-8.414-9.438-17.949-16.653-25.17c-7.54-7.531-22.196-20.662-35.643-23.987c-25.069-6.2-62.798-9.858-118.332-11.458v-7.375
	c56.396-1.657,94.132-5.297,118.367-11.405c13.298-3.356,27.9-16.474,35.42-23.993c7.28-7.28,12.313-16.809,16.755-25.216
	c4-7.573,8.979-16.997,12.613-16.997c8.743,0,17.742,7.971,24.691,21.869c7.878,15.757,12.217,36.874,12.217,59.46
	C537.397,280.724,533.059,301.838,525.18,317.597z M461.296,243.206c1.913,3.674,0.485,8.202-3.189,10.115
	c-4.659,2.426-9.202,4.205-13.503,5.29c-0.615,0.155-1.232,0.229-1.839,0.229c-3.355,0-6.409-2.267-7.267-5.668
	c-1.013-4.017,1.422-8.094,5.438-9.106c3.127-0.788,6.669-2.188,10.244-4.05C454.856,238.104,459.383,239.531,461.296,243.206z
	 M509.9,190.922c-1.107,2.081-2.257,4.385-3.474,6.823c-5.752,11.528-12.911,25.875-26.401,39.366
	c-1.464,1.464-3.384,2.196-5.303,2.196s-3.839-0.732-5.303-2.196c-2.929-2.93-2.929-7.678,0-10.607
	c11.765-11.765,18.319-24.9,23.585-35.456c1.262-2.529,2.454-4.918,3.654-7.173c1.946-3.657,6.487-5.046,10.144-3.098
	C510.459,182.724,511.846,187.265,509.9,190.922z"/>
<g>
</g>
<g>
</g>
<g>
</g>
<g>
</g>
<g>
</g>
<g>
</g>
<g>
</g>
<g>
</g>
<g>
</g>
<g>
</g>
<g>
</g>
<g>
</g>
<g>
</g>
<g>
</g>
<g>
</g>
</svg>
