<?xml version="1.0" encoding="iso-8859-1"?>
<!-- Generator: Adobe Illustrator 17.1.0, SVG Export Plug-In . SVG Version: 6.00 Build 0)  -->
<!DOCTYPE svg PUBLIC "-//W3C//DTD SVG 1.1//EN" "http://www.w3.org/Graphics/SVG/1.1/DTD/svg11.dtd">
<svg version="1.1" id="Capa_1" xmlns="http://www.w3.org/2000/svg" xmlns:xlink="http://www.w3.org/1999/xlink" x="0px" y="0px"
	 viewBox="0 0 550.752 550.752" style="enable-background:new 0 0 550.752 550.752;" xml:space="preserve">
<path d="M248.863,422.497c0.047-0.002,0.094-0.006,0.14-0.009c42.007-2.143,81.195-19.517,111.155-49.477
	c30.957-30.957,48.477-71.767,49.64-115.358c0.003-0.096,0.008-0.192,0.011-0.289c0.036-1.449,0.056-2.901,0.056-4.355
	s-0.02-2.906-0.056-4.355c-0.003-0.097-0.008-0.193-0.011-0.29c-0.31-11.612-1.787-23.024-4.364-34.108
	c3.617,0.5,7.275,0.764,10.957,0.764c43.746,0,79.336-35.59,79.336-79.335c0-12.995-3.213-25.888-9.292-37.285
	c-1.949-3.655-6.493-5.037-10.147-3.088c-3.655,1.949-5.038,6.492-3.088,10.146c4.924,9.232,7.527,19.685,7.527,30.227
	c0,35.475-28.861,64.335-64.336,64.335c-5.284,0-10.504-0.648-15.571-1.907c-0.667-1.957-1.363-3.904-2.101-5.833l10.694-24.087
	l5.52,2.547c1.018,0.469,2.085,0.691,3.137,0.691c2.835,0,5.549-1.616,6.815-4.359l20.898-45.293
	c0.833-1.807,0.915-3.87,0.227-5.736c-0.688-1.866-2.089-3.383-3.895-4.217l-24.264-11.195c-3.762-1.732-8.217-0.093-9.952,3.668
	L387,149.592c-0.833,1.807-0.915,3.87-0.227,5.736c0.688,1.866,2.089,3.383,3.895,4.217l5.123,2.364l-5.364,12.081
	c-7.865-14.912-18.009-28.721-30.27-40.982c-2.399-2.399-4.865-4.708-7.38-6.944C357.44,94.62,384.15,71.35,416.392,71.35
	c11.212,0,22.248,2.925,31.913,8.459c3.595,2.058,8.177,0.813,10.235-2.782c2.058-3.595,0.813-8.177-2.782-10.235
	c-11.93-6.831-25.542-10.441-39.366-10.441c-19.927,0-38.979,7.418-53.647,20.888c-11.31,10.386-19.248,23.668-23.077,38.27
	c-26.413-19.2-57.666-30.292-90.665-31.975c-0.047-0.002-0.094-0.006-0.14-0.009c-1.247-0.063-2.498-0.107-3.75-0.143
	c-0.207-0.006-0.413-0.017-0.62-0.022c-1.442-0.036-2.887-0.055-4.335-0.055s-2.893,0.019-4.335,0.055
	c-0.207,0.005-0.413,0.017-0.62,0.022c-1.252,0.036-2.503,0.081-3.75,0.143c-0.047,0.002-0.094,0.006-0.14,0.009
	c-42.006,2.143-81.195,19.517-111.155,49.476c-29.959,29.96-47.334,69.148-49.477,111.154c-0.002,0.047-0.006,0.094-0.009,0.142
	c-0.063,1.247-0.107,2.497-0.143,3.749c-0.006,0.208-0.018,0.414-0.023,0.622c-0.036,1.442-0.055,2.887-0.055,4.335
	s0.019,2.893,0.055,4.335c0.005,0.207,0.017,0.413,0.023,0.62c0.036,1.252,0.08,2.503,0.143,3.751
	c0.002,0.046,0.006,0.091,0.008,0.137c2.142,42.008,19.517,81.198,49.477,111.158c29.96,29.96,69.149,47.334,111.155,49.477
	c0.047,0.002,0.094,0.006,0.14,0.009c1.247,0.063,2.498,0.107,3.75,0.143c0.207,0.006,0.413,0.017,0.62,0.022
	c1.442,0.036,2.887,0.055,4.335,0.055s2.893-0.019,4.335-0.055c0.207-0.005,0.413-0.017,0.62-0.022
	C246.365,422.604,247.615,422.56,248.863,422.497z M418.376,117.394l10.644,4.911l-14.614,31.673l-10.644-4.911L418.376,117.394z
	 M248.093,407.517c-1.132,0.057-2.268,0.097-3.406,0.13c-0.194,0.005-0.386,0.016-0.58,0.021c-1.313,0.033-2.63,0.05-3.951,0.05
	s-2.638-0.017-3.951-0.05c-0.194-0.005-0.386-0.016-0.58-0.021c-1.138-0.033-2.274-0.073-3.406-0.13
	c-0.043-0.002-0.085-0.006-0.128-0.008c-78.902-4.072-142.363-67.533-146.435-146.435c-0.002-0.043-0.006-0.085-0.008-0.128
	c-0.057-1.132-0.097-2.269-0.13-3.407c-0.005-0.193-0.016-0.385-0.021-0.579c-0.033-1.313-0.05-2.63-0.05-3.951
	s0.017-2.638,0.05-3.951c0.005-0.194,0.016-0.387,0.021-0.581c0.033-1.137,0.072-2.273,0.13-3.404
	c0.002-0.043,0.006-0.085,0.008-0.128c4.072-78.901,67.533-142.362,146.435-146.434c0.043-0.002,0.085-0.006,0.128-0.008
	c1.132-0.057,2.268-0.097,3.406-0.13c0.194-0.005,0.386-0.016,0.58-0.021c1.313-0.033,2.63-0.05,3.951-0.05s2.638,0.017,3.951,0.05
	c0.194,0.005,0.386,0.016,0.58,0.021c1.138,0.033,2.274,0.073,3.406,0.13c0.043,0.002,0.085,0.006,0.128,0.008
	c60.238,3.108,111.471,40.836,134.152,93.62l-70.894,159.682l-37.978,2.629v-7.359c0-4.143-3.358-7.5-7.5-7.5h-55.946
	c-4.142,0-7.5,3.357-7.5,7.5v7.42h-12.447c-4.142,0-7.5,3.357-7.5,7.5s3.358,7.5,7.5,7.5h12.447v7.42c0,4.143,3.358,7.5,7.5,7.5
	h55.946c4.142,0,7.5-3.357,7.5-7.5v-7.444l43.518-3.013c2.771-0.192,5.209-1.9,6.337-4.439l66.218-149.149
	c3.092,11.501,4.897,23.525,5.23,35.91c0.002,0.084,0.007,0.167,0.009,0.251c0.033,1.32,0.05,2.644,0.05,3.971
	c0,1.328-0.017,2.652-0.05,3.972c-0.002,0.083-0.007,0.165-0.009,0.248c-2.171,80.676-66.405,146.142-146.584,150.28
	C248.178,407.511,248.136,407.514,248.093,407.517z M217.555,369.423v-14.84h6.882v14.84H217.555z M239.438,354.583h19.064v14.84
	h-19.064V354.583z M120.218,253.01c0,4.143-3.358,7.5-7.5,7.5s-7.5-3.357-7.5-7.5c0-74.405,60.533-134.938,134.939-134.938
	c4.142,0,7.5,3.357,7.5,7.5s-3.358,7.5-7.5,7.5C174.022,133.071,120.218,186.875,120.218,253.01z M154.794,253.01
	c0,4.143-3.358,7.5-7.5,7.5s-7.5-3.357-7.5-7.5c0-55.34,45.022-100.362,100.363-100.362c4.142,0,7.5,3.357,7.5,7.5
	s-3.358,7.5-7.5,7.5C193.087,167.647,154.794,205.94,154.794,253.01z M240.157,316.009c16.828,0,32.648-6.553,44.547-18.451
	c24.563-24.563,24.563-64.531,0-89.095c-11.899-11.898-27.719-18.451-44.547-18.451c-16.828,0-32.648,6.553-44.547,18.451
	c-24.563,24.563-24.563,64.531,0,89.095C207.508,309.456,223.329,316.009,240.157,316.009z M206.216,219.07
	c9.066-9.066,21.12-14.059,33.941-14.059c12.821,0,24.875,4.992,33.94,14.059c18.715,18.714,18.715,49.165,0,67.88
	c-9.066,9.066-21.12,14.059-33.94,14.059c-12.821,0-24.875-4.992-33.941-14.059C187.501,268.236,187.501,237.784,206.216,219.07z
	 M240.157,283.042c8.021,0,15.563-3.124,21.235-8.797c11.709-11.709,11.709-30.762,0-42.471c-5.672-5.672-13.213-8.796-21.235-8.796
	c-8.022,0-15.563,3.124-21.235,8.796c-11.708,11.709-11.709,30.762,0,42.472C224.593,279.918,232.135,283.042,240.157,283.042z
	 M229.528,242.382c2.839-2.84,6.614-4.403,10.629-4.403c4.015,0,7.79,1.563,10.628,4.403c5.861,5.86,5.861,15.396,0,21.257
	c-2.839,2.84-6.614,4.403-10.628,4.403c-4.015,0-7.79-1.563-10.628-4.402C223.667,257.778,223.667,248.242,229.528,242.382z
	 M543.252,26.442H7.5c-4.142,0-7.5,3.357-7.5,7.5v424.924v57.943c0,4.143,3.358,7.5,7.5,7.5h535.752c4.142,0,7.5-3.357,7.5-7.5
	v-57.943V33.942C550.752,29.8,547.394,26.442,543.252,26.442z M15,509.31v-42.943h452.075c4.142,0,7.5-3.357,7.5-7.5
	s-3.358-7.5-7.5-7.5H15V41.442h520.752v409.924h-14c-4.142,0-7.5,3.357-7.5,7.5s3.358,7.5,7.5,7.5h14v42.943H15z M433.419,329.214
	h-4.046v-38.683c0-4.143-3.358-7.5-7.5-7.5s-7.5,3.357-7.5,7.5v38.683h-4.045c-4.142,0-7.5,3.357-7.5,7.5v46.184
	c0,4.143,3.358,7.5,7.5,7.5h4.045v38.683c0,4.143,3.358,7.5,7.5,7.5s7.5-3.357,7.5-7.5v-38.683h4.046c4.142,0,7.5-3.357,7.5-7.5
	v-46.184C440.919,332.571,437.562,329.214,433.419,329.214z M425.919,375.397h-8.091v-8.092h8.091V375.397z M417.828,352.306v-8.092
	h8.091v8.092H417.828z M475.462,352.306h-4.046v-61.774c0-4.143-3.358-7.5-7.5-7.5s-7.5,3.357-7.5,7.5v61.774h-4.046
	c-4.142,0-7.5,3.357-7.5,7.5v46.183c0,4.143,3.358,7.5,7.5,7.5h4.046v15.592c0,4.143,3.358,7.5,7.5,7.5s7.5-3.357,7.5-7.5v-15.592
	h4.046c4.142,0,7.5-3.357,7.5-7.5v-46.183C482.962,355.663,479.604,352.306,475.462,352.306z M467.962,398.488h-8.092v-8.091h8.092
	V398.488z M459.871,375.397v-8.092h8.092v8.092H459.871z M517.505,355.76c4.142,0,7.5-3.357,7.5-7.5v-46.183
	c0-4.143-3.358-7.5-7.5-7.5h-4.045v-4.046c0-4.143-3.358-7.5-7.5-7.5s-7.5,3.357-7.5,7.5v4.046h-4.046c-4.142,0-7.5,3.357-7.5,7.5
	v46.183c0,4.143,3.358,7.5,7.5,7.5h4.046v73.32c0,4.143,3.358,7.5,7.5,7.5s7.5-3.357,7.5-7.5v-73.32H517.505z M501.914,340.76
	v-8.091h8.091v8.091H501.914z M501.914,309.577h8.091v8.092h-8.091V309.577z M116.964,77.851c0-13.345-10.856-24.201-24.201-24.201
	H51.344c-13.345,0-24.202,10.856-24.202,24.201s10.857,24.202,24.202,24.202h41.419C106.108,102.053,116.964,91.195,116.964,77.851z
	 M101.964,77.851c0,5.074-4.127,9.202-9.201,9.202h-19.04c1.172-2.839,1.822-5.945,1.822-9.202c0-3.256-0.65-6.363-1.822-9.201
	h19.04C97.837,68.649,101.964,72.777,101.964,77.851z M42.142,77.851c0-5.073,4.128-9.201,9.202-9.201s9.201,4.128,9.201,9.201
	c0,5.074-4.127,9.202-9.201,9.202S42.142,82.925,42.142,77.851z M234.855,258.311c-1.4-1.391-2.2-3.32-2.2-5.3
	c0-1.98,0.8-3.91,2.2-5.301c1.39-1.399,3.33-2.199,5.3-2.199c1.98,0,3.91,0.8,5.3,2.199c1.4,1.391,2.2,3.32,2.2,5.301
	c0,1.979-0.8,3.909-2.2,5.3c-1.39,1.399-3.32,2.2-5.3,2.2C238.186,260.511,236.246,259.71,234.855,258.311z"/>
<g>
</g>
<g>
</g>
<g>
</g>
<g>
</g>
<g>
</g>
<g>
</g>
<g>
</g>
<g>
</g>
<g>
</g>
<g>
</g>
<g>
</g>
<g>
</g>
<g>
</g>
<g>
</g>
<g>
</g>
</svg>
