<?xml version="1.0" encoding="iso-8859-1"?>
<!-- Generator: Adobe Illustrator 17.1.0, SVG Export Plug-In . SVG Version: 6.00 Build 0)  -->
<!DOCTYPE svg PUBLIC "-//W3C//DTD SVG 1.1//EN" "http://www.w3.org/Graphics/SVG/1.1/DTD/svg11.dtd">
<svg version="1.1" id="Capa_1" xmlns="http://www.w3.org/2000/svg" xmlns:xlink="http://www.w3.org/1999/xlink" x="0px" y="0px"
	 viewBox="0 0 551.26 551.26" style="enable-background:new 0 0 551.26 551.26;" xml:space="preserve">
<path d="M360.398,474.75l-4.535-21.453c-0.559-7.463,0.818-14.978,3.991-21.762c1.086-2.322,0.91-5.039-0.467-7.203
	c-1.376-2.163-3.763-3.474-6.327-3.474c-10.499,0-19.176-7.88-20.183-18.329l-0.492-5.112c-0.279-2.886,0.642-5.658,2.591-7.806
	c1.95-2.146,4.621-3.329,7.521-3.329h3.473c2.564,0,4.951-1.311,6.328-3.474c1.376-2.164,1.552-4.881,0.466-7.204
	c-2.866-6.127-4.091-12.924-3.545-19.667l4.189-32.491c0.041-0.318,0.062-0.639,0.062-0.959c0-33.906-21.789-59.73-56.028-67.226
	l-3.055-139.139c0-0.026-0.005-0.051-0.006-0.077c-0.001-0.029,0.002-0.058,0.001-0.087l-0.293-6.685h6.143
	c4.143,0,7.5-3.357,7.5-7.5s-3.357-7.5-7.5-7.5h-6.801l-0.33-7.518h6.214c4.143,0,7.5-3.357,7.5-7.5s-3.357-7.5-7.5-7.5h-5.318
	c7.277-5.55,11.984-14.304,11.984-24.142V30.352C305.982,13.615,292.367,0,275.63,0s-30.353,13.615-30.353,30.352v17.263
	c0,10.501,5.362,19.772,13.491,25.223l-0.354,8.08h-6.859c-4.143,0-7.5,3.357-7.5,7.5s3.357,7.5,7.5,7.5h6.201l-0.33,7.519h-6.799
	c-4.143,0-7.5,3.357-7.5,7.5s3.357,7.5,7.5,7.5h6.194l-3.004,136.826c-34.239,7.495-56.027,33.32-56.027,67.226
	c0,0.32,0.021,0.641,0.062,0.959l4.188,32.492c0.547,6.74-0.678,13.537-3.544,19.667c-1.086,2.322-0.91,5.04,0.467,7.203
	c1.376,2.163,3.763,3.474,6.327,3.474h3.473c2.899,0,5.57,1.183,7.521,3.329s2.87,4.919,2.593,7.805l-0.494,5.112
	c-1.007,10.45-9.684,18.33-20.183,18.33c-2.564,0-4.951,1.311-6.328,3.474c-1.376,2.164-1.552,4.881-0.466,7.204
	c3.173,6.782,4.55,14.296,3.991,21.761l-4.535,21.453c-0.107,0.51-0.162,1.029-0.162,1.551c0,42.733,36.513,74.959,84.931,74.959
	s84.93-32.226,84.93-74.959C360.56,475.779,360.505,475.26,360.398,474.75z M271.708,123.787h7.845l5.434,247.495h-18.713
	L271.708,123.787z M260.278,30.352c0-8.465,6.887-15.352,15.353-15.352c8.465,0,15.352,6.887,15.352,15.352v17.263
	c0,8.465-6.887,15.352-15.352,15.352c-8.466,0-15.353-6.887-15.353-15.352V30.352z M275.63,77.966c0.695,0,1.383-0.032,2.067-0.078
	l1.046,23.835c0,0.017-0.002,0.033-0.002,0.051c0,0.245,0.014,0.486,0.037,0.725l0.276,6.289h-6.847l1.356-30.9
	C274.247,77.934,274.935,77.966,275.63,77.966z M283.103,535.949c-0.589-28.813-24.195-52.075-53.147-52.075h-5.394
	c-4.143,0-7.5,3.357-7.5,7.5s3.357,7.5,7.5,7.5h5.394c20.679,0,37.559,16.531,38.147,37.069
	c-27.115-2.272-48.72-16.764-57.779-37.413c3.044-0.955,5.252-3.797,5.252-7.156c0-4.143-3.357-7.5-7.5-7.5h-1.86
	c-0.3-2.229-0.481-4.499-0.511-6.813l4.468-21.135c0.063-0.302,0.109-0.607,0.135-0.915c0.592-6.951-0.068-13.945-1.918-20.631
	c13.426-4.005,23.512-15.757,24.924-30.412l0.494-5.112c0.679-7.045-1.661-14.091-6.42-19.33c-3.204-3.528-7.328-6.043-11.842-7.31
	c1.443-5.763,1.935-11.752,1.428-17.705c-0.009-0.108-0.021-0.216-0.034-0.323l-4.146-32.169
	c0.186-25.422,15.521-44.424,40.684-51.248l-2.368,107.846c-0.044,2.018,0.726,3.968,2.137,5.41s3.344,2.255,5.361,2.255h34.046
	c2.018,0,3.95-0.813,5.361-2.255s2.182-3.393,2.137-5.41l-2.368-107.846c25.164,6.824,40.5,25.826,40.685,51.248l-4.147,32.169
	c-0.014,0.107-0.025,0.216-0.034,0.324c-0.507,5.954-0.015,11.942,1.429,17.704c-4.514,1.267-8.639,3.782-11.843,7.311
	c-4.759,5.239-7.099,12.285-6.419,19.329l0.492,5.111c1.413,14.657,11.498,26.409,24.925,30.413
	c-1.85,6.687-2.51,13.681-1.918,20.631c0.025,0.308,0.071,0.613,0.135,0.915l4.468,21.135
	C345.14,508.701,318.906,532.971,283.103,535.949z M298.148,432.833h-45.036c-2.68,0-5.156,1.43-6.496,3.752
	c-1.34,2.321-1.339,5.181,0.003,7.501c0.103,0.178,10.306,17.927,13.582,31.759c0.538,2.274,0.911,4.5,1.272,6.651
	c1.185,7.066,2.976,17.744,14.157,17.744c12.541,0,13.714-11.155,14.345-17.149c0.248-2.356,0.505-4.794,1.086-7.251
	c3.265-13.788,13.479-31.577,13.58-31.754c1.342-2.32,1.343-5.18,0.003-7.501S300.828,432.833,298.148,432.833z M276.465,472.384
	c-0.341,1.438-0.597,2.838-0.8,4.171c-0.246-1.329-0.527-2.725-0.869-4.167c-1.979-8.357-5.927-17.565-9.304-24.555h20.273
	C282.39,454.821,278.444,464.027,276.465,472.384z M249.454,407.396l-5.77,34.391c-0.67,3.998-3.09,7.416-6.639,9.379
	c-1.992,1.102-4.186,1.658-6.389,1.658c-1.72,0-3.445-0.339-5.087-1.022c-6.729-2.804-9.923-10.557-7.122-17.283
	c1.593-3.825,5.983-5.634,9.807-4.041c0.714,0.298,1.357,0.692,1.922,1.163l5.77-34.391c0.672-4,3.092-7.419,6.642-9.381
	c3.549-1.963,7.731-2.191,11.476-0.634c6.727,2.803,9.92,10.556,7.119,17.282c-1.593,3.824-5.983,5.633-9.807,4.041
	C250.662,408.261,250.018,407.866,249.454,407.396z M332.399,434.519c2.801,6.727-0.393,14.479-7.119,17.282
	c-1.643,0.684-3.37,1.023-5.091,1.023c-2.203,0-4.396-0.557-6.388-1.658c-3.549-1.963-5.969-5.381-6.639-9.38l-5.77-34.39
	c-0.563,0.47-1.206,0.864-1.92,1.161c-3.819,1.591-8.214-0.214-9.808-4.038c-1.358-3.259-1.366-6.853-0.021-10.117
	c1.344-3.265,3.88-5.81,7.14-7.167c3.741-1.558,7.925-1.329,11.475,0.634c3.55,1.962,5.97,5.381,6.642,9.38l5.77,34.392
	c0.564-0.471,1.208-0.865,1.922-1.163C326.411,428.884,330.805,430.693,332.399,434.519z M264.371,409.063h22.519
	c4.143,0,7.5,3.357,7.5,7.5s-3.357,7.5-7.5,7.5h-22.519c-4.143,0-7.5-3.357-7.5-7.5S260.228,409.063,264.371,409.063z"/>
<g>
</g>
<g>
</g>
<g>
</g>
<g>
</g>
<g>
</g>
<g>
</g>
<g>
</g>
<g>
</g>
<g>
</g>
<g>
</g>
<g>
</g>
<g>
</g>
<g>
</g>
<g>
</g>
<g>
</g>
</svg>
