<?xml version="1.0" encoding="iso-8859-1"?>
<!-- Generator: Adobe Illustrator 17.1.0, SVG Export Plug-In . SVG Version: 6.00 Build 0)  -->
<!DOCTYPE svg PUBLIC "-//W3C//DTD SVG 1.1//EN" "http://www.w3.org/Graphics/SVG/1.1/DTD/svg11.dtd">
<svg version="1.1" id="Capa_1" xmlns="http://www.w3.org/2000/svg" xmlns:xlink="http://www.w3.org/1999/xlink" x="0px" y="0px"
	 viewBox="0 0 548.878 548.878" style="enable-background:new 0 0 548.878 548.878;" xml:space="preserve">
<path d="M476.447,144.291H339.655v-4.728c16.069-3.405,28.325-17.503,28.841-34.453c0.011-0.168,0.017-0.337,0.017-0.508v-0.607
	c0-0.109-0.002-0.219-0.007-0.327c-0.5-33.345-27.891-60.381-61.309-60.381h-10.32C280.129,16.477,250.629,0,218.844,0
	c-38.405,0-72.661,22.435-88.054,57.404c-19.119,10.064-35.283,24.992-46.867,43.312c-12.425,19.651-18.992,42.382-18.992,65.735
	v245.064c0,20.048,16.311,36.358,36.358,36.358s36.358-16.311,36.358-36.358V96.196c0-9.61,1.652-18.979,4.914-27.89
	c14.286-6.65,29.59-10.02,45.534-10.02h99.966c5.072,10.428,7.736,21.979,7.736,33.666v12.042c0,17.477,12.397,32.11,28.858,35.576
	v4.72H187.864c-4.142,0-7.5,3.357-7.5,7.5v389.587c0,4.143,3.358,7.5,7.5,7.5h288.583c4.142,0,7.5-3.357,7.5-7.5V151.791
	C483.947,147.648,480.589,144.291,476.447,144.291z M122.647,96.196v315.319c0,11.777-9.581,21.358-21.358,21.358h0
	c-11.777,0-21.358-9.581-21.358-21.358V166.451c0-35.078,16.568-67.127,44.216-87.291C123.149,84.745,122.647,90.436,122.647,96.196
	z M188.095,43.287c-11.972,0-23.632,1.671-34.854,4.983C168.284,27.604,192.4,15,218.844,15c23.301,0,45.134,10.58,59.615,28.287
	H188.095z M310.797,103.995V91.953c0-11.553-2.181-22.996-6.37-33.666h2.77c25.357,0,46.121,20.61,46.314,45.954
	c-0.102,9.01-5.862,16.693-13.857,19.72v-0.86c0-4.143-3.358-7.5-7.5-7.5s-7.5,3.357-7.5,7.5v0.867
	C316.573,120.922,310.797,113.13,310.797,103.995z M195.364,533.878V306.097H418.73c4.142,0,7.5-3.357,7.5-7.5s-3.358-7.5-7.5-7.5
	H195.364V159.291h129.291v3.758c-10.007,3.186-17.278,12.566-17.278,23.615c0,13.663,11.116,24.778,24.778,24.778
	s24.778-11.115,24.778-24.778c0-11.049-7.271-20.429-17.278-23.615v-3.758h129.292v131.806h-6.929c-4.142,0-7.5,3.357-7.5,7.5
	s3.358,7.5,7.5,7.5h6.929v227.781H195.364z M325.068,179.947c1.013,2.944,3.799,5.063,7.087,5.063s6.075-2.119,7.087-5.063
	c1.663,1.754,2.691,4.116,2.691,6.717c0,5.392-4.387,9.778-9.778,9.778s-9.778-4.387-9.778-9.778
	C322.377,184.063,323.405,181.701,325.068,179.947z M417.18,333.946H285.434c-4.142,0-7.5,3.357-7.5,7.5v94.428
	c-0.569-0.025-1.14-0.038-1.711-0.038c-21.032,0-38.143,17.11-38.143,38.143s17.111,38.144,38.143,38.144
	c21.032,0,38.143-17.111,38.143-38.144v-88.261h73.882v50.156c-0.569-0.025-1.14-0.038-1.711-0.038
	c-21.032,0-38.143,17.11-38.143,38.143s17.111,38.144,38.143,38.144c21.032,0,38.143-17.111,38.143-38.144V341.446
	C424.68,337.304,421.322,333.946,417.18,333.946z M409.68,473.979c0,12.762-10.382,23.144-23.143,23.144
	c-12.761,0-23.143-10.382-23.143-23.144c0-12.761,10.382-23.143,23.143-23.143c2.271,0,4.509,0.326,6.657,0.971
	c1.486,0.539,3.143,0.608,4.733,0.125c3.16-0.96,5.321-3.874,5.321-7.177v-66.537c0-4.143-3.358-7.5-7.5-7.5h-88.882
	c-4.142,0-7.5,3.357-7.5,7.5v95.761c0,12.762-10.382,23.144-23.143,23.144c-12.761,0-23.143-10.382-23.143-23.144
	c0-12.761,10.382-23.143,23.143-23.143c2.306,0,4.578,0.337,6.756,1.001c1.933,0.669,4.085,0.527,5.938-0.439
	c2.584-1.35,4.138-4.068,4.017-6.961v-95.49H409.68V473.979z M310.508,228.499l-23.99,47.979c-1.27,2.54-3.867,4.146-6.708,4.146
	s-5.438-1.605-6.708-4.146l-23.99-47.979c-1.853-3.705-0.351-8.21,3.354-10.063c3.705-1.852,8.21-0.351,10.062,3.354l17.282,34.563
	l17.282-34.563c1.853-3.704,6.359-5.208,10.062-3.354C310.859,220.289,312.36,224.794,310.508,228.499z M309.105,267.826
	c1.39,1.391,2.19,3.32,2.19,5.301c0,1.97-0.8,3.899-2.19,5.3c-1.4,1.399-3.33,2.2-5.31,2.2c-1.97,0-3.9-0.801-5.3-2.2
	c-1.39-1.4-2.19-3.33-2.19-5.3c0-1.98,0.8-3.91,2.19-5.301c1.4-1.399,3.33-2.199,5.3-2.199
	C305.775,265.627,307.706,266.427,309.105,267.826z M353.085,267.826c1.39,1.391,2.19,3.32,2.19,5.301c0,1.97-0.8,3.899-2.19,5.3
	c-1.4,1.399-3.33,2.2-5.31,2.2c-1.97,0-3.9-0.801-5.3-2.2c-1.4-1.4-2.2-3.33-2.2-5.3c0-1.98,0.8-3.91,2.2-5.301
	c1.39-1.399,3.33-2.199,5.3-2.199C349.755,265.627,351.686,266.427,353.085,267.826z M401.795,267.826c1.4,1.391,2.2,3.32,2.2,5.301
	c0,1.97-0.8,3.899-2.2,5.3c-1.39,1.399-3.33,2.2-5.3,2.2c-1.97,0-3.91-0.801-5.3-2.2c-1.4-1.391-2.2-3.33-2.2-5.3
	c0-1.98,0.8-3.91,2.2-5.301c1.39-1.399,3.32-2.199,5.3-2.199S400.406,266.427,401.795,267.826z M339.655,225.145v47.979
	c0,4.143-3.358,7.5-7.5,7.5s-7.5-3.357-7.5-7.5v-47.979c0-4.143,3.358-7.5,7.5-7.5S339.655,221.002,339.655,225.145z
	 M396.496,217.645h-23.99c-4.142,0-7.5,3.357-7.5,7.5v47.979c0,4.143,3.358,7.5,7.5,7.5s7.5-3.357,7.5-7.5v-16.489h16.49
	c10.75,0,19.495-8.745,19.495-19.495S407.245,217.645,396.496,217.645z M396.496,241.635h-16.49v-8.99h16.49
	c2.479,0,4.495,2.017,4.495,4.495S398.974,241.635,396.496,241.635z"/>
<g>
</g>
<g>
</g>
<g>
</g>
<g>
</g>
<g>
</g>
<g>
</g>
<g>
</g>
<g>
</g>
<g>
</g>
<g>
</g>
<g>
</g>
<g>
</g>
<g>
</g>
<g>
</g>
<g>
</g>
</svg>
