<?xml version="1.0" encoding="iso-8859-1"?>
<!-- Generator: Adobe Illustrator 17.1.0, SVG Export Plug-In . SVG Version: 6.00 Build 0)  -->
<!DOCTYPE svg PUBLIC "-//W3C//DTD SVG 1.1//EN" "http://www.w3.org/Graphics/SVG/1.1/DTD/svg11.dtd">
<svg version="1.1" id="Capa_1" xmlns="http://www.w3.org/2000/svg" xmlns:xlink="http://www.w3.org/1999/xlink" x="0px" y="0px"
	 viewBox="0 0 549.27 549.27" style="enable-background:new 0 0 549.27 549.27;" xml:space="preserve">
<path d="M538.144,276.227c-9.997-16.67-26.571-25.122-49.265-25.122c-70.229,0-95.223-11.708-124.164-25.264
	c-3.788-1.775-7.679-3.59-11.724-5.411c-0.003-0.658-0.045-1.32-0.163-1.981c-0.617-3.45-2.738-6.387-5.819-8.055l-36.65-19.853
	c-1.669-0.904-3.555-1.382-5.452-1.382c-2.215,0-4.367,0.662-6.204,1.845c-7.05-5.528-19.566-15.816-27.171-23.422
	c-4.348-4.347-10.095-5.911-16.184-4.396c-8.588,2.132-16.646,10.355-18.514,16.423c-6.282,20.621-25.634,68.585-69.552,68.585
	c-29.828,0-67.785-7.88-79.233-45.459c-0.974-3.138-1.762-6.409-2.344-9.733c-1.079-6.104-4.264-11.672-8.971-15.678
	c-5.181-4.408-11.793-6.603-18.627-6.2c-3.491,0.209-6.791,1.11-9.777,2.567v-11.636c0-13.313-10.832-24.145-24.146-24.145
	c-8.711,0-16.521,4.499-20.889,12.036c-4.369,7.536-4.393,16.549-0.063,24.108l30.098,52.556v143.593v11.878
	c0,16.145,13.135,29.279,29.28,29.279h104.668c1.517,0,2.998-0.46,4.248-1.318c8.264-5.68,19.369-5.68,27.633,0
	c1.25,0.858,2.731,1.318,4.248,1.318H519.99c16.145,0,29.28-13.135,29.28-29.279v-11.878v-42.224
	C549.27,305.64,545.631,288.713,538.144,276.227z M335.954,221.466l-30.615,34.867c-4.25,4.841-10.381,7.616-16.822,7.616
	c-2.001,0-3.997-0.27-5.932-0.802l-24.663-6.782l47.71-51.324L335.954,221.466z M16.271,157.469c0.794-1.37,3.156-4.559,7.913-4.559
	c5.042,0,9.145,4.103,9.145,9.145v34.372l-17.082-29.827C13.884,162.473,15.476,158.84,16.271,157.469z M519.99,396.36H205.597
	c-12.393-7.412-28.12-7.412-40.513,0H62.608c-7.874,0-14.28-6.405-14.28-14.279v-4.378h427.123c4.142,0,7.5-3.357,7.5-7.5
	s-3.358-7.5-7.5-7.5H48.328V224.614v-26.661c0-6.29,4.688-11.498,10.675-11.856c2.946-0.164,5.792,0.766,8.009,2.651
	c2.055,1.749,3.448,4.187,3.918,6.853c0.69,3.94,1.629,7.837,2.781,11.544c5.93,19.466,17.975,34.159,35.8,43.673
	c15.389,8.213,34.826,12.377,57.77,12.377c20.943,0,39.423-8.583,54.928-25.51c15.583-17.013,24.335-38.514,28.934-53.574
	c0.759-1.642,4.783-5.797,8.076-6.423c0.866-0.163,1.186-0.018,1.706,0.502c7.625,7.625,19.565,17.521,27.25,23.6l-49.66,53.422
	c-1.785,1.921-2.438,4.634-1.721,7.155c0.716,2.522,2.698,4.487,5.226,5.183l36.588,10.062c3.23,0.889,6.564,1.339,9.909,1.339
	c0,0,0,0,0,0c10.755,0,20.996-4.636,28.093-12.719l28.777-32.774c4.48,1.997,8.777,4.007,12.965,5.969
	c29.292,13.721,56.959,26.681,130.527,26.681c31.392,0,45.391,19.083,45.391,61.874v34.724h-12.388c-4.142,0-7.5,3.357-7.5,7.5
	s3.358,7.5,7.5,7.5h12.388v4.378C534.27,389.955,527.864,396.36,519.99,396.36z"/>
<g>
</g>
<g>
</g>
<g>
</g>
<g>
</g>
<g>
</g>
<g>
</g>
<g>
</g>
<g>
</g>
<g>
</g>
<g>
</g>
<g>
</g>
<g>
</g>
<g>
</g>
<g>
</g>
<g>
</g>
</svg>
