<?xml version="1.0" encoding="iso-8859-1"?>
<!-- Generator: Adobe Illustrator 17.1.0, SVG Export Plug-In . SVG Version: 6.00 Build 0)  -->
<!DOCTYPE svg PUBLIC "-//W3C//DTD SVG 1.1//EN" "http://www.w3.org/Graphics/SVG/1.1/DTD/svg11.dtd">
<svg version="1.1" id="Capa_1" xmlns="http://www.w3.org/2000/svg" xmlns:xlink="http://www.w3.org/1999/xlink" x="0px" y="0px"
	 viewBox="0 0 546.521 546.521" style="enable-background:new 0 0 546.521 546.521;" xml:space="preserve">
<path d="M546.285,423.307c0.021-0.084,0.047-0.167,0.065-0.252c0.027-0.125,0.045-0.254,0.066-0.381
	c0.021-0.128,0.045-0.256,0.059-0.385c0.009-0.085,0.012-0.171,0.018-0.257c0.013-0.171,0.025-0.342,0.026-0.512
	c0-0.016,0.002-0.032,0.002-0.048V94.383c0-4.142-3.357-7.5-7.5-7.5H7.5c-4.142,0-7.5,3.358-7.5,7.5v327.089
	c0,0.016,0.002,0.032,0.002,0.049c0.001,0.169,0.013,0.338,0.026,0.508c0.006,0.087,0.009,0.175,0.018,0.261
	c0.014,0.128,0.038,0.256,0.059,0.384c0.021,0.127,0.039,0.256,0.065,0.381c0.019,0.085,0.044,0.17,0.066,0.255
	c0.041,0.164,0.083,0.327,0.135,0.487c0.005,0.016,0.008,0.032,0.013,0.048l10.222,30.665c1.021,3.063,3.887,5.128,7.115,5.128
	h511.077c3.229,0,6.095-2.066,7.115-5.128l10.222-30.665c0.005-0.016,0.008-0.031,0.013-0.047
	C546.201,423.637,546.244,423.472,546.285,423.307z M23.127,444.637l-5.222-15.665h439.342c4.143,0,7.5-3.358,7.5-7.5
	s-3.357-7.5-7.5-7.5H15V101.883h516.521v312.089h-21.182c-4.143,0-7.5,3.358-7.5,7.5s3.357,7.5,7.5,7.5h18.276l-5.221,15.665H23.127
	z M96.772,114.826v286.203c0,4.142-3.358,7.5-7.5,7.5s-7.5-3.358-7.5-7.5V114.826c0-4.142,3.358-7.5,7.5-7.5
	S96.772,110.684,96.772,114.826z M58.608,291.314h-2.722v-33.386c0-4.142-3.358-7.5-7.5-7.5s-7.5,3.358-7.5,7.5v33.386h-2.721
	c-4.142,0-7.5,3.358-7.5,7.5V339.7c0,4.142,3.358,7.5,7.5,7.5h2.721v33.386c0,4.142,3.358,7.5,7.5,7.5s7.5-3.358,7.5-7.5V347.2
	h2.722c4.142,0,7.5-3.358,7.5-7.5v-40.886C66.108,294.672,62.75,291.314,58.608,291.314z M45.665,332.2v-25.886h5.443V332.2H45.665z
	 M48.386,178.913c12.793,0,23.201-10.408,23.201-23.201s-10.408-23.201-23.201-23.201s-23.201,10.408-23.201,23.201
	S35.593,178.913,48.386,178.913z M48.386,147.512c4.522,0,8.201,3.679,8.201,8.201s-3.679,8.201-8.201,8.201
	s-8.201-3.679-8.201-8.201S43.864,147.512,48.386,147.512z M32.015,200.65c-9.046,9.046-9.046,23.765,0,32.811
	c4.382,4.382,10.208,6.795,16.406,6.795c6.197,0,12.023-2.413,16.405-6.795l0,0c4.382-4.382,6.795-10.208,6.795-16.405
	c0-6.197-2.413-12.023-6.795-16.405C55.78,191.604,41.061,191.604,32.015,200.65z M54.219,222.854L54.219,222.854
	c-1.549,1.549-3.608,2.402-5.799,2.402s-4.25-0.853-5.799-2.402c-3.197-3.198-3.197-8.4,0-11.598
	c1.599-1.599,3.699-2.398,5.799-2.398s4.2,0.799,5.799,2.398c1.549,1.549,2.402,3.608,2.402,5.798S55.768,221.305,54.219,222.854z
	 M178.545,114.826v286.203c0,4.142-3.358,7.5-7.5,7.5s-7.5-3.358-7.5-7.5V114.826c0-4.142,3.358-7.5,7.5-7.5
	S178.545,110.684,178.545,114.826z M140.38,311.757h-2.722v-53.829c0-4.142-3.358-7.5-7.5-7.5s-7.5,3.358-7.5,7.5v53.829h-2.722
	c-4.142,0-7.5,3.358-7.5,7.5v40.886c0,4.142,3.358,7.5,7.5,7.5h2.722v12.943c0,4.142,3.358,7.5,7.5,7.5s7.5-3.358,7.5-7.5v-12.943
	h2.722c4.142,0,7.5-3.358,7.5-7.5v-40.886C147.88,315.115,144.522,311.757,140.38,311.757z M127.437,352.643v-25.886h5.443v25.886
	H127.437z M130.159,178.913c12.793,0,23.201-10.408,23.201-23.201s-10.408-23.201-23.201-23.201s-23.201,10.408-23.201,23.201
	S117.366,178.913,130.159,178.913z M130.159,147.512c4.522,0,8.201,3.679,8.201,8.201s-3.679,8.201-8.201,8.201
	s-8.201-3.679-8.201-8.201S125.637,147.512,130.159,147.512z M113.788,200.65c-9.046,9.046-9.046,23.765,0,32.811
	c4.382,4.382,10.208,6.795,16.406,6.795s12.023-2.413,16.405-6.795c4.382-4.382,6.795-10.208,6.795-16.406
	s-2.413-12.023-6.795-16.405C137.552,191.604,122.833,191.604,113.788,200.65z M135.991,222.854
	c-1.549,1.549-3.608,2.402-5.798,2.402s-4.25-0.853-5.798-2.402c0,0,0,0,0,0c-3.197-3.198-3.197-8.4,0-11.598
	c1.599-1.599,3.699-2.398,5.799-2.398s4.2,0.799,5.799,2.398c1.549,1.549,2.402,3.608,2.402,5.798S137.541,221.305,135.991,222.854z
	 M260.317,114.826v286.203c0,4.142-3.358,7.5-7.5,7.5s-7.5-3.358-7.5-7.5V114.826c0-4.142,3.358-7.5,7.5-7.5
	S260.317,110.684,260.317,114.826z M222.153,260.649h-2.722v-2.722c0-4.142-3.358-7.5-7.5-7.5s-7.5,3.358-7.5,7.5v2.722h-2.722
	c-4.142,0-7.5,3.358-7.5,7.5v40.886c0,4.142,3.358,7.5,7.5,7.5h2.722v64.051c0,4.142,3.358,7.5,7.5,7.5s7.5-3.358,7.5-7.5v-64.051
	h2.722c4.142,0,7.5-3.358,7.5-7.5v-40.886C229.653,264.007,226.295,260.649,222.153,260.649z M209.209,301.536v-25.886h5.443v25.886
	H209.209z M211.931,178.902c5.941,0,11.882-2.262,16.406-6.785c9.045-9.046,9.045-23.765,0-32.811
	c-4.382-4.382-10.208-6.796-16.406-6.796s-12.023,2.414-16.405,6.795c-4.382,4.382-6.795,10.208-6.795,16.406
	c0,6.197,2.413,12.023,6.795,16.405C200.049,176.641,205.99,178.902,211.931,178.902z M206.133,149.914
	c1.549-1.549,3.608-2.402,5.798-2.402s4.25,0.854,5.798,2.402h0c3.197,3.197,3.197,8.4,0,11.598c-3.197,3.197-8.4,3.197-11.598,0
	c-1.549-1.549-2.402-3.608-2.402-5.799S204.583,151.463,206.133,149.914z M211.965,193.855c-12.793,0-23.201,10.408-23.201,23.201
	s10.408,23.201,23.201,23.201s23.201-10.408,23.201-23.201S224.758,193.855,211.965,193.855z M211.965,225.256
	c-4.522,0-8.201-3.679-8.201-8.201s3.679-8.201,8.201-8.201s8.201,3.679,8.201,8.201S216.487,225.256,211.965,225.256z
	 M342.09,114.826v286.203c0,4.142-3.357,7.5-7.5,7.5s-7.5-3.358-7.5-7.5V114.826c0-4.142,3.357-7.5,7.5-7.5
	S342.09,110.684,342.09,114.826z M303.925,281.092h-2.722v-23.165c0-4.142-3.357-7.5-7.5-7.5s-7.5,3.358-7.5,7.5v23.165h-2.721
	c-4.143,0-7.5,3.358-7.5,7.5v40.886c0,4.142,3.357,7.5,7.5,7.5h2.721v43.608c0,4.142,3.357,7.5,7.5,7.5s7.5-3.358,7.5-7.5v-43.608
	h2.722c4.143,0,7.5-3.358,7.5-7.5v-40.886C311.425,284.45,308.067,281.092,303.925,281.092z M290.982,321.979v-25.886h5.442v25.886
	H290.982z M293.703,178.902c5.941,0,11.883-2.261,16.406-6.784c4.382-4.382,6.795-10.208,6.795-16.405
	c0-6.197-2.413-12.023-6.795-16.405c-9.047-9.045-23.766-9.046-32.811,0c-4.383,4.382-6.796,10.208-6.796,16.406
	c0,6.197,2.413,12.023,6.796,16.406C281.821,176.641,287.763,178.902,293.703,178.902z M287.904,149.914
	C287.904,149.914,287.904,149.914,287.904,149.914c1.6-1.599,3.699-2.398,5.799-2.398c2.101,0,4.2,0.799,5.8,2.398
	c1.549,1.549,2.401,3.608,2.401,5.798s-0.853,4.25-2.401,5.798c-3.198,3.198-8.401,3.197-11.598,0
	c-1.55-1.549-2.402-3.608-2.402-5.799S286.355,151.463,287.904,149.914z M293.737,193.855c-12.793,0-23.2,10.408-23.2,23.201
	s10.407,23.201,23.2,23.201s23.201-10.408,23.201-23.201S306.53,193.855,293.737,193.855z M293.737,225.256
	c-4.521,0-8.2-3.679-8.2-8.201s3.679-8.201,8.2-8.201c4.522,0,8.201,3.679,8.201,8.201S298.26,225.256,293.737,225.256z
	 M423.862,114.826v286.203c0,4.142-3.357,7.5-7.5,7.5s-7.5-3.358-7.5-7.5V114.826c0-4.142,3.357-7.5,7.5-7.5
	S423.862,110.684,423.862,114.826z M385.697,321.979h-2.722v-64.051c0-4.142-3.357-7.5-7.5-7.5s-7.5,3.358-7.5,7.5v64.051h-2.722
	c-4.143,0-7.5,3.358-7.5,7.5v40.886c0,4.142,3.357,7.5,7.5,7.5h2.722v2.722c0,4.142,3.357,7.5,7.5,7.5s7.5-3.358,7.5-7.5v-2.722
	h2.722c4.143,0,7.5-3.358,7.5-7.5v-40.886C393.197,325.336,389.84,321.979,385.697,321.979z M372.754,362.865v-25.886h5.443v25.886
	H372.754z M375.476,178.913c12.793,0,23.201-10.408,23.201-23.201s-10.408-23.201-23.201-23.201s-23.2,10.408-23.2,23.201
	S362.683,178.913,375.476,178.913z M375.476,147.512c4.522,0,8.201,3.679,8.201,8.201s-3.679,8.201-8.201,8.201
	c-4.521,0-8.2-3.679-8.2-8.201S370.954,147.512,375.476,147.512z M375.51,193.855c-6.197,0-12.023,2.414-16.404,6.795
	c0,0,0,0-0.001,0c-4.382,4.382-6.795,10.208-6.795,16.405c0,6.197,2.413,12.023,6.795,16.405c4.382,4.383,10.208,6.796,16.405,6.796
	s12.023-2.413,16.405-6.795c4.383-4.382,6.796-10.208,6.796-16.406s-2.413-12.023-6.796-16.406
	C387.533,196.268,381.707,193.855,375.51,193.855z M381.309,222.854c-1.549,1.549-3.608,2.402-5.799,2.402s-4.249-0.853-5.799-2.402
	c-1.549-1.549-2.401-3.608-2.401-5.798s0.853-4.25,2.401-5.798l0.001,0c1.549-1.549,3.607-2.402,5.798-2.402s4.25,0.853,5.8,2.402
	c1.549,1.549,2.401,3.608,2.401,5.798S382.858,221.305,381.309,222.854z M447.026,255.206h61.329c4.143,0,7.5-3.358,7.5-7.5V125.048
	c0-4.142-3.357-7.5-7.5-7.5h-61.329c-4.143,0-7.5,3.358-7.5,7.5v122.658C439.526,251.848,442.884,255.206,447.026,255.206z
	 M463.24,152.991c4.143,0,7.5-3.358,7.5-7.5s-3.357-7.5-7.5-7.5h-8.714v-5.443h46.329v5.443h-8.713c-4.143,0-7.5,3.358-7.5,7.5
	s3.357,7.5,7.5,7.5h8.713v5.347h-2.721c-4.143,0-7.5,3.358-7.5,7.5s3.357,7.5,7.5,7.5h2.721v5.346h-8.713
	c-4.143,0-7.5,3.358-7.5,7.5s3.357,7.5,7.5,7.5h8.713v5.347h-2.721c-4.143,0-7.5,3.358-7.5,7.5s3.357,7.5,7.5,7.5h2.721v5.733
	h-8.713c-4.143,0-7.5,3.358-7.5,7.5s3.357,7.5,7.5,7.5h8.713v5.443h-46.329v-5.443h8.714c4.143,0,7.5-3.358,7.5-7.5
	s-3.357-7.5-7.5-7.5h-8.714v-5.733h2.722c4.143,0,7.5-3.358,7.5-7.5s-3.357-7.5-7.5-7.5h-2.722v-5.347h8.714
	c4.143,0,7.5-3.358,7.5-7.5s-3.357-7.5-7.5-7.5h-8.714v-5.346h2.722c4.143,0,7.5-3.358,7.5-7.5s-3.357-7.5-7.5-7.5h-2.722v-5.347
	H463.24z M501.916,364.31l1.365,1.365c1.465,1.464,3.385,2.197,5.304,2.197s3.839-0.732,5.304-2.197
	c2.929-2.929,2.929-7.678,0-10.606l-1.365-1.365c3.432-4.92,5.845-10.595,6.943-16.725h1.915c4.143,0,7.5-3.358,7.5-7.5
	s-3.357-7.5-7.5-7.5h-1.915c-1.098-6.129-3.511-11.805-6.943-16.725l1.365-1.365c2.929-2.929,2.929-7.678,0-10.606
	c-2.93-2.929-7.678-2.929-10.607,0l-1.365,1.365c-4.92-3.432-10.595-5.845-16.724-6.943v-1.915c0-4.142-3.357-7.5-7.5-7.5
	s-7.5,3.358-7.5,7.5v1.915c-6.129,1.098-11.805,3.511-16.725,6.943l-1.365-1.365c-2.93-2.929-7.678-2.929-10.607,0
	c-2.929,2.929-2.929,7.678,0,10.606l1.365,1.365c-3.432,4.92-5.845,10.595-6.943,16.725h-1.914c-4.143,0-7.5,3.358-7.5,7.5
	s3.357,7.5,7.5,7.5h1.914c1.098,6.129,3.511,11.805,6.943,16.725l-1.365,1.365c-2.929,2.929-2.929,7.678,0,10.606
	c1.465,1.464,3.385,2.197,5.304,2.197s3.839-0.732,5.304-2.197l1.365-1.365c4.92,3.432,10.596,5.845,16.725,6.943v1.915
	c0,4.142,3.357,7.5,7.5,7.5s7.5-3.358,7.5-7.5v-1.915C491.32,370.155,496.996,367.742,501.916,364.31z M450.239,329.479
	c0-12.536,8.451-23.129,19.952-26.402v13.656c0,4.142,3.357,7.5,7.5,7.5s7.5-3.358,7.5-7.5v-13.656
	c11.501,3.272,19.951,13.865,19.951,26.402c0,15.137-12.314,27.452-27.451,27.452S450.239,344.615,450.239,329.479z"/>
<g>
</g>
<g>
</g>
<g>
</g>
<g>
</g>
<g>
</g>
<g>
</g>
<g>
</g>
<g>
</g>
<g>
</g>
<g>
</g>
<g>
</g>
<g>
</g>
<g>
</g>
<g>
</g>
<g>
</g>
</svg>
