<?xml version="1.0" encoding="iso-8859-1"?>
<!-- Generator: Adobe Illustrator 17.1.0, SVG Export Plug-In . SVG Version: 6.00 Build 0)  -->
<!DOCTYPE svg PUBLIC "-//W3C//DTD SVG 1.1//EN" "http://www.w3.org/Graphics/SVG/1.1/DTD/svg11.dtd">
<svg version="1.1" id="Capa_1" xmlns="http://www.w3.org/2000/svg" xmlns:xlink="http://www.w3.org/1999/xlink" x="0px" y="0px"
	 viewBox="0 0 383.441 383.441" style="enable-background:new 0 0 383.441 383.441;" xml:space="preserve">
<g>
	<path style="fill:#000002;" d="M269.321,89.709H117.343c-12.407,0-22.5,10.094-22.5,22.5V241.66c0,12.406,10.093,22.5,22.5,22.5
		h52.826v14.573h-12.834c-4.142,0-7.5,3.357-7.5,7.5s3.358,7.5,7.5,7.5h12.834h46.326h12.834c4.142,0,7.5-3.357,7.5-7.5
		s-3.358-7.5-7.5-7.5h-12.834V264.16h52.826c12.407,0,22.5-10.094,22.5-22.5V112.209C291.821,99.802,281.728,89.709,269.321,89.709z
		 M201.495,278.733h-16.326V264.16h16.326V278.733z M276.821,241.66c0,4.136-3.365,7.5-7.5,7.5h-52.826h-46.326h-52.826
		c-4.135,0-7.5-3.364-7.5-7.5V112.209c0-4.136,3.365-7.5,7.5-7.5h151.979c4.135,0,7.5,3.364,7.5,7.5V241.66z"/>
	<path style="fill:#000002;" d="M367.941,92.363h-44.553c-8.547,0-15.5,6.953-15.5,15.5v121.42c0,8.547,6.953,15.5,15.5,15.5h16.776
		v35.95h-18.951c-3.038,0-5.5,2.463-5.5,5.5s2.462,5.5,5.5,5.5h48.902c3.038,0,5.5-2.463,5.5-5.5s-2.462-5.5-5.5-5.5h-18.951v-35.95
		h16.776c8.547,0,15.5-6.953,15.5-15.5v-121.42C383.441,99.316,376.488,92.363,367.941,92.363z M372.441,229.283
		c0,2.481-2.018,4.5-4.5,4.5h-44.553c-2.481,0-4.5-2.019-4.5-4.5v-121.42c0-2.481,2.019-4.5,4.5-4.5h44.553
		c2.482,0,4.5,2.019,4.5,4.5V229.283z"/>
	<path style="fill:#000002;" d="M345.665,158.526c9.508,0,17.244-7.735,17.244-17.244c0-9.508-7.736-17.243-17.244-17.243
		c-9.508,0-17.243,7.735-17.243,17.243C328.422,150.791,336.157,158.526,345.665,158.526z M345.665,135.039
		c3.443,0,6.244,2.801,6.244,6.243c0,3.443-2.801,6.244-6.244,6.244c-3.442,0-6.243-2.801-6.243-6.244
		C339.422,137.839,342.223,135.039,345.665,135.039z"/>
	<path style="fill:#000002;" d="M345.665,170.345c-12.582,0-22.817,10.236-22.817,22.818s10.236,22.817,22.817,22.817
		c12.581,0,22.817-10.235,22.817-22.817S358.247,170.345,345.665,170.345z M345.665,204.981c-6.516,0-11.817-5.301-11.817-11.817
		s5.301-11.818,11.817-11.818c6.516,0,11.817,5.302,11.817,11.818S352.181,204.981,345.665,204.981z"/>
	<path style="fill:#000002;" d="M60.053,92.363H15.5c-8.547,0-15.5,6.953-15.5,15.5v121.42c0,8.547,6.953,15.5,15.5,15.5h16.776
		v35.95H13.325c-3.038,0-5.5,2.463-5.5,5.5s2.462,5.5,5.5,5.5h48.902c3.038,0,5.5-2.463,5.5-5.5s-2.462-5.5-5.5-5.5H43.276v-35.95
		h16.776c8.547,0,15.5-6.953,15.5-15.5v-121.42C75.553,99.316,68.6,92.363,60.053,92.363z M64.553,229.283
		c0,2.481-2.019,4.5-4.5,4.5H15.5c-2.481,0-4.5-2.019-4.5-4.5v-121.42c0-2.481,2.019-4.5,4.5-4.5h44.553c2.481,0,4.5,2.019,4.5,4.5
		V229.283z"/>
	<path style="fill:#000002;" d="M37.776,158.526c9.508,0,17.244-7.735,17.244-17.244c0-9.508-7.736-17.243-17.244-17.243
		c-9.508,0-17.243,7.735-17.243,17.243C20.533,150.791,28.269,158.526,37.776,158.526z M37.776,135.039
		c3.443,0,6.244,2.801,6.244,6.243c0,3.443-2.801,6.244-6.244,6.244c-3.442,0-6.243-2.801-6.243-6.244
		C31.533,137.839,34.334,135.039,37.776,135.039z"/>
	<path style="fill:#000002;" d="M37.776,170.345c-12.581,0-22.817,10.236-22.817,22.818s10.236,22.817,22.817,22.817
		c12.582,0,22.817-10.235,22.817-22.817S50.358,170.345,37.776,170.345z M37.776,204.981c-6.516,0-11.817-5.301-11.817-11.817
		s5.301-11.818,11.817-11.818c6.516,0,11.817,5.302,11.817,11.818S44.292,204.981,37.776,204.981z"/>
</g>
<g>
</g>
<g>
</g>
<g>
</g>
<g>
</g>
<g>
</g>
<g>
</g>
<g>
</g>
<g>
</g>
<g>
</g>
<g>
</g>
<g>
</g>
<g>
</g>
<g>
</g>
<g>
</g>
<g>
</g>
</svg>
