<?xml version="1.0" encoding="iso-8859-1"?>
<!-- Generator: Adobe Illustrator 19.0.0, SVG Export Plug-In . SVG Version: 6.00 Build 0)  -->
<svg version="1.1" id="Layer_1" xmlns="http://www.w3.org/2000/svg" xmlns:xlink="http://www.w3.org/1999/xlink" x="0px" y="0px"
	 viewBox="0 0 512.002 512.002" style="enable-background:new 0 0 512.002 512.002;" xml:space="preserve">
<g>
	<g>
		<g>
			<path d="M509.502,473.581l-33.241-33.241l11.857-11.857c3.332-3.332,3.332-8.736,0-12.068l-26.25-26.25l23.78-23.782
				c2.769-2.769,3.298-7.066,1.283-10.424l-35.772-59.622c-0.359-0.598-0.79-1.15-1.283-1.644L336.571,181.387
				c-6.617-6.617-17.355-6.617-23.981-0.008l-5.902,5.902l-47.563-47.556c-6.654-6.671-17.479-6.671-24.141,0.008l-95.258,95.258
				c-6.672,6.637-6.672,17.463,0,24.134l47.555,47.555l-5.889,5.889c-6.613,6.647-6.613,17.359-0.016,23.991l113.313,113.304
				c0.493,0.493,1.045,0.924,1.642,1.282l59.631,35.789c3.358,2.015,7.656,1.486,10.425-1.283l23.786-23.787l26.248,26.248
				c3.332,3.332,8.735,3.332,12.068,0l11.858-11.858l33.237,33.244c3.332,3.333,8.736,3.333,12.069,0.001l23.851-23.851
				C512.835,482.317,512.835,476.914,509.502,473.581z M151.794,247.059l95.264-95.264l47.562,47.554l-95.271,95.265
				L151.794,247.059z M359.03,468.874l-53.017-31.819l-112.49-112.481l11.858-11.857c0,0,0,0,0,0l107.341-107.332
				c0.006-0.006,0.01-0.012,0.016-0.018l11.838-11.837l112.489,112.489l31.804,53.009L359.03,468.874z M422.454,470.012
				l-20.214-20.214l47.563-47.563l20.214,20.214l-11.782,11.782c-0.026,0.025-0.055,0.047-0.08,0.073l-21.458,21.466
				L422.454,470.012z M479.618,491.397l-27.204-27.21l11.779-11.779l27.207,27.207L479.618,491.397z"/>
			<path d="M336.576,229.095c-3.332-3.332-8.735-3.332-12.068,0l-95.411,95.411c-3.332,3.332-3.332,8.736,0,12.068
				c3.332,3.333,8.735,3.333,12.068,0l95.411-95.411C339.909,237.831,339.909,232.428,336.576,229.095z"/>
			<path d="M360.43,252.945c-3.332-3.332-8.736-3.332-12.068,0l-95.411,95.411c-3.332,3.332-3.332,8.735,0,12.068
				s8.735,3.332,12.068,0l95.411-95.411C363.763,261.681,363.763,256.277,360.43,252.945z"/>
			<path d="M384.28,276.796c-3.332-3.332-8.735-3.332-12.068,0l-95.411,95.411c-3.333,3.332-3.333,8.735,0,12.068
				c3.332,3.333,8.735,3.333,12.068,0l95.411-95.411C387.612,285.531,387.612,280.128,384.28,276.796z"/>
			<path d="M408.134,300.645c-3.332-3.332-8.735-3.332-12.068,0l-95.411,95.411c-3.332,3.332-3.332,8.736,0,12.068
				s8.735,3.332,12.068,0l95.411-95.411C411.467,309.381,411.467,303.978,408.134,300.645z"/>
			<path d="M419.917,324.504l-95.411,95.411c-3.332,3.333-3.332,8.736,0,12.068s8.735,3.332,12.068,0l95.411-95.411
				c3.333-3.333,3.333-8.735,0-12.068C428.652,321.171,423.249,321.171,419.917,324.504z"/>
			<path d="M241.094,85.907l-71.416-71.407c-6.654-6.671-17.479-6.671-24.141,0.008L115.87,44.173L91.371,19.667
				c-3.332-3.333-8.736-3.334-12.069-0.001L67.446,31.522l-29.02-29.02C35.094-0.83,29.692-0.831,26.36,2.501L2.5,26.351
				c-3.334,3.333-3.334,8.737,0,12.07l29.027,29.02L19.671,79.297c-3.332,3.332-3.332,8.735,0,12.068l24.501,24.501l-29.674,29.672
				c-6.671,6.67-6.671,17.481,0.008,24.142l71.408,71.408c6.669,6.669,17.465,6.669,24.134,0L241.094,110.05
				C247.763,103.38,247.763,92.576,241.094,85.907z M20.603,32.387l11.788-11.784L55.378,43.59L43.595,55.373L20.603,32.387z
				 M49.604,73.499c0.009-0.008,0.018-0.015,0.027-0.024l23.851-23.851c0.008-0.008,0.015-0.018,0.024-0.026l11.83-11.83
				l18.466,18.471l-47.563,47.556L37.773,85.331L49.604,73.499z M97.981,229.018l-71.414-71.414L157.612,26.569l71.415,71.406
				C229.03,97.979,97.981,229.018,97.981,229.018z"/>
			<path d="M133.69,74.059l-59.631,59.622c-3.333,3.332-3.333,8.735-0.001,12.068c3.332,3.333,8.735,3.333,12.068,0.001
				l59.631-59.622c3.333-3.332,3.333-8.735,0.001-12.068C142.426,70.727,137.023,70.726,133.69,74.059z"/>
		</g>
	</g>
</g>
<g>
</g>
<g>
</g>
<g>
</g>
<g>
</g>
<g>
</g>
<g>
</g>
<g>
</g>
<g>
</g>
<g>
</g>
<g>
</g>
<g>
</g>
<g>
</g>
<g>
</g>
<g>
</g>
<g>
</g>
</svg>
