<?xml version="1.0" encoding="iso-8859-1"?>
<!-- Generator: Adobe Illustrator 19.0.0, SVG Export Plug-In . SVG Version: 6.00 Build 0)  -->
<svg version="1.1" id="Layer_1" xmlns="http://www.w3.org/2000/svg" xmlns:xlink="http://www.w3.org/1999/xlink" x="0px" y="0px"
	 viewBox="0 0 503.607 503.607" style="enable-background:new 0 0 503.607 503.607;" xml:space="preserve">
<g>
	<g>
		<g>
			<path d="M41.967,268.589h83.934c4.636,0,8.393-3.758,8.393-8.393c0-4.636-3.758-8.393-8.393-8.393H41.967
				c-4.636,0-8.393,3.758-8.393,8.393C33.574,264.831,37.332,268.589,41.967,268.589z"/>
			<path d="M41.967,235.016h83.934c4.636,0,8.393-3.758,8.393-8.393s-3.758-8.393-8.393-8.393H41.967
				c-4.636,0-8.393,3.758-8.393,8.393S37.332,235.016,41.967,235.016z"/>
			<path d="M125.902,302.163c4.636,0,8.393-3.758,8.393-8.393s-3.758-8.393-8.393-8.393H41.967c-4.636,0-8.393,3.758-8.393,8.393
				s3.758,8.393,8.393,8.393H125.902z"/>
			<path d="M486.82,134.294V8.394c0-4.636-3.758-8.393-8.393-8.393H310.557c-4.636,0-8.393,3.758-8.393,8.393v125.9
				c-9.277,0-16.787,7.51-16.787,16.787V318.95c0,9.277,7.51,16.787,16.787,16.787h50.361v16.787c-4.636,0-8.393,3.758-8.393,8.393
				c0,4.636,3.758,8.393,8.393,8.393v16.787c0,9.277,7.51,16.787,16.787,16.787c0,27.755-22.606,50.361-50.361,50.361H159.475
				c-27.755,0-50.361-22.606-50.361-50.361c9.277,0,16.787-7.51,16.787-16.787v-16.787c4.636,0,8.393-3.758,8.393-8.393
				c0-4.636-3.758-8.393-8.393-8.393v-16.785h33.574c4.636,0,8.393-3.758,8.393-8.393V125.902c0-4.636-3.758-8.393-8.393-8.393
				h-8.393V58.755c0-4.636-3.758-8.393-8.393-8.393V8.394c0-4.636-3.758-8.393-8.393-8.393H33.574c-4.636,0-8.393,3.758-8.393,8.393
				v41.967c-4.636,0-8.393,3.758-8.393,8.393v58.754H8.393c-4.636,0-8.393,3.758-8.393,8.393v201.443
				c0,4.636,3.758,8.393,8.393,8.393h33.574v16.785c-4.636,0-8.393,3.758-8.393,8.393c0,4.636,3.758,8.393,8.393,8.393v16.787
				c0,9.277,7.51,16.787,16.787,16.787c0,55.542,45.18,100.721,100.721,100.721h159.475c55.542,0,100.721-45.18,100.721-100.721
				c9.277,0,16.787-7.51,16.787-16.787v-16.787c4.636,0,8.393-3.758,8.393-8.393c0-4.636-3.758-8.393-8.393-8.393v-16.787h50.361
				c9.277,0,16.787-7.51,16.787-16.787V151.081C503.607,141.804,496.097,134.294,486.82,134.294z M318.951,16.788h151.082v117.506
				H318.951V16.788z M41.967,16.788h83.934v33.574H41.967V16.788z M33.574,67.148h100.721v50.361H33.574V67.148z M16.787,134.296
				h8.393h117.508h8.393v184.656h-33.541c-0.011,0-0.022-0.002-0.033-0.002H50.361c-0.011,0-0.022,0.002-0.033,0.002H16.787V134.296
				z M58.754,335.739h50.361v16.785H58.754V335.739z M109.115,369.311v16.787h-8.393H67.148h-8.393v-16.787H109.115z
				 M318.951,486.819H159.475c-46.271,0-83.934-37.664-83.934-83.934h16.787c0,37.026,30.122,67.148,67.148,67.148h159.475
				c37.026,0,67.148-30.122,67.148-67.148h16.787C402.885,449.155,365.221,486.819,318.951,486.819z M419.672,386.098h-8.393
				h-33.574h-8.393v-16.787h50.361V386.098z M419.672,352.524h-50.361v-16.787h50.361V352.524z M486.82,318.95h-58.754h-67.148
				h-58.754V151.081h8.361c0.011,0,0.022,0.002,0.033,0.002h167.869c0.011,0,0.022-0.002,0.033-0.002h8.361V318.95z"/>
			<path d="M377.705,50.361h-33.574c-4.636,0-8.393,3.758-8.393,8.393v33.574c0,4.636,3.758,8.393,8.393,8.393h33.574
				c4.636,0,8.393-3.758,8.393-8.393V58.755C386.098,54.119,382.34,50.361,377.705,50.361z M369.311,83.935h-16.787V67.148h16.787
				V83.935z"/>
			<path d="M444.852,50.361h-33.574c-4.636,0-8.393,3.758-8.393,8.393v33.574c0,4.636,3.758,8.393,8.393,8.393h33.574
				c4.636,0,8.393-3.758,8.393-8.393V58.755C453.246,54.119,449.488,50.361,444.852,50.361z M436.459,83.935h-16.787V67.148h16.787
				V83.935z"/>
		</g>
	</g>
</g>
<g>
</g>
<g>
</g>
<g>
</g>
<g>
</g>
<g>
</g>
<g>
</g>
<g>
</g>
<g>
</g>
<g>
</g>
<g>
</g>
<g>
</g>
<g>
</g>
<g>
</g>
<g>
</g>
<g>
</g>
</svg>
