<?xml version="1.0" encoding="iso-8859-1"?>
<!-- Generator: Adobe Illustrator 19.0.0, SVG Export Plug-In . SVG Version: 6.00 Build 0)  -->
<svg version="1.1" id="Capa_1" xmlns="http://www.w3.org/2000/svg" xmlns:xlink="http://www.w3.org/1999/xlink" x="0px" y="0px"
	 viewBox="0 0 512.017 512.017" style="enable-background:new 0 0 512.017 512.017;" xml:space="preserve">
<g>
	<g>
		<path d="M511.668,384.23c-1.415-17.216-7.168-33.793-16.723-48.183v-88.583c-0.019-10.822-6.857-20.457-17.067-24.047v-53.429
			c8.915-7.629,11.397-20.394,5.992-30.808C419.218,13.338,264.792-36.267,138.949,28.384
			C91.351,52.838,52.606,91.583,28.153,139.181c-5.408,10.411-2.924,23.176,5.992,30.802v53.454
			c-10.199,3.592-17.033,13.215-17.067,24.028v88.583c-31.235,47.039-18.422,110.493,28.617,141.728
			c14.39,9.555,30.967,15.309,48.183,16.723v0.432c0.012,9.421,7.646,17.054,17.067,17.067h17.067
			c18.844-0.019,34.115-15.29,34.133-34.133V307.198c-0.019-18.844-15.29-34.115-34.133-34.133h-17.067
			c-9.421,0.012-17.054,7.646-17.067,17.067v0.432c-8.737,0.733-17.342,2.596-25.6,5.541v-48.64
			c-0.019-10.822-6.857-20.457-17.067-24.047v-46.96c9.509-0.09,18.191-5.425,22.567-13.868
			c4.861-9.441,10.447-18.491,16.707-27.068c42.162-31.889,102.388-50.19,165.526-50.19c63.138,0,123.364,18.301,165.525,50.19
			c6.258,8.575,11.841,17.622,16.7,27.06c4.384,8.438,13.067,13.768,22.575,13.858v46.997
			c-10.199,3.593-17.033,13.215-17.067,24.028v48.64c-8.258-2.945-16.863-4.808-25.6-5.541v-0.432
			c-0.012-9.421-7.646-17.054-17.067-17.067h-17.067c-18.844,0.019-34.115,15.29-34.133,34.133v170.667
			c0.019,18.844,15.29,34.115,34.133,34.133h17.067c9.421-0.012,17.054-7.646,17.067-17.067v-0.432
			C474.42,489.875,516.292,440.506,511.668,384.23z M110.944,290.131h17.067c9.421,0.012,17.054,7.646,17.067,17.067v170.667
			c-0.012,9.421-7.646,17.054-17.067,17.067h-17.067V290.131z M401.078,494.931h-17.067c-9.421-0.012-17.054-7.646-17.067-17.067
			V307.198c0.012-9.421,7.646-17.054,17.067-17.067h17.067V494.931z M93.878,307.623v169.817
			c-46.831-4.645-81.029-46.374-76.384-93.205c1.352-13.626,5.967-26.726,13.456-38.19c1.237-1.003,2.16-2.34,2.66-3.852
			C47.883,322.639,69.793,310.071,93.878,307.623z M51.371,303.888c-6.161,3.57-11.934,7.77-17.226,12.534v-68.957
			c0.003-4.711,3.822-8.53,8.533-8.533c2.302-0.005,4.504,0.942,6.083,2.617c1.586,1.558,2.471,3.694,2.45,5.917v55.633
			C51.251,303.363,51.304,303.627,51.371,303.888z M256.011,68.264c-41.559-0.174-82.761,7.676-121.344,23.121
			c71.935-53.85,170.754-53.85,242.689,0.001C338.773,75.94,297.571,68.09,256.011,68.264z M453.411,154.773
			c-23.858-46.306-63.165-82.807-111.108-103.175C259.143,16.418,162.954,35.245,99.194,99.18
			c-16.328,16.319-30.022,35.076-40.592,55.6c-2.166,4.204-7.33,5.855-11.533,3.689c-1.93-0.995-3.411-2.686-4.141-4.731
			c-0.821-2.21-0.673-4.663,0.408-6.758C103.669,29.524,247.797-16.785,365.254,43.548c44.436,22.825,80.607,58.996,103.432,103.432
			c1.081,2.095,1.229,4.548,0.408,6.758c-0.839,2.269-2.575,4.092-4.8,5.042C460.178,160.546,455.399,158.786,453.411,154.773z
			 M460.811,247.464c0.003-4.711,3.822-8.53,8.533-8.533c2.302-0.005,4.504,0.942,6.083,2.617c1.586,1.558,2.471,3.694,2.45,5.917
			v68.957c-5.247-4.721-10.966-8.888-17.067-12.437V247.464z M494.517,401.067c-4.059,40.379-35.994,72.314-76.373,76.373V307.623
			C465.038,312.337,499.231,354.173,494.517,401.067z"/>
	</g>
</g>
<g>
</g>
<g>
</g>
<g>
</g>
<g>
</g>
<g>
</g>
<g>
</g>
<g>
</g>
<g>
</g>
<g>
</g>
<g>
</g>
<g>
</g>
<g>
</g>
<g>
</g>
<g>
</g>
<g>
</g>
</svg>
