<?xml version="1.0" encoding="iso-8859-1"?>
<!-- Generator: Adobe Illustrator 19.0.0, SVG Export Plug-In . SVG Version: 6.00 Build 0)  -->
<svg version="1.1" id="Layer_1" xmlns="http://www.w3.org/2000/svg" xmlns:xlink="http://www.w3.org/1999/xlink" x="0px" y="0px"
	 viewBox="0 0 503.61 503.61" style="enable-background:new 0 0 503.61 503.61;" xml:space="preserve">
<g>
	<g>
		<g>
			<path d="M478.428,0H25.182C11.28,0,0.002,11.278,0.002,25.18v167.869c0,13.902,11.278,25.18,25.18,25.18h453.246
				c13.902,0,25.18-11.278,25.18-25.18V25.18C503.608,11.278,492.33,0,478.428,0z M486.821,193.049c0,4.631-3.763,8.393-8.393,8.393
				H25.182c-4.631,0-8.393-3.763-8.393-8.393V25.18c0-4.631,3.763-8.393,8.393-8.393h453.246c4.631,0,8.393,3.763,8.393,8.393
				V193.049z"/>
			<path d="M251.805,50.361c-32.443,0-58.754,26.311-58.754,58.754c0,32.443,26.311,58.754,58.754,58.754
				s58.754-26.311,58.754-58.754C310.559,76.672,284.248,50.361,251.805,50.361z M251.805,151.082
				c-23.172,0-41.967-18.795-41.967-41.967c0-23.172,18.795-41.967,41.967-41.967c23.172,0,41.967,18.795,41.967,41.967
				C293.772,132.287,274.977,151.082,251.805,151.082z"/>
			<path d="M251.805,92.328c-9.266,0-16.787,7.521-16.787,16.787s7.521,16.787,16.787,16.787c9.266,0,16.787-7.521,16.787-16.787
				S261.071,92.328,251.805,92.328z"/>
			<path d="M100.723,50.361c-32.443,0-58.754,26.311-58.754,58.754c0,32.443,26.311,58.754,58.754,58.754
				s58.754-26.311,58.754-58.754C159.477,76.672,133.166,50.361,100.723,50.361z M100.723,151.082
				c-23.172,0-41.967-18.795-41.967-41.967c0-23.172,18.795-41.967,41.967-41.967c23.172,0,41.967,18.795,41.967,41.967
				C142.69,132.287,123.895,151.082,100.723,151.082z"/>
			<path d="M100.723,92.328c-9.266,0-16.787,7.521-16.787,16.787s7.521,16.787,16.787,16.787s16.787-7.521,16.787-16.787
				S109.989,92.328,100.723,92.328z"/>
			<path d="M402.887,50.361c-32.443,0-58.754,26.311-58.754,58.754c0,32.443,26.311,58.754,58.754,58.754
				c32.443,0,58.754-26.311,58.754-58.754C461.641,76.672,435.33,50.361,402.887,50.361z M402.887,151.082
				c-23.172,0-41.967-18.795-41.967-41.967c0-23.172,18.795-41.967,41.967-41.967c23.172,0,41.967,18.795,41.967,41.967
				C444.854,132.287,426.059,151.082,402.887,151.082z"/>
			<path d="M402.887,92.328c-9.266,0-16.787,7.521-16.787,16.787s7.521,16.787,16.787,16.787s16.787-7.521,16.787-16.787
				S412.153,92.328,402.887,92.328z"/>
			<path d="M33.575,41.967c4.642,0,8.393-3.76,8.393-8.393s-3.752-8.393-8.393-8.393c-4.642,0-8.393,3.76-8.393,8.393
				S28.934,41.967,33.575,41.967z"/>
			<path d="M33.575,176.262c-4.642,0-8.393,3.76-8.393,8.393s3.752,8.393,8.393,8.393c4.642,0,8.393-3.76,8.393-8.393
				S38.217,176.262,33.575,176.262z"/>
			<path d="M470.034,25.18c-4.642,0-8.393,3.76-8.393,8.393s3.752,8.393,8.393,8.393s8.393-3.76,8.393-8.393
				S474.676,25.18,470.034,25.18z"/>
			<path d="M470.034,176.262c-4.642,0-8.393,3.76-8.393,8.393s3.752,8.393,8.393,8.393s8.393-3.76,8.393-8.393
				S474.676,176.262,470.034,176.262z"/>
			<path d="M142.69,394.495v-16.787c0-4.636-3.758-8.393-8.393-8.393v-41.835c0.001-0.261-0.015-0.522-0.039-0.784
				c-0.005-0.055-0.01-0.11-0.016-0.165c-0.027-0.241-0.061-0.482-0.11-0.723c-0.015-0.074-0.036-0.146-0.053-0.219
				c-0.074-0.317-0.165-0.632-0.279-0.946c-0.073-0.204-0.15-0.406-0.238-0.602c-0.05-0.11-0.103-0.219-0.158-0.328
				c-0.145-0.29-0.303-0.572-0.48-0.842c-0.013-0.021-0.022-0.042-0.036-0.063c-8.285-12.432-8.285-28.626-0.001-41.049
				c0.026-0.039,0.043-0.081,0.069-0.12c0.13-0.202,0.243-0.412,0.356-0.623c0.07-0.132,0.15-0.262,0.213-0.395
				c0.037-0.08,0.063-0.166,0.098-0.247c0.222-0.516,0.388-1.039,0.498-1.567c0.013-0.061,0.032-0.12,0.044-0.182
				c0.045-0.243,0.069-0.486,0.092-0.729c0.012-0.123,0.03-0.244,0.036-0.367c0.01-0.207,0.004-0.412-0.001-0.617
				c-0.004-0.166-0.005-0.331-0.019-0.497c-0.015-0.178-0.044-0.353-0.07-0.53c-0.028-0.188-0.055-0.375-0.097-0.563
				c-0.038-0.171-0.088-0.338-0.137-0.506c-0.052-0.182-0.103-0.363-0.168-0.544c-0.067-0.184-0.147-0.361-0.226-0.539
				c-0.055-0.124-0.095-0.25-0.157-0.374l-16.787-33.691c-1.42-2.849-4.329-4.65-7.513-4.65H92.33c-3.183,0-6.093,1.801-7.513,4.65
				L68.03,273.358c-0.062,0.124-0.102,0.251-0.157,0.376c-0.078,0.178-0.159,0.354-0.225,0.537
				c-0.066,0.182-0.117,0.364-0.169,0.547c-0.048,0.168-0.099,0.334-0.136,0.504c-0.042,0.188-0.069,0.376-0.097,0.564
				c-0.027,0.176-0.055,0.351-0.07,0.529c-0.014,0.167-0.015,0.332-0.019,0.498c-0.005,0.205-0.012,0.409-0.001,0.616
				c0.007,0.124,0.024,0.246,0.036,0.369c0.023,0.243,0.046,0.485,0.092,0.728c0.012,0.061,0.031,0.121,0.044,0.182
				c0.111,0.527,0.276,1.051,0.498,1.567c0.035,0.081,0.061,0.167,0.098,0.247c0.063,0.133,0.142,0.263,0.213,0.395
				c0.112,0.212,0.226,0.422,0.356,0.623c0.026,0.04,0.042,0.081,0.069,0.121c8.284,12.423,8.284,28.617-0.001,41.049
				c-0.014,0.021-0.023,0.043-0.037,0.064c-0.176,0.269-0.334,0.551-0.479,0.84c-0.055,0.109-0.108,0.219-0.158,0.329
				c-0.088,0.196-0.165,0.397-0.238,0.601c-0.114,0.315-0.206,0.631-0.28,0.949c-0.016,0.072-0.037,0.142-0.052,0.215
				c-0.049,0.242-0.084,0.482-0.111,0.724c-0.006,0.054-0.011,0.108-0.016,0.163c-0.024,0.263-0.04,0.525-0.039,0.787v41.834
				c-4.636,0-8.393,3.758-8.393,8.393v16.787c-4.636,0-8.393,3.758-8.393,8.393v58.754c0,4.636,3.758,8.393,8.393,8.393v25.18
				c0,4.636,3.758,8.393,8.393,8.393h67.148c4.636,0,8.393-3.758,8.393-8.393v-25.18c4.636,0,8.393-3.758,8.393-8.393v-58.754
				C151.084,398.253,147.326,394.495,142.69,394.495z M67.149,411.282h67.148v41.967H67.149V411.282z M88.877,285.496h23.693
				c-3.578,10.895-3.577,22.677,0.001,33.574H88.875C92.454,308.173,92.454,296.391,88.877,285.496z M97.525,251.803h6.396
				l8.423,16.904H89.102L97.525,251.803z M83.936,335.859h33.574v33.456H83.936V335.859z M75.543,386.102h50.361v8.393H75.543
				V386.102z M125.903,486.823H75.543v-16.787h50.361V486.823z"/>
			<path d="M293.772,394.495v-16.787c0-4.636-3.758-8.393-8.393-8.393v-41.835c0.001-0.261-0.015-0.522-0.039-0.784
				c-0.005-0.055-0.01-0.11-0.016-0.165c-0.027-0.241-0.061-0.482-0.11-0.723c-0.015-0.074-0.036-0.146-0.053-0.219
				c-0.074-0.317-0.165-0.632-0.279-0.946c-0.073-0.204-0.15-0.406-0.238-0.602c-0.05-0.11-0.103-0.219-0.158-0.328
				c-0.145-0.29-0.303-0.572-0.48-0.842c-0.013-0.021-0.022-0.042-0.036-0.063c-8.285-12.432-8.285-28.626-0.001-41.049
				c0.026-0.039,0.043-0.081,0.069-0.121c0.13-0.202,0.244-0.412,0.356-0.623c0.07-0.132,0.15-0.262,0.213-0.395
				c0.037-0.08,0.063-0.166,0.098-0.247c0.222-0.516,0.388-1.039,0.498-1.567c0.013-0.061,0.032-0.12,0.044-0.182
				c0.045-0.243,0.069-0.485,0.092-0.728c0.012-0.123,0.03-0.245,0.036-0.369c0.01-0.206,0.004-0.411-0.001-0.616
				c-0.004-0.166-0.005-0.331-0.019-0.498c-0.015-0.178-0.044-0.353-0.07-0.529c-0.028-0.188-0.055-0.376-0.097-0.564
				c-0.038-0.171-0.088-0.337-0.136-0.504c-0.053-0.183-0.103-0.365-0.169-0.547c-0.066-0.183-0.147-0.36-0.225-0.538
				c-0.055-0.125-0.095-0.251-0.157-0.375l-16.787-33.691c-1.42-2.849-4.329-4.65-7.513-4.65h-16.787
				c-3.183,0-6.093,1.801-7.513,4.65l-16.787,33.691c-0.062,0.124-0.102,0.25-0.157,0.375c-0.079,0.178-0.159,0.355-0.225,0.538
				c-0.066,0.181-0.116,0.363-0.169,0.546c-0.048,0.168-0.099,0.335-0.137,0.506c-0.042,0.188-0.069,0.375-0.097,0.563
				c-0.027,0.176-0.055,0.351-0.07,0.53c-0.014,0.167-0.015,0.332-0.019,0.498c-0.005,0.205-0.012,0.409-0.001,0.616
				c0.007,0.124,0.024,0.246,0.036,0.369c0.023,0.243,0.046,0.485,0.092,0.728c0.012,0.061,0.031,0.121,0.044,0.182
				c0.111,0.527,0.276,1.051,0.498,1.567c0.035,0.081,0.061,0.167,0.098,0.247c0.063,0.133,0.142,0.263,0.213,0.395
				c0.112,0.212,0.226,0.422,0.356,0.623c0.026,0.04,0.042,0.081,0.069,0.12c8.284,12.423,8.284,28.617-0.001,41.049
				c-0.014,0.021-0.022,0.042-0.036,0.063c-0.177,0.27-0.335,0.552-0.48,0.842c-0.055,0.109-0.108,0.218-0.158,0.328
				c-0.088,0.196-0.165,0.398-0.238,0.602c-0.114,0.314-0.205,0.628-0.279,0.946c-0.017,0.073-0.038,0.145-0.053,0.219
				c-0.049,0.241-0.083,0.481-0.11,0.723c-0.006,0.055-0.011,0.11-0.016,0.165c-0.024,0.262-0.04,0.523-0.039,0.784v41.835
				c-4.636,0-8.393,3.758-8.393,8.393v16.787c-4.636,0-8.393,3.758-8.393,8.393v58.754c0,4.636,3.758,8.393,8.393,8.393v25.18
				c0,4.636,3.758,8.393,8.393,8.393h67.148c4.636,0,8.393-3.758,8.393-8.393v-25.18c4.636,0,8.393-3.758,8.393-8.393v-58.754
				C302.166,398.253,298.408,394.495,293.772,394.495z M218.231,411.282h67.148v41.967h-67.148V411.282z M239.959,285.496h23.693
				c-3.578,10.895-3.577,22.677,0.001,33.574h-23.696C243.536,308.173,243.536,296.391,239.959,285.496z M248.607,251.803h6.396
				l8.423,16.904h-23.241L248.607,251.803z M235.018,335.859h33.574v33.456h-33.574V335.859z M226.625,386.102h50.361v8.393h-50.361
				V386.102z M276.985,486.823h-50.361v-16.787h50.361V486.823z"/>
			<path d="M444.854,394.495v-16.787c0-4.636-3.758-8.393-8.393-8.393v-41.835c0.001-0.261-0.015-0.522-0.039-0.785
				c-0.005-0.055-0.01-0.109-0.016-0.164c-0.027-0.242-0.061-0.483-0.111-0.724c-0.015-0.073-0.035-0.143-0.052-0.214
				c-0.074-0.319-0.166-0.636-0.28-0.951c-0.073-0.203-0.15-0.404-0.237-0.599c-0.05-0.111-0.103-0.22-0.159-0.33
				c-0.145-0.289-0.303-0.571-0.479-0.839c-0.014-0.021-0.023-0.043-0.037-0.064c-8.286-12.432-8.286-28.626-0.001-41.049
				c0.026-0.039,0.043-0.081,0.069-0.121c0.13-0.202,0.244-0.412,0.356-0.623c0.07-0.132,0.15-0.262,0.213-0.395
				c0.037-0.08,0.063-0.166,0.098-0.247c0.222-0.516,0.388-1.039,0.498-1.567c0.013-0.061,0.032-0.12,0.044-0.182
				c0.045-0.243,0.069-0.485,0.092-0.728c0.012-0.123,0.03-0.245,0.036-0.369c0.01-0.206,0.004-0.411-0.001-0.616
				c-0.004-0.166-0.005-0.331-0.019-0.498c-0.015-0.178-0.044-0.353-0.07-0.529c-0.028-0.188-0.055-0.376-0.097-0.564
				c-0.038-0.171-0.088-0.337-0.136-0.504c-0.053-0.183-0.103-0.365-0.169-0.547c-0.066-0.183-0.147-0.36-0.225-0.538
				c-0.055-0.125-0.095-0.251-0.157-0.375l-16.787-33.691c-1.42-2.849-4.329-4.65-7.513-4.65h-16.787
				c-3.183,0-6.093,1.801-7.513,4.65l-16.787,33.691c-0.062,0.124-0.102,0.25-0.157,0.375c-0.079,0.178-0.159,0.355-0.225,0.538
				c-0.066,0.181-0.116,0.363-0.169,0.546c-0.048,0.168-0.099,0.335-0.137,0.506c-0.042,0.188-0.069,0.375-0.097,0.563
				c-0.027,0.176-0.055,0.351-0.07,0.53c-0.014,0.167-0.015,0.332-0.019,0.498c-0.005,0.205-0.012,0.409-0.001,0.616
				c0.007,0.124,0.024,0.246,0.036,0.369c0.023,0.243,0.046,0.485,0.092,0.728c0.012,0.061,0.031,0.121,0.044,0.182
				c0.111,0.527,0.276,1.051,0.498,1.567c0.035,0.081,0.061,0.167,0.098,0.247c0.063,0.133,0.142,0.263,0.213,0.395
				c0.112,0.212,0.226,0.422,0.356,0.623c0.026,0.04,0.042,0.081,0.069,0.12c8.284,12.423,8.284,28.617-0.001,41.049
				c-0.014,0.021-0.022,0.042-0.036,0.063c-0.177,0.27-0.335,0.552-0.48,0.842c-0.055,0.109-0.108,0.218-0.158,0.328
				c-0.088,0.196-0.165,0.398-0.238,0.602c-0.114,0.314-0.205,0.628-0.279,0.946c-0.017,0.073-0.038,0.145-0.053,0.219
				c-0.049,0.241-0.083,0.481-0.11,0.723c-0.006,0.055-0.011,0.11-0.016,0.165c-0.024,0.262-0.04,0.523-0.039,0.784v41.835
				c-4.636,0-8.393,3.758-8.393,8.393v16.787c-4.636,0-8.393,3.758-8.393,8.393v58.754c0,4.636,3.758,8.393,8.393,8.393v25.18
				c0,4.636,3.758,8.393,8.393,8.393h67.148c4.636,0,8.393-3.758,8.393-8.393v-25.18c4.636,0,8.393-3.758,8.393-8.393v-58.754
				C453.248,398.253,449.49,394.495,444.854,394.495z M369.313,411.282h67.148v41.967h-67.148V411.282z M391.04,285.496h23.693
				c-3.578,10.895-3.577,22.677,0.001,33.574h-23.696C394.618,308.173,394.618,296.391,391.04,285.496z M399.689,251.803h6.396
				l8.423,16.904h-23.241L399.689,251.803z M386.1,335.859h33.574v33.456H386.1V335.859z M377.707,386.102h50.361v8.393h-50.361
				V386.102z M428.067,486.823h-50.361v-16.787h50.361V486.823z"/>
		</g>
	</g>
</g>
<g>
</g>
<g>
</g>
<g>
</g>
<g>
</g>
<g>
</g>
<g>
</g>
<g>
</g>
<g>
</g>
<g>
</g>
<g>
</g>
<g>
</g>
<g>
</g>
<g>
</g>
<g>
</g>
<g>
</g>
</svg>
