<?xml version="1.0" encoding="iso-8859-1"?>
<!-- Generator: Adobe Illustrator 17.1.0, SVG Export Plug-In . SVG Version: 6.00 Build 0)  -->
<!DOCTYPE svg PUBLIC "-//W3C//DTD SVG 1.1//EN" "http://www.w3.org/Graphics/SVG/1.1/DTD/svg11.dtd">
<svg version="1.1" id="Capa_1" xmlns="http://www.w3.org/2000/svg" xmlns:xlink="http://www.w3.org/1999/xlink" x="0px" y="0px"
	 viewBox="0 0 547.612 547.612" style="enable-background:new 0 0 547.612 547.612;" xml:space="preserve">
<path d="M540.112,293.09h-71.18c-18.405-46.242-55.066-83.302-101.032-102.25V10.456c0-4.142-3.357-7.5-7.5-7.5H116.029H59.45
	c-1.989,0-3.897,0.79-5.304,2.197C52.74,6.56,51.95,8.467,51.95,10.457l0.019,222.333C18.437,267.28,0,312.626,0,360.85
	c0,21.73,3.801,42.587,10.755,61.953c0.135,0.588,0.34,1.148,0.605,1.674c14.839,40.09,43.283,73.629,79.695,95.001
	c0.529,0.411,1.11,0.757,1.739,1.016c26.849,15.366,57.922,24.16,91.011,24.16h114.017c0.085,0,0.17,0.002,0.256,0.002
	c77.43,0,143.826-48.129,170.855-116.04h71.18c4.143,0,7.5-3.358,7.5-7.5V300.59C547.612,296.448,544.255,293.09,540.112,293.09z
	 M199.489,205.705h-52.477v-9.633c12.021-2.67,24.369-4.027,36.792-4.027h41.505C216.375,195.895,207.739,200.458,199.489,205.705z
	 M285.863,177.044H183.805c-12.401,0-24.734,1.259-36.792,3.708V42.427h138.851V177.044z M300.863,177.085V42.427h27.068v137.06
	C319.102,178.039,310.064,177.223,300.863,177.085z M236.512,256.391L353.041,372.92c1.465,1.464,3.385,2.197,5.304,2.197
	s3.839-0.732,5.304-2.197c2.929-2.929,2.929-7.678,0-10.606L250.611,249.277c14.744-6.263,30.833-9.647,47.466-9.647
	c66.843,0,121.223,54.38,121.223,121.223c0,16.826-3.449,32.861-9.672,47.44l-12.568-12.568c-2.929-2.929-7.677-2.93-10.607,0
	c-2.929,2.929-2.929,7.678,0,10.606l16.039,16.039c-8.706,14.72-20.427,27.455-34.318,37.334L262.306,353.838V300.59
	c0-4.142-3.358-7.5-7.5-7.5h-57.252C207.774,277.904,221.138,265.451,236.512,256.391z M254.806,428.616c4.142,0,7.5-3.358,7.5-7.5
	v-46.065l92.764,92.765c-17,9.095-36.403,14.261-56.993,14.261c-40.675,0-78.125-20.197-100.519-53.46H254.806z M342.932,182.595
	V34.927c0-4.142-3.357-7.5-7.5-7.5h-195.95c-4.142,0-7.5,3.358-7.5,7.5c0,0.203,0.015,0.401,0.03,0.6v247.536
	c-0.045,0.476-0.045,0.95,0,1.42v83.388c0,5.477-2.131,10.625-6.003,14.498c-2.431,2.431-5.366,4.175-8.568,5.137
	c3.823-5.69,6.058-12.531,6.059-19.886l0.03-262.575c0-4.142-3.357-7.5-7.499-7.501c0,0,0,0,0,0c-4.142,0-7.5,3.357-7.5,7.499
	l-0.03,262.575c-0.001,11.445-9.314,20.756-20.759,20.756c-11.446,0-20.759-9.312-20.76-20.757L66.95,17.956h41.579v32.502
	c0,4.142,3.358,7.5,7.5,7.5s7.5-3.358,7.5-7.5V17.956H352.9v167.445C349.617,184.373,346.291,183.441,342.932,182.595z
	 M51.974,293.09H29.103c5.884-13.423,13.549-26.079,22.868-37.684L51.974,293.09z M23.37,308.09h28.606l0.005,59.528
	c0.002,19.716,16.043,35.756,35.76,35.756h23.771c9.483,0,18.399-3.693,25.104-10.399s10.397-15.622,10.396-25.104v-59.78h37.38
	c0.002,0,0.003,0,0.005,0h24.862v17.659c0,4.142,3.358,7.5,7.5,7.5s7.5-3.358,7.5-7.5V308.09h23.047v48.852c0,0.002,0,0.003,0,0.005
	v56.669h-23.047v-52.763c0-4.142-3.358-7.5-7.5-7.5s-7.5,3.358-7.5,7.5v52.763h-24.842c-0.02,0-0.04,0-0.06,0H23.456
	C17.977,397.007,15,379.27,15,360.849C15,342.647,17.864,324.892,23.37,308.09z M127.183,428.616
	c12.135,30.629,32.104,57.195,58.2,77.445H97.828c-30.201-17.95-54.352-45.046-68.611-77.445H127.183z M207.921,521.062
	c5.621,3.175,11.383,6.044,17.27,8.592h-41.386c-18.576,0-36.457-3.024-53.186-8.592H207.921z M298.116,529.656
	c-0.013,0-0.026-0.002-0.039-0.002h-0.248c-67.014-0.099-127.725-40.255-154.394-101.038h36.467
	c24.277,42.344,69.142,68.46,118.176,68.46c26.594,0,51.427-7.667,72.42-20.897c0.558-0.265,1.09-0.599,1.582-1.01
	c19.19-12.465,35.06-29.624,45.969-49.841c0.317-0.466,0.577-0.959,0.777-1.471c9.877-18.853,15.475-40.286,15.475-63.004
	c0-75.114-61.109-136.223-136.223-136.223c-49.047,0-93.912,26.116-118.177,68.46h-32.888v-7.609
	c2.644-5.289,5.575-10.487,8.758-15.463c2.231-3.49,1.212-8.127-2.277-10.359c-2.007-1.283-4.391-1.486-6.48-0.769v-38.185h32.134
	c-1.025,0.871-2.043,1.752-3.051,2.646c-3.097,2.75-3.379,7.49-0.629,10.588c2.75,3.097,7.49,3.379,10.588,0.629
	c30.883-27.418,70.667-42.518,112.023-42.518c93.078,0,168.803,75.725,168.803,168.803
	C466.88,453.919,391.176,529.635,298.116,529.656z M481.88,360.853c0-18.333-2.711-36.043-7.73-52.763h27.67v17.659
	c0,4.142,3.357,7.5,7.5,7.5s7.5-3.358,7.5-7.5V308.09h15.793v105.526h-15.793v-52.763c0-4.142-3.357-7.5-7.5-7.5s-7.5,3.358-7.5,7.5
	v52.763h-27.67C479.169,396.896,481.88,379.186,481.88,360.853z"/>
<g>
</g>
<g>
</g>
<g>
</g>
<g>
</g>
<g>
</g>
<g>
</g>
<g>
</g>
<g>
</g>
<g>
</g>
<g>
</g>
<g>
</g>
<g>
</g>
<g>
</g>
<g>
</g>
<g>
</g>
</svg>
