<?xml version="1.0" encoding="iso-8859-1"?>
<!-- Generator: Adobe Illustrator 17.1.0, SVG Export Plug-In . SVG Version: 6.00 Build 0)  -->
<!DOCTYPE svg PUBLIC "-//W3C//DTD SVG 1.1//EN" "http://www.w3.org/Graphics/SVG/1.1/DTD/svg11.dtd">
<svg version="1.1" id="Capa_1" xmlns="http://www.w3.org/2000/svg" xmlns:xlink="http://www.w3.org/1999/xlink" x="0px" y="0px"
	 viewBox="0 0 550.752 550.752" style="enable-background:new 0 0 550.752 550.752;" xml:space="preserve">
<path d="M275.376,54.715c-83.909,0-152.174,68.265-152.174,152.174s68.265,152.174,152.174,152.174
	c83.91,0,152.174-68.265,152.174-152.174S359.286,54.715,275.376,54.715z M275.376,344.063
	c-75.638,0-137.174-61.536-137.174-137.174c0-75.638,61.536-137.174,137.174-137.174S412.55,131.251,412.55,206.889
	C412.55,282.527,351.014,344.063,275.376,344.063z M275.376,74.771c-17.878,0-32.424,14.545-32.424,32.424
	s14.545,32.423,32.424,32.423s32.423-14.545,32.423-32.423S293.254,74.771,275.376,74.771z M275.376,124.618
	c-9.607,0-17.424-7.816-17.424-17.423s7.816-17.424,17.424-17.424c9.607,0,17.423,7.816,17.423,17.424
	S284.983,124.618,275.376,124.618z M275.376,274.16c-17.878,0-32.424,14.545-32.424,32.424s14.545,32.424,32.424,32.424
	s32.423-14.545,32.423-32.424S293.254,274.16,275.376,274.16z M275.376,324.008c-9.607,0-17.424-7.816-17.424-17.424
	s7.816-17.424,17.424-17.424c9.607,0,17.423,7.816,17.423,17.424S284.983,324.008,275.376,324.008z M345.871,168.803
	c8.303,0,16.606-3.161,22.927-9.482c6.125-6.124,9.497-14.266,9.497-22.927c0-8.661-3.372-16.803-9.496-22.927
	c-12.643-12.642-33.213-12.643-45.855,0c-12.641,12.642-12.641,33.212,0,45.854C329.264,165.643,337.568,168.803,345.871,168.803z
	 M345.871,118.979c4.462,0,8.924,1.698,12.32,5.095c3.291,3.291,5.104,7.667,5.104,12.32c0,4.654-1.813,9.029-5.103,12.32
	c-0.001,0-0.001,0-0.001,0c-6.792,6.793-17.847,6.794-24.641,0c-6.793-6.793-6.793-17.847,0-24.641
	C336.947,120.677,341.409,118.979,345.871,118.979z M181.954,254.457c-12.642,12.642-12.642,33.212,0,45.854
	c6.321,6.321,14.624,9.481,22.927,9.481c8.303,0,16.606-3.16,22.927-9.481c12.642-12.642,12.642-33.212,0-45.854
	C215.167,241.815,194.596,241.816,181.954,254.457z M192.561,289.705c-6.793-6.793-6.793-17.848,0-24.641
	c3.397-3.397,7.858-5.095,12.321-5.095c4.461,0,8.924,1.699,12.32,5.095c6.793,6.793,6.793,17.848,0,24.641
	C210.408,296.497,199.354,296.498,192.561,289.705z M375.071,174.466c-17.879,0-32.424,14.545-32.424,32.423
	s14.545,32.424,32.424,32.424s32.424-14.545,32.424-32.424S392.95,174.466,375.071,174.466z M375.071,224.313
	c-9.607,0-17.424-7.816-17.424-17.424s7.816-17.423,17.424-17.423s17.424,7.816,17.424,17.423S384.678,224.313,375.071,224.313z
	 M208.105,206.889c0-17.878-14.545-32.423-32.424-32.423s-32.423,14.545-32.423,32.423s14.545,32.424,32.423,32.424
	S208.105,224.768,208.105,206.889z M175.681,189.466c9.607,0,17.424,7.816,17.424,17.423s-7.816,17.424-17.424,17.424
	s-17.423-7.816-17.423-17.424S166.074,189.466,175.681,189.466z M322.943,254.457c-12.641,12.642-12.641,33.212,0,45.854
	c6.321,6.321,14.625,9.482,22.928,9.482s16.606-3.161,22.928-9.482c12.642-12.642,12.642-33.212-0.001-45.854
	C356.157,241.816,335.585,241.814,322.943,254.457z M333.55,289.705c-6.793-6.793-6.793-17.848-0.001-24.641
	c6.794-6.793,17.85-6.792,24.642,0c6.794,6.793,6.794,17.848,0,24.641C351.398,296.499,340.343,296.499,333.55,289.705z
	 M298.303,229.816c12.642-12.642,12.642-33.212,0-45.854c-6.124-6.124-14.267-9.497-22.927-9.497
	c-8.661,0-16.803,3.373-22.927,9.497c-12.642,12.642-12.642,33.212,0,45.854c6.124,6.124,14.266,9.497,22.927,9.497
	C284.037,239.313,292.179,235.94,298.303,229.816z M275.376,189.465c4.654,0,9.03,1.813,12.32,5.104
	c6.794,6.793,6.794,17.848,0,24.641c-3.29,3.291-7.666,5.103-12.32,5.103c-4.654,0-9.029-1.812-12.32-5.103
	c-6.793-6.793-6.793-17.848,0-24.641C266.347,191.278,270.722,189.465,275.376,189.465z M181.954,113.468
	c-6.124,6.124-9.497,14.266-9.497,22.927c0,8.661,3.373,16.803,9.497,22.927c6.322,6.322,14.623,9.482,22.927,9.481
	c8.302,0,16.606-3.161,22.927-9.481c6.124-6.124,9.497-14.266,9.497-22.927c0-8.661-3.373-16.803-9.497-22.927
	C215.167,100.825,194.596,100.825,181.954,113.468z M204.881,118.979c4.462,0,8.924,1.699,12.321,5.095
	c3.291,3.291,5.103,7.667,5.103,12.32c0,4.654-1.812,9.029-5.103,12.32c-6.794,6.792-17.847,6.793-24.641,0
	c-3.291-3.291-5.104-7.666-5.104-12.32c0-4.654,1.813-9.029,5.104-12.32C195.958,120.678,200.419,118.979,204.881,118.979z
	 M484.907,137.08h-33.922C438.764,59.7,364.677,0,275.376,0c-89.3,0-163.387,59.7-175.608,137.08H65.846c-4.142,0-7.5,3.358-7.5,7.5
	v24.924v209.135c0,2.051,0.84,4.013,2.325,5.428l46.427,44.261h-1.965c-3.272,0-6.167,2.121-7.152,5.241L64.055,540.994
	c-0.72,2.279-0.31,4.765,1.103,6.692c1.413,1.927,3.66,3.066,6.049,3.066h408.337c2.39,0,4.637-1.139,6.05-3.066
	c1.412-1.928,1.821-4.413,1.102-6.692l-33.924-107.424c-0.986-3.12-3.88-5.241-7.152-5.241h-1.966l46.428-44.26
	c1.485-1.416,2.325-3.377,2.325-5.429V169.504V144.58C492.407,140.438,489.049,137.08,484.907,137.08z M128.836,428.328
	l-55.49-52.901V177.004h24.287v150.923c0,0.004,0,0.009,0,0.013v31.953c0,2.035,0.827,3.982,2.29,5.395l33.163,32.023
	c1.398,1.35,3.266,2.105,5.21,2.105h274.161c1.943,0,3.812-0.755,5.21-2.105l33.163-32.023c1.464-1.413,2.29-3.36,2.29-5.395
	v-31.958c0-0.001,0-0.002,0-0.002V177.004h24.287v198.423l-55.491,52.901H128.836z M275.376,15
	c77.034,0,141.709,48.028,158.275,112.233c-2.173-2.535-5.854-3.392-8.99-1.852c-3.718,1.826-5.252,6.32-3.427,10.038
	c10.97,22.341,16.531,46.388,16.531,71.47c0,89.542-72.848,162.39-162.389,162.39c-19.424,0-38.061-3.433-55.341-9.716
	c-0.237-0.101-0.481-0.189-0.73-0.266c-61.995-22.881-106.318-82.564-106.318-152.408c0-89.542,72.848-162.389,162.389-162.389
	c39.504,0,77.577,14.352,107.204,40.412c3.11,2.736,7.849,2.432,10.585-0.678c2.735-3.11,2.432-7.849-0.679-10.585
	C360.12,45.179,318.529,29.5,275.376,29.5c-68.854,0-128.669,39.433-158.053,96.901C134.232,62.615,198.676,15,275.376,15z
	 M477.407,162.004h-20.065v-9.924h20.065V162.004z M112.633,343.927l34.118,28.311c1.346,1.117,3.041,1.729,4.79,1.729h64.236
	c18.636,6.668,38.699,10.312,59.599,10.312c20.9,0,40.963-3.644,59.599-10.312h64.236c1.749,0,3.443-0.611,4.789-1.729
	l34.119-28.312v12.783l-28.693,27.707H141.326l-28.693-27.707V343.927z M154.247,358.967l-41.614-34.532v-47.003
	c14.808,34.03,39.98,62.546,71.516,81.535H154.247z M438.12,324.436l-41.614,34.531h-29.902
	c31.536-18.989,56.708-47.505,71.516-81.536V324.436z M93.41,162.004H73.346v-9.924H93.41V162.004z M440.123,443.328l29.188,92.424
	H81.44l29.188-92.424H440.123z M206.56,520.867h137.632c4.143,0,7.5-3.358,7.5-7.5v-47.252c0-4.142-3.357-7.5-7.5-7.5h-26.741
	c-0.002,0-0.003,0-0.005,0h-35.844c-0.002,0-0.003,0-0.005,0H206.56c-4.142,0-7.5,3.358-7.5,7.5v47.252
	C199.06,517.509,202.418,520.867,206.56,520.867z M214.06,505.867v-32.252h49.432l-32.253,32.252H214.06z M299.859,473.615
	c-1.44,2.818-0.985,6.356,1.375,8.715c1.464,1.465,3.384,2.197,5.303,2.197s3.839-0.732,5.304-2.197l8.714-8.715h16.137v32.252
	h-48.389l6.581-6.581c2.929-2.929,2.929-7.677,0-10.606c-2.929-2.929-7.677-2.929-10.607,0l-17.187,17.187h-14.637l32.253-32.252
	H299.859z"/>
<g>
</g>
<g>
</g>
<g>
</g>
<g>
</g>
<g>
</g>
<g>
</g>
<g>
</g>
<g>
</g>
<g>
</g>
<g>
</g>
<g>
</g>
<g>
</g>
<g>
</g>
<g>
</g>
<g>
</g>
</svg>
