<?xml version="1.0" encoding="iso-8859-1"?>
<!-- Generator: Adobe Illustrator 17.1.0, SVG Export Plug-In . SVG Version: 6.00 Build 0)  -->
<!DOCTYPE svg PUBLIC "-//W3C//DTD SVG 1.1//EN" "http://www.w3.org/Graphics/SVG/1.1/DTD/svg11.dtd">
<svg version="1.1" id="Capa_1" xmlns="http://www.w3.org/2000/svg" xmlns:xlink="http://www.w3.org/1999/xlink" x="0px" y="0px"
	 viewBox="0 0 202.235 202.235" style="enable-background:new 0 0 202.235 202.235;" xml:space="preserve">
<path d="M117.991,202.234c-0.306,0-0.615-0.07-0.906-0.219c-0.984-0.501-1.375-1.706-0.873-2.689L176.41,81.293l-9.163-9.163
	L72.835,201.414c-0.651,0.893-1.901,1.087-2.795,0.436c-0.892-0.651-1.087-1.902-0.436-2.795l94.779-129.787l-16.102-16.103
	L7.648,201.61c-0.761,0.802-2.025,0.835-2.828,0.076c-0.802-0.76-0.836-2.025-0.076-2.828L145.453,50.336l-10.754-10.754
	L7.454,142.479c-0.859,0.696-2.119,0.562-2.813-0.297c-0.695-0.859-0.562-2.118,0.297-2.813L131.854,36.738l-3.817-3.818
	c-0.781-0.781-0.781-2.047,0-2.828l4.95-4.95c0.781-0.781,2.047-0.781,2.828,0l2.169,2.169c6.622-6.004,15.118-9.29,24.12-9.29
	c0.81,0,1.614,0.027,2.415,0.08V4h-16.064c-1.104,0-2-0.896-2-2s0.896-2,2-2h36.129c1.104,0,2,0.896,2,2s-0.896,2-2,2h-16.064
	v14.588c7.162,1.283,13.754,4.71,19.007,9.964c13.591,13.591,14.004,35.447,1.241,49.541l2.169,2.17
	c0.781,0.781,0.781,2.047,0,2.828l-4.95,4.95c-0.781,0.781-2.047,0.781-2.828,0l-3.774-3.774l-59.609,116.876
	C119.422,201.836,118.72,202.234,117.991,202.234z M132.279,31.506l52.293,52.293l2.122-2.122l-52.293-52.293L132.279,31.506z
	 M140.817,30.143l45.12,45.119c11.204-12.501,10.802-31.841-1.239-43.882c-6.035-6.035-14.059-9.359-22.594-9.359
	C154.172,22.021,146.68,24.892,140.817,30.143z M186.161,63.495c-0.193,0-0.39-0.028-0.584-0.088
	c-1.056-0.321-1.651-1.438-1.331-2.494c0.065-0.221,3.429-11.938-3.724-20.529c-0.707-0.849-0.592-2.109,0.258-2.816
	c0.847-0.708,2.108-0.593,2.816,0.258c8.587,10.313,4.648,23.688,4.477,24.252C187.81,62.939,187.017,63.495,186.161,63.495z"/>
<g>
</g>
<g>
</g>
<g>
</g>
<g>
</g>
<g>
</g>
<g>
</g>
<g>
</g>
<g>
</g>
<g>
</g>
<g>
</g>
<g>
</g>
<g>
</g>
<g>
</g>
<g>
</g>
<g>
</g>
</svg>
