<?xml version="1.0" encoding="iso-8859-1"?>
<!-- Generator: Adobe Illustrator 19.0.0, SVG Export Plug-In . SVG Version: 6.00 Build 0)  -->
<svg version="1.1" id="Capa_1" xmlns="http://www.w3.org/2000/svg" xmlns:xlink="http://www.w3.org/1999/xlink" x="0px" y="0px"
	 viewBox="0 0 511.995 511.995" style="enable-background:new 0 0 511.995 511.995;" xml:space="preserve">
<g>
	<g>
		<g>
			<path d="M401.622,396.103h-23.104V240.487c0-67.555-54.963-122.518-122.518-122.518s-122.518,54.963-122.518,122.518v155.61
				h-23.109c-29.324,0-53.181,23.857-53.181,53.186c0,29.329,23.857,53.186,53.181,53.186h291.248
				c29.324,0,53.186-23.857,53.186-53.186C454.808,419.96,430.95,396.103,401.622,396.103z M150.461,240.487
				c0-58.194,47.346-105.54,105.539-105.54s105.539,47.346,105.539,105.54v118.122H150.461V240.487z M150.461,375.592h211.079v20.51
				H150.461V375.592z M401.622,485.502H110.373c-17.026,0-31.248-11.855-35.09-27.721h361.434
				C432.874,473.642,418.647,485.502,401.622,485.502z M75.283,440.802c3.843-15.866,18.064-27.721,35.09-27.721h291.248
				c17.026,0,31.253,11.855,35.096,27.721H75.283z"/>
			<path d="M256,91.292c4.686,0,8.487-3.8,8.487-8.487V18.012c0-4.686-3.801-8.487-8.487-8.487c-4.686,0-8.487,3.801-8.487,8.487
				v64.793C247.513,87.491,251.314,91.292,256,91.292z"/>
			<path d="M81.766,265.525c0-4.686-3.8-8.487-8.487-8.487H8.487c-4.686,0-8.487,3.801-8.487,8.487s3.801,8.487,8.487,8.487h64.788
				C77.966,274.012,81.766,270.211,81.766,265.525z"/>
			<path d="M62.005,111.586l49.349,41.98c1.597,1.36,3.553,2.024,5.498,2.024c2.398,0,4.786-1.012,6.468-2.989
				c3.036-3.569,2.609-8.929-0.965-11.966l-49.349-41.98c-3.574-3.041-8.924-2.604-11.966,0.965
				C58.004,103.189,58.431,108.549,62.005,111.586z"/>
			<path d="M403.35,165.963c1.74,0,3.5-0.532,5.013-1.645l52.237-38.316c3.779-2.778,4.596-8.086,1.824-11.865
				c-2.773-3.779-8.081-4.607-11.865-1.824l-52.237,38.316c-3.779,2.773-4.596,8.081-1.824,11.865
				C398.158,164.761,400.736,165.963,403.35,165.963z"/>
			<path d="M503.508,257.038H438.72c-4.686,0-8.487,3.801-8.487,8.487s3.801,8.487,8.487,8.487h64.788
				c4.686,0,8.487-3.8,8.487-8.487S508.199,257.038,503.508,257.038z"/>
		</g>
	</g>
</g>
<g>
</g>
<g>
</g>
<g>
</g>
<g>
</g>
<g>
</g>
<g>
</g>
<g>
</g>
<g>
</g>
<g>
</g>
<g>
</g>
<g>
</g>
<g>
</g>
<g>
</g>
<g>
</g>
<g>
</g>
</svg>
