<?xml version="1.0" encoding="iso-8859-1"?>
<!-- Generator: Adobe Illustrator 19.0.0, SVG Export Plug-In . SVG Version: 6.00 Build 0)  -->
<svg version="1.1" id="Capa_1" xmlns="http://www.w3.org/2000/svg" xmlns:xlink="http://www.w3.org/1999/xlink" x="0px" y="0px"
	 viewBox="0 0 463 463" style="enable-background:new 0 0 463 463;" xml:space="preserve">
<path d="M282.307,191c2.68,0,5.155-1.43,6.495-3.75l50.807-88c1.34-2.32,1.34-5.18,0-7.5l-50.807-88
	c-1.34-2.32-3.815-3.75-6.495-3.75H180.693c-2.68,0-5.155,1.43-6.495,3.75l-50.807,88c-1.34,2.32-1.34,5.18,0,7.5l50.807,88
	c1.34,2.32,3.815,3.75,6.495,3.75h43.35v10.234c-9.29,3.138-16,11.93-16,22.266v16c0,10.336,6.71,19.128,16,22.266v27.469
	c-9.29,3.138-16,11.93-16,22.266v16c0,3.723,0.874,7.244,2.421,10.375l-62.784,78.448c-11.126,1.848-19.638,11.535-19.638,23.177v16
	c0,4.142,3.357,7.5,7.5,7.5h32c4.143,0,7.5-3.358,7.5-7.5v-16c0-8.306-4.335-15.613-10.857-19.794L180.757,399h43.286v18.234
	c-9.29,3.138-16,11.93-16,22.266v16c0,4.142,3.357,7.5,7.5,7.5h32c4.143,0,7.5-3.358,7.5-7.5v-16c0-10.336-6.71-19.128-16-22.266
	V399h43.286l16.571,20.706c-6.522,4.181-10.858,11.488-10.858,19.794v16c0,4.142,3.357,7.5,7.5,7.5h32c4.143,0,7.5-3.358,7.5-7.5
	v-16c0-11.642-8.512-21.329-19.638-23.177l-62.783-78.448c1.547-3.131,2.421-6.652,2.421-10.374v-16c0-10.336-6.71-19.128-16-22.266
	v-27.469c9.29-3.138,16-11.93,16-22.266V239h17v8.5c0,4.142,3.357,7.5,7.5,7.5s7.5-3.358,7.5-7.5v-32c0-4.142-3.357-7.5-7.5-7.5
	s-7.5,3.358-7.5,7.5v8.5h-17v-0.5c0-10.336-6.71-19.128-16-22.266V191H282.307z M240.042,448h-17v-8.5c0-4.687,3.813-8.5,8.5-8.5
	s8.5,3.813,8.5,8.5V448z M160.042,448h-17v-8.5c0-4.685,3.81-8.496,8.493-8.5c0.001,0,0.001,0,0.002,0c0.002,0,0.005,0,0.007,0
	c4.685,0.001,8.498,3.814,8.498,8.5V448z M192.761,384l28.365-35.442c0.938,0.466,1.912,0.869,2.916,1.208V384H192.761z
	 M239.042,384v-34.234c1.004-0.339,1.978-0.742,2.917-1.208L270.324,384H239.042z M320.042,448h-17v-8.5
	c0-4.686,3.813-8.499,8.498-8.5c0.002,0,0.005,0,0.007,0l0.002,0c4.683,0.004,8.493,3.815,8.493,8.5V448z M240.042,327.5
	c0,4.687-3.813,8.5-8.5,8.5s-8.5-3.813-8.5-8.5v-16c0-4.687,3.813-8.5,8.5-8.5s8.5,3.813,8.5,8.5V327.5z M240.042,239.5
	c0,4.687-3.813,8.5-8.5,8.5s-8.5-3.813-8.5-8.5v-16c0-4.687,3.813-8.5,8.5-8.5s8.5,3.813,8.5,8.5V239.5z M231.542,96
	c-4.143,0-7.5,3.358-7.5,7.5v8.5h-8.5c-4.687,0-8.5-3.813-8.5-8.5v-16c0-4.687,3.813-8.5,8.5-8.5h32c4.687,0,8.5,3.813,8.5,8.5v16
	c0,4.687-3.813,8.5-8.5,8.5h-8.5v-8.5C239.042,99.358,235.685,96,231.542,96z M180.815,168.712L142.876,103h49.166v0.5
	c0,9.548,5.727,17.778,13.923,21.452L180.815,168.712z M180.815,22.288l25.15,43.761c-8.196,3.674-13.923,11.904-13.923,21.452V88
	h-49.166L180.815,22.288z M320.124,88h-49.081v-0.5c0-9.548-5.727-17.778-13.923-21.452l25.107-43.687L320.124,88z M282.227,168.639
	l-25.107-43.687c8.196-3.674,13.923-11.904,13.923-21.452V103h49.081L282.227,168.639z M241.04,63.923
	c-0.015,0.025-0.025,0.052-0.039,0.077h-18.916c-0.014-0.025-0.025-0.052-0.039-0.077L193.929,15h75.227L241.04,63.923z M241,127
	c0.014,0.025,0.025,0.052,0.039,0.077L269.156,176h-30.114v-49H241z M193.929,176l28.116-48.923
	c0.015-0.025,0.025-0.052,0.039-0.077h1.958v49H193.929z"/>
<g>
</g>
<g>
</g>
<g>
</g>
<g>
</g>
<g>
</g>
<g>
</g>
<g>
</g>
<g>
</g>
<g>
</g>
<g>
</g>
<g>
</g>
<g>
</g>
<g>
</g>
<g>
</g>
<g>
</g>
</svg>
