<?xml version="1.0" encoding="iso-8859-1"?>
<!-- Generator: Adobe Illustrator 19.0.0, SVG Export Plug-In . SVG Version: 6.00 Build 0)  -->
<svg version="1.1" id="Layer_1" xmlns="http://www.w3.org/2000/svg" xmlns:xlink="http://www.w3.org/1999/xlink" x="0px" y="0px"
	 viewBox="0 0 496 496" style="enable-background:new 0 0 496 496;" xml:space="preserve">
<g>
	<g>
		<g>
			<path d="M400,80v32h-16V0h-16v112h-16V96h-16v16h-16V96h-16v16h-16V96h-16v16h-16V96h-16v16h-16V96h-16v16h-16V96h-16v16h-16V96
				h-16v16h-16V96h-16v16H96V80H0v416h96v-32h16v16h16v-16h16v16h16v-16h16v16h16v-16h16v16h16v-16h16v16h16v-16h16v16h16v-16h16v16
				h16v-16h16v16h16v-16h16v16h16v-16h16v32h96V80H400z M80,480H16V96h64V480z M112,448H96V128h16V448z M144,448h-16V128h16V448z
				 M176,448h-16V128h16V448z M208,448h-16V128h16V448z M240,448h-16V128h16V448z M272,448h-16V128h16V448z M304,448h-16V128h16V448
				z M336,448h-16V128h16V448z M368,448h-16V128h16V448z M400,448h-16V128h16V448z M480,480h-64V96h64V480z"/>
			<rect x="440" y="280" width="16" height="16"/>
			<rect x="440" y="248" width="16" height="16"/>
			<rect x="440" y="312" width="16" height="16"/>
			<rect x="40" y="280" width="16" height="16"/>
			<rect x="40" y="248" width="16" height="16"/>
			<rect x="40" y="312" width="16" height="16"/>
		</g>
	</g>
</g>
<g>
</g>
<g>
</g>
<g>
</g>
<g>
</g>
<g>
</g>
<g>
</g>
<g>
</g>
<g>
</g>
<g>
</g>
<g>
</g>
<g>
</g>
<g>
</g>
<g>
</g>
<g>
</g>
<g>
</g>
</svg>
