<?xml version="1.0" encoding="iso-8859-1"?>
<!-- Generator: Adobe Illustrator 19.0.0, SVG Export Plug-In . SVG Version: 6.00 Build 0)  -->
<svg version="1.1" id="Layer_1" xmlns="http://www.w3.org/2000/svg" xmlns:xlink="http://www.w3.org/1999/xlink" x="0px" y="0px"
	 viewBox="0 0 512 512" style="enable-background:new 0 0 512 512;" xml:space="preserve">
<g>
	<g>
		<path d="M358.4,273.067h-59.733v-34.13c0-4.713-3.82-8.533-8.533-8.533H281.6v-85.337c9.423,0,17.067-7.643,17.067-17.067V51.2
			c0-9.423-7.643-17.067-17.067-17.067V12.8c0-7.068-5.732-12.8-12.8-12.8h-25.6c-7.068,0-12.8,5.732-12.8,12.8v21.333
			c-9.423,0-17.067,7.643-17.067,17.067V128c0,9.423,7.643,17.067,17.067,17.067v85.337h-8.533c-4.713,0-8.533,3.82-8.533,8.533
			v34.13H153.6c-14.134,0-25.6,11.466-25.6,25.6V486.4c0,14.134,11.466,25.6,25.6,25.6h204.8c14.134,0,25.6-11.466,25.6-25.6
			V298.667C384,284.533,372.534,273.067,358.4,273.067z M247.467,17.067h17.067v17.067h-17.067V17.067z M230.4,51.2h8.533h34.133
			h8.533V128h-51.2V51.2z M247.467,145.07h17.067v85.333h-17.067V145.07z M230.4,247.47h8.533h34.133h8.533v25.597h-51.2V247.47z
			 M366.933,486.4c0,4.708-3.825,8.533-8.533,8.533H153.6c-4.708,0-8.533-3.825-8.533-8.533V298.667
			c0-4.708,3.825-8.533,8.533-8.533h68.199c0.023,0,0.045,0.003,0.068,0.003h68.267c0.023,0,0.045-0.003,0.068-0.003H358.4
			c4.708,0,8.533,3.825,8.533,8.533V486.4z"/>
	</g>
</g>
<g>
</g>
<g>
</g>
<g>
</g>
<g>
</g>
<g>
</g>
<g>
</g>
<g>
</g>
<g>
</g>
<g>
</g>
<g>
</g>
<g>
</g>
<g>
</g>
<g>
</g>
<g>
</g>
<g>
</g>
</svg>
