<?xml version="1.0" encoding="iso-8859-1"?>
<!-- Generator: Adobe Illustrator 17.1.0, SVG Export Plug-In . SVG Version: 6.00 Build 0)  -->
<!DOCTYPE svg PUBLIC "-//W3C//DTD SVG 1.1//EN" "http://www.w3.org/Graphics/SVG/1.1/DTD/svg11.dtd">
<svg version="1.1" id="Capa_1" xmlns="http://www.w3.org/2000/svg" xmlns:xlink="http://www.w3.org/1999/xlink" x="0px" y="0px"
	 viewBox="0 0 216.771 216.771" style="enable-background:new 0 0 216.771 216.771;" xml:space="preserve">
<path d="M47.41,216.771c-10.67,0-21.471-4.662-30.766-13.957c-18.156-18.156-18.642-42.067-1.209-59.5
	c12.437-12.438,31.176-19.475,47.461-17.98c-0.627-6.819,1.775-13.57,6.685-18.48l0.303-0.303
	c4.374-4.374,10.189-6.783,16.375-6.783c5.911,0,11.485,2.2,15.785,6.213l62.802-62.802c-0.371-0.533-0.581-1.146-0.609-1.785
	c-0.04-0.9,0.296-1.776,0.923-2.403l6.632-6.633l-4.361-4.36l-7.759-2.079c-1.493-0.399-2.622-1.529-3.022-3.022
	c-0.4-1.492,0.014-3.035,1.106-4.127l3.275-3.274l0,0c1.093-1.093,2.637-1.509,4.128-1.106c1.492,0.4,2.621,1.529,3.021,3.021
	l2.079,7.76l4.361,4.36l11.409-11.409l-4.36-4.361l-7.759-2.079c-1.492-0.398-2.622-1.528-3.022-3.021
	c-0.4-1.492,0.013-3.035,1.106-4.128l3.274-3.275h0c1.093-1.094,2.635-1.506,4.128-1.105c1.492,0.399,2.622,1.529,3.021,3.021
	l2.079,7.759l4.373,4.373c2.661-2.309,6.706-2.197,9.234,0.331l5.718,5.718c1.281,1.28,1.986,2.983,1.986,4.795
	s-0.706,3.514-1.986,4.795l-5.03,5.029l4.361,4.36l7.759,2.079c1.493,0.399,2.622,1.529,3.022,3.021s-0.014,3.036-1.106,4.128
	l-3.275,3.274c-1.092,1.093-2.634,1.505-4.127,1.107c-1.493-0.4-2.623-1.529-3.022-3.022l-2.079-7.76l-4.361-4.36l-11.409,11.409
	l4.36,4.361l7.759,2.079c1.492,0.398,2.622,1.527,3.022,3.02c0.4,1.493-0.013,3.036-1.106,4.129l-3.274,3.275c0,0,0,0,0,0
	c-1.092,1.093-2.633,1.502-4.127,1.106c-1.492-0.4-2.622-1.53-3.022-3.022l-2.079-7.759l-4.361-4.36l-1.259,1.259
	c-1.121,1.119-2.893,1.216-4.19,0.316l-62.8,62.8c8.454,9.069,8.264,23.327-0.571,32.162l-0.303,0.303
	c-4.908,4.908-11.658,7.306-18.479,6.685c1.481,16.277-5.542,35.022-17.98,47.461l0,0C67.636,212.531,57.582,216.771,47.41,216.771z
	 M58.693,129.152c-14.09,0-29.945,6.505-40.43,16.99c-15.987,15.987-15.512,37.122,1.209,53.844
	c16.722,16.72,37.856,17.195,53.843,1.209l0,0c12.077-12.077,18.875-31.281,16.531-46.7c-0.098-0.649,0.127-1.305,0.605-1.755
	c0.477-0.451,1.147-0.633,1.787-0.503c6.382,1.352,12.938-0.588,17.538-5.188l0.303-0.303c7.274-7.275,7.464-18.994,0.568-26.502
	l-69.831,69.832l5.538,5.538c0.781,0.781,0.781,2.047,0,2.828c-0.78,0.781-2.047,0.781-2.828,0l-6.938-6.938
	c-0.005-0.005-0.01-0.01-0.015-0.015s-0.01-0.01-0.015-0.015l-4.269-4.27c-0.006-0.006-0.013-0.012-0.019-0.019
	c-0.006-0.006-0.013-0.013-0.019-0.019l-4.32-4.32c-0.008-0.008-0.015-0.015-0.022-0.022c-0.008-0.007-0.015-0.015-0.022-0.022
	l-6.871-6.871c-0.781-0.781-0.781-2.047,0-2.828c0.78-0.781,2.047-0.781,2.828,0l5.479,5.479l69.829-69.829
	c-3.535-3.222-8.078-4.986-12.893-4.986c-5.118,0-9.929,1.993-13.548,5.612l-0.303,0.303c-4.599,4.6-6.539,11.156-5.188,17.537
	c0.136,0.642-0.052,1.31-0.502,1.787c-0.45,0.477-1.106,0.704-1.755,0.604C62.932,129.302,60.832,129.152,58.693,129.152z
	 M36.513,185.773l1.474,1.475l59.472-59.473l-1.474-1.474L36.513,185.773z M32.152,181.412l1.533,1.533l59.472-59.473l-1.533-1.532
	L32.152,181.412z M98.814,123.472l1.474,1.475l7.543-7.544l-1.474-1.474L98.814,123.472z M94.452,119.111l1.533,1.533l7.543-7.544
	l-1.533-1.532L94.452,119.111z M109.185,113.1l1.474,1.475l63.289-63.289c1.121-1.121,2.891-1.219,4.19-0.315l22.857-22.857
	c0.525-0.525,0.814-1.224,0.814-1.966c0-0.743-0.29-1.441-0.814-1.967l-5.718-5.718c-1.085-1.085-2.849-1.085-3.933,0
	l-22.858,22.858c0.371,0.533,0.581,1.146,0.609,1.784c0.04,0.901-0.296,1.777-0.923,2.404l-63.289,63.289l1.474,1.474l81.955-81.955
	c0.78-0.781,2.048-0.781,2.828,0c0.781,0.781,0.781,2.047,0,2.828L109.185,113.1z M190.71,59.191l1.321,4.931
	c0.01,0.037,0.041,0.152,0.194,0.193c0.156,0.044,0.236-0.043,0.264-0.07l3.275-3.275c0.027-0.027,0.111-0.111,0.07-0.264
	c-0.041-0.152-0.155-0.183-0.192-0.192L190.71,59.191z M204.947,44.953l1.321,4.932c0.01,0.037,0.041,0.152,0.194,0.193
	c0.153,0.04,0.236-0.043,0.264-0.071c0,0,0,0,0,0l3.275-3.274c0.027-0.027,0.111-0.111,0.07-0.265
	c-0.041-0.152-0.156-0.183-0.193-0.193L204.947,44.953z M163.86,18.322l-3.275,3.274c-0.027,0.027-0.111,0.111-0.07,0.264
	c0.041,0.153,0.156,0.184,0.193,0.194l4.931,1.321l-1.321-4.932c-0.01-0.037-0.041-0.152-0.193-0.192
	C163.976,18.213,163.889,18.294,163.86,18.322L163.86,18.322L163.86,18.322z M178.098,4.084l-3.274,3.275
	c-0.028,0.027-0.112,0.111-0.071,0.264c0.041,0.152,0.155,0.183,0.192,0.193l4.932,1.321l-1.321-4.931
	c-0.01-0.037-0.041-0.152-0.194-0.193C178.213,3.971,178.126,4.057,178.098,4.084L178.098,4.084z M47.447,209.414
	c-0.57,0-1.141-0.017-1.714-0.048c-8.518-0.476-17.066-4.596-24.072-11.602c-7.005-7.005-11.125-15.554-11.601-24.071
	c-0.517-9.256,3.15-18.088,10.603-25.541c10.908-10.908,27.655-16.807,41.683-14.675c1.092,0.166,1.842,1.187,1.676,2.278
	c-0.166,1.093-1.183,1.85-2.278,1.677c-12.627-1.924-28.357,3.652-38.253,13.548c-6.625,6.626-9.889,14.402-9.438,22.49
	c0.421,7.533,4.127,15.157,10.436,21.466c6.309,6.309,13.933,10.015,21.466,10.436c8.091,0.443,15.864-2.813,22.49-9.438
	c0.78-0.781,2.048-0.781,2.828,0c0.781,0.781,0.781,2.047,0,2.828C64.282,205.754,56.077,209.414,47.447,209.414z"/>
<g>
</g>
<g>
</g>
<g>
</g>
<g>
</g>
<g>
</g>
<g>
</g>
<g>
</g>
<g>
</g>
<g>
</g>
<g>
</g>
<g>
</g>
<g>
</g>
<g>
</g>
<g>
</g>
<g>
</g>
</svg>
