<?xml version="1.0" encoding="iso-8859-1"?>
<!-- Generator: Adobe Illustrator 17.1.0, SVG Export Plug-In . SVG Version: 6.00 Build 0)  -->
<!DOCTYPE svg PUBLIC "-//W3C//DTD SVG 1.1//EN" "http://www.w3.org/Graphics/SVG/1.1/DTD/svg11.dtd">
<svg version="1.1" id="Capa_1" xmlns="http://www.w3.org/2000/svg" xmlns:xlink="http://www.w3.org/1999/xlink" x="0px" y="0px"
	 viewBox="0 0 195.667 195.667" style="enable-background:new 0 0 195.667 195.667;" xml:space="preserve">
<path d="M157.208,195.667H38.459c-5.234,0-9.492-4.258-9.492-9.492V9.492C28.967,4.258,33.225,0,38.459,0h118.749
	c5.234,0,9.492,4.258,9.492,9.492v176.683C166.7,191.409,162.442,195.667,157.208,195.667z M38.459,4
	c-3.028,0-5.492,2.464-5.492,5.492v176.683c0,3.028,2.464,5.492,5.492,5.492h118.749c3.028,0,5.492-2.464,5.492-5.492V9.492
	c0-3.028-2.464-5.492-5.492-5.492H38.459z M97.833,178.879c-26.181,0-47.479-21.299-47.479-47.48s21.299-47.48,47.479-47.48
	s47.48,21.3,47.48,47.48S124.014,178.879,97.833,178.879z M97.833,87.919c-23.975,0-43.479,19.505-43.479,43.48
	s19.505,43.48,43.479,43.48c23.976,0,43.48-19.505,43.48-43.48S121.809,87.919,97.833,87.919z M97.833,169.134
	c-20.807,0-37.734-16.928-37.734-37.734s16.928-37.734,37.734-37.734c1.104,0,2,0.896,2,2s-0.896,2-2,2
	c-18.602,0-33.734,15.133-33.734,33.734s15.133,33.734,33.734,33.734c1.104,0,2,0.896,2,2S98.938,169.134,97.833,169.134z
	 M97.833,150.184c-10.357,0-18.784-8.427-18.784-18.784c0-10.358,8.427-18.785,18.784-18.785c10.358,0,18.785,8.427,18.785,18.785
	C116.618,141.757,108.191,150.184,97.833,150.184z M97.833,116.615c-8.152,0-14.784,6.632-14.784,14.785
	c0,8.152,6.632,14.784,14.784,14.784s14.785-6.632,14.785-14.784C112.618,123.247,105.985,116.615,97.833,116.615z M150.894,69.513
	H44.773c-1.104,0-2-0.896-2-2V16.619c0-1.104,0.896-2,2-2h106.12c1.104,0,2,0.896,2,2v50.895
	C152.894,68.618,151.998,69.513,150.894,69.513z M46.773,65.513h102.12V18.619H46.773V65.513z M112.361,58.143H57.136
	c-1.104,0-2-0.896-2-2s0.896-2,2-2h55.226c1.104,0,2,0.896,2,2S113.466,58.143,112.361,58.143z M121.024,44.788H57.136
	c-1.104,0-2-0.896-2-2s0.896-2,2-2h63.889c1.104,0,2,0.896,2,2S122.129,44.788,121.024,44.788z M97.833,31.433H57.136
	c-1.104,0-2-0.896-2-2s0.896-2,2-2h40.697c1.104,0,2,0.896,2,2S98.938,31.433,97.833,31.433z"/>
<g>
</g>
<g>
</g>
<g>
</g>
<g>
</g>
<g>
</g>
<g>
</g>
<g>
</g>
<g>
</g>
<g>
</g>
<g>
</g>
<g>
</g>
<g>
</g>
<g>
</g>
<g>
</g>
<g>
</g>
</svg>
