<?xml version="1.0" encoding="utf-8"?>
<!-- Generator: Adobe Illustrator 21.0.2, SVG Export Plug-In . SVG Version: 6.00 Build 0)  -->
<svg version="1.1" id="Capa_1" xmlns="http://www.w3.org/2000/svg" xmlns:xlink="http://www.w3.org/1999/xlink" x="0px" y="0px"
	 viewBox="0 0 437 405.7" style="enable-background:new 0 0 437 405.7;" xml:space="preserve">
<path d="M369.9,331.6H182.8c-5.9,0-10.8-4.8-10.8-10.8v-61c0-5.9,4.8-10.8,10.8-10.8h187.2c5.9,0,10.8,4.8,10.8,10.8v61
	C380.7,326.8,375.9,331.6,369.9,331.6z M182.8,253.1c-3.7,0-6.8,3-6.8,6.8v61c0,3.7,3,6.8,6.8,6.8h187.2c3.7,0,6.8-3,6.8-6.8v-61
	c0-3.7-3-6.8-6.8-6.8C369.9,253.1,182.8,253.1,182.8,253.1z M359.6,317.4h-21.5c-4.1,0-7.4-3.3-7.4-7.4v-0.1c0-4.1,3.3-7.4,7.4-7.4
	h21.5c4.1,0,7.4,3.3,7.4,7.4v0.1C367,314.1,363.7,317.4,359.6,317.4z M350.8,313.4h8.7c1.9,0,3.4-1.5,3.4-3.4v-0.1
	c0-1.9-1.5-3.4-3.4-3.4h-8.7V313.4z M338.1,306.5c-1.9,0-3.4,1.5-3.4,3.4v0.1c0,1.9,1.5,3.4,3.4,3.4h8.7v-7
	C346.8,306.5,338.1,306.5,338.1,306.5z M317.5,317.4H189c-1.1,0-2-0.9-2-2v-26.3c0-1.1,0.9-2,2-2h128.5c1.1,0,2,0.9,2,2v26.3
	C319.5,316.5,318.6,317.4,317.5,317.4z M191,313.4h124.5v-22.3H191V313.4z M296.7,310.7h-6.8c-1.1,0-2-0.9-2-2s0.9-2,2-2h6.8
	c1.1,0,2,0.9,2,2S297.8,310.7,296.7,310.7z M280.1,310.7h-6.8c-1.1,0-2-0.9-2-2s0.9-2,2-2h6.8c1.1,0,2,0.9,2,2
	S281.2,310.7,280.1,310.7z M263.5,310.7h-6.8c-1.1,0-2-0.9-2-2s0.9-2,2-2h6.8c1.1,0,2,0.9,2,2S264.6,310.7,263.5,310.7z M247,310.7
	h-6.8c-1.1,0-2-0.9-2-2s0.9-2,2-2h6.8c1.1,0,2,0.9,2,2S248.1,310.7,247,310.7z M230.4,310.7h-6.8c-1.1,0-2-0.9-2-2s0.9-2,2-2h6.8
	c1.1,0,2,0.9,2,2S231.5,310.7,230.4,310.7z M213.9,310.7h-6.8c-1.1,0-2-0.9-2-2s0.9-2,2-2h6.8c1.1,0,2,0.9,2,2
	S215,310.7,213.9,310.7z M280.1,305.3h-6.8c-1.1,0-2-0.9-2-2c0-1.1,0.9-2,2-2h6.8c1.1,0,2,0.9,2,2
	C282.1,304.4,281.2,305.3,280.1,305.3z M263.5,305.3h-6.8c-1.1,0-2-0.9-2-2c0-1.1,0.9-2,2-2h6.8c1.1,0,2,0.9,2,2
	C265.5,304.4,264.6,305.3,263.5,305.3z M247,305.3h-6.8c-1.1,0-2-0.9-2-2c0-1.1,0.9-2,2-2h6.8c1.1,0,2,0.9,2,2
	C249,304.4,248.1,305.3,247,305.3z M230.4,305.3h-6.8c-1.1,0-2-0.9-2-2c0-1.1,0.9-2,2-2h6.8c1.1,0,2,0.9,2,2
	C232.4,304.4,231.5,305.3,230.4,305.3z M280.1,299.8h-6.8c-1.1,0-2-0.9-2-2c0-1.1,0.9-2,2-2h6.8c1.1,0,2,0.9,2,2
	C282.1,298.9,281.2,299.8,280.1,299.8z M247,299.8h-6.8c-1.1,0-2-0.9-2-2c0-1.1,0.9-2,2-2h6.8c1.1,0,2,0.9,2,2
	C249,298.9,248.1,299.8,247,299.8z M348.8,299.1c-10,0-18.2-8.1-18.2-18.2c0-10,8.1-18.2,18.2-18.2s18.2,8.1,18.2,18.2
	C367,290.9,358.9,299.1,348.8,299.1z M348.8,266.8c-7.8,0-14.2,6.4-14.2,14.2s6.4,14.2,14.2,14.2s14.2-6.4,14.2-14.2
	S356.6,266.8,348.8,266.8z M348.8,290.5c-5.3,0-9.6-4.3-9.6-9.6s4.3-9.6,9.6-9.6s9.6,4.3,9.6,9.6S354.1,290.5,348.8,290.5z
	 M348.8,275.3c-3.1,0-5.6,2.5-5.6,5.6c0,3.1,2.5,5.6,5.6,5.6s5.6-2.5,5.6-5.6C354.4,277.8,351.9,275.3,348.8,275.3z M317.5,282.1
	h-20.3c-1.1,0-2-0.9-2-2v-6.3c0-1.1,0.9-2,2-2h20.3c1.1,0,2,0.9,2,2v6.3C319.5,281.2,318.6,282.1,317.5,282.1z M299.2,278.1h16.3
	v-2.3h-16.3V278.1z M281.4,282.1h-20.3c-1.1,0-2-0.9-2-2v-6.3c0-1.1,0.9-2,2-2h20.3c1.1,0,2,0.9,2,2v6.3
	C283.4,281.2,282.5,282.1,281.4,282.1z M263.1,278.1h16.3v-2.3h-16.3V278.1z M245.4,282.1h-20.3c-1.1,0-2-0.9-2-2v-6.3
	c0-1.1,0.9-2,2-2h20.3c1.1,0,2,0.9,2,2v6.3C247.4,281.2,246.5,282.1,245.4,282.1z M227.1,278.1h16.3v-2.3h-16.3V278.1z M209.3,282.1
	H189c-1.1,0-2-0.9-2-2v-6.3c0-1.1,0.9-2,2-2h20.3c1.1,0,2,0.9,2,2v6.3C211.3,281.2,210.4,282.1,209.3,282.1z M191,278.1h16.3v-2.3
	H191V278.1z M317.5,266.8H189c-1.1,0-2-0.9-2-2c0-1.1,0.9-2,2-2h128.5c1.1,0,2,0.9,2,2C319.5,265.9,318.6,266.8,317.5,266.8z"/>
<path d="M153,333.5H27.5c-6.1,0-11-4.9-11-11V136c0-6.1,4.9-11,11-11H153c6.1,0,11,4.9,11,11v186.5C164,328.6,159,333.5,153,333.5z
	 M27.5,129c-3.9,0-7,3.1-7,7v186.5c0,3.9,3.2,7,7,7H153c3.9,0,7-3.2,7-7V136c0-3.9-3.1-7-7-7H27.5z M151.7,323.5H28.8
	c-1.1,0-2-0.9-2-2V137c0-1.1,0.9-2,2-2h122.8c1.1,0,2,0.9,2,2v184.6C153.7,322.6,152.8,323.5,151.7,323.5z M30.8,319.5h118.8V139
	H30.8V319.5z M90.2,307.1c-23.5,0-42.6-19.1-42.6-42.6c0-23.5,19.1-42.6,42.6-42.6s42.6,19.1,42.6,42.6
	C132.8,288,113.7,307.1,90.2,307.1z M90.2,226c-21.3,0-38.6,17.3-38.6,38.6s17.3,38.6,38.6,38.6s38.6-17.3,38.6-38.6
	S111.5,226,90.2,226z M90.2,299.3c-19.2,0-34.8-15.6-34.8-34.8c0-19.2,15.6-34.8,34.8-34.8c1.1,0,2,0.9,2,2s-0.9,2-2,2
	c-17,0-30.8,13.8-30.8,30.8c0,17,13.8,30.8,30.8,30.8c1.1,0,2,0.9,2,2S91.4,299.3,90.2,299.3z M90.2,283.9
	c-10.7,0-19.4-8.7-19.4-19.4s8.7-19.4,19.4-19.4s19.4,8.7,19.4,19.4S100.9,283.9,90.2,283.9z M90.2,249.1c-8.5,0-15.4,6.9-15.4,15.4
	s6.9,15.4,15.4,15.4s15.4-6.9,15.4-15.4S98.7,249.1,90.2,249.1z M90.2,200.4c-9.1,0-16.5-7.4-16.5-16.5s7.4-16.5,16.5-16.5
	s16.5,7.4,16.5,16.5S99.4,200.4,90.2,200.4z M90.2,171.4c-6.9,0-12.5,5.6-12.5,12.5s5.6,12.5,12.5,12.5s12.5-5.6,12.5-12.5
	S97.1,171.4,90.2,171.4z M90.2,193.6c-5.4,0-9.7-4.4-9.7-9.7c0-5.4,4.4-9.7,9.7-9.7c1.1,0,2,0.9,2,2c0,1.1-0.9,2-2,2
	c-3.2,0-5.7,2.6-5.7,5.7c0,3.2,2.6,5.7,5.7,5.7c1.1,0,2,0.9,2,2S91.4,193.6,90.2,193.6z"/>
<path d="M340,244.5H214.5c-6.1,0-11-4.9-11-11V47c0-6.1,4.9-11,11-11H340c6.1,0,11,4.9,11,11v186.5C351,239.6,346,244.5,340,244.5z
	 M214.5,40c-3.9,0-7,3.2-7,7v186.5c0,3.9,3.2,7,7,7H340c3.9,0,7-3.1,7-7V47c0-3.9-3.1-7-7-7H214.5z M338.7,234.5H215.8
	c-1.1,0-2-0.9-2-2V48c0-1.1,0.9-2,2-2h122.8c1.1,0,2,0.9,2,2v184.6C340.7,233.6,339.8,234.5,338.7,234.5z M217.8,230.5h118.8V50
	H217.8V230.5z M277.2,218.1c-23.5,0-42.6-19.1-42.6-42.6s19.1-42.6,42.6-42.6s42.6,19.1,42.6,42.6S300.7,218.1,277.2,218.1z
	 M277.2,137c-21.3,0-38.6,17.3-38.6,38.6s17.3,38.6,38.6,38.6s38.6-17.3,38.6-38.6S298.5,137,277.2,137z M277.2,210.3
	c-19.2,0-34.8-15.6-34.8-34.8s15.6-34.8,34.8-34.8c1.1,0,2,0.9,2,2s-0.9,2-2,2c-17,0-30.8,13.8-30.8,30.8s13.8,30.8,30.8,30.8
	c1.1,0,2,0.9,2,2S278.4,210.3,277.2,210.3z M277.2,194.9c-10.7,0-19.4-8.7-19.4-19.4s8.7-19.4,19.4-19.4s19.4,8.7,19.4,19.4
	S287.9,194.9,277.2,194.9z M277.2,160.1c-8.5,0-15.4,6.9-15.4,15.4s6.9,15.4,15.4,15.4s15.4-6.9,15.4-15.4S285.7,160.1,277.2,160.1z
	 M277.2,111.4c-9.1,0-16.5-7.4-16.5-16.5s7.4-16.5,16.5-16.5s16.5,7.4,16.5,16.5S286.4,111.4,277.2,111.4z M277.2,82.4
	c-6.9,0-12.5,5.6-12.5,12.5c0,6.9,5.6,12.5,12.5,12.5s12.5-5.6,12.5-12.5C289.8,88,284.1,82.4,277.2,82.4z M277.2,104.6
	c-5.4,0-9.7-4.4-9.7-9.7s4.4-9.7,9.7-9.7c1.1,0,2,0.9,2,2s-0.9,2-2,2c-3.2,0-5.7,2.6-5.7,5.7s2.6,5.7,5.7,5.7c1.1,0,2,0.9,2,2
	S278.4,104.6,277.2,104.6z"/>
</svg>
