<?xml version="1.0" encoding="iso-8859-1"?>
<!-- Generator: Adobe Illustrator 17.1.0, SVG Export Plug-In . SVG Version: 6.00 Build 0)  -->
<!DOCTYPE svg PUBLIC "-//W3C//DTD SVG 1.1//EN" "http://www.w3.org/Graphics/SVG/1.1/DTD/svg11.dtd">
<svg version="1.1" id="Capa_1" xmlns="http://www.w3.org/2000/svg" xmlns:xlink="http://www.w3.org/1999/xlink" x="0px" y="0px"
	 viewBox="0 0 196.781 196.781" style="enable-background:new 0 0 196.781 196.781;" xml:space="preserve">
<path d="M98.311,189.945c-40.603,0-74.673-28.506-83.25-66.555C6.383,121.45,0,113.614,0,104.613s6.383-16.837,15.061-18.777
	c1.959-8.69,5.248-16.885,9.641-24.353c-2.167-3.191-3.307-6.888-3.307-10.77c0-10.62,8.641-19.261,19.261-19.261
	c3.431,0,6.753,0.901,9.69,2.617c8.748-5.967,18.659-10.352,29.314-12.736c2.148-8.478,9.787-14.498,18.65-14.498
	s16.503,6.021,18.651,14.499c10.793,2.415,20.821,6.883,29.651,12.967c3.032-1.868,6.479-2.849,10.055-2.849
	c10.62,0,19.261,8.641,19.261,19.261c0,4.07-1.301,8.039-3.688,11.32c4.226,7.308,7.398,15.3,9.311,23.762
	c8.775,1.875,15.229,9.727,15.229,18.817c0,9.09-6.454,16.941-15.229,18.816C172.959,161.458,138.898,189.945,98.311,189.945z
	 M18.522,120.433c7.383,37.301,40.353,65.513,79.788,65.513c39.586,0,72.657-28.429,79.871-65.941
	c0.97-5.063,1.461-10.232,1.461-15.391c0-5.16-0.491-10.333-1.462-15.397c-6.503-33.797-33.992-60.22-68.326-65.118
	c-7.716-1.096-15.624-1.085-23.336,0.036c-34.071,4.97-61.359,31.146-67.995,64.654c-1.024,5.196-1.544,10.517-1.544,15.825
	C16.979,109.92,17.498,115.238,18.522,120.433z M183.643,104.613c0,4.92-0.418,9.741-1.222,14.435
	c6.067-2.063,10.36-7.837,10.36-14.435c0-6.599-4.293-12.373-10.36-14.436C183.225,94.872,183.643,99.693,183.643,104.613z
	 M14.189,90.241C8.219,92.357,4,98.101,4,104.613s4.219,12.256,10.189,14.372c-0.796-4.673-1.211-9.476-1.211-14.372
	S13.394,94.914,14.189,90.241z M150.206,36.897c7.795,5.972,14.415,13.13,19.732,21.338c1.295-2.282,1.99-4.875,1.99-7.521
	c0-8.415-6.846-15.261-15.261-15.261C154.412,35.453,152.22,35.947,150.206,36.897z M40.655,35.453
	c-8.415,0-15.261,6.846-15.261,15.261c0,2.443,0.57,4.793,1.667,6.925c5.313-8.051,11.896-15.077,19.621-20.946
	C44.792,35.877,42.749,35.453,40.655,35.453z M111.154,20.246c0.443,0.066,0.887,0.138,1.329,0.211
	c-2.262-5.717-7.82-9.621-14.173-9.621S86.4,14.74,84.139,20.457c0.355-0.06,0.712-0.116,1.069-0.172
	C93.666,18.976,102.686,18.961,111.154,20.246z M98.311,180.945c-22.019,0-41.889-9.371-55.834-24.334
	c-0.071-0.054-0.14-0.114-0.205-0.179c-0.104-0.104-0.195-0.218-0.271-0.338c-12.43-13.583-20.021-31.662-20.021-51.481
	c0-14.101,3.843-27.319,10.536-38.666c0.031-0.069,0.066-0.136,0.104-0.202c5.625-9.485,13.402-17.804,22.49-24.055
	c0.076-0.053,0.155-0.099,0.236-0.14c12.238-8.364,27.022-13.264,42.931-13.27c0.001,0,0.002,0,0.002,0c0.02,0,0.045,0,0.064,0
	h0.001c16.163,0.007,31.163,5.062,43.514,13.671c0.065,0.036,0.13,0.075,0.191,0.119c8.925,6.252,16.56,14.514,22.079,23.892
	c0.035,0.061,0.067,0.122,0.096,0.185c6.615,11.293,10.413,24.429,10.419,38.433c0,0.001,0,0.001,0,0.001c0,0.011,0,0.021,0,0.032
	s0,0.021,0,0.032c0,0,0,0,0,0.001c-0.008,19.805-7.598,37.869-20.019,51.445c-0.076,0.12-0.168,0.234-0.273,0.34
	c-0.066,0.066-0.136,0.127-0.209,0.183C140.197,171.574,120.326,180.945,98.311,180.945z M46.499,155.037
	c13.148,13.508,31.517,21.908,51.812,21.908s38.663-8.4,51.812-21.908c-3.833-3.655-9.473-4.836-14.458-3.001l-7.974,2.931
	c-18.945,6.966-39.813,6.966-58.76,0l-7.974-2.931C55.971,150.205,50.333,151.383,46.499,155.037z M56.165,147.186
	c2.075,0,4.165,0.358,6.173,1.097l7.974,2.931c18.055,6.637,37.943,6.637,55.998,0l7.974-2.931
	c6.397-2.353,13.621-0.851,18.55,3.813c7.497-8.598,12.997-18.975,15.774-30.409c-6.338-3.301-10.348-9.831-10.348-17.073
	s4.01-13.772,10.348-17.074c-1.564-6.439-3.991-12.54-7.152-18.181c-1.576,0.409-3.18,0.616-4.787,0.616
	c-10.62,0-19.261-8.641-19.261-19.261c0-2.138,0.352-4.231,1.046-6.245c-6.858-4.592-14.541-8.044-22.776-10.081
	c-3.17,6.628-9.941,10.97-17.366,10.97c-7.424,0-14.195-4.343-17.365-10.97c-8.012,1.981-15.499,5.301-22.215,9.708
	c0.788,2.128,1.186,4.347,1.186,6.618c0,10.62-8.641,19.261-19.261,19.261c-1.829,0-3.638-0.262-5.396-0.78
	c-3.195,5.665-5.648,11.801-7.229,18.276c6.426,3.276,10.491,9.832,10.491,17.143s-4.065,13.867-10.491,17.142
	c2.782,11.407,8.275,21.761,15.758,30.341C47.171,148.896,51.633,147.186,56.165,147.186z M27.17,91.566
	c-0.79,4.322-1.19,8.699-1.19,13.047s0.4,8.725,1.19,13.046c4.532-2.733,7.352-7.628,7.352-13.046
	C34.521,99.196,31.702,94.301,27.17,91.566z M169.468,91.649c-4.445,2.753-7.208,7.613-7.208,12.964
	c0,5.35,2.763,10.21,7.208,12.963c0.78-4.292,1.175-8.641,1.175-12.963S170.248,95.941,169.468,91.649z M141.89,46.918
	c-0.32,1.237-0.482,2.507-0.482,3.796c0,8.415,6.846,15.261,15.261,15.261c0.875,0,1.75-0.078,2.618-0.233
	C154.644,58.484,148.74,52.105,141.89,46.918z M37.412,65.62c1.066,0.235,2.15,0.354,3.243,0.354
	c8.415,0,15.261-6.846,15.261-15.261c0-1.44-0.203-2.855-0.605-4.229C48.25,51.72,42.174,58.209,37.412,65.62z M84.999,33.522
	c2.665,4.766,7.759,7.835,13.312,7.835c5.554,0,10.647-3.069,13.312-7.835c-4.402-0.822-8.858-1.239-13.28-1.241h-0.001
	c-0.021,0-0.043-0.001-0.061,0h-0.001C93.854,32.283,89.398,32.7,84.999,33.522z"/>
<g>
</g>
<g>
</g>
<g>
</g>
<g>
</g>
<g>
</g>
<g>
</g>
<g>
</g>
<g>
</g>
<g>
</g>
<g>
</g>
<g>
</g>
<g>
</g>
<g>
</g>
<g>
</g>
<g>
</g>
</svg>
