<?xml version="1.0" encoding="iso-8859-1"?>
<!-- Generator: Adobe Illustrator 17.1.0, SVG Export Plug-In . SVG Version: 6.00 Build 0)  -->
<!DOCTYPE svg PUBLIC "-//W3C//DTD SVG 1.1//EN" "http://www.w3.org/Graphics/SVG/1.1/DTD/svg11.dtd">
<svg version="1.1" id="Capa_1" xmlns="http://www.w3.org/2000/svg" xmlns:xlink="http://www.w3.org/1999/xlink" x="0px" y="0px"
	 viewBox="0 0 212.96 212.96" style="enable-background:new 0 0 212.96 212.96;" xml:space="preserve">
<path d="M112.897,212.96h-12.834c-1.104,0-2-0.896-2-2v-12.293h-2.934c-1.104,0-2-0.896-2-2v-32.998
	c-22.689-5.93-39.482-26.604-39.482-51.125v-33.21c0-1.104,0.896-2,2-2h35.688c1.104,0,2,0.896,2,2c0,1.686,0.319,3.298,0.899,4.78
	c0.022,0.044,0.043,0.09,0.062,0.137c0.286,0.708,0.628,1.381,1.019,2.014c2.309,3.705,6.409,6.184,11.08,6.214
	c-0.001,0,0.007,0,0.011,0c0.01-0.001,0.012,0,0.017,0c0.006,0,0.012,0,0.014,0c0.005-0.001,0.01-0.001,0.016,0
	c0.005,0,0.005-0.001,0.016,0c0.008,0,0.02,0,0.027,0c0.009-0.001,0.011,0,0.016,0c0.01-0.001,0.011,0,0.016,0
	c0.002,0,0.008,0,0.014,0c0.006-0.001,0.01-0.001,0.017,0c0.004,0,0.01,0,0.011,0c4.627-0.03,8.694-2.462,11.015-6.109
	c0.418-0.663,0.781-1.371,1.083-2.118c0.021-0.05,0.042-0.099,0.066-0.146c0.578-1.479,0.896-3.089,0.896-4.771c0-1.104,0.896-2,2-2
	h35.688c1.104,0,2,0.896,2,2v33.21c0,24.521-16.793,45.195-39.482,51.125v32.998c0,1.104-0.896,2-2,2h-2.934v12.293
	C114.897,212.064,114.001,212.96,112.897,212.96z M102.063,208.96h8.834v-10.209h-8.834V208.96z M97.129,194.667h18.701v-30.118
	c-6.072,1.088-12.629,1.088-18.701,0V194.667z M57.647,81.334v31.21c0,26.927,21.906,48.833,48.833,48.833
	s48.833-21.906,48.833-48.833v-31.21h-31.804c-0.065,0.564-0.159,1.12-0.278,1.666h24.397c1.104,0,2,0.896,2,2v26.96
	c0,23.792-19.356,43.147-43.148,43.147s-43.148-19.355-43.148-43.147V85c0-1.104,0.896-2,2-2h24.397
	c-0.119-0.546-0.213-1.102-0.278-1.666H57.647z M67.332,87v24.96c0,21.586,17.562,39.147,39.148,39.147s39.148-17.562,39.148-39.147
	V87h-23.814c-0.18,0.358-0.373,0.712-0.577,1.056c-3.032,5.156-8.536,8.384-14.646,8.423h-0.001c-0.005,0-0.013-0.002-0.017,0
	c-0.009,0-0.017,0.002-0.027,0c-0.013,0-0.017,0-0.023,0c-0.011,0-0.014,0-0.02,0c-0.009,0-0.016,0-0.023,0s-0.017,0-0.023,0
	c-0.006,0-0.007-0.001-0.02,0c-0.006,0-0.013,0-0.023,0c-0.01,0-0.02,0-0.026,0c-0.005-0.002-0.013,0-0.018,0h-0.001
	c-6.158-0.04-11.702-3.318-14.719-8.548c-0.178-0.304-0.346-0.615-0.504-0.931H67.332z M106.48,144.696
	c-18.426,0-33.417-14.991-33.417-33.417V94.877c0-1.104,0.896-2,2-2s2,0.896,2,2v16.402c0,16.221,13.196,29.417,29.417,29.417
	c1.104,0,2,0.896,2,2S107.584,144.696,106.48,144.696z M106.48,87.543c-4.526,0-8.209-3.683-8.209-8.209s3.683-8.209,8.209-8.209
	s8.208,3.683,8.208,8.209S111.006,87.543,106.48,87.543z M106.48,75.125c-2.321,0-4.209,1.888-4.209,4.209s1.888,4.209,4.209,4.209
	c2.32,0,4.208-1.888,4.208-4.209S108.8,75.125,106.48,75.125z M147.628,75.667h-27.441c-0.81,0-1.538-0.487-1.848-1.235
	c-1.994-4.818-6.649-7.932-11.859-7.932s-9.865,3.113-11.859,7.932c-0.31,0.748-1.038,1.235-1.848,1.235H65.332
	c-1.104,0-2-0.896-2-2V16.153C63.332,7.246,70.578,0,79.484,0h53.991c8.907,0,16.153,7.246,16.153,16.153v57.514
	C149.628,74.771,148.733,75.667,147.628,75.667z M121.465,71.667h24.163V16.153c0-6.307-4.827-11.506-10.981-12.098v14.445
	c0,4.136-3.364,7.5-7.5,7.5s-7.5-3.364-7.5-7.5V4h-5.667v14.501c0,4.136-3.364,7.5-7.5,7.5s-7.5-3.364-7.5-7.5V4h-5.667v14.501
	c0,4.136-3.364,7.5-7.5,7.5s-7.5-3.364-7.5-7.5V4.056C72.16,4.647,67.332,9.847,67.332,16.153v55.514h24.163
	c2.864-5.61,8.607-9.167,14.985-9.167S118.601,66.057,121.465,71.667z M123.647,4.001v14.5c0,1.93,1.57,3.5,3.5,3.5
	s3.5-1.57,3.5-3.5v-14.5H123.647z M102.98,4.001v14.5c0,1.93,1.57,3.5,3.5,3.5s3.5-1.57,3.5-3.5v-14.5H102.98z M82.313,4.001v14.5
	c0,1.93,1.57,3.5,3.5,3.5s3.5-1.57,3.5-3.5v-14.5H82.313z"/>
<g>
</g>
<g>
</g>
<g>
</g>
<g>
</g>
<g>
</g>
<g>
</g>
<g>
</g>
<g>
</g>
<g>
</g>
<g>
</g>
<g>
</g>
<g>
</g>
<g>
</g>
<g>
</g>
<g>
</g>
</svg>
