<?xml version="1.0" encoding="iso-8859-1"?>
<!-- Generator: Adobe Illustrator 17.1.0, SVG Export Plug-In . SVG Version: 6.00 Build 0)  -->
<!DOCTYPE svg PUBLIC "-//W3C//DTD SVG 1.1//EN" "http://www.w3.org/Graphics/SVG/1.1/DTD/svg11.dtd">
<svg version="1.1" id="Capa_1" xmlns="http://www.w3.org/2000/svg" xmlns:xlink="http://www.w3.org/1999/xlink" x="0px" y="0px"
	 viewBox="0 0 200.596 200.596" style="enable-background:new 0 0 200.596 200.596;" xml:space="preserve">
<path d="M198.596,200.048c-1.104,0-2-0.896-2-2v-10.955H4v10.955c0,1.104-0.896,2-2,2s-2-0.896-2-2v-21.697c0-1.104,0.896-2,2-2
	h14.992V18.784h-2.943c-4.481,0-8.128-3.646-8.128-8.129V8.676c0-4.481,3.646-8.128,8.128-8.128c4.482,0,8.129,3.646,8.129,8.128
	c0,1.104-0.896,2.038-2,2.038s-2-0.857-2-1.962V8.676c0-2.276-1.853-4.128-4.129-4.128S9.921,6.399,9.921,8.676v1.979
	c0,2.276,1.852,4.129,4.128,4.129h30.075l9.272-9.273c0.375-0.375,0.884-0.586,1.414-0.586h90.975c0.53,0,1.039,0.211,1.414,0.586
	l9.273,9.273h29.015c2.276,0,4.128-1.853,4.128-4.129V8.676c0-2.276-1.852-4.128-4.128-4.128s-4.129,1.852-4.129,4.128
	c0,1.104-0.896,2.038-2,2.038s-2-0.857-2-1.962c0-4.558,3.646-8.204,8.129-8.204c4.481,0,8.128,3.646,8.128,8.128v1.979
	c0,4.482-3.646,8.129-8.128,8.129h-1.883v155.566h14.991c1.104,0,2,0.896,2,2v21.697C200.596,199.152,199.7,200.048,198.596,200.048
	z M4,183.093h192.596v-4.742H4V183.093z M160.473,174.351h19.132v-19.132L160.473,174.351z M45.78,174.351h109.036l24.788-24.788
	V43.572l-24.788-24.788h-44.011v10.997h5.205c0.031,0.001,0.062,0.001,0.093,0h4.369c1.104,0,2,0.896,2,2s-0.896,2-2,2h-1.688
	l2.596,8.228c21.864,8.478,37.405,29.737,37.405,54.559c0,32.251-26.237,58.488-58.488,58.488c-32.25,0-58.487-26.237-58.487-58.488
	c0-24.728,15.422-45.919,37.154-54.461l2.626-8.325h-1.467c-1.104,0-2-0.896-2-2s0.896-2,2-2h4.148c0.031,0,0.062,0,0.093,0h5.426
	V18.784H45.78L20.992,43.572v105.99L45.78,174.351z M20.992,174.351h19.132l-19.132-19.132V174.351z M100.298,42.079
	c-30.044,0-54.487,24.443-54.487,54.488s24.443,54.488,54.487,54.488c30.045,0,54.488-24.443,54.488-54.488
	S130.343,42.079,100.298,42.079z M85.785,33.781l-2.115,6.705c5.272-1.565,10.854-2.407,16.628-2.407
	c5.687,0,11.184,0.815,16.386,2.336l-2.093-6.634H85.785z M160.473,18.784l19.132,19.132V18.784H160.473z M20.992,18.784v19.132
	l19.132-19.132H20.992z M93.791,29.781h13.015V18.784H93.791V29.781z M108.806,14.784h42.011l-5.859-5.859H55.639l-5.858,5.859
	H108.806z M100.298,146.752c-27.671,0-50.184-22.513-50.184-50.185s22.513-50.185,50.184-50.185c1.104,0,2,0.896,2,2s-0.896,2-2,2
	c-25.466,0-46.184,20.719-46.184,46.185s20.718,46.185,46.184,46.185c1.104,0,2,0.896,2,2S101.402,146.752,100.298,146.752z
	 M100.298,118.12c-11.884,0-21.552-9.669-21.552-21.553s9.668-21.552,21.552-21.552s21.553,9.668,21.553,21.552
	S112.182,118.12,100.298,118.12z M100.298,79.016c-9.678,0-17.552,7.874-17.552,17.552c0,9.679,7.874,17.553,17.552,17.553
	c9.679,0,17.553-7.874,17.553-17.553C117.851,86.89,109.977,79.016,100.298,79.016z"/>
<g>
</g>
<g>
</g>
<g>
</g>
<g>
</g>
<g>
</g>
<g>
</g>
<g>
</g>
<g>
</g>
<g>
</g>
<g>
</g>
<g>
</g>
<g>
</g>
<g>
</g>
<g>
</g>
<g>
</g>
</svg>
