<?xml version="1.0" encoding="iso-8859-1"?>
<!-- Generator: Adobe Illustrator 17.1.0, SVG Export Plug-In . SVG Version: 6.00 Build 0)  -->
<!DOCTYPE svg PUBLIC "-//W3C//DTD SVG 1.1//EN" "http://www.w3.org/Graphics/SVG/1.1/DTD/svg11.dtd">
<svg version="1.1" id="Capa_1" xmlns="http://www.w3.org/2000/svg" xmlns:xlink="http://www.w3.org/1999/xlink" x="0px" y="0px"
	 viewBox="0 0 209 209" style="enable-background:new 0 0 209 209;" xml:space="preserve">
<path d="M155.628,209c-0.021,0-0.042,0-0.063-0.001c-0.273-0.008-0.534-0.072-0.77-0.18c-0.237-0.108-0.458-0.266-0.645-0.47v0
	c-0.001-0.001-0.002-0.001-0.003-0.002c-0.02-0.021-0.038-0.043-0.057-0.065L23.862,54.573c-3.059-3.95-4.46-8.199-4.214-12.169
	c0.001-0.05,0.005-0.101,0.01-0.151c0.243-3.349,1.662-6.493,4.25-9.081l0.148-0.148c3.784-3.784,9.353-5.303,14.534-3.959
	l1.404,0.363c0.032,0.008,0.064,0.016,0.096,0.025l30.111,7.8c10.152,2.63,20.641,1.771,30.005-2.283
	c0.305-0.277,0.697-0.461,1.129-0.507c3.009-1.399,5.894-3.135,8.604-5.195l12.443-9.461c9.239-7.024,20.718-10.892,32.323-10.892
	h6.488V4h-1.082c-1.104,0-2-0.896-2-2s0.896-2,2-2h22.875c1.104,0,2,0.896,2,2s-0.896,2-2,2h-1.081v183.174h5.474
	c1.104,0,2,0.896,2,2V207c0,1.104-0.896,2-2,2H155.64C155.636,209,155.631,209,155.628,209z M157.627,205h27.753v-13.826h-27.753
	V205z M25.2,49.319c0.48,0.918,1.07,1.833,1.77,2.736l126.657,149.49V189.95L25.2,49.319z M165.194,187.174h12.712V4h-12.712
	V187.174z M156.508,187.174h4.686V12.913h-6.488c-6.941,0-13.835,1.496-20.15,4.31v145.911L156.508,187.174z M119.052,146.158
	l11.503,12.596V19.226c-2,1.117-3.923,2.373-5.752,3.764l-5.751,4.373V146.158z M103.548,129.181l11.504,12.597V30.404l-2.691,2.047
	c-2.783,2.115-5.735,3.916-8.811,5.39v91.263C103.55,129.129,103.549,129.155,103.548,129.181z M88.047,112.207l11.502,12.595V39.55
	c-3.716,1.4-7.576,2.35-11.504,2.833c0.001,0.026,0.001,0.053,0.001,0.08V112.207z M72.487,95.168l11.56,12.659V42.712
	c-3.814,0.161-7.671-0.115-11.503-0.839v52.819C72.545,94.855,72.525,95.015,72.487,95.168z M57.042,78.255l11.502,12.596V40.954
	l-11.502-2.979V78.255z M41.488,61.223l11.554,12.652V36.938L41.54,33.959v26.812C41.54,60.926,41.522,61.078,41.488,61.223z
	 M23.734,41.783L37.54,56.899V32.923c-3.801-0.967-7.879,0.153-10.654,2.928L26.737,36C25.059,37.678,24.059,39.655,23.734,41.783z"
	/>
<g>
</g>
<g>
</g>
<g>
</g>
<g>
</g>
<g>
</g>
<g>
</g>
<g>
</g>
<g>
</g>
<g>
</g>
<g>
</g>
<g>
</g>
<g>
</g>
<g>
</g>
<g>
</g>
<g>
</g>
</svg>
