<?xml version="1.0" encoding="iso-8859-1"?>
<!-- Generator: Adobe Illustrator 17.1.0, SVG Export Plug-In . SVG Version: 6.00 Build 0)  -->
<!DOCTYPE svg PUBLIC "-//W3C//DTD SVG 1.1//EN" "http://www.w3.org/Graphics/SVG/1.1/DTD/svg11.dtd">
<svg version="1.1" id="Capa_1" xmlns="http://www.w3.org/2000/svg" xmlns:xlink="http://www.w3.org/1999/xlink" x="0px" y="0px"
	 viewBox="0 0 196.555 196.555" style="enable-background:new 0 0 196.555 196.555;" xml:space="preserve">
<path d="M154.231,196.555H41.565c-1.104,0-2-0.896-2-2v-8.611h-2.564c-3.971,0-7.558-1.864-9.839-5.114
	c-2.282-3.249-2.817-7.255-1.469-10.989L63.815,64.237L46.662,19.104c-0.393-1.033,0.126-2.188,1.158-2.58
	c1.035-0.391,2.188,0.127,2.58,1.158l15.499,40.781L86.528,1.321C86.814,0.528,87.566,0,88.409,0h19.737
	c0.843,0,1.595,0.528,1.881,1.321l60.835,168.519l0,0c1.349,3.735,0.813,7.741-1.47,10.99c-2.281,3.25-5.867,5.113-9.838,5.113
	h-3.323v8.611C156.231,195.659,155.336,196.555,154.231,196.555z M43.565,192.555h108.666v-6.611H43.565V192.555z M154.231,181.943
	h5.323c2.649,0,5.042-1.243,6.564-3.412c1.523-2.168,1.881-4.841,0.981-7.334L106.742,4h-0.393v132.837
	c4.893,2.808,8.196,8.086,8.196,14.12c0,8.971-7.298,16.269-16.269,16.269c-8.97,0-16.268-7.298-16.268-16.269
	c0-6.035,3.303-11.313,8.196-14.12v-3.161l-24.21-63.7L29.455,171.197c-0.899,2.492-0.542,5.165,0.98,7.334
	c1.522,2.168,3.916,3.412,6.565,3.412H154.231z M92.866,139.948c-4.058,2.003-6.856,6.186-6.856,11.009
	c0,6.765,5.503,12.269,12.268,12.269s12.269-5.504,12.269-12.269c0-4.824-2.8-9.007-6.858-11.01
	c-0.064-0.022-0.129-0.048-0.191-0.078c-1.653-0.779-3.401-1.177-5.196-1.18c-0.004,0-0.007,0-0.011,0c-0.001,0-0.001,0-0.001,0
	c-0.008,0-0.014,0-0.021,0c0,0-0.006,0-0.01,0c-0.001,0-0.001,0-0.002,0c-1.273,0.002-2.524,0.203-3.734,0.599
	c-0.012,0.005-0.024,0.01-0.036,0.014c-0.062,0.023-0.123,0.044-0.185,0.061c-0.419,0.146-0.833,0.314-1.24,0.507
	C92.996,139.899,92.931,139.926,92.866,139.948z M98.347,134.689c1.381,0.006,2.722,0.185,4.002,0.516V4h-8.144v128.941l0.791,2.08
	c1.042-0.214,2.12-0.328,3.224-0.332c-0.001-0.001,0.008,0,0.013,0c0.004,0,0.009,0,0.013,0c0.005,0,0.009,0,0.013,0
	c0.013,0,0.014,0,0.019,0s0.008-0.001,0.019,0c0.004,0,0.01,0,0.013,0c0.004,0,0.009,0,0.013,0c0.005,0,0.011-0.001,0.013,0
	C98.339,134.689,98.342,134.689,98.347,134.689L98.347,134.689z M68.081,64.201l22.125,58.216V4h-0.393L68.081,64.201z"/>
<g>
</g>
<g>
</g>
<g>
</g>
<g>
</g>
<g>
</g>
<g>
</g>
<g>
</g>
<g>
</g>
<g>
</g>
<g>
</g>
<g>
</g>
<g>
</g>
<g>
</g>
<g>
</g>
<g>
</g>
</svg>
