<?xml version="1.0" encoding="iso-8859-1"?>
<!-- Generator: Adobe Illustrator 17.1.0, SVG Export Plug-In . SVG Version: 6.00 Build 0)  -->
<!DOCTYPE svg PUBLIC "-//W3C//DTD SVG 1.1//EN" "http://www.w3.org/Graphics/SVG/1.1/DTD/svg11.dtd">
<svg version="1.1" id="Capa_1" xmlns="http://www.w3.org/2000/svg" xmlns:xlink="http://www.w3.org/1999/xlink" x="0px" y="0px"
	 viewBox="0 0 208.497 208.497" style="enable-background:new 0 0 208.497 208.497;" xml:space="preserve">
<path d="M166.968,208.497H41.529c-6.078,0-11.023-4.945-11.023-11.023V11.023C30.506,4.945,35.451,0,41.529,0h125.439
	c6.078,0,11.023,4.945,11.023,11.023v186.451C177.991,203.552,173.046,208.497,166.968,208.497z M41.529,4
	c-3.873,0-7.023,3.15-7.023,7.023v186.451c0,3.873,3.15,7.023,7.023,7.023h125.439c3.873,0,7.023-3.15,7.023-7.023V11.023
	c0-3.873-3.15-7.023-7.023-7.023H41.529z M165.662,198.529H42.835c-1.104,0-2-0.896-2-2V11.968c0-1.104,0.896-2,2-2h122.827
	c1.104,0,2,0.896,2,2v184.562C167.662,197.634,166.767,198.529,165.662,198.529z M44.835,194.529h118.827V13.968H44.835V194.529z
	 M104.249,182.074c-23.464,0-42.554-19.089-42.554-42.554s19.089-42.554,42.554-42.554s42.554,19.089,42.554,42.554
	S127.713,182.074,104.249,182.074z M104.249,100.967c-21.259,0-38.554,17.295-38.554,38.554s17.295,38.554,38.554,38.554
	s38.554-17.295,38.554-38.554S125.507,100.967,104.249,100.967z M104.249,174.324c-19.191,0-34.804-15.613-34.804-34.804
	s15.613-34.804,34.804-34.804c1.104,0,2,0.896,2,2s-0.896,2-2,2c-16.985,0-30.804,13.818-30.804,30.804s13.818,30.804,30.804,30.804
	c1.104,0,2,0.896,2,2S105.353,174.324,104.249,174.324z M104.249,158.924c-10.699,0-19.403-8.704-19.403-19.403
	s8.704-19.403,19.403-19.403s19.403,8.704,19.403,19.403S114.948,158.924,104.249,158.924z M104.249,124.117
	c-8.493,0-15.403,6.91-15.403,15.403s6.91,15.403,15.403,15.403s15.403-6.91,15.403-15.403S112.742,124.117,104.249,124.117z
	 M104.249,75.42c-9.103,0-16.509-7.406-16.509-16.509s7.406-16.509,16.509-16.509s16.509,7.406,16.509,16.509
	S113.352,75.42,104.249,75.42z M104.249,46.401c-6.897,0-12.509,5.612-12.509,12.509s5.612,12.509,12.509,12.509
	s12.509-5.612,12.509-12.509S111.146,46.401,104.249,46.401z M104.249,68.647c-5.369,0-9.737-4.368-9.737-9.736
	s4.368-9.737,9.737-9.737c1.104,0,2,0.896,2,2s-0.896,2-2,2c-3.163,0-5.737,2.574-5.737,5.737s2.574,5.736,5.737,5.736
	c1.104,0,2,0.896,2,2S105.353,68.647,104.249,68.647z"/>
<g>
</g>
<g>
</g>
<g>
</g>
<g>
</g>
<g>
</g>
<g>
</g>
<g>
</g>
<g>
</g>
<g>
</g>
<g>
</g>
<g>
</g>
<g>
</g>
<g>
</g>
<g>
</g>
<g>
</g>
</svg>
