<?xml version="1.0" encoding="iso-8859-1"?>
<!-- Generator: Adobe Illustrator 17.1.0, SVG Export Plug-In . SVG Version: 6.00 Build 0)  -->
<!DOCTYPE svg PUBLIC "-//W3C//DTD SVG 1.1//EN" "http://www.w3.org/Graphics/SVG/1.1/DTD/svg11.dtd">
<svg version="1.1" id="Capa_1" xmlns="http://www.w3.org/2000/svg" xmlns:xlink="http://www.w3.org/1999/xlink" x="0px" y="0px"
	 viewBox="0 0 199.366 199.366" style="enable-background:new 0 0 199.366 199.366;" xml:space="preserve">
<path d="M127.566,199.366H71.801c-10.233,0-19.501-6.426-23.063-15.989c-3.164-8.498-8.306-23.07-12.857-39.424
	c-0.087-0.19-0.146-0.396-0.17-0.611c-5.028-18.179-9.293-38.486-9.293-55.072c0-35.08,6.372-49.017,16.928-72.107l0.309-0.677
	h-8.639c-1.104,0-2-0.896-2-2V6.493C33.017,2.913,35.93,0,39.511,0h120.345c3.581,0,6.494,2.913,6.494,6.493v6.992
	c0,1.104-0.896,2-2,2h-8.639l0.308,0.674c10.557,23.092,16.929,37.029,16.929,72.11c0,16.586-4.264,36.891-9.292,55.069
	c-0.024,0.218-0.083,0.425-0.171,0.616c-4.551,16.354-9.692,30.924-12.856,39.422C147.067,192.94,137.799,199.366,127.566,199.366z
	 M51.577,179.518c0.318,0.869,0.623,1.692,0.91,2.463c2.981,8.007,10.743,13.386,19.314,13.386h55.765
	c8.571,0,16.333-5.379,19.313-13.386c0.287-0.771,0.591-1.594,0.91-2.463H51.577z M50.132,175.518h99.102
	c1.432-4.015,3.053-8.717,4.736-13.896l-9.811,6.486c-0.669,0.443-1.537,0.443-2.206,0l-13.312-8.802l-13.312,8.802
	c-0.669,0.443-1.537,0.443-2.206,0l-13.312-8.802l-13.312,8.802c-0.669,0.443-1.537,0.443-2.206,0l-13.312-8.802l-13.312,8.802
	c-0.669,0.443-1.537,0.443-2.206,0l-10.14-6.704C47.034,166.669,48.68,171.446,50.132,175.518z M129.783,155.267l13.273,8.776
	l12.844-8.493c1.041-3.349,2.086-6.842,3.107-10.432H40.358c1,3.514,2.022,6.934,3.041,10.217l13.17,8.708l13.274-8.777
	c0.093-0.064,0.19-0.12,0.292-0.167c0.271-0.128,0.561-0.189,0.847-0.189c0.001,0,0.003,0,0.004,0c0.285,0,0.572,0.061,0.841,0.187
	c0.104,0.048,0.203,0.104,0.298,0.17l13.273,8.777l13.274-8.777c0.093-0.064,0.19-0.12,0.291-0.167
	c0.271-0.128,0.561-0.189,0.848-0.189c0.001,0,0.003,0,0.004,0c0.285,0,0.572,0.061,0.841,0.187
	c0.104,0.048,0.203,0.104,0.298,0.171l13.273,8.776l13.274-8.777c0.093-0.064,0.19-0.12,0.292-0.168
	c0.271-0.127,0.561-0.188,0.847-0.188c0.001,0,0.003,0,0.004,0c0.284,0,0.57,0.061,0.839,0.186
	C129.587,155.143,129.688,155.2,129.783,155.267z M39.242,141.118h120.883c4.812-17.587,8.823-37.001,8.823-52.849
	c0-34.21-6.236-47.85-16.567-70.446l-1.067-2.338h-10.828l17.127,38.126c2.747,0.622,4.805,3.082,4.805,6.015
	c0,3.4-2.767,6.167-6.167,6.167s-6.167-2.767-6.167-6.167c0-2.396,1.374-4.478,3.376-5.498l-16.065-35.762L121.33,54.128
	c2.002,1.021,3.376,3.102,3.376,5.498c0,3.4-2.767,6.167-6.167,6.167s-6.167-2.767-6.167-6.167c0-2.396,1.374-4.478,3.376-5.498
	L99.684,18.366L83.619,54.128c2.002,1.021,3.376,3.102,3.376,5.498c0,3.4-2.766,6.167-6.167,6.167s-6.167-2.767-6.167-6.167
	c0-2.396,1.374-4.478,3.376-5.498L61.973,18.366L45.56,54.903c1.348,1.133,2.206,2.829,2.206,4.723c0,3.4-2.766,6.167-6.167,6.167
	s-6.167-2.767-6.167-6.167s2.766-6.166,6.167-6.166c0.075,0,0.149,0.001,0.223,0.004l17.061-37.979H48.053l-1.068,2.34
	C36.654,40.422,30.418,54.061,30.418,88.27C30.418,104.117,34.43,123.531,39.242,141.118z M156.218,57.46
	c-1.18,0.017-2.135,0.982-2.135,2.166c0,1.195,0.972,2.167,2.167,2.167s2.167-0.972,2.167-2.167c0-1.184-0.955-2.148-2.134-2.166
	C156.262,57.46,156.241,57.46,156.218,57.46z M118.506,57.46c-1.18,0.018-2.134,0.982-2.134,2.166c0,1.195,0.972,2.167,2.167,2.167
	s2.167-0.972,2.167-2.167c0-1.184-0.955-2.148-2.134-2.166c-0.01,0-0.021,0-0.032,0h-0.002
	C118.527,57.46,118.517,57.46,118.506,57.46z M80.795,57.46c-1.18,0.018-2.134,0.982-2.134,2.166c0,1.195,0.972,2.167,2.167,2.167
	s2.167-0.972,2.167-2.167c0-1.184-0.954-2.148-2.134-2.166c-0.01,0-0.021,0-0.032,0h-0.002C80.816,57.46,80.806,57.46,80.795,57.46z
	 M41.599,57.46c-1.195,0-2.167,0.972-2.167,2.166c0,1.195,0.972,2.167,2.167,2.167s2.167-0.972,2.167-2.167
	C43.765,58.432,42.793,57.46,41.599,57.46z M102.774,15.485l15.765,35.094l15.765-35.094H102.774z M65.063,15.485l15.765,35.094
	l15.765-35.094H65.063z M137.395,11.485h24.955V6.493c0-1.375-1.119-2.493-2.494-2.493H39.511c-1.375,0-2.494,1.118-2.494,2.493
	v4.992H137.395z"/>
<g>
</g>
<g>
</g>
<g>
</g>
<g>
</g>
<g>
</g>
<g>
</g>
<g>
</g>
<g>
</g>
<g>
</g>
<g>
</g>
<g>
</g>
<g>
</g>
<g>
</g>
<g>
</g>
<g>
</g>
</svg>
