<?xml version="1.0" encoding="iso-8859-1"?>
<!-- Generator: Adobe Illustrator 17.1.0, SVG Export Plug-In . SVG Version: 6.00 Build 0)  -->
<!DOCTYPE svg PUBLIC "-//W3C//DTD SVG 1.1//EN" "http://www.w3.org/Graphics/SVG/1.1/DTD/svg11.dtd">
<svg version="1.1" id="Capa_1" xmlns="http://www.w3.org/2000/svg" xmlns:xlink="http://www.w3.org/1999/xlink" x="0px" y="0px"
	 viewBox="0 0 210.332 210.332" style="enable-background:new 0 0 210.332 210.332;" xml:space="preserve">
<path d="M208.331,193.541H2.001c-1.104,0-2-0.896-2-2v-14.418c0-1.104,0.896-2,2-2h0.148V99.957H2c-1.104,0-2-0.896-2-2V77.554
	c0-1.104,0.896-2,2-2h6.329V18.791c0-1.104,0.896-2,2-2h189.675c1.104,0,2,0.896,2,2v56.763h6.329c1.104,0,2,0.896,2,2v20.403
	c0,1.104-0.896,2-2,2h-0.149v75.166h0.148c1.104,0,2,0.896,2,2v14.418C210.331,192.646,209.435,193.541,208.331,193.541z
	 M4.001,189.541h202.329v-10.418H4.001V189.541z M202.003,175.123h2.179V99.957h-2.179V175.123z M12.329,175.123h185.675V99.957
	H12.329V175.123z M6.149,175.123h2.179V99.957H6.149V175.123z M206.183,95.957h0.149V79.554h-4.329v16.403H206.183z M12.329,95.957
	h185.675v-7.806H12.329V95.957z M4.149,95.957h4.179V79.554H4v16.403H4.149z M192.291,84.151h5.712v-2.138h-5.712V84.151z
	 M179.291,84.151h9v-2.138h-9V84.151z M166.291,84.151h9v-2.138h-9V84.151z M153.291,84.151h9v-2.138h-9V84.151z M140.291,84.151h9
	v-2.138h-9V84.151z M127.291,84.151h9v-2.138h-9V84.151z M114.291,84.151h9v-2.138h-9V84.151z M101.291,84.151h9v-2.138h-9V84.151z
	 M88.291,84.151h9v-2.138h-9V84.151z M75.291,84.151h9v-2.138h-9V84.151z M62.291,84.151h9v-2.138h-9V84.151z M49.291,84.151h9
	v-2.138h-9V84.151z M36.291,84.151h9v-2.138h-9V84.151z M23.291,84.151h9v-2.138h-9V84.151z M12.329,84.151h6.962v-2.138h-6.962
	V84.151z M12.329,78.014h185.675V55.912h-57.344v9.611h4.985c1.104,0,2,0.896,2,2s-0.896,2-2,2H64.688c-1.104,0-2-0.896-2-2
	s0.896-2,2-2h4.985v-9.611H12.329V78.014z M107.166,65.523h29.493v-38.27h-29.493V65.523z M73.673,65.523h29.493v-38.27H73.673
	V65.523z M140.659,51.912h57.344v-5.314h-57.344V51.912z M12.329,51.912h57.344v-5.314H12.329V51.912z M140.659,42.598h57.344
	V20.791H12.329v21.807h57.344V25.254c0-1.104,0.896-2,2-2h66.986c1.104,0,2,0.896,2,2V42.598z M131.226,186.332h-7.522
	c-1.104,0-2-0.896-2-2s0.896-2,2-2h7.522c1.104,0,2,0.896,2,2S132.331,186.332,131.226,186.332z M108.927,186.332h-7.522
	c-1.104,0-2-0.896-2-2s0.896-2,2-2h7.522c1.104,0,2,0.896,2,2S110.032,186.332,108.927,186.332z M86.628,186.332h-7.522
	c-1.104,0-2-0.896-2-2s0.896-2,2-2h7.522c1.104,0,2,0.896,2,2S87.733,186.332,86.628,186.332z"/>
<g>
</g>
<g>
</g>
<g>
</g>
<g>
</g>
<g>
</g>
<g>
</g>
<g>
</g>
<g>
</g>
<g>
</g>
<g>
</g>
<g>
</g>
<g>
</g>
<g>
</g>
<g>
</g>
<g>
</g>
</svg>
