<?xml version="1.0" encoding="iso-8859-1"?>
<!-- Generator: Adobe Illustrator 17.1.0, SVG Export Plug-In . SVG Version: 6.00 Build 0)  -->
<!DOCTYPE svg PUBLIC "-//W3C//DTD SVG 1.1//EN" "http://www.w3.org/Graphics/SVG/1.1/DTD/svg11.dtd">
<svg version="1.1" id="Capa_1" xmlns="http://www.w3.org/2000/svg" xmlns:xlink="http://www.w3.org/1999/xlink" x="0px" y="0px"
	 viewBox="0 0 223.363 223.363" style="enable-background:new 0 0 223.363 223.363;" xml:space="preserve">
<path d="M123.518,206.816h-8.113c-5.352,0-9.706-4.354-9.706-9.706v-0.155c0-5.352,4.354-9.706,9.706-9.706h8.113
	c4.875,0,8.923,3.613,9.605,8.303h41.499c12.431,0,22.544-10.113,22.544-22.544V169.2c-0.627,0.224-1.303,0.345-2.006,0.345h-8.27
	c-3.312,0-6.006-2.693-6.006-6.005v-61.536v-0.005v-0.004v-3.29c0-11.422-2.81-22.198-7.775-31.677
	c-5.868,2.939-12.988,1.516-17.229-3.545c-6.946-8.293-21.924-22.204-44.2-22.204c-22.454,0-38.212,14.093-45.607,22.493
	c-4.063,4.615-10.574,6.076-16.112,3.817c-4.783,9.341-7.484,19.92-7.484,31.115v3.282c0,0,0,0.006,0,0.008v61.536
	c0,3.312-2.694,6.005-6.006,6.005h-8.27c-2.65,0-4.905-1.726-5.7-4.111C9.192,161.395,0,149.084,0,135.066v-0.601
	c0-14.018,9.192-26.328,22.502-30.358c0.795-2.387,3.05-4.112,5.7-4.112h1.356v-2.897c0-44.416,36.48-80.551,81.321-80.551h1.603
	c44.841,0,81.321,36.135,81.321,80.551v2.906h1.356c2.65,0,4.905,1.726,5.7,4.112c13.311,4.03,22.502,16.341,22.502,30.358v0.6
	c0,13.911-9.051,26.14-22.197,30.265v7.669c0,14.637-11.908,26.544-26.544,26.544h-41.709
	C131.828,203.726,128.027,206.816,123.518,206.816z M115.405,191.249c-3.146,0-5.706,2.56-5.706,5.706v0.155
	c0,3.146,2.56,5.706,5.706,5.706h8.113c3.146,0,5.706-2.56,5.706-5.706v-0.155c0-3.146-2.56-5.706-5.706-5.706H115.405z
	 M184.885,104.004v59.536c0,1.105,0.9,2.005,2.006,2.005h8.27c1.106,0,2.006-0.899,2.006-2.005v-57.53
	c0-1.106-0.9-2.006-2.006-2.006H184.885z M26.197,163.531c0,1.105,0.9,2.005,2.006,2.005h8.27c1.106,0,2.006-0.899,2.006-2.005
	v-59.536H28.203c-1.106,0-2.006,0.899-2.006,2.006V163.531z M201.167,157.043v4.073c10.835-3.951,18.197-14.312,18.197-26.042v-0.6
	c0-11.729-7.362-22.09-18.197-26.041v4.056c9.422,3.145,15.877,12.004,15.877,22.063v0.429
	C217.044,145.039,210.589,153.898,201.167,157.043z M22.197,108.425C11.362,112.376,4,122.736,4,134.466v0.601
	c0,11.729,7.362,22.09,18.197,26.041v-4.064c-9.422-3.145-15.877-12.004-15.877-22.063v-0.429c0-10.059,6.455-18.918,15.877-22.063
	V108.425z M201.167,116.756v36.021c7.107-2.942,11.877-9.926,11.877-17.796v-0.429C213.044,126.682,208.273,119.698,201.167,116.756
	z M22.197,116.756c-7.107,2.942-11.877,9.926-11.877,17.796v0.429c0,7.87,4.771,14.854,11.877,17.796V116.756z M184.885,99.995
	h4.919v-2.897c0-42.21-34.686-76.551-77.321-76.551h-1.603c-42.635,0-77.321,34.341-77.321,76.551v2.889l4.919,0.001v-1.282
	c0-12.46,3.161-24.196,8.721-34.449c0.042-0.119,0.097-0.236,0.164-0.35c0.044-0.074,0.093-0.146,0.145-0.212
	c12.368-22.329,36.18-37.48,63.463-37.48h1.424c27.022,0,50.639,14.861,63.104,36.841c0.055,0.07,0.105,0.146,0.151,0.225
	c0.055,0.095,0.101,0.192,0.139,0.291c5.795,10.414,9.098,22.395,9.098,35.135V99.995z M51.907,64.053
	c3.88,1.378,8.341,0.283,11.166-2.923c7.841-8.907,24.582-23.851,48.609-23.851c23.9,0,39.873,14.809,47.266,23.636
	c3,3.58,8.017,4.62,12.2,2.62c-11.985-19.947-33.836-33.321-58.754-33.321h-1.424C85.837,30.214,63.824,43.819,51.907,64.053z"/>
<g>
</g>
<g>
</g>
<g>
</g>
<g>
</g>
<g>
</g>
<g>
</g>
<g>
</g>
<g>
</g>
<g>
</g>
<g>
</g>
<g>
</g>
<g>
</g>
<g>
</g>
<g>
</g>
<g>
</g>
</svg>
