<?xml version="1.0" encoding="iso-8859-1"?>
<!-- Generator: Adobe Illustrator 17.1.0, SVG Export Plug-In . SVG Version: 6.00 Build 0)  -->
<!DOCTYPE svg PUBLIC "-//W3C//DTD SVG 1.1//EN" "http://www.w3.org/Graphics/SVG/1.1/DTD/svg11.dtd">
<svg version="1.1" id="Capa_1" xmlns="http://www.w3.org/2000/svg" xmlns:xlink="http://www.w3.org/1999/xlink" x="0px" y="0px"
	 viewBox="0 0 201.333 201.333" style="enable-background:new 0 0 201.333 201.333;" xml:space="preserve">
<path d="M100.667,201.333C45.159,201.333,0,156.175,0,100.667c0-9.025,1.193-17.774,3.431-26.103
	c0.011-0.072,0.025-0.144,0.044-0.216c0.021-0.081,0.048-0.16,0.078-0.236C9.789,51.335,23.842,31.755,42.637,18.45
	c0.084-0.089,0.177-0.171,0.279-0.245c0.122-0.089,0.251-0.162,0.384-0.22C55.236,9.678,69.046,3.889,83.958,1.387
	c0.06-0.015,0.121-0.026,0.184-0.035c0.029-0.004,0.059-0.008,0.088-0.011C89.581,0.459,95.07,0,100.667,0
	c55.508,0,100.667,45.159,100.667,100.667S156.174,201.333,100.667,201.333z M6.854,77.307C4.99,84.79,4,92.615,4,100.667
	c0,53.302,43.364,96.666,96.667,96.666s96.667-43.364,96.667-96.666c0-52.636-42.282-95.58-94.667-96.646v4.668
	c49.809,1.068,90,41.918,90,91.979c0,50.729-41.271,92-92,92s-92-41.271-92-92c0-7.642,0.937-15.067,2.701-22.171L6.854,77.307z
	 M12.667,100.667c0,48.523,39.477,88,88,88s88-39.477,88-88c0-47.854-38.398-86.909-86-87.978v59.046
	c15.061,1.031,27,13.613,27,28.932c0,15.99-13.009,29-29,29s-29-13.01-29-29c0-2.099,0.224-4.146,0.649-6.119l-57.08-15.033
	C13.558,86.292,12.667,93.378,12.667,100.667z M76.629,93.786c-0.627,2.187-0.963,4.495-0.963,6.881c0,13.785,11.215,25,25,25
	s25-11.215,25-25s-11.215-25-25-25c-11.321,0-20.909,7.564-23.975,17.904c-0.004,0.02-0.009,0.038-0.014,0.058
	C76.664,93.683,76.647,93.735,76.629,93.786z M16.286,75.655l57.144,15.05c1.979-5.395,5.516-10.041,10.064-13.394L48.77,29.638
	C33.417,40.885,21.831,56.983,16.286,75.655z M52.05,27.347L86.876,75.16c1.697-0.921,3.497-1.678,5.375-2.249L83.949,14.26
	C72.35,16.5,61.552,21.025,52.05,27.347z M7.901,73.446l4.515,1.189c5.783-19.57,17.917-36.448,34-48.23l-2.747-3.771
	C26.73,35.042,13.962,52.823,7.901,73.446z M87.894,13.592l8.271,58.424c0.822-0.129,1.658-0.223,2.501-0.28V12.689
	C95.02,12.771,91.42,13.076,87.894,13.592z M46.945,20.338l2.749,3.774c10.024-6.696,21.432-11.479,33.694-13.818l-0.655-4.626
	C69.696,8.123,57.578,13.203,46.945,20.338z M86.679,5.009l0.654,4.622c3.71-0.541,7.495-0.86,11.333-0.942V4.021
	C94.603,4.104,90.606,4.438,86.679,5.009z M100.667,115c-7.903,0-14.333-6.43-14.333-14.333s6.43-14.334,14.333-14.334
	S115,92.764,115,100.667S108.57,115,100.667,115z M100.667,90.333c-5.698,0-10.333,4.636-10.333,10.334
	c0,5.697,4.636,10.333,10.333,10.333S111,106.364,111,100.667C111,94.969,106.364,90.333,100.667,90.333z"/>
<g>
</g>
<g>
</g>
<g>
</g>
<g>
</g>
<g>
</g>
<g>
</g>
<g>
</g>
<g>
</g>
<g>
</g>
<g>
</g>
<g>
</g>
<g>
</g>
<g>
</g>
<g>
</g>
<g>
</g>
</svg>
