<?xml version="1.0" encoding="iso-8859-1"?>
<!-- Generator: Adobe Illustrator 17.1.0, SVG Export Plug-In . SVG Version: 6.00 Build 0)  -->
<!DOCTYPE svg PUBLIC "-//W3C//DTD SVG 1.1//EN" "http://www.w3.org/Graphics/SVG/1.1/DTD/svg11.dtd">
<svg version="1.1" id="Capa_1" xmlns="http://www.w3.org/2000/svg" xmlns:xlink="http://www.w3.org/1999/xlink" x="0px" y="0px"
	 viewBox="0 0 203.222 203.222" style="enable-background:new 0 0 203.222 203.222;" xml:space="preserve">
<path d="M100.017,203.222c-16.836,0-32.522-5.02-45.641-13.639H37.869c-7.559,0-13.708-6.149-13.708-13.708v-21.494
	c-4.801-10.517-7.477-22.197-7.477-34.492c0-12.317,2.688-24.022,7.505-34.554c-0.018-0.108-0.028-0.221-0.028-0.335V54.899h-2.25
	c-1.104,0-2-0.896-2-2V41.033c-0.753,0.115-1.512,0.174-2.271,0.174c-8.408,0-15.248-6.84-15.248-15.248
	c0-8.407,6.84-15.247,15.248-15.247s15.248,6.84,15.248,15.247c0,0.115-0.003,0.229-0.009,0.344
	c0.026,0.126,0.041,0.256,0.041,0.389v26.208c0,1.104-0.896,2-2,2h-2.759v22.82c5.534-9.395,12.859-17.615,21.5-24.188v-9.343
	h-2.258c-1.104,0-2-0.896-2-2V15.979c0-0.137,0.014-0.271,0.04-0.399c-0.005-0.11-0.009-0.221-0.009-0.332
	C45.434,6.84,52.274,0,60.681,0s15.248,6.84,15.248,15.248c0,8.407-6.84,15.247-15.248,15.247c-0.759,0-1.518-0.058-2.271-0.173
	v11.866c0,1.104-0.896,2-2,2h-2.75v6.481c13.263-8.912,29.212-14.114,46.356-14.114c20.729,0,39.715,7.608,54.311,20.178V21.223
	C154.328,9.521,163.848,0,175.551,0h0.389c11.702,0,21.222,9.521,21.222,21.223v76.333h1.667c1.104,0,2,0.896,2,2v22.389
	c0,3.002-2.442,5.444-5.444,5.444h-12.368C179.213,169.839,143.44,203.222,100.017,203.222z M100.017,40.556
	c-43.745,0-79.333,35.589-79.333,79.333s35.589,79.333,79.333,79.333c43.744,0,79.333-35.589,79.333-79.333
	S143.761,40.556,100.017,40.556z M28.161,162.058v13.817c0,5.354,4.355,9.708,9.708,9.708h10.932
	C40.531,179.122,33.511,171.141,28.161,162.058z M183.351,123.389h12.033c0.796,0,1.444-0.647,1.444-1.444v-20.389h-3.25v9.306
	c0,3.048-2.48,5.527-5.528,5.527h-4.7V123.389z M183.016,112.389h5.035c0.842,0,1.528-0.686,1.528-1.527V99.556c0-1.104,0.896-2,2-2
	h1.583V21.223c0-9.497-7.726-17.223-17.222-17.223h-0.389c-9.496,0-17.222,7.726-17.222,17.223V60.41
	C172.087,73.9,181.199,92.108,183.016,112.389z M26.161,50.899h2.759V27.21c-0.055-0.203-0.077-0.416-0.065-0.631l0.016-0.239
	c0.008-0.126,0.019-0.252,0.019-0.381c0-6.202-5.045-11.247-11.248-11.247S6.393,19.757,6.393,25.959s5.045,11.248,11.248,11.248
	c1.217,0,2.438-0.205,3.625-0.61c0.609-0.208,1.284-0.108,1.809,0.268c0.525,0.375,0.836,0.98,0.836,1.626v12.409H26.161z
	 M51.661,40.188h2.75V27.779c0-0.646,0.311-1.251,0.836-1.626s1.198-0.475,1.809-0.268c1.186,0.404,2.406,0.609,3.625,0.609
	c6.202,0,11.248-5.046,11.248-11.247C71.929,9.046,66.884,4,60.681,4S49.434,9.046,49.434,15.248c0,0.125,0.01,0.248,0.018,0.371
	l0.016,0.252c0.012,0.213-0.011,0.425-0.065,0.627v23.69H51.661z M100.017,194.889c-41.355,0-75-33.645-75-75s33.645-75,75-75
	s75,33.645,75,75S141.372,194.889,100.017,194.889z M30.105,132.308c5.891,33.248,35,58.581,69.913,58.581c39.149,0,71-31.851,71-71
	s-31.851-71-71-71c-34.913,0-64.021,25.333-69.913,58.581h5.903c5.896-30.681,32.549-52.771,64.01-52.771c1.104,0,2,0.896,2,2
	s-0.896,2-2,2c-29.271,0-54.107,20.372-59.932,48.771h66.446c0.146,0,0.288,0.016,0.425,0.045c4.008-6,10.842-9.959,18.584-9.959
	c12.315,0,22.333,10.019,22.333,22.333s-10.019,22.333-22.333,22.333c-7.742,0-14.576-3.959-18.584-9.959
	c-0.137,0.029-0.279,0.045-0.425,0.045H40.086c5.825,28.399,30.661,48.771,59.932,48.771c1.104,0,2,0.896,2,2s-0.896,2-2,2
	c-31.461,0-58.113-22.091-64.01-52.771H30.105z M125.541,101.556c-10.109,0-18.333,8.225-18.333,18.333s8.224,18.333,18.333,18.333
	s18.333-8.225,18.333-18.333S135.65,101.556,125.541,101.556z M37.755,128.308h67.101c-1.062-2.6-1.647-5.441-1.647-8.419
	s0.585-5.819,1.647-8.419H37.755c-0.048,0.002-0.095,0.002-0.143,0h-8.099c-0.328,2.762-0.496,5.57-0.496,8.419
	s0.168,5.657,0.496,8.419h8.099C37.659,128.306,37.708,128.306,37.755,128.308z M125.541,131.144
	c-6.206,0-11.254-5.049-11.254-11.255s5.049-11.255,11.254-11.255c6.206,0,11.255,5.049,11.255,11.255
	S131.747,131.144,125.541,131.144z M125.541,112.634c-4,0-7.254,3.255-7.254,7.255s3.254,7.255,7.254,7.255
	c4,0,7.255-3.255,7.255-7.255S129.541,112.634,125.541,112.634z M67.863,126.472H36.826c-1.104,0-2-0.896-2-2v-9.166
	c0-1.104,0.896-2,2-2h31.036c1.104,0,2,0.896,2,2v9.166C69.863,125.576,68.967,126.472,67.863,126.472z M38.826,122.472h27.036
	v-5.166H38.826V122.472z M94.179,125.951c-3.343,0-6.063-2.72-6.063-6.063s2.72-6.063,6.063-6.063s6.063,2.72,6.063,6.063
	S97.522,125.951,94.179,125.951z M94.179,117.826c-1.137,0-2.063,0.925-2.063,2.063s0.925,2.063,2.063,2.063
	s2.063-0.925,2.063-2.063S95.316,117.826,94.179,117.826z M124.516,124.375c-0.306,0-0.613-0.07-0.897-0.213
	c-0.676-0.339-1.103-1.03-1.103-1.787v-4.973c0-0.753,0.422-1.441,1.093-1.782c0.67-0.343,1.476-0.277,2.084,0.166l3.374,2.459
	c0.514,0.374,0.819,0.971,0.822,1.605c0.003,0.636-0.295,1.235-0.805,1.614l-3.374,2.514
	C125.359,124.241,124.939,124.375,124.516,124.375z"/>
<g>
</g>
<g>
</g>
<g>
</g>
<g>
</g>
<g>
</g>
<g>
</g>
<g>
</g>
<g>
</g>
<g>
</g>
<g>
</g>
<g>
</g>
<g>
</g>
<g>
</g>
<g>
</g>
<g>
</g>
</svg>
