<?xml version="1.0" encoding="iso-8859-1"?>
<!-- Generator: Adobe Illustrator 17.1.0, SVG Export Plug-In . SVG Version: 6.00 Build 0)  -->
<!DOCTYPE svg PUBLIC "-//W3C//DTD SVG 1.1//EN" "http://www.w3.org/Graphics/SVG/1.1/DTD/svg11.dtd">
<svg version="1.1" id="Capa_1" xmlns="http://www.w3.org/2000/svg" xmlns:xlink="http://www.w3.org/1999/xlink" x="0px" y="0px"
	 viewBox="0 0 189.993 189.993" style="enable-background:new 0 0 189.993 189.993;" xml:space="preserve">
<path d="M94.997,189.993C42.616,189.993,0,147.378,0,94.997C0,42.615,42.616,0,94.997,0s94.996,42.615,94.996,94.997
	C189.993,147.378,147.377,189.993,94.997,189.993z M94.997,4C44.821,4,4,44.821,4,94.997s40.821,90.996,90.996,90.996
	s90.996-40.82,90.996-90.996S145.172,4,94.997,4z M94.997,182.755c-48.39,0-87.758-39.368-87.758-87.758
	c0-48.391,39.368-87.759,87.758-87.759c1.104,0,2,0.896,2,2s-0.896,2-2,2c-46.185,0-83.758,37.574-83.758,83.759
	s37.574,83.758,83.758,83.758c1.104,0,2,0.896,2,2S96.101,182.755,94.997,182.755z M94.997,171.326
	c-42.088,0-76.33-34.241-76.33-76.329c0-42.089,34.241-76.33,76.33-76.33s76.33,34.241,76.33,76.33
	C171.326,137.085,137.085,171.326,94.997,171.326z M94.997,22.667c-39.883,0-72.33,32.447-72.33,72.33s32.447,72.329,72.33,72.329
	s72.33-32.446,72.33-72.329S134.879,22.667,94.997,22.667z M123.622,135.64h-57.25c-8.202,0-14.875-6.673-14.875-14.875v-57.25
	c0-8.202,6.673-14.875,14.875-14.875h57.25c8.202,0,14.875,6.673,14.875,14.875v57.25
	C138.497,128.967,131.824,135.64,123.622,135.64z M66.372,52.64c-5.997,0-10.875,4.879-10.875,10.875v57.25
	c0,5.996,4.878,10.875,10.875,10.875h57.25c5.997,0,10.875-4.879,10.875-10.875v-57.25c0-5.996-4.878-10.875-10.875-10.875H66.372z"
	/>
<g>
</g>
<g>
</g>
<g>
</g>
<g>
</g>
<g>
</g>
<g>
</g>
<g>
</g>
<g>
</g>
<g>
</g>
<g>
</g>
<g>
</g>
<g>
</g>
<g>
</g>
<g>
</g>
<g>
</g>
</svg>
