<?xml version="1.0" encoding="iso-8859-1"?>
<!-- Generator: Adobe Illustrator 17.1.0, SVG Export Plug-In . SVG Version: 6.00 Build 0)  -->
<!DOCTYPE svg PUBLIC "-//W3C//DTD SVG 1.1//EN" "http://www.w3.org/Graphics/SVG/1.1/DTD/svg11.dtd">
<svg version="1.1" id="Capa_1" xmlns="http://www.w3.org/2000/svg" xmlns:xlink="http://www.w3.org/1999/xlink" x="0px" y="0px"
	 viewBox="0 0 189.993 189.993" style="enable-background:new 0 0 189.993 189.993;" xml:space="preserve">
<path d="M94.997,189.993C42.615,189.993,0,147.378,0,94.997C0,42.615,42.615,0,94.997,0c52.381,0,94.996,42.615,94.996,94.997
	C189.993,147.378,147.378,189.993,94.997,189.993z M94.997,4C44.821,4,4,44.821,4,94.997s40.821,90.996,90.997,90.996
	s90.996-40.82,90.996-90.996S145.173,4,94.997,4z M94.997,182.755c-48.39,0-87.758-39.368-87.758-87.758
	c0-48.391,39.368-87.759,87.758-87.759c1.104,0,2,0.896,2,2s-0.896,2-2,2c-46.185,0-83.758,37.574-83.758,83.759
	s37.574,83.758,83.758,83.758c1.104,0,2,0.896,2,2S96.101,182.755,94.997,182.755z M94.997,171.493
	c-42.18,0-76.497-34.316-76.497-76.496C18.5,52.816,52.817,18.5,94.997,18.5c42.18,0,76.496,34.316,76.496,76.497
	C171.493,137.177,137.177,171.493,94.997,171.493z M94.997,22.5C55.022,22.5,22.5,55.022,22.5,94.997s32.522,72.496,72.497,72.496
	s72.496-32.521,72.496-72.496S134.971,22.5,94.997,22.5z M126.314,135.64h-14.663c-6.021,0-10.919-4.897-10.919-10.918V59.558
	c0-6.021,4.898-10.918,10.919-10.918h14.663c6.021,0,10.918,4.897,10.918,10.918v65.164
	C137.232,130.742,132.335,135.64,126.314,135.64z M111.651,52.64c-3.815,0-6.919,3.104-6.919,6.918v65.164
	c0,3.814,3.104,6.918,6.919,6.918h14.663c3.814,0,6.918-3.104,6.918-6.918V59.558c0-3.814-3.104-6.918-6.918-6.918H111.651z
	 M80.151,135.64H65.488c-6.021,0-10.918-4.897-10.918-10.918V59.558c0-6.021,4.898-10.918,10.918-10.918h14.664
	c6.02,0,10.918,4.897,10.918,10.918v65.164C91.069,130.742,86.171,135.64,80.151,135.64z M65.488,52.64
	c-3.815,0-6.918,3.104-6.918,6.918v65.164c0,3.814,3.104,6.918,6.918,6.918h14.664c3.814,0,6.918-3.104,6.918-6.918V59.558
	c0-3.814-3.104-6.918-6.918-6.918H65.488z"/>
<g>
</g>
<g>
</g>
<g>
</g>
<g>
</g>
<g>
</g>
<g>
</g>
<g>
</g>
<g>
</g>
<g>
</g>
<g>
</g>
<g>
</g>
<g>
</g>
<g>
</g>
<g>
</g>
<g>
</g>
</svg>
