<?xml version="1.0" encoding="iso-8859-1"?>
<!-- Generator: Adobe Illustrator 17.1.0, SVG Export Plug-In . SVG Version: 6.00 Build 0)  -->
<!DOCTYPE svg PUBLIC "-//W3C//DTD SVG 1.1//EN" "http://www.w3.org/Graphics/SVG/1.1/DTD/svg11.dtd">
<svg version="1.1" id="Capa_1" xmlns="http://www.w3.org/2000/svg" xmlns:xlink="http://www.w3.org/1999/xlink" x="0px" y="0px"
	 viewBox="0 0 189.993 189.993" style="enable-background:new 0 0 189.993 189.993;" xml:space="preserve">
<path d="M94.996,189.993C42.615,189.993,0,147.378,0,94.997C0,42.615,42.615,0,94.996,0c52.381,0,94.997,42.615,94.997,94.997
	C189.993,147.378,147.378,189.993,94.996,189.993z M94.996,4C44.821,4,4,44.821,4,94.997s40.821,90.996,90.996,90.996
	c50.176,0,90.997-40.82,90.997-90.996S145.172,4,94.996,4z M94.996,182.755c-48.39,0-87.758-39.368-87.758-87.758
	c0-48.391,39.368-87.759,87.758-87.759c1.104,0,2,0.896,2,2s-0.896,2-2,2c-46.184,0-83.758,37.574-83.758,83.759
	s37.574,83.758,83.758,83.758c1.104,0,2,0.896,2,2S96.101,182.755,94.996,182.755z M94.996,171.508
	c-42.188,0-76.511-34.322-76.511-76.511s34.323-76.512,76.511-76.512s76.512,34.323,76.512,76.512S137.185,171.508,94.996,171.508z
	 M94.996,22.485c-39.983,0-72.511,32.528-72.511,72.512c0,39.982,32.528,72.511,72.511,72.511s72.512-32.528,72.512-72.511
	C167.508,55.014,134.979,22.485,94.996,22.485z M71.328,144.617c-2.011,0-4.021-0.529-5.854-1.588
	c-3.666-2.116-5.854-5.906-5.854-10.139V57.103c0-4.232,2.188-8.023,5.854-10.14c3.667-2.116,8.042-2.113,11.707,0.001
	l65.634,37.894c3.666,2.116,5.854,5.906,5.854,10.139c0,4.233-2.188,8.023-5.854,10.14L77.182,143.03
	C75.349,144.088,73.339,144.617,71.328,144.617z M71.327,49.383c-1.323,0-2.646,0.349-3.853,1.045
	c-2.413,1.393-3.854,3.889-3.854,6.675v75.788c0,2.786,1.441,5.282,3.854,6.675c2.413,1.395,5.294,1.395,7.707,0l65.634-37.895
	c2.414-1.393,3.854-3.888,3.854-6.675c0-2.786-1.44-5.281-3.854-6.674L75.182,50.429C73.975,49.731,72.651,49.383,71.327,49.383z"/>
<g>
</g>
<g>
</g>
<g>
</g>
<g>
</g>
<g>
</g>
<g>
</g>
<g>
</g>
<g>
</g>
<g>
</g>
<g>
</g>
<g>
</g>
<g>
</g>
<g>
</g>
<g>
</g>
<g>
</g>
</svg>
