<?xml version="1.0" encoding="iso-8859-1"?>
<!-- Generator: Adobe Illustrator 17.1.0, SVG Export Plug-In . SVG Version: 6.00 Build 0)  -->
<!DOCTYPE svg PUBLIC "-//W3C//DTD SVG 1.1//EN" "http://www.w3.org/Graphics/SVG/1.1/DTD/svg11.dtd">
<svg version="1.1" id="Capa_1" xmlns="http://www.w3.org/2000/svg" xmlns:xlink="http://www.w3.org/1999/xlink" x="0px" y="0px"
	 viewBox="0 0 218.257 218.257" style="enable-background:new 0 0 218.257 218.257;" xml:space="preserve">
<path d="M103.203,218.257c-21.088,0.001-41.602-8.326-56.702-23.426c-18.192-18.192-26.553-44.245-22.365-69.691
	c0.179-1.089,1.2-1.826,2.299-1.648c1.09,0.18,1.827,1.209,1.648,2.299c-3.979,24.177,3.964,48.929,21.246,66.213
	c17.284,17.282,42.04,25.228,66.212,21.246c1.097-0.181,2.119,0.56,2.299,1.648c0.179,1.09-0.559,2.119-1.648,2.299
	C111.866,217.908,107.522,218.257,103.203,218.257z M149.254,191.623c-1.892,0-3.724-0.748-5.154-2.179l-26.669-26.668
	c-10.654,1.428-21.454-2.199-29.065-9.812c-7.611-7.611-11.237-18.407-9.811-29.064L51.887,97.231
	c-2.146-2.146-2.757-5.333-1.557-8.12c1.199-2.786,3.945-4.549,6.969-4.447l41.579,1.158l34.851-34.85
	c3.403-3.403,8.04-5.11,12.766-4.785V2c0-1.104,0.896-2,2-2h12.235c1.104,0,2,0.896,2,2v54.647l27.629,27.629
	c6.432,6.431,6.432,16.896,0,23.326l-34.85,34.851l1.158,41.579c0.085,3.033-1.662,5.769-4.449,6.969
	C151.248,191.419,150.243,191.623,149.254,191.623z M57.081,88.661c-1.381,0-2.525,0.754-3.076,2.032
	c-0.565,1.313-0.3,2.699,0.711,3.71l92.213,92.213c1.01,1.011,2.398,1.276,3.708,0.71c1.313-0.564,2.072-1.755,2.033-3.183
	l-1.161-41.645l-4.428-4.428c-0.375-0.375-0.586-0.884-0.586-1.414s0.211-1.039,0.586-1.414l9.266-9.266
	c0.781-0.781,2.047-0.781,2.828,0l3.576,3.576l24.78-24.779c4.871-4.872,4.871-12.798,0-17.67L162.73,62.304v22.378
	c0,4.476-3.642,8.117-8.117,8.117c-4.477,0-8.118-3.642-8.118-8.117V50.2c-3.672-0.337-7.297,0.961-9.938,3.601L111.778,78.58
	l3.576,3.576c0.781,0.781,0.781,2.047,0,2.828l-9.266,9.266c-0.781,0.781-2.047,0.781-2.828,0l-4.428-4.427l-41.645-1.161
	C57.152,88.661,57.117,88.661,57.081,88.661z M82.262,127.607c-0.24,8.359,2.957,16.555,8.932,22.529
	c5.976,5.976,14.191,9.147,22.53,8.933L82.262,127.607z M151.323,136.657l2.163,2.162l6.437-6.438l-2.162-2.162L151.323,136.657z
	 M102.512,87.846l2.162,2.162l6.438-6.438l-2.162-2.162L102.512,87.846z M150.495,84.682c0,2.271,1.848,4.117,4.118,4.117
	s4.117-1.847,4.117-4.117V4h-8.235V84.682z M110.943,190.16c-15.73,0.001-31.033-6.211-42.297-17.475
	c-13.57-13.57-19.808-33.005-16.684-51.986c0.179-1.089,1.2-1.829,2.299-1.648c1.09,0.18,1.827,1.209,1.648,2.299
	c-2.915,17.713,2.903,35.847,15.564,48.508c12.662,12.661,30.798,18.48,48.508,15.564c1.098-0.176,2.119,0.559,2.299,1.648
	c0.179,1.09-0.559,2.119-1.648,2.299C117.406,189.9,114.165,190.16,110.943,190.16z M141.042,131.204
	c-0.512,0-1.023-0.195-1.414-0.586l-28.914-28.914c-0.781-0.781-0.781-2.047,0-2.828l9.266-9.266c0.781-0.781,2.047-0.781,2.828,0
	l28.914,28.914c0.781,0.781,0.781,2.047,0,2.828l-9.266,9.266C142.065,131.009,141.553,131.204,141.042,131.204z M114.956,100.29
	l26.086,26.086l6.438-6.438l-26.086-26.086L114.956,100.29z M154.613,85.511c-1.104,0-2-0.896-2-2v-0.789c0-1.104,0.896-2,2-2
	s2,0.896,2,2v0.789C156.613,84.615,155.717,85.511,154.613,85.511z"/>
<g>
</g>
<g>
</g>
<g>
</g>
<g>
</g>
<g>
</g>
<g>
</g>
<g>
</g>
<g>
</g>
<g>
</g>
<g>
</g>
<g>
</g>
<g>
</g>
<g>
</g>
<g>
</g>
<g>
</g>
</svg>
