<?xml version="1.0" encoding="iso-8859-1"?>
<!-- Generator: Adobe Illustrator 17.1.0, SVG Export Plug-In . SVG Version: 6.00 Build 0)  -->
<!DOCTYPE svg PUBLIC "-//W3C//DTD SVG 1.1//EN" "http://www.w3.org/Graphics/SVG/1.1/DTD/svg11.dtd">
<svg version="1.1" id="Capa_1" xmlns="http://www.w3.org/2000/svg" xmlns:xlink="http://www.w3.org/1999/xlink" x="0px" y="0px"
	 viewBox="0 0 208.028 208.028" style="enable-background:new 0 0 208.028 208.028;" xml:space="preserve">
<path d="M47.655,208.016c-3.654,0-7.309-1.391-10.09-4.172L4.18,170.458C1.484,167.764,0,164.18,0,160.369s1.484-7.396,4.18-10.09
	L143.474,10.984c14.628-14.628,38.43-14.63,53.058,0l0.508,0.508c7.086,7.086,10.989,16.507,10.989,26.529
	c0,10.021-3.902,19.442-10.989,26.528L57.745,203.844C54.963,206.625,51.309,208.016,47.655,208.016z M170.003,4.011
	c-8.584,0-17.166,3.266-23.701,9.801L7.008,153.107C5.068,155.046,4,157.625,4,160.369s1.068,5.322,3.008,7.262l33.385,33.386
	c4.004,4.003,10.52,4.003,14.524,0L194.211,61.721c6.331-6.331,9.817-14.748,9.817-23.7c0-8.953-3.486-17.37-9.817-23.701
	l-0.508-0.508C187.17,7.279,178.585,4.011,170.003,4.011z M47.851,190.261c-0.53,0-1.039-0.211-1.414-0.586l-28.088-28.089
	c-0.781-0.781-0.781-2.047,0-2.828l98.439-98.439c0.75-0.75,2.078-0.75,2.828,0l28.089,28.089c0.781,0.781,0.781,2.047,0,2.828
	l-98.439,98.439C48.89,190.05,48.381,190.261,47.851,190.261z M22.591,160.172l25.26,25.261l95.611-95.611l-25.26-25.261
	L22.591,160.172z M49.586,174.938c-0.512,0-1.023-0.195-1.414-0.585l-0.46-0.46c-0.781-0.78-0.782-2.047-0.001-2.828
	c0.781-0.782,2.047-0.782,2.829-0.002l0.46,0.46c0.781,0.78,0.782,2.047,0.001,2.828C50.61,174.743,50.098,174.938,49.586,174.938z
	 M56.301,168.223c-0.512,0-1.024-0.195-1.415-0.586l-5.05-5.051c-0.781-0.781-0.781-2.048,0-2.828c0.781-0.781,2.047-0.781,2.829,0
	l5.05,5.051c0.781,0.781,0.781,2.048,0,2.828C57.325,168.028,56.813,168.223,56.301,168.223z M63.017,161.507
	c-0.512,0-1.024-0.195-1.415-0.586l-3.324-3.324c-0.781-0.781-0.781-2.048,0-2.828c0.781-0.781,2.047-0.781,2.829,0l3.323,3.324
	c0.781,0.781,0.781,2.048,0,2.828C64.041,161.312,63.529,161.507,63.017,161.507z M35.886,161.239c-0.512,0-1.024-0.195-1.414-0.586
	c-0.781-0.781-0.781-2.047,0-2.828l44.488-44.488c0.78-0.781,2.048-0.781,2.828,0c0.781,0.781,0.781,2.047,0,2.828L37.3,160.653
	C36.91,161.043,36.398,161.239,35.886,161.239z M69.733,154.792c-0.512,0-1.023-0.195-1.414-0.585l-0.46-0.46
	c-0.781-0.78-0.782-2.047-0.001-2.828c0.781-0.783,2.047-0.781,2.829-0.002l0.46,0.46c0.781,0.78,0.782,2.047,0.001,2.828
	C70.757,154.596,70.245,154.792,69.733,154.792z M76.448,148.076c-0.512,0-1.023-0.195-1.414-0.586l-1.439-1.438
	c-0.781-0.78-0.781-2.047,0-2.828c0.781-0.781,2.047-0.781,2.829,0l1.439,1.438c0.781,0.78,0.781,2.047,0,2.828
	C77.472,147.88,76.96,148.076,76.448,148.076z M83.164,141.36c-0.512,0-1.023-0.195-1.414-0.586l-5.353-5.352
	c-0.781-0.78-0.781-2.047,0-2.828c0.781-0.781,2.047-0.781,2.829,0l5.353,5.352c0.781,0.78,0.781,2.047,0,2.828
	C84.188,141.165,83.676,141.36,83.164,141.36z M89.879,134.645c-0.512,0-1.024-0.195-1.415-0.586l-2.676-2.677
	c-0.781-0.781-0.781-2.048,0-2.828c0.781-0.781,2.047-0.781,2.829,0l2.676,2.677c0.781,0.781,0.781,2.048,0,2.828
	C90.903,134.45,90.391,134.645,89.879,134.645z M96.595,127.929c-0.512,0-1.024-0.195-1.414-0.586l-4.444-4.444
	c-0.781-0.781-0.781-2.047,0-2.828c0.78-0.781,2.048-0.781,2.828,0l4.444,4.444c0.781,0.781,0.781,2.047,0,2.828
	C97.619,127.734,97.107,127.929,96.595,127.929z M103.311,121.213c-0.512,0-1.023-0.195-1.414-0.585l-0.46-0.46
	c-0.781-0.78-0.782-2.047-0.001-2.828c0.781-0.782,2.047-0.782,2.829-0.002l0.46,0.46c0.781,0.78,0.782,2.047,0.001,2.828
	C104.335,121.018,103.823,121.213,103.311,121.213z M110.026,114.498c-0.512,0-1.023-0.195-1.414-0.586l-5.05-5.05
	c-0.781-0.781-0.781-2.047,0-2.828c0.78-0.781,2.047-0.781,2.828,0l5.05,5.05c0.781,0.781,0.781,2.047,0,2.828
	C111.05,114.302,110.538,114.498,110.026,114.498z M116.742,107.783c-0.512,0-1.024-0.195-1.415-0.586l-3.323-3.324
	c-0.781-0.781-0.781-2.048,0-2.828c0.782-0.782,2.048-0.78,2.829,0l3.323,3.324c0.781,0.781,0.781,2.048,0,2.828
	C117.765,107.587,117.253,107.783,116.742,107.783z M123.458,101.067c-0.512,0-1.024-0.195-1.415-0.587l-0.46-0.461
	c-0.781-0.781-0.78-2.048,0.001-2.828s2.047-0.78,2.829,0.002l0.46,0.461c0.781,0.781,0.78,2.048-0.001,2.828
	C124.48,100.872,123.969,101.067,123.458,101.067z M130.173,94.351c-0.512,0-1.024-0.195-1.414-0.586l-1.438-1.438
	c-0.781-0.781-0.781-2.047,0-2.828c0.78-0.781,2.048-0.781,2.828,0l1.438,1.438c0.781,0.781,0.781,2.047,0,2.828
	C131.197,94.156,130.685,94.351,130.173,94.351z M103.042,94.083c-0.512,0-1.023-0.195-1.414-0.586
	c-0.781-0.781-0.781-2.047,0-2.828l13.431-13.431c0.78-0.781,2.048-0.781,2.828,0c0.781,0.781,0.781,2.047,0,2.828l-13.431,13.431
	C104.066,93.887,103.554,94.083,103.042,94.083z M168.477,67.529c-7.474,0-14.501-2.911-19.786-8.196
	c-10.91-10.91-10.91-28.661,0-39.571l0,0l0,0c5.285-5.285,12.312-8.196,19.786-8.196s14.501,2.911,19.786,8.196
	c5.285,5.285,8.196,12.312,8.196,19.786c0,7.474-2.911,14.5-8.196,19.785C182.978,64.618,175.951,67.529,168.477,67.529z
	 M168.477,15.565c-6.406,0-12.428,2.495-16.958,7.024l0,0c-9.35,9.351-9.35,24.564,0,33.915c4.529,4.529,10.552,7.024,16.958,7.024
	s12.428-2.495,16.958-7.024c9.35-9.351,9.35-24.564,0-33.915C180.904,18.06,174.882,15.565,168.477,15.565z M168.477,54.03
	c-3.71,0-7.421-1.412-10.246-4.237c-5.649-5.649-5.649-14.842,0-20.491l0,0c5.649-5.648,14.842-5.65,20.491,0
	c5.649,5.649,5.649,14.842,0,20.491C175.897,52.617,172.187,54.03,168.477,54.03z M161.059,32.129
	c-4.089,4.09-4.089,10.745,0,14.835c4.091,4.089,10.745,4.09,14.834,0c4.089-4.09,4.089-10.745,0-14.835
	C171.803,28.041,165.149,28.041,161.059,32.129L161.059,32.129z M170.018,45.562c-0.521,0-1.031-0.204-1.412-0.584l-5.565-5.549
	c-0.53-0.528-0.721-1.309-0.494-2.022c0.227-0.713,0.833-1.24,1.571-1.365l6.643-1.128c0.639-0.103,1.286,0.097,1.744,0.552
	c0.458,0.454,0.668,1.102,0.566,1.738l-1.078,6.677c-0.12,0.741-0.644,1.353-1.358,1.584
	C170.432,45.53,170.225,45.562,170.018,45.562z"/>
<g>
</g>
<g>
</g>
<g>
</g>
<g>
</g>
<g>
</g>
<g>
</g>
<g>
</g>
<g>
</g>
<g>
</g>
<g>
</g>
<g>
</g>
<g>
</g>
<g>
</g>
<g>
</g>
<g>
</g>
</svg>
