<?xml version="1.0" encoding="iso-8859-1"?>
<!-- Generator: Adobe Illustrator 17.1.0, SVG Export Plug-In . SVG Version: 6.00 Build 0)  -->
<!DOCTYPE svg PUBLIC "-//W3C//DTD SVG 1.1//EN" "http://www.w3.org/Graphics/SVG/1.1/DTD/svg11.dtd">
<svg version="1.1" id="Capa_1" xmlns="http://www.w3.org/2000/svg" xmlns:xlink="http://www.w3.org/1999/xlink" x="0px" y="0px"
	 viewBox="0 0 208.5 208.5" style="enable-background:new 0 0 208.5 208.5;" xml:space="preserve">
<path d="M198.98,194.582H9.52c-5.25,0-9.52-4.271-9.52-9.521V23.438c0-5.25,4.271-9.521,9.52-9.521h189.46
	c5.25,0,9.52,4.271,9.52,9.521v161.623C208.5,190.312,204.229,194.582,198.98,194.582z M9.52,17.918c-3.044,0-5.52,2.477-5.52,5.521
	v161.623c0,3.044,2.476,5.521,5.52,5.521h189.46c3.044,0,5.52-2.477,5.52-5.521V23.438c0-3.044-2.476-5.521-5.52-5.521H9.52z
	 M181.604,183.42c-1.104,0-2-0.896-2-2v-2.272h-5.271c-1.104,0-2-0.896-2-2s0.896-2,2-2h5.271v-2.271c0-1.104,0.896-2,2-2
	s2,0.896,2,2v2.271h9.47c1.104,0,2,0.896,2,2s-0.896,2-2,2h-9.47v2.272C183.604,182.524,182.708,183.42,181.604,183.42z
	 M157.718,179.147h-36.38c-1.104,0-2-0.896-2-2v-27.009c0-1.104,0.896-2,2-2h36.38c1.104,0,2,0.896,2,2v27.009
	C159.718,178.252,158.822,179.147,157.718,179.147z M123.337,175.147h32.38v-23.009h-32.38V175.147z M105.353,179.147h-36.38
	c-1.104,0-2-0.896-2-2v-27.009c0-1.104,0.896-2,2-2h36.38c1.104,0,2,0.896,2,2v27.009
	C107.353,178.252,106.457,179.147,105.353,179.147z M70.972,175.147h32.38v-23.009h-32.38V175.147z M52.987,179.147h-36.38
	c-1.104,0-2-0.896-2-2v-27.009c0-1.104,0.896-2,2-2h36.38c1.104,0,2,0.896,2,2v27.009C54.987,178.252,54.092,179.147,52.987,179.147
	z M18.607,175.147h32.38v-23.009h-32.38V175.147z M183.703,167.021c-5.206,0-9.441-4.235-9.441-9.441
	c0-1.598,0.399-3.104,1.102-4.424c0.033-0.07,0.071-0.139,0.113-0.206c1.622-2.87,4.702-4.812,8.227-4.812
	c5.206,0,9.441,4.235,9.441,9.441S188.909,167.021,183.703,167.021z M178.276,157.181c-0.01,0.132-0.015,0.266-0.015,0.399
	c0,3,2.441,5.441,5.441,5.441s5.441-2.441,5.441-5.441s-2.441-5.441-5.441-5.441c-1.405,0-2.688,0.535-3.654,1.413l0.385,0.263
	c0.913,0.622,1.148,1.866,0.526,2.778C180.359,157.475,179.177,157.725,178.276,157.181z M187.759,143.457c-1.104,0-2-0.896-2-2
	v-2.272h-11.427c-1.104,0-2-0.896-2-2s0.896-2,2-2h11.427v-2.271c0-1.104,0.896-2,2-2s2,0.896,2,2v2.271h3.314c1.104,0,2,0.896,2,2
	s-0.896,2-2,2h-3.314v2.272C189.759,142.562,188.863,143.457,187.759,143.457z M157.718,139.185h-36.38c-1.104,0-2-0.896-2-2
	v-27.009c0-1.104,0.896-2,2-2h36.38c1.104,0,2,0.896,2,2v27.009C159.718,138.289,158.822,139.185,157.718,139.185z M123.337,135.185
	h32.38v-23.009h-32.38V135.185z M105.353,139.185h-36.38c-1.104,0-2-0.896-2-2v-27.009c0-1.104,0.896-2,2-2h36.38
	c1.104,0,2,0.896,2,2v27.009C107.353,138.289,106.457,139.185,105.353,139.185z M70.972,135.185h32.38v-23.009h-32.38V135.185z
	 M52.987,139.185h-36.38c-1.104,0-2-0.896-2-2v-27.009c0-1.104,0.896-2,2-2h36.38c1.104,0,2,0.896,2,2v27.009
	C54.987,138.289,54.092,139.185,52.987,139.185z M18.607,135.185h32.38v-23.009h-32.38V135.185z M183.703,127.059
	c-5.206,0-9.441-4.235-9.441-9.441s4.235-9.441,9.441-9.441c3.503,0,6.566,1.918,8.196,4.758c0.028,0.046,0.054,0.092,0.078,0.139
	c0.744,1.349,1.168,2.898,1.168,4.545C193.144,122.823,188.909,127.059,183.703,127.059z M183.703,112.176
	c-3,0-5.441,2.441-5.441,5.441s2.441,5.441,5.441,5.441s5.441-2.441,5.441-5.441c0-0.203-0.011-0.403-0.033-0.6l-0.292,0.183
	c-0.938,0.586-2.17,0.3-2.756-0.637s-0.301-2.17,0.636-2.756l0.53-0.331C186.279,112.666,185.047,112.176,183.703,112.176z
	 M190.195,103.494c-1.104,0-2-0.896-2-2v-2.272h-13.863c-1.104,0-2-0.896-2-2s0.896-2,2-2h13.863V92.95c0-1.104,0.896-2,2-2
	s2,0.896,2,2v2.271h0.878c1.104,0,2,0.896,2,2s-0.896,2-2,2h-0.878v2.272C192.195,102.599,191.299,103.494,190.195,103.494z
	 M157.718,99.222h-36.38c-1.104,0-2-0.896-2-2V70.213c0-1.104,0.896-2,2-2h36.38c1.104,0,2,0.896,2,2v27.009
	C159.718,98.326,158.822,99.222,157.718,99.222z M123.337,95.222h32.38V72.213h-32.38V95.222z M105.353,99.222h-36.38
	c-1.104,0-2-0.896-2-2V70.213c0-1.104,0.896-2,2-2h36.38c1.104,0,2,0.896,2,2v27.009C107.353,98.326,106.457,99.222,105.353,99.222z
	 M70.972,95.222h32.38V72.213h-32.38V95.222z M52.987,99.222h-36.38c-1.104,0-2-0.896-2-2V70.213c0-1.104,0.896-2,2-2h36.38
	c1.104,0,2,0.896,2,2v27.009C54.987,98.326,54.092,99.222,52.987,99.222z M18.607,95.222h32.38V72.213h-32.38V95.222z
	 M183.703,87.096c-1.614,0-3.136-0.407-4.466-1.125c-0.032-0.016-0.063-0.032-0.095-0.05c-0.023-0.013-0.046-0.026-0.068-0.04
	c-2.87-1.621-4.812-4.701-4.812-8.227c0-5.206,4.235-9.441,9.441-9.441s9.441,4.235,9.441,9.441S188.909,87.096,183.703,87.096z
	 M183.042,83.056c0.217,0.026,0.437,0.04,0.661,0.04c3,0,5.441-2.441,5.441-5.441s-2.441-5.441-5.441-5.441
	s-5.441,2.441-5.441,5.441c0,1.326,0.477,2.543,1.268,3.488l0.238-0.425c0.54-0.963,1.759-1.307,2.723-0.766
	c0.963,0.54,1.306,1.76,0.766,2.723L183.042,83.056z M179.238,63.508c-1.104,0-2-0.896-2-2v-2.249h-2.906c-1.104,0-2-0.896-2-2
	s0.896-2,2-2h2.906v-2.295c0-1.104,0.896-2,2-2s2,0.896,2,2v2.295h11.835c1.104,0,2,0.896,2,2s-0.896,2-2,2h-11.835v2.249
	C181.238,62.612,180.342,63.508,179.238,63.508z M157.718,59.259h-36.38c-1.104,0-2-0.896-2-2V30.25c0-1.104,0.896-2,2-2h36.38
	c1.104,0,2,0.896,2,2v27.009C159.718,58.363,158.822,59.259,157.718,59.259z M123.337,55.259h32.38V32.25h-32.38V55.259z
	 M105.353,59.259h-36.38c-1.104,0-2-0.896-2-2V30.25c0-1.104,0.896-2,2-2h36.38c1.104,0,2,0.896,2,2v27.009
	C107.353,58.363,106.457,59.259,105.353,59.259z M70.972,55.259h32.38V32.25h-32.38V55.259z M52.987,59.259h-36.38
	c-1.104,0-2-0.896-2-2V30.25c0-1.104,0.896-2,2-2h36.38c1.104,0,2,0.896,2,2v27.009C54.987,58.363,54.092,59.259,52.987,59.259z
	 M18.607,55.259h32.38V32.25h-32.38V55.259z M183.703,47.133c-5.206,0-9.441-4.235-9.441-9.441s4.235-9.441,9.441-9.441
	s9.441,4.235,9.441,9.441S188.909,47.133,183.703,47.133z M183.703,32.25c-3,0-5.441,2.441-5.441,5.441s2.441,5.441,5.441,5.441
	c2.294,0,4.262-1.428,5.061-3.441h-0.545c-1.104,0-2-0.896-2-2s0.896-2,2-2h0.545C187.965,33.678,185.997,32.25,183.703,32.25z"/>
<g>
</g>
<g>
</g>
<g>
</g>
<g>
</g>
<g>
</g>
<g>
</g>
<g>
</g>
<g>
</g>
<g>
</g>
<g>
</g>
<g>
</g>
<g>
</g>
<g>
</g>
<g>
</g>
<g>
</g>
</svg>
