<?xml version="1.0" encoding="iso-8859-1"?>
<!-- Generator: Adobe Illustrator 17.1.0, SVG Export Plug-In . SVG Version: 6.00 Build 0)  -->
<!DOCTYPE svg PUBLIC "-//W3C//DTD SVG 1.1//EN" "http://www.w3.org/Graphics/SVG/1.1/DTD/svg11.dtd">
<svg version="1.1" id="Capa_1" xmlns="http://www.w3.org/2000/svg" xmlns:xlink="http://www.w3.org/1999/xlink" x="0px" y="0px"
	 viewBox="0 0 178.917 178.917" style="enable-background:new 0 0 178.917 178.917;" xml:space="preserve">
<path d="M156.334,178.917H22.584c-9.627,0-17.459-7.832-17.459-17.458v-144C5.125,7.832,12.957,0,22.584,0h133.75
	c9.626,0,17.458,7.832,17.458,17.458v144C173.792,171.085,165.96,178.917,156.334,178.917z M22.584,4
	C15.163,4,9.125,10.038,9.125,17.458v144c0,7.421,6.038,13.458,13.459,13.458h133.75c7.421,0,13.458-6.038,13.458-13.458v-144
	c0-7.421-6.037-13.458-13.458-13.458H22.584z M152.915,165.333H130.54c-1.104,0-2-0.896-2-2v-11.667c0-1.104,0.896-2,2-2h22.375
	c1.104,0,2,0.896,2,2v11.667C154.915,164.438,154.02,165.333,152.915,165.333z M132.54,161.333h18.375v-7.667H132.54V161.333z
	 M116.708,165.333H94.333c-1.104,0-2-0.896-2-2v-11.667c0-1.104,0.896-2,2-2h22.375c1.104,0,2,0.896,2,2v11.667
	C118.708,164.438,117.813,165.333,116.708,165.333z M96.333,161.333h18.375v-7.667H96.333V161.333z M80.5,165.333H58.125
	c-1.104,0-2-0.896-2-2v-11.667c0-1.104,0.896-2,2-2H80.5c1.104,0,2,0.896,2,2v11.667C82.5,164.438,81.604,165.333,80.5,165.333z
	 M60.125,161.333H78.5v-7.667H60.125V161.333z M44.292,165.333H21.917c-1.104,0-2-0.896-2-2v-11.667c0-1.104,0.896-2,2-2h22.375
	c1.104,0,2,0.896,2,2v11.667C46.292,164.438,45.396,165.333,44.292,165.333z M23.917,161.333h18.375v-7.667H23.917V161.333z
	 M141.728,146.083c-4.343,0-7.875-3.533-7.875-7.875s3.532-7.875,7.875-7.875c4.342,0,7.875,3.533,7.875,7.875
	S146.069,146.083,141.728,146.083z M141.728,134.333c-2.137,0-3.875,1.738-3.875,3.875s1.738,3.875,3.875,3.875
	s3.875-1.738,3.875-3.875S143.864,134.333,141.728,134.333z M105.521,146.083c-4.343,0-7.875-3.533-7.875-7.875
	s3.532-7.875,7.875-7.875s7.875,3.533,7.875,7.875S109.863,146.083,105.521,146.083z M105.521,134.333
	c-2.137,0-3.875,1.738-3.875,3.875s1.738,3.875,3.875,3.875s3.875-1.738,3.875-3.875S107.657,134.333,105.521,134.333z
	 M69.313,146.083c-4.342,0-7.875-3.533-7.875-7.875s3.533-7.875,7.875-7.875c4.343,0,7.875,3.533,7.875,7.875
	S73.655,146.083,69.313,146.083z M69.313,134.333c-2.137,0-3.875,1.738-3.875,3.875s1.738,3.875,3.875,3.875
	s3.875-1.738,3.875-3.875S71.449,134.333,69.313,134.333z M33.104,146.083c-4.343,0-7.875-3.533-7.875-7.875
	s3.532-7.875,7.875-7.875c4.342,0,7.875,3.533,7.875,7.875S37.446,146.083,33.104,146.083z M33.104,134.333
	c-2.137,0-3.875,1.738-3.875,3.875s1.738,3.875,3.875,3.875s3.875-1.738,3.875-3.875S35.241,134.333,33.104,134.333z
	 M102.249,121.799c-29.041,0-52.667-23.626-52.667-52.667s23.626-52.667,52.667-52.667c29.04,0,52.666,23.626,52.666,52.667
	S131.289,121.799,102.249,121.799z M102.249,20.466c-26.835,0-48.667,21.832-48.667,48.667s21.832,48.667,48.667,48.667
	s48.666-21.832,48.666-48.667S129.084,20.466,102.249,20.466z M28.792,121.799c-1.104,0-2-0.896-2-2V60.606
	c-3.934-0.91-6.875-4.442-6.875-8.648v-0.125c0-4.206,2.941-7.738,6.875-8.648v-24.72c0-1.104,0.896-2,2-2s2,0.896,2,2v24.72
	c3.934,0.91,6.875,4.442,6.875,8.648v0.125c0,4.206-2.941,7.738-6.875,8.648v59.193C30.792,120.904,29.896,121.799,28.792,121.799z
	 M28.792,46.958c-2.688,0-4.875,2.187-4.875,4.875v0.125c0,2.688,2.187,4.875,4.875,4.875s4.875-2.187,4.875-4.875v-0.125
	C33.667,49.146,31.48,46.958,28.792,46.958z M102.249,112.466c-23.895,0-43.334-19.439-43.334-43.333s19.439-43.333,43.334-43.333
	c1.104,0,2,0.896,2,2s-0.896,2-2,2c-21.688,0-39.334,17.645-39.334,39.333s17.646,39.333,39.334,39.333c1.104,0,2,0.896,2,2
	S103.354,112.466,102.249,112.466z M102.397,97.395c-15.584,0-28.263-12.679-28.263-28.263S86.813,40.87,102.397,40.87
	c1.104,0,2,0.896,2,2s-0.896,2-2,2c-13.379,0-24.263,10.884-24.263,24.263s10.884,24.263,24.263,24.263c1.104,0,2,0.896,2,2
	S103.502,97.395,102.397,97.395z M102.249,88.418c-10.635,0-19.286-8.652-19.286-19.286s8.651-19.286,19.286-19.286
	s19.286,8.652,19.286,19.286S112.884,88.418,102.249,88.418z M102.249,53.846c-8.429,0-15.286,6.857-15.286,15.286
	s6.857,15.286,15.286,15.286s15.286-6.857,15.286-15.286S110.678,53.846,102.249,53.846z"/>
<g>
</g>
<g>
</g>
<g>
</g>
<g>
</g>
<g>
</g>
<g>
</g>
<g>
</g>
<g>
</g>
<g>
</g>
<g>
</g>
<g>
</g>
<g>
</g>
<g>
</g>
<g>
</g>
<g>
</g>
</svg>
