<?xml version="1.0" encoding="utf-8"?>
<!-- Generator: Adobe Illustrator 21.0.2, SVG Export Plug-In . SVG Version: 6.00 Build 0)  -->
<svg version="1.1" id="Capa_1" xmlns="http://www.w3.org/2000/svg" xmlns:xlink="http://www.w3.org/1999/xlink" x="0px" y="0px"
	 viewBox="0 0 277 273" style="enable-background:new 0 0 277 273;" xml:space="preserve">
<path d="M259,117.7L116.7,260c-1.9,1.9-5.1,1.9-7,0l-95.5-95.5c-1.9-1.9-1.9-5.1,0-7L156.4,15.2c1.9-1.9,5.1-1.9,7,0l95.5,95.5
	C260.9,112.6,260.9,115.8,259,117.7z M17,160.3c-0.4,0.4-0.4,1,0,1.4l95.5,95.5c0.4,0.4,1,0.4,1.4,0l142.3-142.3
	c0.4-0.4,0.4-1,0-1.4L160.6,18c-0.4-0.4-1-0.4-1.4,0L17,160.3z M238.4,120.6c-0.8,0.8-2,0.8-2.8,0l-6.9-6.9l-2.4,2.4
	c-0.8,0.8-2,0.8-2.8,0c-0.8-0.8-0.8-2,0-2.8l2.4-2.4l-26-26c-0.8-0.8-0.8-2,0-2.8s2-0.8,2.8,0l26,26l2.4-2.4c0.8-0.8,2-0.8,2.8,0
	c0.8,0.8,0.8,2,0,2.8l-2.4,2.4l6.9,6.9C239.1,118.6,239.1,119.8,238.4,120.6z M221.8,137.2c-0.8,0.8-2,0.8-2.8,0l-11.7-11.7
	l-2.4,2.4c-0.8,0.8-2,0.8-2.8,0c-0.8-0.8-0.8-2,0-2.8l2.4-2.4l-21.2-21.2c-0.8-0.8-0.8-2,0-2.8c0.8-0.8,2-0.8,2.8,0l21.2,21.2
	l2.4-2.4c0.8-0.8,2-0.8,2.8,0c0.8,0.8,0.8,2,0,2.8l-2.4,2.4l11.7,11.7C222.5,135.2,222.5,136.4,221.8,137.2z M202.3,156.7
	c-0.8,0.8-2,0.8-2.8,0l-29-29l-2.4,2.4c-0.8,0.8-2,0.8-2.8,0c-0.8-0.8-0.8-2,0-2.8l2.4-2.4l-3.9-3.9c-0.8-0.8-0.8-2,0-2.8
	c0.8-0.8,2-0.8,2.8,0l3.9,3.9l2.4-2.4c0.8-0.8,2-0.8,2.8,0c0.8,0.8,0.8,2,0,2.8l-2.4,2.4l29,29C203.1,154.6,203.1,155.9,202.3,156.7
	z M185.7,173.3c-0.8,0.8-2,0.8-2.8,0l-18.4-18.4l-2.4,2.4c-0.8,0.8-2,0.8-2.8,0s-0.8-2,0-2.8l2.4-2.4l-14.5-14.5
	c-0.8-0.8-0.8-2,0-2.8c0.8-0.8,2-0.8,2.8,0l14.5,14.5l2.4-2.4c0.8-0.8,2-0.8,2.8,0c0.8,0.8,0.8,2,0,2.8l-2.4,2.4l18.4,18.4
	C186.5,171.2,186.5,172.5,185.7,173.3z M169.1,189.9c-0.8,0.8-2,0.8-2.8,0l-4.8-4.8l-2.4,2.4c-0.8,0.8-2,0.8-2.8,0
	c-0.8-0.8-0.8-2,0-2.8l2.4-2.4l-28.1-28.1c-0.8-0.8-0.8-2,0-2.8c0.8-0.8,2-0.8,2.8,0l28.1,28.1l2.4-2.4c0.8-0.8,2-0.8,2.8,0
	c0.8,0.8,0.8,2,0,2.8l-2.4,2.4l4.8,4.8C169.9,187.8,169.9,189.1,169.1,189.9z M152.5,206.4c-0.8,0.8-2,0.8-2.8,0l-18.4-18.4
	l-2.4,2.4c-0.8,0.8-2,0.8-2.8,0s-0.8-2,0-2.8l2.4-2.4L114,170.7c-0.8-0.8-0.8-2,0-2.8c0.8-0.8,2-0.8,2.8,0l14.5,14.5l2.4-2.4
	c0.8-0.8,2-0.8,2.8,0c0.8,0.8,0.8,2,0,2.8l-2.4,2.4l18.4,18.4C153.3,204.4,153.3,205.7,152.5,206.4z M135.9,223
	c-0.8,0.8-2,0.8-2.8,0l-22.8-22.8l-2.4,2.4c-0.8,0.8-2,0.8-2.8,0c-0.8-0.8-0.8-2,0-2.8l2.4-2.4l-10.1-10.1c-0.8-0.8-0.8-2,0-2.8
	s2-0.8,2.8,0l10.1,10.1l2.4-2.4c0.8-0.8,2-0.8,2.8,0c0.8,0.8,0.8,2,0,2.8l-2.4,2.4l22.8,22.8C136.7,221,136.7,222.3,135.9,223z
	 M119.4,239.6c-0.8,0.8-2,0.8-2.8,0l-29-29l-2.4,2.4c-0.8,0.8-2,0.8-2.8,0c-0.8-0.8-0.8-2,0-2.8l2.4-2.4l-3.9-3.9
	c-0.8-0.8-0.8-2,0-2.8c0.8-0.8,2-0.8,2.8,0l3.9,3.9l2.4-2.4c0.8-0.8,2-0.8,2.8,0c0.8,0.8,0.8,2,0,2.8l-2.4,2.4l29,29
	C120.1,237.6,120.1,238.8,119.4,239.6z M197.6,70.7l-25,25c-0.8,0.8-2,0.8-2.8,0l-37.2-37.2c-0.8-0.8-0.8-2,0-2.8l25-25
	c0.8-0.8,2-0.8,2.8,0l37.2,37.2C198.4,68.6,198.4,69.9,197.6,70.7z M187.8,74.8l5.6-5.6L159,34.8L136.9,57l34.4,34.4l3.9-3.9
	l-26.6-26.6c-0.8-0.8-0.8-2,0-2.8c0.8-0.8,2-0.8,2.8,0L178,84.6l7-7l-18.1-18.1c-0.8-0.8-0.8-2,0-2.8c0.8-0.8,2-0.8,2.8,0
	L187.8,74.8L187.8,74.8z M157,111.3c-2.9,2.9-7.5,2.9-10.4,0c-2.9-2.9-2.9-7.5,0-10.4c2.9-2.9,7.5-2.9,10.4,0
	C159.8,103.8,159.8,108.5,157,111.3z M149.4,103.8c-1.3,1.3-1.3,3.4,0,4.7c1.3,1.3,3.4,1.3,4.7,0c1.3-1.3,1.3-3.4,0-4.7
	C152.8,102.5,150.7,102.5,149.4,103.8z M140.4,127.9c-2.9,2.9-7.5,2.9-10.4,0c-2.9-2.9-2.9-7.5,0-10.4c2.9-2.9,7.5-2.9,10.4,0
	C143.2,120.4,143.2,125.1,140.4,127.9z M132.8,120.4c-1.3,1.3-1.3,3.4,0,4.7c1.3,1.3,3.4,1.3,4.7,0c1.3-1.3,1.3-3.4,0-4.7
	C136.2,119.1,134.1,119.1,132.8,120.4z M123.8,144.5c-2.9,2.9-7.5,2.9-10.4,0c-2.9-2.9-2.9-7.5,0-10.4c2.9-2.9,7.5-2.9,10.4,0
	C126.6,137,126.6,141.7,123.8,144.5z M116.2,137c-1.3,1.3-1.3,3.4,0,4.7c1.3,1.3,3.4,1.3,4.7,0c1.3-1.3,1.3-3.4,0-4.7
	C119.7,135.7,117.5,135.7,116.2,137z M107.2,161.1c-2.9,2.9-7.5,2.9-10.4,0c-2.9-2.9-2.9-7.5,0-10.4c2.9-2.9,7.5-2.9,10.4,0
	C110.1,153.6,110.1,158.2,107.2,161.1z M99.7,153.6c-1.3,1.3-1.3,3.4,0,4.7c1.3,1.3,3.4,1.3,4.7,0c1.3-1.3,1.3-3.4,0-4.7
	C103.1,152.3,101,152.3,99.7,153.6z M90.6,177.7c-2.9,2.9-7.5,2.9-10.4,0c-2.9-2.9-2.9-7.5,0-10.4c2.9-2.9,7.5-2.9,10.4,0
	C93.5,170.2,93.5,174.8,90.6,177.7z M83.1,170.2c-1.3,1.3-1.3,3.4,0,4.7c1.3,1.3,3.4,1.3,4.7,0c1.3-1.3,1.3-3.4,0-4.7
	C86.5,168.9,84.4,168.9,83.1,170.2z M74,194.3c-2.9,2.9-7.5,2.9-10.4,0c-2.9-2.9-2.9-7.5,0-10.4c2.9-2.9,7.5-2.9,10.4,0
	C76.9,186.8,76.9,191.4,74,194.3z M66.5,186.7c-1.3,1.3-1.3,3.4,0,4.7c1.3,1.3,3.4,1.3,4.7,0c1.3-1.3,1.3-3.4,0-4.7
	C69.9,185.4,67.8,185.4,66.5,186.7z M142.1,96.5c-2.9,2.9-7.5,2.9-10.4,0c-2.9-2.9-2.9-7.5,0-10.4c2.9-2.9,7.5-2.9,10.4,0
	C145,89,145,93.6,142.1,96.5z M134.6,89c-1.3,1.3-1.3,3.4,0,4.7c1.3,1.3,3.4,1.3,4.7,0c1.3-1.3,1.3-3.4,0-4.7
	C138,87.7,135.9,87.7,134.6,89z M125.5,113.1c-2.9,2.9-7.5,2.9-10.4,0s-2.9-7.5,0-10.4c2.9-2.9,7.5-2.9,10.4,0
	C128.4,105.6,128.4,110.2,125.5,113.1z M118,105.5c-1.3,1.3-1.3,3.4,0,4.7s3.4,1.3,4.7,0s1.3-3.4,0-4.7S119.3,104.2,118,105.5z
	 M108.9,129.7c-2.9,2.9-7.5,2.9-10.4,0c-2.9-2.9-2.9-7.5,0-10.4c2.9-2.9,7.5-2.9,10.4,0S111.8,126.8,108.9,129.7z M101.4,122.1
	c-1.3,1.3-1.3,3.4,0,4.7c1.3,1.3,3.4,1.3,4.7,0c1.3-1.3,1.3-3.4,0-4.7S102.7,120.8,101.4,122.1z M92.4,146.3
	c-2.9,2.9-7.5,2.9-10.4,0c-2.9-2.9-2.9-7.5,0-10.4c2.9-2.9,7.5-2.9,10.4,0C95.2,138.8,95.2,143.4,92.4,146.3z M84.8,138.7
	c-1.3,1.3-1.3,3.4,0,4.7c1.3,1.3,3.4,1.3,4.7,0c1.3-1.3,1.3-3.4,0-4.7S86.1,137.4,84.8,138.7z M75.8,162.9c-2.9,2.9-7.5,2.9-10.4,0
	c-2.9-2.9-2.9-7.5,0-10.4c2.9-2.9,7.5-2.9,10.4,0C78.6,155.3,78.6,160,75.8,162.9z M68.2,155.3c-1.3,1.3-1.3,3.4,0,4.7
	c1.3,1.3,3.4,1.3,4.7,0c1.3-1.3,1.3-3.4,0-4.7C71.6,154,69.5,154,68.2,155.3z M59.2,179.4c-2.9,2.9-7.5,2.9-10.4,0
	c-2.9-2.9-2.9-7.5,0-10.4c2.9-2.9,7.5-2.9,10.4,0C62,171.9,62,176.6,59.2,179.4z M51.6,171.9c-1.3,1.3-1.3,3.4,0,4.7
	c1.3,1.3,3.4,1.3,4.7,0s1.3-3.4,0-4.7C55.1,170.6,52.9,170.6,51.6,171.9z M127.3,81.7c-2.9,2.9-7.5,2.9-10.4,0
	c-2.9-2.9-2.9-7.5,0-10.4c2.9-2.9,7.5-2.9,10.4,0C130.1,74.1,130.1,78.8,127.3,81.7z M119.7,74.1c-1.3,1.3-1.3,3.4,0,4.7
	c1.3,1.3,3.4,1.3,4.7,0c1.3-1.3,1.3-3.4,0-4.7C123.2,72.8,121,72.8,119.7,74.1z M110.7,98.2c-2.9,2.9-7.5,2.9-10.4,0
	c-2.9-2.9-2.9-7.5,0-10.4c2.9-2.9,7.5-2.9,10.4,0C113.6,90.7,113.6,95.4,110.7,98.2z M103.2,90.7c-1.3,1.3-1.3,3.4,0,4.7
	c1.3,1.3,3.4,1.3,4.7,0s1.3-3.4,0-4.7C106.6,89.4,104.4,89.4,103.2,90.7z M94.1,114.8c-2.9,2.9-7.5,2.9-10.4,0
	c-2.9-2.9-2.9-7.5,0-10.4c2.9-2.9,7.5-2.9,10.4,0C97,107.3,97,112,94.1,114.8z M86.6,107.3c-1.3,1.3-1.3,3.4,0,4.7
	c1.3,1.3,3.4,1.3,4.7,0c1.3-1.3,1.3-3.4,0-4.7C90,106,87.9,106,86.6,107.3z M77.5,131.4c-2.9,2.9-7.5,2.9-10.4,0
	c-2.9-2.9-2.9-7.5,0-10.4c2.9-2.9,7.5-2.9,10.4,0C80.4,123.9,80.4,128.6,77.5,131.4z M70,123.9c-1.3,1.3-1.3,3.4,0,4.7
	c1.3,1.3,3.4,1.3,4.7,0c1.3-1.3,1.3-3.4,0-4.7C73.4,122.6,71.3,122.6,70,123.9z M60.9,148c-2.9,2.9-7.5,2.9-10.4,0
	c-2.9-2.9-2.9-7.5,0-10.4c2.9-2.9,7.5-2.9,10.4,0C63.8,140.5,63.8,145.2,60.9,148z M53.4,140.5c-1.3,1.3-1.3,3.4,0,4.7
	c1.3,1.3,3.4,1.3,4.7,0c1.3-1.3,1.3-3.4,0-4.7S54.7,139.2,53.4,140.5z M44.3,164.6c-2.9,2.9-7.5,2.9-10.4,0c-2.9-2.9-2.9-7.5,0-10.4
	c2.9-2.9,7.5-2.9,10.4,0C47.2,157.1,47.2,161.7,44.3,164.6z M36.8,157.1c-1.3,1.3-1.3,3.4,0,4.7c1.3,1.3,3.4,1.3,4.7,0
	c1.3-1.3,1.3-3.4,0-4.7C40.2,155.8,38.1,155.8,36.8,157.1z"/>
</svg>
