<?xml version="1.0" encoding="utf-8"?>
<!-- Generator: Adobe Illustrator 21.0.2, SVG Export Plug-In . SVG Version: 6.00 Build 0)  -->
<svg version="1.1" id="Capa_1" xmlns="http://www.w3.org/2000/svg" xmlns:xlink="http://www.w3.org/1999/xlink" x="0px" y="0px"
	 viewBox="0 0 264 255" style="enable-background:new 0 0 264 255;" xml:space="preserve">
<path d="M247.6,96.9L102.9,241.6c-3.3,3.3-8.6,3.3-11.9,0l-75.2-75.2c-3.3-3.3-3.3-8.6,0-11.9L160.5,9.8c3.3-3.3,8.6-3.3,11.9,0
	L247.6,85C250.9,88.3,250.9,93.7,247.6,96.9z M189.5,149.4l55.3-55.3c1.7-1.7,1.7-4.5,0-6.3l-75.2-75.2c-1.7-1.7-4.5-1.7-6.3,0
	L108,68L189.5,149.4z M158.3,180.6l28.4-28.4l-81.4-81.4L76.8,99.2L158.3,180.6z M18.7,157.3c-1.7,1.7-1.7,4.5,0,6.3l75.2,75.2
	c1.7,1.7,4.5,1.7,6.3,0l55.3-55.3L74,102L18.7,157.3z M178.9,155.6l-17.4,17.4c-0.8,0.8-2,0.8-2.8,0L148,162.2c-0.8-0.8-0.8-2,0-2.8
	l17.4-17.4c0.8-0.8,2-0.8,2.8,0l10.7,10.7C179.7,153.5,179.7,154.8,178.9,155.6z M160.2,168.7l14.5-14.5l-7.9-7.9l-14.5,14.5
	C152.3,160.8,160.2,168.7,160.2,168.7z M234,97.9c-0.8,0.8-2,0.8-2.8,0l-5.3-5.3c-1.8,0.7-4,0.4-5.5-1.1c-1.5-1.5-1.9-3.7-1.1-5.5
	l-3.6-3.6c-0.8-0.8-0.8-2,0-2.8c0.8-0.8,2-0.8,2.8,0l3.6,3.6c1.8-0.7,4-0.4,5.5,1.1s1.9,3.7,1.1,5.5L234,95
	C234.8,95.8,234.8,97.1,234,97.9z M223.3,87.1c-0.4,0.4-0.4,1.1,0,1.5c0.4,0.4,1.1,0.4,1.5,0c0.4-0.4,0.4-1.1,0-1.5
	C224.4,86.7,223.7,86.7,223.3,87.1z M225.3,106.6l-7.5,7.5c-0.8,0.8-2,0.8-2.8,0l-5.5-5.5c-0.8-0.8-0.8-2,0-2.8l7.5-7.5
	c0.8-0.8,2-0.8,2.8,0l5.5,5.5C226.1,104.6,226.1,105.8,225.3,106.6z M216.4,109.9l4.6-4.6l-2.7-2.7l-4.6,4.6L216.4,109.9z
	 M213,118.9l-7.5,7.5c-0.8,0.8-2,0.8-2.8,0l-5.5-5.5c-0.8-0.8-0.8-2,0-2.8l7.5-7.5c0.8-0.8,2-0.8,2.8,0l5.5,5.5
	C213.7,116.9,213.7,118.1,213,118.9z M204.1,122.2l4.6-4.6l-2.7-2.7l-4.6,4.6L204.1,122.2z M200.7,131.2l-7.5,7.5
	c-0.8,0.8-2,0.8-2.8,0l-5.5-5.5c-0.8-0.8-0.8-2,0-2.8l7.5-7.5c0.8-0.8,2-0.8,2.8,0l5.5,5.5C201.4,129.2,201.4,130.5,200.7,131.2z
	 M191.8,134.5l4.6-4.6l-2.7-2.7l-4.6,4.6L191.8,134.5z M140.2,191.7c-0.8,0.8-2,0.8-2.8,0l-3.6-3.6c-1.8,0.7-4,0.4-5.5-1.1
	s-1.9-3.7-1.1-5.5l-5.3-5.3c-0.8-0.8-0.8-2,0-2.8c0.8-0.8,2-0.8,2.8,0l5.3,5.3c1.8-0.7,4-0.4,5.5,1.1s1.9,3.7,1.1,5.5l3.6,3.6
	C140.9,189.7,140.9,191,140.2,191.7z M131.1,182.7c-0.4,0.4-0.4,1.1,0,1.5c0.4,0.4,1.1,0.4,1.5,0s0.4-1.1,0-1.5
	C132.2,182.2,131.5,182.2,131.1,182.7z M131.6,200.3l-7.5,7.5c-0.8,0.8-2,0.8-2.8,0l-5.5-5.5c-0.8-0.8-0.8-2,0-2.8l7.5-7.5
	c0.8-0.8,2-0.8,2.8,0l5.5,5.5C132.4,198.2,132.4,199.5,131.6,200.3z M122.7,203.5l4.6-4.6l-2.7-2.7l-4.6,4.6L122.7,203.5z
	 M119.3,212.6l-7.5,7.5c-0.8,0.8-2,0.8-2.8,0l-5.5-5.5c-0.8-0.8-0.8-2,0-2.8l7.5-7.5c0.8-0.8,2-0.8,2.8,0l5.5,5.5
	C120.1,210.6,120.1,211.8,119.3,212.6z M110.4,215.8l4.7-4.7l-2.7-2.7l-4.7,4.7L110.4,215.8z M107,224.9l-7.5,7.5
	c-0.8,0.8-2,0.8-2.8,0l-5.5-5.5c-0.8-0.8-0.8-2,0-2.8l7.5-7.5c0.8-0.8,2-0.8,2.8,0l5.5,5.5C107.8,222.9,107.8,224.1,107,224.9z
	 M98.1,228.1l4.6-4.6l-2.7-2.7l-4.6,4.6C95.4,225.5,98.1,228.1,98.1,228.1z M215.3,96.6l-7.5,7.5c-0.8,0.8-2,0.8-2.8,0l-5.5-5.5
	c-0.8-0.8-0.8-2,0-2.8l7.5-7.5c0.8-0.8,2-0.8,2.8,0l5.5,5.5C216,94.6,216.1,95.8,215.3,96.6z M206.4,99.8l4.6-4.6l-2.7-2.7l-4.6,4.6
	L206.4,99.8z M203,108.9l-7.5,7.5c-0.8,0.8-2,0.8-2.8,0l-5.5-5.5c-0.8-0.8-0.8-2,0-2.8l7.5-7.5c0.8-0.8,2-0.8,2.8,0l5.5,5.5
	C203.7,106.9,203.7,108.1,203,108.9z M194.1,112.2l4.6-4.6l-2.7-2.7l-4.6,4.6L194.1,112.2z M190.6,121.2l-7.5,7.5
	c-0.8,0.8-2,0.8-2.8,0l-5.5-5.5c-0.8-0.8-0.8-2,0-2.8l7.5-7.5c0.8-0.8,2-0.8,2.8,0l5.5,5.5C191.4,119.2,191.4,120.4,190.6,121.2z
	 M181.8,124.5l4.6-4.6l-2.7-2.7l-4.6,4.6L181.8,124.5z M121.6,190.3l-7.5,7.5c-0.8,0.8-2,0.8-2.8,0l-5.5-5.5c-0.8-0.8-0.8-2,0-2.8
	l7.5-7.5c0.8-0.8,2-0.8,2.8,0l5.5,5.5C122.4,188.2,122.4,189.5,121.6,190.3z M112.7,193.5l4.6-4.6l-2.7-2.7l-4.6,4.6L112.7,193.5z
	 M109.3,202.6l-7.5,7.5c-0.8,0.8-2,0.8-2.8,0l-5.5-5.5c-0.8-0.8-0.8-2,0-2.8l7.5-7.5c0.8-0.8,2-0.8,2.8,0l5.5,5.5
	C110.1,200.5,110.1,201.8,109.3,202.6z M100.4,205.8l4.7-4.7l-2.7-2.7l-4.7,4.7L100.4,205.8z M97,214.9l-7.5,7.5
	c-0.8,0.8-2,0.8-2.8,0l-5.5-5.5c-0.8-0.8-0.8-2,0-2.8l7.5-7.5c0.8-0.8,2-0.8,2.8,0l5.5,5.5C97.8,212.9,97.8,214.1,97,214.9z
	 M88.1,218.1l4.6-4.6l-2.7-2.7l-4.6,4.6C85.4,215.5,88.1,218.1,88.1,218.1z M162.1,138.8c-0.8,0.8-2,0.8-2.8,0l-1.8-1.8
	c-1.8,0.7-4,0.4-5.5-1.1c-1.5-1.5-1.9-3.7-1.1-5.5l-7.1-7.1c-0.8-0.8-0.8-2,0-2.8c0.8-0.8,2-0.8,2.8,0l7.1,7.1
	c1.8-0.7,4-0.4,5.5,1.1c1.5,1.5,1.9,3.7,1.1,5.5l1.8,1.8C162.9,136.7,162.9,138,162.1,138.8z M154.9,131.5c-0.4,0.4-0.4,1.1,0,1.5
	c0.4,0.4,1.1,0.4,1.5,0c0.4-0.4,0.4-1.1,0-1.5C156,131.1,155.3,131.1,154.9,131.5z M153.5,147.5c-0.8,0.8-2,0.8-2.8,0l-5.3-5.3
	c-1.8,0.7-4,0.4-5.5-1.1s-1.9-3.7-1.1-5.5l-3.6-3.6c-0.8-0.8-0.8-2,0-2.8s2-0.8,2.8,0l3.6,3.6c1.8-0.7,4-0.4,5.5,1.1
	c1.5,1.5,1.9,3.7,1.1,5.5l5.3,5.3C154.2,145.4,154.2,146.7,153.5,147.5z M142.7,136.7c-0.4,0.4-0.4,1.1,0,1.5c0.4,0.4,1.1,0.4,1.5,0
	s0.4-1.1,0-1.5C143.8,136.3,143.1,136.3,142.7,136.7z M144.8,156.1c-0.8,0.8-2,0.8-2.8,0l-3.6-3.6c-1.8,0.7-4,0.4-5.5-1.1
	s-1.9-3.7-1.1-5.5l-5.3-5.3c-0.8-0.8-0.8-2,0-2.8c0.8-0.8,2-0.8,2.8,0l5.3,5.3c1.8-0.7,4-0.4,5.5,1.1s1.9,3.7,1.1,5.5l3.6,3.6
	C145.6,154.1,145.6,155.4,144.8,156.1z M135.7,147.1c-0.4,0.4-0.4,1.1,0,1.5c0.4,0.4,1.1,0.4,1.5,0s0.4-1.1,0-1.5
	C136.8,146.6,136.1,146.6,135.7,147.1z M192.7,94.3c-14.2,14.2-37.2,14.2-51.3,0c-14.2-14.2-14.2-37.2,0-51.3
	c14.2-14.2,37.2-14.2,51.3,0C206.9,57.1,206.9,80.2,192.7,94.3z M144.2,45.8c-12.6,12.6-12.6,33.1,0,45.7
	c12.6,12.6,33.1,12.6,45.7,0c12.6-12.6,12.6-33.1,0-45.7C177.3,33.2,156.8,33.2,144.2,45.8z M100,187.1c-14.2,14.2-37.2,14.2-51.3,0
	c-14.2-14.2-14.2-37.2,0-51.3s37.2-14.2,51.3,0S114.1,172.9,100,187.1z M51.5,138.6c-12.6,12.6-12.6,33.1,0,45.7
	c12.6,12.6,33.1,12.6,45.7,0c12.6-12.6,12.6-33.1,0-45.7C84.5,126,64.1,126,51.5,138.6z M187.3,88.9c-11.2,11.2-29.3,11.2-40.5,0
	c-11.2-11.2-11.2-29.3,0-40.5c0.8-0.8,2-0.8,2.8,0s0.8,2,0,2.8c-9.6,9.6-9.6,25.2,0,34.8c9.6,9.6,25.2,9.6,34.8,0
	c0.8-0.8,2-0.8,2.8,0C188.1,86.9,188.1,88.1,187.3,88.9z M94.6,181.7c-11.2,11.2-29.3,11.2-40.5,0s-11.2-29.3,0-40.5
	c0.8-0.8,2-0.8,2.8,0s0.8,2,0,2.8c-9.6,9.6-9.6,25.2,0,34.8c9.6,9.6,25.2,9.6,34.8,0c0.8-0.8,2-0.8,2.8,0
	C95.3,179.6,95.3,180.9,94.6,181.7z M139.6,116.3c-0.8,0.8-2,0.8-2.8,0l-8.4-8.4c-0.8-0.8-0.8-2,0-2.8c0.8-0.8,2-0.8,2.8,0l8.4,8.4
	C140.4,114.2,140.4,115.5,139.6,116.3z M131,125c-0.8,0.8-2,0.8-2.8,0l-8.4-8.4c-0.8-0.8-0.8-2,0-2.8c0.8-0.8,2-0.8,2.8,0l8.4,8.4
	C131.8,122.9,131.8,124.2,131,125z M122.3,133.6c-0.8,0.8-2,0.8-2.8,0l-8.4-8.4c-0.8-0.8-0.8-2,0-2.8c0.8-0.8,2-0.8,2.8,0l8.4,8.4
	C123.1,131.6,123.1,132.9,122.3,133.6z M174,75.6c-3.9,3.9-10.1,3.9-14,0s-3.9-10.1,0-14c3.9-3.9,10.1-3.9,14,0S177.9,71.8,174,75.6
	z M162.9,64.5c-2.3,2.3-2.3,6,0,8.3c2.3,2.3,6,2.3,8.3,0c2.3-2.3,2.3-6,0-8.3C168.9,62.2,165.2,62.2,162.9,64.5z M81.3,168.4
	c-3.9,3.9-10.1,3.9-14,0c-3.9-3.9-3.9-10.1,0-14c3.9-3.9,10.1-3.9,14,0C85.2,158.3,85.2,164.5,81.3,168.4z M70.1,157.2
	c-2.3,2.3-2.3,6,0,8.3c2.3,2.3,6,2.3,8.3,0c2.3-2.3,2.3-6,0-8.3C76.2,154.9,72.4,154.9,70.1,157.2z M125.1,101.8
	c-0.8,0.8-2,0.8-2.8,0l-0.2-0.2c-0.8-0.8-0.8-2,0-2.8c0.8-0.8,2-0.8,2.8,0l0.2,0.2C125.9,99.7,125.9,101,125.1,101.8z M116.5,110.4
	c-0.8,0.8-2,0.8-2.8,0l-0.2-0.2c-0.8-0.8-0.8-2,0-2.8c0.8-0.8,2-0.8,2.8,0l0.2,0.2C117.2,108.4,117.2,109.7,116.5,110.4z
	 M107.8,119.1c-0.8,0.8-2,0.8-2.8,0l-0.2-0.2c-0.8-0.8-0.8-2,0-2.8c0.8-0.8,2-0.8,2.8,0l0.2,0.2
	C108.6,117.1,108.6,118.3,107.8,119.1z M118.7,95.4c-0.8,0.8-2,0.8-2.8,0l-0.2-0.2c-0.8-0.8-0.8-2,0-2.8c0.8-0.8,2-0.8,2.8,0
	l0.2,0.2C119.5,93.3,119.5,94.6,118.7,95.4z M110,104c-0.8,0.8-2,0.8-2.8,0l-0.2-0.2c-0.8-0.8-0.8-2,0-2.8c0.8-0.8,2-0.8,2.8,0
	l0.2,0.2C110.8,102,110.8,103.3,110,104z M101.4,112.7c-0.8,0.8-2,0.8-2.8,0l-0.2-0.2c-0.8-0.8-0.8-2,0-2.8c0.8-0.8,2-0.8,2.8,0
	l0.2,0.2C102.1,110.7,102.1,111.9,101.4,112.7z M112.3,89c-0.8,0.8-2,0.8-2.8,0l-0.2-0.2c-0.8-0.8-0.8-2,0-2.8c0.8-0.8,2-0.8,2.8,0
	l0.2,0.2C113.1,86.9,113.1,88.2,112.3,89z M103.6,97.6c-0.8,0.8-2,0.8-2.8,0l-0.2-0.2c-0.8-0.8-0.8-2,0-2.8c0.8-0.8,2-0.8,2.8,0
	l0.2,0.2C104.4,95.6,104.4,96.9,103.6,97.6z M95,106.3c-0.8,0.8-2,0.8-2.8,0l-0.2-0.2c-0.8-0.8-0.8-2,0-2.8c0.8-0.8,2-0.8,2.8,0
	l0.2,0.2C95.7,104.3,95.7,105.5,95,106.3z M105.9,82.6c-0.8,0.8-2,0.8-2.8,0l-0.2-0.2c-0.8-0.8-0.8-2,0-2.8c0.8-0.8,2-0.8,2.8,0
	l0.2,0.2C106.7,80.5,106.7,81.8,105.9,82.6z M97.2,91.2c-0.8,0.8-2,0.8-2.8,0L94.2,91c-0.8-0.8-0.8-2,0-2.8c0.8-0.8,2-0.8,2.8,0
	l0.2,0.2C98,89.2,98,90.5,97.2,91.2z M88.6,99.9c-0.8,0.8-2,0.8-2.8,0l-0.2-0.2c-0.8-0.8-0.8-2,0-2.8c0.8-0.8,2-0.8,2.8,0l0.2,0.2
	C89.3,97.9,89.3,99.1,88.6,99.9z"/>
</svg>
