<?xml version="1.0" encoding="iso-8859-1"?>
<!-- Generator: Adobe Illustrator 17.1.0, SVG Export Plug-In . SVG Version: 6.00 Build 0)  -->
<!DOCTYPE svg PUBLIC "-//W3C//DTD SVG 1.1//EN" "http://www.w3.org/Graphics/SVG/1.1/DTD/svg11.dtd">
<svg version="1.1" id="Capa_1" xmlns="http://www.w3.org/2000/svg" xmlns:xlink="http://www.w3.org/1999/xlink" x="0px" y="0px"
	 viewBox="0 0 198.5 198.5" style="enable-background:new 0 0 198.5 198.5;" xml:space="preserve">
<path d="M196.5,182.048H2c-1.104,0-2-0.896-2-2v-35.616c0-1.104,0.896-2,2-2h36.999l28.787-55.147
	c3.529-6.761,10.459-10.961,18.085-10.961h26.757c7.627,0,14.557,4.2,18.087,10.961l0,0l28.786,55.147H196.5c1.104,0,2,0.896,2,2
	v35.616C198.5,181.152,197.605,182.048,196.5,182.048z M4,178.048h190.5v-31.616H4V178.048z M139.993,142.431h14.997l-27.821-53.296
	c-2.837-5.436-8.408-8.813-14.54-8.813H85.872c-6.131,0-11.702,3.377-14.54,8.813l-27.821,53.296h14.997l14.417-29.236
	c0.411-0.834,1.34-1.279,2.248-1.063c0.905,0.211,1.546,1.018,1.546,1.947v28.352h45.061V114.08c0-0.93,0.641-1.736,1.546-1.947
	c0.899-0.217,1.836,0.228,2.248,1.063L139.993,142.431z M125.781,142.431h9.752l-9.752-19.774V142.431z M62.968,142.431h9.751
	v-19.774L62.968,142.431z M177.08,173.615c-6.272,0-11.375-5.103-11.375-11.375s5.103-11.375,11.375-11.375
	s11.375,5.103,11.375,11.375S183.352,173.615,177.08,173.615z M177.08,154.865c-4.066,0-7.375,3.309-7.375,7.375
	s3.309,7.375,7.375,7.375s7.375-3.309,7.375-7.375S181.146,154.865,177.08,154.865z M145.948,173.615
	c-6.272,0-11.375-5.103-11.375-11.375s5.103-11.375,11.375-11.375s11.375,5.103,11.375,11.375S152.22,173.615,145.948,173.615z
	 M145.948,154.865c-4.066,0-7.375,3.309-7.375,7.375s3.309,7.375,7.375,7.375s7.375-3.309,7.375-7.375
	S150.014,154.865,145.948,154.865z M114.816,173.615c-6.272,0-11.375-5.103-11.375-11.375s5.103-11.375,11.375-11.375
	s11.375,5.103,11.375,11.375S121.088,173.615,114.816,173.615z M114.816,154.865c-4.066,0-7.375,3.309-7.375,7.375
	s3.309,7.375,7.375,7.375s7.375-3.309,7.375-7.375S118.882,154.865,114.816,154.865z M83.684,173.615
	c-6.272,0-11.375-5.103-11.375-11.375s5.103-11.375,11.375-11.375s11.375,5.103,11.375,11.375S89.956,173.615,83.684,173.615z
	 M83.684,154.865c-4.066,0-7.375,3.309-7.375,7.375s3.309,7.375,7.375,7.375s7.375-3.309,7.375-7.375S87.75,154.865,83.684,154.865z
	 M52.552,173.615c-6.272,0-11.375-5.103-11.375-11.375s5.103-11.375,11.375-11.375s11.375,5.103,11.375,11.375
	S58.824,173.615,52.552,173.615z M52.552,154.865c-4.066,0-7.375,3.309-7.375,7.375s3.309,7.375,7.375,7.375
	s7.375-3.309,7.375-7.375S56.619,154.865,52.552,154.865z M21.42,173.615c-6.272,0-11.375-5.103-11.375-11.375
	s5.103-11.375,11.375-11.375s11.375,5.103,11.375,11.375S27.692,173.615,21.42,173.615z M21.42,154.865
	c-4.066,0-7.375,3.309-7.375,7.375s3.309,7.375,7.375,7.375s7.375-3.309,7.375-7.375S25.487,154.865,21.42,154.865z M99.25,73.878
	c-9.898,0-18.441-5.911-22.285-14.39c-0.747,0.552-1.67,0.878-2.667,0.878h-3.315c-2.481,0-4.5-2.019-4.5-4.5V40.909
	c0-2.481,2.019-4.5,4.5-4.5h0.258c1.908-4.797,9.414-19.956,28.01-19.956c18.595,0,26.101,15.159,28.009,19.956h0.258
	c2.481,0,4.5,2.019,4.5,4.5v14.957c0,2.481-2.019,4.5-4.5,4.5h-3.315c-0.998,0-1.921-0.326-2.667-0.878
	C117.691,67.967,109.148,73.878,99.25,73.878z M99.25,28.974c-11.277,0-20.452,9.175-20.452,20.451
	c0,11.277,9.175,20.452,20.452,20.452c11.276,0,20.451-9.175,20.451-20.452C119.702,38.149,110.527,28.974,99.25,28.974z
	 M123.702,49.426v6.44c0,0.275,0.225,0.5,0.5,0.5h3.315c0.275,0,0.5-0.225,0.5-0.5V40.909c0-0.275-0.225-0.5-0.5-0.5h-1.612
	c-0.03,0.001-0.06,0.001-0.092,0h-1.611c-0.275,0-0.5,0.225-0.5,0.5V49.426z M70.983,40.409c-0.276,0-0.5,0.225-0.5,0.5v14.957
	c0,0.275,0.224,0.5,0.5,0.5h3.315c0.276,0,0.5-0.225,0.5-0.5V40.909c0-0.275-0.224-0.5-0.5-0.5h-1.611c-0.03,0-0.06,0-0.091,0
	H70.983z M75.501,36.572c0.851,0.236,1.601,0.717,2.17,1.361c4.12-7.705,12.248-12.959,21.579-12.959s17.458,5.254,21.578,12.959
	c0.574-0.65,1.333-1.134,2.193-1.367c-2.222-5.033-8.81-16.113-23.771-16.113C84.446,20.453,77.763,31.56,75.501,36.572z"/>
<g>
</g>
<g>
</g>
<g>
</g>
<g>
</g>
<g>
</g>
<g>
</g>
<g>
</g>
<g>
</g>
<g>
</g>
<g>
</g>
<g>
</g>
<g>
</g>
<g>
</g>
<g>
</g>
<g>
</g>
</svg>
