<?xml version="1.0" encoding="iso-8859-1"?>
<!-- Generator: Adobe Illustrator 17.1.0, SVG Export Plug-In . SVG Version: 6.00 Build 0)  -->
<!DOCTYPE svg PUBLIC "-//W3C//DTD SVG 1.1//EN" "http://www.w3.org/Graphics/SVG/1.1/DTD/svg11.dtd">
<svg version="1.1" id="Capa_1" xmlns="http://www.w3.org/2000/svg" xmlns:xlink="http://www.w3.org/1999/xlink" x="0px" y="0px"
	 viewBox="0 0 184.369 184.369" style="enable-background:new 0 0 184.369 184.369;" xml:space="preserve">
<path d="M112.225,162.506h-58.93c-1.104,0-2-0.896-2-2v-3.482H19.482c-0.064,0.636-0.43,1.207-0.99,1.531
	c-0.619,0.357-1.381,0.357-2,0l-12.61-7.28c-0.619-0.357-1-1.018-1-1.732s0.381-1.375,1-1.732l12.61-7.28
	c0.619-0.357,1.381-0.357,2,0c0.56,0.324,0.926,0.896,0.99,1.531h31.813v-3.482c0-1.104,0.896-2,2-2h58.93c1.104,0,2,0.896,2,2
	v8.964h45.932c11.145,0,20.212-9.067,20.212-20.212s-9.067-20.212-20.212-20.212H37.128C16.656,107.118,0,90.462,0,69.99
	s16.656-37.128,37.128-37.128h34.815v-8.999c0-1.104,0.896-2,2-2h58.929c1.104,0,2,0.896,2,2v3.482h31.813
	c0.064-0.636,0.43-1.207,0.99-1.531c0.619-0.357,1.381-0.357,2,0l12.61,7.28c0.619,0.357,1,1.018,1,1.732s-0.381,1.375-1,1.732
	l-12.61,7.28c-0.619,0.357-1.381,0.357-2,0c-0.561-0.324-0.926-0.896-0.99-1.531h-31.813v3.482c0,1.104-0.896,2-2,2H73.943
	c-1.104,0-2-0.896-2-2v-8.929H37.128C18.861,36.862,4,51.723,4,69.99c0,18.268,14.861,33.129,33.128,33.129h123.028
	c13.351,0,24.212,10.861,24.212,24.212s-10.861,24.212-24.212,24.212h-45.932v8.964C114.225,161.611,113.33,162.506,112.225,162.506
	z M55.295,158.506h54.93v-17.928h-54.93V158.506z M8.882,149.542l6.61,3.816v-7.633L8.882,149.542z M47.073,153.024h4.223v-6.963
	h-4.223V153.024z M27.544,153.024h15.529v-6.963H27.544V153.024z M19.493,153.024h4.051v-6.963h-4.051V153.024z M75.943,43.79
	h54.929V25.863H75.943v8.645c0.021,0.115,0.031,0.233,0.031,0.354s-0.011,0.239-0.031,0.354V43.79z M170.675,31.01v7.633l6.61-3.816
	L170.675,31.01z M162.625,38.308h4.051v-6.963h-4.051V38.308z M143.095,38.308h15.529v-6.963h-15.529V38.308z M134.873,38.308h4.223
	v-6.963h-4.223V38.308z"/>
<g>
</g>
<g>
</g>
<g>
</g>
<g>
</g>
<g>
</g>
<g>
</g>
<g>
</g>
<g>
</g>
<g>
</g>
<g>
</g>
<g>
</g>
<g>
</g>
<g>
</g>
<g>
</g>
<g>
</g>
</svg>
