<?xml version="1.0" encoding="iso-8859-1"?>
<!-- Generator: Adobe Illustrator 17.1.0, SVG Export Plug-In . SVG Version: 6.00 Build 0)  -->
<!DOCTYPE svg PUBLIC "-//W3C//DTD SVG 1.1//EN" "http://www.w3.org/Graphics/SVG/1.1/DTD/svg11.dtd">
<svg version="1.1" id="Capa_1" xmlns="http://www.w3.org/2000/svg" xmlns:xlink="http://www.w3.org/1999/xlink" x="0px" y="0px"
	 viewBox="0 0 216.006 216.006" style="enable-background:new 0 0 216.006 216.006;" xml:space="preserve">
<path d="M108.004,216.006c-6.811,0-13.218-2.999-17.579-8.229L18.493,121.51c-3.839-4.604-4.645-10.838-2.103-16.268
	s7.845-8.803,13.84-8.803h32.059V12.841C62.289,5.761,68.049,0,75.129,0h65.748c7.08,0,12.84,5.761,12.84,12.841v83.599h32.058
	c5.995,0,11.299,3.373,13.841,8.803s1.736,11.663-2.103,16.268l-71.933,86.267C121.22,213.006,114.813,216.006,108.004,216.006z
	 M30.23,100.439c-4.426,0-8.341,2.49-10.218,6.498c-1.877,4.009-1.281,8.611,1.553,12.01l71.932,86.267
	c3.6,4.316,8.887,6.792,14.506,6.792c5.62,0,10.906-2.476,14.505-6.791l71.933-86.268c2.834-3.398,3.43-8.001,1.553-12.009
	c-1.877-4.009-5.793-6.499-10.219-6.499h-34.058c-1.104,0-2-0.896-2-2V12.841c0-4.875-3.966-8.841-8.84-8.841H75.129
	c-4.874,0-8.84,3.966-8.84,8.841v85.599c0,1.104-0.896,2-2,2H30.23z M76.111,154.173c-6.614,0-11.995-5.381-11.995-11.995
	c0-6.613,5.381-11.994,11.995-11.994c3.068,0,5.871,1.158,7.994,3.06V96.318c-0.001-0.025-0.001-0.051,0-0.077V85.378
	c0-0.954,0.675-1.776,1.61-1.962l50.206-9.961c0.589-0.117,1.195,0.036,1.659,0.416c0.462,0.38,0.73,0.947,0.73,1.546v10.868
	c0.001,0.025,0.001,0.051,0,0.077v43.406c0,6.614-5.381,11.995-11.995,11.995s-11.995-5.381-11.995-11.995
	c0-6.613,5.381-11.994,11.995-11.994c3.068,0,5.872,1.158,7.995,3.061V88.757l-46.206,9.168v44.253
	C88.105,148.792,82.725,154.173,76.111,154.173z M76.111,134.184c-4.408,0-7.995,3.586-7.995,7.994s3.587,7.995,7.995,7.995
	s7.994-3.587,7.994-7.995S80.52,134.184,76.111,134.184z M126.316,121.774c-4.408,0-7.995,3.586-7.995,7.994
	s3.587,7.995,7.995,7.995c4.408,0,7.995-3.587,7.995-7.995S130.725,121.774,126.316,121.774z M88.105,87.021v6.826l46.206-9.168
	v-6.826L88.105,87.021z"/>
<g>
</g>
<g>
</g>
<g>
</g>
<g>
</g>
<g>
</g>
<g>
</g>
<g>
</g>
<g>
</g>
<g>
</g>
<g>
</g>
<g>
</g>
<g>
</g>
<g>
</g>
<g>
</g>
<g>
</g>
</svg>
