<?xml version="1.0" encoding="iso-8859-1"?>
<!-- Generator: Adobe Illustrator 17.1.0, SVG Export Plug-In . SVG Version: 6.00 Build 0)  -->
<!DOCTYPE svg PUBLIC "-//W3C//DTD SVG 1.1//EN" "http://www.w3.org/Graphics/SVG/1.1/DTD/svg11.dtd">
<svg version="1.1" id="Capa_1" xmlns="http://www.w3.org/2000/svg" xmlns:xlink="http://www.w3.org/1999/xlink" x="0px" y="0px"
	 viewBox="0 0 196.333 196.333" style="enable-background:new 0 0 196.333 196.333;" xml:space="preserve">
<path d="M98.167,196.333c-1.104,0-2-0.896-2-2v-36.838l-38.252,38.252c-0.781,0.781-2.048,0.781-2.828,0
	c-0.781-0.781-0.781-2.047,0-2.828l41.081-41.08V86.286L56.065,68H31.257c-1.104,0-2-0.896-2-2v-6.538c0-1.104,0.896-2,2-2h1.823
	V10.538h-1.823c-1.104,0-2-0.896-2-2V2c0-1.104,0.896-2,2-2h133.819c1.104,0,2,0.896,2,2v6.538c0,1.104-0.896,2-2,2h-1.823v46.924
	h1.823c1.104,0,2,0.896,2,2V66c0,1.104-0.896,2-2,2h-24.974l-39.936,18.284v65.555l40.914,40.914c0.781,0.781,0.781,2.047,0,2.828
	c-0.78,0.781-2.048,0.781-2.828,0l-38.086-38.086v36.838C100.167,195.438,99.271,196.333,98.167,196.333z M65.707,68l32.458,14.801
	L130.494,68H65.707z M139.708,64h23.368v-2.538H129.93c-0.011,0-0.018,0.004-0.034,0c-0.008,0.002-0.023,0-0.034,0H66.719
	c-0.011,0-0.023,0.004-0.034,0c-0.014,0.002-0.023,0-0.034,0H33.257V64h23.201c0.03,0,0.058,0,0.086,0h83.078
	C139.651,64,139.681,64,139.708,64z M133.491,57.462h25.762V15.953L133.491,57.462z M70.28,57.462h56.021l-28.01-45.131
	L70.28,57.462z M37.08,57.462h26.01L37.08,15.554V57.462z M101.886,10.538l28.01,45.131l28.01-45.131H101.886z M38.675,10.538
	l28.01,45.131l28.01-45.131H38.675z M161.536,6.538h1.54V4H33.257v2.538h1.788c0.022,0,0.044,0,0.065,0h63.146
	c0.012,0,0.02,0,0.035,0c0.006-0.003,0.022,0,0.035,0h63.146C161.492,6.538,161.514,6.538,161.536,6.538z"/>
<g>
</g>
<g>
</g>
<g>
</g>
<g>
</g>
<g>
</g>
<g>
</g>
<g>
</g>
<g>
</g>
<g>
</g>
<g>
</g>
<g>
</g>
<g>
</g>
<g>
</g>
<g>
</g>
<g>
</g>
</svg>
