<?xml version="1.0" encoding="iso-8859-1"?>
<!-- Generator: Adobe Illustrator 17.1.0, SVG Export Plug-In . SVG Version: 6.00 Build 0)  -->
<!DOCTYPE svg PUBLIC "-//W3C//DTD SVG 1.1//EN" "http://www.w3.org/Graphics/SVG/1.1/DTD/svg11.dtd">
<svg version="1.1" id="Capa_1" xmlns="http://www.w3.org/2000/svg" xmlns:xlink="http://www.w3.org/1999/xlink" x="0px" y="0px"
	 viewBox="0 0 210.803 210.803" style="enable-background:new 0 0 210.803 210.803;" xml:space="preserve">
<path d="M195.886,191.439c-0.426,0-0.854-0.135-1.217-0.413l-23.719-18.201l-22.368,18.167c-0.855,0.695-2.116,0.567-2.813-0.292
	c-0.696-0.857-0.565-2.117,0.292-2.813l22.854-18.562v-41.084l-7.886,0.44c0.971,3.906,1.486,7.99,1.486,12.192
	c0,27.882-22.684,50.565-50.565,50.565c-16.953,0-31.985-8.388-41.164-21.229H53.28l21.765,17.677
	c0.857,0.696,0.988,1.956,0.292,2.813c-0.697,0.856-1.957,0.986-2.813,0.292l-22.368-18.167l-17.77,13.636v2.979
	c0,1.104-0.896,2-2,2c-1.075,0-1.951-0.848-1.998-1.91l-1.951,1.497c-0.877,0.671-2.132,0.506-2.805-0.369
	c-0.672-0.877-0.507-2.132,0.369-2.805l4.384-3.364v-78.165L1.428,98.271c-0.951-0.284-1.55-1.223-1.407-2.205
	S1.008,94.355,2,94.355h26.386v-4.094H2c-0.993,0-1.835-0.729-1.979-1.711s0.456-1.921,1.407-2.205l28.385-8.478
	c0.373-0.111,0.771-0.111,1.145,0l17.233,5.146v-40.18c0-0.85,0.537-1.606,1.339-1.888l20.24-7.092L50.432,23.112
	c-0.966-0.536-1.313-1.754-0.777-2.72c0.536-0.965,1.754-1.313,2.72-0.776l43.399,24.11c0.966,0.536,1.313,1.754,0.777,2.72
	c-0.536,0.965-1.753,1.313-2.72,0.776L74.448,36.455c-0.001,0-0.002,0-0.003,0.001l-22.255,7.798v39.955l7.152,2.137
	c0.951,0.284,1.55,1.223,1.407,2.205s-0.986,1.711-1.979,1.711h-6.58v4.094h6.58c0.993,0,1.835,0.729,1.979,1.711
	s-0.456,1.921-1.407,2.205l-7.152,2.137v10.979h18.704c0.707-0.982,1.451-1.94,2.225-2.868V86.372l-14.986-2.691
	c-0.522-0.094-0.986-0.392-1.289-0.827s-0.42-0.973-0.326-1.495l4.385-24.409c0.195-1.088,1.235-1.813,2.322-1.615l33.446,6.008
	c0.522,0.094,0.985,0.392,1.289,0.827c0.303,0.436,0.42,0.974,0.326,1.495l-4.385,24.409c-0.196,1.088-1.238,1.813-2.322,1.615
	l-14.46-2.598v17.16c9.075-8.636,21.345-13.942,34.831-13.942c16.286,0,30.8,7.74,40.054,19.734l-0.429-7.675
	c-0.029-0.529,0.152-1.049,0.506-1.444s0.851-0.635,1.38-0.664l5.055-0.282v-12.86l-19.608,3.746
	c-1.091,0.202-2.132-0.505-2.34-1.59l-4.653-24.359c-0.1-0.521,0.013-1.06,0.311-1.499c0.298-0.438,0.758-0.741,1.279-0.841
	l35.411-6.764V44.254l-22.255-7.798c-0.001-0.001-0.002-0.001-0.002-0.001l-19.383,10.768c-0.968,0.538-2.184,0.188-2.72-0.776
	c-0.537-0.966-0.188-2.184,0.776-2.72l43.398-24.11c0.967-0.537,2.184-0.188,2.72,0.776c0.537,0.966,0.188,2.184-0.776,2.72
	l-19.338,10.743l20.24,7.092c0.802,0.281,1.339,1.038,1.339,1.888v12.212l4.646-0.888c1.094-0.199,2.132,0.506,2.34,1.59
	l4.653,24.358c0.1,0.521-0.013,1.06-0.311,1.499c-0.298,0.438-0.758,0.741-1.279,0.841l-10.05,1.919v14.808l27.899-1.558
	c0.145-0.008,0.285-0.001,0.424,0.021c0.103-0.016,0.208-0.024,0.314-0.024h7.25c1.104,0,2,0.896,2,2v89.826c0,1.104-0.896,2-2,2
	c-1.104,0-2-0.896-2-2v-87.826h-3.763l1.265,22.649c0.062,1.103-0.783,2.047-1.886,2.108l-29.504,1.647v41.272l24.189,18.562
	c0.876,0.673,1.041,1.928,0.369,2.805C197.081,191.17,196.486,191.439,195.886,191.439z M73.711,167.419
	c8.419,12.093,22.421,20.021,38.24,20.021c25.676,0,46.565-20.89,46.565-46.565c0-25.677-20.89-46.565-46.565-46.565
	c-15.75,0-29.697,7.858-38.128,19.861c-0.106,0.25-0.262,0.474-0.455,0.659c-5.038,7.438-7.982,16.403-7.982,26.045
	c0,9.583,2.91,18.499,7.893,25.912C73.46,166.966,73.609,167.181,73.711,167.419z M32.385,115.388v66.031l14.608-11.209h-7.997
	c-1.104,0-2-0.896-2-2v-52.822H32.385z M52.191,166.21h16.012c-4.333-7.454-6.817-16.11-6.817-25.336
	c0-9.288,2.517-17.998,6.905-25.486h-16.1V166.21z M40.996,166.21h7.194v-50.822h-7.194V166.21z M156.378,116.607
	c1.427,2.604,2.622,5.33,3.565,8.129l8.973-0.501v-20.832l-13.234,0.739L156.378,116.607z M172.916,103.18v20.832l27.284-1.523
	l-1.159-20.767L172.916,103.18z M38.996,111.388h9.194v-9.785l-15.805,4.721v5.064H38.996z M15.686,98.355l14.7,4.391l14.7-4.391
	H15.686z M162.516,86.353v13.401l6.399-0.357V85.131L162.516,86.353z M32.386,94.355h15.805v-4.094H32.386V94.355z M136.219,66.128
	l3.902,20.431l19.985-3.817c0.021-0.005,0.042-0.009,0.063-0.012l8.745-1.671V59.883L136.219,66.128z M30.386,86.262h14.699
	l-14.7-4.391l-14.7,4.391H30.386z M75.528,82.741l14.791,2.656l3.677-20.472l-29.509-5.301l-3.677,20.472l14.614,2.625
	C75.459,82.727,75.493,82.733,75.528,82.741z M172.916,59.119v21.175l7.335-1.4l-3.902-20.43L172.916,59.119z M111.951,181.134
	c-22.241,0-40.335-18.094-40.335-40.335s18.094-40.335,40.335-40.335c1.104,0,2,0.896,2,2s-0.896,2-2,2
	c-20.035,0-36.335,16.3-36.335,36.335s16.3,36.335,36.335,36.335c1.104,0,2,0.896,2,2S113.055,181.134,111.951,181.134z"/>
<g>
</g>
<g>
</g>
<g>
</g>
<g>
</g>
<g>
</g>
<g>
</g>
<g>
</g>
<g>
</g>
<g>
</g>
<g>
</g>
<g>
</g>
<g>
</g>
<g>
</g>
<g>
</g>
<g>
</g>
</svg>
