<?xml version="1.0" encoding="iso-8859-1"?>
<!-- Generator: Adobe Illustrator 17.1.0, SVG Export Plug-In . SVG Version: 6.00 Build 0)  -->
<!DOCTYPE svg PUBLIC "-//W3C//DTD SVG 1.1//EN" "http://www.w3.org/Graphics/SVG/1.1/DTD/svg11.dtd">
<svg version="1.1" id="Capa_1" xmlns="http://www.w3.org/2000/svg" xmlns:xlink="http://www.w3.org/1999/xlink" x="0px" y="0px"
	 viewBox="0 0 200.468 200.468" style="enable-background:new 0 0 200.468 200.468;" xml:space="preserve">
<path d="M184.23,200.468H14.534c-1.104,0-2-0.896-2-2v-9.5c0-1.104,0.896-2,2-2h2.848v-70h-2.848c-1.104,0-2-0.896-2-2v-9.5
	c0-1.104,0.896-2,2-2H184.23c1.104,0,2,0.896,2,2v9.5c0,1.104-0.896,2-2,2h-2.848v70h2.848c1.104,0,2,0.896,2,2v9.5
	C186.23,199.572,185.334,200.468,184.23,200.468z M16.534,196.468H182.23v-5.5h-42.57c-0.014,0-0.036-0.004-0.042,0
	c-0.009-0.005-0.028,0-0.042,0H59.502c-0.015,0-0.04-0.004-0.042,0c-0.013-0.005-0.027,0-0.042,0H16.534V196.468z M142.976,186.968
	h34.406V123.44L142.976,186.968z M62.819,186.968h73.441l-36.721-67.8L62.819,186.968z M21.382,186.968h34.721L21.382,122.86
	V186.968z M22.74,116.968l36.721,67.8l36.721-67.8H22.74z M102.897,116.968l36.721,67.8l36.721-67.8H102.897z M179.737,112.968
	h2.493v-5.5H16.534v5.5h2.807c0.025-0.001,0.051-0.002,0.078,0h80.08c0.014,0,0.037,0.004,0.041,0c0.01,0.005,0.027,0,0.041,0h80.08
	C179.685,112.967,179.711,112.967,179.737,112.968z M51.052,90.514c-1.814,0-3.59-0.596-5.063-1.73
	c-1.995-1.536-3.177-3.884-3.243-6.441c-0.082-3.188,1.795-6.25,4.671-7.621c2.541-1.212,5.484-1.091,7.874,0.321
	c0.391,0.231,0.856,0.3,1.305,0.192l124.568-29.515c1.428-0.339,2.905-0.101,4.156,0.671c1.25,0.771,2.125,1.983,2.464,3.413
	c0.338,1.43,0.1,2.906-0.671,4.156c-0.771,1.25-1.983,2.125-3.414,2.464L59.134,85.94c-0.451,0.107-0.829,0.357-1.036,0.687
	c-1.167,1.856-2.985,3.157-5.118,3.662C52.34,90.44,51.694,90.514,51.052,90.514z M51.074,77.885c-0.651,0-1.309,0.149-1.937,0.448
	c-1.474,0.703-2.436,2.272-2.393,3.906c0.035,1.367,0.633,2.566,1.685,3.375c1.036,0.798,2.358,1.083,3.628,0.781
	c1.105-0.262,2.048-0.936,2.654-1.899c0.772-1.227,2.015-2.097,3.5-2.449l124.566-29.515c0.39-0.092,0.721-0.331,0.931-0.672
	c0.21-0.341,0.275-0.744,0.183-1.133s-0.331-0.72-0.672-0.931c-0.341-0.21-0.744-0.274-1.133-0.183h0L57.518,79.128
	c-1.463,0.347-2.977,0.118-4.263-0.642C52.578,78.086,51.831,77.885,51.074,77.885z M35.507,66.077c-1.35,0-2.695-0.331-3.923-0.988
	c-2.22-1.188-3.771-3.31-4.256-5.822c-0.604-3.13,0.745-6.459,3.357-8.283c2.309-1.612,5.231-1.976,7.819-0.975
	c0.423,0.164,0.892,0.156,1.32-0.024L157.862,0.432l0,0c1.355-0.569,2.851-0.576,4.209-0.021c1.36,0.556,2.422,1.607,2.991,2.962
	c0.569,1.354,0.576,2.85,0.02,4.209s-1.607,2.422-2.962,2.991L44.085,60.127c-0.428,0.18-0.76,0.488-0.91,0.847
	c-0.847,2.023-2.426,3.604-4.448,4.453C37.691,65.861,36.597,66.077,35.507,66.077z M35.508,53.446
	c-0.882,0-1.758,0.276-2.531,0.817c-1.339,0.935-2.03,2.641-1.72,4.246c0.259,1.343,1.046,2.427,2.215,3.053
	c1.152,0.616,2.503,0.681,3.707,0.175c1.048-0.44,1.867-1.26,2.307-2.309c0.56-1.337,1.643-2.399,3.051-2.991L160.572,6.886
	c0.369-0.155,0.656-0.444,0.808-0.815c0.151-0.371,0.149-0.778-0.006-1.148c-0.155-0.37-0.444-0.657-0.815-0.808
	c-0.37-0.151-0.778-0.148-1.148,0.005l0,0L41.373,53.673c-1.386,0.581-2.917,0.604-4.31,0.067
	C36.555,53.543,36.03,53.446,35.508,53.446z"/>
<g>
</g>
<g>
</g>
<g>
</g>
<g>
</g>
<g>
</g>
<g>
</g>
<g>
</g>
<g>
</g>
<g>
</g>
<g>
</g>
<g>
</g>
<g>
</g>
<g>
</g>
<g>
</g>
<g>
</g>
</svg>
