<?xml version="1.0" encoding="iso-8859-1"?>
<!-- Generator: Adobe Illustrator 17.1.0, SVG Export Plug-In . SVG Version: 6.00 Build 0)  -->
<!DOCTYPE svg PUBLIC "-//W3C//DTD SVG 1.1//EN" "http://www.w3.org/Graphics/SVG/1.1/DTD/svg11.dtd">
<svg version="1.1" id="Capa_1" xmlns="http://www.w3.org/2000/svg" xmlns:xlink="http://www.w3.org/1999/xlink" x="0px" y="0px"
	 viewBox="0 0 211.868 211.868" style="enable-background:new 0 0 211.868 211.868;" xml:space="preserve">
<path d="M55.165,211.868c-4.396,0-8.527-1.712-11.635-4.82c-3.108-3.108-4.82-7.24-4.82-11.635c0-4.396,1.712-8.527,4.82-11.635
	l9.99-9.991l-2.571-10.846L7.122,140.593c-2.464-1.256-3.854-3.749-3.628-6.504c0.226-2.755,2.002-4.989,4.636-5.828l54.373-17.328
	l19.653-41.19c1.287-2.698,4.026-4.166,6.989-3.74c2.958,0.426,5.177,2.607,5.651,5.558l4.372,26.924l74.605-73.498
	c-0.298-0.806-0.438-1.67-0.399-2.543c0.08-1.805,0.914-3.507,2.291-4.676l-1.173-1.173c-0.781-0.781-0.781-2.047,0-2.828
	c0.781-0.781,2.047-0.781,2.828,0l1.422,1.421l4.788-4.013l-1.278-1.279c-0.781-0.781-0.781-2.047,0-2.828
	c0.781-0.781,2.047-0.781,2.828,0l1.527,1.527l4.605-3.86l-1.321-1.321c-0.781-0.781-0.781-2.047,0-2.828
	c0.781-0.781,2.047-0.781,2.828,0l1.641,1.64c3.354-2.045,7.691-1.582,10.555,1.283c2.864,2.864,3.327,7.202,1.282,10.555
	l1.614,1.614c0.781,0.781,0.781,2.047,0,2.828c-0.781,0.781-2.047,0.781-2.828,0l-1.295-1.295l-3.86,4.605l1.734,1.734
	c0.781,0.781,0.781,2.047,0,2.828c-0.781,0.781-2.047,0.781-2.828,0l-1.485-1.485l-4.012,4.788l1.66,1.661
	c0.781,0.781,0.781,2.047,0,2.828c-0.781,0.781-2.047,0.781-2.828,0l-1.412-1.411c-1.169,1.377-2.871,2.211-4.677,2.291
	c-0.997,0.04-1.971-0.143-2.865-0.528l-78.832,80.021l12.646,6.984c2.234,1.233,3.557,3.584,3.45,6.134
	c-0.106,2.551-1.62,4.783-3.95,5.826l-23.665,10.59l-24.111,43.168c-1.354,2.427-4.01,3.747-6.762,3.363
	c-2.753-0.383-4.945-2.377-5.587-5.082l-1.699-7.167l-8.246,8.246c-2.353,2.353-3.648,5.48-3.648,8.807
	c0,3.326,1.296,6.454,3.648,8.807s5.479,3.648,8.807,3.648s6.454-1.295,8.807-3.648l88.635-88.635
	c6.786-6.787,17.829-6.787,24.617,0c6.787,6.788,6.787,17.831,0,24.617l-42.981,42.981c-0.781,0.781-2.047,0.781-2.828,0
	c-0.781-0.781-0.781-2.047,0-2.828l42.981-42.981c5.227-5.227,5.227-13.733,0-18.96c-5.229-5.227-13.735-5.226-18.961,0
	L66.8,207.048C63.693,210.156,59.561,211.868,55.165,211.868z M88.171,69.933c-0.87,0-1.864,0.396-2.406,1.532L65.74,113.437
	c-0.237,0.499-0.671,0.876-1.197,1.044L9.344,132.072c-1.593,0.507-1.829,1.921-1.864,2.343c-0.034,0.421-0.031,1.855,1.459,2.615
	l44.651,22.769c0.523,0.267,0.902,0.75,1.038,1.32l5.568,23.486c0.394,1.66,1.818,1.983,2.245,2.042
	c0.426,0.063,1.887,0.139,2.719-1.352l24.435-43.748c0.21-0.376,0.536-0.674,0.929-0.851l24.271-10.861
	c0.951-0.425,1.545-1.301,1.588-2.342c0.044-1.041-0.475-1.962-1.387-2.466l-13.627-7.526l-13.478,13.681
	c-0.374,0.379-0.885,0.594-1.417,0.596c-0.003,0-0.005,0-0.008,0c-0.53,0-1.039-0.21-1.414-0.586l-8.046-8.046
	c-0.377-0.377-0.588-0.889-0.586-1.421c0.002-0.533,0.217-1.043,0.597-1.417l0.454-0.447c0.072-0.107,0.156-0.207,0.249-0.299
	l17.968-17.712l-1.1-6.404l-3.741-23.249c-0.231-1.44-1.325-2.098-2.271-2.234C88.446,69.943,88.31,69.933,88.171,69.933z
	 M81.991,121.022l5.171,5.17l12.408-12.587c0.059-0.06,0.121-0.115,0.186-0.167l80.209-81.417l-3.787-3.787L81.991,121.022z
	 M179.581,19.705l-1.313,1.101c-0.547,0.458-0.865,1.102-0.896,1.813c-0.031,0.711,0.229,1.381,0.733,1.885l5.816,5.817
	c0.504,0.504,1.171,0.767,1.885,0.732c0.712-0.031,1.356-0.349,1.813-0.895l14.742-17.59c1.549-1.847,1.431-4.526-0.273-6.231
	c-1.705-1.704-4.382-1.822-6.231-0.273L180.242,19.15c-0.052,0.067-0.109,0.132-0.171,0.194
	C179.922,19.493,179.757,19.613,179.581,19.705z M65.164,165.272c-1.527,0-2.963-0.595-4.042-1.675
	c-1.08-1.08-1.675-2.515-1.675-4.043c0-1.527,0.595-2.963,1.675-4.043c1.079-1.08,2.515-1.674,4.042-1.674s2.963,0.595,4.043,1.674
	c1.08,1.08,1.675,2.516,1.675,4.043c0,1.528-0.595,2.963-1.675,4.043C68.127,164.677,66.692,165.272,65.164,165.272z
	 M65.164,157.837c-0.458,0-0.89,0.179-1.214,0.503c-0.324,0.325-0.503,0.756-0.503,1.214c0,0.459,0.179,0.89,0.503,1.214
	c0.648,0.649,1.78,0.648,2.429,0c0.324-0.324,0.503-0.755,0.503-1.214c0-0.458-0.179-0.89-0.503-1.214
	C66.055,158.016,65.623,157.837,65.164,157.837z M41.708,149.837c-0.306,0-0.615-0.07-0.906-0.219L19.95,138.985
	c-1.306-0.666-2.072-2.039-1.952-3.5c0.119-1.461,1.098-2.692,2.494-3.137l20.149-6.421c1.059-0.334,2.179,0.247,2.513,1.298
	c0.336,1.053-0.245,2.178-1.298,2.513l-19.223,6.125l19.985,10.191c0.984,0.502,1.375,1.706,0.873,2.69
	C43.139,149.438,42.437,149.837,41.708,149.837z M75.648,149.837c-0.512,0-1.023-0.195-1.414-0.586l-16.886-16.886
	c-0.781-0.781-0.781-2.047,0-2.828c0.781-0.781,2.047-0.781,2.828,0l16.886,16.886c0.781,0.781,0.781,2.047,0,2.828
	C76.671,149.642,76.16,149.837,75.648,149.837z"/>
<g>
</g>
<g>
</g>
<g>
</g>
<g>
</g>
<g>
</g>
<g>
</g>
<g>
</g>
<g>
</g>
<g>
</g>
<g>
</g>
<g>
</g>
<g>
</g>
<g>
</g>
<g>
</g>
<g>
</g>
</svg>
