<?xml version="1.0" encoding="iso-8859-1"?>
<!-- Generator: Adobe Illustrator 17.1.0, SVG Export Plug-In . SVG Version: 6.00 Build 0)  -->
<!DOCTYPE svg PUBLIC "-//W3C//DTD SVG 1.1//EN" "http://www.w3.org/Graphics/SVG/1.1/DTD/svg11.dtd">
<svg version="1.1" id="Capa_1" xmlns="http://www.w3.org/2000/svg" xmlns:xlink="http://www.w3.org/1999/xlink" x="0px" y="0px"
	 viewBox="0 0 219.333 219.333" style="enable-background:new 0 0 219.333 219.333;" xml:space="preserve">
<path d="M106.202,185.587h-16.6c-1.104,0-2-0.896-2-2v-71.92h-4.744v41.257c0,1.104-0.896,2-2,2h-16.6c-1.104,0-2-0.896-2-2v-41.257
	h-4.745v30.306c0,1.104-0.896,2-2,2h-16.6c-1.104,0-2-0.896-2-2v-30.306H32.17v11.561c0,1.104-0.896,2-2,2h-16.6
	c-1.104,0-2-0.896-2-2v-11.561H2c-1.104,0-2-0.896-2-2s0.896-2,2-2h9.57V96.106c0-1.104,0.896-2,2-2h16.6c1.104,0,2,0.896,2,2
	v11.561h4.745V77.361c0-1.104,0.896-2,2-2h16.6c1.104,0,2,0.896,2,2v30.306h4.745V66.41c0-1.104,0.896-2,2-2h16.6
	c1.104,0,2,0.896,2,2v41.257h4.744v-71.92c0-1.104,0.896-2,2-2h16.6c1.104,0,2,0.896,2,2v71.92h4.745V83.384c0-1.104,0.896-2,2-2
	h16.6c1.104,0,2,0.896,2,2v24.283h4.744V55.459c0-1.104,0.896-2,2-2h16.601c1.104,0,2,0.896,2,2v52.208h4.744V77.361
	c0-1.104,0.896-2,2-2h16.6c1.104,0,2,0.896,2,2v30.306h4.744v-4.57c0-1.104,0.896-2,2-2h16.6c1.104,0,2,0.896,2,2v4.57h7.755
	c1.104,0,2,0.896,2,2s-0.896,2-2,2h-7.755v4.571c0,1.104-0.896,2-2,2h-16.6c-1.104,0-2-0.896-2-2v-4.571h-4.744v30.306
	c0,1.104-0.896,2-2,2h-16.6c-1.104,0-2-0.896-2-2v-30.306h-4.744v52.208c0,1.104-0.896,2-2,2h-16.601c-1.104,0-2-0.896-2-2v-52.208
	h-4.744v24.283c0,1.104-0.896,2-2,2h-16.6c-1.104,0-2-0.896-2-2v-24.283h-4.745v71.92
	C108.202,184.692,107.307,185.587,106.202,185.587z M91.603,181.587h12.6v-5.467h-12.6V181.587z M91.603,172.12h12.6v-60.454h-12.6
	V172.12z M142.291,161.875h12.601v-50.208h-12.601V161.875z M66.259,150.924h12.6v-39.257h-12.6V150.924z M167.635,139.973h12.6
	v-28.306h-12.6V139.973z M40.915,139.973h12.6v-28.306h-12.6V139.973z M116.947,133.95h12.6v-22.283h-12.6V133.95z M15.57,121.228
	h12.6v-9.561h-12.6V121.228z M192.979,114.238h12.6v-2.571h-12.6V114.238z M192.979,107.667h12.6v-2.57h-12.6V107.667z
	 M167.635,107.667h12.6V79.361h-12.6V107.667z M142.291,107.667h12.601V57.459h-12.601V107.667z M116.947,107.667h12.6V85.384h-12.6
	V107.667z M91.603,107.667h12.6V46.37h-12.6V107.667z M66.259,107.667h12.6V68.41h-12.6V107.667z M40.915,107.667h12.6V79.361h-12.6
	V107.667z M15.57,107.667h12.6v-9.561h-12.6V107.667z M91.603,42.37h12.6v-4.624h-12.6V42.37z"/>
<g>
</g>
<g>
</g>
<g>
</g>
<g>
</g>
<g>
</g>
<g>
</g>
<g>
</g>
<g>
</g>
<g>
</g>
<g>
</g>
<g>
</g>
<g>
</g>
<g>
</g>
<g>
</g>
<g>
</g>
</svg>
