<?xml version="1.0" encoding="iso-8859-1"?>
<!-- Generator: Adobe Illustrator 17.1.0, SVG Export Plug-In . SVG Version: 6.00 Build 0)  -->
<!DOCTYPE svg PUBLIC "-//W3C//DTD SVG 1.1//EN" "http://www.w3.org/Graphics/SVG/1.1/DTD/svg11.dtd">
<svg version="1.1" id="Capa_1" xmlns="http://www.w3.org/2000/svg" xmlns:xlink="http://www.w3.org/1999/xlink" x="0px" y="0px"
	 viewBox="0 0 217.935 217.935" style="enable-background:new 0 0 217.935 217.935;" xml:space="preserve">
<path d="M135.53,217.935c-0.512,0-1.024-0.195-1.414-0.586l-6.342-6.342c-0.002-0.002-0.004-0.004-0.006-0.006
	c-0.002-0.002-0.004-0.004-0.006-0.006l-6.896-6.896c-0.002-0.002-0.004-0.004-0.006-0.006s-0.004-0.004-0.006-0.006l-6.647-6.647
	c-0.002-0.002-0.003-0.004-0.005-0.006s-0.004-0.003-0.006-0.005l-6.647-6.648c-0.002-0.001-0.004-0.003-0.005-0.005
	c-0.002-0.001-0.004-0.003-0.005-0.005l-6.648-6.648c-0.002-0.001-0.004-0.003-0.005-0.005c-0.002-0.001-0.004-0.003-0.005-0.005
	l-13.308-13.308c-0.002-0.001-0.003-0.003-0.005-0.005c-0.002-0.001-0.003-0.003-0.005-0.005l-33.263-33.263
	c-0.009-0.008-0.018-0.017-0.026-0.026s-0.018-0.018-0.026-0.026l-26.671-26.671c-0.781-0.781-0.781-2.047,0-2.828l97.083-97.083
	C131.685,3.87,141.026,0,150.963,0c9.937,0,19.279,3.87,26.305,10.896l0.505,0.505c7.092,7.092,10.998,16.521,10.998,26.55
	c0,10.03-3.906,19.459-10.998,26.551l-0.508,0.508c-13.08,13.081-13.08,34.364,0,47.444l0.56,0.56
	c17.494,17.494,17.494,45.959,0,63.453l-40.881,40.881C136.554,217.739,136.042,217.935,135.53,217.935z M132.011,209.586l3.52,3.52
	l14.347-14.347l-10.427-10.427l-14.347,14.347l4.079,4.079l8.169-8.169c0.78-0.781,2.048-0.781,2.828,0
	c0.781,0.781,0.781,2.047,0,2.828L132.011,209.586z M118.444,196.02l3.83,3.83l14.347-14.347l-10.489-10.489l-14.347,14.347
	l3.83,3.83l8.169-8.169c0.78-0.781,2.048-0.781,2.828,0c0.781,0.781,0.781,2.047,0,2.828L118.444,196.02z M114.249,157.474
	l38.457,38.457l22.291-22.291c15.934-15.935,15.934-41.862,0-57.797l-0.56-0.56c-7.092-7.092-10.998-16.521-10.998-26.55
	s3.906-19.458,10.998-26.55l0.508-0.508c13.081-13.081,13.081-34.364,0-47.445l-0.505-0.505C168.168,7.454,159.831,4,150.963,4
	c-8.868,0-17.205,3.454-23.476,9.724L48.994,92.217l25.272,25.272c0.004,0.004,0.007,0.008,0.011,0.012s0.008,0.007,0.012,0.011
	l39.921,39.921c0.007,0.006,0.014,0.013,0.02,0.02C114.236,157.46,114.243,157.467,114.249,157.474z M105.127,182.703l3.83,3.83
	l14.348-14.347l-10.489-10.489l-14.348,14.347l3.831,3.831l8.169-8.169c0.78-0.781,2.047-0.781,2.828,0
	c0.781,0.781,0.781,2.047,0,2.828L105.127,182.703z M91.809,169.385l3.83,3.83l14.348-14.347l-10.489-10.489L85.15,162.726
	l3.83,3.83l8.169-8.169c0.78-0.781,2.048-0.781,2.828,0c0.781,0.781,0.781,2.047,0,2.828L91.809,169.385z M78.492,156.067l3.83,3.83
	l14.348-14.347L86.18,135.061l-14.347,14.348l3.83,3.83l8.169-8.169c0.78-0.781,2.048-0.781,2.828,0
	c0.781,0.781,0.781,2.047,0,2.828L78.492,156.067z M65.174,142.75l3.83,3.83l14.348-14.347l-10.489-10.489l-14.348,14.348
	l3.831,3.83l8.169-8.169c0.78-0.781,2.047-0.781,2.828,0c0.781,0.781,0.781,2.047,0,2.828L65.174,142.75z M51.856,129.432
	l3.83,3.831l14.348-14.348l-10.489-10.489l-14.347,14.348l3.83,3.83l8.17-8.169c0.78-0.781,2.048-0.781,2.828,0
	c0.781,0.781,0.781,2.047,0,2.828L51.856,129.432z M38.539,116.115l3.83,3.83l14.348-14.347L46.165,95.046l-14.347,14.348
	l3.893,3.893l8.169-8.169c0.78-0.781,2.048-0.781,2.828,0c0.781,0.781,0.781,2.047,0,2.828L38.539,116.115z M59.741,194.204
	c-3.873,0-7.513-1.508-10.251-4.247c-5.652-5.652-5.652-14.849,0-20.502c5.652-5.652,14.85-5.652,20.502,0l0,0
	c5.652,5.653,5.652,14.85,0,20.502C67.254,192.695,63.613,194.204,59.741,194.204z M59.741,169.214
	c-2.688,0-5.376,1.023-7.423,3.069c-4.092,4.093-4.092,10.753,0,14.846c1.983,1.983,4.619,3.075,7.423,3.075s5.44-1.092,7.423-3.075
	c4.092-4.093,4.092-10.752,0-14.846C65.117,170.237,62.429,169.214,59.741,169.214z M63.778,94.742
	c-0.512,0-1.024-0.195-1.414-0.586c-0.781-0.781-0.781-2.047,0-2.828l70.978-70.978c4.652-4.652,10.837-7.214,17.416-7.214
	c6.579,0,12.764,2.562,17.416,7.214c9.604,9.603,9.604,25.229,0,34.832c-0.78,0.781-2.048,0.781-2.828,0
	c-0.781-0.781-0.781-2.047,0-2.828c3.896-3.896,6.042-9.077,6.042-14.587c0-5.511-2.146-10.691-6.042-14.588
	c-3.897-3.896-9.078-6.042-14.588-6.042c-5.511,0-10.691,2.146-14.588,6.042L65.192,94.156
	C64.802,94.547,64.289,94.742,63.778,94.742z"/>
<g>
</g>
<g>
</g>
<g>
</g>
<g>
</g>
<g>
</g>
<g>
</g>
<g>
</g>
<g>
</g>
<g>
</g>
<g>
</g>
<g>
</g>
<g>
</g>
<g>
</g>
<g>
</g>
<g>
</g>
</svg>
