<?xml version="1.0" encoding="iso-8859-1"?>
<!-- Generator: Adobe Illustrator 17.1.0, SVG Export Plug-In . SVG Version: 6.00 Build 0)  -->
<!DOCTYPE svg PUBLIC "-//W3C//DTD SVG 1.1//EN" "http://www.w3.org/Graphics/SVG/1.1/DTD/svg11.dtd">
<svg version="1.1" id="Capa_1" xmlns="http://www.w3.org/2000/svg" xmlns:xlink="http://www.w3.org/1999/xlink" x="0px" y="0px"
	 viewBox="0 0 206.586 206.586" style="enable-background:new 0 0 206.586 206.586;" xml:space="preserve">
<path d="M103.294,206.586c-6.887,0-13.772-2.383-19.39-7.148c-24.473-20.765-65.529-63.938-65.529-119.785
	c0-23.068,7.011-41.686,20.836-55.334C64.065-0.216,101.726-0.037,103.318,0.004c1.572-0.036,39.203-0.221,64.058,24.314
	c13.825,13.648,20.836,32.266,20.836,55.334c0,55.847-41.057,99.021-65.529,119.785
	C117.065,204.203,110.179,206.586,103.294,206.586z M103.232,4.004c-2.019,0-38.124,0.351-61.231,23.182
	c-13.022,12.867-19.626,30.52-19.626,52.467c0,54.235,40.172,96.418,64.117,116.734c9.734,8.262,23.868,8.261,33.603,0
	c23.945-20.316,64.117-62.499,64.117-116.734c0-21.947-6.604-39.6-19.626-52.467c-23.643-23.36-60.931-23.174-61.268-23.182
	C103.308,4.004,103.279,4.004,103.232,4.004z M88.189,182.988c-0.457,0-0.917-0.156-1.293-0.475
	C66.427,165.145,32.088,129.03,32.088,82.287c0-19.345,5.884-34.962,17.488-46.417c20.839-20.571,52.405-20.378,53.741-20.389
	c1.104,0.015,1.987,0.921,1.974,2.024c-0.014,1.097-0.906,1.976-2,1.976c-0.015-0.001-0.012-0.001-0.089,0
	c-1.611,0-31.642,0.287-50.836,19.256c-10.802,10.674-16.278,25.326-16.278,43.55c0,45.131,33.454,80.255,53.396,97.175
	c0.842,0.715,0.945,1.978,0.231,2.819C89.32,182.747,88.756,182.988,88.189,182.988z M125.569,146.136H79.601
	c-0.73,0-1.402-0.398-1.754-1.039l-15.688-28.622c-1.993-3.638-1.807-8.044,0.488-11.5l7.685-11.574
	c1.682-2.531,4.314-4.209,7.257-4.689l0.002-16.946c-0.005-0.058-0.008-0.117-0.008-0.177V55.184c0-2.624,1.121-5.134,3.077-6.886
	c1.954-1.751,4.584-2.582,7.208-2.3c4.675,0.517,8.199,4.547,8.199,9.376v14.316c1.491-1.031,3.299-1.636,5.244-1.636
	c2.931,0,5.547,1.371,7.241,3.506c1.694-2.135,4.31-3.506,7.24-3.506c1.946,0,3.753,0.604,5.244,1.633V55.374
	c0-4.828,3.525-8.859,8.199-9.376c2.631-0.282,5.255,0.549,7.209,2.3c1.956,1.752,3.077,4.262,3.077,6.886v76.998
	C139.522,139.876,133.262,146.136,125.569,146.136z M108.04,142.136h17.529c5.488,0,9.953-4.466,9.953-9.954V55.184
	c0-1.488-0.637-2.912-1.746-3.906c-1.124-1.008-2.573-1.47-4.102-1.303c-2.601,0.287-4.638,2.659-4.638,5.399v21.537
	c0,0.037-0.001,0.074-0.003,0.11c0.003,0.091,0.004,0.182,0.004,0.272v24.52c0,0.107-0.002,0.214-0.006,0.319
	c-0.132,4.361-3.191,8.08-7.372,8.906c-2.668,0.527-5.312-0.072-7.444-1.689c-0.627-0.475-1.184-1.023-1.663-1.628
	c-0.479,0.605-1.037,1.153-1.663,1.628c-2.134,1.617-4.778,2.218-7.444,1.689c-2.952-0.583-5.412-2.65-6.604-5.44h-6.783
	l-0.789,1.815c5.31,1.87,18.68,7.618,23.22,19.303C110.839,132.769,109.376,138.693,108.04,142.136z M80.786,142.136h22.846
	c1.074-2.285,3.32-8.203,1.08-13.97c-4.364-11.235-19.078-16.441-22.166-17.424l-9.3,3.042c-1.054,0.344-2.18-0.23-2.523-1.279
	c-0.343-1.05,0.229-2.18,1.279-2.523l9.025-2.951l1.422-3.273l-3.784-5.858c-0.6-0.928-0.333-2.165,0.595-2.765
	c0.926-0.6,2.165-0.334,2.765,0.595l3.793,5.87h8.222c0.013,0,0.197-0.005,0.21-0.005c0.011,0,0.019-0.001,0.032,0
	c5.104-0.086,9.315-4.043,9.829-9.024H79.34c-2.288,0-4.41,1.138-5.677,3.044l-7.685,11.574c-1.47,2.213-1.589,5.035-0.313,7.365
	L80.786,142.136z M115.798,72.055c-2.895,0-5.245,2.351-5.245,5.239v24.52c0,2.889,2.351,5.239,5.239,5.239
	c2.833,0,5.144-2.25,5.242-5.054c0.001-0.054,0.002-0.107,0.002-0.161v-24.37c0-0.139-0.012-0.273-0.021-0.408
	c-0.007-0.092-0.008-0.183-0.002-0.273C120.757,74.135,118.516,72.055,115.798,72.055z M97.339,105.229
	c0.971,1.13,2.405,1.824,3.972,1.824c2.891,0,5.242-2.352,5.242-5.242v-3.704C104.677,101.645,101.335,104.291,97.339,105.229z
	 M96.068,88.57h9.139c0.484,0,0.942,0.116,1.347,0.322V77.298c0-2.891-2.352-5.243-5.242-5.243c-2.724,0-4.969,2.087-5.22,4.746
	c0.005,0.086,0.005,0.172-0.002,0.259c-0.009,0.128-0.019,0.235-0.021,0.34V88.57z M81.588,88.57h10.479V77.468
	c0-0.035,0-0.069,0.001-0.104v-0.065c0-0.085,0.001-0.17,0.004-0.254c-0.003-0.044-0.005-0.088-0.005-0.133V55.374
	c0-2.74-2.037-5.112-4.638-5.399c-1.519-0.167-2.977,0.295-4.101,1.303c-1.109,0.994-1.746,2.418-1.746,3.906v16.229
	c0.005,0.058,0.008,0.116,0.008,0.175L81.588,88.57z"/>
<g>
</g>
<g>
</g>
<g>
</g>
<g>
</g>
<g>
</g>
<g>
</g>
<g>
</g>
<g>
</g>
<g>
</g>
<g>
</g>
<g>
</g>
<g>
</g>
<g>
</g>
<g>
</g>
<g>
</g>
</svg>
