<?xml version="1.0" encoding="iso-8859-1"?>
<!-- Generator: Adobe Illustrator 17.1.0, SVG Export Plug-In . SVG Version: 6.00 Build 0)  -->
<!DOCTYPE svg PUBLIC "-//W3C//DTD SVG 1.1//EN" "http://www.w3.org/Graphics/SVG/1.1/DTD/svg11.dtd">
<svg version="1.1" id="Capa_1" xmlns="http://www.w3.org/2000/svg" xmlns:xlink="http://www.w3.org/1999/xlink" x="0px" y="0px"
	 viewBox="0 0 208.977 208.977" style="enable-background:new 0 0 208.977 208.977;" xml:space="preserve">
<path d="M142.521,208.977H66.456c-0.578,0-1.128-0.25-1.508-0.687c-0.38-0.436-0.553-1.015-0.473-1.587l2.751-19.914
	c-13.502-3.838-26.846-10.912-32.65-23.896c-13.747-30.76,4.874-71.36,15.999-95.619c2.731-5.956,5.044-10.792,7.085-15.059
	c6.711-14.033,9.223-19.283,8.438-26.686c-0.668-6.301-6.957-11.866-10.646-14.622c-2.582-1.93-3.12-6.011-1.15-8.734
	c1.502-2.077,4.058-2.751,6.217-1.644c5.194,2.672,16.667,10.146,18.649,24.713h50.643c1.982-14.567,13.455-22.041,18.648-24.712
	c2.158-1.111,4.716-0.435,6.217,1.643c1.969,2.724,1.432,6.805-1.149,8.733c-3.69,2.757-9.979,8.322-10.647,14.623
	c-0.784,7.402,1.727,12.652,8.438,26.686c2.041,4.267,4.354,9.103,7.085,15.059c11.125,24.259,29.745,64.859,15.999,95.619
	c-5.821,13.023-19.227,20.101-32.77,23.931l2.87,19.867c0.083,0.574-0.088,1.156-0.468,1.596
	C143.653,208.725,143.101,208.977,142.521,208.977z M68.751,204.977h71.46l-2.476-17.139c-16.197,3.876-31.563,3.455-33.248,3.393
	c-1.691,0.062-17.126,0.486-33.366-3.421L68.751,204.977z M104.488,187.23c0.026,0,0.052,0.001,0.077,0.002
	c0.537,0.018,53.8,1.738,66.183-25.972c13.008-29.105-5.139-68.676-15.982-92.318c-2.718-5.928-5.024-10.748-7.058-15.001
	c-6.868-14.36-9.711-20.305-8.808-28.833c0.828-7.813,8.018-14.258,12.23-17.405c0.837-0.626,0.99-2.233,0.302-3.186
	c-0.126-0.174-0.579-0.722-1.147-0.429c-5.042,2.593-16.771,10.278-16.771,25.578c0,8.206,4.627,18.606,9.986,30.649
	c7.613,17.112,17.089,38.409,17.089,62.709c0,10.695-3.557,19.596-10.572,26.455c-16.045,15.687-44.375,15.243-45.574,15.206
	c-1.11,0.042-29.438,0.481-45.484-15.206c-7.015-6.859-10.572-15.76-10.572-26.455c0-24.3,9.476-45.597,17.089-62.709
	c5.358-12.043,9.986-22.443,9.986-30.649c0-15.3-11.729-22.985-16.772-25.579c-0.551-0.283-0.985,0.206-1.147,0.43
	c-0.688,0.952-0.535,2.56,0.303,3.186c4.212,3.147,11.401,9.594,12.229,17.405c0.903,8.528-1.939,14.473-8.808,28.833
	c-2.034,4.253-4.339,9.073-7.058,15.001c-10.843,23.643-28.99,63.213-15.982,92.318c12.384,27.71,65.647,25.991,66.183,25.972
	C104.437,187.23,104.462,187.23,104.488,187.23z M102.072,160.65c1.465,0.053,2.322,0.037,2.372,0.037
	c0.062-0.001,0.954,0.014,2.461-0.04V29.242h-4.833V160.65z M93.238,159.875c1.766,0.243,3.396,0.415,4.833,0.535V29.242h-4.833
	V159.875z M110.905,29.242v131.161c1.44-0.121,3.07-0.294,4.833-0.537V29.242H110.905z M79.459,29.242
	c0.001,0.141,0.002,0.281,0.002,0.424c0,9.056-4.788,19.815-10.331,32.275c-7.46,16.767-16.744,37.633-16.744,61.083
	c0,9.578,3.152,17.517,9.369,23.595c7.618,7.448,18.577,10.959,27.483,12.61V29.242H79.459z M119.738,29.242V159.22
	c8.925-1.655,19.888-5.169,27.493-12.61c6.21-6.077,9.358-14.012,9.358-23.585c0-23.45-9.284-44.316-16.744-61.083
	c-5.543-12.46-10.331-23.22-10.331-32.275c0-0.143,0.001-0.283,0.002-0.424H119.738z"/>
<g>
</g>
<g>
</g>
<g>
</g>
<g>
</g>
<g>
</g>
<g>
</g>
<g>
</g>
<g>
</g>
<g>
</g>
<g>
</g>
<g>
</g>
<g>
</g>
<g>
</g>
<g>
</g>
<g>
</g>
</svg>
