<?xml version="1.0" encoding="iso-8859-1"?>
<!-- Generator: Adobe Illustrator 17.1.0, SVG Export Plug-In . SVG Version: 6.00 Build 0)  -->
<!DOCTYPE svg PUBLIC "-//W3C//DTD SVG 1.1//EN" "http://www.w3.org/Graphics/SVG/1.1/DTD/svg11.dtd">
<svg version="1.1" id="Capa_1" xmlns="http://www.w3.org/2000/svg" xmlns:xlink="http://www.w3.org/1999/xlink" x="0px" y="0px"
	 viewBox="0 0 211.121 211.121" style="enable-background:new 0 0 211.121 211.121;" xml:space="preserve">
<path d="M72.515,211.121c-0.024,0-0.048,0-0.072-0.001c-0.86-0.031-1.604-0.609-1.847-1.436l-15.707-53.452L1.436,140.527
	c-0.826-0.243-1.404-0.986-1.435-1.847c-0.031-0.86,0.492-1.645,1.298-1.945l97.55-36.472l73.759-73.76l-0.538-0.537
	c-0.405-0.406-0.618-0.967-0.582-1.539c0.035-0.573,0.315-1.103,0.769-1.455l3.926-3.051l-1.728-1.729
	c-0.781-0.781-0.781-2.048,0-2.828c0.781-0.781,2.047-0.781,2.828,0l2.082,2.082l6.009-4.67l-1.922-1.922
	c-0.781-0.781-0.781-2.047,0-2.828s2.047-0.781,2.828,0l2.276,2.276l6.009-4.671l-1.637-1.636c-0.781-0.78-0.781-2.047,0-2.828
	s2.047-0.781,2.828,0l1.991,1.99l3.521-2.737c0.798-0.619,1.93-0.549,2.642,0.165l6.624,6.623c0.713,0.713,0.784,1.845,0.165,2.642
	l-2.738,3.522l1.986,1.986c0.781,0.781,0.781,2.047,0,2.828s-2.047,0.781-2.828,0l-1.632-1.632l-4.67,6.009l2.271,2.271
	c0.781,0.781,0.781,2.047,0,2.828s-2.047,0.781-2.828,0l-1.916-1.916l-4.67,6.009l2.077,2.077c0.781,0.781,0.781,2.047,0,2.828
	s-2.047,0.781-2.828,0l-1.723-1.723l-3.052,3.926c-0.353,0.453-0.882,0.732-1.454,0.769c-0.586,0.032-1.135-0.178-1.539-0.582
	l-0.539-0.539l-73.758,73.759l-36.472,97.551C74.095,210.606,73.346,211.121,72.515,211.121z M8.32,138.38l48.744,14.322
	c0.653,0.191,1.163,0.702,1.355,1.355l14.323,48.744l31.297-83.71l-18.401,18.4c-0.002,0.002-0.004,0.004-0.006,0.007
	l-11.859,11.859l2.296,2.297c0.781,0.781,0.781,2.047,0,2.828c-0.78,0.781-2.047,0.781-2.828,0l-3.699-3.699
	c-0.004-0.004-0.008-0.008-0.012-0.012c-0.004-0.004-0.008-0.008-0.012-0.012l-4.545-4.546c-0.011-0.011-0.022-0.021-0.033-0.032
	c-0.011-0.011-0.022-0.021-0.032-0.033l-4.534-4.534c-0.008-0.008-0.016-0.016-0.024-0.023c-0.008-0.008-0.016-0.016-0.024-0.023
	l-3.687-3.688c-0.781-0.781-0.781-2.047,0-2.828c0.78-0.781,2.047-0.781,2.828,0l2.296,2.296l30.267-30.266L8.32,138.38z
	 M69.182,144.769l1.762,1.762l11.168-11.168l-0.412-3.111L69.182,144.769z M64.591,140.178l1.762,1.762l14.684-14.684l-0.413-3.111
	L64.591,140.178z M85.262,128.689l0.413,3.11l97.529-97.529c0.75-0.75,2.078-0.75,2.828,0l0.351,0.351l17.233-22.172
	c0.061-0.095,0.131-0.186,0.21-0.271l2.634-3.389l-4.128-4.127l-3.501,2.721c-0.015,0.013-0.03,0.024-0.046,0.036l-22.282,17.319
	l0.35,0.35c0.375,0.376,0.586,0.885,0.586,1.415s-0.211,1.039-0.586,1.414l-75.457,75.456c-0.008,0.009-0.016,0.017-0.024,0.024
	l-17.184,17.184l0.413,3.112L189.682,18.612c0.781-0.781,2.047-0.781,2.828,0s0.781,2.047,0,2.828L85.262,128.689z M71.454,175.063
	c-0.512,0-1.024-0.195-1.414-0.586c-0.781-0.781-0.781-2.047,0-2.828l0.146-0.146c0.78-0.781,2.048-0.781,2.828,0
	c0.781,0.781,0.781,2.047,0,2.828l-0.146,0.146C72.478,174.868,71.966,175.063,71.454,175.063z M79.218,169.106
	c-0.512,0-1.024-0.195-1.414-0.586c-0.781-0.781-0.781-2.047,0-2.828l0.146-0.146c0.78-0.781,2.048-0.781,2.828,0
	c0.781,0.781,0.781,2.047,0,2.828l-0.146,0.146C80.242,168.911,79.729,169.106,79.218,169.106z M70.014,166.396
	c-0.512,0-1.024-0.195-1.414-0.586c-0.781-0.781-0.781-2.047,0-2.828l0.146-0.146c0.78-0.781,2.048-0.781,2.828,0
	c0.781,0.781,0.781,2.047,0,2.828l-0.146,0.146C71.037,166.201,70.525,166.396,70.014,166.396z"/>
<g>
</g>
<g>
</g>
<g>
</g>
<g>
</g>
<g>
</g>
<g>
</g>
<g>
</g>
<g>
</g>
<g>
</g>
<g>
</g>
<g>
</g>
<g>
</g>
<g>
</g>
<g>
</g>
<g>
</g>
</svg>
