<?xml version="1.0" encoding="iso-8859-1"?>
<!-- Generator: Adobe Illustrator 17.1.0, SVG Export Plug-In . SVG Version: 6.00 Build 0)  -->
<!DOCTYPE svg PUBLIC "-//W3C//DTD SVG 1.1//EN" "http://www.w3.org/Graphics/SVG/1.1/DTD/svg11.dtd">
<svg version="1.1" id="Capa_1" xmlns="http://www.w3.org/2000/svg" xmlns:xlink="http://www.w3.org/1999/xlink" x="0px" y="0px"
	 viewBox="0 0 198.905 198.905" style="enable-background:new 0 0 198.905 198.905;" xml:space="preserve">
<path d="M59.304,198.894c-9.634,0-19.488-2.578-28.759-7.833c-9.482-5.376-17.336-13.229-22.711-22.712
	c-12.9-22.76-9.668-49.034,8.234-66.937l0.852-0.852C27.71,89.77,48.251,74.943,69.813,66.15
	c12.805-5.222,29.161-9.617,43.601-6.483l0.679-0.65c0.067-0.091,0.143-0.177,0.227-0.258l53.385-51.143l7.041-7.042
	c0.75-0.75,2.078-0.752,2.829,0l20.746,20.745c0.781,0.781,0.781,2.047,0,2.828l-7.042,7.043l-51.143,53.384
	c-0.112,0.116-0.234,0.216-0.364,0.3l-0.552,0.575c3.148,14.447-1.251,30.818-6.476,43.631
	c-8.793,21.562-23.619,42.103-34.411,52.895l-0.851,0.852C86.871,193.436,73.32,198.894,59.304,198.894z M103.059,62.58
	c-29.873,0-68.14,25.637-83.313,40.81l-0.852,0.852c-16.594,16.594-19.57,40.984-7.583,62.135
	c5.019,8.854,12.351,16.186,21.205,21.204c21.151,11.989,45.541,9.012,62.136-7.582l0.851-0.852c0,0,0,0,0,0
	c16.359-16.359,44.885-59.572,40.32-90.158L60.401,167.6l4.667,4.667c0.781,0.781,0.781,2.047,0,2.828
	c-0.78,0.781-2.048,0.781-2.828,0l-6.026-6.025c-0.019-0.018-0.036-0.036-0.054-0.054l-26.352-26.352
	c-0.003-0.003-0.007-0.007-0.01-0.01l-6-6.001c-0.781-0.781-0.781-2.047,0-2.828s2.048-0.781,2.828,0l4.62,4.62l78.624-75.381
	C107.661,62.735,105.386,62.58,103.059,62.58z M53.823,161.022l3.75,3.749l32.107-33.465c-2.356,0.729-4.835,0.955-7.271,0.676
	L53.823,161.022z M47.262,154.46l3.732,3.732l26.912-27.34c-1.576-0.625-3.08-1.485-4.456-2.581L47.262,154.46z M40.727,147.926
	l3.706,3.706l26.189-26.189c-1.122-1.407-1.996-2.947-2.624-4.563L40.727,147.926z M34.076,141.274l3.823,3.823l28.997-28.759
	c-0.257-2.42-0.017-4.885,0.723-7.224L34.076,141.274z M97.968,116.175l-11.604,11.788c2.828-0.399,5.551-1.685,7.721-3.854
	C96.309,121.885,97.603,119.077,97.968,116.175z M76.302,125.419c1.446,1.074,3.058,1.825,4.735,2.254l16.557-16.82
	c-0.437-1.603-1.169-3.142-2.199-4.527L76.302,125.419z M71.186,117.718c0.422,1.728,1.185,3.388,2.288,4.873l19.094-19.094
	c-1.454-1.08-3.076-1.834-4.763-2.261L71.186,117.718z M101.924,112.155c0.298,2.282,0.151,4.612-0.441,6.848l33.334-34.744
	c-0.392-1.394-0.863-2.752-1.422-4.074L101.924,112.155z M82.393,100.97c-2.787,0.418-5.468,1.697-7.609,3.838
	c-2.112,2.112-3.386,4.751-3.821,7.497L82.393,100.97z M98.248,103.474c1.037,1.301,1.862,2.716,2.478,4.198L131.5,76.408
	c-0.746-1.267-1.585-2.487-2.524-3.662L98.248,103.474z M90.993,98.074c1.565,0.624,3.059,1.481,4.427,2.57l30.728-30.728
	c-1.281-1.024-2.623-1.933-4.013-2.728L90.993,98.074z M114.604,64.066L79.803,97.434c2.172-0.589,4.434-0.754,6.659-0.499
	l31.861-31.598C117.114,64.844,115.872,64.422,114.604,64.066z M136.405,77.128c0.598,1.257,1.118,2.539,1.566,3.845l49.077-51.152
	l-2.054-2.054L136.405,77.128z M131.819,69.902c0.948,1.154,1.803,2.345,2.574,3.567l47.773-48.532l-2.691-2.69L131.819,69.902z
	 M125.069,64.279c1.347,0.826,2.656,1.755,3.922,2.794l47.655-47.655l-3.159-3.158L125.069,64.279z M117.894,60.913
	c1.18,0.404,2.342,0.867,3.483,1.394l49.282-48.876l-1.586-1.586L117.894,60.913z M180.915,18.03l8.933,8.933l4.229-4.229
	L176.159,4.816l-4.229,4.229l2.951,2.95c0.011,0.011,0.021,0.021,0.032,0.032c0.007,0.007,0.013,0.014,0.02,0.02l5.93,5.931
	c0.009,0.008,0.018,0.017,0.026,0.025C180.898,18.013,180.907,18.022,180.915,18.03z M59.282,188.423
	c-8.022,0-16.227-2.146-23.946-6.521c-7.893-4.475-14.43-11.012-18.904-18.904c-10.743-18.953-8.049-40.835,6.863-55.746
	l0.703-0.704c0.78-0.78,2.047-0.781,2.828-0.001c0.781,0.781,0.782,2.048,0.001,2.829l-0.704,0.704
	c-13.604,13.604-16.042,33.602-6.212,50.945c4.117,7.264,10.133,13.279,17.397,17.396c17.344,9.83,37.341,7.391,50.945-6.211
	c0.78-0.781,2.047-0.781,2.828,0s0.781,2.047,0,2.828C82.243,183.877,70.956,188.423,59.282,188.423z"/>
<g>
</g>
<g>
</g>
<g>
</g>
<g>
</g>
<g>
</g>
<g>
</g>
<g>
</g>
<g>
</g>
<g>
</g>
<g>
</g>
<g>
</g>
<g>
</g>
<g>
</g>
<g>
</g>
<g>
</g>
</svg>
