<?xml version="1.0" encoding="iso-8859-1"?>
<!-- Generator: Adobe Illustrator 17.1.0, SVG Export Plug-In . SVG Version: 6.00 Build 0)  -->
<!DOCTYPE svg PUBLIC "-//W3C//DTD SVG 1.1//EN" "http://www.w3.org/Graphics/SVG/1.1/DTD/svg11.dtd">
<svg version="1.1" id="Capa_1" xmlns="http://www.w3.org/2000/svg" xmlns:xlink="http://www.w3.org/1999/xlink" x="0px" y="0px"
	 viewBox="0 0 215.879 215.879" style="enable-background:new 0 0 215.879 215.879;" xml:space="preserve">
<path d="M22.682,215.879c-0.512,0-1.023-0.195-1.414-0.586l-4.489-4.489c-0.008-0.008-0.016-0.016-0.023-0.023L0.961,194.987
	c-0.781-0.781-0.781-2.047,0-2.828c0.781-0.781,2.047-0.781,2.828,0l2.347,2.346l52.496-52.497l-5.727-5.727l-1.547,1.547
	c-0.781,0.781-2.047,0.781-2.828,0c-0.781-0.781-0.781-2.047,0-2.828l2.929-2.928c0.011-0.011,0.021-0.022,0.032-0.033
	c0.011-0.011,0.021-0.022,0.033-0.033l2.929-2.928c0.781-0.781,2.047-0.781,2.828,0c0.781,0.781,0.781,2.047,0,2.828l-1.547,1.547
	l5.727,5.726l16.913-16.913l-5.727-5.727l-1.547,1.546c-0.781,0.781-2.047,0.781-2.828,0c-0.781-0.781-0.781-2.047,0-2.828
	l2.942-2.942c0.006-0.006,0.012-0.013,0.019-0.019c0.006-0.006,0.013-0.013,0.019-0.019l2.943-2.942
	c0.781-0.781,2.047-0.781,2.828,0c0.781,0.781,0.781,2.047,0,2.828l-1.548,1.547l5.727,5.727l16.914-16.914l-5.727-5.727
	l-1.547,1.547c-0.781,0.781-2.047,0.781-2.828,0c-0.781-0.781-0.781-2.047,0-2.828l2.935-2.935c0.009-0.009,0.018-0.018,0.026-0.027
	c0.009-0.009,0.018-0.018,0.027-0.027l2.935-2.935c0.781-0.781,2.047-0.781,2.828,0c0.781,0.781,0.781,2.047,0,2.828l-1.547,1.548
	l5.726,5.726l45.478-45.477c7.045-7.045,11.254-16.402,11.853-26.347l1.563-25.992c0.047-0.786,0.551-1.471,1.286-1.75
	c0.736-0.279,1.567-0.102,2.124,0.456l51.669,51.668c0.557,0.557,0.735,1.388,0.456,2.124s-0.964,1.24-1.75,1.287l-25.994,1.564
	c-9.945,0.598-19.302,4.807-26.347,11.852l-34.812,34.812c5.526-0.662,11.285,1.12,15.514,5.349c7.312,7.311,7.312,19.208,0,26.519
	l-45.877,45.876c-3.542,3.542-8.251,5.493-13.26,5.493c-5.008,0-9.717-1.951-13.259-5.493c-3.542-3.542-5.492-8.25-5.492-13.259
	c0-0.755,0.044-1.504,0.132-2.242l-43.23,43.231l3.098,3.098c0.781,0.781,0.781,2.047,0,2.828
	C23.706,215.684,23.194,215.879,22.682,215.879z M13.467,201.836l4.702,4.703l97.296-97.296c0.03-0.03,0.061-0.061,0.092-0.091
	l42.897-42.897c7.737-7.737,18.013-12.36,28.935-13.017l21.557-1.297L163.564,6.558l-1.297,21.555
	c-0.656,10.922-5.279,21.198-13.017,28.935l-86.349,86.349c-0.009,0.009-0.018,0.018-0.026,0.027
	c-0.009,0.009-0.018,0.018-0.027,0.027L8.964,197.333L13.467,201.836z M83.017,147.347l-10.6,10.6
	c-5.752,5.752-5.752,15.11,0,20.862c5.751,5.751,15.109,5.752,20.862,0l45.877-45.876c2.786-2.787,4.32-6.491,4.32-10.431
	c0-3.941-1.534-7.645-4.32-10.432c-2.786-2.786-6.491-4.321-10.432-4.321c-3.902,0-7.573,1.505-10.35,4.24L83.017,147.347z"/>
<g>
</g>
<g>
</g>
<g>
</g>
<g>
</g>
<g>
</g>
<g>
</g>
<g>
</g>
<g>
</g>
<g>
</g>
<g>
</g>
<g>
</g>
<g>
</g>
<g>
</g>
<g>
</g>
<g>
</g>
</svg>
