<?xml version="1.0" encoding="iso-8859-1"?>
<!-- Generator: Adobe Illustrator 17.1.0, SVG Export Plug-In . SVG Version: 6.00 Build 0)  -->
<!DOCTYPE svg PUBLIC "-//W3C//DTD SVG 1.1//EN" "http://www.w3.org/Graphics/SVG/1.1/DTD/svg11.dtd">
<svg version="1.1" id="Capa_1" xmlns="http://www.w3.org/2000/svg" xmlns:xlink="http://www.w3.org/1999/xlink" x="0px" y="0px"
	 viewBox="0 0 191.39 191.39" style="enable-background:new 0 0 191.39 191.39;" xml:space="preserve">
<path d="M59.486,191.39c-15.893,0-30.835-6.189-42.073-17.427c-23.199-23.199-23.199-60.947,0-84.146
	c20.896-20.896,53.888-23.24,77.452-5.756l59.024-59.024c-1.022-1.497-1.572-3.265-1.572-5.118c0-2.431,0.946-4.716,2.665-6.434
	l1.313-1.313l-3.402-3.402c-0.781-0.781-0.781-2.047,0-2.828c0.78-0.781,2.048-0.781,2.828,0l3.402,3.402l2.526-2.526l-3.402-3.402
	c-0.781-0.781-0.781-2.047,0-2.828c0.78-0.781,2.048-0.781,2.828,0l3.402,3.402l0.373-0.373c3.95-3.949,10.377-3.95,14.327,0
	l8.582,8.583c3.95,3.95,3.95,10.377,0,14.327l-0.373,0.373l3.402,3.403c0.781,0.781,0.781,2.047,0,2.828
	c-0.781,0.781-2.048,0.781-2.828,0l-3.402-3.402l-2.526,2.526l3.402,3.402c0.781,0.781,0.781,2.047,0,2.828
	c-0.781,0.781-2.048,0.781-2.828,0l-3.402-3.402l-1.313,1.313c-3.137,3.136-8.012,3.5-11.551,1.092L107.315,96.51
	c17.484,23.565,15.14,56.556-5.756,77.452l-1.414-1.414l1.414,1.414C90.321,185.2,75.379,191.39,59.486,191.39z M59.508,76.385
	c-14.276,0-28.493,5.486-39.267,16.26c-21.639,21.639-21.639,56.85,0,78.489c10.483,10.482,24.42,16.255,39.245,16.255
	s28.762-5.773,39.245-16.256c19.35-19.351,21.647-49.817,5.723-71.762l-31.272,31.272c0.037,0.412,0.055,0.827,0.055,1.245
	c0,3.672-1.43,7.125-4.027,9.722c-2.995,2.995-7.042,4.312-10.961,3.966l-9.989,9.989l3.224,3.224c0.781,0.781,0.781,2.047,0,2.828
	c-0.78,0.781-2.048,0.781-2.828,0l-4.612-4.611c-0.009-0.009-0.018-0.018-0.027-0.027c-0.009-0.009-0.018-0.018-0.027-0.027
	l-9.568-9.568c-0.009-0.009-0.018-0.018-0.027-0.027c-0.009-0.009-0.018-0.018-0.027-0.027l-4.611-4.612
	c-0.781-0.781-0.781-2.047,0-2.828c0.78-0.781,2.048-0.781,2.828,0l3.225,3.224l9.982-9.982c-0.037-0.412-0.055-0.827-0.055-1.245
	c0-3.673,1.43-7.126,4.027-9.723c2.597-2.597,6.05-4.027,9.723-4.027c0.418,0,0.833,0.018,1.245,0.055l19.275-19.276
	c0.005-0.005,0.011-0.011,0.017-0.016l11.98-11.981C82.277,79.864,70.874,76.385,59.508,76.385z M43.448,150.756l1.982,1.982
	l8.341-8.342c-0.869-0.396-1.705-0.887-2.492-1.473L43.448,150.756z M38.637,145.945l1.982,1.982l7.831-7.831
	c-0.583-0.779-1.076-1.613-1.477-2.488L38.637,145.945z M54.152,140.052c0.854,0.559,1.777,0.969,2.733,1.232l12.001-12.001
	c-0.267-0.968-0.682-1.887-1.235-2.729L54.152,140.052z M68.683,135.143l-5.934,5.934c1.327-0.469,2.572-1.233,3.632-2.293
	C67.426,137.738,68.205,136.497,68.683,135.143z M50.086,134.496c0.267,0.968,0.683,1.887,1.235,2.729l13.5-13.5
	c-0.842-0.553-1.761-0.969-2.729-1.235L50.086,134.496z M56.232,122.693c-1.354,0.478-2.595,1.257-3.641,2.302
	s-1.824,2.287-2.302,3.641L56.232,122.693z M70.521,123.682c0.583,0.78,1.077,1.613,1.477,2.488l16.231-16.232l-1.982-1.982
	L70.521,123.682z M65.205,119.377c0.875,0.4,1.708,0.895,2.488,1.477l15.726-15.726l-1.982-1.982L65.205,119.377z M89.076,105.128
	l1.982,1.982l72.34-72.34l-1.982-1.982L89.076,105.128z M84.265,100.317l1.982,1.982l72.341-72.341l-1.982-1.982L84.265,100.317z
	 M162.98,28.693l4.872,4.872c0.963,0.963,2.244,1.494,3.606,1.494s2.643-0.531,3.606-1.494l9.869-9.869c2.39-2.391,2.39-6.28,0-8.67
	l-8.582-8.582c-2.39-2.39-6.28-2.389-8.671,0l-1.775,1.775c-0.004,0.004-0.008,0.008-0.012,0.012
	c-0.004,0.004-0.008,0.008-0.012,0.013l-5.321,5.321c-0.007,0.007-0.014,0.015-0.021,0.021c-0.007,0.007-0.014,0.014-0.021,0.021
	l-2.706,2.705c-1.988,1.988-1.988,5.224,0,7.212l0.184,0.183c0.009,0.009,0.018,0.018,0.026,0.026l4.792,4.792
	c0.006,0.006,0.013,0.013,0.019,0.019s0.013,0.013,0.019,0.019L162.98,28.693z M59.486,183.306
	c-28.349,0-51.413-23.063-51.413-51.413S31.137,80.48,59.486,80.48c1.104,0,2,0.896,2,2s-0.896,2-2,2
	c-26.144,0-47.413,21.27-47.413,47.413s21.27,47.413,47.413,47.413c1.104,0,2,0.896,2,2S60.591,183.306,59.486,183.306z"/>
<g>
</g>
<g>
</g>
<g>
</g>
<g>
</g>
<g>
</g>
<g>
</g>
<g>
</g>
<g>
</g>
<g>
</g>
<g>
</g>
<g>
</g>
<g>
</g>
<g>
</g>
<g>
</g>
<g>
</g>
</svg>
