<?xml version="1.0" encoding="iso-8859-1"?>
<!-- Generator: Adobe Illustrator 17.1.0, SVG Export Plug-In . SVG Version: 6.00 Build 0)  -->
<!DOCTYPE svg PUBLIC "-//W3C//DTD SVG 1.1//EN" "http://www.w3.org/Graphics/SVG/1.1/DTD/svg11.dtd">
<svg version="1.1" id="Capa_1" xmlns="http://www.w3.org/2000/svg" xmlns:xlink="http://www.w3.org/1999/xlink" x="0px" y="0px"
	 viewBox="0 0 199.739 199.739" style="enable-background:new 0 0 199.739 199.739;" xml:space="preserve">
<path d="M13.407,199.739c-2.517,0-4.883-0.98-6.661-2.76l-3.983-3.983c-1.779-1.779-2.76-4.146-2.76-6.662s0.98-4.883,2.76-6.662
	l21.775-21.775c-2.086-0.291-4.097-1.237-5.697-2.838c-3.429-3.429-3.854-8.741-1.272-12.637l-2.251-2.25l-4.268,4.268
	c-0.781,0.781-2.047,0.781-2.828,0s-0.781-2.047,0-2.828L97.972,51.86c0.781-0.781,2.047-0.781,2.828,0s0.781,2.047,0,2.828
	l-4.268,4.268l2.25,2.25c3.896-2.581,9.21-2.154,12.637,1.272c1.601,1.601,2.546,3.612,2.838,5.698L179.674,2.76
	C181.454,0.98,183.82,0,186.337,0s4.883,0.98,6.662,2.76l3.983,3.983c3.673,3.673,3.673,9.649,0,13.323L20.069,196.979
	C18.29,198.759,15.923,199.739,13.407,199.739z M59.079,129.012L5.59,182.5c-2.114,2.114-2.114,5.554,0,7.668l3.983,3.983
	c1.024,1.024,2.385,1.588,3.833,1.588c1.448,0,2.81-0.563,3.834-1.588L150.268,61.124l-11.65-11.651L111.43,76.66
	c-0.003,0.004-0.007,0.007-0.011,0.011s-0.008,0.008-0.012,0.012l-26.108,26.109c-0.003,0.003-0.006,0.005-0.009,0.008
	s-0.006,0.006-0.009,0.009l-26.037,26.038c-0.027,0.027-0.055,0.056-0.083,0.083C59.134,128.957,59.107,128.984,59.079,129.012z
	 M25.936,141.927c-1.612,0-3.128,0.628-4.268,1.768c-2.354,2.354-2.354,6.183,0,8.536c1.14,1.14,2.655,1.768,4.268,1.768
	s3.128-0.628,4.268-1.768c2.354-2.354,2.354-6.183,0-8.536C29.064,142.555,27.548,141.927,25.936,141.927z M25.936,137.932
	c2.569,0,5.14,0.979,7.096,2.935c1.601,1.601,2.547,3.612,2.838,5.698l14.797-14.798c-2.086-0.291-4.097-1.236-5.697-2.837
	c-1.896-1.896-2.94-4.416-2.94-7.097c0-2.001,0.582-3.913,1.666-5.542l-2.249-2.248l-23.301,23.301l2.251,2.25
	C22.068,138.485,24.003,137.932,25.936,137.932z M52.065,115.801c-1.546,0-3.091,0.588-4.268,1.765
	c-1.141,1.14-1.769,2.655-1.769,4.268s0.629,3.128,1.769,4.269c2.332,2.331,6.112,2.352,8.472,0.063l0.128-0.129
	c2.289-2.357,2.268-6.139-0.063-8.471C55.157,116.389,53.611,115.801,52.065,115.801z M52.065,111.803
	c2.57,0,5.14,0.979,7.097,2.935c1.601,1.6,2.546,3.611,2.837,5.697l14.792-14.792c-2.148-0.299-4.132-1.282-5.692-2.843l0,0
	c-3.429-3.429-3.853-8.741-1.272-12.636l-2.25-2.251l-23.301,23.301l2.25,2.251C48.197,112.356,50.131,111.803,52.065,111.803z
	 M73.922,91.442c-2.348,2.354-2.346,6.178,0.005,8.529l0,0c1.14,1.141,2.655,1.768,4.268,1.768s3.128-0.628,4.269-1.768
	c2.353-2.354,2.353-6.182,0-8.535c-1.141-1.14-2.656-1.768-4.269-1.768c-1.609,0-3.123,0.625-4.262,1.763
	c-0.002,0.001-0.004,0.003-0.006,0.005S73.923,91.44,73.922,91.442z M78.194,85.669c2.681,0,5.201,1.044,7.097,2.939
	c1.601,1.601,2.547,3.611,2.838,5.697l14.791-14.792c-2.147-0.299-4.132-1.282-5.692-2.843c-3.429-3.428-3.853-8.741-1.272-12.637
	l-2.25-2.25L70.404,85.085l2.248,2.249C74.281,86.25,76.193,85.669,78.194,85.669z M104.324,63.542
	c-1.546,0-3.092,0.588-4.269,1.765c-2.353,2.354-2.353,6.183,0,8.536c1.141,1.14,2.656,1.769,4.269,1.769s3.127-0.628,4.268-1.769
	c2.353-2.354,2.353-6.183,0-8.536C107.415,64.13,105.869,63.542,104.324,63.542z M141.446,46.645l11.651,11.65l41.057-41.057
	c2.113-2.114,2.113-5.554,0-7.667l-3.983-3.983C189.146,4.564,187.785,4,186.337,4s-2.81,0.564-3.834,1.588L141.446,46.645z"/>
<g>
</g>
<g>
</g>
<g>
</g>
<g>
</g>
<g>
</g>
<g>
</g>
<g>
</g>
<g>
</g>
<g>
</g>
<g>
</g>
<g>
</g>
<g>
</g>
<g>
</g>
<g>
</g>
<g>
</g>
</svg>
