<?xml version="1.0" encoding="iso-8859-1"?>
<!-- Generator: Adobe Illustrator 17.1.0, SVG Export Plug-In . SVG Version: 6.00 Build 0)  -->
<!DOCTYPE svg PUBLIC "-//W3C//DTD SVG 1.1//EN" "http://www.w3.org/Graphics/SVG/1.1/DTD/svg11.dtd">
<svg version="1.1" id="Capa_1" xmlns="http://www.w3.org/2000/svg" xmlns:xlink="http://www.w3.org/1999/xlink" x="0px" y="0px"
	 viewBox="0 0 201.235 201.235" style="enable-background:new 0 0 201.235 201.235;" xml:space="preserve">
<path d="M167.33,201.235c-4.118,0-8.229-0.859-12.109-2.573c-7.332-3.237-12.964-9.136-15.859-16.609L83.843,38.736
	c-3.769-9.728-12.141-16.683-22.394-18.604l-19.827-3.715L8.33,13.207c-2.65-0.256-4.604-2.539-4.447-5.198
	c0.078-1.327,0.673-2.541,1.673-3.417c1-0.875,2.275-1.307,3.606-1.208l4.494,0.327c1.521,0.111,3.052-0.306,4.307-1.173
	l0.914-0.634c2.32-1.603,5.124-2.223,7.9-1.75l16.153,2.76c0.01,0.002,0.019,0.004,0.028,0.006l0,0c0.003,0,0.005,0.001,0.008,0.001
	c0.001,0,0.002,0,0.002,0c0.014,0.003,0.025,0.005,0.038,0.008l28.317,5.793C82.12,10.929,91.2,18.276,95.613,28.373l5.423,12.217
	c0.656-0.745,1.496-1.348,2.484-1.73c1.599-0.618,3.342-0.579,4.908,0.113c1.568,0.692,2.772,1.953,3.392,3.551
	c1.276,3.299-0.367,7.021-3.665,8.3c-0.783,0.304-1.631,0.429-2.385,0.433l4.796,10.805c0.646-0.712,1.464-1.287,2.42-1.658
	c3.3-1.278,7.021,0.367,8.3,3.665c1.277,3.298-0.366,7.021-3.665,8.299c-0.752,0.291-1.526,0.431-2.288,0.434l4.751,10.703
	c0.627-0.653,1.403-1.183,2.302-1.531c1.598-0.618,3.341-0.579,4.909,0.114c1.567,0.692,2.771,1.953,3.391,3.551
	s0.578,3.341-0.114,4.908s-1.953,2.771-3.551,3.391c-0.695,0.269-1.409,0.408-2.115,0.43l4.697,10.582
	c0.615-0.605,1.354-1.085,2.183-1.406c1.598-0.618,3.342-0.579,4.908,0.113c1.568,0.692,2.772,1.954,3.391,3.553
	c0.619,1.597,0.578,3.34-0.113,4.907c-0.692,1.567-1.953,2.771-3.551,3.391c-0.631,0.244-1.285,0.386-1.942,0.425l22.529,50.756
	c0.675,1.546,2.426,2.274,3.984,1.668c0.775-0.3,1.389-0.885,1.725-1.646c0.336-0.761,0.355-1.607,0.055-2.383l-8.721-22.511
	c-3.956-10.213-5.567-21.38-4.66-32.295l1.532-18.447l-3.236-0.884c-1.066-0.291-1.694-1.391-1.403-2.456
	c0.292-1.065,1.393-1.693,2.456-1.403l40.337,11.012c0.012,0.004,0.024,0.007,0.036,0.011l6.072,1.657
	c1.066,0.291,1.694,1.391,1.403,2.456s-1.389,1.694-2.456,1.403l-4.093-1.117l-3.728,16.487c-1.764,7.8-1.17,15.863,1.719,23.319
	l7.29,18.818c2.895,7.474,2.706,15.627-0.531,22.958c-3.237,7.332-9.136,12.964-16.609,15.859
	C174.661,200.555,170.992,201.235,167.33,201.235z M44.027,12.798L62.185,16.2C73.809,18.378,83.3,26.262,87.573,37.29
	l55.519,143.316c2.509,6.478,7.39,11.59,13.744,14.396c6.354,2.807,13.42,2.971,19.897,0.46c6.478-2.509,11.59-7.39,14.396-13.744
	s2.97-13.421,0.46-19.897l-7.29-18.818c-3.176-8.2-3.83-17.069-1.891-25.647l3.768-16.659l-22.083-6.028l-1.648,13.789
	c-0.905,7.568-0.091,15.386,2.356,22.606l9.614,28.368c0.354,1.046-0.206,2.182-1.253,2.536c-1.041,0.351-2.18-0.206-2.536-1.253
	l-9.614-28.368c-2.637-7.782-3.515-16.207-2.54-24.364l1.721-14.379l-5.346-1.46l-1.471,17.708
	c-0.857,10.313,0.665,20.867,4.404,30.518l8.721,22.511c0.687,1.772,0.642,3.705-0.126,5.444c-0.768,1.738-2.167,3.074-3.938,3.761
	c-3.563,1.382-7.56-0.281-9.091-3.786l-24.383-54.933c-0.345-0.462-0.628-0.974-0.842-1.525c-0.137-0.354-0.241-0.714-0.313-1.077
	L91.952,29.986c-3.897-8.918-11.906-15.398-21.429-17.346L44.427,7.303L44.027,12.798z M132.389,111.227
	c0.209,0.21,0.458,0.382,0.738,0.506c0.589,0.26,1.245,0.275,1.847,0.042c0.602-0.232,1.076-0.686,1.337-1.275
	c0.26-0.591,0.275-1.246,0.042-1.848c-0.232-0.603-0.686-1.077-1.275-1.338c-0.592-0.261-1.247-0.277-1.848-0.042
	c-0.602,0.232-1.076,0.686-1.337,1.275c-0.155,0.354-0.224,0.729-0.203,1.104L132.389,111.227z M124.703,85.537
	c-0.294,0-0.589,0.055-0.872,0.165c-1.241,0.48-1.86,1.883-1.379,3.124c0.232,0.602,0.686,1.076,1.275,1.337
	c0.59,0.26,1.246,0.275,1.848,0.042c1.242-0.48,1.861-1.882,1.38-3.123c-0.232-0.602-0.687-1.076-1.276-1.337
	C125.366,85.607,125.035,85.537,124.703,85.537z M115.303,63.968c-0.294,0-0.589,0.055-0.872,0.165
	c-1.241,0.48-1.86,1.883-1.379,3.124c0.232,0.602,0.686,1.076,1.275,1.337c0.591,0.26,1.245,0.275,1.848,0.042
	c1.242-0.48,1.861-1.882,1.38-3.123c-0.232-0.602-0.687-1.076-1.276-1.337C115.967,64.037,115.635,63.968,115.303,63.968z
	 M105.839,42.425c-0.295,0-0.59,0.055-0.873,0.165c-0.602,0.232-1.076,0.686-1.337,1.275c-0.26,0.59-0.275,1.246-0.042,1.848
	c0.232,0.602,0.687,1.076,1.276,1.337c0.589,0.262,1.243,0.277,1.847,0.043c1.241-0.48,1.86-1.883,1.38-3.125
	c-0.232-0.601-0.686-1.075-1.276-1.336C106.501,42.494,106.17,42.425,105.839,42.425z M8.801,7.371c-0.3,0-0.509,0.142-0.61,0.23
	C8.082,7.697,7.895,7.908,7.875,8.245c-0.029,0.501,0.34,0.932,0.84,0.979l31.342,3.022l0.415-5.694L26.103,4.098
	c-1.739-0.298-3.497,0.093-4.949,1.096l-0.915,0.633c-2.004,1.386-4.448,2.048-6.874,1.875L8.871,7.374
	C8.847,7.372,8.823,7.371,8.801,7.371z"/>
<g>
</g>
<g>
</g>
<g>
</g>
<g>
</g>
<g>
</g>
<g>
</g>
<g>
</g>
<g>
</g>
<g>
</g>
<g>
</g>
<g>
</g>
<g>
</g>
<g>
</g>
<g>
</g>
<g>
</g>
</svg>
