<?xml version="1.0" encoding="iso-8859-1"?>
<!-- Generator: Adobe Illustrator 17.1.0, SVG Export Plug-In . SVG Version: 6.00 Build 0)  -->
<!DOCTYPE svg PUBLIC "-//W3C//DTD SVG 1.1//EN" "http://www.w3.org/Graphics/SVG/1.1/DTD/svg11.dtd">
<svg version="1.1" id="Capa_1" xmlns="http://www.w3.org/2000/svg" xmlns:xlink="http://www.w3.org/1999/xlink" x="0px" y="0px"
	 viewBox="0 0 194.766 194.766" style="enable-background:new 0 0 194.766 194.766;" xml:space="preserve">
<path d="M48.755,194.766c-0.522,0-1.034-0.204-1.415-0.586L0.586,147.426c-0.536-0.536-0.723-1.328-0.483-2.048
	c0.24-0.719,0.866-1.24,1.616-1.347l16.267-2.307c13.265-1.88,25.788-8.129,35.266-17.597c0.008-0.009,0.017-0.018,0.025-0.025
	l11.326-11.325c-0.046-0.044-0.092-0.089-0.137-0.135c-1.083-1.082-1.829-2.412-2.185-3.862l-4.974,4.974
	c-0.78,0.781-2.047,0.781-2.828,0s-0.781-2.047,0-2.828L82.093,83.31c0.009-0.009,0.019-0.019,0.028-0.027
	c0.009-0.01,0.019-0.019,0.027-0.027l35.253-35.254c0.01-0.01,0.02-0.02,0.03-0.029s0.02-0.02,0.03-0.03l11.146-11.146
	c0.78-0.781,2.048-0.781,2.828,0c0.781,0.781,0.781,2.047,0,2.828l-6.167,6.167c1.418,0.348,2.762,1.075,3.868,2.181
	c0.045,0.045,0.09,0.091,0.134,0.138l14.989-14.988c0.032-0.032,0.064-0.063,0.098-0.092l35.318-31.418
	c2.521-2.244,6.366-2.133,8.754,0.255l0,0l4.469,4.469c2.387,2.387,2.499,6.232,0.256,8.755l-31.43,35.331
	c-0.027,0.031-0.056,0.062-0.085,0.091l-90.976,90.976c-9.481,9.481-15.74,22.015-17.622,35.29l-2.306,16.268
	c-0.106,0.751-0.627,1.377-1.347,1.617C49.181,194.732,48.967,194.766,48.755,194.766z M6.246,147.43l41.09,41.09l1.744-12.302
	c1.909-13.469,8.051-26.219,17.361-36.122L54.67,128.323c-9.903,9.311-22.653,15.453-36.122,17.362L6.246,147.43z M57.52,125.517
	l11.729,11.729l88.153-88.153l-11.729-11.729l-14.38,14.38c0.708,2.743-0.009,5.78-2.149,7.926
	c-0.002,0.003-0.005,0.005-0.007,0.008h0c-0.012,0.013-0.025,0.025-0.037,0.037c-2.144,2.118-5.165,2.824-7.896,2.12l-7.565,7.564
	c0.706,2.736-0.005,5.767-2.135,7.912c0,0-0.003,0.003-0.006,0.006c-0.002,0.002-0.005,0.004-0.008,0.008
	c-0.002,0.003-0.005,0.005-0.008,0.008c-2.146,2.146-5.189,2.863-7.934,2.156l-7.56,7.562c0.174,0.673,0.263,1.372,0.263,2.085
	c0,2.211-0.861,4.289-2.424,5.853c-1.563,1.563-3.642,2.424-5.853,2.424c-0.713,0-1.413-0.089-2.085-0.263l-7.561,7.561
	c0.708,2.745-0.01,5.786-2.157,7.933c-2.146,2.146-5.189,2.865-7.933,2.157L57.52,125.517z M68.413,110.621
	c0.044,0.017,0.088,0.035,0.132,0.055c1.619,0.74,3.545,0.393,4.798-0.861c0.001-0.002,0.003-0.004,0.005-0.006
	c0.001-0.001,0.002-0.002,0.004-0.004l0,0c0.007-0.007,0.015-0.015,0.021-0.021c0.003-0.004,0.004-0.006,0.006-0.006
	c1.223-1.253,1.555-3.159,0.824-4.762c-0.02-0.044-0.038-0.089-0.055-0.134c-0.204-0.407-0.474-0.783-0.805-1.115
	c-1.668-1.669-4.381-1.667-6.048,0c-0.808,0.808-1.253,1.882-1.253,3.024c0,1.142,0.445,2.216,1.253,3.023l0,0
	C67.627,110.146,68.004,110.417,68.413,110.621z M72.304,98.758c1.418,0.348,2.761,1.074,3.867,2.181
	c0.045,0.045,0.09,0.091,0.134,0.137l5.953-5.953c-0.046-0.044-0.092-0.089-0.137-0.134c-1.083-1.083-1.829-2.413-2.185-3.863
	L72.304,98.758z M86.075,92.969c0.042,0.016,0.083,0.033,0.125,0.052c1.618,0.737,3.545,0.392,4.798-0.86
	c1.252-1.253,1.599-3.182,0.861-4.799c-0.019-0.04-0.035-0.08-0.05-0.12c-0.201-0.408-0.472-0.791-0.811-1.13
	c-0.808-0.808-1.882-1.253-3.024-1.253c-1.132,0-2.197,0.438-3.002,1.231l-0.043,0.044c-0.794,0.805-1.231,1.87-1.231,3.002
	c0,1.143,0.445,2.217,1.252,3.024C85.287,92.498,85.668,92.767,86.075,92.969z M89.963,81.098c1.45,0.356,2.78,1.103,3.863,2.186
	c0.045,0.045,0.09,0.091,0.134,0.137l5.953-5.953c-0.046-0.044-0.092-0.088-0.137-0.134c-1.083-1.083-1.829-2.413-2.185-3.863
	L89.963,81.098z M103.732,75.314c0.041,0.016,0.082,0.032,0.123,0.051c1.617,0.737,3.545,0.391,4.798-0.86
	c0.002-0.002,0.004-0.005,0.007-0.007l0.001-0.001c1.246-1.253,1.589-3.177,0.853-4.791c-0.019-0.04-0.035-0.08-0.05-0.12
	c-0.202-0.408-0.472-0.791-0.811-1.13c-1.668-1.669-4.381-1.667-6.048,0c-0.808,0.808-1.252,1.882-1.252,3.024
	s0.445,2.217,1.252,3.024C102.943,74.843,103.325,75.113,103.732,75.314z M107.618,63.442c1.45,0.356,2.78,1.103,3.863,2.186
	c0.046,0.045,0.09,0.091,0.134,0.138l5.954-5.953c-0.046-0.044-0.092-0.089-0.138-0.135c-1.106-1.105-1.833-2.449-2.181-3.867
	L107.618,63.442z M121.394,57.662c0.039,0.015,0.077,0.031,0.115,0.049c1.618,0.735,3.546,0.391,4.799-0.861
	c1.252-1.253,1.598-3.182,0.86-4.799c-0.018-0.04-0.035-0.08-0.05-0.12c-0.201-0.408-0.472-0.791-0.811-1.13
	c-1.661-1.661-4.358-1.668-6.027-0.021l-0.042,0.043c-1.646,1.67-1.639,4.367,0.021,6.027
	C120.6,57.19,120.984,57.461,121.394,57.662z M148.587,34.621l11.559,11.559l30.02-33.747c0.837-0.941,0.795-2.377-0.096-3.269
	l-4.468-4.469c-0.891-0.89-2.325-0.934-3.268-0.095L148.587,34.621z"/>
<g>
</g>
<g>
</g>
<g>
</g>
<g>
</g>
<g>
</g>
<g>
</g>
<g>
</g>
<g>
</g>
<g>
</g>
<g>
</g>
<g>
</g>
<g>
</g>
<g>
</g>
<g>
</g>
<g>
</g>
</svg>
