<?xml version="1.0" encoding="iso-8859-1"?>
<!-- Generator: Adobe Illustrator 17.1.0, SVG Export Plug-In . SVG Version: 6.00 Build 0)  -->
<!DOCTYPE svg PUBLIC "-//W3C//DTD SVG 1.1//EN" "http://www.w3.org/Graphics/SVG/1.1/DTD/svg11.dtd">
<svg version="1.1" id="Capa_1" xmlns="http://www.w3.org/2000/svg" xmlns:xlink="http://www.w3.org/1999/xlink" x="0px" y="0px"
	 viewBox="0 0 194.482 194.482" style="enable-background:new 0 0 194.482 194.482;" xml:space="preserve">
<path d="M2,194.482c-0.512,0-1.023-0.195-1.414-0.586c-0.781-0.781-0.781-2.047,0-2.828l30.668-30.669
	c-1.308-1.446-2.512-2.99-3.607-4.629c-9.704-14.509-9.244-33.244,1.133-46.637c0.368-0.475,0.747-0.942,1.137-1.402l9.779-11.548
	c0.608-0.718,1.635-0.916,2.468-0.472l3.184,1.698c2.775,1.48,6.144,1.349,8.79-0.345l7.359-4.706
	c1.068-0.683,1.418-2.098,0.795-3.22l-1.608-2.896c-0.434-0.78-0.298-1.754,0.334-2.385l7.856-7.855
	c8.671-8.671,20.979-12.181,32.919-9.391l12.031,2.812l45.721-45.72c-0.527-2.447,0.158-5.106,2.057-7.006l0.893-0.893l-3.783-3.784
	c-0.781-0.781-0.781-2.047,0-2.828s2.047-0.781,2.828,0l3.784,3.783l5.779-5.778l-3.784-3.784c-0.781-0.781-0.781-2.047,0-2.828
	s2.047-0.781,2.828,0l3.784,3.784l0.203-0.203c2.97-2.97,7.806-2.974,10.779,0l5.402,5.402c2.972,2.973,2.972,7.809,0,10.779
	l-0.203,0.203l3.784,3.784c0.781,0.781,0.781,2.047,0,2.828s-2.047,0.781-2.828,0l-3.784-3.784l-5.778,5.779l3.783,3.784
	c0.781,0.781,0.781,2.047,0,2.828s-2.047,0.781-2.828,0l-3.784-3.783l-0.893,0.893l0,0c-1.899,1.899-4.557,2.587-7.006,2.057
	l-45.72,45.721l2.812,12.031c2.791,11.941-0.72,24.248-9.391,32.919l-7.855,7.856c-0.631,0.63-1.603,0.77-2.385,0.334l-2.896-1.608
	c-1.121-0.62-2.535-0.274-3.219,0.795l-4.707,7.359c-1.693,2.646-1.825,6.015-0.345,8.79l1.698,3.184
	c0.443,0.831,0.247,1.858-0.472,2.468l-11.549,9.781c-1.002,0.848-2.043,1.647-3.095,2.378c-13.131,9.132-31.191,9.089-44.943-0.11
	c-1.639-1.096-3.184-2.301-4.629-3.607L3.415,193.896C3.024,194.287,2.512,194.482,2,194.482z M41.706,100.001l-8.737,10.317
	c-0.354,0.416-0.695,0.837-1.026,1.265c-9.321,12.03-9.716,28.888-0.982,41.946c2.661,3.978,6.014,7.33,9.977,9.981
	c12.395,8.29,28.645,8.351,40.436,0.151c0.948-0.66,1.889-1.383,2.793-2.148l10.316-8.737l-0.938-1.759l0,0
	c-2.16-4.051-1.967-8.966,0.505-12.829l4.706-7.357c1.817-2.844,5.565-3.784,8.53-2.137l1.578,0.876l6.789-6.79
	c7.687-7.687,10.798-18.595,8.324-29.181l-2.247-9.612l-62.58,62.58l1.556,1.556c0.781,0.781,0.781,2.047,0,2.828
	s-2.047,0.781-2.828,0l-2.953-2.952c-0.005-0.006-0.011-0.012-0.017-0.018s-0.012-0.012-0.018-0.018l-8.354-8.354
	c-0.012-0.011-0.023-0.021-0.034-0.033c-0.012-0.011-0.022-0.022-0.033-0.034l-2.936-2.936c-0.781-0.781-0.781-2.047,0-2.828
	s2.047-0.781,2.828,0l1.555,1.555l62.58-62.579l-9.612-2.247c-10.583-2.471-21.492,0.638-29.181,8.324l-6.79,6.789l0.876,1.578
	c1.646,2.964,0.708,6.712-2.136,8.531l-7.359,4.706c-3.861,2.472-8.778,2.664-12.828,0.504L41.706,100.001z M54.946,142.364
	l1.374,1.375l45.664-45.664l-1.374-1.374L54.946,142.364z M50.744,138.162l1.374,1.374l45.663-45.663l-1.374-1.375L50.744,138.162z
	 M103.438,93.873l1.085,1.085l16.811-16.811c0.001-0.001,0.002-0.002,0.003-0.003l45.466-45.466l-1.085-1.085L103.438,93.873z
	 M99.524,89.959l1.086,1.085l62.279-62.278l-1.086-1.086l-45.465,45.466c-0.002,0.001-0.003,0.002-0.004,0.003L99.524,89.959z
	 M167.137,27.357l2.695,2.695c1.412,1.412,3.711,1.412,5.123,0l2.272-2.273c0.012-0.012,0.022-0.022,0.034-0.034
	s0.022-0.022,0.034-0.034l8.56-8.56c0.005-0.005,0.009-0.009,0.014-0.014c0.004-0.005,0.009-0.009,0.014-0.014l1.604-1.604
	c1.412-1.412,1.412-3.71,0-5.123l-5.402-5.402c-1.412-1.412-3.711-1.412-5.123,0l-1.604,1.604c-0.005,0.005-0.009,0.01-0.014,0.014
	c-0.005,0.005-0.009,0.009-0.014,0.014l-8.56,8.56c-0.012,0.012-0.022,0.022-0.034,0.034s-0.022,0.022-0.034,0.034l-2.273,2.272
	c-1.412,1.413-1.412,3.711,0,5.123l2.696,2.696c0.002,0.002,0.004,0.004,0.006,0.006S167.135,27.355,167.137,27.357z M81.958,156.01
	c-0.399,0-0.799-0.044-1.192-0.133c-1.455-0.329-2.724-1.256-3.48-2.543c-2.324-3.951-1.853-8.918,1.175-12.36l5.657-6.434
	c1.438-1.637,1.976-3.874,1.436-5.984c-0.086-0.336-0.341-0.453-0.485-0.492c-0.142-0.04-0.422-0.07-0.668,0.177
	c-0.781,0.781-2.047,0.781-2.828,0s-0.781-2.047,0-2.828c1.206-1.206,2.91-1.655,4.553-1.207c1.646,0.451,2.881,1.707,3.304,3.359
	c0.867,3.392,0.005,6.986-2.307,9.616l-5.657,6.434c-1.884,2.143-2.178,5.233-0.731,7.692c0.202,0.343,0.527,0.581,0.916,0.669
	c0.391,0.09,0.785,0.014,1.117-0.21l1.602-1.083c0.918-0.618,2.159-0.376,2.777,0.537c0.618,0.915,0.378,2.159-0.537,2.777
	l-1.603,1.083C84.101,155.69,83.034,156.01,81.958,156.01z M46.519,118.665c-1.844,0-3.697-0.482-5.37-1.467
	c-1.287-0.757-2.215-2.026-2.544-3.482s-0.039-3,0.797-4.237l1.083-1.604c0.619-0.913,1.86-1.153,2.777-0.537
	c0.915,0.618,1.155,1.862,0.537,2.777l-1.083,1.603c-0.224,0.33-0.298,0.727-0.21,1.115c0.088,0.39,0.326,0.715,0.671,0.918
	c2.459,1.447,5.55,1.151,7.69-0.731l6.435-5.658c2.628-2.312,6.223-3.176,9.614-2.307c1.653,0.423,2.909,1.658,3.36,3.304
	c0.45,1.645-0.001,3.347-1.207,4.553c-0.781,0.781-2.047,0.781-2.828,0s-0.781-2.047,0-2.828c0.246-0.246,0.216-0.524,0.177-0.668
	c-0.039-0.145-0.156-0.399-0.493-0.485c-2.111-0.539-4.347-0.003-5.981,1.436l-6.436,5.658
	C51.524,117.769,49.032,118.665,46.519,118.665z"/>
<g>
</g>
<g>
</g>
<g>
</g>
<g>
</g>
<g>
</g>
<g>
</g>
<g>
</g>
<g>
</g>
<g>
</g>
<g>
</g>
<g>
</g>
<g>
</g>
<g>
</g>
<g>
</g>
<g>
</g>
</svg>
