<?xml version="1.0" encoding="iso-8859-1"?>
<!-- Generator: Adobe Illustrator 17.1.0, SVG Export Plug-In . SVG Version: 6.00 Build 0)  -->
<!DOCTYPE svg PUBLIC "-//W3C//DTD SVG 1.1//EN" "http://www.w3.org/Graphics/SVG/1.1/DTD/svg11.dtd">
<svg version="1.1" id="Capa_1" xmlns="http://www.w3.org/2000/svg" xmlns:xlink="http://www.w3.org/1999/xlink" x="0px" y="0px"
	 viewBox="0 0 196.387 196.387" style="enable-background:new 0 0 196.387 196.387;" xml:space="preserve">
<path d="M122.611,196.387H12.203c-1.104,0-2-0.896-2-2V83.979c0-1.104,0.896-2,2-2h14.955V48.854c0-1.104,0.896-2,2-2h5.216v-8.203
	c0-11.488,9.347-20.835,20.836-20.835s20.835,9.347,20.835,20.835v43.328h46.566c1.104,0,2,0.896,2,2v107.75h11.517
	c11.304,0,20.5-9.196,20.5-20.5v-12.5h-5.5c-1.104,0-2-0.896-2-2v-34.75c0-0.006,0-0.012,0-0.017c0-0.006,0-0.012,0-0.018V74.928
	h-1.497c-1.104,0-2-0.896-2-2V59.735c-0.522,0.065-1.047,0.099-1.573,0.099c-7.117,0-12.906-5.79-12.906-12.906
	s5.79-12.906,12.906-12.906s12.906,5.79,12.906,12.906v26c0,1.104-0.896,2-2,2h-1.836v45.052h10.993V40.906h-1.75
	c-1.104,0-2-0.896-2-2v-26C160.371,5.79,166.16,0,173.277,0c7.117,0,12.906,5.79,12.906,12.906s-5.79,12.906-12.906,12.906
	c-0.525,0-1.05-0.033-1.573-0.099v13.192c0,1.104-0.896,2-2,2h-1.583v80.901c0.005,0.057,0.007,0.114,0.007,0.172v34.75
	c0,1.104-0.896,2-2,2h-5.5v12.5c0,13.51-10.991,24.5-24.5,24.5h-12.035C123.727,196.133,123.199,196.387,122.611,196.387z
	 M14.203,192.387h106.408V85.979H14.203V192.387z M153.128,154.729h11v-30.75h-11V154.729z M45.59,81.979h26.456V38.651
	c0-9.283-7.552-16.835-16.835-16.835s-16.836,7.552-16.836,16.835v8.203h5.216c1.104,0,2,0.896,2,2V81.979z M31.158,81.979H41.59
	V50.854H31.158V81.979z M149.631,70.928h3.333v-24c0-4.911-3.995-8.906-8.906-8.906s-8.906,3.995-8.906,8.906
	s3.995,8.906,8.906,8.906c0.978,0,1.959-0.169,2.917-0.501c0.61-0.213,1.287-0.115,1.815,0.26c0.527,0.376,0.84,0.982,0.84,1.63
	V70.928z M164.371,36.906h3.333V23.202c0-0.647,0.313-1.254,0.84-1.63c0.527-0.375,1.204-0.473,1.815-0.26
	c0.957,0.332,1.938,0.5,2.917,0.5c4.911,0,8.906-3.995,8.906-8.906S178.188,4,173.277,4c-4.911,0-8.906,3.995-8.906,8.906V36.906z
	 M67.407,184.782c-25.143,0-45.599-20.455-45.599-45.599s20.456-45.599,45.599-45.599s45.599,20.455,45.599,45.599
	S92.55,184.782,67.407,184.782z M67.407,97.585c-22.938,0-41.599,18.661-41.599,41.599s18.661,41.599,41.599,41.599
	s41.599-18.661,41.599-41.599S90.344,97.585,67.407,97.585z M67.407,171.631c-17.892,0-32.447-14.556-32.447-32.447
	s14.556-32.447,32.447-32.447s32.447,14.556,32.447,32.447S85.299,171.631,67.407,171.631z M67.407,110.736
	c-15.686,0-28.447,12.762-28.447,28.447s12.761,28.447,28.447,28.447s28.447-12.762,28.447-28.447S83.093,110.736,67.407,110.736z
	 M67.407,164.094c-13.736,0-24.911-11.175-24.911-24.91c0-13.736,11.175-24.911,24.911-24.911c1.104,0,2,0.896,2,2s-0.896,2-2,2
	c-11.53,0-20.911,9.381-20.911,20.911s9.38,20.91,20.911,20.91c1.104,0,2,0.896,2,2S68.511,164.094,67.407,164.094z"/>
<g>
</g>
<g>
</g>
<g>
</g>
<g>
</g>
<g>
</g>
<g>
</g>
<g>
</g>
<g>
</g>
<g>
</g>
<g>
</g>
<g>
</g>
<g>
</g>
<g>
</g>
<g>
</g>
<g>
</g>
</svg>
