<?xml version="1.0" encoding="iso-8859-1"?>
<!-- Generator: Adobe Illustrator 17.1.0, SVG Export Plug-In . SVG Version: 6.00 Build 0)  -->
<!DOCTYPE svg PUBLIC "-//W3C//DTD SVG 1.1//EN" "http://www.w3.org/Graphics/SVG/1.1/DTD/svg11.dtd">
<svg version="1.1" id="Capa_1" xmlns="http://www.w3.org/2000/svg" xmlns:xlink="http://www.w3.org/1999/xlink" x="0px" y="0px"
	 viewBox="0 0 196.478 196.478" style="enable-background:new 0 0 196.478 196.478;" xml:space="preserve">
<path d="M51.363,196.383c-0.133,0-0.264,0-0.396-0.001c-13.901-0.104-26.895-5.66-36.587-15.645
	c-19.107-19.685-19.182-51.784-0.166-71.553c9.467-9.843,22.188-15.454,35.821-15.801c4.749-0.121,8.96-2.973,10.99-7.444
	c1.248-2.748,2.973-5.232,5.126-7.385l0.33-0.331c9.824-9.825,25.809-9.825,35.633-0.001l0.985,0.985L156.506,25.8l-1.781-1.781
	c-0.4-0.4-0.612-0.95-0.583-1.515c0.028-0.564,0.295-1.091,0.732-1.449l3.085-2.517l-2.671-2.67c-0.781-0.781-0.781-2.047,0-2.828
	s2.047-0.781,2.828,0l2.957,2.957l4.394-3.584l-2.724-2.724c-0.781-0.781-0.781-2.047,0-2.828c0.781-0.781,2.047-0.781,2.828,0
	l3.011,3.01l4.392-3.584l-2.776-2.777c-0.781-0.781-0.781-2.047,0-2.828c0.781-0.781,2.047-0.781,2.828,0l3.067,3.067
	c3.147-2.394,7.563-2.109,10.381,0.708l5.295,5.295c2.817,2.817,3.102,7.232,0.709,10.381l3.414,3.414
	c0.781,0.781,0.781,2.047,0,2.829s-2.047,0.781-2.828,0l-3.124-3.124l-3.585,4.393l3.357,3.357c0.781,0.781,0.781,2.047,0,2.828
	c-0.781,0.781-2.047,0.781-2.828,0l-3.07-3.07l-3.585,4.393l3.304,3.303c0.781,0.781,0.781,2.047,0,2.828s-2.047,0.781-2.828,0
	l-3.017-3.016l-2.517,3.084c-0.357,0.438-0.884,0.705-1.449,0.733c-0.564,0.028-1.115-0.184-1.515-0.583l-1.782-1.782
	l-53.406,53.407l0.985,0.986c4.759,4.758,7.38,11.085,7.38,17.816c0,6.73-2.621,13.057-7.38,17.816l-0.331,0.331
	c-2.151,2.152-4.636,3.876-7.385,5.125c-4.478,2.034-7.329,6.219-7.443,10.923c-0.32,13.283-5.672,25.774-15.07,35.172
	C78.037,191.033,65.119,196.382,51.363,196.383z M84.298,74.852c-5.429,0-10.856,2.066-14.988,6.198l-0.33,0.331
	c-1.813,1.813-3.264,3.903-4.313,6.212c-2.67,5.877-8.237,9.628-14.531,9.789c-12.574,0.319-24.308,5.495-33.04,14.574
	c-17.538,18.234-17.47,47.839,0.154,65.995c8.939,9.21,20.924,14.335,33.746,14.431c12.829,0.066,24.883-4.846,33.95-13.914
	c8.668-8.669,13.604-20.19,13.9-32.441c0.15-6.25,3.9-11.794,9.787-14.468c2.31-1.05,4.399-2.5,6.211-4.312l0.331-0.331
	c4.003-4.003,6.208-9.326,6.208-14.988s-2.205-10.984-6.208-14.988l0,0l-0.985-0.985l-20.37,20.37
	c-0.005,0.005-0.011,0.011-0.016,0.016l-14.791,14.791c0.197,1.056,0.298,2.138,0.298,3.235c0,4.662-1.815,9.044-5.112,12.341
	c-3.296,3.296-7.679,5.111-12.34,5.111c-1.098,0-2.18-0.101-3.235-0.297l-7.802,7.801l5.048,5.048c0.781,0.781,0.781,2.047,0,2.828
	c-0.781,0.781-2.047,0.781-2.828,0l-11.989-11.988c-0.006-0.006-0.013-0.013-0.019-0.019c-0.007-0.006-0.013-0.013-0.02-0.019
	l-5.496-5.496c-0.01-0.01-0.021-0.02-0.03-0.03c-0.011-0.01-0.021-0.02-0.03-0.03l-6.829-6.83c-0.781-0.781-0.781-2.047,0-2.828
	c0.781-0.781,2.047-0.781,2.828,0l5.445,5.445l7.802-7.801c-0.197-1.056-0.298-2.138-0.298-3.235c0-4.662,1.815-9.044,5.112-12.341
	c3.296-3.296,7.679-5.112,12.341-5.112c1.097,0,2.179,0.101,3.234,0.298l14.781-14.781c0.008-0.009,0.017-0.018,0.025-0.026
	l20.37-20.37l-0.985-0.985C95.154,76.918,89.726,74.852,84.298,74.852z M45.277,153.778l2.718,2.717l6.36-6.361
	c-1.182-0.563-2.303-1.264-3.342-2.091L45.277,153.778z M39.732,148.232l2.717,2.717l5.735-5.735
	c-0.828-1.04-1.527-2.16-2.092-3.343L39.732,148.232z M75.304,134.842l-12.969,12.969c3.414-0.118,6.607-1.503,9.036-3.932
	C73.8,141.45,75.186,138.257,75.304,134.842z M53.866,145.19c1.089,0.808,2.284,1.44,3.552,1.882l17.147-17.147
	c-0.442-1.267-1.074-2.462-1.883-3.552L53.866,145.19z M49.154,138.809c0.442,1.267,1.074,2.462,1.883,3.552l18.816-18.816
	c-1.104-0.816-2.305-1.442-3.558-1.877L49.154,138.809z M61.377,120.929c-3.282,0.116-6.53,1.425-9.03,3.925
	c-2.429,2.429-3.814,5.622-3.933,9.038L61.377,120.929z M75.535,123.52c0.828,1.04,1.528,2.16,2.092,3.342l11.952-11.952
	l-2.718-2.717L75.535,123.52z M69.364,118.6c1.183,0.564,2.303,1.264,3.343,2.092l11.326-11.326l-2.718-2.717L69.364,118.6z
	 M89.69,109.365l2.717,2.717l75.19-75.19l-2.717-2.717L89.69,109.365z M84.144,103.82l2.717,2.717l75.191-75.19l-2.718-2.717
	L84.144,103.82z M166.294,29.932l7.177,7.176l15.734-19.285c1.275-1.563,1.161-3.817-0.265-5.244l-5.295-5.295
	c-1.426-1.426-3.682-1.54-5.243-0.265l-19.285,15.735L166.294,29.932z M51.408,185.958c-22.905,0-41.54-18.635-41.54-41.54
	s18.635-41.54,41.54-41.54c1.104,0,2,0.896,2,2s-0.896,2-2,2c-20.699,0-37.54,16.84-37.54,37.54s16.841,37.54,37.54,37.54
	c1.104,0,2,0.896,2,2S52.512,185.958,51.408,185.958z"/>
<g>
</g>
<g>
</g>
<g>
</g>
<g>
</g>
<g>
</g>
<g>
</g>
<g>
</g>
<g>
</g>
<g>
</g>
<g>
</g>
<g>
</g>
<g>
</g>
<g>
</g>
<g>
</g>
<g>
</g>
</svg>
