<?xml version="1.0" encoding="iso-8859-1"?>
<!-- Generator: Adobe Illustrator 17.1.0, SVG Export Plug-In . SVG Version: 6.00 Build 0)  -->
<!DOCTYPE svg PUBLIC "-//W3C//DTD SVG 1.1//EN" "http://www.w3.org/Graphics/SVG/1.1/DTD/svg11.dtd">
<svg version="1.1" id="Capa_1" xmlns="http://www.w3.org/2000/svg" xmlns:xlink="http://www.w3.org/1999/xlink" x="0px" y="0px"
	 viewBox="0 0 190.094 190.094" style="enable-background:new 0 0 190.094 190.094;" xml:space="preserve">
<path d="M98.379,154.914H65.236c-21.507,0-39.004-17.497-39.004-39.005v-0.336c0-8.476,2.718-16.33,7.328-22.734H4v2.795
	c0,1.104-0.896,2-2,2s-2-0.896-2-2V73.761c0-1.104,0.896-2,2-2s2,0.896,2,2v2.796h55.299v-5.258h-2.716c-1.104,0-2-0.896-2-2
	s0.896-2,2-2h9.433c1.104,0,2,0.896,2,2s-0.896,2-2,2h-2.717v5.318c0.642-0.032,1.288-0.048,1.938-0.048h13.609v-5.271h-2.717
	c-1.104,0-2-0.896-2-2s0.896-2,2-2h9.433c1.104,0,2,0.896,2,2s-0.896,2-2,2h-2.716v5.271h15.546v-5.271h-2.716c-1.104,0-2-0.896-2-2
	s0.896-2,2-2h9.433c1.104,0,2,0.896,2,2s-0.896,2-2,2h-2.717v5.271h7.581c1.09,0,2.245-0.024,3.434-0.072
	c27.403-1.121,52.944-14.468,70.073-36.62l3.033-3.922c0.524-0.676,1.418-0.944,2.229-0.669c0.81,0.276,1.354,1.037,1.354,1.893
	V139.47c0,0.855-0.544,1.616-1.354,1.893c-0.81,0.277-1.705,0.008-2.229-0.669l-3.024-3.911
	c-11.896-15.384-28.321-26.713-46.565-32.441l-0.04,11.948c0.002,0.042,0.004,0.083,0.004,0.125
	C136.882,137.644,119.607,154.914,98.379,154.914z M65.236,80.57c-19.301,0-35.004,15.703-35.004,35.004v0.336
	c0,19.302,15.703,35.005,35.004,35.005h33.143c18.98,0,34.433-15.407,34.506-34.372c-0.002-0.045-0.004-0.09-0.004-0.135
	l0.044-13.224c-4.145-1.101-8.371-1.914-12.648-2.423c-0.991-0.118-1.962-0.221-2.903-0.308v14.863
	c0,11.075-9.01,20.086-20.085,20.086H65.404c-10.841,0-19.661-8.82-19.661-19.661s8.82-19.661,19.661-19.661h44.568
	c1.686,0,3.498,0.068,5.541,0.21c0.031,0.003,0.062,0.004,0.092,0.006c1.62,0.114,3.35,0.279,5.145,0.492
	c25.508,3.036,49.272,16.442,65.344,36.833V43.029c-17.848,22.667-44.229,36.309-72.525,37.465
	c-1.243,0.051-2.453,0.076-3.597,0.076H65.236z M82.845,131.403H97.29c0.37,0,0.737-0.013,1.102-0.037V100.08H82.845V131.403z
	 M63.299,131.262c0.688,0.093,1.392,0.141,2.105,0.141h13.441V100.08H65.404c-0.714,0-1.417,0.048-2.105,0.141V131.262z
	 M102.391,100.08v30.493c6.377-2.138,10.983-8.169,10.983-15.257v-15.147c-1.212-0.06-2.336-0.089-3.402-0.089H102.391z
	 M59.299,101.32c-5.611,2.385-9.555,7.951-9.555,14.422s3.944,12.037,9.555,14.422V101.32z M4,88.839h32.146
	c0.217,0,0.426,0.034,0.622,0.099c3.213-3.432,7.036-6.283,11.296-8.381H4V88.839z M66.016,146.338
	c-17.231,0-31.25-14.019-31.25-31.25s14.019-31.25,31.25-31.25c1.104,0,2,0.896,2,2s-0.896,2-2,2
	c-15.026,0-27.25,12.225-27.25,27.25s12.224,27.25,27.25,27.25c1.104,0,2,0.896,2,2S67.12,146.338,66.016,146.338z"/>
<g>
</g>
<g>
</g>
<g>
</g>
<g>
</g>
<g>
</g>
<g>
</g>
<g>
</g>
<g>
</g>
<g>
</g>
<g>
</g>
<g>
</g>
<g>
</g>
<g>
</g>
<g>
</g>
<g>
</g>
</svg>
