<?xml version="1.0" encoding="iso-8859-1"?>
<!-- Generator: Adobe Illustrator 17.1.0, SVG Export Plug-In . SVG Version: 6.00 Build 0)  -->
<!DOCTYPE svg PUBLIC "-//W3C//DTD SVG 1.1//EN" "http://www.w3.org/Graphics/SVG/1.1/DTD/svg11.dtd">
<svg version="1.1" id="Capa_1" xmlns="http://www.w3.org/2000/svg" xmlns:xlink="http://www.w3.org/1999/xlink" x="0px" y="0px"
	 viewBox="0 0 203.624 203.624" style="enable-background:new 0 0 203.624 203.624;" xml:space="preserve">
<path d="M46.071,203.624c-0.512,0-1.023-0.195-1.414-0.586L6.31,164.69c-8.406-8.405-8.406-22.083,0-30.488L134.196,6.315
	C138.269,2.243,143.683,0,149.441,0c5.758,0,11.172,2.243,15.244,6.315l38.348,38.348c0.375,0.375,0.586,0.884,0.586,1.414
	s-0.211,1.039-0.586,1.414l-16.717,16.717c-0.003,0.003-0.006,0.007-0.01,0.01l-7.42,7.42c-0.003,0.003-0.006,0.006-0.009,0.009
	s-0.006,0.006-0.009,0.009l-7.755,7.755c-0.005,0.005-0.01,0.01-0.015,0.015s-0.01,0.01-0.015,0.015l-38.145,38.145
	c-0.008,0.009-0.017,0.017-0.024,0.024s-0.016,0.017-0.024,0.024l-7.729,7.729c-0.008,0.009-0.017,0.017-0.025,0.025
	s-0.017,0.018-0.025,0.025l-38.127,38.126c-0.01,0.011-0.021,0.021-0.031,0.032s-0.021,0.021-0.032,0.031l-7.714,7.714
	c-0.011,0.012-0.021,0.022-0.032,0.033s-0.021,0.021-0.033,0.032l-31.657,31.657C47.095,203.429,46.583,203.624,46.071,203.624z
	 M149.441,4c-4.69,0-9.101,1.827-12.417,5.144L9.138,137.03c-6.846,6.847-6.846,17.985,0,24.832l36.934,36.934l13.898-13.898
	l-23.496-23.496c-0.781-0.781-0.781-2.047,0-2.828l22.704-22.704c0.012-0.013,0.024-0.025,0.037-0.038s0.025-0.025,0.038-0.037
	l10.215-10.216c0.012-0.013,0.024-0.024,0.037-0.037l9.825-9.824c0.012-0.013,0.024-0.025,0.037-0.038l25.772-25.771
	c0.012-0.013,0.024-0.025,0.037-0.038s0.025-0.025,0.038-0.037l10.215-10.216c0.012-0.013,0.024-0.024,0.037-0.037l9.825-9.824
	c0.012-0.013,0.024-0.025,0.037-0.038l20.742-20.741c0.002-0.002,0.004-0.004,0.006-0.006l5.024-5.024
	c0.012-0.013,0.024-0.025,0.037-0.038s0.025-0.025,0.038-0.037l7.391-7.391c0.781-0.781,2.047-0.781,2.828,0l23.497,23.496
	l13.898-13.898L161.857,9.144C158.541,5.827,154.131,4,149.441,4z M40.716,159.987l22.082,22.082l4.593-4.593l-22.082-22.082
	L40.716,159.987z M48.137,152.566l22.082,22.082l4.714-4.714l-9.627-9.627l-1.296,1.296c-0.781,0.781-2.047,0.781-2.828,0
	l-11.041-11.041L48.137,152.566z M68.135,157.479l9.627,9.627l4.949-4.949l-22.082-22.082l-2.239,2.239l11.041,11.041
	c0.781,0.781,0.781,2.047,0,2.828L68.135,157.479z M63.458,137.245l22.082,22.082l4.714-4.714l-9.627-9.627l-1.297,1.297
	c-0.781,0.781-2.047,0.781-2.828,0l-11.041-11.041L63.458,137.245z M52.969,147.734l9.627,9.627l2.593-2.593l-9.627-9.627
	L52.969,147.734z M83.456,142.158l9.626,9.627l4.95-4.95L75.95,124.753l-2.239,2.24l11.041,11.041
	c0.375,0.375,0.586,0.884,0.586,1.414s-0.211,1.039-0.586,1.414L83.456,142.158z M78.778,121.925l22.082,22.082l4.714-4.714
	l-9.627-9.627l-1.296,1.296c-0.781,0.781-2.047,0.781-2.828,0l-11.041-11.04L78.778,121.925z M68.289,132.414l9.627,9.627
	l2.594-2.593l-9.627-9.627L68.289,132.414z M98.775,126.838l9.627,9.627l4.95-4.95l-22.082-22.082l-2.239,2.239l11.041,11.041
	c0.781,0.781,0.781,2.047,0,2.828L98.775,126.838z M94.099,106.604l22.082,22.082l4.714-4.714l-9.627-9.627l-1.296,1.296
	c-0.781,0.781-2.047,0.781-2.828,0l-11.041-11.041L94.099,106.604z M83.61,117.093l9.627,9.627l2.593-2.593l-9.627-9.627
	L83.61,117.093z M114.097,111.517l9.627,9.627l4.949-4.949l-22.082-22.082l-2.239,2.239l11.041,11.041
	c0.781,0.781,0.781,2.047,0,2.828L114.097,111.517z M109.42,91.283l22.082,22.082l4.714-4.714l-9.627-9.627l-1.297,1.297
	c-0.75,0.75-2.078,0.75-2.828,0L111.423,89.28L109.42,91.283z M98.931,101.772l9.627,9.627l2.593-2.593l-9.627-9.627L98.931,101.772
	z M129.417,96.196l9.627,9.627l4.95-4.95l-22.082-22.082l-2.239,2.24l11.04,11.04c0.781,0.781,0.781,2.047,0,2.828L129.417,96.196z
	 M124.74,75.963l22.082,22.082l4.714-4.714l-9.627-9.627L140.613,85c-0.781,0.781-2.047,0.781-2.828,0l-11.041-11.04L124.74,75.963z
	 M114.251,86.452l9.627,9.627l2.593-2.594l-9.626-9.626L114.251,86.452z M144.737,80.876l9.627,9.627l4.95-4.95l-22.082-22.082
	l-2.239,2.239l11.041,11.041c0.781,0.781,0.781,2.047,0,2.828L144.737,80.876z M140.061,60.643l22.082,22.082l4.715-4.714
	l-9.627-9.627l-1.297,1.296c-0.781,0.781-2.047,0.781-2.828,0l-11.041-11.041L140.061,60.643z M129.572,71.131l9.627,9.627
	l2.593-2.593l-9.627-9.627L129.572,71.131z M160.059,65.556l9.627,9.627l4.95-4.95L152.553,48.15l-2.239,2.239l11.041,11.041
	c0.781,0.781,0.781,2.047,0,2.828L160.059,65.556z M155.382,45.321l22.082,22.083l4.601-4.601l-22.083-22.082L155.382,45.321z
	 M144.893,55.811l9.627,9.627l2.593-2.593l-9.627-9.627L144.893,55.811z M21.783,161.217c-3.473,0-6.737-1.352-9.192-3.808
	c-2.456-2.455-3.808-5.72-3.808-9.192s1.352-6.737,3.808-9.192c5.068-5.068,13.316-5.068,18.385,0
	c5.069,5.068,5.069,13.316,0,18.385C28.521,159.865,25.256,161.217,21.783,161.217z M21.783,139.221
	c-2.305,0-4.609,0.877-6.364,2.632c-3.509,3.51-3.509,9.219,0,12.729c3.51,3.51,9.219,3.51,12.729,0
	c3.509-3.51,3.509-9.219,0-12.729C26.393,140.098,24.088,139.221,21.783,139.221z M49.226,138.331c-0.512,0-1.023-0.195-1.414-0.586
	l-15.557-15.557c-0.781-0.781-0.781-2.047,0-2.828l35.002-35.002c0.781-0.781,2.047-0.781,2.828,0l15.557,15.557
	c0.781,0.781,0.781,2.047,0,2.828L50.64,137.745C50.249,138.136,49.737,138.331,49.226,138.331z M36.497,120.774l12.729,12.729
	l32.174-32.174L68.671,88.601L36.497,120.774z M91.476,96.081c-0.512,0-1.022-0.194-1.413-0.585l-0.547-0.546
	c-0.781-0.78-0.783-2.046-0.002-2.828c0.78-0.783,2.046-0.785,2.828-0.002l0.547,0.546c0.781,0.78,0.783,2.046,0.002,2.828
	C92.5,95.886,91.988,96.081,91.476,96.081z M96.955,90.601c-0.512,0-1.023-0.195-1.414-0.586l-0.546-0.546
	c-0.781-0.781-0.781-2.047,0-2.828s2.047-0.781,2.828,0l0.546,0.546c0.781,0.781,0.781,2.047,0,2.828
	C97.979,90.405,97.467,90.601,96.955,90.601z M83.97,88.576c-0.513,0-1.024-0.195-1.415-0.587l-0.546-0.547
	c-0.781-0.782-0.779-2.048,0.002-2.828c0.782-0.78,2.048-0.78,2.828,0.002l0.546,0.547c0.781,0.782,0.779,2.048-0.002,2.828
	C84.992,88.382,84.481,88.576,83.97,88.576z M89.45,83.096c-0.512,0-1.023-0.195-1.414-0.586l-0.546-0.546
	c-0.781-0.781-0.781-2.047,0-2.828s2.047-0.781,2.828,0l0.546,0.546c0.781,0.781,0.781,2.047,0,2.828
	C90.474,82.9,89.962,83.096,89.45,83.096z M105.264,82.292c-0.512,0-1.023-0.195-1.414-0.586L88.293,66.15
	c-0.781-0.781-0.781-2.047,0-2.828s2.047-0.781,2.828,0l15.557,15.556c0.781,0.781,0.781,2.047,0,2.828
	C106.287,82.097,105.775,82.292,105.264,82.292z M76.465,81.071c-0.513,0-1.024-0.195-1.415-0.587l-0.546-0.547
	c-0.781-0.782-0.779-2.048,0.002-2.828c0.782-0.781,2.048-0.779,2.828,0.002l0.546,0.547c0.781,0.782,0.779,2.048-0.002,2.828
	C77.487,80.877,76.977,81.071,76.465,81.071z M111.745,75.811c-0.512,0-1.023-0.195-1.414-0.586L94.775,59.668
	c-0.781-0.781-0.781-2.047,0-2.828s2.047-0.781,2.828,0l15.556,15.557c0.781,0.781,0.781,2.047,0,2.828
	C112.769,75.615,112.257,75.811,111.745,75.811z M81.945,75.591c-0.512,0-1.022-0.194-1.413-0.585l-0.547-0.546
	c-0.781-0.78-0.783-2.046-0.002-2.828c0.78-0.783,2.046-0.785,2.828-0.002l0.547,0.546c0.781,0.78,0.783,2.046,0.002,2.828
	C82.97,75.396,82.458,75.591,81.945,75.591z M118.228,69.329c-0.512,0-1.023-0.195-1.414-0.586l-15.557-15.557
	c-0.781-0.781-0.781-2.047,0-2.828s2.047-0.781,2.828,0l15.557,15.557c0.781,0.781,0.781,2.047,0,2.828
	C119.251,69.134,118.739,69.329,118.228,69.329z M124.709,62.847c-0.512,0-1.023-0.195-1.414-0.586l-15.557-15.556
	c-0.781-0.781-0.781-2.047,0-2.828s2.047-0.781,2.828,0l15.557,15.556c0.781,0.781,0.781,2.047,0,2.828
	C125.732,62.651,125.221,62.847,124.709,62.847z M131.191,56.365c-0.512,0-1.023-0.195-1.414-0.586l-15.557-15.557
	c-0.781-0.781-0.781-2.047,0-2.828s2.047-0.781,2.828,0l15.557,15.557c0.781,0.781,0.781,2.047,0,2.828
	C132.215,56.17,131.703,56.365,131.191,56.365z M137.673,49.884c-0.512,0-1.023-0.195-1.414-0.586l-15.557-15.557
	c-0.781-0.781-0.781-2.047,0-2.828s2.047-0.781,2.828,0l15.557,15.557c0.781,0.781,0.781,2.047,0,2.828
	C138.696,49.688,138.185,49.884,137.673,49.884z M148.186,34.809c-3.329,0-6.658-1.268-9.192-3.802
	c-5.069-5.068-5.069-13.316,0-18.385c2.455-2.456,5.72-3.808,9.192-3.808s6.737,1.352,9.192,3.808
	c2.456,2.455,3.808,5.72,3.808,9.192s-1.352,6.737-3.808,9.192C154.844,33.541,151.515,34.809,148.186,34.809z M148.186,12.818
	c-2.305,0-4.609,0.877-6.364,2.632c-3.509,3.51-3.509,9.219,0,12.729c3.51,3.51,9.219,3.51,12.729,0
	c3.509-3.51,3.509-9.219,0-12.729C152.795,13.695,150.49,12.818,148.186,12.818z"/>
<g>
</g>
<g>
</g>
<g>
</g>
<g>
</g>
<g>
</g>
<g>
</g>
<g>
</g>
<g>
</g>
<g>
</g>
<g>
</g>
<g>
</g>
<g>
</g>
<g>
</g>
<g>
</g>
<g>
</g>
</svg>
