<?xml version="1.0" encoding="iso-8859-1"?>
<!-- Generator: Adobe Illustrator 17.1.0, SVG Export Plug-In . SVG Version: 6.00 Build 0)  -->
<!DOCTYPE svg PUBLIC "-//W3C//DTD SVG 1.1//EN" "http://www.w3.org/Graphics/SVG/1.1/DTD/svg11.dtd">
<svg version="1.1" id="Capa_1" xmlns="http://www.w3.org/2000/svg" xmlns:xlink="http://www.w3.org/1999/xlink" x="0px" y="0px"
	 viewBox="0 0 214.416 214.416" style="enable-background:new 0 0 214.416 214.416;" xml:space="preserve">
<path d="M91.502,201.973c-0.512,0-1.023-0.195-1.414-0.586l-10.12-10.119c-0.005-0.005-0.011-0.01-0.016-0.016l-2.564-2.564
	c-0.781-0.781-0.781-2.047,0-2.828s2.047-0.781,2.828,0l1.166,1.166l64.958-64.959l-16.619-16.618l-85.134,85.133
	c-4.652,4.653-10.839,7.216-17.419,7.216s-12.766-2.563-17.419-7.216l-2.677-2.677c-9.43-9.429-9.43-24.772,0-34.202l43.551-43.551
	c26.664-26.664,27.385-42.528,28.821-74.135c0.292-6.421,0.623-13.699,1.224-21.723c0.058-0.779,0.565-1.453,1.298-1.726
	c0.734-0.273,1.558-0.093,2.11,0.461l58.743,58.742l2.871-2.871c0.005-0.005,0.01-0.01,0.015-0.015l25.068-25.067
	c4.554-4.555,10.609-7.063,17.051-7.063s12.497,2.509,17.052,7.063l2.062,2.062c9.972,9.972,9.972,26.195,0,36.167L91.671,197.314
	l1.245,1.245c0.781,0.781,0.781,2.047,0,2.828C92.525,201.778,92.014,201.973,91.502,201.973z M86.745,192.388l2.098,2.098
	L204.109,79.219c8.411-8.412,8.411-22.099,0-30.511l-2.062-2.062c-3.8-3.799-8.851-5.892-14.224-5.892
	c-5.372,0-10.424,2.093-14.223,5.892l-60.404,60.404c-0.013,0.013-0.025,0.025-0.038,0.037l-40.596,40.597
	c-0.003,0.002-0.005,0.004-0.007,0.006s-0.004,0.004-0.006,0.007l-34.245,34.244c-6.141,6.143-16.135,6.143-22.275,0
	c-6.142-6.141-6.142-16.134,0-22.276l42.054-42.053c24.818-24.819,36.941-25.98,66.229-28.786l1.605-0.153L139.991,74.6
	L84.351,18.96c-0.411,6.263-0.674,12.033-0.91,17.238c-1.437,31.609-2.229,49.021-29.989,76.782L9.9,156.531
	c-7.869,7.87-7.869,20.676,0,28.546l2.677,2.677c3.897,3.897,9.08,6.044,14.591,6.044c5.512,0,10.693-2.146,14.591-6.044
	l86.514-86.513c0.011-0.012,0.022-0.023,0.034-0.035s0.023-0.023,0.035-0.034l4.493-4.493c0.012-0.013,0.023-0.025,0.036-0.037
	l43.815-43.815c6.141-6.143,16.135-6.143,22.275,0c2.976,2.976,4.614,6.931,4.614,11.139c0,4.207-1.639,8.163-4.614,11.138
	l-48.342,48.342c-0.012,0.013-0.024,0.025-0.037,0.038s-0.025,0.025-0.038,0.037L84.21,189.854L86.745,192.388z M28.994,152.359
	l-10.136,10.135c-4.581,4.583-4.581,12.038,0,16.62c4.582,4.582,12.037,4.582,16.619,0l10.136-10.136L28.994,152.359z
	 M31.822,149.531l16.619,16.619l19.873-19.873l-16.619-16.619L31.822,149.531z M54.523,126.83l16.619,16.619l50.33-50.33
	c-26.714,2.589-37.657,4.419-60.561,27.322L54.523,126.83z M132.55,102.62l16.619,16.619l46.965-46.965
	c2.22-2.22,3.442-5.171,3.442-8.31s-1.223-6.091-3.442-8.311c-4.582-4.582-12.037-4.582-16.619,0l-26.407,26.407l4.928,4.927
	c0.553,0.553,0.733,1.377,0.461,2.109c-0.271,0.733-0.946,1.241-1.726,1.299c-4.418,0.331-8.955,0.836-13.498,1.502L132.55,102.62z
	 M150.279,84.889l-2.353,2.354c1.42-0.171,2.836-0.325,4.243-0.463L150.279,84.889z M86.329,70.461
	c-0.134,0-0.271-0.014-0.407-0.041c-1.081-0.225-1.777-1.282-1.554-2.364c3.045-14.717,3.082-34.792,3.082-34.993
	c0-1.104,0.896-2,2-2l0,0c1.104,0,2,0.896,2,2c0,0.837-0.036,20.681-3.164,35.804C88.09,69.812,87.258,70.461,86.329,70.461z"/>
<g>
</g>
<g>
</g>
<g>
</g>
<g>
</g>
<g>
</g>
<g>
</g>
<g>
</g>
<g>
</g>
<g>
</g>
<g>
</g>
<g>
</g>
<g>
</g>
<g>
</g>
<g>
</g>
<g>
</g>
</svg>
