<?xml version="1.0" encoding="iso-8859-1"?>
<!-- Generator: Adobe Illustrator 17.1.0, SVG Export Plug-In . SVG Version: 6.00 Build 0)  -->
<!DOCTYPE svg PUBLIC "-//W3C//DTD SVG 1.1//EN" "http://www.w3.org/Graphics/SVG/1.1/DTD/svg11.dtd">
<svg version="1.1" id="Capa_1" xmlns="http://www.w3.org/2000/svg" xmlns:xlink="http://www.w3.org/1999/xlink" x="0px" y="0px"
	 viewBox="0 0 206.886 206.886" style="enable-background:new 0 0 206.886 206.886;" xml:space="preserve">
<path d="M52.396,206.886c-8.4,0-16.298-3.271-22.237-9.211c-5.94-5.94-9.211-13.837-9.211-22.237c0-8.4,3.271-16.297,9.211-22.237
	l7.604-7.604l-2.872-2.872c-5.27-5.27-5.443-13.692-0.394-19.173l49.225-53.438c-1.568-2.716-1.303-6.235,0.854-8.692l24.493-27.883
	c1.11-8.494,4.894-16.174,10.967-22.248c15.052-15.052,39.544-15.052,54.596,0c7.292,7.292,11.308,16.986,11.308,27.298
	c0,10.312-4.016,20.006-11.308,27.298c-6.073,6.074-13.754,9.857-22.248,10.968l-27.883,24.492
	c-2.457,2.158-5.976,2.423-8.691,0.854L62.37,151.424c-5.481,5.049-13.903,4.876-19.173-0.394l-2.606-2.606l-7.604,7.604
	c-10.702,10.702-10.702,28.116,0,38.818c5.185,5.184,12.077,8.04,19.409,8.04c7.332,0,14.225-2.855,19.409-8.04l55.149-55.149
	c9.824-9.824,25.81-9.824,35.634,0c9.825,9.824,9.825,25.81,0,35.634l-15.229,15.229c-0.78,0.781-2.047,0.781-2.828,0
	c-0.781-0.781-0.781-2.047,0-2.828l15.229-15.229c4.003-4.004,6.208-9.327,6.208-14.989c0-5.662-2.205-10.985-6.208-14.988
	c-8.264-8.264-21.712-8.265-29.978,0l-55.149,55.149C68.693,203.615,60.796,206.886,52.396,206.886z M42.023,144.2l4.002,4.002
	c3.747,3.746,9.737,3.871,13.635,0.279l54.664-50.353c0.79-0.726,2.011-0.702,2.769,0.057c1.297,1.296,3.39,1.364,4.768,0.154
	l26.997-23.714l-37.563-37.563L87.581,64.06c-1.209,1.377-1.142,3.472,0.154,4.767c0.759,0.759,0.784,1.98,0.057,2.77L37.439,126.26
	c-3.591,3.898-3.468,9.887,0.28,13.635l4.268,4.268c0.006,0.006,0.012,0.012,0.018,0.018
	C42.012,144.188,42.017,144.194,42.023,144.2z M113.148,33.258l39.515,39.515c7.295-1.122,13.889-4.464,19.141-9.716
	c13.493-13.493,13.493-35.447,0-48.94c-13.494-13.493-35.448-13.492-48.94,0C117.612,19.37,114.27,25.964,113.148,33.258z
	 M92.884,101.044c-2.036,0-3.951-0.793-5.391-2.233l-0.383-0.383c-2.972-2.972-2.972-7.808,0-10.78l19.687-19.687
	c2.972-2.972,7.809-2.973,10.78,0l0.383,0.382c2.973,2.973,2.973,7.809,0.001,10.781L98.274,98.81h0
	C96.835,100.25,94.92,101.044,92.884,101.044z M112.187,69.729c-0.928,0-1.855,0.353-2.562,1.06L89.939,90.475
	c-1.413,1.413-1.413,3.711,0,5.124l0.383,0.383c1.369,1.369,3.755,1.369,5.124,0h0l19.687-19.687
	c0.684-0.685,1.061-1.594,1.061-2.562s-0.377-1.877-1.061-2.562l-0.383-0.382C114.043,70.083,113.115,69.729,112.187,69.729z
	 M93.103,94.818c-0.512,0-1.024-0.195-1.414-0.586c-0.781-0.781-0.781-2.047,0-2.828l3.181-3.181c0.78-0.781,2.048-0.781,2.828,0
	c0.781,0.781,0.781,2.047,0,2.828l-3.181,3.181C94.127,94.622,93.615,94.818,93.103,94.818z M164.868,22.684
	c-0.512,0-1.024-0.195-1.414-0.586c-8.99-8.989-23.618-8.991-32.609,0c-0.78,0.781-2.048,0.781-2.828,0
	c-0.781-0.781-0.781-2.047,0-2.828c10.551-10.55,27.717-10.549,38.266,0c0.781,0.781,0.781,2.047,0,2.828
	C165.892,22.489,165.38,22.684,164.868,22.684z"/>
<g>
</g>
<g>
</g>
<g>
</g>
<g>
</g>
<g>
</g>
<g>
</g>
<g>
</g>
<g>
</g>
<g>
</g>
<g>
</g>
<g>
</g>
<g>
</g>
<g>
</g>
<g>
</g>
<g>
</g>
</svg>
