<?xml version="1.0" encoding="iso-8859-1"?>
<!-- Generator: Adobe Illustrator 17.1.0, SVG Export Plug-In . SVG Version: 6.00 Build 0)  -->
<!DOCTYPE svg PUBLIC "-//W3C//DTD SVG 1.1//EN" "http://www.w3.org/Graphics/SVG/1.1/DTD/svg11.dtd">
<svg version="1.1" id="Capa_1" xmlns="http://www.w3.org/2000/svg" xmlns:xlink="http://www.w3.org/1999/xlink" x="0px" y="0px"
	 viewBox="0 0 198.167 198.167" style="enable-background:new 0 0 198.167 198.167;" xml:space="preserve">
<path d="M158.659,198.167c-15.304,0-27.755-12.451-27.755-27.755V30.773C130.904,16.011,118.894,4,104.131,4
	S77.359,16.011,77.359,30.773v138.54c0,15.91-12.944,28.854-28.854,28.854s-28.854-12.943-28.854-28.854V64.363h-2.268
	c-3.465,0-6.284-2.818-6.284-6.283V29.969c0-0.043,0.001-0.085,0.004-0.127c-3.805-3.08-6.241-7.787-6.241-13.053
	C4.862,7.531,12.393,0,21.651,0S38.44,7.531,38.44,16.789c0,5.266-2.437,9.973-6.241,13.053c0.003,0.042,0.004,0.084,0.004,0.127
	v17.718h3.731V31.578c0-1.104,0.896-2,2-2s2,0.896,2,2v18.108c0,1.104-0.896,2-2,2h-5.731v6.394c0,3.465-2.818,6.283-6.283,6.283
	h-2.269v104.95c0,13.704,11.149,24.854,24.854,24.854c13.705,0,24.854-11.149,24.854-24.854V30.773
	C73.359,13.805,87.164,0,104.131,0s30.772,13.805,30.772,30.773v139.639c0,13.099,10.656,23.755,23.755,23.755
	s23.755-10.656,23.755-23.755V64.363h-4.791c-1.104,0-2-0.896-2-2V37.916c0-1.104,0.896-2,2-2h1.32V4.917
	c0-2.711,2.206-4.917,4.917-4.917h1.209c2.711,0,4.916,2.206,4.916,4.917v30.999h1.32c1.104,0,2,0.896,2,2v24.447
	c0,1.104-0.896,2-2,2h-4.892v106.049C186.414,185.716,173.962,198.167,158.659,198.167z M179.623,60.363h9.683V39.916h-9.683V60.363
	z M21.651,60.363h4.269c1.259,0,2.283-1.024,2.283-2.283V32.247c-2.015,0.856-4.229,1.331-6.552,1.331s-4.537-0.475-6.552-1.331
	V58.08c0,1.259,1.024,2.283,2.284,2.283H21.651z M182.943,35.916h3.042v-3.947h-3.042V35.916z M21.651,4
	C14.599,4,8.862,9.737,8.862,16.789s5.737,12.789,12.789,12.789S34.44,23.841,34.44,16.789S28.703,4,21.651,4z M182.943,27.969
	h3.042V15.667h-3.042V27.969z M182.943,11.667h3.042v-6.75c0-0.506-0.411-0.917-0.916-0.917h-1.209
	c-0.506,0-0.917,0.411-0.917,0.917V11.667z"/>
<g>
</g>
<g>
</g>
<g>
</g>
<g>
</g>
<g>
</g>
<g>
</g>
<g>
</g>
<g>
</g>
<g>
</g>
<g>
</g>
<g>
</g>
<g>
</g>
<g>
</g>
<g>
</g>
<g>
</g>
</svg>
