<?xml version="1.0" encoding="iso-8859-1"?>
<!-- Generator: Adobe Illustrator 17.1.0, SVG Export Plug-In . SVG Version: 6.00 Build 0)  -->
<!DOCTYPE svg PUBLIC "-//W3C//DTD SVG 1.1//EN" "http://www.w3.org/Graphics/SVG/1.1/DTD/svg11.dtd">
<svg version="1.1" id="Capa_1" xmlns="http://www.w3.org/2000/svg" xmlns:xlink="http://www.w3.org/1999/xlink" x="0px" y="0px"
	 viewBox="0 0 198.666 198.666" style="enable-background:new 0 0 198.666 198.666;" xml:space="preserve">
<path d="M196.666,177.773H2c-1.104,0-2-0.896-2-2V57.106c0-1.104,0.896-2,2-2h37.458V22.893c0-1.104,0.896-2,2-2h115.75
	c1.104,0,2,0.896,2,2v32.213h37.458c1.104,0,2,0.896,2,2v118.667C198.666,176.877,197.771,177.773,196.666,177.773z M4,173.773
	h190.666v-85.88H4V173.773z M4,83.893h190.666V59.106H4V83.893z M151.166,55.106h4.042V32.56H43.458v22.547H47.5v-5.583
	c0-1.104,0.896-2,2-2h99.666c1.104,0,2,0.896,2,2V55.106z M139.833,55.023h7.333v-3.5h-7.333V55.023z M127,55.023h8.833v-3.5H127
	V55.023z M114.166,55.023H123v-3.5h-8.834V55.023z M101.333,55.023h8.833v-3.5h-8.833V55.023z M88.5,55.023h8.833v-3.5H88.5V55.023z
	 M75.666,55.023H84.5v-3.5h-8.834V55.023z M62.833,55.023h8.833v-3.5h-8.833V55.023z M51.5,55.023h7.333v-3.5H51.5V55.023z
	 M43.458,28.56h111.75v-3.667H43.458V28.56z M155.742,166.122c-18.381,0-33.334-14.953-33.334-33.333
	c0-18.38,14.953-33.333,33.334-33.333c18.38,0,33.333,14.953,33.333,33.333C189.075,151.168,174.122,166.122,155.742,166.122z
	 M155.742,103.455c-16.175,0-29.334,13.159-29.334,29.333s13.159,29.333,29.334,29.333c16.174,0,29.333-13.159,29.333-29.333
	S171.916,103.455,155.742,103.455z M42.924,166.122c-18.38,0-33.333-14.953-33.333-33.333c0-18.38,14.953-33.333,33.333-33.333
	c18.381,0,33.334,14.953,33.334,33.333C76.258,151.168,61.305,166.122,42.924,166.122z M42.924,103.455
	c-16.174,0-29.333,13.159-29.333,29.333s13.159,29.333,29.333,29.333c16.175,0,29.334-13.159,29.334-29.333
	S59.099,103.455,42.924,103.455z M113.944,163.054H84.722c-1.104,0-2-0.896-2-2v-23.667c0-1.104,0.896-2,2-2h29.223
	c1.104,0,2,0.896,2,2v23.667C115.944,162.159,115.049,163.054,113.944,163.054z M86.722,159.054h25.223v-12.13H86.722V159.054z
	 M86.722,142.924h25.223v-3.537H86.722V142.924z M155.742,158.038c-13.923,0-25.25-11.327-25.25-25.25s11.327-25.25,25.25-25.25
	c1.104,0,2,0.896,2,2s-0.896,2-2,2c-11.718,0-21.25,9.533-21.25,21.25s9.532,21.25,21.25,21.25c1.104,0,2,0.896,2,2
	S156.847,158.038,155.742,158.038z M42.924,158.038c-13.923,0-25.25-11.327-25.25-25.25s11.327-25.25,25.25-25.25
	c1.104,0,2,0.896,2,2s-0.896,2-2,2c-11.718,0-21.25,9.533-21.25,21.25s9.532,21.25,21.25,21.25c1.104,0,2,0.896,2,2
	S44.028,158.038,42.924,158.038z M155.742,144.122c-6.25,0-11.334-5.084-11.334-11.333c0-6.249,5.084-11.333,11.334-11.333
	c6.249,0,11.333,5.084,11.333,11.333C167.075,139.038,161.991,144.122,155.742,144.122z M155.742,125.455
	c-4.044,0-7.334,3.29-7.334,7.333c0,4.044,3.29,7.333,7.334,7.333c4.043,0,7.333-3.29,7.333-7.333
	C163.075,128.745,159.785,125.455,155.742,125.455z M42.924,144.122c-6.249,0-11.333-5.084-11.333-11.333
	c0-6.249,5.084-11.333,11.333-11.333c6.25,0,11.334,5.084,11.334,11.333C54.258,139.038,49.174,144.122,42.924,144.122z
	 M42.924,125.455c-4.043,0-7.333,3.29-7.333,7.333c0,4.044,3.29,7.333,7.333,7.333c4.044,0,7.334-3.29,7.334-7.333
	C50.258,128.745,46.968,125.455,42.924,125.455z M113.944,130.189H84.722c-1.104,0-2-0.896-2-2v-23.667c0-1.104,0.896-2,2-2h29.223
	c1.104,0,2,0.896,2,2v23.667C115.944,129.293,115.049,130.189,113.944,130.189z M86.722,126.189h25.223v-3.537H86.722V126.189z
	 M86.722,118.652h25.223v-12.13H86.722V118.652z M180.669,80.795c-5.049,0-9.156-4.107-9.156-9.156s4.107-9.156,9.156-9.156
	c5.048,0,9.155,4.107,9.155,9.156S185.717,80.795,180.669,80.795z M180.669,66.482c-2.843,0-5.156,2.313-5.156,5.156
	s2.313,5.156,5.156,5.156s5.155-2.313,5.155-5.156S183.512,66.482,180.669,66.482z M17.997,80.795c-5.049,0-9.156-4.107-9.156-9.156
	s4.107-9.156,9.156-9.156s9.156,4.107,9.156,9.156S23.046,80.795,17.997,80.795z M17.997,66.482c-2.843,0-5.156,2.313-5.156,5.156
	s2.313,5.156,5.156,5.156s5.156-2.313,5.156-5.156S20.84,66.482,17.997,66.482z M149.166,79.893c-1.104,0-2-0.896-2-2v-9.75h-0.156
	c-1.104,0-2-0.896-2-2s0.896-2,2-2h0.185c0.161-0.943,0.982-1.661,1.972-1.661s1.811,0.718,1.972,1.661h0.185c1.104,0,2,0.896,2,2
	s-0.896,2-2,2h-0.156v9.75C151.166,78.998,150.271,79.893,149.166,79.893z M138.092,79.893c-1.104,0-2-0.896-2-2v-2.813h-0.156
	c-1.104,0-2-0.896-2-2s0.896-2,2-2h0.156v-6.598c0-1.104,0.896-2,2-2s2,0.896,2,2v6.598h0.156c1.104,0,2,0.896,2,2s-0.896,2-2,2
	h-0.156v2.813C140.092,78.998,139.196,79.893,138.092,79.893z M127.018,79.893c-1.105,0-2-0.896-2-2v-7.75h-0.155
	c-1.104,0-2-0.896-2-2s0.896-2,2-2h0.155v-1.661c0-1.104,0.895-2,2-2c1.104,0,2,0.896,2,2v1.661h0.157c1.104,0,2,0.896,2,2
	s-0.896,2-2,2h-0.157v7.75C129.018,78.998,128.122,79.893,127.018,79.893z M115.944,79.893c-1.104,0-2-0.896-2-2V66.956h-0.156
	c-1.104,0-2-0.896-2-2s0.896-2,2-2h0.864c0.697-0.591,1.887-0.591,2.584,0h0.864c1.104,0,2,0.896,2,2s-0.896,2-2,2h-0.156v10.938
	C117.944,78.998,117.049,79.893,115.944,79.893z M104.87,79.893c-1.104,0-2-0.896-2-2h-0.156c-1.104,0-2-0.896-2-2s0.896-2,2-2
	h0.156v-9.411c0-1.104,0.896-2,2-2s2,0.896,2,2v9.411h0.156c1.104,0,2,0.896,2,2s-0.896,2-2,2h-0.156
	C106.87,78.998,105.975,79.893,104.87,79.893z M93.796,79.893c-1.104,0-2-0.896-2-2v-4H91.64c-1.104,0-2-0.896-2-2s0.896-2,2-2
	h0.156v-5.411c0-1.104,0.896-2,2-2s2,0.896,2,2v5.411h0.156c1.104,0,2,0.896,2,2s-0.896,2-2,2h-0.156v4
	C95.796,78.998,94.9,79.893,93.796,79.893z M82.722,79.893c-1.104,0-2-0.896-2-2v-1h-0.156c-1.104,0-2-0.896-2-2s0.896-2,2-2h0.156
	v-8.411c0-1.104,0.896-2,2-2s2,0.896,2,2v8.411h0.156c1.104,0,2,0.896,2,2s-0.896,2-2,2h-0.156v1
	C84.722,78.998,83.826,79.893,82.722,79.893z M71.647,79.893c-0.887,0-1.638-0.577-1.9-1.375h-0.2c-1.104,0-2-0.896-2-2s0.896-2,2-2
	h0.101V64.482c0-1.104,0.896-2,2-2s2,0.896,2,2v10.036h0.212c1.104,0,2,0.896,2,2s-0.896,2-2,2h-0.312
	C73.285,79.316,72.534,79.893,71.647,79.893z M60.573,79.893c-1.104,0-2-0.896-2-2v-7.875h-0.156c-1.104,0-2-0.896-2-2s0.896-2,2-2
	h0.156v-1.536c0-1.104,0.896-2,2-2s2,0.896,2,2v1.536h0.156c1.104,0,2,0.896,2,2s-0.896,2-2,2h-0.156v7.875
	C62.573,78.998,61.678,79.893,60.573,79.893z M49.5,79.893c-1.104,0-2-0.896-2-2v-1.75h-0.156c-1.104,0-2-0.896-2-2s0.896-2,2-2
	H47.5v-7.661c0-1.104,0.896-2,2-2s2,0.896,2,2v7.661h0.156c1.104,0,2,0.896,2,2s-0.896,2-2,2H51.5v1.75
	C51.5,78.998,50.604,79.893,49.5,79.893z"/>
<g>
</g>
<g>
</g>
<g>
</g>
<g>
</g>
<g>
</g>
<g>
</g>
<g>
</g>
<g>
</g>
<g>
</g>
<g>
</g>
<g>
</g>
<g>
</g>
<g>
</g>
<g>
</g>
<g>
</g>
</svg>
