<?xml version="1.0" encoding="iso-8859-1"?>
<!-- Generator: Adobe Illustrator 17.1.0, SVG Export Plug-In . SVG Version: 6.00 Build 0)  -->
<!DOCTYPE svg PUBLIC "-//W3C//DTD SVG 1.1//EN" "http://www.w3.org/Graphics/SVG/1.1/DTD/svg11.dtd">
<svg version="1.1" id="Capa_1" xmlns="http://www.w3.org/2000/svg" xmlns:xlink="http://www.w3.org/1999/xlink" x="0px" y="0px"
	 viewBox="0 0 204.845 204.845" style="enable-background:new 0 0 204.845 204.845;" xml:space="preserve">
<path d="M180.514,198.223h-11.86c-4.689,0-8.504-3.815-8.504-8.504v-51.02c0-4.689,3.815-8.504,8.504-8.504h11.86
	c4.689,0,8.504,3.815,8.504,8.504v23.498c2.082-0.167,3.724-1.913,3.724-4.037v-48.139c0-49.803-40.517-90.32-90.32-90.32
	s-90.32,40.517-90.32,90.32v48.139c0,2.124,1.643,3.87,3.724,4.037v-23.498c0-4.689,3.815-8.504,8.504-8.504h11.86
	c4.689,0,8.504,3.815,8.504,8.504v51.02c0,4.689-3.815,8.504-8.504,8.504h-11.86c-4.689,0-8.504-3.815-8.504-8.504v-15.73h-1.741
	C6.319,173.988,0,167.669,0,159.902v-50.858C0,52.568,45.946,6.622,102.422,6.622s102.422,45.946,102.422,102.422v50.858
	c0,7.767-6.319,14.085-14.086,14.085h-1.741v15.73C189.018,194.408,185.203,198.223,180.514,198.223z M176.584,194.223h3.93
	c2.484,0,4.504-2.021,4.504-4.504v-51.02c0-2.483-2.021-4.504-4.504-4.504h-3.93V194.223z M168.654,134.194
	c-2.483,0-4.504,2.021-4.504,4.504v51.02c0,2.484,2.021,4.504,4.504,4.504h3.93v-60.028H168.654z M32.261,194.223h3.93
	c2.483,0,4.504-2.021,4.504-4.504v-51.02c0-2.483-2.021-4.504-4.504-4.504h-3.93V194.223z M19.827,164.814v24.904
	c0,2.484,2.021,4.504,4.504,4.504h3.93v-60.028h-3.93c-2.484,0-4.504,2.021-4.504,4.504v24.905c0.061,0.191,0.093,0.395,0.093,0.605
	S19.887,164.623,19.827,164.814z M189.018,169.988h1.741c5.562,0,10.086-4.524,10.086-10.085v-50.858
	c0-54.271-44.152-98.422-98.422-98.422S4,54.774,4,109.044v50.858c0,5.561,4.524,10.085,10.086,10.085h1.741v-3.786
	c-4.288-0.171-7.724-3.713-7.724-8.043v-48.139c0-52.008,42.312-94.32,94.32-94.32s94.32,42.312,94.32,94.32v48.139
	c0,4.33-3.436,7.872-7.724,8.043V169.988z"/>
<g>
</g>
<g>
</g>
<g>
</g>
<g>
</g>
<g>
</g>
<g>
</g>
<g>
</g>
<g>
</g>
<g>
</g>
<g>
</g>
<g>
</g>
<g>
</g>
<g>
</g>
<g>
</g>
<g>
</g>
</svg>
