<?xml version="1.0" encoding="iso-8859-1"?>
<!-- Generator: Adobe Illustrator 17.1.0, SVG Export Plug-In . SVG Version: 6.00 Build 0)  -->
<!DOCTYPE svg PUBLIC "-//W3C//DTD SVG 1.1//EN" "http://www.w3.org/Graphics/SVG/1.1/DTD/svg11.dtd">
<svg version="1.1" id="Capa_1" xmlns="http://www.w3.org/2000/svg" xmlns:xlink="http://www.w3.org/1999/xlink" x="0px" y="0px"
	 viewBox="0 0 197.412 197.412" style="enable-background:new 0 0 197.412 197.412;" xml:space="preserve">
<path d="M170.063,185.307H14.38c-5.19,0-9.838-2.684-12.434-7.179s-2.595-9.862,0-14.357L79.788,28.945
	c2.595-4.495,7.243-7.178,12.434-7.178s9.838,2.683,12.434,7.178l24.715,42.809l57.91-57.91c1.121-1.121,2.611-1.738,4.196-1.738
	c1.586,0,3.076,0.617,4.197,1.738c1.12,1.12,1.737,2.61,1.737,4.196c0,1.585-0.617,3.075-1.738,4.195l-60.159,60.159l27.005,46.773
	c0.841,1.457,1.044,3.216,0.557,4.825c-0.487,1.61-1.632,2.962-3.14,3.708c-0.839,0.415-1.775,0.635-2.707,0.635
	c-2.178,0-4.206-1.171-5.295-3.056l-25.367-43.938l-50.402,50.402c0.914,3.776-0.157,7.843-2.889,10.661
	c-2.116,2.182-5.112,3.434-8.22,3.434c0,0,0,0,0,0c-2.949,0-5.728-1.09-7.826-3.068c-2.271-2.141-3.547-5.036-3.593-8.151
	c-0.046-3.118,1.143-6.049,3.347-8.253c2.154-2.154,5.02-3.341,8.07-3.341c0.921,0,1.832,0.109,2.719,0.325l52.649-52.649
	L94.226,35.325c-0.603-1.044-1.602-1.157-2.004-1.157s-1.401,0.113-2.004,1.157L13.258,168.621c-0.603,1.044-0.201,1.967,0,2.314
	c0.201,0.348,0.798,1.157,2.004,1.157h153.919c1.205,0,1.803-0.81,2.004-1.157c0.2-0.348,0.603-1.271,0-2.314l-3.946-6.833
	c-0.841-1.458-1.043-3.217-0.556-4.827c0.487-1.609,1.631-2.96,3.139-3.706c0.839-0.415,1.775-0.635,2.708-0.635
	c2.178,0,4.206,1.172,5.295,3.057l4.673,8.094c2.595,4.495,2.595,9.862-0.001,14.357
	C179.902,182.623,175.254,185.307,170.063,185.307z M92.222,25.767c-3.744,0-7.098,1.936-8.97,5.178L5.41,165.771
	c-1.872,3.243-1.872,7.115,0,10.357c1.872,3.243,5.226,5.179,8.97,5.179h155.683c3.744,0,7.098-1.936,8.97-5.179
	c1.872-3.242,1.872-7.114,0-10.357l-4.673-8.094c-0.538-0.933-1.789-1.319-2.764-0.837c-0.529,0.262-0.914,0.717-1.085,1.28
	c-0.171,0.564-0.103,1.157,0.192,1.669l3.945,6.832c1.142,1.977,1.142,4.337,0,6.314c-1.142,1.977-3.186,3.157-5.468,3.157H15.262
	c-2.283,0-4.327-1.181-5.468-3.157c-1.142-1.978-1.142-4.338,0-6.314L86.754,33.325c1.141-1.977,3.186-3.157,5.468-3.157
	s4.327,1.181,5.468,3.157l25.663,44.447l3.09-3.09l-25.251-43.737C99.319,27.702,95.966,25.767,92.222,25.767z M65.055,137.025
	c-1.981,0-3.843,0.771-5.242,2.169c-1.433,1.434-2.206,3.339-2.176,5.365c0.03,2.025,0.86,3.908,2.337,5.301
	c1.353,1.275,3.157,1.979,5.082,1.979h0c2.032,0,3.98-0.809,5.348-2.219c1.975-2.036,2.612-5.078,1.625-7.751
	c-0.271-0.732-0.09-1.556,0.462-2.107L192.845,19.407c0.365-0.365,0.566-0.851,0.566-1.367c0-0.518-0.201-1.003-0.566-1.368
	c-0.732-0.73-2.004-0.73-2.736,0l-59.57,59.571c-0.053,0.069-0.11,0.136-0.174,0.198l-6.019,6.019
	c-0.063,0.063-0.13,0.122-0.2,0.176l-54.391,54.391c-0.552,0.552-1.375,0.733-2.107,0.462
	C66.817,137.18,65.944,137.025,65.055,137.025z M129.505,88.429l25.894,44.85c0.538,0.932,1.784,1.32,2.765,0.837
	c0.528-0.262,0.914-0.717,1.085-1.281c0.17-0.564,0.102-1.156-0.193-1.667l-26.459-45.829L129.505,88.429z"/>
<g>
</g>
<g>
</g>
<g>
</g>
<g>
</g>
<g>
</g>
<g>
</g>
<g>
</g>
<g>
</g>
<g>
</g>
<g>
</g>
<g>
</g>
<g>
</g>
<g>
</g>
<g>
</g>
<g>
</g>
</svg>
