<?xml version="1.0" encoding="iso-8859-1"?>
<!-- Generator: Adobe Illustrator 17.1.0, SVG Export Plug-In . SVG Version: 6.00 Build 0)  -->
<!DOCTYPE svg PUBLIC "-//W3C//DTD SVG 1.1//EN" "http://www.w3.org/Graphics/SVG/1.1/DTD/svg11.dtd">
<svg version="1.1" id="Capa_1" xmlns="http://www.w3.org/2000/svg" xmlns:xlink="http://www.w3.org/1999/xlink" x="0px" y="0px"
	 viewBox="0 0 211.783 211.783" style="enable-background:new 0 0 211.783 211.783;" xml:space="preserve">
<path d="M197,169.029H14.783C6.632,169.029,0,162.397,0,154.246v-0.13c0-1.104,0.896-2,2-2h12.167V52.66
	c0-5.462,4.289-9.906,9.562-9.906h164.326c5.272,0,9.562,4.444,9.562,9.906v99.456h12.167c1.104,0,2,0.896,2,2v0.13
	C211.783,162.397,205.151,169.029,197,169.029z M4.162,156.116c0.888,5.058,5.313,8.913,10.621,8.913H197
	c5.309,0,9.733-3.855,10.621-8.913H4.162z M18.167,152.116h175.449V52.66c0-3.257-2.495-5.906-5.562-5.906H23.729
	c-3.066,0-5.562,2.649-5.562,5.906V152.116z M186.53,147.159H25.253c-1.104,0-2-0.896-2-2V54.947c0-1.104,0.896-2,2-2H186.53
	c1.104,0,2,0.896,2,2v90.212C188.53,146.264,187.635,147.159,186.53,147.159z M27.253,143.159H184.53V56.947H27.253V143.159z
	 M71.139,141.009c-3.163,0-5.844-2.11-6.706-4.997H36.207c-1.104,0-2-0.896-2-2s0.896-2,2-2h28.226
	c0.862-2.888,3.543-4.998,6.706-4.998c3.164,0,5.845,2.11,6.707,4.998h96.243c1.104,0,2,0.896,2,2s-0.896,2-2,2H77.846
	C76.982,138.898,74.303,141.009,71.139,141.009z M71.139,131.014c-1.652,0-2.997,1.345-2.997,2.998c0,1.652,1.345,2.997,2.997,2.997
	c1.653,0,2.998-1.345,2.998-2.997C74.137,132.358,72.792,131.014,71.139,131.014z M160.933,121.188h-9.227c-1.104,0-2-0.896-2-2
	s0.896-2,2-2h9.227c1.104,0,2,0.896,2,2S162.037,121.188,160.933,121.188z M144.359,121.188h-9.227c-1.104,0-2-0.896-2-2
	s0.896-2,2-2h9.227c1.104,0,2,0.896,2,2S145.464,121.188,144.359,121.188z M127.786,121.188h-9.227c-1.104,0-2-0.896-2-2
	s0.896-2,2-2h9.227c1.104,0,2,0.896,2,2S128.891,121.188,127.786,121.188z M111.213,121.188h-9.227c-1.104,0-2-0.896-2-2
	s0.896-2,2-2h9.227c1.104,0,2,0.896,2,2S112.317,121.188,111.213,121.188z M94.64,121.188h-9.227c-1.104,0-2-0.896-2-2s0.896-2,2-2
	h9.227c1.104,0,2,0.896,2,2S95.744,121.188,94.64,121.188z M78.066,121.188h-9.226c-1.104,0-2-0.896-2-2s0.896-2,2-2h9.226
	c1.104,0,2,0.896,2,2S79.171,121.188,78.066,121.188z M61.493,121.188h-9.226c-1.104,0-2-0.896-2-2s0.896-2,2-2h9.226
	c1.104,0,2,0.896,2,2S62.598,121.188,61.493,121.188z M160.933,114.695h-9.227c-1.104,0-2-0.896-2-2s0.896-2,2-2h9.227
	c1.104,0,2,0.896,2,2S162.037,114.695,160.933,114.695z M127.786,114.695h-9.227c-1.104,0-2-0.896-2-2s0.896-2,2-2h9.227
	c1.104,0,2,0.896,2,2S128.891,114.695,127.786,114.695z M111.213,114.695h-9.227c-1.104,0-2-0.896-2-2s0.896-2,2-2h9.227
	c1.104,0,2,0.896,2,2S112.317,114.695,111.213,114.695z M94.64,114.695h-9.227c-1.104,0-2-0.896-2-2s0.896-2,2-2h9.227
	c1.104,0,2,0.896,2,2S95.744,114.695,94.64,114.695z M78.066,114.695h-9.226c-1.104,0-2-0.896-2-2s0.896-2,2-2h9.226
	c1.104,0,2,0.896,2,2S79.171,114.695,78.066,114.695z M61.493,114.695h-9.226c-1.104,0-2-0.896-2-2s0.896-2,2-2h9.226
	c1.104,0,2,0.896,2,2S62.598,114.695,61.493,114.695z M127.786,108.203h-9.227c-1.104,0-2-0.896-2-2s0.896-2,2-2h9.227
	c1.104,0,2,0.896,2,2S128.891,108.203,127.786,108.203z M111.213,108.203h-9.227c-1.104,0-2-0.896-2-2s0.896-2,2-2h9.227
	c1.104,0,2,0.896,2,2S112.317,108.203,111.213,108.203z M94.64,108.203h-9.227c-1.104,0-2-0.896-2-2s0.896-2,2-2h9.227
	c1.104,0,2,0.896,2,2S95.744,108.203,94.64,108.203z M78.066,108.203h-9.226c-1.104,0-2-0.896-2-2s0.896-2,2-2h9.226
	c1.104,0,2,0.896,2,2S79.171,108.203,78.066,108.203z M61.493,108.203h-9.226c-1.104,0-2-0.896-2-2s0.896-2,2-2h9.226
	c1.104,0,2,0.896,2,2S62.598,108.203,61.493,108.203z M127.786,101.711h-9.227c-1.104,0-2-0.896-2-2s0.896-2,2-2h9.227
	c1.104,0,2,0.896,2,2S128.891,101.711,127.786,101.711z M111.213,101.711h-9.227c-1.104,0-2-0.896-2-2s0.896-2,2-2h9.227
	c1.104,0,2,0.896,2,2S112.317,101.711,111.213,101.711z M94.64,101.711h-9.227c-1.104,0-2-0.896-2-2s0.896-2,2-2h9.227
	c1.104,0,2,0.896,2,2S95.744,101.711,94.64,101.711z M78.066,101.711h-9.226c-1.104,0-2-0.896-2-2s0.896-2,2-2h9.226
	c1.104,0,2,0.896,2,2S79.171,101.711,78.066,101.711z M61.493,101.711h-9.226c-1.104,0-2-0.896-2-2s0.896-2,2-2h9.226
	c1.104,0,2,0.896,2,2S62.598,101.711,61.493,101.711z M127.786,95.218h-9.227c-1.104,0-2-0.896-2-2s0.896-2,2-2h9.227
	c1.104,0,2,0.896,2,2S128.891,95.218,127.786,95.218z M111.213,95.218h-9.227c-1.104,0-2-0.896-2-2s0.896-2,2-2h9.227
	c1.104,0,2,0.896,2,2S112.317,95.218,111.213,95.218z M94.64,95.218h-9.227c-1.104,0-2-0.896-2-2s0.896-2,2-2h9.227
	c1.104,0,2,0.896,2,2S95.744,95.218,94.64,95.218z M78.066,95.218h-9.226c-1.104,0-2-0.896-2-2s0.896-2,2-2h9.226
	c1.104,0,2,0.896,2,2S79.171,95.218,78.066,95.218z M127.786,88.726h-9.227c-1.104,0-2-0.896-2-2s0.896-2,2-2h9.227
	c1.104,0,2,0.896,2,2S128.891,88.726,127.786,88.726z M94.64,88.726h-9.227c-1.104,0-2-0.896-2-2s0.896-2,2-2h9.227
	c1.104,0,2,0.896,2,2S95.744,88.726,94.64,88.726z M78.066,88.726h-9.226c-1.104,0-2-0.896-2-2s0.896-2,2-2h9.226
	c1.104,0,2,0.896,2,2S79.171,88.726,78.066,88.726z M127.786,82.233h-9.227c-1.104,0-2-0.896-2-2s0.896-2,2-2h9.227
	c1.104,0,2,0.896,2,2S128.891,82.233,127.786,82.233z M94.64,82.233h-9.227c-1.104,0-2-0.896-2-2s0.896-2,2-2h9.227
	c1.104,0,2,0.896,2,2S95.744,82.233,94.64,82.233z M78.066,82.233h-9.226c-1.104,0-2-0.896-2-2s0.896-2,2-2h9.226
	c1.104,0,2,0.896,2,2S79.171,82.233,78.066,82.233z M127.786,75.74h-9.227c-1.104,0-2-0.896-2-2s0.896-2,2-2h9.227
	c1.104,0,2,0.896,2,2S128.891,75.74,127.786,75.74z M94.64,75.74h-9.227c-1.104,0-2-0.896-2-2s0.896-2,2-2h9.227
	c1.104,0,2,0.896,2,2S95.744,75.74,94.64,75.74z M94.64,69.248h-9.227c-1.104,0-2-0.896-2-2s0.896-2,2-2h9.227c1.104,0,2,0.896,2,2
	S95.744,69.248,94.64,69.248z"/>
<g>
</g>
<g>
</g>
<g>
</g>
<g>
</g>
<g>
</g>
<g>
</g>
<g>
</g>
<g>
</g>
<g>
</g>
<g>
</g>
<g>
</g>
<g>
</g>
<g>
</g>
<g>
</g>
<g>
</g>
</svg>
