<?xml version="1.0" encoding="iso-8859-1"?>
<!-- Generator: Adobe Illustrator 17.1.0, SVG Export Plug-In . SVG Version: 6.00 Build 0)  -->
<!DOCTYPE svg PUBLIC "-//W3C//DTD SVG 1.1//EN" "http://www.w3.org/Graphics/SVG/1.1/DTD/svg11.dtd">
<svg version="1.1" id="Capa_1" xmlns="http://www.w3.org/2000/svg" xmlns:xlink="http://www.w3.org/1999/xlink" x="0px" y="0px"
	 viewBox="0 0 211.141 211.141" style="enable-background:new 0 0 211.141 211.141;" xml:space="preserve">
<path d="M105.57,211.141C47.358,211.141,0,163.782,0,105.57S47.358,0,105.57,0s105.57,47.358,105.57,105.57
	S163.782,211.141,105.57,211.141z M105.57,4C49.564,4,4,49.564,4,105.57s45.564,101.57,101.57,101.57s101.57-45.564,101.57-101.57
	S161.576,4,105.57,4z M106.271,199.112c-51.579,0-93.542-41.963-93.542-93.542s41.963-93.542,93.542-93.542
	s93.542,41.963,93.542,93.542S157.85,199.112,106.271,199.112z M106.271,16.028c-49.374,0-89.542,40.168-89.542,89.542
	s40.168,89.542,89.542,89.542s89.542-40.168,89.542-89.542S155.645,16.028,106.271,16.028z M106.271,187.311
	c-6.269,0-11.369-5.101-11.369-11.37c0-6.269,5.101-11.369,11.369-11.369c6.27,0,11.37,5.101,11.37,11.369
	C117.641,182.21,112.54,187.311,106.271,187.311z M106.271,168.571c-4.063,0-7.369,3.306-7.369,7.369s3.306,7.37,7.369,7.37
	s7.37-3.307,7.37-7.37S110.334,168.571,106.271,168.571z M88.699,182.176c-0.146,0-0.293-0.016-0.441-0.049
	c-28.314-6.376-50.679-27.731-58.367-55.731c-0.292-1.064,0.334-2.165,1.399-2.458c1.065-0.296,2.165,0.334,2.458,1.399
	c7.296,26.571,28.52,46.837,55.389,52.888c1.077,0.243,1.754,1.313,1.512,2.391C90.439,181.545,89.613,182.176,88.699,182.176z
	 M106.271,151.268c-25.197,0-45.697-20.5-45.697-45.697c0-25.198,20.5-45.698,45.697-45.698c25.198,0,45.698,20.5,45.698,45.698
	C151.969,130.768,131.469,151.268,106.271,151.268z M106.271,63.872c-22.992,0-41.697,18.706-41.697,41.698
	s18.705,41.697,41.697,41.697s41.698-18.705,41.698-41.697S129.263,63.872,106.271,63.872z M91.815,128.565
	c-0.346,0-0.69-0.089-1-0.268c-0.619-0.357-1-1.018-1-1.732V84.574c0-0.715,0.381-1.375,1-1.732s1.381-0.357,2,0l36.364,20.996
	c0.619,0.357,1,1.018,1,1.732s-0.381,1.375-1,1.732l-36.364,20.995C92.506,128.477,92.161,128.565,91.815,128.565z M93.815,88.038
	v35.063l30.364-17.531L93.815,88.038z M169.663,118.345c-0.346,0-0.69-0.089-1-0.268c-0.619-0.357-1-1.018-1-1.732v-1.924
	l-6.331,3.656c-0.619,0.357-1.381,0.357-2,0s-1-1.018-1-1.732v-21.55c0-0.715,0.381-1.375,1-1.732s1.381-0.357,2,0l6.331,3.656
	v-1.924c0-0.715,0.381-1.375,1-1.732s1.381-0.357,2,0l18.663,10.775c0.619,0.357,1,1.018,1,1.732s-0.381,1.375-1,1.732
	l-18.663,10.774C170.354,118.256,170.009,118.345,169.663,118.345z M169.663,108.957c0.346,0,0.69,0.089,1,0.268
	c0.619,0.357,1,1.018,1,1.732v1.924l12.663-7.311l-12.663-7.312v1.924c0,0.715-0.381,1.375-1,1.732s-1.381,0.357-2,0l-6.331-3.656
	v14.622l6.331-3.656C168.973,109.046,169.317,108.957,169.663,108.957z M51.64,118.345c-0.346,0-0.69-0.089-1-0.268l-6.331-3.656
	v1.924c0,0.715-0.381,1.375-1,1.732s-1.381,0.357-2,0l-18.662-10.775c-0.619-0.357-1-1.018-1-1.732s0.381-1.375,1-1.732
	l18.662-10.774c0.619-0.357,1.381-0.357,2,0s1,1.018,1,1.732v1.924l6.331-3.656c0.619-0.357,1.381-0.357,2,0s1,1.018,1,1.732v21.55
	c0,0.715-0.381,1.375-1,1.732C52.33,118.256,51.985,118.345,51.64,118.345z M27.646,105.569l12.662,7.312v-1.924
	c0-0.715,0.381-1.375,1-1.732s1.381-0.357,2,0l6.331,3.656V98.259l-6.331,3.656c-0.619,0.357-1.381,0.357-2,0s-1-1.018-1-1.732
	v-1.924L27.646,105.569z M32.017,86.574c-0.182,0-0.366-0.025-0.549-0.077c-1.063-0.303-1.679-1.409-1.376-2.472
	c7.839-27.511,30.021-48.566,57.89-54.949c1.074-0.249,2.149,0.426,2.396,1.503c0.247,1.076-0.426,2.149-1.503,2.396
	c-26.446,6.058-47.497,26.039-54.935,52.146C33.688,86,32.888,86.574,32.017,86.574z M115.72,48.881H96.821c-1.104,0-2-0.896-2-2
	V27.982c0-1.104,0.896-2,2-2h18.898c1.104,0,2,0.896,2,2v18.898C117.72,47.985,116.824,48.881,115.72,48.881z M98.821,44.881h14.898
	V29.982H98.821V44.881z"/>
<g>
</g>
<g>
</g>
<g>
</g>
<g>
</g>
<g>
</g>
<g>
</g>
<g>
</g>
<g>
</g>
<g>
</g>
<g>
</g>
<g>
</g>
<g>
</g>
<g>
</g>
<g>
</g>
<g>
</g>
</svg>
