<?xml version="1.0" encoding="iso-8859-1"?>
<!-- Generator: Adobe Illustrator 17.1.0, SVG Export Plug-In . SVG Version: 6.00 Build 0)  -->
<!DOCTYPE svg PUBLIC "-//W3C//DTD SVG 1.1//EN" "http://www.w3.org/Graphics/SVG/1.1/DTD/svg11.dtd">
<svg version="1.1" id="Capa_1" xmlns="http://www.w3.org/2000/svg" xmlns:xlink="http://www.w3.org/1999/xlink" x="0px" y="0px"
	 viewBox="0 0 213.759 213.759" style="enable-background:new 0 0 213.759 213.759;" xml:space="preserve">
<path d="M51.931,193.573c-8.958,0-16.246-7.288-16.246-16.246s7.288-16.246,16.246-16.246c4.881,0,9.266,2.164,12.246,5.581v-54.718
	c-0.001-0.025-0.001-0.051,0-0.077V96.366c0-0.954,0.675-1.776,1.61-1.962l71.561-14.198c0.589-0.117,1.195,0.036,1.659,0.416
	c0.462,0.38,0.73,0.947,0.73,1.546v15.507c0.001,0.025,0.001,0.051,0,0.077v61.888c0,8.958-7.288,16.246-16.246,16.246
	s-16.246-7.288-16.246-16.246s7.288-16.246,16.246-16.246c4.881,0,9.266,2.164,12.246,5.581v-48.828L68.177,113.55v63.776
	C68.177,186.285,60.889,193.573,51.931,193.573z M51.931,165.081c-6.753,0-12.246,5.493-12.246,12.246s5.493,12.246,12.246,12.246
	s12.246-5.493,12.246-12.246S58.684,165.081,51.931,165.081z M123.491,147.393c-6.753,0-12.246,5.493-12.246,12.246
	s5.493,12.246,12.246,12.246s12.246-5.493,12.246-12.246S130.244,147.393,123.491,147.393z M68.177,98.008v11.464l67.561-13.404
	V84.603L68.177,98.008z M165.867,139.638h-17.792c-1.104,0-2-0.896-2-2s0.896-2,2-2h17.792c24.202,0,43.892-19.69,43.892-43.893
	c0-24.201-19.689-43.891-43.892-43.891c-6.224,0-12.254,1.288-17.922,3.827c-0.914,0.411-1.998,0.077-2.524-0.782
	C135.2,34.172,117.412,24.186,97.838,24.186c-27.979,0-51.735,20.906-55.26,48.63c-0.069,0.544-0.358,1.035-0.801,1.36
	c-0.441,0.324-0.994,0.45-1.536,0.356c-1.816-0.325-3.648-0.49-5.443-0.49C17.815,74.042,4,87.858,4,104.84
	s13.815,30.798,30.798,30.798h19.611c1.104,0,2,0.896,2,2s-0.896,2-2,2H34.798C15.61,139.638,0,124.028,0,104.84
	s15.61-34.798,34.798-34.798c1.356,0,2.73,0.083,4.104,0.247c4.65-28.704,29.633-50.104,58.936-50.104
	c20.401,0,38.991,10.119,50.072,27.163c5.717-2.319,11.748-3.494,17.957-3.494c26.407,0,47.892,21.483,47.892,47.891
	C213.759,118.154,192.274,139.638,165.867,139.638z M33.774,129.659c-13.702,0-24.85-11.147-24.85-24.85s11.147-24.85,24.85-24.85
	H48.6v-0.125c0-27.057,22.012-49.068,49.068-49.068c1.104,0,2,0.896,2,2s-0.896,2-2,2c-24.851,0-45.068,20.218-45.068,45.068v2.125
	c0,1.104-0.896,2-2,2H33.774c-11.496,0-20.85,9.354-20.85,20.85s9.354,20.85,20.85,20.85c1.104,0,2,0.896,2,2
	S34.879,129.659,33.774,129.659z"/>
<g>
</g>
<g>
</g>
<g>
</g>
<g>
</g>
<g>
</g>
<g>
</g>
<g>
</g>
<g>
</g>
<g>
</g>
<g>
</g>
<g>
</g>
<g>
</g>
<g>
</g>
<g>
</g>
<g>
</g>
</svg>
