<?xml version="1.0" encoding="iso-8859-1"?>
<!-- Generator: Adobe Illustrator 17.1.0, SVG Export Plug-In . SVG Version: 6.00 Build 0)  -->
<!DOCTYPE svg PUBLIC "-//W3C//DTD SVG 1.1//EN" "http://www.w3.org/Graphics/SVG/1.1/DTD/svg11.dtd">
<svg version="1.1" id="Capa_1" xmlns="http://www.w3.org/2000/svg" xmlns:xlink="http://www.w3.org/1999/xlink" x="0px" y="0px"
	 viewBox="0 0 197.5 197.5" style="enable-background:new 0 0 197.5 197.5;" xml:space="preserve">
<path d="M195.5,180.557H155c-1.104,0-2-0.896-2-2v-12.5c0-1.104,0.896-2,2-2h40.5c1.104,0,2,0.896,2,2v12.5
	C197.5,179.661,196.604,180.557,195.5,180.557z M157,176.557h36.5v-8.5H157V176.557z M144.5,180.557H104c-1.104,0-2-0.896-2-2v-12.5
	c0-1.104,0.896-2,2-2h40.5c1.104,0,2,0.896,2,2v12.5C146.5,179.661,145.604,180.557,144.5,180.557z M106,176.557h36.5v-8.5H106
	V176.557z M93.5,180.557H53c-1.104,0-2-0.896-2-2v-12.5c0-1.104,0.896-2,2-2h40.5c1.104,0,2,0.896,2,2v12.5
	C95.5,179.661,94.604,180.557,93.5,180.557z M55,176.557h36.5v-8.5H55V176.557z M42.5,180.557H2c-1.104,0-2-0.896-2-2v-12.5
	c0-1.104,0.896-2,2-2h40.5c1.104,0,2,0.896,2,2v12.5C44.5,179.661,43.604,180.557,42.5,180.557z M4,176.557h36.5v-8.5H4V176.557z
	 M195.5,159.54H155c-1.104,0-2-0.896-2-2v-12.5c0-1.104,0.896-2,2-2h40.5c1.104,0,2,0.896,2,2v12.5
	C197.5,158.645,196.604,159.54,195.5,159.54z M157,155.54h36.5v-8.5H157V155.54z M144.5,159.54H104c-1.104,0-2-0.896-2-2v-12.5
	c0-1.104,0.896-2,2-2h40.5c1.104,0,2,0.896,2,2v12.5C146.5,158.645,145.604,159.54,144.5,159.54z M106,155.54h36.5v-8.5H106V155.54z
	 M93.5,159.54H53c-1.104,0-2-0.896-2-2v-12.5c0-1.104,0.896-2,2-2h40.5c1.104,0,2,0.896,2,2v12.5
	C95.5,158.645,94.604,159.54,93.5,159.54z M55,155.54h36.5v-8.5H55V155.54z M42.5,159.54H2c-1.104,0-2-0.896-2-2v-12.5
	c0-1.104,0.896-2,2-2h40.5c1.104,0,2,0.896,2,2v12.5C44.5,158.645,43.604,159.54,42.5,159.54z M4,155.54h36.5v-8.5H4V155.54z
	 M195.5,138.523H155c-1.104,0-2-0.896-2-2v-12.5c0-1.104,0.896-2,2-2h40.5c1.104,0,2,0.896,2,2v12.5
	C197.5,137.628,196.604,138.523,195.5,138.523z M157,134.523h36.5v-8.5H157V134.523z M144.5,138.523H104c-1.104,0-2-0.896-2-2v-12.5
	c0-1.104,0.896-2,2-2h40.5c1.104,0,2,0.896,2,2v12.5C146.5,137.628,145.604,138.523,144.5,138.523z M106,134.523h36.5v-8.5H106
	V134.523z M93.5,138.523H53c-1.104,0-2-0.896-2-2v-12.5c0-1.104,0.896-2,2-2h40.5c1.104,0,2,0.896,2,2v12.5
	C95.5,137.628,94.604,138.523,93.5,138.523z M55,134.523h36.5v-8.5H55V134.523z M195.5,117.508H155c-1.104,0-2-0.896-2-2v-12.5
	c0-1.104,0.896-2,2-2h40.5c1.104,0,2,0.896,2,2v12.5C197.5,116.612,196.604,117.508,195.5,117.508z M157,113.508h36.5v-8.5H157
	V113.508z M144.5,117.508H104c-1.104,0-2-0.896-2-2v-12.5c0-1.104,0.896-2,2-2h40.5c1.104,0,2,0.896,2,2v12.5
	C146.5,116.612,145.604,117.508,144.5,117.508z M106,113.508h36.5v-8.5H106V113.508z M93.5,117.508H53c-1.104,0-2-0.896-2-2v-12.5
	c0-1.104,0.896-2,2-2h40.5c1.104,0,2,0.896,2,2v12.5C95.5,116.612,94.604,117.508,93.5,117.508z M55,113.508h36.5v-8.5H55V113.508z
	 M195.5,96.491H155c-1.104,0-2-0.896-2-2v-12.5c0-1.104,0.896-2,2-2h40.5c1.104,0,2,0.896,2,2v12.5
	C197.5,95.596,196.604,96.491,195.5,96.491z M157,92.491h36.5v-8.5H157V92.491z M144.5,96.491H104c-1.104,0-2-0.896-2-2v-12.5
	c0-1.104,0.896-2,2-2h40.5c1.104,0,2,0.896,2,2v12.5C146.5,95.596,145.604,96.491,144.5,96.491z M106,92.491h36.5v-8.5H106V92.491z
	 M93.5,96.491H53c-1.104,0-2-0.896-2-2v-12.5c0-1.104,0.896-2,2-2h40.5c1.104,0,2,0.896,2,2v12.5
	C95.5,95.596,94.604,96.491,93.5,96.491z M55,92.491h36.5v-8.5H55V92.491z M195.5,75.476H155c-1.104,0-2-0.896-2-2v-12.5
	c0-1.104,0.896-2,2-2h40.5c1.104,0,2,0.896,2,2v12.5C197.5,74.58,196.604,75.476,195.5,75.476z M157,71.476h36.5v-8.5H157V71.476z
	 M144.5,75.476H104c-1.104,0-2-0.896-2-2v-12.5c0-1.104,0.896-2,2-2h40.5c1.104,0,2,0.896,2,2v12.5
	C146.5,74.58,145.604,75.476,144.5,75.476z M106,71.476h36.5v-8.5H106V71.476z M93.5,75.476H53c-1.104,0-2-0.896-2-2v-12.5
	c0-1.104,0.896-2,2-2h40.5c1.104,0,2,0.896,2,2v12.5C95.5,74.58,94.604,75.476,93.5,75.476z M55,71.476h36.5v-8.5H55V71.476z
	 M144.5,54.459H104c-1.104,0-2-0.896-2-2v-12.5c0-1.104,0.896-2,2-2h40.5c1.104,0,2,0.896,2,2v12.5
	C146.5,53.563,145.604,54.459,144.5,54.459z M106,50.459h36.5v-8.5H106V50.459z M93.5,54.459H53c-1.104,0-2-0.896-2-2v-12.5
	c0-1.104,0.896-2,2-2h40.5c1.104,0,2,0.896,2,2v12.5C95.5,53.563,94.604,54.459,93.5,54.459z M55,50.459h36.5v-8.5H55V50.459z
	 M144.5,33.443H104c-1.104,0-2-0.896-2-2v-12.5c0-1.104,0.896-2,2-2h40.5c1.104,0,2,0.896,2,2v12.5
	C146.5,32.548,145.604,33.443,144.5,33.443z M106,29.443h36.5v-8.5H106V29.443z"/>
<g>
</g>
<g>
</g>
<g>
</g>
<g>
</g>
<g>
</g>
<g>
</g>
<g>
</g>
<g>
</g>
<g>
</g>
<g>
</g>
<g>
</g>
<g>
</g>
<g>
</g>
<g>
</g>
<g>
</g>
</svg>
