<?xml version="1.0" encoding="iso-8859-1"?>
<!-- Generator: Adobe Illustrator 17.1.0, SVG Export Plug-In . SVG Version: 6.00 Build 0)  -->
<!DOCTYPE svg PUBLIC "-//W3C//DTD SVG 1.1//EN" "http://www.w3.org/Graphics/SVG/1.1/DTD/svg11.dtd">
<svg version="1.1" id="Capa_1" xmlns="http://www.w3.org/2000/svg" xmlns:xlink="http://www.w3.org/1999/xlink" x="0px" y="0px"
	 viewBox="0 0 217.333 217.333" style="enable-background:new 0 0 217.333 217.333;" xml:space="preserve">
<path d="M202.03,170.901h-17.993c-1.104,0-2-0.896-2-2v-6.971H36.386v6.971c0,1.104-0.896,2-2,2H16.393c-1.104,0-2-0.896-2-2v-6.971
	H9.886c-5.451,0-9.886-4.436-9.886-9.887v-35.49c0-5.451,4.435-9.887,9.886-9.887h4.507v-4.971H9.886
	C4.435,101.696,0,97.26,0,91.809v-35.49c0-5.451,4.435-9.886,9.886-9.886h197.561c5.451,0,9.887,4.435,9.887,9.886v35.49
	c0,5.451-4.436,9.887-9.887,9.887h-3.417v4.971h3.417c5.451,0,9.887,4.436,9.887,9.887v35.49c0,5.451-4.436,9.887-9.887,9.887
	h-3.417v6.971C204.03,170.005,203.134,170.901,202.03,170.901z M186.037,166.901h13.993v-4.971h-13.993V166.901z M18.393,166.901
	h13.993v-4.971H18.393V166.901z M202.03,157.93h5.417c3.246,0,5.887-2.641,5.887-5.887v-35.49c0-3.246-2.641-5.887-5.887-5.887
	H9.886c-3.246,0-5.886,2.641-5.886,5.887v35.49c0,3.246,2.641,5.887,5.886,5.887H202.03z M186.037,106.666h13.993v-4.971h-13.993
	V106.666z M36.386,106.666h145.65v-4.971H36.386V106.666z M18.393,106.666h13.993v-4.971H18.393V106.666z M202.03,97.696h5.417
	c3.246,0,5.887-2.641,5.887-5.887v-35.49c0-3.245-2.641-5.886-5.887-5.886H9.886C6.641,50.433,4,53.073,4,56.319v35.49
	c0,3.246,2.641,5.887,5.886,5.887H202.03z M131.538,151.282H16.393c-1.104,0-2-0.896-2-2v-5.475c0-0.03,0-0.061,0-0.09v-24.799
	c0-1.104,0.896-2,2-2h115.145c1.104,0,2,0.896,2,2v24.819c0,0.016,0,0.031,0,0.048v5.496
	C133.538,150.387,132.642,151.282,131.538,151.282z M18.393,147.282h111.145v-2.153c-5.15-1.924-26.165-9.028-55.572-9.028
	c-29.457,0-50.43,7.103-55.572,9.027V147.282z M18.393,120.919v19.94c5.257-1.88,17.646-5.747,35.083-7.65l-0.917-7.542
	c-0.133-1.096,0.647-2.093,1.744-2.227c1.097-0.127,2.093,0.647,2.227,1.744l0.929,7.633c5.129-0.448,10.645-0.717,16.507-0.717
	c28.181,0,48.44,6.209,55.572,8.759v-19.94H18.393z M190.693,147.635c-7.354,0-13.338-5.983-13.338-13.337
	s5.983-13.337,13.338-13.337s13.337,5.983,13.337,13.337S198.047,147.635,190.693,147.635z M188.693,125.177
	c-4.191,0.918-7.338,4.659-7.338,9.121c0,5.148,4.188,9.337,9.338,9.337c5.148,0,9.337-4.188,9.337-9.337
	c0-4.462-3.146-8.203-7.337-9.121v2.565c0,1.104-0.896,2-2,2s-2-0.896-2-2V125.177z M156.419,147.635
	c-7.354,0-13.337-5.983-13.337-13.337s5.983-13.337,13.337-13.337c7.354,0,13.337,5.983,13.337,13.337
	S163.774,147.635,156.419,147.635z M156.419,124.961c-5.148,0-9.337,4.188-9.337,9.337s4.188,9.337,9.337,9.337
	s9.337-4.188,9.337-9.337c0-1.024-0.166-2.011-0.472-2.934l-2.345,1.622c-0.911,0.627-2.154,0.4-2.783-0.508
	c-0.628-0.909-0.4-2.154,0.508-2.783l2.568-1.775C161.528,126.1,159.104,124.961,156.419,124.961z M202.03,90.26
	c-1.104,0-2-0.896-2-2V77.296h-1.757c-1.104,0-2-0.896-2-2s0.896-2,2-2h1.757V60.459c0-1.104,0.896-2,2-2s2,0.896,2,2v12.837h1.756
	c1.104,0,2,0.896,2,2s-0.896,2-2,2h-1.756V88.26C204.03,89.365,203.134,90.26,202.03,90.26z M187.792,90.26c-1.104,0-2-0.896-2-2
	v-6.084h-1.756c-1.104,0-2-0.896-2-2s0.896-2,2-2h1.756V60.459c0-1.104,0.896-2,2-2s2,0.896,2,2v17.717h1.757c1.104,0,2,0.896,2,2
	s-0.896,2-2,2h-1.757v6.084C189.792,89.365,188.897,90.26,187.792,90.26z M173.556,90.26c-1.104,0-2-0.896-2-2V69.705h-1.757
	c-1.104,0-2-0.896-2-2s0.896-2,2-2h1.757v-5.246c0-1.104,0.896-2,2-2s2,0.896,2,2v5.246h1.757c1.104,0,2,0.896,2,2s-0.896,2-2,2
	h-1.757V88.26C175.556,89.365,174.661,90.26,173.556,90.26z M159.319,90.26c-1.104,0-2-0.896-2-2V76.557h-1.756
	c-1.104,0-2-0.896-2-2s0.896-2,2-2h1.756V60.459c0-1.104,0.896-2,2-2s2,0.896,2,2v12.098h1.757c1.104,0,2,0.896,2,2s-0.896,2-2,2
	h-1.757V88.26C161.319,89.365,160.423,90.26,159.319,90.26z M145.083,90.26c-1.104,0-2-0.896-2-2V65.663h-1.757
	c-1.104,0-2-0.896-2-2s0.896-2,2-2h1.757v-1.204c0-1.104,0.896-2,2-2s2,0.896,2,2v1.204h1.757c1.104,0,2,0.896,2,2s-0.896,2-2,2
	h-1.757V88.26C147.083,89.365,146.187,90.26,145.083,90.26z M131.538,90.26H16.393c-1.104,0-2-0.896-2-2V71.796c0-1.104,0.896-2,2-2
	h115.145c1.104,0,2,0.896,2,2V88.26C133.538,89.365,132.642,90.26,131.538,90.26z M18.393,86.26h111.145V73.796H18.393V86.26z
	 M131.538,62.459H16.393c-1.104,0-2-0.896-2-2s0.896-2,2-2h115.145c1.104,0,2,0.896,2,2S132.642,62.459,131.538,62.459z"/>
<g>
</g>
<g>
</g>
<g>
</g>
<g>
</g>
<g>
</g>
<g>
</g>
<g>
</g>
<g>
</g>
<g>
</g>
<g>
</g>
<g>
</g>
<g>
</g>
<g>
</g>
<g>
</g>
<g>
</g>
</svg>
