<?xml version="1.0" encoding="iso-8859-1"?>
<!-- Generator: Adobe Illustrator 17.1.0, SVG Export Plug-In . SVG Version: 6.00 Build 0)  -->
<!DOCTYPE svg PUBLIC "-//W3C//DTD SVG 1.1//EN" "http://www.w3.org/Graphics/SVG/1.1/DTD/svg11.dtd">
<svg version="1.1" id="Capa_1" xmlns="http://www.w3.org/2000/svg" xmlns:xlink="http://www.w3.org/1999/xlink" x="0px" y="0px"
	 viewBox="0 0 206 206" style="enable-background:new 0 0 206 206;" xml:space="preserve">
<path d="M181.583,174.098H24.416C10.953,174.098,0,163.145,0,149.682v-24.514c0-33.911,27.589-61.5,61.5-61.5h1.489v-8.95
	c0-12.58,10.235-22.815,22.815-22.815h34.391c12.58,0,22.815,10.235,22.815,22.815v8.95h1.489c33.911,0,61.5,27.589,61.5,61.5
	v24.514C206,163.145,195.047,174.098,181.583,174.098z M4,144.114v5.567c0,11.258,9.158,20.416,20.416,20.416h157.167
	c11.258,0,20.417-9.158,20.417-20.416v-5.567h-15.93c-19.352,0-37.222-10.517-46.636-27.445c-3.24-5.825-3.146-12.754,0.252-18.533
	c3.443-5.854,9.542-9.349,16.316-9.349h32.993c-10.554-12.885-26.58-21.119-44.496-21.119h-9.717
	c-1.422,5.383-7.676,21.358-31.783,21.358S72.638,73.051,71.216,67.668H61.5c-17.916,0-33.942,8.234-44.496,21.119h32.992
	c6.774,0,12.873,3.495,16.316,9.349c3.398,5.779,3.492,12.708,0.252,18.533c-9.414,16.929-27.284,27.445-46.636,27.445H4z
	 M156.003,92.787c-5.341,0-10.151,2.758-12.868,7.377c-2.672,4.544-2.748,9.987-0.204,14.562
	c8.709,15.66,25.239,25.389,43.14,25.389H202v-14.946c0-12-3.694-23.152-10.007-32.381H156.003z M4,140.114h15.929
	c17.9,0,34.431-9.729,43.14-25.389c2.544-4.574,2.468-10.018-0.204-14.562c-2.717-4.619-7.527-7.377-12.868-7.377H14.007
	C7.694,102.016,4,113.168,4,125.168V140.114z M75.329,67.668c1.551,5.176,7.36,17.358,27.671,17.358
	c20.307,0,26.117-12.178,27.67-17.358H75.329z M133.177,63.668h5.834v-8.95c0-10.375-8.44-18.815-18.815-18.815H85.805
	c-10.375,0-18.815,8.44-18.815,18.815v8.95H133.177z M148.069,164.867H57.93c-1.104,0-2-0.896-2-2v-9.412c0-1.104,0.896-2,2-2h90.14
	c1.104,0,2,0.896,2,2v9.412C150.069,163.972,149.174,164.867,148.069,164.867z M138.033,160.867h8.036v-5.412h-8.036V160.867z
	 M124.819,160.867h9.214v-5.412h-9.214V160.867z M111.606,160.867h9.213v-5.412h-9.213V160.867z M98.393,160.867h9.214v-5.412
	h-9.214V160.867z M85.18,160.867h9.213v-5.412H85.18V160.867z M71.967,160.867h9.213v-5.412h-9.213V160.867z M59.93,160.867h8.037
	v-5.412H59.93V160.867z M126.061,145.299c-5.31,0-9.63-4.319-9.63-9.629s4.32-9.63,9.63-9.63s9.629,4.32,9.629,9.63
	S131.37,145.299,126.061,145.299z M123.807,140.828c0.69,0.303,1.453,0.471,2.254,0.471c3.104,0,5.629-2.525,5.629-5.629
	c0-3.104-2.525-5.63-5.629-5.63c-3.104,0-5.63,2.525-5.63,5.63c0,0.842,0.186,1.641,0.519,2.358l1.315-1.315
	c0.779-0.781,2.047-0.781,2.828,0c0.781,0.78,0.781,2.047,0,2.828L123.807,140.828z M103,145.299c-5.31,0-9.63-4.319-9.63-9.629
	s4.32-9.63,9.63-9.63s9.629,4.32,9.629,9.63S108.31,145.299,103,145.299z M103,130.04c-3.104,0-5.63,2.525-5.63,5.63
	c0,3.104,2.525,5.629,5.63,5.629c2.399,0,4.454-1.51,5.262-3.629h-1.543c-1.105,0-2-0.896-2-2s0.895-2,2-2h1.543
	C107.454,131.55,105.399,130.04,103,130.04z M79.938,145.299c-5.31,0-9.629-4.319-9.629-9.629s4.319-9.63,9.629-9.63
	s9.63,4.32,9.63,9.63S85.248,145.299,79.938,145.299z M77.938,130.407c-2.119,0.809-3.629,2.862-3.629,5.263
	c0,3.104,2.525,5.629,5.629,5.629c3.104,0,5.63-2.525,5.63-5.629c0-2.4-1.51-4.454-3.63-5.263v1.718c0,1.104-0.896,2-2,2
	s-2-0.896-2-2V130.407z M184.054,135.875c-0.063,0-0.125-0.003-0.188-0.009c-8.72-0.817-14.206-3.087-21.279-6.99
	c-7.037-3.882-16.784-13.34-16.784-21.001c0-3.747,1.116-6.716,3.317-8.823c3.412-3.268,8.147-3.104,8.353-3.092
	c1.104,0.048,1.959,0.981,1.911,2.085c-0.048,1.101-0.987,1.94-2.074,1.912l0,0c-0.034-0.014-3.292-0.08-5.446,2.006
	c-1.367,1.324-2.061,3.313-2.061,5.912c0,5.282,7.911,13.744,14.716,17.499c6.601,3.642,11.698,5.758,19.721,6.51
	c1.1,0.104,1.908,1.078,1.805,2.178C185.946,135.098,185.074,135.875,184.054,135.875z M11.802,134.792c-1.104,0-2-0.896-2-2
	v-12.834c0-10.475,7.825-22.583,8.158-23.093c0.605-0.926,1.844-1.184,2.767-0.582c0.926,0.604,1.187,1.842,0.583,2.768
	c-0.074,0.115-7.508,11.631-7.508,20.907v12.834C13.802,133.896,12.906,134.792,11.802,134.792z"/>
<g>
</g>
<g>
</g>
<g>
</g>
<g>
</g>
<g>
</g>
<g>
</g>
<g>
</g>
<g>
</g>
<g>
</g>
<g>
</g>
<g>
</g>
<g>
</g>
<g>
</g>
<g>
</g>
<g>
</g>
</svg>
