<?xml version="1.0" encoding="iso-8859-1"?>
<!-- Generator: Adobe Illustrator 17.1.0, SVG Export Plug-In . SVG Version: 6.00 Build 0)  -->
<!DOCTYPE svg PUBLIC "-//W3C//DTD SVG 1.1//EN" "http://www.w3.org/Graphics/SVG/1.1/DTD/svg11.dtd">
<svg version="1.1" id="Capa_1" xmlns="http://www.w3.org/2000/svg" xmlns:xlink="http://www.w3.org/1999/xlink" x="0px" y="0px"
	 viewBox="0 0 206.772 206.772" style="enable-background:new 0 0 206.772 206.772;" xml:space="preserve">
<path d="M140.458,206.772c-0.598,0-1.199-0.054-1.799-0.162L29.438,186.815c-0.952-0.172-1.644-1.001-1.644-1.968V2.026
	c-0.001-0.063,0.001-0.127,0.007-0.191c0.001-0.021,0.004-0.041,0.006-0.062l0-0.001V1.771c0.001-0.016,0.004-0.031,0.006-0.047
	V1.724c0-0.002,0-0.003,0.001-0.005s0-0.004,0-0.004c0.068-0.471,0.295-0.882,0.622-1.183c0.151-0.141,0.325-0.258,0.514-0.346h0
	c0.001-0.001,0.002-0.002,0.004-0.002c0.263-0.122,0.58-0.179,0.861-0.185h138.996c5.605,0,10.166,4.561,10.166,10.166v166.516
	c0,5.605-4.561,10.166-10.166,10.166h-1.474v7.521c0,0.578-0.251,1.129-0.687,1.509c-0.437,0.379-1.018,0.555-1.589,0.472
	l-14.578-2.028v2.414c0,2.983-1.313,5.792-3.604,7.704C145.059,205.96,142.789,206.772,140.458,206.772z M31.795,183.178
	l107.577,19.497c1.767,0.321,3.568-0.157,4.946-1.307c1.377-1.15,2.167-2.839,2.167-4.634v-4.678c0-0.021,0-0.042,0-0.063v-73.721
	c0-7.687-3.427-14.869-9.402-19.705L124.68,88.53c-0.47-0.38-0.742-0.951-0.742-1.555V27.21c0-3.543-2.53-6.573-6.016-7.205
	L31.795,4.396V183.178z M150.485,190.281l12.854,1.789V16.851L77.296,8.577l41.339,7.492c5.391,0.977,9.303,5.662,9.303,11.141
	v58.812l11.66,9.437c6.919,5.599,10.887,13.914,10.887,22.814V190.281z M167.338,182.848h1.474c3.4,0,6.166-2.766,6.166-6.166
	V10.166c0-3.4-2.766-6.166-6.166-6.166H71.49l94.04,9.042c1.025,0.099,1.809,0.961,1.809,1.991V182.848z M100.651,148.396
	c-6.284,0-11.397-6.814-11.397-15.191s5.113-15.191,11.397-15.191c2.82,0,5.405,1.373,7.397,3.644V82.12L68.94,74.836v49.432
	c0,0.059-0.002,0.117-0.008,0.175c0.005,0.186,0.008,0.371,0.008,0.558c0,8.377-5.113,15.191-11.397,15.191
	S46.146,133.377,46.146,125s5.113-15.191,11.397-15.191c2.82,0,5.405,1.373,7.397,3.644V72.468c0-0.024,0-0.049,0-0.074V60.378
	c0-0.595,0.265-1.158,0.722-1.538c0.458-0.38,1.062-0.539,1.645-0.428l43.108,8.028c0.947,0.176,1.634,1.003,1.634,1.966v12.013
	c0,0.024,0,0.049,0,0.074v53.158c0,0.069-0.004,0.137-0.011,0.204C111.782,141.932,106.772,148.396,100.651,148.396z
	 M100.651,122.014c-4.01,0-7.397,5.125-7.397,11.191s3.387,11.191,7.397,11.191s7.397-5.125,7.397-11.191
	S104.661,122.014,100.651,122.014z M57.543,113.809c-4.01,0-7.397,5.125-7.397,11.191s3.387,11.191,7.397,11.191
	S64.94,131.066,64.94,125S61.553,113.809,57.543,113.809z M68.94,70.767l39.108,7.284v-7.982L68.94,62.785V70.767z"/>
<g>
</g>
<g>
</g>
<g>
</g>
<g>
</g>
<g>
</g>
<g>
</g>
<g>
</g>
<g>
</g>
<g>
</g>
<g>
</g>
<g>
</g>
<g>
</g>
<g>
</g>
<g>
</g>
<g>
</g>
</svg>
