<?xml version="1.0" encoding="iso-8859-1"?>
<!-- Generator: Adobe Illustrator 17.1.0, SVG Export Plug-In . SVG Version: 6.00 Build 0)  -->
<!DOCTYPE svg PUBLIC "-//W3C//DTD SVG 1.1//EN" "http://www.w3.org/Graphics/SVG/1.1/DTD/svg11.dtd">
<svg version="1.1" id="Capa_1" xmlns="http://www.w3.org/2000/svg" xmlns:xlink="http://www.w3.org/1999/xlink" x="0px" y="0px"
	 viewBox="0 0 201.862 201.862" style="enable-background:new 0 0 201.862 201.862;" xml:space="preserve">
<path d="M100.931,201.861c-1.104,0-2-0.896-2-2V167.03l-36.146,34.282c-0.801,0.761-2.068,0.727-2.828-0.075
	c-0.76-0.801-0.727-2.067,0.075-2.827l38.899-36.893V80.284H37.464c-0.288,0-0.561-0.061-0.808-0.17
	c-0.234-0.104-0.452-0.253-0.639-0.45c-0.022-0.023-0.044-0.047-0.065-0.071c-0.155-0.179-0.272-0.377-0.354-0.586
	c0,0,0-0.003-0.001-0.005c-0.071-0.186-0.116-0.385-0.129-0.592v-0.002l0-0.003c-0.002-0.043-0.003-0.086-0.003-0.129V17.632
	c0-1.104,0.896-2,2-2H70.56V2c0-1.104,0.896-2,2-2h56.742c1.104,0,2,0.896,2,2v13.632h33.095c1.104,0,2,0.896,2,2v60.646
	c0,0.029,0,0.059-0.001,0.089c-0.001,0.002,0,0.003,0,0.005c-0.01,0.228-0.058,0.444-0.137,0.646
	c-0.091,0.231-0.228,0.449-0.409,0.641l0,0.001c-0.001,0.001-0.002,0.002-0.004,0.004l0,0c-0.001,0.002-0.003,0.003-0.004,0.004h0
	l-0.001,0.002c-0.189,0.197-0.409,0.347-0.644,0.448c-0.244,0.107-0.514,0.166-0.798,0.166h-61.466v81.233l38.741,36.742
	c0.801,0.76,0.835,2.026,0.075,2.827c-0.76,0.802-2.025,0.836-2.828,0.075l-35.988-34.132v32.831
	C102.931,200.966,102.036,201.861,100.931,201.861z M131.302,76.284h28.13l-28.13-27.048V76.284z M74.56,76.284h52.742V4H74.56
	V76.284z M42.531,76.284H70.56V50.068L42.531,76.284z M39.464,19.632v54.043L70.56,44.592v-24.96H39.464z M131.302,43.688
	l31.095,29.899V19.632h-31.095V43.688z M114.148,34.102H87.767c-1.104,0-2-0.896-2-2s0.896-2,2-2h26.381c1.104,0,2,0.896,2,2
	S115.253,34.102,114.148,34.102z M120.648,24.262H81.267c-1.104,0-2-0.896-2-2s0.896-2,2-2h39.381c1.104,0,2,0.896,2,2
	S121.753,24.262,120.648,24.262z"/>
<g>
</g>
<g>
</g>
<g>
</g>
<g>
</g>
<g>
</g>
<g>
</g>
<g>
</g>
<g>
</g>
<g>
</g>
<g>
</g>
<g>
</g>
<g>
</g>
<g>
</g>
<g>
</g>
<g>
</g>
</svg>
