<?xml version="1.0" encoding="iso-8859-1"?>
<!-- Generator: Adobe Illustrator 17.1.0, SVG Export Plug-In . SVG Version: 6.00 Build 0)  -->
<!DOCTYPE svg PUBLIC "-//W3C//DTD SVG 1.1//EN" "http://www.w3.org/Graphics/SVG/1.1/DTD/svg11.dtd">
<svg version="1.1" id="Capa_1" xmlns="http://www.w3.org/2000/svg" xmlns:xlink="http://www.w3.org/1999/xlink" x="0px" y="0px"
	 viewBox="0 0 195.546 195.546" style="enable-background:new 0 0 195.546 195.546;" xml:space="preserve">
<path d="M35.128,195.546c-14.856,0-26.942-12.086-26.942-26.942s12.086-26.942,26.942-26.942c9.685,0,18.192,5.137,22.942,12.829
	V54.106c0-0.026,0-0.052,0-0.078v-27.17c0-0.955,0.674-1.776,1.611-1.962l125.29-24.858c0.587-0.115,1.195,0.037,1.658,0.416
	c0.463,0.38,0.731,0.947,0.731,1.546v27.174c0,0.026,0,0.052,0,0.079v108.384c0,14.856-12.086,26.942-26.942,26.942
	s-26.942-12.086-26.942-26.942s12.086-26.942,26.942-26.942c9.685,0,18.193,5.137,22.942,12.829V31.647L62.07,55.711v112.893
	C62.07,183.46,49.984,195.546,35.128,195.546z M35.128,145.662c-12.65,0-22.942,10.292-22.942,22.942s10.292,22.942,22.942,22.942
	s22.942-10.292,22.942-22.942S47.779,145.662,35.128,145.662z M160.417,114.694c-12.65,0-22.942,10.292-22.942,22.942
	s10.292,22.942,22.942,22.942s22.942-10.292,22.942-22.942S173.068,114.694,160.417,114.694z M62.07,28.5v23.133l121.29-24.064
	V4.436L62.07,28.5z M35.128,186.14c-9.669,0-17.536-7.867-17.536-17.536c0-9.67,7.867-17.537,17.536-17.537c1.104,0,2,0.896,2,2
	s-0.896,2-2,2c-7.464,0-13.536,6.072-13.536,13.537c0,7.464,6.072,13.536,13.536,13.536c1.104,0,2,0.896,2,2
	S36.233,186.14,35.128,186.14z M160.417,155.173c-9.669,0-17.536-7.867-17.536-17.537c0-9.669,7.867-17.536,17.536-17.536
	c1.104,0,2,0.896,2,2s-0.896,2-2,2c-7.464,0-13.536,6.072-13.536,13.536c0,7.464,6.072,13.537,13.536,13.537c1.104,0,2,0.896,2,2
	S161.522,155.173,160.417,155.173z"/>
<g>
</g>
<g>
</g>
<g>
</g>
<g>
</g>
<g>
</g>
<g>
</g>
<g>
</g>
<g>
</g>
<g>
</g>
<g>
</g>
<g>
</g>
<g>
</g>
<g>
</g>
<g>
</g>
<g>
</g>
</svg>
