<?xml version="1.0" encoding="iso-8859-1"?>
<!-- Generator: Adobe Illustrator 17.1.0, SVG Export Plug-In . SVG Version: 6.00 Build 0)  -->
<!DOCTYPE svg PUBLIC "-//W3C//DTD SVG 1.1//EN" "http://www.w3.org/Graphics/SVG/1.1/DTD/svg11.dtd">
<svg version="1.1" id="Capa_1" xmlns="http://www.w3.org/2000/svg" xmlns:xlink="http://www.w3.org/1999/xlink" x="0px" y="0px"
	 viewBox="0 0 208 208" style="enable-background:new 0 0 208 208;" xml:space="preserve">
<path d="M186.067,192.088h-15.623c-1.104,0-2-0.896-2-2v-10.75H39.916v10.75c0,1.104-0.896,2-2,2H22.292c-1.104,0-2-0.896-2-2
	v-10.75h-6.209C6.317,179.338,0,173.02,0,165.255V64.974c0-7.766,6.317-14.083,14.083-14.083h153.971L49.632,24.265l-0.448,1.845
	c-0.26,1.073-1.338,1.741-2.416,1.472c-1.073-0.261-1.732-1.342-1.471-2.415l1.876-7.726c0.261-1.073,1.343-1.732,2.416-1.472
	c1.073,0.261,1.732,1.342,1.471,2.415l-0.484,1.993l135.712,30.514h7.628c7.766,0,14.083,6.317,14.083,14.083v100.281
	c0,7.766-6.317,14.083-14.083,14.083h-5.85v10.75C188.067,191.192,187.171,192.088,186.067,192.088z M172.444,188.088h11.623v-8.75
	h-11.623V188.088z M24.292,188.088h11.624v-8.75H24.292V188.088z M186.067,175.338h7.85c5.56,0,10.083-4.523,10.083-10.083V64.974
	c0-5.56-4.523-10.083-10.083-10.083h-7.807c-0.027,0-0.054,0-0.083,0H14.083C8.523,54.891,4,59.414,4,64.974v100.281
	c0,5.56,4.523,10.083,10.083,10.083H186.067z M160.387,160.303c-15.263,0-27.68-12.417-27.68-27.68
	c0-6.042,1.945-11.638,5.244-16.194c0.027-0.046,0.058-0.092,0.09-0.136c0.039-0.056,0.081-0.107,0.125-0.157
	c5.049-6.787,13.131-11.192,22.221-11.192c15.263,0,27.68,12.417,27.68,27.68S175.65,160.303,160.387,160.303z M140.177,120.294
	c-2.2,3.593-3.47,7.816-3.47,12.329c0,13.057,10.623,23.68,23.68,23.68s23.68-10.623,23.68-23.68s-10.623-23.68-23.68-23.68
	c-7.109,0-13.498,3.149-17.842,8.127l4.93,3.548c3.227-3.458,7.821-5.622,12.912-5.622c9.741,0,17.666,7.925,17.666,17.666
	s-7.925,17.666-17.666,17.666s-17.666-7.925-17.666-17.666c0-3.215,0.863-6.232,2.37-8.832L140.177,120.294z M160.387,118.996
	c-7.535,0-13.666,6.131-13.666,13.666c0,7.535,6.131,13.666,13.666,13.666s13.666-6.131,13.666-13.666
	C174.053,125.127,167.922,118.996,160.387,118.996z M136.234,160.303H22.292c-1.104,0-2-0.896-2-2s0.896-2,2-2h113.942
	c1.104,0,2,0.896,2,2S137.338,160.303,136.234,160.303z M126.806,147.373H22.292c-1.104,0-2-0.896-2-2s0.896-2,2-2h104.514
	c1.104,0,2,0.896,2,2S127.911,147.373,126.806,147.373z M120.88,134.443H22.292c-1.104,0-2-0.896-2-2s0.896-2,2-2h98.588
	c1.104,0,2,0.896,2,2S121.985,134.443,120.88,134.443z M126.806,121.514H22.292c-1.104,0-2-0.896-2-2s0.896-2,2-2h104.514
	c1.104,0,2,0.896,2,2S127.911,121.514,126.806,121.514z M136.234,108.584H22.292c-1.104,0-2-0.896-2-2s0.896-2,2-2h113.942
	c1.104,0,2,0.896,2,2S137.338,108.584,136.234,108.584z M186.067,93.859H22.292c-1.104,0-2-0.896-2-2V71.566c0-1.104,0.896-2,2-2
	h163.775c1.104,0,2,0.896,2,2v20.293C188.067,92.964,187.171,93.859,186.067,93.859z M69.187,89.859h114.88v-6.146H69.187V89.859z
	 M62.812,89.859h2.375V73.611h-2.375V89.859z M24.292,89.859h34.52v-6.146h-34.52V89.859z M69.187,79.713h114.88v-6.146H69.187
	V79.713z M24.292,79.713h34.52v-6.146h-34.52V79.713z"/>
<g>
</g>
<g>
</g>
<g>
</g>
<g>
</g>
<g>
</g>
<g>
</g>
<g>
</g>
<g>
</g>
<g>
</g>
<g>
</g>
<g>
</g>
<g>
</g>
<g>
</g>
<g>
</g>
<g>
</g>
</svg>
