<?xml version="1.0" encoding="iso-8859-1"?>
<!-- Generator: Adobe Illustrator 17.1.0, SVG Export Plug-In . SVG Version: 6.00 Build 0)  -->
<!DOCTYPE svg PUBLIC "-//W3C//DTD SVG 1.1//EN" "http://www.w3.org/Graphics/SVG/1.1/DTD/svg11.dtd">
<svg version="1.1" id="Capa_1" xmlns="http://www.w3.org/2000/svg" xmlns:xlink="http://www.w3.org/1999/xlink" x="0px" y="0px"
	 viewBox="0 0 210.833 210.833" style="enable-background:new 0 0 210.833 210.833;" xml:space="preserve">
<path d="M149,210.833c-1.104,0-2-0.896-2-2v-3.833H35v3.833c0,1.104-0.896,2-2,2s-2-0.896-2-2v-3.833h-6.42c-1.104,0-2-0.896-2-2
	v-53.163c0-1.104,0.896-2,2-2h51.545v-2.918H43.696c-1.104,0-2-0.896-2-2s0.896-2,2-2h45.701v-4.008c0-1.104,0.896-2,2-2
	s2,0.896,2,2v4.008h20.853v-3.349c-2.783-0.491-5.286-2.003-7.035-4.303H37.507c-14.856,0-26.943-12.086-26.943-26.943v-19.99
	c0-24.916,20.271-45.186,45.187-45.186h29.178c0.691,0,1.394-0.005,2.104-0.014c35.979-0.463,70.685-12.115,100.362-33.698
	l9.698-7.053c0.609-0.442,1.415-0.505,2.084-0.165c0.671,0.341,1.093,1.03,1.093,1.782v132.543c0,0.741-0.409,1.421-1.064,1.768
	c-0.654,0.346-1.447,0.304-2.061-0.114l-11.906-8.097c-27.473-18.684-59.324-29.194-92.11-30.394
	c-2.271-0.083-4.473-0.125-6.545-0.125H45.204c-6.053,0-10.978,4.924-10.978,10.978v0.263c0,6.053,4.925,10.977,10.978,10.977
	h61.761c2.119-2.993,5.577-4.809,9.285-4.809c3.233,0,6.324,1.383,8.481,3.794c2.155,2.409,3.184,5.647,2.821,8.884
	c-0.519,4.646-4.689,9.009-9.303,9.895v3.355h20.849c1.104,0,2,0.896,2,2s-0.896,2-2,2H105.25v2.918h52.966c1.104,0,2,0.896,2,2
	v53.163c0,1.104-0.896,2-2,2H151v3.833C151,209.937,150.104,210.833,149,210.833z M149,200.999h7.216v-49.163H26.58v49.163H149z
	 M80.125,147.836h21.125v-2.918H80.125V147.836z M55.75,45.147c-22.71,0-41.187,18.476-41.187,41.186v19.99
	c0,12.651,10.292,22.943,22.943,22.943h70.76c0.694,0,1.34,0.36,1.703,0.952c1.51,2.454,4.229,3.792,7.099,3.48
	c3.064-0.328,6.168-3.414,6.51-6.475c0.238-2.138-0.41-4.188-1.828-5.773c-1.398-1.564-3.403-2.461-5.5-2.461
	c-2.667,0-5.135,1.45-6.44,3.785c-0.354,0.632-1.021,1.024-1.745,1.024h-62.86c-8.259,0-14.978-6.719-14.978-14.977v-0.263
	c0-8.259,6.719-14.978,14.978-14.978h41.379c2.121,0,4.372,0.043,6.691,0.128c33.539,1.227,66.117,11.975,94.214,31.083l8.781,5.972
	V5.927l-6.522,4.743c-30.352,22.071-65.852,33.988-102.664,34.462c-0.729,0.009-1.446,0.014-2.155,0.014H55.75z M149,195.083H34.25
	c-1.104,0-2-0.896-2-2v-33.75c0-1.104,0.896-2,2-2H149c1.104,0,2,0.896,2,2v33.75C151,194.187,150.104,195.083,149,195.083z
	 M36.25,191.083H147v-29.75H36.25V191.083z M22.407,88.333c-1.104,0-2-0.896-2-2c0-19.54,15.896-35.436,35.436-35.436
	c1.104,0,2,0.896,2,2s-0.896,2-2,2c-17.334,0-31.436,14.102-31.436,31.436C24.407,87.437,23.512,88.333,22.407,88.333z"/>
<g>
</g>
<g>
</g>
<g>
</g>
<g>
</g>
<g>
</g>
<g>
</g>
<g>
</g>
<g>
</g>
<g>
</g>
<g>
</g>
<g>
</g>
<g>
</g>
<g>
</g>
<g>
</g>
<g>
</g>
</svg>
