<?xml version="1.0" encoding="iso-8859-1"?>
<!-- Generator: Adobe Illustrator 17.1.0, SVG Export Plug-In . SVG Version: 6.00 Build 0)  -->
<!DOCTYPE svg PUBLIC "-//W3C//DTD SVG 1.1//EN" "http://www.w3.org/Graphics/SVG/1.1/DTD/svg11.dtd">
<svg version="1.1" id="Capa_1" xmlns="http://www.w3.org/2000/svg" xmlns:xlink="http://www.w3.org/1999/xlink" x="0px" y="0px"
	 viewBox="0 0 212.5 212.5" style="enable-background:new 0 0 212.5 212.5;" xml:space="preserve">
<path d="M176.039,212.5h-16.877c-1.104,0-2-0.896-2-2v-7.688H55.338v7.688c0,1.104-0.896,2-2,2H36.461c-1.104,0-2-0.896-2-2v-7.688
	h-3.69c-5.734,0-10.399-4.665-10.399-10.398V38.761c0-5.734,4.665-10.399,10.399-10.399h30.483V8.638
	C61.254,3.875,65.129,0,69.893,0h72.714c4.764,0,8.639,3.875,8.639,8.638v19.724h30.484c5.733,0,10.398,4.665,10.398,10.399v153.653
	c0,5.733-4.665,10.398-10.398,10.398h-3.691v7.688C178.039,211.604,177.143,212.5,176.039,212.5z M161.162,208.5h12.877v-5.688
	h-12.877V208.5z M38.461,208.5h12.877v-5.688H38.461V208.5z M176.039,198.813h5.691c3.528,0,6.398-2.87,6.398-6.398V38.761
	c0-3.528-2.87-6.399-6.398-6.399H30.771c-3.528,0-6.399,2.871-6.399,6.399v153.653c0,3.528,2.871,6.398,6.399,6.398H176.039z
	 M65.254,28.361h81.991V12.25H65.254V28.361z M65.27,8.25h81.96C147.032,5.873,145.035,4,142.607,4H69.893
	C67.465,4,65.468,5.873,65.27,8.25z M83.463,187.665c-0.007,0-0.014,0-0.021,0H37.131c-1.104,0-2-0.896-2-2v-20.913
	c0-1.104,0.896-2,2-2h46.334c1.104,0,2,0.896,2,2v20.894c0.002,0.225-0.033,0.449-0.106,0.666l-0.001,0.001v0.002
	c-0.081,0.234-0.203,0.448-0.358,0.634c-0.183,0.219-0.403,0.389-0.645,0.509c-0.238,0.118-0.504,0.19-0.785,0.205c0,0,0,0-0.001,0
	h-0.001C83.533,187.664,83.499,187.665,83.463,187.665z M44.934,183.665h30.729c-3.854-1.639-9.177-3.22-15.364-3.22
	S48.789,182.026,44.934,183.665z M60.298,176.445c9.563,0,17.129,3.328,21.167,5.59v-15.283H39.131v15.283
	c2.206-1.235,5.464-2.789,9.526-3.945l-1.513-5.937c-0.272-1.07,0.374-2.159,1.444-2.433c1.075-0.277,2.16,0.375,2.433,1.444
	l1.53,6.007C54.943,176.723,57.538,176.445,60.298,176.445z M165.35,186.388c-5.733,0-10.397-4.664-10.397-10.397
	c0-5.732,4.664-10.396,10.397-10.396c5.049,0,9.27,3.617,10.204,8.396h1.045c1.104,0,2,0.896,2,2s-0.896,2-2,2h-1.045
	C174.62,182.771,170.4,186.388,165.35,186.388z M165.35,169.594c-3.527,0-6.397,2.869-6.397,6.396s2.87,6.397,6.397,6.397
	c2.829,0,5.235-1.847,6.077-4.397h-0.532c-1.104,0-2-0.896-2-2s0.896-2,2-2h0.532C170.585,171.439,168.179,169.594,165.35,169.594z
	 M137.728,186.388c-5.733,0-10.397-4.664-10.397-10.397c0-5.732,4.664-10.396,10.397-10.396c2.241,0,4.318,0.713,6.019,1.923
	l0.709-0.709c0.781-0.781,2.047-0.781,2.828,0s0.781,2.047,0,2.828l-0.781,0.781c1.027,1.612,1.623,3.524,1.623,5.573
	C148.125,181.724,143.461,186.388,137.728,186.388z M137.728,169.594c-3.527,0-6.397,2.869-6.397,6.396s2.87,6.397,6.397,6.397
	s6.397-2.87,6.397-6.397c0-0.937-0.202-1.827-0.566-2.63l-0.309,0.309c-0.781,0.781-2.047,0.781-2.828,0s-0.781-2.047,0-2.828
	l0.431-0.431C139.928,169.891,138.862,169.594,137.728,169.594z M110.106,186.388c-5.732,0-10.396-4.664-10.396-10.397
	c0-5.049,3.617-9.269,8.396-10.203v-1.045c0-1.104,0.896-2,2-2s2,0.896,2,2v1.045c4.78,0.935,8.397,5.154,8.397,10.203
	C120.503,181.724,115.839,186.388,110.106,186.388z M108.106,169.914c-2.551,0.842-4.396,3.247-4.396,6.076
	c0,3.527,2.869,6.397,6.396,6.397s6.397-2.87,6.397-6.397c0-2.829-1.847-5.235-4.397-6.076v0.531c0,1.104-0.896,2-2,2s-2-0.896-2-2
	V169.914z M122.923,141.95c-0.006,0-0.013,0-0.02,0H89.57c-0.291-0.013-0.485-0.038-0.717-0.125
	c-0.002-0.002-0.003-0.002-0.005-0.002c-0.001-0.001-0.003-0.001-0.004-0.002c0,0,0,0-0.001,0c-0.191-0.072-0.369-0.174-0.528-0.299
	l-40.627-31.35c-0.056-0.043-0.109-0.088-0.159-0.136c-8.402-6.343-13.843-16.411-13.843-27.727
	c0-19.146,15.576-34.722,34.722-34.722s34.722,15.576,34.722,34.722s-15.576,34.722-34.722,34.722c-2.025,0-4.012-0.175-5.942-0.509
	l25.086,19.357v-5.942c0-1.104,0.896-2,2-2h33.371c1.104,0,2,0.896,2,2v5.962l25.315-19.376
	c-10.723,1.816-22.139-1.404-30.396-9.662c-6.559-6.558-10.171-15.277-10.171-24.552s3.612-17.994,10.171-24.552
	c6.558-6.559,15.277-10.171,24.552-10.171s17.993,3.612,24.552,10.171c13.538,13.538,13.538,35.565,0,49.104
	c-0.985,0.986-2.017,1.899-3.085,2.741c-0.014,0.011-0.026,0.021-0.04,0.031c-0.226,0.178-0.452,0.351-0.681,0.521l-40.986,31.371
	c-0.18,0.14-0.383,0.25-0.604,0.322c0,0-0.001-0.001-0.004,0.002c-0.001,0-0.003,0.001-0.006,0.001
	C123.339,141.918,123.131,141.95,122.923,141.95z M91.551,137.95h29.371v-6.012H91.551V137.95z M46.498,103.825
	c5.577,5.679,13.34,9.207,21.91,9.207s16.333-3.528,21.91-9.207l-13.952-9.074c-2.299,1.476-5.03,2.332-7.958,2.332
	c-2.929,0-5.66-0.856-7.959-2.332L46.498,103.825z M113.672,82.027c-0.001,0.095-0.002,0.188-0.002,0.283
	c0,8.206,3.196,15.921,8.999,21.724c5.988,5.988,13.857,8.982,21.724,8.983c0.093,0,0.187-0.001,0.28-0.001l-3.451-16.282
	c-2.668-0.582-5.204-1.908-7.274-3.979c-2.027-2.027-3.394-4.541-3.988-7.277L113.672,82.027z M145.376,97.043l3.168,14.947
	l5.218-1.105l-3.209-15.147C148.908,96.49,147.15,96.926,145.376,97.043z M154.148,93.404l3.52,16.614
	c1.764-0.843,3.46-1.862,5.068-3.06l0.626-0.479c0.954-0.75,1.875-1.566,2.755-2.445c10.36-10.36,11.761-26.34,4.199-38.218
	l-11.889,11.889c1.672,5.123,0.476,10.986-3.589,15.051C154.614,92.98,154.383,93.197,154.148,93.404z M41.577,95.89l2.908,4.473
	l12.457-8.102c-1.214-1.326-2.172-2.856-2.83-4.522L41.577,95.89z M79.521,92.032l12.809,8.329l2.908-4.472l-12.98-8.44
	C81.626,89.145,80.692,90.694,79.521,92.032z M64.308,72.349c-3.912,1.615-6.673,5.473-6.673,9.962
	c0,5.94,4.832,10.772,10.772,10.772c2.463,0,4.735-0.831,6.552-2.228c0.036-0.032,0.073-0.064,0.112-0.095
	c2.146-1.694,3.555-4.112,3.968-6.808c0.011-0.075,0.026-0.148,0.046-0.221c0.062-0.465,0.094-0.94,0.094-1.422
	c0-4.49-2.761-8.347-6.673-9.963c-0.056-0.016-0.11-0.034-0.164-0.056c-1.261-0.496-2.574-0.75-3.902-0.754
	c-0.005-0.001-0.011,0-0.016,0c-0.012,0-0.021,0-0.033,0c-0.005,0-0.011,0-0.016,0c-1.329,0.004-2.643,0.258-3.902,0.754
	C64.418,72.313,64.364,72.332,64.308,72.349z M142.993,92.986c0.046,0.003,0.091,0.006,0.137,0.012
	c2.707,0.321,5.422-0.394,7.62-2.009c0.062-0.045,0.126-0.087,0.191-0.124c0.372-0.285,0.729-0.598,1.069-0.938
	c3.175-3.176,3.949-7.856,2.324-11.767c-0.027-0.05-0.052-0.101-0.075-0.152c-0.541-1.243-1.29-2.351-2.227-3.293
	c-0.001,0-0.001-0.001-0.002-0.001c-0.003-0.004-0.006-0.007-0.009-0.01c-0.004-0.004-0.008-0.008-0.012-0.012
	s-0.008-0.008-0.012-0.011c-0.945-0.943-2.057-1.696-3.304-2.238c-0.069-0.03-0.137-0.064-0.201-0.102
	c-1.284-0.528-2.671-0.805-4.101-0.805c-2.878,0-5.583,1.12-7.617,3.155c-2.035,2.034-3.155,4.739-3.155,7.617
	c0,2.877,1.121,5.582,3.155,7.617C138.52,91.671,140.718,92.69,142.993,92.986z M83.149,83.258l14.238,9.259
	c1.128-3.195,1.742-6.63,1.742-10.206c0-14.65-10.31-26.939-24.055-29.993V69.13c4.805,2.44,8.104,7.433,8.104,13.181
	C83.179,82.629,83.169,82.944,83.149,83.258z M61.741,52.317C47.996,55.371,37.686,67.66,37.686,82.311
	c0,3.575,0.614,7.011,1.742,10.205l14.237-9.259c-0.021-0.313-0.03-0.629-0.03-0.946c0-5.748,3.301-10.74,8.105-13.181V52.317z
	 M114.713,78.159l14.535,3.08c0.079-1.796,0.484-3.556,1.197-5.199l-14.627-3.1L114.713,78.159z M154.87,71.896
	c0.631,0.635,1.192,1.313,1.684,2.025l11.16-11.159l-3.772-3.771l-11.157,11.157c0.722,0.501,1.404,1.069,2.039,1.702h0.001
	c0.005,0.005,0.01,0.011,0.015,0.016s0.01,0.01,0.015,0.014c0,0.001,0.001,0.001,0.001,0.002
	C154.859,71.886,154.864,71.891,154.87,71.896C154.869,71.896,154.869,71.896,154.87,71.896z M116.671,69.032l16.627,3.523
	c0.208-0.235,0.425-0.466,0.649-0.69c2.789-2.79,6.499-4.327,10.445-4.327c1.591,0,3.144,0.25,4.612,0.73l11.887-11.886
	c-4.884-3.122-10.563-4.795-16.499-4.795c-8.206,0-15.921,3.196-21.724,8.999C120.171,63.085,118.156,65.938,116.671,69.032z
	 M68.44,67.538c0.899,0.002,1.78,0.085,2.635,0.241V51.997h-5.334v15.782c0.854-0.156,1.735-0.239,2.634-0.241
	c0.001,0,0.002,0,0.002,0c0.005,0,0.009,0,0.014,0c0.004,0,0.01,0,0.018,0c0.007,0,0.013,0,0.018,0
	C68.43,67.537,68.434,67.537,68.44,67.538L68.44,67.538z"/>
<g>
</g>
<g>
</g>
<g>
</g>
<g>
</g>
<g>
</g>
<g>
</g>
<g>
</g>
<g>
</g>
<g>
</g>
<g>
</g>
<g>
</g>
<g>
</g>
<g>
</g>
<g>
</g>
<g>
</g>
</svg>
