<?xml version="1.0" encoding="iso-8859-1"?>
<!-- Generator: Adobe Illustrator 17.1.0, SVG Export Plug-In . SVG Version: 6.00 Build 0)  -->
<!DOCTYPE svg PUBLIC "-//W3C//DTD SVG 1.1//EN" "http://www.w3.org/Graphics/SVG/1.1/DTD/svg11.dtd">
<svg version="1.1" id="Capa_1" xmlns="http://www.w3.org/2000/svg" xmlns:xlink="http://www.w3.org/1999/xlink" x="0px" y="0px"
	 viewBox="0 0 198.478 198.478" style="enable-background:new 0 0 198.478 198.478;" xml:space="preserve">
<path d="M184.096,178.478H18.188c-7.93,0-14.382-6.452-14.382-14.382V78.137c0-7.93,6.452-14.381,14.382-14.381H162.42L4.301,28.211
	L3.903,29.44c-0.341,1.052-1.472,1.627-2.519,1.287c-1.051-0.341-1.627-1.468-1.287-2.519l2.211-6.824
	c0.341-1.051,1.472-1.625,2.519-1.287c1.051,0.341,1.627,1.468,1.287,2.519L5.54,24.389l175.118,39.366h3.439
	c7.93,0,14.381,6.452,14.381,14.381v85.959C198.478,172.026,192.026,178.478,184.096,178.478z M18.188,67.755
	c-5.725,0-10.382,4.657-10.382,10.381v85.959c0,5.725,4.657,10.382,10.382,10.382h165.909c5.724,0,10.381-4.657,10.381-10.382
	V78.137c0-5.724-4.657-10.381-10.381-10.381h-3.617c-0.028,0.001-0.057,0.001-0.085,0H18.188z M59.181,163.725
	c-23.494,0-42.608-19.114-42.608-42.608s19.114-42.608,42.608-42.608s42.608,19.114,42.608,42.608S82.675,163.725,59.181,163.725z
	 M59.181,82.509c-21.289,0-38.608,17.319-38.608,38.608s17.319,38.608,38.608,38.608s38.608-17.319,38.608-38.608
	S80.469,82.509,59.181,82.509z M169.767,161.682c-6.985,0-12.668-5.683-12.668-12.668c0-6.986,5.683-12.669,12.668-12.669
	s12.668,5.683,12.668,12.669C182.435,155.999,176.752,161.682,169.767,161.682z M164.977,156.235
	c1.373,0.914,3.021,1.447,4.79,1.447c4.78,0,8.668-3.889,8.668-8.668c0-4.78-3.889-8.669-8.668-8.669s-8.668,3.889-8.668,8.669
	c0,1.563,0.416,3.032,1.144,4.299l1.666-1.666c0.781-0.781,2.047-0.781,2.829,0c0.781,0.781,0.781,2.047,0,2.829L164.977,156.235z
	 M123.632,161.682c-6.986,0-12.669-5.683-12.669-12.668c0-6.986,5.683-12.669,12.669-12.669c6.985,0,12.668,5.683,12.668,12.669
	C136.301,155.999,130.618,161.682,123.632,161.682z M121.632,140.578c-3.819,0.905-6.669,4.344-6.669,8.436
	c0,4.78,3.889,8.668,8.669,8.668c4.78,0,8.668-3.889,8.668-8.668c0-4.092-2.85-7.531-6.668-8.436v1.948c0,1.104-0.896,2-2,2
	s-2-0.896-2-2V140.578z M59.181,153.85c-18.049,0-32.734-14.684-32.734-32.733s14.685-32.734,32.734-32.734c1.104,0,2,0.896,2,2
	s-0.896,2-2,2c-15.844,0-28.734,12.89-28.734,28.734s12.89,28.733,28.734,28.733c1.104,0,2,0.896,2,2S60.285,153.85,59.181,153.85z
	 M180.435,130.157h-67.472c-1.104,0-2-0.896-2-2V84.713c0-1.104,0.896-2,2-2h67.472c1.104,0,2,0.896,2,2v43.443
	C182.435,129.261,181.54,130.157,180.435,130.157z M114.964,126.157h63.472v-8.519h-28.417c-0.877,3.156-3.776,5.479-7.207,5.479
	s-6.33-2.323-7.207-5.479h-20.641V126.157z M142.812,112.16c-1.918,0-3.479,1.561-3.479,3.479s1.561,3.479,3.479,3.479
	s3.479-1.561,3.479-3.479S144.73,112.16,142.812,112.16z M150.019,113.638h28.417V86.713h-2.343v9.726c0,1.104-0.896,2-2,2
	s-2-0.896-2-2v-9.726h-2.824v5.305c0,1.104-0.896,2-2,2s-2-0.896-2-2v-5.305h-2.824v9.726c0,1.104-0.896,2-2,2s-2-0.896-2-2v-9.726
	h-2.824v5.305c0,1.104-0.896,2-2,2s-2-0.896-2-2v-5.305h-2.824v9.726c0,1.104-0.896,2-2,2s-2-0.896-2-2v-9.726h-2.824v5.305
	c0,1.104-0.896,2-2,2s-2-0.896-2-2v-5.305h-2.824v9.726c0,1.104-0.896,2-2,2s-2-0.896-2-2v-9.726h-2.824v5.305c0,1.104-0.896,2-2,2
	s-2-0.896-2-2v-5.305H121.5v9.726c0,1.104-0.896,2-2,2s-2-0.896-2-2v-9.726h-2.536v26.925h20.641
	c0.877-3.156,3.776-5.479,7.207-5.479S149.142,110.482,150.019,113.638z"/>
<g>
</g>
<g>
</g>
<g>
</g>
<g>
</g>
<g>
</g>
<g>
</g>
<g>
</g>
<g>
</g>
<g>
</g>
<g>
</g>
<g>
</g>
<g>
</g>
<g>
</g>
<g>
</g>
<g>
</g>
</svg>
