<?xml version="1.0" encoding="iso-8859-1"?>
<!-- Generator: Adobe Illustrator 17.1.0, SVG Export Plug-In . SVG Version: 6.00 Build 0)  -->
<!DOCTYPE svg PUBLIC "-//W3C//DTD SVG 1.1//EN" "http://www.w3.org/Graphics/SVG/1.1/DTD/svg11.dtd">
<svg version="1.1" id="Capa_1" xmlns="http://www.w3.org/2000/svg" xmlns:xlink="http://www.w3.org/1999/xlink" x="0px" y="0px"
	 viewBox="0 0 194.205 194.205" style="enable-background:new 0 0 194.205 194.205;" xml:space="preserve">
<path d="M13.595,194.193c-0.512,0-1.023-0.195-1.414-0.586L0.586,182.012C0.211,181.637,0,181.128,0,180.598
	s0.211-1.039,0.586-1.414l13.615-13.615l-6.361-6.362c-2.65-2.649-4.109-6.173-4.109-9.92c0-3.748,1.459-7.271,4.109-9.921
	L139.377,7.828l0,0c5.47-5.471,14.371-5.471,19.841,0l6.361,6.361l13.616-13.615c0.75-0.75,2.078-0.75,2.828,0l11.596,11.596
	c0.375,0.375,0.586,0.884,0.586,1.414s-0.211,1.039-0.586,1.414l-13.615,13.615l6.313,6.313c2.65,2.649,4.109,6.173,4.109,9.92
	c0,3.748-1.459,7.271-4.109,9.921L54.779,186.305l0,0c-5.47,5.471-14.371,5.471-19.841,0l-6.313-6.313l-13.615,13.615
	C14.619,193.997,14.107,194.193,13.595,194.193z M4.829,180.598l8.767,8.767l61.618-61.617c0.007-0.008,0.015-0.016,0.022-0.022
	c0.007-0.008,0.015-0.015,0.022-0.022l31.452-31.452c0.009-0.009,0.018-0.018,0.026-0.026s0.018-0.018,0.026-0.026l41.96-41.96
	c0.005-0.005,0.01-0.01,0.015-0.015s0.01-0.01,0.015-0.015l20.567-20.567c0.008-0.009,0.017-0.018,0.026-0.025l6.416-6.416
	c0.008-0.008,0.016-0.017,0.024-0.024l13.591-13.591l-8.767-8.768L4.829,180.598z M31.453,177.163l6.313,6.313
	c3.911,3.911,10.274,3.911,14.185,0L183.488,51.94c1.894-1.895,2.938-4.413,2.938-7.093c0-2.679-1.043-5.197-2.938-7.092
	l-6.313-6.313l-3.613,3.613l2.911,2.911c2.87,2.87,2.87,7.54,0,10.41l-6.264,6.264c-0.009,0.01-0.018,0.019-0.027,0.027
	c-0.009,0.009-0.018,0.018-0.027,0.026l-41.947,41.947c-0.009,0.009-0.018,0.019-0.027,0.027c-0.009,0.01-0.018,0.019-0.027,0.027
	l-10.468,10.468c-0.001,0.002-0.003,0.004-0.005,0.005c-0.001,0.002-0.003,0.003-0.004,0.005l-10.492,10.491
	c-0.003,0.001-0.005,0.005-0.008,0.008l-10.47,10.471c-0.009,0.009-0.018,0.018-0.026,0.026s-0.018,0.018-0.026,0.026
	l-10.447,10.447c-0.009,0.009-0.018,0.018-0.026,0.026s-0.018,0.018-0.026,0.026l-10.472,10.472c0,0.003-0.001,0.002-0.004,0.004
	l-20.973,20.973c-0.008,0.009-0.017,0.018-0.026,0.026s-0.018,0.018-0.026,0.026l-6.264,6.264c-2.87,2.871-7.54,2.871-10.41,0
	l-2.912-2.911L31.453,177.163z M37.896,170.722l2.911,2.911c1.311,1.311,3.443,1.311,4.754,0l4.876-4.876l-5.288-5.288
	L37.896,170.722z M47.977,160.64l5.288,5.288l7.672-7.672l-5.288-5.288L47.977,160.64z M142.205,10.656L10.668,142.194
	c-1.894,1.895-2.938,4.413-2.938,7.093c0,2.679,1.043,5.197,2.938,7.092l6.313,6.313l3.613-3.613l-2.911-2.912
	c-2.87-2.87-2.87-7.54,0-10.41l6.263-6.264c0.009-0.009,0.018-0.019,0.027-0.027c0.009-0.01,0.019-0.019,0.028-0.027l10.463-10.463
	c0.003-0.004,0.006-0.007,0.01-0.01c0.003-0.003,0.006-0.007,0.01-0.01l10.478-10.479c0.004-0.004,0.008-0.008,0.012-0.012
	c0.004-0.004,0.008-0.009,0.012-0.013l20.957-20.957c0.01-0.011,0.021-0.021,0.031-0.031c0.01-0.011,0.021-0.021,0.032-0.031
	l10.451-10.45c0.006-0.007,0.012-0.013,0.018-0.019c0.006-0.006,0.012-0.013,0.018-0.019l20.949-20.948
	c0.011-0.012,0.022-0.022,0.034-0.034c0.011-0.012,0.023-0.022,0.034-0.034l10.444-10.443c0.007-0.008,0.015-0.015,0.022-0.022
	c0.007-0.008,0.015-0.016,0.022-0.022l10.453-10.453c0.008-0.008,0.016-0.017,0.024-0.024c0.008-0.009,0.017-0.017,0.025-0.024
	L139.439,24c0.012-0.013,0.024-0.025,0.037-0.038c0.012-0.013,0.025-0.025,0.038-0.037l6.253-6.253
	c1.39-1.391,3.238-2.156,5.205-2.156s3.815,0.766,5.205,2.156l2.912,2.911l3.613-3.613l-6.313-6.313
	C152.479,6.746,146.116,6.747,142.205,10.656L142.205,10.656z M25.388,143.708l-4.876,4.876c-1.311,1.311-1.311,3.443,0,4.754
	l2.912,2.911l7.253-7.253L25.388,143.708z M58.477,150.14l5.289,5.288l7.671-7.672l-5.288-5.288L58.477,150.14z M28.216,140.879
	l5.288,5.289l7.672-7.672l-5.288-5.289L28.216,140.879z M68.977,139.64l5.289,5.288l7.672-7.672l-5.288-5.288L68.977,139.64z
	 M38.717,130.379l5.288,5.288l7.672-7.672l-5.289-5.288L38.717,130.379z M79.478,129.139l5.288,5.288l7.672-7.671l-5.288-5.289
	L79.478,129.139z M49.217,119.879l5.288,5.288l7.672-7.672l-5.288-5.288L49.217,119.879z M89.978,118.639l5.288,5.288l7.672-7.672
	l-5.288-5.288L89.978,118.639z M59.717,109.379l5.289,5.288l7.672-7.672l-5.288-5.288L59.717,109.379z M100.478,108.139l5.289,5.288
	l7.671-7.672l-5.288-5.288L100.478,108.139z M70.217,98.878l5.289,5.288l7.671-7.671l-5.288-5.289L70.217,98.878z M110.979,97.638
	l5.288,5.289l7.672-7.672l-5.288-5.289L110.979,97.638z M80.718,88.378l5.288,5.288l7.672-7.672l-5.288-5.288L80.718,88.378z
	 M121.479,87.138l5.288,5.288l7.672-7.672l-5.289-5.288L121.479,87.138z M91.218,77.878l5.289,5.288l7.671-7.672l-5.288-5.288
	L91.218,77.878z M131.979,76.638l5.288,5.288l7.672-7.672l-5.288-5.288L131.979,76.638z M101.718,67.377l5.288,5.289l7.672-7.672
	l-5.288-5.288L101.718,67.377z M142.479,66.138l5.289,5.288l7.671-7.672l-5.288-5.288L142.479,66.138z M112.219,56.877l5.288,5.288
	l7.672-7.672l-5.288-5.288L112.219,56.877z M152.979,55.637l5.288,5.289l7.672-7.672l-5.288-5.288L152.979,55.637z M122.719,46.377
	l5.289,5.288l7.671-7.672l-5.288-5.288L122.719,46.377z M163.48,45.137l5.288,5.288l4.876-4.876c1.311-1.311,1.311-3.443,0-4.754
	l-2.911-2.911L163.48,45.137z M133.219,35.877l5.288,5.288l7.672-7.672l-5.288-5.288L133.219,35.877z M143.72,25.376l5.288,5.288
	l7.253-7.253l-2.912-2.911c-1.271-1.27-3.484-1.27-4.753,0h0L143.72,25.376z"/>
<g>
</g>
<g>
</g>
<g>
</g>
<g>
</g>
<g>
</g>
<g>
</g>
<g>
</g>
<g>
</g>
<g>
</g>
<g>
</g>
<g>
</g>
<g>
</g>
<g>
</g>
<g>
</g>
<g>
</g>
</svg>
