<?xml version="1.0" encoding="iso-8859-1"?>
<!-- Generator: Adobe Illustrator 17.1.0, SVG Export Plug-In . SVG Version: 6.00 Build 0)  -->
<!DOCTYPE svg PUBLIC "-//W3C//DTD SVG 1.1//EN" "http://www.w3.org/Graphics/SVG/1.1/DTD/svg11.dtd">
<svg version="1.1" id="Capa_1" xmlns="http://www.w3.org/2000/svg" xmlns:xlink="http://www.w3.org/1999/xlink" x="0px" y="0px"
	 viewBox="0 0 203.002 203.002" style="enable-background:new 0 0 203.002 203.002;" xml:space="preserve">
<path d="M60.557,203.002c-18.449,0-33.458-15.009-33.458-33.458s15.009-33.458,33.458-33.458c12.717,0,23.8,7.132,29.459,17.604V2
	c0-0.82,0.501-1.558,1.264-1.859c0.761-0.302,1.632-0.107,2.194,0.49c0.155,0.166,15.728,16.602,30.306,19.847
	c15.571,3.466,30.025,11.292,37.722,20.425c0.968,1.148,1.958,2.462,2.945,3.905c7.495,10.961,11.457,24.067,11.457,37.901v4.499
	c0,1.104-0.896,2-2,2s-2-0.896-2-2c-0.005-0.25-0.233-6.655-8.95-13.307c-9.484-7.235-23.436-11.45-43.904-13.263
	c-13.311-1.179-20.999-6.193-25.033-10.04v118.945C94.016,187.993,79.006,203.002,60.557,203.002z M60.557,140.086
	c-16.243,0-29.458,13.215-29.458,29.458s13.215,29.458,29.458,29.458c16.244,0,29.459-13.215,29.459-29.458
	S76.801,140.086,60.557,140.086z M94.016,44.474c1.278,1.992,7.787,10.621,25.387,12.18c21.255,1.883,35.864,6.353,45.977,14.067
	c2.746,2.095,4.775,4.209,6.275,6.191c-0.938-10.873-4.524-21.095-10.51-29.848c-0.911-1.333-1.82-2.539-2.702-3.585
	c-7.159-8.496-20.774-15.813-35.532-19.099C111.308,21.8,99.648,12.051,94.016,6.779V44.474z M60.557,194.93
	c-13.998,0-25.387-11.389-25.387-25.387s11.389-25.387,25.387-25.387c1.104,0,2,0.896,2,2s-0.896,2-2,2
	c-11.793,0-21.387,9.594-21.387,21.387s9.594,21.387,21.387,21.387c1.104,0,2,0.896,2,2S61.661,194.93,60.557,194.93z"/>
<g>
</g>
<g>
</g>
<g>
</g>
<g>
</g>
<g>
</g>
<g>
</g>
<g>
</g>
<g>
</g>
<g>
</g>
<g>
</g>
<g>
</g>
<g>
</g>
<g>
</g>
<g>
</g>
<g>
</g>
</svg>
