<?xml version="1.0" encoding="utf-8"?>
<!-- Generator: Adobe Illustrator 21.0.2, SVG Export Plug-In . SVG Version: 6.00 Build 0)  -->
<svg version="1.1" id="Capa_1" xmlns="http://www.w3.org/2000/svg" xmlns:xlink="http://www.w3.org/1999/xlink" x="0px" y="0px"
	 viewBox="0 0 257 256" style="enable-background:new 0 0 257 256;" xml:space="preserve">
<path d="M242,110.9l-24.6,24.6c-0.8,0.8-2,0.8-2.8,0l-6.4-6.4l0,6.7c0,1.1-0.9,2-2,2l-9.5,0l0,9.5c0,1.1-0.9,2-2,2l-9.5,0l0,9.5
	c0,1.1-0.9,2-2,2l-9.5,0l0,9.5c0,1.1-0.9,2-2,2l-9.5,0l0,9.5c0,1.1-0.9,2-2,2l-6.7,0l6.4,6.4c0.8,0.8,0.8,2,0,2.8l-43.7,43.7
	c-4.6,4.6-12,4.6-16.6,0l-84.1-84.1c-4.6-4.6-4.6-12,0-16.6l43.7-43.7c0.8-0.8,2-0.8,2.8,0l7.1,7.1l0-6.7c0-1.1,0.9-2,2-2l9.5,0
	l0-9.5c0-1.1,0.9-2,2-2l9.5,0l0-9.5c0-1.1,0.9-2,2-2l9.5,0l0-9.5c0-1.1,0.9-2,2-2l9.5,0l0-9.5c0-1.1,0.9-2,2-2l6.7,0l-7.1-7.1
	c-0.8-0.8-0.8-2,0-2.8l24.6-24.6c4.9-4.9,13-4.9,17.9,0L242,93C246.9,97.9,246.9,106,242,110.9z M216,131.3l23.2-23.2
	c3.4-3.4,3.4-8.9,0-12.3l-82.8-82.8c-3.4-3.4-8.9-3.4-12.3,0l-23.2,23.2L216,131.3z M136.9,210.3l18.7-18.7l-95-95l-18.7,18.7
	L136.9,210.3z M18.4,138.8c-3,3-3,7.9,0,11l84.1,84.1c3,3,7.9,3,11,0l20.7-20.7l-3.9-3.9l-20.4,20.4c-0.8,0.8-2,0.8-2.8,0
	l-84.4-84.4c-0.8-0.8-0.8-2,0-2.8L43,122l-3.9-3.9L18.4,138.8z M195.4,133.8h8.7v-8.7l-76.3-76.3h-8.7v8.7L195.4,133.8z M184,145.3
	h8.7v-8.7l-76.3-76.3h-8.7v8.7L184,145.3z M172.5,156.7h8.7v-8.7l-76.3-76.3h-8.7v8.7L172.5,156.7z M161,168.2h8.7v-8.7L93.3,83.2
	h-8.7v8.7L161,168.2z M149.5,179.7h8.7v-8.7L81.8,94.7h-8.7v8.7L149.5,179.7z M108.4,225.4l19-19l-3.9-3.9l-13.1,13.1
	c-0.8,0.8-2,0.8-2.8,0l-1.2-1.2L102,219L108.4,225.4z M109.1,211.4l11.7-11.7l-2.4-2.4l-11.7,11.7L109.1,211.4z M99.2,216.1l4.5-4.5
	l-1.2-1.2c-0.8-0.8-0.8-2,0-2.8l13.1-13.1l-2.9-2.9l-19,19L99.2,216.1z M90.9,207.9l19-19L107,186l-13.1,13.1c-0.8,0.8-2,0.8-2.8,0
	l-1.2-1.2l-4.5,4.5L90.9,207.9z M92.5,194.8l11.7-11.7l-2.4-2.4l-11.7,11.7L92.5,194.8z M82.6,199.6l4.5-4.5l-1.2-1.2
	c-0.8-0.8-0.8-2,0-2.8L99,178l-2.9-2.9l-19,19L82.6,199.6z M74.3,191.3l19-19l-2.9-2.9l-13.1,13.1c-0.8,0.8-2,0.8-2.8,0l-1.2-1.2
	l-4.5,4.5L74.3,191.3z M75.9,178.3l11.7-11.7l-2.4-2.4l-11.7,11.7L75.9,178.3z M66,183l4.5-4.5l-1.2-1.2c-0.8-0.8-0.8-2,0-2.8
	l13.1-13.1l-2.9-2.9l-19,19L66,183z M57.7,174.7l19-19l-2.9-2.9l-13.1,13.1c-0.8,0.8-2,0.8-2.8,0l-1.2-1.2l-4.5,4.5L57.7,174.7z
	 M59.3,161.7L71,150l-2.4-2.4l-11.7,11.7L59.3,161.7z M49.4,166.4l4.5-4.5l-1.2-1.2c-0.8-0.8-0.8-2,0-2.8l13.1-13.1l-2.9-2.9l-19,19
	L49.4,166.4z M41.1,158.1l19-19l-2.9-2.9l-13.1,13.1c-0.8,0.8-2,0.8-2.8,0l-1.2-1.2l-4.5,4.5L41.1,158.1z M42.7,145.1l11.7-11.7
	l-2.4-2.4l-11.7,11.7L42.7,145.1z M32.8,149.8l4.5-4.5l-1.2-1.2c-0.8-0.8-0.8-2,0-2.8l13.1-13.1l-3.4-3.4l-19,19L32.8,149.8z
	 M219.7,115.8c-2.2,2.2-5.9,2.2-8.2,0c-2.2-2.2-2.2-5.9,0-8.2c2.2-2.2,5.9-2.2,8.2,0C221.9,109.9,221.9,113.6,219.7,115.8z
	 M214.3,110.5c-0.7,0.7-0.7,1.8,0,2.5s1.8,0.7,2.5,0s0.7-1.8,0-2.5S215,109.8,214.3,110.5z M223.4,98.9c-2.2,2.2-5.9,2.2-8.2,0
	c-2.2-2.2-2.2-5.9,0-8.2c2.2-2.2,5.9-2.2,8.2,0C225.6,93,225.6,96.7,223.4,98.9z M218,93.6c-0.7,0.7-0.7,1.8,0,2.5s1.8,0.7,2.5,0
	s0.7-1.8,0-2.5C219.9,92.9,218.7,92.9,218,93.6z M207.3,103.4c-2.2,2.2-5.9,2.2-8.2,0s-2.2-5.9,0-8.2c2.2-2.2,5.9-2.2,8.2,0
	C209.5,97.5,209.5,101.2,207.3,103.4z M201.9,98.1c-0.7,0.7-0.7,1.8,0,2.5c0.7,0.7,1.8,0.7,2.5,0s0.7-1.8,0-2.5
	S202.6,97.4,201.9,98.1z M211,86.5c-2.2,2.2-5.9,2.2-8.2,0c-2.2-2.2-2.2-5.9,0-8.2c2.2-2.2,5.9-2.2,8.2,0
	C213.2,80.6,213.2,84.3,211,86.5z M205.6,81.2c-0.7,0.7-0.7,1.8,0,2.5c0.7,0.7,1.8,0.7,2.5,0s0.7-1.8,0-2.5
	C207.5,80.5,206.3,80.5,205.6,81.2z M194.9,91c-2.2,2.2-5.9,2.2-8.2,0c-2.2-2.2-2.2-5.9,0-8.2c2.2-2.2,5.9-2.2,8.2,0
	C197.1,85.1,197.1,88.8,194.9,91z M189.5,85.7c-0.7,0.7-0.7,1.8,0,2.5s1.8,0.7,2.5,0s0.7-1.8,0-2.5S190.2,85,189.5,85.7z
	 M198.6,74.1c-2.2,2.2-5.9,2.2-8.2,0c-2.2-2.2-2.2-5.9,0-8.2c2.2-2.2,5.9-2.2,8.2,0C200.8,68.2,200.8,71.9,198.6,74.1z M193.2,68.8
	c-0.7,0.7-0.7,1.8,0,2.5c0.7,0.7,1.8,0.7,2.5,0s0.7-1.8,0-2.5S193.9,68.1,193.2,68.8z M182.5,78.6c-2.2,2.2-5.9,2.2-8.2,0
	s-2.2-5.9,0-8.2c2.2-2.2,5.9-2.2,8.2,0S184.7,76.4,182.5,78.6z M177.1,73.3c-0.7,0.7-0.7,1.8,0,2.5s1.8,0.7,2.5,0s0.7-1.8,0-2.5
	S177.8,72.6,177.1,73.3z M186.2,61.7c-2.2,2.2-5.9,2.2-8.2,0s-2.2-5.9,0-8.2c2.2-2.2,5.9-2.2,8.2,0
	C188.4,55.8,188.4,59.5,186.2,61.7z M180.8,56.4c-0.7,0.7-0.7,1.8,0,2.5c0.7,0.7,1.8,0.7,2.5,0s0.7-1.8,0-2.5S181.5,55.7,180.8,56.4
	z M170.1,66.2c-2.2,2.2-5.9,2.2-8.2,0c-2.2-2.2-2.2-5.9,0-8.2c2.2-2.2,5.9-2.2,8.2,0C172.3,60.3,172.3,64,170.1,66.2z M164.7,60.9
	c-0.7,0.7-0.7,1.8,0,2.5c0.7,0.7,1.8,0.7,2.5,0c0.7-0.7,0.7-1.8,0-2.5S165.4,60.2,164.7,60.9z M173.8,49.3c-2.2,2.2-5.9,2.2-8.2,0
	c-2.2-2.2-2.2-5.9,0-8.2c2.2-2.2,5.9-2.2,8.2,0C176,43.4,176,47.1,173.8,49.3z M168.4,44c-0.7,0.7-0.7,1.8,0,2.5s1.8,0.7,2.5,0
	s0.7-1.8,0-2.5S169.1,43.3,168.4,44z M157.7,53.8c-2.2,2.2-5.9,2.2-8.2,0c-2.2-2.2-2.2-5.9,0-8.2c2.2-2.2,5.9-2.2,8.2,0
	C159.9,47.9,159.9,51.6,157.7,53.8z M152.3,48.5c-0.7,0.7-0.7,1.8,0,2.5s1.8,0.7,2.5,0s0.7-1.8,0-2.5
	C154.2,47.8,153,47.8,152.3,48.5z M161.4,36.9c-2.2,2.2-5.9,2.2-8.2,0c-2.2-2.2-2.2-5.9,0-8.2c2.2-2.2,5.9-2.2,8.2,0
	S163.6,34.7,161.4,36.9z M156,31.6c-0.7,0.7-0.7,1.8,0,2.5c0.7,0.7,1.8,0.7,2.5,0s0.7-1.8,0-2.5S156.7,30.9,156,31.6z M145.3,41.4
	c-2.2,2.2-5.9,2.2-8.2,0c-2.2-2.2-2.2-5.9,0-8.2c2.2-2.2,5.9-2.2,8.2,0C147.5,35.5,147.5,39.2,145.3,41.4z M139.9,36.1
	c-0.7,0.7-0.7,1.8,0,2.5s1.8,0.7,2.5,0c0.7-0.7,0.7-1.8,0-2.5S140.6,35.4,139.9,36.1z"/>
</svg>
