<?xml version="1.0" encoding="iso-8859-1"?>
<!-- Generator: Adobe Illustrator 17.1.0, SVG Export Plug-In . SVG Version: 6.00 Build 0)  -->
<!DOCTYPE svg PUBLIC "-//W3C//DTD SVG 1.1//EN" "http://www.w3.org/Graphics/SVG/1.1/DTD/svg11.dtd">
<svg version="1.1" id="Capa_1" xmlns="http://www.w3.org/2000/svg" xmlns:xlink="http://www.w3.org/1999/xlink" x="0px" y="0px"
	 viewBox="0 0 208.59 208.59" style="enable-background:new 0 0 208.59 208.59;" xml:space="preserve">
<path d="M81.206,174.752c-38.328,0-69.509-31.182-69.509-69.51c0-2.852,0.172-5.663,0.508-8.426
	c-0.221-0.246-0.383-0.551-0.46-0.897L4.395,62.931l-1.859,0.517c-1.065,0.297-2.167-0.326-2.462-1.392
	c-0.296-1.063,0.327-2.166,1.391-2.462l3.862-1.073c0.009-0.003,0.018-0.006,0.027-0.008L20.7,54.249
	c1.066-0.296,2.167,0.327,2.462,1.392c0.296,1.063-0.327,2.166-1.391,2.462l-2.075,0.577l2.212,10.326
	c12.232-19.94,34.238-33.271,59.297-33.271c27.396,0,51.142,15.934,62.458,39.018c0.272-9.02-1.982-17.904-6.524-25.702
	l-7.108-12.205c-0.425-0.73-0.346-1.649,0.199-2.296s1.438-0.879,2.229-0.585l74.83,27.926c0.825,0.308,1.352,1.119,1.297,1.997
	c-0.054,0.879-0.677,1.618-1.533,1.822l-7.152,1.703c-13.007,3.097-24.233,11.552-30.802,23.197L143.9,135.282
	c-0.023,0.042-0.049,0.083-0.075,0.122C132.574,158.667,108.733,174.752,81.206,174.752z M81.206,39.734
	c-36.122,0-65.509,29.387-65.509,65.509s29.387,65.51,65.509,65.51c36.122,0,65.509-29.388,65.509-65.51
	S117.327,39.734,81.206,39.734z M147.368,83.912c2.174,6.726,3.348,13.892,3.348,21.331c0,3.916-0.326,7.761-0.951,11.502
	l15.851-28.101c7.113-12.612,19.272-21.77,33.36-25.123l0.76-0.182l-63.429-23.671l4.291,7.367
	c4.938,8.481,7.381,18.149,7.062,27.96L147.368,83.912z M8.255,61.859l5.723,25.69c1.215-4.61,2.893-9.037,4.98-13.224
	l-3.123-14.574L8.255,61.859z M81.206,162.281c-31.451,0-57.038-25.587-57.038-57.038c0-31.45,25.587-57.037,57.038-57.037
	s57.038,25.587,57.038,57.037C138.244,136.694,112.657,162.281,81.206,162.281z M81.206,52.206
	c-29.245,0-53.038,23.792-53.038,53.037s23.792,53.038,53.038,53.038c29.245,0,53.038-23.793,53.038-53.038
	S110.451,52.206,81.206,52.206z"/>
<g>
</g>
<g>
</g>
<g>
</g>
<g>
</g>
<g>
</g>
<g>
</g>
<g>
</g>
<g>
</g>
<g>
</g>
<g>
</g>
<g>
</g>
<g>
</g>
<g>
</g>
<g>
</g>
<g>
</g>
</svg>
