<?xml version="1.0" encoding="iso-8859-1"?>
<!-- Generator: Adobe Illustrator 17.1.0, SVG Export Plug-In . SVG Version: 6.00 Build 0)  -->
<!DOCTYPE svg PUBLIC "-//W3C//DTD SVG 1.1//EN" "http://www.w3.org/Graphics/SVG/1.1/DTD/svg11.dtd">
<svg version="1.1" id="Capa_1" xmlns="http://www.w3.org/2000/svg" xmlns:xlink="http://www.w3.org/1999/xlink" x="0px" y="0px"
	 viewBox="0 0 204.591 204.591" style="enable-background:new 0 0 204.591 204.591;" xml:space="preserve">
<path d="M47.793,204.58c-12.766,0-24.768-4.972-33.795-13.999l0,0l0,0C4.971,181.553,0,169.551,0,156.786
	c0-12.767,4.971-24.769,13.999-33.795l92.103-92.104c4.489-4.49,11.797-4.49,16.288,0l3.597,3.597l33.909-33.91
	c0.75-0.75,2.078-0.75,2.828,0l41.281,41.281c0.781,0.781,0.781,2.047,0,2.828l-33.909,33.91l3.597,3.597
	c4.491,4.49,4.491,11.798,0,16.288l-92.104,92.103C72.562,199.608,60.56,204.58,47.793,204.58z M114.246,31.517
	c-1.926,0-3.851,0.732-5.316,2.198l-92.103,92.104C8.555,134.09,4,145.087,4,156.786c0,11.697,4.555,22.695,12.827,30.967l0,0
	c8.271,8.271,19.269,12.827,30.967,12.827s22.695-4.556,30.967-12.827l92.104-92.103c1.42-1.42,2.201-3.308,2.201-5.316
	c0-2.008-0.781-3.896-2.201-5.315l-5.01-5.01l-0.001-0.001l-41.281-41.281c-0.002-0.002-0.004-0.004-0.006-0.006l-5.005-5.005
	C118.096,32.25,116.171,31.517,114.246,31.517z M149.455,57.953l17.812,17.813l32.495-32.496L181.95,25.457L149.455,57.953z
	 M128.814,37.312l17.812,17.812l32.496-32.495L161.31,4.816L128.814,37.312z M24.317,182.182c-0.512,0-1.024-0.195-1.414-0.586
	c-6.967-6.966-10.803-16.229-10.803-26.08c0-9.853,3.836-19.114,10.803-26.081l89.895-89.895c0.781-0.781,2.047-0.781,2.828,0
	s0.781,2.047,0,2.828l-89.895,89.895c-6.211,6.211-9.631,14.469-9.631,23.253c0,8.783,3.42,17.041,9.631,23.252
	c0.781,0.781,0.781,2.047,0,2.828C25.341,181.987,24.829,182.182,24.317,182.182z M67.071,148.121c-2.681,0-5.362-1.02-7.402-3.061
	c-4.082-4.082-4.082-10.724,0-14.806c3.599-3.598,9.188-4.022,13.256-1.278l8.581-8.581c-5.382-6.2-5.127-15.63,0.766-21.523
	l4.906-4.906c-1.51-2.74-1.105-6.263,1.214-8.584c2.813-2.811,7.387-2.81,10.198-0.001c0,0.001,0,0.001,0,0.001
	c2.811,2.812,2.811,7.386,0,10.197c-2.321,2.322-5.842,2.727-8.584,1.215l-4.907,4.906c-4.333,4.333-4.585,11.226-0.756,15.857
	l33.95-33.95l-3.669-3.67c-0.506-0.505-0.703-1.241-0.518-1.932c0.185-0.69,0.724-1.229,1.414-1.414l13.889-3.722
	c0.689-0.184,1.427,0.013,1.932,0.518c0.506,0.505,0.703,1.241,0.518,1.932l-3.722,13.889c-0.185,0.69-0.724,1.229-1.414,1.414
	c-0.688,0.186-1.427-0.013-1.932-0.518l-3.67-3.669l-33.95,33.95c4.632,3.83,11.525,3.576,15.857-0.756l12.076-12.076l-2.122-2.122
	c-0.375-0.375-0.586-0.884-0.586-1.414s0.211-1.039,0.586-1.414l7.071-7.07c0.781-0.781,2.047-0.781,2.828,0l7.071,7.07
	c0.375,0.375,0.586,0.884,0.586,1.414s-0.211,1.039-0.586,1.414l-7.071,7.071c-0.781,0.781-2.047,0.781-2.828,0l-2.121-2.121
	l-12.076,12.076c-5.894,5.893-15.323,6.149-21.523,0.766l-8.581,8.581c2.745,4.069,2.319,9.657-1.278,13.256
	C72.433,147.101,69.751,148.121,67.071,148.121z M67.071,131.192c-1.657,0-3.313,0.63-4.574,1.891c-2.522,2.522-2.522,6.627,0,9.149
	s6.627,2.522,9.148,0c2.522-2.522,2.522-6.627,0-9.149C70.384,131.822,68.728,131.192,67.071,131.192z M117.225,104.017l4.243,4.243
	l4.243-4.243l-4.243-4.242L117.225,104.017z M93.491,87.271c-0.822,0-1.645,0.313-2.271,0.938c-1.251,1.252-1.251,3.289,0,4.541
	c1.251,1.252,3.289,1.252,4.541,0c1.251-1.252,1.251-3.289,0-4.541C95.135,87.584,94.313,87.271,93.491,87.271z M119.901,79.558
	l5.269,5.269l1.929-7.197L119.901,79.558z M173.808,61.176L173.808,61.176c-0.53,0-1.039-0.211-1.414-0.586l-7.669-7.67
	c-0.781-0.781-0.781-2.047,0-2.828l9.278-9.278c0.781-0.781,2.047-0.781,2.828,0l7.67,7.669c0.375,0.375,0.586,0.884,0.586,1.414
	s-0.211,1.039-0.586,1.414l-9.279,9.279C174.847,60.965,174.338,61.176,173.808,61.176z M168.967,51.506l4.841,4.842l6.451-6.451
	l-4.842-4.841L168.967,51.506z M153.072,40.441L153.072,40.441c-0.53,0-1.039-0.211-1.414-0.586l-7.669-7.67
	c-0.781-0.781-0.781-2.047,0-2.828l9.278-9.278c0.781-0.781,2.047-0.781,2.828,0l7.67,7.669c0.375,0.375,0.586,0.884,0.586,1.414
	s-0.211,1.039-0.586,1.414l-9.279,9.279C154.111,40.23,153.603,40.441,153.072,40.441z M148.231,30.771l4.841,4.842l6.451-6.451
	l-4.842-4.841L148.231,30.771z"/>
<g>
</g>
<g>
</g>
<g>
</g>
<g>
</g>
<g>
</g>
<g>
</g>
<g>
</g>
<g>
</g>
<g>
</g>
<g>
</g>
<g>
</g>
<g>
</g>
<g>
</g>
<g>
</g>
<g>
</g>
</svg>
