<?xml version="1.0" encoding="iso-8859-1"?>
<!-- Generator: Adobe Illustrator 17.1.0, SVG Export Plug-In . SVG Version: 6.00 Build 0)  -->
<!DOCTYPE svg PUBLIC "-//W3C//DTD SVG 1.1//EN" "http://www.w3.org/Graphics/SVG/1.1/DTD/svg11.dtd">
<svg version="1.1" id="Capa_1" xmlns="http://www.w3.org/2000/svg" xmlns:xlink="http://www.w3.org/1999/xlink" x="0px" y="0px"
	 viewBox="0 0 204.465 204.465" style="enable-background:new 0 0 204.465 204.465;" xml:space="preserve">
<path d="M132.731,204.465H71.734c-3.559,0-6.977-1.507-9.378-4.134s-3.596-6.167-3.277-9.711l6.14-75.059
	c-0.007-0.067-0.011-0.137-0.011-0.207c0-0.184,0.024-0.361,0.071-0.53l2.729-33.358C48.116,67.764,34.335,42.505,32.957,13.301
	c-0.044-0.165-0.067-0.338-0.067-0.516c0-0.118,0.011-0.234,0.03-0.347c-0.052-1.318-0.077-2.643-0.077-3.976
	C32.846,3.767,36.652,0,41.327,0h121.813c4.674,0,8.479,3.767,8.483,8.396c0,1.35-0.026,2.693-0.079,4.027
	c0.022,0.117,0.033,0.238,0.033,0.362c0,0.185-0.025,0.363-0.071,0.532c-1.224,25.539-11.904,48.041-27.851,62.447
	c-0.169,0.232-0.387,0.427-0.638,0.568c-2.1,1.853-4.291,3.567-6.559,5.13l2.729,33.365c0.046,0.168,0.07,0.345,0.07,0.526
	c0,0.068-0.004,0.137-0.01,0.204l6.14,75.077c0.317,3.529-0.877,7.068-3.278,9.696C139.708,202.958,136.29,204.465,132.731,204.465z
	 M69.084,117.354l-6.021,73.607c-0.223,2.48,0.575,4.844,2.244,6.671c1.67,1.826,3.952,2.832,6.426,2.832h60.997
	c2.475,0,4.756-1.006,6.426-2.832c1.67-1.827,2.467-4.19,2.245-6.655l-6.021-73.623H69.084z M69.412,113.354h65.642l-2.408-29.451
	c-9.188,5.444-19.511,8.501-30.412,8.501s-21.224-3.057-30.412-8.499L69.412,113.354z M68.056,76.591
	c9.95,7.49,21.659,11.813,34.177,11.813c12.52,0,24.229-4.323,34.181-11.813h-12.74c-0.021,0-0.045,0-0.066,0H68.056z
	 M130.169,72.591h11.065c14.706-13.402,24.666-34.177,26.186-57.806h-7.313C159.675,22.857,156.296,53.143,130.169,72.591z
	 M116.711,72.591h6.359c28.931-18.007,32.578-49.63,33.034-57.806h-22.7C133.177,21.53,131.309,45.218,116.711,72.591z
	 M104.469,72.591h7.691c14.883-26.968,16.945-51.12,17.229-57.806h-24.92V72.591z M92.304,72.591h8.165V14.785H75.076
	C75.359,21.471,77.421,45.623,92.304,72.591z M81.139,72.591h6.614C73.156,45.218,71.288,21.53,71.06,14.785H48.324
	c0.313,8.124,3.448,39.85,32.817,57.808L81.139,72.591z M63.236,72.591h10.729C47.57,53.207,44.628,22.924,44.325,14.785h-7.276
	C38.581,38.426,48.538,59.193,63.236,72.591z M102.469,10.785h65.126c0.019-0.772,0.027-1.545,0.027-2.322
	C167.621,5.974,165.609,4,163.139,4H41.327c-2.471,0-4.482,1.974-4.484,4.399c0,0.797,0.01,1.594,0.028,2.386H102.469z
	 M129.492,195.466H81.826c-5.051,0-8.356-1.053-10.401-3.313c-2.033-2.248-2.749-5.601-2.252-10.553l4.381-53.569
	c0.089-1.1,1.056-1.929,2.156-1.83c1.101,0.09,1.92,1.056,1.83,2.156l-4.384,53.606c-0.379,3.783,0.014,6.156,1.234,7.506
	c1.233,1.362,3.596,1.997,7.436,1.997h47.666c1.104,0,2,0.896,2,2S130.596,195.466,129.492,195.466z"/>
<g>
</g>
<g>
</g>
<g>
</g>
<g>
</g>
<g>
</g>
<g>
</g>
<g>
</g>
<g>
</g>
<g>
</g>
<g>
</g>
<g>
</g>
<g>
</g>
<g>
</g>
<g>
</g>
<g>
</g>
</svg>
