<?xml version="1.0" encoding="iso-8859-1"?>
<!-- Generator: Adobe Illustrator 17.1.0, SVG Export Plug-In . SVG Version: 6.00 Build 0)  -->
<!DOCTYPE svg PUBLIC "-//W3C//DTD SVG 1.1//EN" "http://www.w3.org/Graphics/SVG/1.1/DTD/svg11.dtd">
<svg version="1.1" id="Capa_1" xmlns="http://www.w3.org/2000/svg" xmlns:xlink="http://www.w3.org/1999/xlink" x="0px" y="0px"
	 viewBox="0 0 189.326 189.326" style="enable-background:new 0 0 189.326 189.326;" xml:space="preserve">
<path d="M12.557,186.101c-0.345,0-0.691-0.089-1-0.268c-0.619-0.357-1-1.018-1-1.732V54.144H7.875C3.533,54.144,0,50.611,0,46.269
	V32.214c0-4.342,3.533-7.875,7.875-7.875h2.682V5.226c0-1.104,0.896-2,2-2h30.497c1.104,0,2,0.896,2,2v19.113h10.075V5.226
	c0-1.104,0.896-2,2-2h30.497c1.104,0,2,0.896,2,2v19.113h10.075V5.226c0-1.104,0.896-2,2-2h30.497c1.104,0,2,0.896,2,2v19.113
	h10.075V5.226c0-1.104,0.896-2,2-2h30.497c1.104,0,2,0.896,2,2v19.113h2.682c4.342,0,7.875,3.533,7.875,7.875v14.055
	c0,4.342-3.533,7.875-7.875,7.875h-2.682v34.948c0,0.715-0.381,1.375-1,1.732l-30.497,17.594c-0.618,0.356-1.381,0.357-2,0
	c-0.619-0.357-1-1.018-1-1.732V54.144h-10.075v60.167c0,0.715-0.381,1.375-1,1.732L102.7,133.637c-0.619,0.356-1.381,0.357-2,0
	c-0.619-0.357-1-1.018-1-1.732V54.144H89.625v85.971c0,0.715-0.381,1.375-1,1.732l-30.497,17.594c-0.618,0.356-1.381,0.357-2,0
	c-0.619-0.357-1-1.018-1-1.732V54.144H45.054v112.363c0,0.715-0.381,1.375-1,1.732l-30.497,17.594
	C13.247,186.011,12.902,186.101,12.557,186.101z M14.557,54.144v126.494l26.497-15.287V54.144H22.625v113.238c0,1.104-0.896,2-2,2
	s-2-0.896-2-2V54.144H14.557z M59.129,54.144v100.103l26.497-15.287V54.144H66.6v87.887c0,1.104-0.896,2-2,2s-2-0.896-2-2V54.144
	H59.129z M103.701,54.144v74.298l26.497-15.287V54.144h-18.416v61.761c0,1.104-0.896,2-2,2s-2-0.896-2-2V54.144H103.701z
	 M148.273,54.144v49.079l26.497-15.287V54.144h-17.633v36.411c0,1.104-0.896,2-2,2s-2-0.896-2-2V54.144H148.273z M176.77,50.144
	h4.682c2.137,0,3.875-1.738,3.875-3.875V32.214c0-2.137-1.738-3.875-3.875-3.875H7.875C5.738,28.339,4,30.077,4,32.214v14.055
	c0,2.137,1.738,3.875,3.875,3.875H176.77z M148.273,24.339h26.497V7.226h-26.497V24.339z M103.701,24.339h26.497V7.226h-26.497
	V24.339z M59.129,24.339h26.497V7.226H59.129V24.339z M14.557,24.339h26.497V7.226H14.557V24.339z M161.521,45.933
	c-3.69,0-6.692-3.002-6.692-6.692s3.002-6.692,6.692-6.692c3.689,0,6.691,3.002,6.691,6.692S165.211,45.933,161.521,45.933z
	 M161.521,36.549c-1.484,0-2.692,1.208-2.692,2.692s1.208,2.692,2.692,2.692c1.484,0,2.691-1.208,2.691-2.692
	S163.005,36.549,161.521,36.549z M116.949,45.933c-3.69,0-6.692-3.002-6.692-6.692s3.002-6.692,6.692-6.692s6.692,3.002,6.692,6.692
	S120.639,45.933,116.949,45.933z M116.949,36.549c-1.484,0-2.692,1.208-2.692,2.692s1.208,2.692,2.692,2.692
	s2.692-1.208,2.692-2.692S118.434,36.549,116.949,36.549z M72.377,45.933c-3.689,0-6.691-3.002-6.691-6.692s3.002-6.692,6.691-6.692
	c3.69,0,6.692,3.002,6.692,6.692S76.067,45.933,72.377,45.933z M72.377,36.549c-1.484,0-2.691,1.208-2.691,2.692
	s1.208,2.692,2.691,2.692c1.484,0,2.692-1.208,2.692-2.692S73.861,36.549,72.377,36.549z M27.805,45.933
	c-3.69,0-6.692-3.002-6.692-6.692s3.002-6.692,6.692-6.692s6.692,3.002,6.692,6.692S31.495,45.933,27.805,45.933z M27.805,36.549
	c-1.484,0-2.692,1.208-2.692,2.692s1.208,2.692,2.692,2.692s2.692-1.208,2.692-2.692S29.29,36.549,27.805,36.549z"/>
<g>
</g>
<g>
</g>
<g>
</g>
<g>
</g>
<g>
</g>
<g>
</g>
<g>
</g>
<g>
</g>
<g>
</g>
<g>
</g>
<g>
</g>
<g>
</g>
<g>
</g>
<g>
</g>
<g>
</g>
</svg>
