<?xml version="1.0" encoding="iso-8859-1"?>
<!-- Generator: Adobe Illustrator 17.1.0, SVG Export Plug-In . SVG Version: 6.00 Build 0)  -->
<!DOCTYPE svg PUBLIC "-//W3C//DTD SVG 1.1//EN" "http://www.w3.org/Graphics/SVG/1.1/DTD/svg11.dtd">
<svg version="1.1" id="Capa_1" xmlns="http://www.w3.org/2000/svg" xmlns:xlink="http://www.w3.org/1999/xlink" x="0px" y="0px"
	 viewBox="0 0 207.511 207.511" style="enable-background:new 0 0 207.511 207.511;" xml:space="preserve">
<path d="M2.002,197.965c-0.633,0-1.256-0.3-1.645-0.859c-0.63-0.907-0.405-2.153,0.502-2.783l52.648-36.559l-19.648-28.296
	c-8.112-11.683-11.189-25.825-8.665-39.822s10.349-26.174,22.031-34.285l52.224-36.264c23.453-16.286,55.378-11.269,72.682,11.42
	c0.642,0.842,0.517,2.039-0.286,2.729c-0.889,0.764-1.712,1.571-2.471,2.415c2.239,1.256,5.819,3.434,9.012,6.136
	c4.867,4.117,8.26,9.453,8.643,10.067l7.307,10.522c0.015,0.021,0.029,0.042,0.043,0.064c0.015,0.022,0.029,0.045,0.043,0.068
	c0.315,0.521,4.981,8.282,7.653,16.296c2.693,8.08,5.306,26.409,5.416,27.186c0.134,0.946-0.42,1.854-1.323,2.169L57.208,160.065
	L3.141,197.608C2.793,197.849,2.396,197.965,2.002,197.965z M73.976,41.655l-24.47,16.991c-10.805,7.503-18.041,18.765-20.376,31.71
	c-2.335,12.946,0.511,26.026,8.014,36.831l19.648,28.296l41.533-28.84c0.013-0.01,0.026-0.019,0.039-0.027l23.35-16.214
	L73.976,41.655z M80.412,143.952c-0.007,0.005-0.013,0.009-0.02,0.014l-10.943,7.599l133.842-46.627
	c-0.709-4.717-2.883-18.472-5.011-24.855c-1.811-5.434-4.681-10.896-6.223-13.655l-75.35,52.322l71.018-30.307
	c1.017-0.435,2.191,0.039,2.625,1.055c0.434,1.016-0.039,2.191-1.054,2.625l-88.837,37.909L80.412,143.952z M77.262,39.374
	l47.737,68.747l64.92-45.08l-5.065-7.295l-17.041,11.833c-0.436,0.303-0.975,0.421-1.496,0.325
	c-0.522-0.094-0.985-0.392-1.288-0.827l-1.921-2.767c-6.815-9.815-4.732-23.606,4.709-32.798
	c-16.234-19.759-44.899-23.845-66.087-9.13L77.262,39.374z M166.912,38.874c-4.771,7.36-5.197,16.416-0.518,23.155l0.78,1.124
	l15.423-10.71c-1.317-1.86-3.771-5.033-6.795-7.593C172.626,42.163,168.93,39.983,166.912,38.874z M51.278,133.915
	c-0.633,0-1.256-0.3-1.645-0.859l-7.876-11.343c-12.883-18.553-8.27-44.127,10.283-57.01l9.46-6.569
	c0.907-0.63,2.153-0.405,2.783,0.502c0.63,0.907,0.405,2.153-0.502,2.783l-9.46,6.569c-16.741,11.625-20.903,34.702-9.279,51.443
	l7.876,11.343c0.63,0.907,0.405,2.153-0.502,2.783C52.069,133.8,51.672,133.915,51.278,133.915z"/>
<g>
</g>
<g>
</g>
<g>
</g>
<g>
</g>
<g>
</g>
<g>
</g>
<g>
</g>
<g>
</g>
<g>
</g>
<g>
</g>
<g>
</g>
<g>
</g>
<g>
</g>
<g>
</g>
<g>
</g>
</svg>
