<?xml version="1.0" encoding="iso-8859-1"?>
<!-- Generator: Adobe Illustrator 17.1.0, SVG Export Plug-In . SVG Version: 6.00 Build 0)  -->
<!DOCTYPE svg PUBLIC "-//W3C//DTD SVG 1.1//EN" "http://www.w3.org/Graphics/SVG/1.1/DTD/svg11.dtd">
<svg version="1.1" id="Capa_1" xmlns="http://www.w3.org/2000/svg" xmlns:xlink="http://www.w3.org/1999/xlink" x="0px" y="0px"
	 viewBox="0 0 189.993 189.993" style="enable-background:new 0 0 189.993 189.993;" xml:space="preserve">
<path d="M94.996,189.993C42.615,189.993,0,147.377,0,94.997S42.615,0,94.996,0c52.382,0,94.997,42.615,94.997,94.996
	S147.378,189.993,94.996,189.993z M94.996,4C44.821,4,4,44.821,4,94.997s40.821,90.996,90.996,90.996
	c50.176,0,90.997-40.82,90.997-90.996S145.172,4,94.996,4z M94.996,182.754c-48.39,0-87.758-39.368-87.758-87.758
	S46.606,7.239,94.996,7.239c1.104,0,2,0.896,2,2s-0.896,2-2,2c-46.184,0-83.758,37.573-83.758,83.758s37.574,83.758,83.758,83.758
	c1.104,0,2,0.896,2,2S96.101,182.754,94.996,182.754z M94.996,171.508c-42.188,0-76.511-34.323-76.511-76.512
	s34.323-76.512,76.511-76.512s76.512,34.323,76.512,76.512S137.185,171.508,94.996,171.508z M94.996,22.485
	c-39.983,0-72.511,32.528-72.511,72.512s32.528,72.512,72.511,72.512c39.983,0,72.512-32.528,72.512-72.512
	S134.979,22.485,94.996,22.485z M89.608,146.831c-14.22,0-27.483-5.644-37.347-15.891c-9.859-10.242-14.99-23.727-14.448-37.968
	c1.013-26.57,21.762-47.933,48.265-49.691c16.551-1.11,32.357,5.625,42.979,18.107c1.818-2.756,5.128-4.367,8.601-3.844
	c0.001,0,0.002,0,0.003,0l0.136,0.021c2.308,0.346,4.345,1.57,5.734,3.449c1.389,1.878,1.964,4.186,1.617,6.495l-2.929,19.573
	c-0.235,1.575-1.07,2.964-2.351,3.911c-1.281,0.948-2.859,1.338-4.428,1.103l-19.573-2.929c-4.77-0.714-8.07-5.175-7.356-9.944
	l0.021-0.14c0.346-2.306,1.57-4.344,3.449-5.733c0.867-0.642,1.826-1.109,2.835-1.393c-6.436-7.029-15.603-11.13-25.208-11.13
	c-9.32,0-18.028,3.684-24.521,10.373c-6.49,6.686-9.911,15.507-9.633,24.84c0.53,17.818,14.892,32.355,32.696,33.096
	c12.231,0.519,23.496-5.321,30.148-15.591c1.597-2.468,4.331-3.941,7.313-3.941h0.148c3.223,0,6.185,1.763,7.731,4.601
	c1.549,2.845,1.432,6.159-0.315,8.866C123.574,137.949,107.287,146.831,89.608,146.831z M89.577,47.165
	c-1.074,0-2.151,0.035-3.234,0.107C61.89,48.894,42.745,68.607,41.811,93.125c-0.501,13.146,4.234,25.59,13.333,35.042
	c9.103,9.456,21.343,14.664,34.465,14.664c16.314,0,31.345-8.198,40.207-21.93c0.94-1.457,1.002-3.245,0.164-4.782
	c-0.858-1.575-2.435-2.515-4.219-2.515h-0.148c-1.62,0-3.099,0.791-3.956,2.115c-7.43,11.47-20.005,17.99-33.671,17.413
	c-19.891-0.826-35.937-17.066-36.528-36.973c-0.311-10.423,3.511-20.276,10.761-27.745c7.252-7.472,16.98-11.587,27.391-11.587
	c12.194,0,23.755,5.914,30.923,15.819c0.473,0.652,0.507,1.524,0.089,2.212s-1.208,1.063-2.005,0.938l-0.73-0.109
	c-1.257-0.188-2.506,0.124-3.525,0.878c-1.02,0.755-1.684,1.86-1.872,3.114l-0.021,0.14c-0.387,2.583,1.404,5.005,3.993,5.393
	l19.573,2.929c0.52,0.077,1.037-0.053,1.457-0.363c0.422-0.312,0.696-0.769,0.774-1.287l2.929-19.573
	c0.188-1.254-0.124-2.506-0.878-3.525s-1.859-1.684-3.113-1.872l-0.136-0.021c-1.255-0.185-2.506,0.124-3.525,0.879
	c-1.02,0.754-1.684,1.859-1.872,3.113l-0.024,0.168c-0.117,0.801-0.707,1.452-1.492,1.648c-0.78,0.198-1.611-0.098-2.094-0.749
	C118.956,54.266,104.751,47.165,89.577,47.165z"/>
<g>
</g>
<g>
</g>
<g>
</g>
<g>
</g>
<g>
</g>
<g>
</g>
<g>
</g>
<g>
</g>
<g>
</g>
<g>
</g>
<g>
</g>
<g>
</g>
<g>
</g>
<g>
</g>
<g>
</g>
</svg>
