<?xml version="1.0" encoding="iso-8859-1"?>
<!-- Generator: Adobe Illustrator 17.1.0, SVG Export Plug-In . SVG Version: 6.00 Build 0)  -->
<!DOCTYPE svg PUBLIC "-//W3C//DTD SVG 1.1//EN" "http://www.w3.org/Graphics/SVG/1.1/DTD/svg11.dtd">
<svg version="1.1" id="Capa_1" xmlns="http://www.w3.org/2000/svg" xmlns:xlink="http://www.w3.org/1999/xlink" x="0px" y="0px"
	 viewBox="0 0 202.55 202.55" style="enable-background:new 0 0 202.55 202.55;" xml:space="preserve">
<path d="M186.653,186.275H15.897C7.131,186.275,0,179.144,0,170.378V32.172c0-8.766,7.131-15.897,15.897-15.897h170.756
	c8.766,0,15.897,7.132,15.897,15.897v138.206C202.55,179.144,195.418,186.275,186.653,186.275z M15.897,20.275
	C9.337,20.275,4,25.612,4,32.172v138.206c0,6.56,5.337,11.896,11.897,11.896h170.756c6.56,0,11.897-5.337,11.897-11.896V32.172
	c0-6.561-5.337-11.897-11.897-11.897H15.897z M87.021,168.083c-36.838,0-66.808-29.97-66.808-66.809
	c0-36.838,29.97-66.808,66.808-66.808c30.446,0,56.202,20.474,64.223,48.374l13.58-29.011c-2.186-2.044-3.554-4.952-3.554-8.173
	c0-6.171,5.02-11.19,11.191-11.19c6.17,0,11.19,5.02,11.19,11.19s-5.02,11.19-11.19,11.19c-1.501,0-2.933-0.297-4.242-0.835
	L152.722,89.12c0.728,3.943,1.108,8.005,1.108,12.155C153.83,138.114,123.86,168.083,87.021,168.083z M87.021,38.467
	c-34.632,0-62.808,28.176-62.808,62.808c0,34.633,28.176,62.809,62.808,62.809c34.633,0,62.809-28.176,62.809-62.809
	c0-1.843-0.08-3.668-0.236-5.472l-11.473,24.512c-0.329,0.703-1.035,1.152-1.812,1.152h-5.201v1.79c0,1.104-0.896,2-2,2h-17.907
	c-1.104,0-2-0.896-2-2v-1.695h-4.538c-1.104,0-2-0.896-2-2s0.896-2,2-2h4.538v-1.695c0-1.104,0.896-2,2-2h17.907
	c1.104,0,2,0.896,2,2v1.601h3.929l13.509-28.861C142.668,60.027,117.314,38.467,87.021,38.467z M113.201,121.257h13.907v-3.391
	h-13.907V121.257z M172.461,38.467c-3.965,0-7.191,3.226-7.191,7.19s3.226,7.19,7.191,7.19c3.965,0,7.19-3.226,7.19-7.19
	S176.426,38.467,172.461,38.467z M181.651,166.109H163.27c-1.104,0-2-0.896-2-2v-11.667c0-1.104,0.896-2,2-2h18.381
	c1.104,0,2,0.896,2,2v11.667C183.651,165.213,182.756,166.109,181.651,166.109z M165.27,162.109h14.381v-7.667H165.27V162.109z
	 M87.021,158.204c-14.584,0-29.169-5.552-40.272-16.655c-0.781-0.781-0.781-2.047,0-2.828c0.78-0.781,2.048-0.781,2.828,0
	c10.002,10.002,23.3,15.51,37.444,15.51c14.145,0,27.443-5.508,37.445-15.51c0.78-0.781,2.048-0.781,2.828,0
	c0.781,0.781,0.781,2.047,0,2.828C116.191,152.652,101.606,158.204,87.021,158.204z M87.021,148.399
	c-12.587,0-24.42-4.902-33.321-13.803c-0.781-0.781-0.781-2.047,0-2.828c0.78-0.781,2.047-0.781,2.828,0
	c8.145,8.145,18.974,12.631,30.493,12.631s22.348-4.486,30.493-12.631c0.78-0.781,2.048-0.781,2.828,0
	c0.781,0.781,0.781,2.047,0,2.828C111.442,143.497,99.608,148.399,87.021,148.399z M181.651,145.775H163.27c-1.104,0-2-0.896-2-2
	v-11.666c0-1.104,0.896-2,2-2h18.381c1.104,0,2,0.896,2,2v11.666C183.651,144.879,182.756,145.775,181.651,145.775z M165.27,141.775
	h14.381v-7.666H165.27V141.775z M87.021,109.916c-4.764,0-8.64-3.876-8.64-8.641c0-4.764,3.876-8.64,8.64-8.64
	c4.765,0,8.641,3.876,8.641,8.64C95.662,106.04,91.786,109.916,87.021,109.916z M87.021,96.635c-2.559,0-4.64,2.081-4.64,4.64
	s2.082,4.641,4.64,4.641c2.559,0,4.641-2.082,4.641-4.641S89.581,96.635,87.021,96.635z M55.115,71.369
	c-0.512,0-1.023-0.195-1.414-0.586c-0.781-0.781-0.781-2.047,0-2.828c8.9-8.9,20.734-13.803,33.321-13.803
	s24.421,4.902,33.321,13.803c0.781,0.781,0.781,2.047,0,2.828c-0.78,0.781-2.048,0.781-2.828,0
	c-8.145-8.145-18.975-12.631-30.493-12.631s-22.348,4.486-30.493,12.631C56.139,71.173,55.626,71.369,55.115,71.369z M125.88,64.417
	c-0.512,0-1.024-0.195-1.414-0.586c-10.002-10.002-23.3-15.51-37.445-15.51c-14.145,0-27.442,5.508-37.444,15.51
	c-0.78,0.781-2.048,0.781-2.828,0c-0.781-0.781-0.781-2.047,0-2.828c22.207-22.207,58.34-22.206,80.545,0
	c0.781,0.781,0.781,2.047,0,2.828C126.904,64.221,126.392,64.417,125.88,64.417z"/>
<g>
</g>
<g>
</g>
<g>
</g>
<g>
</g>
<g>
</g>
<g>
</g>
<g>
</g>
<g>
</g>
<g>
</g>
<g>
</g>
<g>
</g>
<g>
</g>
<g>
</g>
<g>
</g>
<g>
</g>
</svg>
