<?xml version="1.0" encoding="iso-8859-1"?>
<!-- Generator: Adobe Illustrator 17.1.0, SVG Export Plug-In . SVG Version: 6.00 Build 0)  -->
<!DOCTYPE svg PUBLIC "-//W3C//DTD SVG 1.1//EN" "http://www.w3.org/Graphics/SVG/1.1/DTD/svg11.dtd">
<svg version="1.1" id="Capa_1" xmlns="http://www.w3.org/2000/svg" xmlns:xlink="http://www.w3.org/1999/xlink" x="0px" y="0px"
	 viewBox="0 0 191.54 191.54" style="enable-background:new 0 0 191.54 191.54;" xml:space="preserve">
<path d="M145.319,191.54H55.701c-0.73,0-1.403-0.398-1.754-1.039L23.36,134.7c-3.547-6.471-3.214-14.311,0.868-20.458l14.983-22.564
	c3.283-4.943,8.61-8.052,14.465-8.512l0.004-34.817c-0.01-0.082-0.016-0.165-0.016-0.249V16.118c0-4.577,1.957-8.955,5.369-12.012
	c3.409-3.053,7.991-4.511,12.577-4.008c8.149,0.899,14.294,7.945,14.294,16.39v32.129c2.957-3.372,7.295-5.505,12.122-5.505
	c6.073,0,11.372,3.375,14.12,8.349c2.748-4.974,8.047-8.349,14.12-8.349c4.825,0,9.162,2.131,12.118,5.501V16.488
	c0-8.444,6.146-15.49,14.295-16.39c4.579-0.506,9.167,0.954,12.577,4.008c3.412,3.057,5.369,7.435,5.369,12.012v150.118
	C170.624,180.188,159.273,191.54,145.319,191.54z M108.289,187.54h37.03c11.748,0,21.305-9.557,21.305-21.304V16.118
	c0-3.441-1.472-6.733-4.038-9.032c-2.6-2.328-5.966-3.403-9.469-3.011h0c-6.119,0.675-10.733,6.012-10.733,12.413v41.989
	c0,0.062-0.003,0.122-0.008,0.182c0.007,0.19,0.01,0.381,0.01,0.573v47.791c0,0.178-0.003,0.355-0.009,0.531
	c-0.214,7.639-5.55,14.156-12.845,15.598c-4.663,0.919-9.279-0.125-12.999-2.944c-1.823-1.382-3.31-3.118-4.39-5.076
	c-1.08,1.958-2.567,3.694-4.39,5.076c-3.72,2.819-8.335,3.867-12.998,2.944c-5.532-1.094-10.074-5.194-11.939-10.644H67.045
	l-2.857,6.572c8.248,2.68,36.861,13.505,46.062,37.188C115.283,169.225,110.877,181.898,108.289,187.54z M56.886,187.54h46.851
	c1.86-3.632,7.742-16.82,2.69-29.821c-9.128-23.498-40.306-33.84-45.002-35.276l-18.708,6.119c-1.048,0.34-2.179-0.23-2.522-1.279
	c-0.343-1.05,0.229-2.18,1.279-2.523l18.406-6.02l3.52-8.097L55.47,98.365c-0.599-0.928-0.333-2.165,0.595-2.765
	c0.927-0.601,2.167-0.334,2.765,0.595l7.955,12.313L84.27,108.5c0.031-0.002,0.063-0.002,0.094,0
	c11.617-0.203,21.068-9.782,21.122-21.394H55.192c-5.1,0-9.828,2.536-12.649,6.784L27.56,116.455
	c-3.257,4.905-3.522,11.159-0.692,16.323L56.886,187.54z M126.266,47.112c-6.683,0-12.12,5.438-12.12,12.12v47.791
	c0,6.683,5.437,12.119,12.12,12.119c6.547,0,11.898-5.219,12.113-11.714c0.003-0.117,0.005-0.234,0.005-0.352V59.564
	c0-0.315-0.025-0.623-0.049-0.933c-0.01-0.135-0.007-0.269,0.01-0.4C137.835,52.014,132.612,47.112,126.266,47.112z M87.136,112.319
	c1.991,4.113,6.181,6.823,10.89,6.823c6.683,0,12.12-5.438,12.12-12.12v-47.79c0-6.683-5.437-12.12-12.12-12.12
	c-6.357,0-11.587,4.919-12.082,11.151c0.015,0.12,0.018,0.242,0.009,0.365c-0.021,0.27-0.041,0.524-0.047,0.781v23.696h2.879V59.618
	c0-4.903,3.989-8.893,8.893-8.893c1.104,0,2,0.896,2,2s-0.896,2-2,2c-2.698,0-4.893,2.194-4.893,4.893v23.488h12.836
	c2.151,0,3.901,1.75,3.901,3.901c0,4.781-1.323,9.259-3.621,13.087c0.644,1.246,0.979,2.62,0.979,4.041v3.047
	c0,4.883-3.972,8.854-8.855,8.854c-3.187,0-6.051-1.683-7.619-4.338C89.341,111.974,88.251,112.183,87.136,112.319z M94.329,110.332
	c0.901,1.061,2.238,1.705,3.697,1.705c2.677,0,4.855-2.178,4.855-4.854v-3.027C100.505,106.765,97.597,108.882,94.329,110.332z
	 M57.676,83.106h24.228V59.564c0-0.063,0-0.127,0.002-0.19v-0.142c0-0.184,0.003-0.366,0.009-0.548
	c-0.007-0.068-0.011-0.138-0.011-0.207V16.488c0-6.401-4.614-11.738-10.733-12.413c-3.508-0.396-6.869,0.682-9.469,3.011
	c-2.566,2.299-4.038,5.591-4.038,9.032v31.736c0.01,0.081,0.016,0.163,0.016,0.245L57.676,83.106z M61.787,184.093
	c-0.707,0-1.392-0.375-1.755-1.038l-28.419-51.813c-2.243-4.089-2.056-9.056,0.489-12.964L45.016,98.44
	c0.603-0.926,1.842-1.189,2.768-0.585c0.926,0.603,1.188,1.842,0.585,2.767l-12.915,19.837c-1.739,2.671-1.867,6.064-0.334,8.858
	l28.419,51.813c0.531,0.969,0.177,2.185-0.792,2.716C62.442,184.013,62.112,184.093,61.787,184.093z M126.266,116.037
	c-4.883,0-8.855-3.972-8.855-8.854v-3.047c0-4.883,3.972-8.855,8.855-8.855c4.883,0,8.855,3.973,8.855,8.855v3.047
	C135.121,112.065,131.149,116.037,126.266,116.037z M126.266,99.28c-2.677,0-4.855,2.178-4.855,4.855v3.047
	c0,2.677,2.178,4.854,4.855,4.854c2.677,0,4.855-2.178,4.855-4.854v-3.047C131.121,101.458,128.943,99.28,126.266,99.28z
	 M119.411,88.204c-1.104,0-2-0.896-2-2V59.618c0-4.903,3.989-8.893,8.893-8.893c1.104,0,2,0.896,2,2s-0.896,2-2,2
	c-2.698,0-4.893,2.194-4.893,4.893v26.586C121.411,87.308,120.515,88.204,119.411,88.204z M161.753,87.106h-14.184
	c-1.104,0-2-0.896-2-2s0.896-2,2-2h14.184c1.104,0,2,0.896,2,2S162.858,87.106,161.753,87.106z M161.753,60.135h-14.184
	c-1.104,0-2-0.896-2-2s0.896-2,2-2h14.184c1.104,0,2,0.896,2,2S162.858,60.135,161.753,60.135z M77.045,60.135H62.861
	c-1.104,0-2-0.896-2-2s0.896-2,2-2h14.184c1.104,0,2,0.896,2,2S78.149,60.135,77.045,60.135z M161.753,33.164h-14.184
	c-1.104,0-2-0.896-2-2c0-1.104,0.896-2,2-2h14.184c1.104,0,2,0.896,2,2C163.753,32.268,162.858,33.164,161.753,33.164z
	 M77.045,33.164H62.861c-1.104,0-2-0.896-2-2c0-1.104,0.896-2,2-2h14.184c1.104,0,2,0.896,2,2
	C79.045,32.268,78.149,33.164,77.045,33.164z M147.55,18.103c-1.104,0-2-0.896-2-2c0-4.903,3.989-8.893,8.893-8.893
	c1.104,0,2,0.896,2,2s-0.896,2-2,2c-2.698,0-4.893,2.194-4.893,4.893C149.55,17.208,148.654,18.103,147.55,18.103z M62.841,18.103
	c-1.104,0-2-0.896-2-2c0-4.903,3.989-8.893,8.893-8.893c1.104,0,2,0.896,2,2s-0.896,2-2,2c-2.698,0-4.893,2.194-4.893,4.893
	C64.841,17.208,63.946,18.103,62.841,18.103z"/>
<g>
</g>
<g>
</g>
<g>
</g>
<g>
</g>
<g>
</g>
<g>
</g>
<g>
</g>
<g>
</g>
<g>
</g>
<g>
</g>
<g>
</g>
<g>
</g>
<g>
</g>
<g>
</g>
<g>
</g>
</svg>
