<?xml version="1.0" encoding="iso-8859-1"?>
<!-- Generator: Adobe Illustrator 17.1.0, SVG Export Plug-In . SVG Version: 6.00 Build 0)  -->
<!DOCTYPE svg PUBLIC "-//W3C//DTD SVG 1.1//EN" "http://www.w3.org/Graphics/SVG/1.1/DTD/svg11.dtd">
<svg version="1.1" id="Capa_1" xmlns="http://www.w3.org/2000/svg" xmlns:xlink="http://www.w3.org/1999/xlink" x="0px" y="0px"
	 viewBox="0 0 189.993 189.993" style="enable-background:new 0 0 189.993 189.993;" xml:space="preserve">
<path d="M94.996,189.993C42.615,189.993,0,147.378,0,94.997C0,42.615,42.615,0,94.996,0c52.382,0,94.997,42.615,94.997,94.997
	C189.993,147.378,147.378,189.993,94.996,189.993z M94.996,4C44.82,4,4,44.821,4,94.997s40.82,90.996,90.996,90.996
	s90.997-40.82,90.997-90.996S145.172,4,94.996,4z M94.996,182.755c-48.39,0-87.758-39.368-87.758-87.758
	c0-48.391,39.368-87.759,87.758-87.759c1.104,0,2,0.896,2,2s-0.896,2-2,2c-46.185,0-83.758,37.574-83.758,83.759
	s37.573,83.758,83.758,83.758c1.104,0,2,0.896,2,2S96.101,182.755,94.996,182.755z M94.996,171.508
	c-42.188,0-76.512-34.322-76.512-76.511s34.323-76.512,76.512-76.512s76.512,34.323,76.512,76.512S137.185,171.508,94.996,171.508z
	 M94.996,22.485c-39.983,0-72.512,32.528-72.512,72.512c0,39.982,32.528,72.511,72.512,72.511s72.512-32.528,72.512-72.511
	C167.508,55.014,134.979,22.485,94.996,22.485z M95.018,149.223c-0.637,0-1.274-0.012-1.915-0.036
	c-25.609-0.977-46.077-21.823-46.597-47.461c-0.343-16.969,7.977-32.591,22.254-41.79c2.556-1.646,5.688-1.753,8.373-0.288
	c2.693,1.469,4.367,4.28,4.367,7.338v0.14c0,2.832-1.39,5.421-3.717,6.925c-9.103,5.886-14.537,15.856-14.537,26.673
	c0,17.324,14.091,31.566,31.411,31.748c0.109,0.001,0.219,0.002,0.327,0.002c16.832,0,31.035-13.568,31.734-30.396
	c0.471-11.359-4.944-21.832-14.487-28.013c-2.341-1.516-3.738-4.109-3.738-6.937v-0.139c0-3.094,1.619-5.819,4.332-7.29
	c2.705-1.47,5.998-1.332,8.591,0.355c13.826,8.996,22.08,24.199,22.08,40.669c0,13.306-5.28,25.716-14.869,34.945
	C119.505,144.45,107.632,149.222,95.018,149.223z M73.176,62.629c-0.782,0-1.558,0.224-2.25,0.67
	c-13.102,8.44-20.735,22.775-20.42,38.347c0.477,23.521,19.254,42.648,42.749,43.543c12.218,0.468,23.806-3.938,32.599-12.402
	c8.798-8.469,13.643-19.855,13.643-32.063c0-15.111-7.574-29.062-20.262-37.315l0,0c-1.384-0.9-3.064-0.972-4.502-0.193
	c-1.402,0.761-2.239,2.172-2.239,3.774v0.139c0,1.466,0.715,2.804,1.912,3.579c10.743,6.959,16.841,18.748,16.31,31.536
	c-0.787,18.949-16.78,34.229-35.731,34.23c-0.123,0-0.244-0.001-0.367-0.002c-19.503-0.204-35.37-16.24-35.37-35.748
	c0-12.179,6.118-23.406,16.365-30.032c1.183-0.765,1.889-2.097,1.889-3.565v-0.14c0-1.616-0.854-3.047-2.282-3.826
	C74.568,62.805,73.869,62.629,73.176,62.629z M95.029,84.369h-0.128c-4.582,0-8.311-3.729-8.311-8.311V49.082
	c0-4.583,3.729-8.312,8.311-8.312h0.128c4.583,0,8.312,3.729,8.312,8.312v26.977C103.341,80.641,99.612,84.369,95.029,84.369z
	 M94.901,44.771c-2.377,0-4.311,1.935-4.311,4.312v26.977c0,2.377,1.934,4.311,4.311,4.311h0.128c2.377,0,4.312-1.934,4.312-4.311
	V49.082c0-2.377-1.935-4.312-4.312-4.312H94.901z"/>
<g>
</g>
<g>
</g>
<g>
</g>
<g>
</g>
<g>
</g>
<g>
</g>
<g>
</g>
<g>
</g>
<g>
</g>
<g>
</g>
<g>
</g>
<g>
</g>
<g>
</g>
<g>
</g>
<g>
</g>
</svg>
