<?xml version="1.0" encoding="iso-8859-1"?>
<!-- Generator: Adobe Illustrator 17.1.0, SVG Export Plug-In . SVG Version: 6.00 Build 0)  -->
<!DOCTYPE svg PUBLIC "-//W3C//DTD SVG 1.1//EN" "http://www.w3.org/Graphics/SVG/1.1/DTD/svg11.dtd">
<svg version="1.1" id="Capa_1" xmlns="http://www.w3.org/2000/svg" xmlns:xlink="http://www.w3.org/1999/xlink" x="0px" y="0px"
	 viewBox="0 0 200.931 200.931" style="enable-background:new 0 0 200.931 200.931;" xml:space="preserve">
<path d="M105.304,200.931c-1.511,0-2.981-0.593-4.089-1.7L1.701,99.716c-1.543-1.542-2.087-3.791-1.421-5.868
	c0.667-2.077,2.418-3.589,4.57-3.946L87.52,76.184c0.041-0.008,0.082-0.015,0.122-0.02l30.523-5.065l36.442-36.443
	c-2.421-2.717-2.477-6.882-0.066-9.663l2.103-2.426l-2.926-2.927c-0.781-0.781-0.781-2.047,0-2.828s2.047-0.781,2.828,0l2.725,2.724
	l4.269-4.925l-3.115-3.115c-0.781-0.781-0.781-2.047,0-2.828s2.047-0.781,2.828,0l2.913,2.913l4.269-4.926l-3.171-3.171
	c-0.781-0.781-0.781-2.047,0-2.828s2.047-0.781,2.828,0l2.969,2.969l0.121-0.14c1.829-2.11,4.479-3.377,7.269-3.477
	c2.808-0.115,5.522,0.976,7.497,2.95l10.027,10.027c1.975,1.974,3.05,4.706,2.95,7.496s-1.366,5.439-3.477,7.269l-21.509,18.641
	c-2.776,2.406-6.938,2.354-9.655-0.061L129.83,82.784l-10.752,64.797c-0.005,0.033-0.011,0.065-0.017,0.098l-8.032,48.403
	c-0.356,2.152-1.868,3.903-3.945,4.569C106.498,200.839,105.898,200.931,105.304,200.931z M86.648,80.383L5.505,93.847
	c-0.976,0.162-1.314,0.909-1.415,1.223c-0.101,0.314-0.26,1.119,0.439,1.818l99.514,99.515c0.699,0.698,1.504,0.542,1.818,0.439
	c0.313-0.101,1.061-0.439,1.223-1.415l0,0l7.944-47.879l-14.85-35.113l-7.753,7.753c0,2.993-1.139,5.986-3.418,8.265
	c-2.278,2.278-5.271,3.418-8.264,3.418c-0.001,0-0.001,0-0.001,0l-6.394,6.393l9.812,9.812c0.781,0.781,0.781,2.047,0,2.828
	s-2.047,0.781-2.828,0L70.13,139.7c-0.008-0.007-0.015-0.015-0.022-0.022c-0.008-0.008-0.016-0.015-0.022-0.022l-4.377-4.378
	c-0.01-0.009-0.019-0.018-0.027-0.026s-0.018-0.018-0.026-0.027l-15.625-15.625c-0.781-0.781-0.781-2.047,0-2.828
	s2.047-0.781,2.828,0l9.841,9.841l6.363-6.364c-0.015-3.012,1.125-6.029,3.418-8.322s5.316-3.421,8.322-3.418l9.578-9.577
	c0.067-0.097,0.143-0.187,0.227-0.271l2.399-2.399L86.648,80.383z M103.231,109.382l13.021,30.791l8.717-52.528L103.231,109.382z
	 M69.924,133.836l1.598,1.598l4.538-4.537c-0.711-0.311-1.396-0.693-2.046-1.151L69.924,133.836z M65.526,129.439l1.568,1.568
	l4.091-4.091c-0.448-0.636-0.826-1.309-1.133-2.004L65.526,129.439z M76.908,126.852c0.731,0.42,1.518,0.711,2.324,0.872
	l9.051-9.051c-0.163-0.819-0.458-1.602-0.875-2.322L76.908,126.852z M73.218,121.748c0.163,0.79,0.45,1.559,0.862,2.275l10.5-10.5
	c-0.706-0.408-1.472-0.699-2.273-0.864L73.218,121.748z M90.301,113.458c0.458,0.649,0.841,1.335,1.151,2.046l6.586-6.586
	l-1.599-1.599L90.301,113.458z M85.468,109.498c0.695,0.307,1.368,0.685,2.004,1.133l6.14-6.139l-1.568-1.568L85.468,109.498z
	 M99.269,104.492l1.591,1.591l63.993-63.993c0.05-0.051,0.103-0.098,0.157-0.142l6.922-6.922c0.781-0.781,2.047-0.781,2.828,0
	s0.781,2.047,0,2.828l-5.637,5.638c1.23,0.943,2.997,0.916,4.195-0.123l21.51-18.642c1.292-1.12,2.037-2.678,2.098-4.388
	c0.062-1.709-0.571-3.316-1.78-4.525L185.118,5.787c-1.21-1.209-2.823-1.835-4.526-1.781c-1.709,0.062-3.268,0.807-4.388,2.099
	l-18.64,21.508c-1.05,1.211-1.068,2.999-0.098,4.23l20.491-20.491c0.781-0.781,2.047-0.781,2.828,0s0.781,2.047,0,2.828
	l-85.915,85.915l1.568,1.569l78.49-78.49c0.781-0.781,2.047-0.781,2.828,0s0.781,2.047,0,2.828L99.269,104.492z M90.689,79.713
	l5.395,13.469l17.221-17.222L90.689,79.713z"/>
<g>
</g>
<g>
</g>
<g>
</g>
<g>
</g>
<g>
</g>
<g>
</g>
<g>
</g>
<g>
</g>
<g>
</g>
<g>
</g>
<g>
</g>
<g>
</g>
<g>
</g>
<g>
</g>
<g>
</g>
</svg>
