<?xml version="1.0" encoding="iso-8859-1"?>
<!-- Generator: Adobe Illustrator 17.1.0, SVG Export Plug-In . SVG Version: 6.00 Build 0)  -->
<!DOCTYPE svg PUBLIC "-//W3C//DTD SVG 1.1//EN" "http://www.w3.org/Graphics/SVG/1.1/DTD/svg11.dtd">
<svg version="1.1" id="Capa_1" xmlns="http://www.w3.org/2000/svg" xmlns:xlink="http://www.w3.org/1999/xlink" x="0px" y="0px"
	 viewBox="0 0 190.569 190.569" style="enable-background:new 0 0 190.569 190.569;" xml:space="preserve">
<path d="M174.028,164.785H16.542C7.421,164.785,0,157.364,0,148.243V42.326c0-9.121,7.421-16.542,16.542-16.542h157.486
	c9.121,0,16.541,7.42,16.541,16.542v105.917C190.569,157.364,183.149,164.785,174.028,164.785z M16.542,29.785
	C9.626,29.785,4,35.411,4,42.326v105.917c0,6.916,5.626,12.542,12.542,12.542h157.486c6.915,0,12.541-5.626,12.541-12.542V42.326
	c0-6.916-5.626-12.542-12.541-12.542H16.542z M164.263,147.294c-1.104,0-2-0.896-2-2V91.015c-3.1-0.874-5.378-3.728-5.378-7.104
	c0-3.375,2.278-6.229,5.378-7.103V45.275c0-1.104,0.896-2,2-2s2,0.896,2,2v31.533c3.101,0.874,5.379,3.728,5.379,7.103
	c0,3.376-2.278,6.229-5.379,7.104v54.279C166.263,146.398,165.367,147.294,164.263,147.294z M164.263,80.533
	c-1.862,0-3.378,1.516-3.378,3.378c0,1.863,1.516,3.379,3.378,3.379c1.863,0,3.379-1.516,3.379-3.379
	C167.642,82.049,166.126,80.533,164.263,80.533z M136.672,147.294c-1.104,0-2-0.896-2-2v-14.369
	c-3.101-0.874-5.379-3.728-5.379-7.104c0-3.375,2.278-6.229,5.379-7.103V45.275c0-1.104,0.896-2,2-2s2,0.896,2,2v71.443
	c3.101,0.874,5.379,3.728,5.379,7.103c0,3.376-2.278,6.229-5.379,7.104v14.369C138.672,146.398,137.776,147.294,136.672,147.294z
	 M136.672,120.443c-1.863,0-3.379,1.516-3.379,3.378c0,1.863,1.516,3.379,3.379,3.379s3.379-1.516,3.379-3.379
	C140.051,121.958,138.535,120.443,136.672,120.443z M109.08,147.294c-1.104,0-2-0.896-2-2V80.258
	c-3.1-0.874-5.378-3.728-5.378-7.104c0-3.375,2.278-6.229,5.378-7.103V45.275c0-1.104,0.896-2,2-2s2,0.896,2,2v20.776
	c3.101,0.874,5.379,3.728,5.379,7.103c0,3.376-2.278,6.229-5.379,7.104v65.036C111.08,146.398,110.185,147.294,109.08,147.294z
	 M109.08,69.776c-1.862,0-3.378,1.516-3.378,3.378c0,1.863,1.516,3.379,3.378,3.379c1.863,0,3.379-1.516,3.379-3.379
	C112.459,71.292,110.943,69.776,109.08,69.776z M81.489,147.294c-1.104,0-2-0.896-2-2v-17.27c-3.1-0.874-5.378-3.728-5.378-7.103
	c0-3.376,2.278-6.229,5.378-7.104V45.275c0-1.104,0.896-2,2-2s2,0.896,2,2v68.542c3.1,0.874,5.379,3.728,5.379,7.104
	c0,3.375-2.279,6.229-5.379,7.103v17.27C83.489,146.398,82.594,147.294,81.489,147.294z M81.489,117.542
	c-1.863,0-3.378,1.516-3.378,3.379c0,1.863,1.516,3.378,3.378,3.378c1.863,0,3.379-1.516,3.379-3.378
	C84.868,119.058,83.353,117.542,81.489,117.542z M53.898,147.294c-1.104,0-2-0.896-2-2V66.891c-3.1-0.874-5.378-3.728-5.378-7.104
	c0-3.375,2.278-6.229,5.378-7.103v-7.409c0-1.104,0.896-2,2-2s2,0.896,2,2v7.409c3.1,0.874,5.379,3.728,5.379,7.103
	c0,3.376-2.279,6.229-5.379,7.104v78.403C55.898,146.398,55.002,147.294,53.898,147.294z M53.898,63.146
	c0.076,0,0.151,0.004,0.226,0.013c1.758-0.117,3.153-1.584,3.153-3.372c0-1.863-1.516-3.378-3.379-3.378
	c-1.863,0-3.378,1.516-3.378,3.378c0,1.787,1.395,3.255,3.153,3.372C53.747,63.15,53.822,63.146,53.898,63.146z M26.307,147.294
	c-1.104,0-2-0.896-2-2V95.86c-3.1-0.874-5.378-3.728-5.378-7.104c0-3.375,2.278-6.229,5.378-7.103V45.275c0-1.104,0.896-2,2-2
	s2,0.896,2,2v36.378c3.1,0.874,5.379,3.728,5.379,7.103c0,3.376-2.279,6.229-5.379,7.104v49.434
	C28.307,146.398,27.411,147.294,26.307,147.294z M26.307,85.378c-1.863,0-3.378,1.516-3.378,3.378c0,1.863,1.516,3.379,3.378,3.379
	c1.863,0,3.379-1.516,3.379-3.379C29.686,86.894,28.17,85.378,26.307,85.378z"/>
<g>
</g>
<g>
</g>
<g>
</g>
<g>
</g>
<g>
</g>
<g>
</g>
<g>
</g>
<g>
</g>
<g>
</g>
<g>
</g>
<g>
</g>
<g>
</g>
<g>
</g>
<g>
</g>
<g>
</g>
</svg>
