<?xml version="1.0" encoding="utf-8"?>
<!-- Generator: Adobe Illustrator 21.0.2, SVG Export Plug-In . SVG Version: 6.00 Build 0)  -->
<svg version="1.1" id="Capa_1" xmlns="http://www.w3.org/2000/svg" xmlns:xlink="http://www.w3.org/1999/xlink" x="0px" y="0px"
	 viewBox="0 0 205.1 205.1" style="enable-background:new 0 0 205.1 205.1;" xml:space="preserve">
<path d="M137.9,184.7l-10.8-4.4c-5.3-2.2-8-8.3-5.8-13.7l8.3-20.8l-6.8-2.7c-0.5-0.2-0.9-0.6-1.1-1.1c-0.2-0.5-0.2-1.1,0-1.6
	l3.4-7.7c-28.5,1-56.2,10.4-78.5,26.7l-21.7,15.9c-2,1.5-4.7,1.7-7,0.6c-2.1-1.1-3.4-3.1-3.4-5.4v-38.9C5.5,125,0,112.3,0,98.1
	s5.5-26.9,14.4-33.5V25.7c0-2.3,1.3-4.3,3.4-5.4c2.3-1.2,5-0.9,7,0.5l6.6,4.8c0,0,0,0,0,0l16.3,11.9c23.6,17.3,53.3,26.8,83.4,26.8
	h49.4c6.3,0,11.4,4.8,11.4,10.6v0.8c8.1,4.4,13.3,13,13.3,22.2s-5.2,17.8-13.3,22.2v1.6c0,5.9-5.1,10.6-11.4,10.6h-9.8l-19,46.3
	c-1.1,2.6-3.1,4.7-5.7,5.8c-1.3,0.6-2.7,0.8-4.1,0.8C140.6,185.5,139.2,185.3,137.9,184.7z M139,132.6l-5,12.7c0,0,0,0,0,0
	c0,0,0,0,0,0l-9,22.7c-1.3,3.3,0.3,7.2,3.6,8.5l10.8,4.4c1.6,0.7,3.4,0.7,5.1,0c1.6-0.7,2.9-2,3.6-3.6l18.3-44.8H139z M28.2,28.3
	l-5.8-4.2c-1-0.7-2.1-0.6-2.8-0.2c-0.4,0.2-1.2,0.7-1.2,1.8v144.8c0,1.1,0.8,1.6,1.2,1.8c0.7,0.4,1.9,0.5,2.8-0.2l5.8-4.2V28.3z
	 M106.8,130.4v-64C84.5,62.8,63.2,54,45.3,40.9l-13.1-9.6V165l12-8.8C62.4,142.9,84.1,134,106.8,130.4L106.8,130.4z M134.7,132.6
	H130c-0.2,0-0.4,0-0.5,0l-3.3,7.5l4.9,1.9L134.7,132.6L134.7,132.6z M180.5,68.5h-49.4c-6.8,0-13.6-0.5-20.3-1.4v62.8
	c6.3-0.8,12.7-1.2,19.1-1.2h50.5c4.1,0,7.4-3,7.4-6.6V75.1C187.9,71.4,184.6,68.5,180.5,68.5L180.5,68.5z M4,98.1
	c0,11.4,4,22,10.4,28.3V69.9C8,76.1,4,86.7,4,98.1z M191.9,115.7c5.7-3.9,9.3-10.5,9.3-17.5s-3.5-13.6-9.3-17.5V115.7z M179.5,108.9
	V78.1c0-0.9-0.7-1.6-1.6-1.6h-50.9c-1.1,0-2-0.9-2-2s0.9-2,2-2H178c3.1,0,5.6,2.5,5.6,5.6v30.8c0,1.1-0.9,2-2,2
	C180.4,110.9,179.5,110,179.5,108.9z"/>
</svg>
