<?xml version="1.0" encoding="iso-8859-1"?>
<!-- Generator: Adobe Illustrator 17.1.0, SVG Export Plug-In . SVG Version: 6.00 Build 0)  -->
<!DOCTYPE svg PUBLIC "-//W3C//DTD SVG 1.1//EN" "http://www.w3.org/Graphics/SVG/1.1/DTD/svg11.dtd">
<svg version="1.1" id="Capa_1" xmlns="http://www.w3.org/2000/svg" xmlns:xlink="http://www.w3.org/1999/xlink" x="0px" y="0px"
	 viewBox="0 0 202.5 202.5" style="enable-background:new 0 0 202.5 202.5;" xml:space="preserve">
<path d="M141,202.5H61.5c-10.89,0-19.75-9.108-19.75-20.304V20.304C41.75,9.108,50.61,0,61.5,0H141
	c10.89,0,19.75,9.108,19.75,20.304v161.893C160.75,193.392,151.89,202.5,141,202.5z M61.5,4c-8.685,0-15.75,7.313-15.75,16.304
	v161.893c0,8.99,7.065,16.304,15.75,16.304H141c8.685,0,15.75-7.313,15.75-16.304V20.304C156.75,11.313,149.685,4,141,4H61.5z
	 M101.25,193.84c-5.376,0-9.75-4.374-9.75-9.75s4.374-9.75,9.75-9.75s9.75,4.374,9.75,9.75S106.626,193.84,101.25,193.84z
	 M101.25,178.34c-3.17,0-5.75,2.579-5.75,5.75s2.58,5.75,5.75,5.75s5.75-2.579,5.75-5.75S104.42,178.34,101.25,178.34z M152.5,170.5
	H50c-1.104,0-2-0.896-2-2V23c0-1.104,0.896-2,2-2h102.5c1.104,0,2,0.896,2,2v145.5C154.5,169.604,153.604,170.5,152.5,170.5z
	 M52,166.5h98.5V130H52V166.5z M52,126h98.5V44.5H52V126z M52,40.5h98.5V25H52V40.5z M94.063,160.906c-0.345,0-0.69-0.089-1-0.268
	c-0.619-0.357-1-1.018-1-1.732v-19.02c0-0.715,0.381-1.375,1-1.732c0.619-0.357,1.381-0.357,2,0l16.471,9.51
	c0.619,0.357,1,1.018,1,1.732s-0.381,1.375-1,1.732l-16.471,9.51C94.753,160.817,94.408,160.906,94.063,160.906z M96.063,143.351
	v12.092l10.471-6.046L96.063,143.351z M134.848,157.461c-0.537,0-1.073-0.215-1.467-0.64c-0.751-0.811-0.704-2.075,0.106-2.827
	l4.958-4.598l-4.957-4.597c-0.81-0.751-0.858-2.017-0.106-2.827c0.751-0.81,2.017-0.855,2.826-0.106l6.538,6.063
	c0.408,0.379,0.64,0.91,0.64,1.467s-0.232,1.088-0.64,1.467l-6.538,6.064C135.822,157.284,135.334,157.461,134.848,157.461z
	 M126.055,157.461c-0.537,0-1.073-0.215-1.467-0.64c-0.751-0.811-0.704-2.075,0.106-2.827l4.958-4.598l-4.957-4.597
	c-0.81-0.751-0.857-2.017-0.106-2.827c0.751-0.81,2.017-0.855,2.826-0.106l6.538,6.063c0.408,0.379,0.64,0.91,0.64,1.467
	s-0.232,1.088-0.64,1.467l-6.538,6.064C127.029,157.284,126.542,157.461,126.055,157.461z M76.445,157.461
	c-0.487,0-0.975-0.177-1.36-0.534l-6.538-6.064c-0.408-0.378-0.64-0.909-0.64-1.466s0.232-1.088,0.64-1.467l6.538-6.063
	c0.809-0.75,2.075-0.704,2.826,0.106c0.751,0.811,0.704,2.075-0.106,2.827l-4.957,4.597l4.957,4.599
	c0.81,0.751,0.857,2.017,0.106,2.826C77.518,157.246,76.982,157.461,76.445,157.461z M67.652,157.461
	c-0.487,0-0.975-0.177-1.36-0.534l-6.538-6.064c-0.408-0.378-0.64-0.909-0.64-1.466s0.232-1.088,0.64-1.467l6.538-6.063
	c0.809-0.75,2.074-0.704,2.826,0.106c0.751,0.811,0.704,2.075-0.106,2.827l-4.957,4.597l4.957,4.599
	c0.81,0.751,0.857,2.017,0.106,2.826C68.725,157.246,68.189,157.461,67.652,157.461z M140.854,123.833h-7.333c-1.104,0-2-0.896-2-2
	s0.896-2,2-2h7.333c1.104,0,2,0.896,2,2S141.959,123.833,140.854,123.833z M126.479,123.833h-7.333c-1.104,0-2-0.896-2-2
	s0.896-2,2-2h7.333c1.104,0,2,0.896,2,2S127.584,123.833,126.479,123.833z M112.104,123.833h-7.333c-1.104,0-2-0.896-2-2
	s0.896-2,2-2h7.333c1.104,0,2,0.896,2,2S113.209,123.833,112.104,123.833z M97.729,123.833h-7.333c-1.104,0-2-0.896-2-2s0.896-2,2-2
	h7.333c1.104,0,2,0.896,2,2S98.834,123.833,97.729,123.833z M83.354,123.833h-7.333c-1.104,0-2-0.896-2-2s0.896-2,2-2h7.333
	c1.104,0,2,0.896,2,2S84.459,123.833,83.354,123.833z M68.979,123.833h-7.333c-1.104,0-2-0.896-2-2s0.896-2,2-2h7.333
	c1.104,0,2,0.896,2,2S70.084,123.833,68.979,123.833z M126.479,117h-7.333c-1.104,0-2-0.896-2-2s0.896-2,2-2h7.333
	c1.104,0,2,0.896,2,2S127.584,117,126.479,117z M112.104,117h-7.333c-1.104,0-2-0.896-2-2s0.896-2,2-2h7.333c1.104,0,2,0.896,2,2
	S113.209,117,112.104,117z M97.729,117h-7.333c-1.104,0-2-0.896-2-2s0.896-2,2-2h7.333c1.104,0,2,0.896,2,2S98.834,117,97.729,117z
	 M83.354,117h-7.333c-1.104,0-2-0.896-2-2s0.896-2,2-2h7.333c1.104,0,2,0.896,2,2S84.459,117,83.354,117z M68.979,117h-7.333
	c-1.104,0-2-0.896-2-2s0.896-2,2-2h7.333c1.104,0,2,0.896,2,2S70.084,117,68.979,117z M126.479,110.167h-7.333c-1.104,0-2-0.896-2-2
	s0.896-2,2-2h7.333c1.104,0,2,0.896,2,2S127.584,110.167,126.479,110.167z M112.104,110.167h-7.333c-1.104,0-2-0.896-2-2
	s0.896-2,2-2h7.333c1.104,0,2,0.896,2,2S113.209,110.167,112.104,110.167z M97.729,110.167h-7.333c-1.104,0-2-0.896-2-2s0.896-2,2-2
	h7.333c1.104,0,2,0.896,2,2S98.834,110.167,97.729,110.167z M83.354,110.167h-7.333c-1.104,0-2-0.896-2-2s0.896-2,2-2h7.333
	c1.104,0,2,0.896,2,2S84.459,110.167,83.354,110.167z M68.979,110.167h-7.333c-1.104,0-2-0.896-2-2s0.896-2,2-2h7.333
	c1.104,0,2,0.896,2,2S70.084,110.167,68.979,110.167z M112.104,103.333h-7.333c-1.104,0-2-0.896-2-2s0.896-2,2-2h7.333
	c1.104,0,2,0.896,2,2S113.209,103.333,112.104,103.333z M97.729,103.333h-7.333c-1.104,0-2-0.896-2-2s0.896-2,2-2h7.333
	c1.104,0,2,0.896,2,2S98.834,103.333,97.729,103.333z M83.354,103.333h-7.333c-1.104,0-2-0.896-2-2s0.896-2,2-2h7.333
	c1.104,0,2,0.896,2,2S84.459,103.333,83.354,103.333z M68.979,103.333h-7.333c-1.104,0-2-0.896-2-2s0.896-2,2-2h7.333
	c1.104,0,2,0.896,2,2S70.084,103.333,68.979,103.333z M112.104,96.5h-7.333c-1.104,0-2-0.896-2-2s0.896-2,2-2h7.333
	c1.104,0,2,0.896,2,2S113.209,96.5,112.104,96.5z M97.729,96.5h-7.333c-1.104,0-2-0.896-2-2s0.896-2,2-2h7.333c1.104,0,2,0.896,2,2
	S98.834,96.5,97.729,96.5z M83.354,96.5h-7.333c-1.104,0-2-0.896-2-2s0.896-2,2-2h7.333c1.104,0,2,0.896,2,2
	S84.459,96.5,83.354,96.5z M112.104,89.667h-7.333c-1.104,0-2-0.896-2-2s0.896-2,2-2h7.333c1.104,0,2,0.896,2,2
	S113.209,89.667,112.104,89.667z M97.729,89.667h-7.333c-1.104,0-2-0.896-2-2s0.896-2,2-2h7.333c1.104,0,2,0.896,2,2
	S98.834,89.667,97.729,89.667z M112.104,82.833h-7.333c-1.104,0-2-0.896-2-2s0.896-2,2-2h7.333c1.104,0,2,0.896,2,2
	S113.209,82.833,112.104,82.833z M143.333,35h-29c-1.104,0-2-0.896-2-2s0.896-2,2-2h29c1.104,0,2,0.896,2,2S144.438,35,143.333,35z
	 M103.667,35h-44.5c-1.104,0-2-0.896-2-2s0.896-2,2-2h44.5c1.104,0,2,0.896,2,2S104.771,35,103.667,35z M105.313,15.125h-8.125
	c-1.104,0-2-0.896-2-2s0.896-2,2-2h8.125c1.104,0,2,0.896,2,2S106.417,15.125,105.313,15.125z"/>
<g>
</g>
<g>
</g>
<g>
</g>
<g>
</g>
<g>
</g>
<g>
</g>
<g>
</g>
<g>
</g>
<g>
</g>
<g>
</g>
<g>
</g>
<g>
</g>
<g>
</g>
<g>
</g>
<g>
</g>
</svg>
