<?xml version="1.0" encoding="iso-8859-1"?>
<!-- Generator: Adobe Illustrator 17.1.0, SVG Export Plug-In . SVG Version: 6.00 Build 0)  -->
<!DOCTYPE svg PUBLIC "-//W3C//DTD SVG 1.1//EN" "http://www.w3.org/Graphics/SVG/1.1/DTD/svg11.dtd">
<svg version="1.1" id="Capa_1" xmlns="http://www.w3.org/2000/svg" xmlns:xlink="http://www.w3.org/1999/xlink" x="0px" y="0px"
	 viewBox="0 0 191.56 191.56" style="enable-background:new 0 0 191.56 191.56;" xml:space="preserve">
<path d="M189.56,179.78h-48c-1.104,0-2-0.896-2-2V23.107c0-6.246,5.081-11.327,11.327-11.327h29.346
	c6.246,0,11.327,5.081,11.327,11.327V177.78C191.56,178.884,190.664,179.78,189.56,179.78z M143.56,175.78h44V23.107
	c0-4.04-3.287-7.327-7.327-7.327h-29.346c-4.04,0-7.327,3.287-7.327,7.327V175.78z M123.833,179.78h-56c-1.104,0-2-0.896-2-2
	v-49.757c0-5.832,4.745-10.577,10.577-10.577h3.34v-1.429c0-1.104,0.896-2,2-2s2,0.896,2,2v1.429h3.042v-1.429c0-1.104,0.896-2,2-2
	s2,0.896,2,2v1.429h3.041v-1.429c0-1.104,0.896-2,2-2s2,0.896,2,2v1.429h3.042v-1.429c0-1.104,0.896-2,2-2s2,0.896,2,2v1.429h3.042
	v-1.429c0-1.104,0.896-2,2-2s2,0.896,2,2v1.429h3.339c5.832,0,10.577,4.745,10.577,10.577v49.757
	C125.833,178.884,124.938,179.78,123.833,179.78z M69.833,175.78h52v-47.757c0-3.627-2.95-6.577-6.577-6.577H76.41
	c-3.627,0-6.577,2.95-6.577,6.577V175.78z M50,179.78H2c-1.104,0-2-0.896-2-2V23.107C0,16.861,5.081,11.78,11.327,11.78h29.346
	C46.919,11.78,52,16.861,52,23.107V177.78C52,178.884,51.104,179.78,50,179.78z M4,175.78h44V23.107c0-4.04-3.287-7.327-7.327-7.327
	H11.327C7.287,15.78,4,19.067,4,23.107V175.78z M173.518,169.815h-15.916c-1.104,0-2-0.896-2-2s0.896-2,2-2h15.916
	c1.104,0,2,0.896,2,2S174.622,169.815,173.518,169.815z M95.833,169.815c-5.616,0-10.186-4.569-10.186-10.186
	c0-5.617,4.569-10.187,10.186-10.187c5.617,0,10.187,4.569,10.187,10.187C106.02,165.246,101.45,169.815,95.833,169.815z
	 M95.833,153.443c-3.411,0-6.186,2.775-6.186,6.187s2.774,6.186,6.186,6.186s6.187-2.774,6.187-6.186S99.244,153.443,95.833,153.443
	z M33.958,169.815H18.042c-1.104,0-2-0.896-2-2s0.896-2,2-2h15.916c1.104,0,2,0.896,2,2S35.063,169.815,33.958,169.815z
	 M165.56,96.395c-9.098,0-16.5-7.402-16.5-16.5s7.402-16.5,16.5-16.5s16.5,7.402,16.5,16.5S174.657,96.395,165.56,96.395z
	 M165.56,67.395c-6.893,0-12.5,5.607-12.5,12.5s5.607,12.5,12.5,12.5s12.5-5.607,12.5-12.5S172.452,67.395,165.56,67.395z
	 M26,96.395c-9.098,0-16.5-7.402-16.5-16.5s7.402-16.5,16.5-16.5s16.5,7.402,16.5,16.5S35.098,96.395,26,96.395z M26,67.395
	c-6.893,0-12.5,5.607-12.5,12.5s5.607,12.5,12.5,12.5s12.5-5.607,12.5-12.5S32.893,67.395,26,67.395z M165.56,87.062
	c-3.952,0-7.167-3.215-7.167-7.167s3.215-7.167,7.167-7.167s7.167,3.215,7.167,7.167S169.512,87.062,165.56,87.062z M165.56,76.728
	c-1.746,0-3.167,1.421-3.167,3.167s1.421,3.167,3.167,3.167s3.167-1.421,3.167-3.167S167.306,76.728,165.56,76.728z M26,87.062
	c-3.952,0-7.167-3.215-7.167-7.167s3.215-7.167,7.167-7.167s7.167,3.215,7.167,7.167S29.952,87.062,26,87.062z M26,76.728
	c-1.746,0-3.167,1.421-3.167,3.167s1.421,3.167,3.167,3.167s3.167-1.421,3.167-3.167S27.746,76.728,26,76.728z M165.56,55.775
	c-9.098,0-16.5-7.402-16.5-16.5s7.402-16.5,16.5-16.5s16.5,7.402,16.5,16.5S174.657,55.775,165.56,55.775z M165.56,26.775
	c-6.893,0-12.5,5.607-12.5,12.5s5.607,12.5,12.5,12.5s12.5-5.607,12.5-12.5S172.452,26.775,165.56,26.775z M26,55.775
	c-9.098,0-16.5-7.402-16.5-16.5s7.402-16.5,16.5-16.5s16.5,7.402,16.5,16.5S35.098,55.775,26,55.775z M26,26.775
	c-6.893,0-12.5,5.607-12.5,12.5s5.607,12.5,12.5,12.5s12.5-5.607,12.5-12.5S32.893,26.775,26,26.775z M165.56,46.442
	c-3.952,0-7.167-3.215-7.167-7.167s3.215-7.167,7.167-7.167s7.167,3.215,7.167,7.167S169.512,46.442,165.56,46.442z M165.56,36.108
	c-1.746,0-3.167,1.421-3.167,3.167s1.421,3.167,3.167,3.167s3.167-1.421,3.167-3.167S167.306,36.108,165.56,36.108z M26,46.442
	c-3.952,0-7.167-3.215-7.167-7.167s3.215-7.167,7.167-7.167s7.167,3.215,7.167,7.167S29.952,46.442,26,46.442z M26,36.108
	c-1.746,0-3.167,1.421-3.167,3.167s1.421,3.167,3.167,3.167s3.167-1.421,3.167-3.167S27.746,36.108,26,36.108z"/>
<g>
</g>
<g>
</g>
<g>
</g>
<g>
</g>
<g>
</g>
<g>
</g>
<g>
</g>
<g>
</g>
<g>
</g>
<g>
</g>
<g>
</g>
<g>
</g>
<g>
</g>
<g>
</g>
<g>
</g>
</svg>
