<?xml version="1.0" encoding="iso-8859-1"?>
<!-- Generator: Adobe Illustrator 17.1.0, SVG Export Plug-In . SVG Version: 6.00 Build 0)  -->
<!DOCTYPE svg PUBLIC "-//W3C//DTD SVG 1.1//EN" "http://www.w3.org/Graphics/SVG/1.1/DTD/svg11.dtd">
<svg version="1.1" id="Capa_1" xmlns="http://www.w3.org/2000/svg" xmlns:xlink="http://www.w3.org/1999/xlink" x="0px" y="0px"
	 viewBox="0 0 213.131 213.131" style="enable-background:new 0 0 213.131 213.131;" xml:space="preserve">
<path d="M166,208.422c-1.654,0-3.316-0.398-4.853-1.206l-51.6-27.128c-1.866-0.98-4.095-0.982-5.963,0l-51.6,27.128
	c-3.531,1.857-7.731,1.555-10.96-0.793c-3.228-2.346-4.814-6.245-4.14-10.178l9.854-57.458c0.356-2.079-0.332-4.199-1.842-5.672
	L3.151,92.425c-2.857-2.785-3.867-6.873-2.633-10.668c1.233-3.796,4.452-6.51,8.401-7.084l57.69-8.383
	c2.087-0.304,3.891-1.614,4.824-3.505l25.8-52.276c1.766-3.578,5.342-5.801,9.333-5.801s7.566,2.223,9.333,5.801l0,0l25.8,52.276
	c0.934,1.891,2.737,3.201,4.825,3.505l57.69,8.383c3.949,0.574,7.168,3.288,8.401,7.084c1.233,3.795,0.224,7.883-2.633,10.668
	l-41.746,40.691c-1.51,1.472-2.199,3.592-1.842,5.671l9.854,57.458c0.674,3.933-0.912,7.832-4.14,10.178
	C170.283,207.748,168.148,208.422,166,208.422z M106.566,175.352c1.663,0,3.326,0.398,4.842,1.195l51.601,27.128
	c2.208,1.163,4.73,0.979,6.748-0.487c2.018-1.466,2.97-3.809,2.549-6.267l-9.854-57.458c-0.579-3.376,0.54-6.82,2.993-9.211
	l41.746-40.692c1.786-1.74,2.392-4.195,1.621-6.567c-0.771-2.372-2.704-4.002-5.172-4.36l-57.69-8.383
	c-3.391-0.494-6.32-2.622-7.836-5.694l-25.8-52.276c-1.104-2.235-3.251-3.57-5.746-3.57s-4.642,1.335-5.746,3.57l-25.8,52.276
	c-1.516,3.072-4.445,5.2-7.835,5.694L9.494,78.632c-2.468,0.358-4.402,1.988-5.172,4.36c-0.771,2.372-0.165,4.827,1.621,6.567
	l41.746,40.691c2.453,2.392,3.572,5.836,2.993,9.212l-9.854,57.458c-0.421,2.458,0.531,4.801,2.549,6.267
	c2.017,1.466,4.54,1.648,6.748,0.487l51.6-27.128C103.239,175.75,104.903,175.352,106.566,175.352z M50.291,194.077
	c-0.112,0-0.226-0.009-0.34-0.028c-1.089-0.188-1.82-1.221-1.633-2.31l9.886-57.639c0.083-0.485-0.078-0.981-0.43-1.324
	l-41.877-40.82c-1.509-1.472-2.042-3.63-1.391-5.634c0.651-2.004,2.351-3.438,4.437-3.741l57.873-8.409
	c0.487-0.07,0.909-0.376,1.126-0.818l25.881-52.44c0.488-0.991,1.688-1.396,2.679-0.909c0.99,0.489,1.397,1.688,0.908,2.679
	L81.528,75.124c-0.802,1.623-2.349,2.747-4.139,3.007L19.517,86.54c-0.831,0.12-1.121,0.752-1.208,1.018
	c-0.086,0.267-0.223,0.948,0.378,1.533l41.877,40.82c1.295,1.263,1.886,3.081,1.581,4.865l-9.886,57.639
	C52.092,193.39,51.247,194.077,50.291,194.077z M123.831,161.564H89.3c-1.104,0-2-0.896-2-2c0-3.3,2.685-5.984,5.984-5.984h0.675
	c3.878,0,7.033-3.155,7.033-7.033v-5.175c-11.615-1.827-20.496-11.345-20.496-22.774V100.2c0-1.104,0.896-2,2-2h4.025V83.572
	c0-11.053,8.992-20.045,20.044-20.045s20.044,8.992,20.044,20.045V98.2h4.025c1.104,0,2,0.896,2,2v18.396
	c0,11.43-8.881,20.947-20.496,22.774v5.175c0,3.878,3.155,7.033,7.033,7.033h0.675c3.299,0,5.984,2.685,5.984,5.984
	C125.831,160.668,124.936,161.564,123.831,161.564z M94.549,157.564h24.032c-5.81-0.309-10.442-5.132-10.442-11.018v-4.858h-3.147
	v4.858C104.992,152.432,100.36,157.255,94.549,157.564z M105.059,137.688h3.013c11.339,0,20.563-8.564,20.563-19.091V102.2h-2.025
	v13.478c0,11.053-8.992,20.045-20.044,20.045s-20.044-8.992-20.044-20.045V102.2h-2.025v16.396
	C84.496,129.123,93.72,137.688,105.059,137.688z M90.521,112.16v3.518c0,8.848,7.197,16.045,16.044,16.045
	s16.044-7.197,16.044-16.045v-3.518h-8.461c-1.104,0-2-0.896-2-2s0.896-2,2-2h8.461v-4h-8.461c-1.104,0-2-0.896-2-2s0.896-2,2-2
	h8.461v-4h-8.461c-1.104,0-2-0.896-2-2s0.896-2,2-2h8.461v-8.588c0-8.848-7.197-16.045-16.044-16.045s-16.044,7.197-16.044,16.045
	v8.588h8.461c1.104,0,2,0.896,2,2s-0.896,2-2,2h-8.461v4h8.461c1.104,0,2,0.896,2,2s-0.896,2-2,2h-8.461v4h8.461
	c1.104,0,2,0.896,2,2s-0.896,2-2,2H90.521z M118.528,86.097c-1.104,0-2-0.896-2-2c0-5.493-4.469-9.962-9.962-9.962
	s-9.962,4.469-9.962,9.962c0,1.104-0.896,2-2,2s-2-0.896-2-2c0-7.698,6.263-13.962,13.962-13.962s13.962,6.264,13.962,13.962
	C120.528,85.201,119.632,86.097,118.528,86.097z"/>
<g>
</g>
<g>
</g>
<g>
</g>
<g>
</g>
<g>
</g>
<g>
</g>
<g>
</g>
<g>
</g>
<g>
</g>
<g>
</g>
<g>
</g>
<g>
</g>
<g>
</g>
<g>
</g>
<g>
</g>
</svg>
