<?xml version="1.0" encoding="iso-8859-1"?>
<!-- Generator: Adobe Illustrator 17.1.0, SVG Export Plug-In . SVG Version: 6.00 Build 0)  -->
<!DOCTYPE svg PUBLIC "-//W3C//DTD SVG 1.1//EN" "http://www.w3.org/Graphics/SVG/1.1/DTD/svg11.dtd">
<svg version="1.1" id="Capa_1" xmlns="http://www.w3.org/2000/svg" xmlns:xlink="http://www.w3.org/1999/xlink" x="0px" y="0px"
	 viewBox="0 0 211.455 211.455" style="enable-background:new 0 0 211.455 211.455;" xml:space="preserve">
<path d="M194.309,191.961h-10.146c-0.53,0-1.038-0.21-1.413-0.585l-77.023-76.9l-77.023,76.9c-0.375,0.375-0.883,0.585-1.413,0.585
	H17.146c-0.809,0-1.539-0.487-1.848-1.235c-0.309-0.748-0.138-1.608,0.435-2.18l82.092-81.961L33.047,41.91H8.114
	C3.64,41.91,0,38.271,0,33.797V21.493c0-1.104,0.896-2,2-2h207.455c1.104,0,2,0.896,2,2v12.304c0,4.474-3.64,8.113-8.113,8.113
	h-24.934l-64.776,64.675l82.091,81.961c0.572,0.571,0.744,1.432,0.435,2.18C195.848,191.474,195.119,191.961,194.309,191.961z
	 M184.991,187.961h4.484L109.387,108c-0.376-0.375-0.587-0.884-0.587-1.415s0.211-1.04,0.587-1.415l63.359-63.26h-4.484
	l-61.122,61.024c-0.78,0.778-2.044,0.78-2.826,0L43.192,41.91h-4.484l63.359,63.26c0.376,0.375,0.587,0.884,0.587,1.415
	s-0.211,1.04-0.587,1.415l-80.088,79.961h4.484l77.851-77.727c0.782-0.779,2.046-0.779,2.826,0L184.991,187.961z M48.854,41.91
	l56.873,56.783l56.874-56.783H48.854z M177.581,37.91h25.761c2.269,0,4.113-1.846,4.113-4.113V23.493h-8.353v7.209
	c0,1.104-0.896,2-2,2H14.353c-1.104,0-2-0.896-2-2v-7.209H4v10.304c0,2.268,1.845,4.113,4.114,4.113H177.581z M186.561,28.702h8.541
	v-5.209h-8.541V28.702z M172.182,28.702h10.379v-5.209h-10.379V28.702z M157.803,28.702h10.379v-5.209h-10.379V28.702z
	 M143.424,28.702h10.379v-5.209h-10.379V28.702z M129.045,28.702h10.379v-5.209h-10.379V28.702z M114.667,28.702h10.379v-5.209
	h-10.379V28.702z M100.288,28.702h10.378v-5.209h-10.378V28.702z M85.909,28.702h10.379v-5.209H85.909V28.702z M71.53,28.702h10.379
	v-5.209H71.53V28.702z M57.151,28.702H67.53v-5.209H57.151V28.702z M42.773,28.702h10.378v-5.209H42.773V28.702z M28.394,28.702
	h10.379v-5.209H28.394V28.702z M16.353,28.702h8.042v-5.209h-8.042V28.702z"/>
<g>
</g>
<g>
</g>
<g>
</g>
<g>
</g>
<g>
</g>
<g>
</g>
<g>
</g>
<g>
</g>
<g>
</g>
<g>
</g>
<g>
</g>
<g>
</g>
<g>
</g>
<g>
</g>
<g>
</g>
</svg>
