<?xml version="1.0" encoding="iso-8859-1"?>
<!-- Generator: Adobe Illustrator 17.1.0, SVG Export Plug-In . SVG Version: 6.00 Build 0)  -->
<!DOCTYPE svg PUBLIC "-//W3C//DTD SVG 1.1//EN" "http://www.w3.org/Graphics/SVG/1.1/DTD/svg11.dtd">
<svg version="1.1" id="Capa_1" xmlns="http://www.w3.org/2000/svg" xmlns:xlink="http://www.w3.org/1999/xlink" x="0px" y="0px"
	 viewBox="0 0 191 191" style="enable-background:new 0 0 191 191;" xml:space="preserve">
<path d="M163.569,191c-4.822,0-8.745-3.923-8.745-8.745v-53.19c-7.682-3.376-13.06-11.059-13.06-19.973s5.378-16.597,13.06-19.973
	V8.745c0-4.822,3.923-8.745,8.745-8.745s8.745,3.923,8.745,8.745v80.374c7.681,3.376,13.059,11.059,13.059,19.973
	s-5.378,16.597-13.059,19.973v53.19C172.314,187.077,168.392,191,163.569,191z M158.824,130.376v51.879
	c0,2.616,2.129,4.745,4.745,4.745s4.745-2.129,4.745-4.745v-51.88c-1.519,0.339-3.097,0.519-4.715,0.521
	c-0.003-0.001-0.009-0.001-0.015,0c-0.01,0-0.021,0-0.031,0c-0.006-0.001-0.012-0.001-0.015,0
	C161.921,130.894,160.343,130.714,158.824,130.376z M163.557,126.896c0.008,0,0.018,0,0.025,0c0.006,0,0.01,0,0.012,0
	c2.033-0.003,4.064-0.367,6.039-1.083c0.082-0.03,0.165-0.054,0.249-0.072c6.71-2.554,11.491-9.053,11.491-16.648
	s-4.781-14.095-11.491-16.647c-0.084-0.02-0.167-0.043-0.249-0.073c-1.975-0.716-4.006-1.08-6.039-1.083c-0.002,0-0.006,0-0.012,0
	c-0.008,0-0.018,0-0.025,0c-0.006,0-0.01,0-0.012,0c-2.034,0.003-4.065,0.367-6.038,1.083c-0.083,0.03-0.166,0.055-0.251,0.073
	c-6.711,2.553-11.491,9.052-11.491,16.647s4.78,14.095,11.491,16.647c0.085,0.019,0.168,0.043,0.251,0.073
	c1.973,0.716,4.004,1.08,6.038,1.083C163.547,126.896,163.551,126.896,163.557,126.896z M163.6,87.288
	c1.618,0.002,3.196,0.182,4.715,0.521V8.745c0-2.616-2.129-4.745-4.745-4.745s-4.745,2.129-4.745,4.745v79.063
	c1.519-0.338,3.097-0.518,4.715-0.52c0.003,0,0.009,0,0.015,0c0.01,0,0.021,0,0.031,0C163.591,87.288,163.598,87.288,163.6,87.288z
	 M95.5,191c-4.822,0-8.745-3.923-8.745-8.745V62.234c-7.681-3.376-13.059-11.059-13.059-19.973s5.378-16.597,13.059-19.973V8.745
	C86.755,3.923,90.678,0,95.5,0s8.745,3.923,8.745,8.745v13.544c7.681,3.376,13.059,11.059,13.059,19.973
	s-5.378,16.597-13.059,19.973v120.021C104.245,187.077,100.322,191,95.5,191z M90.755,63.545v118.71
	c0,2.616,2.129,4.745,4.745,4.745s4.745-2.129,4.745-4.745V63.545c-1.519,0.339-3.097,0.519-4.715,0.521
	c-0.004-0.001-0.009,0-0.015,0c-0.01,0-0.021,0-0.031,0c-0.007,0-0.012,0-0.015,0C93.852,64.063,92.273,63.884,90.755,63.545z
	 M95.487,60.065c0.008,0,0.018,0,0.025,0c0.004,0,0.008,0,0.012,0c2.031-0.003,4.063-0.368,6.039-1.084
	c0.084-0.03,0.169-0.056,0.255-0.074c6.707-2.555,11.485-9.053,11.485-16.646c0-7.596-4.781-14.095-11.491-16.647
	c-0.084-0.02-0.167-0.043-0.249-0.073c-1.975-0.716-4.006-1.08-6.039-1.083c-0.002,0-0.006,0-0.012,0c-0.008,0-0.018,0-0.025,0
	c-0.006,0-0.01,0-0.012,0c-2.033,0.003-4.064,0.367-6.039,1.083c-0.082,0.03-0.165,0.054-0.249,0.073
	c-6.71,2.553-11.491,9.052-11.491,16.647c0,7.593,4.778,14.091,11.485,16.646c0.086,0.019,0.171,0.044,0.255,0.074
	c1.976,0.716,4.008,1.081,6.039,1.084C95.479,60.065,95.483,60.065,95.487,60.065z M95.53,20.458
	c1.618,0.002,3.196,0.182,4.715,0.52V8.745C100.245,6.129,98.116,4,95.5,4s-4.745,2.129-4.745,4.745v12.232
	c1.519-0.338,3.097-0.518,4.715-0.52c0.002,0,0.007-0.001,0.015,0c0.01,0,0.021,0,0.031,0C95.522,20.458,95.527,20.458,95.53,20.458
	z M27.431,191c-4.822,0-8.745-3.923-8.745-8.745v-24.091c-7.682-3.377-13.059-11.059-13.059-19.973s5.377-16.596,13.059-19.973
	V8.745C18.686,3.923,22.608,0,27.431,0s8.746,3.923,8.746,8.745v109.474c7.681,3.376,13.059,11.059,13.059,19.973
	s-5.378,16.597-13.059,19.973v24.091C36.177,187.077,32.253,191,27.431,191z M22.686,159.475v22.78c0,2.616,2.129,4.745,4.745,4.745
	c2.617,0,4.746-2.129,4.746-4.745v-22.78c-1.523,0.34-3.106,0.52-4.73,0.521c-0.008,0-0.012,0-0.015,0c-0.001,0-0.001,0-0.001,0
	c-0.007,0-0.011,0.002-0.018,0c-0.008,0-0.013,0-0.021,0c-0.005,0.001-0.011,0.001-0.019,0c-0.002,0-0.003,0-0.004,0
	C25.763,159.99,24.194,159.811,22.686,159.475z M27.404,155.995c0.011,0,0.018,0.001,0.034,0c0.001,0,0.003,0,0.005,0
	c2.038-0.002,4.074-0.366,6.051-1.084c0.084-0.03,0.17-0.056,0.256-0.074c6.707-2.555,11.485-9.053,11.485-16.646
	c0-7.596-4.781-14.095-11.491-16.647c-0.084-0.02-0.167-0.043-0.249-0.073c-1.979-0.717-4.015-1.081-6.052-1.083
	c-0.004,0-0.008,0-0.012,0c-0.011,0-0.026,0-0.031,0c-0.006,0-0.011,0-0.017,0c-0.001,0-0.001,0-0.002,0
	c-2.025,0.006-4.048,0.37-6.015,1.083c-0.081,0.03-0.164,0.054-0.247,0.072c-6.712,2.553-11.493,9.053-11.493,16.648
	c0,7.594,4.778,14.092,11.486,16.646c0.086,0.02,0.171,0.044,0.255,0.074c1.965,0.714,3.988,1.078,6.014,1.084
	c0.004,0,0.007,0,0.01,0C27.396,155.995,27.397,155.995,27.404,155.995z M27.431,4c-2.616,0-4.745,2.129-4.745,4.745v108.163
	c1.509-0.336,3.077-0.516,4.685-0.521c0.002-0.001,0.008-0.001,0.013,0c0.008,0,0.01,0,0.016,0c0.005,0,0.01,0,0.015,0
	c0-0.001,0.011,0,0.018,0c0,0,0,0,0.001,0l0,0c0.004,0,0.009,0,0.015,0c1.624,0.001,3.207,0.181,4.73,0.521V8.745
	C32.177,6.129,30.048,4,27.431,4z M27.432,152.51c-7.896,0-14.318-6.423-14.318-14.318s6.423-14.318,14.318-14.318
	c1.104,0,2,0.896,2,2s-0.896,2-2,2c-5.689,0-10.318,4.629-10.318,10.318s4.629,10.318,10.318,10.318c1.104,0,2,0.896,2,2
	S28.536,152.51,27.432,152.51z M163.569,123.41c-7.896,0-14.318-6.423-14.318-14.318s6.423-14.318,14.318-14.318
	c1.104,0,2,0.896,2,2s-0.896,2-2,2c-5.689,0-10.318,4.629-10.318,10.318s4.629,10.318,10.318,10.318c1.104,0,2,0.896,2,2
	S164.674,123.41,163.569,123.41z M95.5,56.58c-7.896,0-14.318-6.423-14.318-14.318S87.604,27.943,95.5,27.943c1.104,0,2,0.896,2,2
	s-0.896,2-2,2c-5.689,0-10.318,4.629-10.318,10.318S89.811,52.58,95.5,52.58c1.104,0,2,0.896,2,2S96.604,56.58,95.5,56.58z"/>
<g>
</g>
<g>
</g>
<g>
</g>
<g>
</g>
<g>
</g>
<g>
</g>
<g>
</g>
<g>
</g>
<g>
</g>
<g>
</g>
<g>
</g>
<g>
</g>
<g>
</g>
<g>
</g>
<g>
</g>
</svg>
