<?xml version="1.0" encoding="iso-8859-1"?>
<!-- Generator: Adobe Illustrator 17.1.0, SVG Export Plug-In . SVG Version: 6.00 Build 0)  -->
<!DOCTYPE svg PUBLIC "-//W3C//DTD SVG 1.1//EN" "http://www.w3.org/Graphics/SVG/1.1/DTD/svg11.dtd">
<svg version="1.1" id="Capa_1" xmlns="http://www.w3.org/2000/svg" xmlns:xlink="http://www.w3.org/1999/xlink" x="0px" y="0px"
	 viewBox="0 0 189.607 189.607" style="enable-background:new 0 0 189.607 189.607;" xml:space="preserve">
<path d="M162.692,158.466c-0.01,0-0.019,0-0.028,0H29.863c-0.02,0-0.038,0-0.058,0H8.777c-4.84,0-8.777-3.938-8.777-8.777V39.918
	c0-4.839,3.938-8.777,8.777-8.777h172.054c4.839,0,8.776,3.938,8.776,8.777v109.771c0,4.839-3.938,8.777-8.776,8.777h-18.109
	C162.712,158.466,162.702,158.466,162.692,158.466z M164.45,154.466h16.381c2.634,0,4.776-2.143,4.776-4.777V39.918
	c0-2.634-2.143-4.777-4.776-4.777H8.777C6.144,35.141,4,37.284,4,39.918v109.771c0,2.634,2.144,4.777,4.777,4.777h19.3l1.916-14.583
	c0.656-4.99,4.946-8.753,9.979-8.753h112.583c5.032,0,9.322,3.763,9.979,8.753L164.45,154.466z M32.112,154.466h128.303
	l-1.848-14.062c-0.395-3.007-2.979-5.274-6.012-5.274H39.973c-3.033,0-5.618,2.268-6.013,5.274L32.112,154.466z M146.928,150.545
	h-15.501c-1.104,0-2-0.896-2-2v-7.495c0-1.104,0.896-2,2-2h15.501c1.104,0,2,0.896,2,2v7.495
	C148.928,149.65,148.032,150.545,146.928,150.545z M133.427,146.545h11.501v-3.495h-11.501V146.545z M75.17,150.545h-7.494
	c-1.104,0-2-0.896-2-2v-7.495c0-1.104,0.896-2,2-2h7.494c1.104,0,2,0.896,2,2v7.495C77.17,149.65,76.274,150.545,75.17,150.545z
	 M69.676,146.545h3.494v-3.495h-3.494V146.545z M52.766,150.545h-7.494c-1.104,0-2-0.896-2-2v-7.495c0-1.104,0.896-2,2-2h7.494
	c1.104,0,2,0.896,2,2v7.495C54.766,149.65,53.87,150.545,52.766,150.545z M47.271,146.545h3.494v-3.495h-3.494V146.545z
	 M56.474,125.891c-22.495,0-40.797-18.301-40.797-40.797s18.302-40.797,40.797-40.797s40.797,18.301,40.797,40.797
	S78.969,125.891,56.474,125.891z M56.474,48.298c-20.29,0-36.797,16.507-36.797,36.797s16.507,36.797,36.797,36.797
	s36.797-16.507,36.797-36.797S76.764,48.298,56.474,48.298z M56.474,118.789c-18.579,0-33.694-15.115-33.694-33.694
	S37.895,51.4,56.474,51.4c1.104,0,2,0.896,2,2s-0.896,2-2,2c-16.373,0-29.694,13.321-29.694,29.694s13.321,29.694,29.694,29.694
	c1.104,0,2,0.896,2,2S57.578,118.789,56.474,118.789z M141.222,111.635c-14.635,0-26.541-11.906-26.541-26.54
	s11.906-26.541,26.541-26.541c14.634,0,26.54,11.906,26.54,26.541S155.855,111.635,141.222,111.635z M141.222,62.554
	c-12.429,0-22.541,10.112-22.541,22.541s10.112,22.54,22.541,22.54s22.54-10.111,22.54-22.54S153.65,62.554,141.222,62.554z
	 M141.222,104.828c-10.882,0-19.734-8.853-19.734-19.733s8.853-19.733,19.734-19.733c1.104,0,2,0.896,2,2s-0.896,2-2,2
	c-8.676,0-15.734,7.058-15.734,15.733s7.059,15.733,15.734,15.733c1.104,0,2,0.896,2,2S142.326,104.828,141.222,104.828z
	 M141.222,98.297c-7.279,0-13.202-5.922-13.202-13.202s5.923-13.202,13.202-13.202s13.202,5.922,13.202,13.202
	S148.501,98.297,141.222,98.297z M141.222,75.892c-5.074,0-9.202,4.128-9.202,9.202s4.128,9.202,9.202,9.202
	s9.202-4.128,9.202-9.202S146.296,75.892,141.222,75.892z M56.474,98.297c-7.279,0-13.202-5.922-13.202-13.202
	s5.923-13.202,13.202-13.202s13.202,5.922,13.202,13.202S63.753,98.297,56.474,98.297z M56.474,75.892
	c-5.074,0-9.202,4.128-9.202,9.202s4.128,9.202,9.202,9.202s9.202-4.128,9.202-9.202S61.548,75.892,56.474,75.892z"/>
<g>
</g>
<g>
</g>
<g>
</g>
<g>
</g>
<g>
</g>
<g>
</g>
<g>
</g>
<g>
</g>
<g>
</g>
<g>
</g>
<g>
</g>
<g>
</g>
<g>
</g>
<g>
</g>
<g>
</g>
</svg>
