<?xml version="1.0" encoding="iso-8859-1"?>
<!-- Generator: Adobe Illustrator 17.1.0, SVG Export Plug-In . SVG Version: 6.00 Build 0)  -->
<!DOCTYPE svg PUBLIC "-//W3C//DTD SVG 1.1//EN" "http://www.w3.org/Graphics/SVG/1.1/DTD/svg11.dtd">
<svg version="1.1" id="Capa_1" xmlns="http://www.w3.org/2000/svg" xmlns:xlink="http://www.w3.org/1999/xlink" x="0px" y="0px"
	 viewBox="0 0 196.676 196.676" style="enable-background:new 0 0 196.676 196.676;" xml:space="preserve">
<path d="M9.001,196.655c-2.1,0-4.197-0.799-5.795-2.396L2.4,193.453c-1.548-1.548-2.4-3.606-2.4-5.795
	c0-2.189,0.853-4.248,2.4-5.795l65.158-65.158c0.009-0.009,0.018-0.018,0.026-0.026c-1.874-3.763-2.864-7.94-2.864-12.273
	c0-7.364,2.861-14.281,8.057-19.477l83.773-83.773c1.512-1.512,4.145-1.512,5.656,0l2.96,2.96c1.56,1.56,1.56,4.098,0,5.657
	L81.395,93.545c-2.9,2.9-4.498,6.757-4.498,10.858s1.598,7.958,4.497,10.859c2.895,2.895,6.751,4.489,10.859,4.489
	c4.109,0,7.966-1.595,10.86-4.489l83.773-83.773c0.755-0.755,1.76-1.171,2.829-1.171c1.07,0,2.075,0.417,2.83,1.174l2.958,2.958
	c0.756,0.756,1.172,1.76,1.172,2.828s-0.416,2.072-1.172,2.828L111.73,123.88c-5.203,5.203-12.12,8.068-19.477,8.068
	c-4.331,0-8.511-0.993-12.276-2.872c-0.008,0.008-0.016,0.016-0.023,0.023l-65.158,65.158
	C13.198,195.856,11.099,196.655,9.001,196.655z M68.973,120.947L5.229,184.691C4.436,185.484,4,186.537,4,187.658
	c0,1.12,0.437,2.174,1.229,2.967l0.806,0.806c1.635,1.635,4.297,1.635,5.934,0l63.744-63.744L68.973,120.947z M159.379,3.983
	L75.605,87.756c-4.439,4.44-6.885,10.353-6.885,16.648c0,6.295,2.445,12.207,6.885,16.647c4.447,4.447,10.36,6.896,16.648,6.896
	s12.201-2.449,16.648-6.896l83.775-83.775l-2.962-2.958l-83.774,83.772c-3.649,3.65-8.511,5.661-13.688,5.661
	c-5.177,0-10.038-2.011-13.688-5.661c-3.656-3.656-5.669-8.518-5.669-13.688s2.014-10.03,5.67-13.687l83.772-83.773L159.379,3.983z
	 M137.993,125.933c-0.512,0-1.023-0.195-1.414-0.586c-0.781-0.781-0.781-2.047,0-2.828l45.269-45.269
	c0.781-0.781,2.047-0.781,2.828,0s0.781,2.047,0,2.828l-45.269,45.269C139.017,125.738,138.505,125.933,137.993,125.933z
	 M158.147,125.059c-0.512,0-1.023-0.195-1.414-0.586c-0.781-0.781-0.781-2.047,0-2.828l24.24-24.24c0.781-0.781,2.047-0.781,2.828,0
	s0.781,2.047,0,2.828l-24.24,24.24C159.171,124.864,158.659,125.059,158.147,125.059z M72.313,60.254
	c-0.512,0-1.023-0.195-1.414-0.586c-0.781-0.781-0.781-2.047,0-2.828l45.269-45.27c0.781-0.781,2.047-0.781,2.828,0
	s0.781,2.047,0,2.828l-45.269,45.27C73.337,60.059,72.825,60.254,72.313,60.254z M73.188,40.099c-0.512,0-1.023-0.195-1.414-0.586
	c-0.781-0.781-0.781-2.047,0-2.828l24.24-24.24c0.781-0.781,2.047-0.781,2.828,0s0.781,2.047,0,2.828l-24.24,24.24
	C74.211,39.904,73.699,40.099,73.188,40.099z"/>
<g>
</g>
<g>
</g>
<g>
</g>
<g>
</g>
<g>
</g>
<g>
</g>
<g>
</g>
<g>
</g>
<g>
</g>
<g>
</g>
<g>
</g>
<g>
</g>
<g>
</g>
<g>
</g>
<g>
</g>
</svg>
