<?xml version="1.0" encoding="iso-8859-1"?>
<!-- Generator: Adobe Illustrator 17.1.0, SVG Export Plug-In . SVG Version: 6.00 Build 0)  -->
<!DOCTYPE svg PUBLIC "-//W3C//DTD SVG 1.1//EN" "http://www.w3.org/Graphics/SVG/1.1/DTD/svg11.dtd">
<svg version="1.1" id="Capa_1" xmlns="http://www.w3.org/2000/svg" xmlns:xlink="http://www.w3.org/1999/xlink" x="0px" y="0px"
	 viewBox="0 0 200.061 200.061" style="enable-background:new 0 0 200.061 200.061;" xml:space="preserve">
<path d="M115.47,200.061c-1.205,0-2.415-0.204-3.59-0.616c-2.804-0.981-5.029-3.008-6.269-5.707
	c-1.238-2.699-1.324-5.708-0.24-8.473l0,0l25.776-65.739c-7.107-4.177-12.822-10.36-16.479-17.956
	c-4.867-10.108-5.507-21.506-1.801-32.095c3.705-10.589,11.313-19.101,21.421-23.968s21.506-5.506,32.096-1.801
	c10.589,3.706,19.101,11.313,23.968,21.421c4.866,10.108,5.506,21.506,1.8,32.095c-3.705,10.589-11.313,19.101-21.421,23.968
	c-7.595,3.656-15.921,4.928-24.079,3.761l-20.843,67.465c-0.877,2.837-2.819,5.137-5.471,6.475
	C118.798,199.669,117.139,200.061,115.47,200.061z M109.096,186.726c-0.684,1.744-0.63,3.642,0.151,5.344
	c0.781,1.703,2.186,2.981,3.954,3.6c1.768,0.618,3.661,0.496,5.335-0.349c1.672-0.844,2.897-2.294,3.45-4.084l20.651-66.844
	l-3.888-1.36c-0.038-0.013-0.076-0.027-0.115-0.04c-0.038-0.013-0.075-0.027-0.113-0.04l-3.888-1.36L109.096,186.726z
	 M140.063,119.254c9.553,3.312,19.823,2.721,28.933-1.667c3.328-1.603,6.356-3.642,9.024-6.049l-53.208-18.622
	c0.369,1.064,0.803,2.114,1.299,3.145c3.396,7.052,9.333,12.359,16.721,14.944c1.042,0.365,1.592,1.506,1.227,2.548
	c-0.364,1.042-1.503,1.594-2.549,1.227c-8.395-2.938-15.144-8.97-19.002-16.984c-1.016-2.108-1.799-4.288-2.349-6.508l-5.169-1.809
	c0.584,3.545,1.68,7.029,3.282,10.356c4.388,9.112,12.048,15.978,21.579,19.344L140.063,119.254z M123.611,88.258l57.513,20.128
	c2.205-2.521,4.074-5.34,5.557-8.4l-4.847-10.065l-10.763,5.182c-0.992,0.481-2.188,0.062-2.669-0.934
	c-0.027-0.057-0.052-0.114-0.073-0.172l-5.098-10.586l-10.761,5.182c-0.996,0.48-2.189,0.061-2.67-0.934
	c-0.027-0.057-0.052-0.114-0.073-0.172L144.629,76.9l-10.763,5.182c-0.992,0.48-2.189,0.061-2.669-0.934
	c-0.027-0.057-0.052-0.114-0.073-0.172L126.127,70.6c-0.477,0.988-0.901,2.012-1.272,3.071
	C123.189,78.43,122.782,83.422,123.611,88.258z M182.768,85.252c0.223,0,0.446,0.037,0.661,0.112c0.5,0.175,0.911,0.542,1.141,1.02
	l4.126,8.568c1.296-4.035,1.903-8.188,1.827-12.317l-58.313-20.408c-1.347,1.29-2.577,2.716-3.669,4.267
	c0.085,0.11,0.16,0.23,0.223,0.36l5.179,10.754l10.755-5.178c0.477-0.23,1.027-0.261,1.528-0.086c0.5,0.175,0.911,0.542,1.141,1.02
	l5.179,10.754l10.753-5.178c0.479-0.23,1.027-0.261,1.529-0.086c0.5,0.175,0.911,0.542,1.141,1.02l5.179,10.754l10.755-5.178
	C182.173,85.318,182.47,85.252,182.768,85.252z M114.529,85.08l4.84,1.694c-0.482-4.642,0.025-9.369,1.538-13.917l-5.594,2.693
	C114.644,78.704,114.384,81.902,114.529,85.08z M135.848,59.261l54.341,19.018c-0.53-3.911-1.68-7.756-3.441-11.416
	c-4.403-9.145-12.104-16.028-21.685-19.381c-9.581-3.353-19.895-2.774-29.039,1.629c-3.659,1.762-6.956,4.051-9.809,6.778
	l5.101,1.785c8.695-7.154,20.813-9.74,32.193-5.756c1.043,0.365,1.593,1.506,1.228,2.548c-0.364,1.042-1.507,1.593-2.548,1.227
	C153.012,52.483,143.294,54.126,135.848,59.261z M123.238,59.087c-2.755,3.328-4.941,7.139-6.454,11.315l6.583-3.169
	c1.31-2.37,2.884-4.534,4.672-6.466L123.238,59.087z M77.544,160.916c-1.907,0-3.787-0.51-5.479-1.508
	c-2.559-1.508-4.347-3.93-5.035-6.819L50.652,83.893c-13.689,1.027-26.875-4.78-35.438-15.069c-0.104-0.102-0.197-0.215-0.278-0.339
	c-3.546-4.353-6.271-9.489-7.867-15.235C0.867,30.937,13.975,7.739,36.289,1.539l0,0C58.598-4.663,81.8,8.446,88,30.759
	c3.004,10.809,1.619,22.141-3.9,31.908c-4.146,7.339-10.255,13.135-17.621,16.837l21.413,67.287c0.9,2.831,0.617,5.828-0.796,8.44
	s-3.767,4.488-6.628,5.283C79.501,160.782,78.519,160.916,77.544,160.916z M54.696,83.607L70.92,151.66l0,0
	c0.435,1.822,1.563,3.35,3.176,4.302c1.613,0.951,3.496,1.2,5.302,0.698c1.805-0.501,3.289-1.685,4.181-3.333
	c0.891-1.647,1.069-3.539,0.501-5.324L62.865,81.336L54.696,83.607z M20.258,68.454c9.38,9.64,23.602,14.013,37.451,10.164
	c9.779-2.718,17.915-9.082,22.908-17.918c1.817-3.215,3.14-6.619,3.955-10.119L30.258,65.674c0.911,0.663,1.866,1.277,2.862,1.839
	c6.813,3.851,14.717,4.816,22.26,2.721c1.066-0.297,2.166,0.328,2.462,1.391c0.296,1.064-0.327,2.167-1.392,2.462
	c-11.231,3.123-22.749,0.07-30.919-7.101L20.258,68.454z M12.545,56.837c1.27,2.999,2.896,5.768,4.817,8.269l4.94-1.373
	c-3.002-3.475-5.326-7.626-6.705-12.298L12.545,56.837z M18.593,46.6c0.175,1.087,0.412,2.173,0.711,3.25
	c1.351,4.858,3.867,9.189,7.309,12.687l58.708-16.315c0.37-3.33,0.296-6.711-0.234-10.069l-9.727-5.496l-5.876,10.399
	c-0.544,0.962-1.761,1.303-2.726,0.757c-0.055-0.031-0.108-0.065-0.159-0.101l-10.229-5.779l-5.876,10.399
	c-0.543,0.961-1.761,1.302-2.726,0.757c-0.055-0.031-0.108-0.065-0.159-0.1L37.382,41.21l-5.876,10.399
	c-0.544,0.962-1.76,1.302-2.726,0.757c-0.055-0.031-0.108-0.064-0.159-0.1L18.593,46.6z M9.668,38.794
	c-0.365,4.252-0.015,8.632,1.144,12.981l3.59-6.354c-0.281-2.67-0.236-5.345,0.128-7.978L9.668,38.794z M18.221,41.85
	c0.138,0.042,0.271,0.1,0.398,0.171l10.393,5.872l5.872-10.392c0.261-0.462,0.694-0.801,1.206-0.943
	c0.51-0.144,1.056-0.076,1.52,0.186L48,42.615l5.872-10.391c0.544-0.961,1.763-1.3,2.725-0.757l10.393,5.872l5.872-10.392
	c0.261-0.462,0.694-0.801,1.206-0.943c0.51-0.145,1.056-0.077,1.52,0.186l8.278,4.678c-1.256-4.104-3.153-7.846-5.552-11.15
	L18.789,36.259C18.418,38.1,18.229,39.97,18.221,41.85z M36.824,3.465l0.535,1.927c-14.214,3.951-24.3,15.526-27.065,29.077
	l5.158-1.434c0.72-2.555,1.752-5.042,3.091-7.413c4.376-7.744,11.506-13.32,20.076-15.702c1.065-0.294,2.166,0.327,2.462,1.391
	c0.296,1.064-0.327,2.167-1.392,2.462c-7.54,2.096-13.813,7.002-17.664,13.816c-0.761,1.347-1.409,2.737-1.943,4.158l55.466-15.414
	C66.186,6.154,51.577,1.443,37.359,5.392L36.824,3.465z"/>
<g>
</g>
<g>
</g>
<g>
</g>
<g>
</g>
<g>
</g>
<g>
</g>
<g>
</g>
<g>
</g>
<g>
</g>
<g>
</g>
<g>
</g>
<g>
</g>
<g>
</g>
<g>
</g>
<g>
</g>
</svg>
