<?xml version="1.0" encoding="iso-8859-1"?>
<!-- Generator: Adobe Illustrator 17.1.0, SVG Export Plug-In . SVG Version: 6.00 Build 0)  -->
<!DOCTYPE svg PUBLIC "-//W3C//DTD SVG 1.1//EN" "http://www.w3.org/Graphics/SVG/1.1/DTD/svg11.dtd">
<svg version="1.1" id="Capa_1" xmlns="http://www.w3.org/2000/svg" xmlns:xlink="http://www.w3.org/1999/xlink" x="0px" y="0px"
	 viewBox="0 0 191.031 191.031" style="enable-background:new 0 0 191.031 191.031;" xml:space="preserve">
<path d="M41.832,184.432c-0.816,0-1.583-0.505-1.879-1.316c-0.378-1.038,0.157-2.186,1.195-2.563l51.744-18.852V89.34H74.568
	c-1.703,4.943-3.627,9.524-5.756,13.663c-1.123,2.183-3.351,3.539-5.813,3.539H20.664c-2.462,0-4.689-1.356-5.813-3.539
	C5.413,84.654,0,57.602,0,28.784c0-5.403,0.197-10.86,0.585-16.218C0.828,9.221,3.641,6.6,6.99,6.6h73.725
	c0.252-0.013,0.517,0.04,0.766,0.139c0.119,0.047,0.232,0.105,0.339,0.173l13.114,8.128l14.337-8.164
	c0.12-0.071,0.248-0.129,0.382-0.174c0.219-0.072,0.444-0.097,0.666-0.102h73.721c3.349,0,6.163,2.62,6.405,5.966
	c0.389,5.362,0.585,10.818,0.585,16.218c0,28.818-5.413,55.869-14.852,74.219c-1.123,2.183-3.351,3.539-5.813,3.539h-42.336
	c-2.463,0-4.69-1.356-5.813-3.539c-2.128-4.139-4.052-8.72-5.755-13.663H96.891v72.349l53.251,18.857
	c1.042,0.369,1.586,1.512,1.218,2.554s-1.512,1.587-2.553,1.218l-51.916-18.386v16.5c0,1.104-0.896,2-2,2s-2-0.896-2-2v-16.473
	L42.516,184.31C42.29,184.393,42.059,184.432,41.832,184.432z M119.854,86.899c1.734,5.193,3.714,9.983,5.921,14.273
	c0.435,0.845,1.299,1.369,2.256,1.369h42.336c0.957,0,1.821-0.524,2.256-1.369c9.157-17.802,14.408-44.187,14.408-72.389
	c0-3.577-0.088-7.181-0.262-10.764H111.63c-0.175,3.583-0.263,7.181-0.263,10.764c0,21.242,2.979,41.451,8.362,57.74
	C119.782,86.643,119.825,86.769,119.854,86.899z M4.262,18.02C4.088,21.601,4,25.204,4,28.784c0,28.203,5.251,54.588,14.408,72.389
	c0.435,0.845,1.299,1.369,2.256,1.369H63c0.957,0,1.821-0.524,2.256-1.369c2.207-4.291,4.187-9.078,5.921-14.271
	c0.029-0.133,0.072-0.26,0.126-0.38c5.382-16.288,8.361-36.498,8.361-57.738c0-3.583-0.088-7.181-0.263-10.764H4.262z M96.891,85.34
	h18.267c-5.024-16.26-7.79-35.956-7.79-56.556c0-5.523,0.205-11.08,0.611-16.569l-11.087,6.314V85.34z M75.874,85.34h17.017v-66.86
	l-9.825-6.089c0.397,5.432,0.598,10.929,0.598,16.394C83.664,49.383,80.898,69.079,75.874,85.34z M111.861,14.02h74.677
	c-0.026-0.389-0.053-0.777-0.081-1.165c-0.092-1.265-1.153-2.255-2.416-2.255h-71.923C112.023,11.737,111.938,12.878,111.861,14.02z
	 M4.493,14.02H79.17c-0.077-1.143-0.162-2.283-0.256-3.42H6.99c-1.263,0-2.324,0.99-2.416,2.255
	C4.546,13.243,4.519,13.632,4.493,14.02z M132.195,97.515c-0.677,0-1.337-0.344-1.713-0.967c-0.221-0.367-5.469-9.218-9.988-29.303
	c-4.51-20.043-3.347-41.763-3.295-42.678c0.062-1.102,1.012-1.943,2.109-1.884c1.103,0.063,1.946,1.007,1.884,2.109
	c-0.013,0.219-1.18,22.091,3.204,41.573c4.355,19.358,9.462,28.034,9.514,28.12c0.566,0.946,0.26,2.175-0.686,2.742
	C132.901,97.424,132.545,97.515,132.195,97.515z M23.489,97.515c-0.677,0-1.337-0.344-1.713-0.967
	c-0.221-0.367-5.469-9.218-9.988-29.303c-4.51-20.043-3.347-41.763-3.296-42.678c0.063-1.102,1.014-1.943,2.11-1.884
	c1.103,0.063,1.946,1.007,1.884,2.109c-0.013,0.219-1.18,22.091,3.204,41.573c4.355,19.358,9.462,28.034,9.514,28.12
	c0.566,0.946,0.26,2.175-0.686,2.742C24.195,97.424,23.84,97.515,23.489,97.515z"/>
<g>
</g>
<g>
</g>
<g>
</g>
<g>
</g>
<g>
</g>
<g>
</g>
<g>
</g>
<g>
</g>
<g>
</g>
<g>
</g>
<g>
</g>
<g>
</g>
<g>
</g>
<g>
</g>
<g>
</g>
</svg>
