<?xml version="1.0" encoding="iso-8859-1"?>
<!-- Generator: Adobe Illustrator 17.1.0, SVG Export Plug-In . SVG Version: 6.00 Build 0)  -->
<!DOCTYPE svg PUBLIC "-//W3C//DTD SVG 1.1//EN" "http://www.w3.org/Graphics/SVG/1.1/DTD/svg11.dtd">
<svg version="1.1" id="Capa_1" xmlns="http://www.w3.org/2000/svg" xmlns:xlink="http://www.w3.org/1999/xlink" x="0px" y="0px"
	 viewBox="0 0 206.792 206.792" style="enable-background:new 0 0 206.792 206.792;" xml:space="preserve">
<path d="M58.653,206.792c-2.226,0-4.318-0.867-5.892-2.441c-3.249-3.249-3.249-8.536,0-11.785L154.476,90.851
	c-2.156-3.173-3.314-6.914-3.314-10.834c0-5.164,2.011-10.02,5.663-13.671l10.37-10.37c7.537-7.539,19.805-7.539,27.342,0l6.6,6.6
	c7.537,7.537,7.538,19.803,0,27.341l-10.371,10.371c-6.65,6.651-16.984,7.433-24.502,2.346L64.546,204.35
	C62.973,205.924,60.88,206.792,58.653,206.792z M157.06,93.923L55.59,195.393c-1.689,1.689-1.689,4.439,0,6.129
	c0.818,0.818,1.906,1.27,3.063,1.27c1.158,0,2.246-0.451,3.064-1.27l0,0l101.47-101.471L157.06,93.923z M167.094,98.242
	c2.78,2.399,6.29,3.708,10,3.708c4.097,0,7.947-1.595,10.843-4.49l10.371-10.371c5.978-5.979,5.978-15.706,0-21.685l-6.6-6.6
	c-5.979-5.979-15.707-5.979-21.686,0l-10.37,10.37c-2.896,2.896-4.491,6.747-4.491,10.843c0,3.713,1.312,7.226,3.714,10.007
	L167.094,98.242z M8.331,156.464c-2.134,0-4.268-0.813-5.893-2.437l0,0c-3.248-3.249-3.248-8.536,0-11.785L104.155,40.526
	c-5.088-7.518-4.306-17.85,2.347-24.502l10.37-10.371c7.537-7.537,19.805-7.537,27.342,0l6.6,6.6c7.537,7.538,7.537,19.804,0,27.342
	l-10.371,10.371l0,0c-6.651,6.651-16.986,7.436-24.502,2.346L14.224,154.028C12.599,155.652,10.465,156.464,8.331,156.464z
	 M5.267,151.2c1.689,1.688,4.439,1.688,6.129,0l101.47-101.471l-6.128-6.128L5.267,145.071C3.578,146.76,3.578,149.509,5.267,151.2z
	 M116.768,47.915c6.016,5.189,15.139,4.929,20.847-0.777l10.371-10.371c5.978-5.979,5.978-15.707,0-21.686l-6.6-6.6
	c-5.979-5.978-15.705-5.978-21.686,0l-10.37,10.371c-2.896,2.896-4.491,6.747-4.491,10.843c0,3.713,1.312,7.226,3.715,10.007
	L116.768,47.915z M165.309,89.453c-0.512,0-1.023-0.195-1.414-0.586c-5.233-5.234-5.233-13.751,0-18.984l6.836-6.836
	c5.232-5.234,13.75-5.234,18.984,0l4.35,4.351c2.536,2.535,3.933,5.906,3.933,9.492c0,3.585-1.396,6.957-3.933,9.492
	c-0.781,0.781-2.047,0.781-2.828,0s-0.781-2.047,0-2.828c1.78-1.78,2.761-4.147,2.761-6.664c0-2.518-0.98-4.884-2.761-6.664
	l-4.35-4.351c-3.677-3.675-9.653-3.673-13.328,0l-6.836,6.836c-3.674,3.674-3.674,9.653,0,13.328c0.781,0.781,0.781,2.048,0,2.828
	C166.332,89.257,165.82,89.453,165.309,89.453z M114.986,39.13c-0.512,0-1.023-0.195-1.414-0.586
	c-5.233-5.234-5.233-13.751,0-18.984l6.836-6.836c5.232-5.234,13.75-5.234,18.984,0l4.35,4.35c5.233,5.234,5.233,13.751,0,18.984
	c-0.781,0.781-2.047,0.781-2.828,0s-0.781-2.047,0-2.828c3.674-3.674,3.674-9.653,0-13.328l-4.35-4.35
	c-3.677-3.674-9.655-3.674-13.328,0l-6.836,6.836c-3.674,3.674-3.674,9.653,0,13.328c0.781,0.781,0.781,2.048,0,2.828
	C116.01,38.935,115.498,39.13,114.986,39.13z"/>
<g>
</g>
<g>
</g>
<g>
</g>
<g>
</g>
<g>
</g>
<g>
</g>
<g>
</g>
<g>
</g>
<g>
</g>
<g>
</g>
<g>
</g>
<g>
</g>
<g>
</g>
<g>
</g>
<g>
</g>
</svg>
