<?xml version="1.0" encoding="iso-8859-1"?>
<!-- Generator: Adobe Illustrator 17.1.0, SVG Export Plug-In . SVG Version: 6.00 Build 0)  -->
<!DOCTYPE svg PUBLIC "-//W3C//DTD SVG 1.1//EN" "http://www.w3.org/Graphics/SVG/1.1/DTD/svg11.dtd">
<svg version="1.1" id="Capa_1" xmlns="http://www.w3.org/2000/svg" xmlns:xlink="http://www.w3.org/1999/xlink" x="0px" y="0px"
	 viewBox="0 0 202.5 202.5" style="enable-background:new 0 0 202.5 202.5;" xml:space="preserve">
<path d="M138.087,202.5H64.412c-1.104,0-2-0.896-2-2c0-5.79,4.71-10.5,10.5-10.5h1.439c9.524,0,17.273-7.748,17.273-17.272v-13.099
	c-22.793-3.227-40.379-22.865-40.379-46.535v-37.25h-4.575c-1.104,0-2-0.896-2-2s0.896-2,2-2H60.75V40.5
	c0-22.332,18.168-40.5,40.5-40.5s40.5,18.168,40.5,40.5v31.344h14.079c1.104,0,2,0.896,2,2s-0.896,2-2,2h-4.575v37.25
	c0,23.67-17.586,43.309-40.379,46.535v13.099c0,9.524,7.748,17.272,17.272,17.272h1.439c5.79,0,10.5,4.71,10.5,10.5
	C140.087,201.604,139.191,202.5,138.087,202.5z M66.727,198.5h69.046c-0.846-2.608-3.299-4.5-6.186-4.5h-1.439
	c-11.729,0-21.272-9.543-21.272-21.272v-12.634h-11.25v12.634c0,11.729-9.543,21.272-21.273,21.272h-1.439
	C70.025,194,67.572,195.892,66.727,198.5z M98.246,156.094h6.008c23.71,0,43-19.29,43-43v-37.25h-5.504V109
	c0,22.332-18.168,40.5-40.5,40.5s-40.5-18.168-40.5-40.5V75.844h-5.504v37.25C55.246,136.804,74.536,156.094,98.246,156.094z
	 M64.75,105v4c0,20.126,16.374,36.5,36.5,36.5s36.5-16.374,36.5-36.5v-4h-18.325c-3.584,0-6.5-2.916-6.5-6.5s2.916-6.5,6.5-6.5
	h18.325v-8.25h-18.325c-3.584,0-6.5-2.916-6.5-6.5s2.916-6.5,6.5-6.5h18.325V62.5h-18.325c-3.584,0-6.5-2.916-6.5-6.5
	s2.916-6.5,6.5-6.5h18.325v-9c0-20.126-16.374-36.5-36.5-36.5s-36.5,16.374-36.5,36.5v9h18.325c3.584,0,6.5,2.916,6.5,6.5
	s-2.916,6.5-6.5,6.5H64.75v8.25h18.325c3.584,0,6.5,2.916,6.5,6.5s-2.916,6.5-6.5,6.5H64.75V92h18.325c3.584,0,6.5,2.916,6.5,6.5
	s-2.916,6.5-6.5,6.5H64.75z M119.425,96c-1.379,0-2.5,1.121-2.5,2.5s1.121,2.5,2.5,2.5h18.325v-5H119.425z M64.75,101h18.325
	c1.379,0,2.5-1.121,2.5-2.5s-1.121-2.5-2.5-2.5H64.75V101z M119.425,74.75c-1.379,0-2.5,1.121-2.5,2.5s1.121,2.5,2.5,2.5h18.325v-5
	H119.425z M64.75,79.75h18.325c1.379,0,2.5-1.121,2.5-2.5s-1.121-2.5-2.5-2.5H64.75V79.75z M119.425,53.5
	c-1.379,0-2.5,1.121-2.5,2.5s1.121,2.5,2.5,2.5h18.325v-5H119.425z M64.75,58.5h18.325c1.379,0,2.5-1.121,2.5-2.5
	s-1.121-2.5-2.5-2.5H64.75V58.5z M128.653,41.087c-1.104,0-2-0.896-2-2c0-14.008-11.396-25.403-25.403-25.403
	S75.847,25.079,75.847,39.087c0,1.104-0.896,2-2,2s-2-0.896-2-2c0-16.213,13.19-29.403,29.403-29.403s29.403,13.19,29.403,29.403
	C130.653,40.191,129.758,41.087,128.653,41.087z"/>
<g>
</g>
<g>
</g>
<g>
</g>
<g>
</g>
<g>
</g>
<g>
</g>
<g>
</g>
<g>
</g>
<g>
</g>
<g>
</g>
<g>
</g>
<g>
</g>
<g>
</g>
<g>
</g>
<g>
</g>
</svg>
