<?xml version="1.0" encoding="iso-8859-1"?>
<!-- Generator: Adobe Illustrator 17.1.0, SVG Export Plug-In . SVG Version: 6.00 Build 0)  -->
<!DOCTYPE svg PUBLIC "-//W3C//DTD SVG 1.1//EN" "http://www.w3.org/Graphics/SVG/1.1/DTD/svg11.dtd">
<svg version="1.1" id="Capa_1" xmlns="http://www.w3.org/2000/svg" xmlns:xlink="http://www.w3.org/1999/xlink" x="0px" y="0px"
	 viewBox="0 0 199.962 199.962" style="enable-background:new 0 0 199.962 199.962;" xml:space="preserve">
<path d="M99.981,181.017c-4.923,0-9.759-0.357-14.494-1.048c-0.088-0.007-0.174-0.02-0.259-0.038
	c-23.804-3.534-44.895-15.488-60.143-32.729c-0.142-0.083-0.274-0.186-0.396-0.308c-0.189-0.188-0.332-0.405-0.429-0.637
	C9.147,128.737,0,105.936,0,81.037c0-1.104,0.895-2,1.999-2l6.522-0.003c0,0,0,0,0,0c0.531,0,1.04,0.211,1.415,0.586
	s0.586,0.884,0.586,1.414c0,41.427,33.703,75.13,75.129,75.13s75.129-33.703,75.129-75.13c0-0.53,0.211-1.039,0.586-1.414
	s0.884-0.586,1.414-0.586l0,0l35.182,0.003c1.104,0,2,0.896,2,2c0,33.463-16.525,63.14-41.844,81.297
	c-0.058,0.047-0.117,0.089-0.179,0.128C141.58,174.141,121.57,181.017,99.981,181.017z M87.651,176.229
	c4.038,0.52,8.153,0.788,12.33,0.788c19.915,0,38.432-6.097,53.784-16.521l-18.147-18.147
	c-13.152,10.737-29.811,17.337-47.967,17.789V176.229z M28.921,145.491c14.096,15.526,33.199,26.431,54.73,30.137v-15.489
	c-19.072-0.475-36.492-7.733-49.931-19.446L28.921,145.491z M138.661,139.735l18.412,18.412
	c23.08-17.134,38.237-44.372,38.869-75.11l-31.186-0.003C164.196,105.496,154.233,125.66,138.661,139.735z M4.021,83.036
	c0.464,22.57,8.756,43.251,22.268,59.432l4.481-4.481C16.276,124.015,7.084,104.58,6.547,83.035L4.021,83.036z M85.651,143.123
	c-34.236,0-62.089-27.853-62.089-62.089s27.853-62.089,62.089-62.089c34.236,0,62.089,27.853,62.089,62.089
	S119.888,143.123,85.651,143.123z M85.651,22.945c-32.03,0-58.089,26.059-58.089,58.089s26.059,58.089,58.089,58.089
	c30.875,0,56.202-24.214,57.989-54.648l-8.492,4.677c-3.912,24.006-25.085,42.034-49.497,42.034
	c-27.653,0-50.151-22.498-50.151-50.151c0-1.104,0.896-2,2-2s2,0.896,2,2c0,25.448,20.703,46.151,46.151,46.151
	c21.378,0,40.058-15.022,44.917-35.511l-8.214,4.524c-6.167,14.937-20.494,24.547-36.702,24.547
	c-21.897,0-39.712-17.814-39.712-39.712s17.815-39.712,39.712-39.712c16.208,0,30.535,9.61,36.702,24.547l21.287,11.725
	C141.853,47.159,116.526,22.945,85.651,22.945z M85.651,45.322c-19.691,0-35.712,16.021-35.712,35.712s16.021,35.712,35.712,35.712
	c14.795,0,27.847-8.904,33.251-22.686c0.17-0.435,0.488-0.796,0.897-1.021l21.796-12.005l-21.796-12.005
	c-0.409-0.226-0.727-0.587-0.897-1.021C113.498,54.226,100.446,45.322,85.651,45.322z"/>
<g>
</g>
<g>
</g>
<g>
</g>
<g>
</g>
<g>
</g>
<g>
</g>
<g>
</g>
<g>
</g>
<g>
</g>
<g>
</g>
<g>
</g>
<g>
</g>
<g>
</g>
<g>
</g>
<g>
</g>
</svg>
