<?xml version="1.0" encoding="iso-8859-1"?>
<!-- Generator: Adobe Illustrator 17.1.0, SVG Export Plug-In . SVG Version: 6.00 Build 0)  -->
<!DOCTYPE svg PUBLIC "-//W3C//DTD SVG 1.1//EN" "http://www.w3.org/Graphics/SVG/1.1/DTD/svg11.dtd">
<svg version="1.1" id="Capa_1" xmlns="http://www.w3.org/2000/svg" xmlns:xlink="http://www.w3.org/1999/xlink" x="0px" y="0px"
	 viewBox="0 0 202.417 202.417" style="enable-background:new 0 0 202.417 202.417;" xml:space="preserve">
<path d="M147.777,202.417H20.573c-9.453,0-17.143-7.69-17.143-17.143v-78.745c0-7.977,5.476-14.698,12.866-16.604V79.387
	c0-11.188,9.102-20.289,20.289-20.289h108.874v-14.91h-2.296c-1.104,0-2-0.896-2-2V30.321c-0.753,0.116-1.511,0.174-2.271,0.174
	c-8.408,0-15.248-6.84-15.248-15.247C123.644,6.84,130.484,0,138.892,0s15.248,6.84,15.248,15.248c0,0.111-0.003,0.222-0.009,0.332
	c0.026,0.129,0.04,0.263,0.04,0.399v26.208c0,1.104-0.896,2-2,2h-2.712v14.91h21.706v-14.91h-2.511c-1.104,0-2-0.896-2-2V15.979
	c0-0.137,0.014-0.271,0.04-0.399c-0.005-0.11-0.009-0.221-0.009-0.332C166.685,6.84,173.525,0,181.933,0s15.248,6.84,15.248,15.248
	c0,8.407-6.84,15.247-15.248,15.247c-0.759,0-1.518-0.058-2.271-0.174v11.866c0,1.104-0.896,2-2,2h-2.498v14.91h5.514
	c10.095,0,18.308,8.213,18.308,18.309v83.004c0,9.386-7.162,17.13-16.308,18.054v3.004c0,1.104-0.896,2-2,2H164.92v1.807
	C164.92,194.727,157.23,202.417,147.777,202.417z M20.573,93.386c-7.247,0-13.143,5.896-13.143,13.144v78.745
	c0,7.247,5.896,13.143,13.143,13.143h127.204c7.247,0,13.143-5.896,13.143-13.143v-78.745c0-7.247-5.896-13.144-13.143-13.144
	H20.573z M164.92,179.468h13.758v-5.824H164.92V179.468z M164.92,169.644h15.758c1.104,0,2,0.896,2,2v2.793
	c6.935-0.902,12.308-6.849,12.308-14.026V77.406c0-7.89-6.418-14.309-14.308-14.309h-5.514v57.905c0,6.05-4.447,11.08-10.245,11.993
	V169.644z M149.459,89.468c8.667,0.848,15.461,8.176,15.461,17.062v22.392c3.578-0.856,6.245-4.082,6.245-7.918V63.098h-21.706
	V89.468z M36.585,63.098c-8.981,0-16.289,7.308-16.289,16.289v10.001c0.093-0.001,0.185-0.002,0.277-0.002h9.765v-1.501
	c0-4.781,3.891-8.672,8.672-8.672h34.797c1.104,0,2,0.896,2,2v2.31h16.735v-2.31c0-1.104,0.896-2,2-2h34.797
	c4.782,0,8.672,3.891,8.672,8.672v1.501h7.447V63.098H36.585z M117.277,89.386h16.735v-1.501c0-2.576-2.096-4.672-4.672-4.672
	h-12.063V89.386z M96.543,89.386h16.734v-6.173H96.543V89.386z M75.808,89.386h16.735v-1.863H75.808V89.386z M55.073,89.386h16.734
	v-6.173H55.073V89.386z M34.339,89.386h16.735v-6.173H39.011c-2.576,0-4.672,2.096-4.672,4.672V89.386z M170.654,40.188h5.008
	V27.778c0-0.646,0.312-1.251,0.836-1.626s1.199-0.474,1.809-0.268c1.188,0.405,2.408,0.61,3.625,0.61
	c6.202,0,11.248-5.046,11.248-11.247C193.18,9.046,188.135,4,181.933,4s-11.248,5.046-11.248,11.248c0,0.126,0.01,0.25,0.018,0.374
	l0.016,0.25c0.012,0.212-0.011,0.423-0.065,0.624V40.188z M145.162,40.188h5.008v-23.73c-0.052-0.189-0.076-0.387-0.065-0.585
	l0.016-0.25c0.008-0.124,0.018-0.248,0.018-0.374C150.139,9.046,145.094,4,138.892,4s-11.248,5.046-11.248,11.248
	c0,6.201,5.045,11.247,11.248,11.247c1.218,0,2.438-0.205,3.625-0.61c0.61-0.207,1.283-0.108,1.809,0.268
	c0.524,0.375,0.836,0.98,0.836,1.626V40.188z M13.403,186.69c-1.104,0-2-0.896-2-2v-75.25c0-6.627,5.391-12.018,12.018-12.018
	h122.316c1.104,0,2,0.896,2,2s-0.896,2-2,2H23.421c-4.421,0-8.018,3.597-8.018,8.018v75.25
	C15.403,185.795,14.508,186.69,13.403,186.69z M131.972,159.613H36.378c-3.865,0-7.01-3.145-7.01-7.011v-0.282
	c0-6.594,2.569-12.6,6.758-17.068c0.21-0.232,0.429-0.458,0.656-0.674c4.515-4.469,10.721-7.232,17.561-7.232h59.665
	c6.469,0,12.371,2.472,16.812,6.521c0.833,0.665,1.578,1.436,2.213,2.291c3.709,4.359,5.95,10.005,5.95,16.163v0.282
	C138.983,156.469,135.838,159.613,131.972,159.613z M125.157,155.613h6.815c1.66,0,3.01-1.351,3.01-3.011v-0.282
	c0-1.445-0.147-2.857-0.427-4.222C132.968,152.002,129.429,154.912,125.157,155.613z M101.76,155.613h19.403
	c-5.833-0.957-10.299-6.034-10.299-12.134c0-5.297,3.367-9.822,8.073-11.549c-1.582-0.383-3.232-0.585-4.93-0.585H101.76
	c-2.306,3.632-3.52,7.805-3.52,12.134C98.24,147.808,99.454,151.981,101.76,155.613z M71.145,155.613h26.012
	c-1.916-3.739-2.916-7.873-2.916-12.134c0-4.262,1-8.395,2.916-12.134H71.145c1.916,3.739,2.916,7.872,2.916,12.134
	C74.061,147.74,73.061,151.874,71.145,155.613z M47.254,155.613h19.287c2.306-3.632,3.52-7.806,3.52-12.134
	c0-4.329-1.214-8.502-3.52-12.134H54.343c-1.683,0-3.32,0.199-4.89,0.575c4.72,1.719,8.1,6.251,8.1,11.559
	C57.553,149.579,53.088,154.656,47.254,155.613z M33.818,147.99c-0.294,1.397-0.45,2.847-0.45,4.33v0.282
	c0,1.66,1.351,3.011,3.01,3.011h6.881C38.948,154.906,35.384,151.948,33.818,147.99z M123.16,135.184
	c-4.574,0-8.296,3.722-8.296,8.296s3.722,8.296,8.296,8.296s8.296-3.722,8.296-8.296c0-1.805-0.579-3.477-1.562-4.84
	c-0.522-0.605-1.078-1.181-1.665-1.723C126.827,135.831,125.068,135.184,123.16,135.184z M39.073,137.955
	c-1.313,1.469-2.112,3.404-2.112,5.524c0,4.574,3.722,8.296,8.296,8.296c4.574,0,8.296-3.722,8.296-8.296s-3.722-8.296-8.296-8.296
	c-2.201,0-4.205,0.861-5.691,2.266C39.398,137.615,39.234,137.783,39.073,137.955z"/>
<g>
</g>
<g>
</g>
<g>
</g>
<g>
</g>
<g>
</g>
<g>
</g>
<g>
</g>
<g>
</g>
<g>
</g>
<g>
</g>
<g>
</g>
<g>
</g>
<g>
</g>
<g>
</g>
<g>
</g>
</svg>
