<?xml version="1.0" encoding="iso-8859-1"?>
<!-- Generator: Adobe Illustrator 17.1.0, SVG Export Plug-In . SVG Version: 6.00 Build 0)  -->
<!DOCTYPE svg PUBLIC "-//W3C//DTD SVG 1.1//EN" "http://www.w3.org/Graphics/SVG/1.1/DTD/svg11.dtd">
<svg version="1.1" id="Capa_1" xmlns="http://www.w3.org/2000/svg" xmlns:xlink="http://www.w3.org/1999/xlink" x="0px" y="0px"
	 viewBox="0 0 196.518 196.518" style="enable-background:new 0 0 196.518 196.518;" xml:space="preserve">
<path d="M37.323,196.518H14.83c-5.02,0-9.103-4.083-9.103-9.103V43.954c0-5.02,4.083-9.103,9.103-9.103h22.493
	c5.02,0,9.103,4.083,9.103,9.103v143.461C46.426,192.435,42.343,196.518,37.323,196.518z M14.83,38.852
	c-2.814,0-5.103,2.289-5.103,5.103v143.461c0,2.813,2.289,5.103,5.103,5.103h22.493c2.814,0,5.103-2.289,5.103-5.103V43.954
	c0-2.813-2.289-5.103-5.103-5.103H14.83z M26.077,185.669c-4.851,0-8.796-3.946-8.796-8.796s3.946-8.796,8.796-8.796
	c4.85,0,8.796,3.946,8.796,8.796S30.927,185.669,26.077,185.669z M26.077,172.077c-2.645,0-4.796,2.151-4.796,4.796
	s2.152,4.796,4.796,4.796s4.796-2.151,4.796-4.796S28.721,172.077,26.077,172.077z M85.445,172.053H62.952
	c-5.02,0-9.103-4.084-9.103-9.104V43.954c0-5.02,4.083-9.103,9.103-9.103h22.493c5.019,0,9.103,4.083,9.103,9.103v118.995
	C94.547,167.969,90.464,172.053,85.445,172.053z M62.952,38.852c-2.814,0-5.103,2.289-5.103,5.103v118.995
	c0,2.814,2.289,5.104,5.103,5.104h22.493c2.813,0,5.103-2.289,5.103-5.104V43.954c0-2.813-2.289-5.103-5.103-5.103H62.952z
	 M74.198,162c-4.85,0-8.796-3.946-8.796-8.796s3.946-8.796,8.796-8.796s8.796,3.946,8.796,8.796S79.048,162,74.198,162z
	 M74.198,148.408c-2.645,0-4.796,2.151-4.796,4.796S71.553,158,74.198,158s4.796-2.151,4.796-4.796S76.843,148.408,74.198,148.408z
	 M133.566,143.51h-22.492c-5.02,0-9.103-4.084-9.103-9.104V43.954c0-5.02,4.083-9.103,9.103-9.103h22.492
	c5.02,0,9.103,4.083,9.103,9.103v90.452C142.669,139.426,138.585,143.51,133.566,143.51z M111.073,38.852
	c-2.814,0-5.103,2.289-5.103,5.103v90.452c0,2.814,2.289,5.104,5.103,5.104h22.492c2.814,0,5.103-2.289,5.103-5.104V43.954
	c0-2.813-2.289-5.103-5.103-5.103H111.073z M122.32,132.651c-4.85,0-8.796-3.946-8.796-8.796s3.946-8.796,8.796-8.796
	s8.796,3.946,8.796,8.796S127.17,132.651,122.32,132.651z M122.32,119.06c-2.645,0-4.796,2.151-4.796,4.796s2.151,4.796,4.796,4.796
	s4.796-2.151,4.796-4.796S124.964,119.06,122.32,119.06z M181.687,117.685h-22.492c-5.02,0-9.103-4.083-9.103-9.103V43.954
	c0-5.02,4.083-9.103,9.103-9.103h22.492c5.02,0,9.103,4.083,9.103,9.103v64.628C190.79,113.602,186.707,117.685,181.687,117.685z
	 M159.195,38.852c-2.814,0-5.103,2.289-5.103,5.103v64.628c0,2.813,2.289,5.103,5.103,5.103h22.492c2.814,0,5.103-2.289,5.103-5.103
	V43.954c0-2.813-2.289-5.103-5.103-5.103H159.195z M170.441,108.204c-4.85,0-8.796-3.946-8.796-8.796s3.946-8.796,8.796-8.796
	s8.796,3.946,8.796,8.796S175.291,108.204,170.441,108.204z M170.441,94.612c-2.645,0-4.796,2.151-4.796,4.796
	s2.151,4.796,4.796,4.796s4.796-2.151,4.796-4.796S173.086,94.612,170.441,94.612z M170.441,61.209c-4.85,0-8.796-3.946-8.796-8.796
	s3.946-8.796,8.796-8.796s8.796,3.946,8.796,8.796S175.291,61.209,170.441,61.209z M170.441,47.617
	c-2.645,0-4.796,2.151-4.796,4.796s2.151,4.796,4.796,4.796s4.796-2.151,4.796-4.796S173.086,47.617,170.441,47.617z M122.32,61.209
	c-4.85,0-8.796-3.946-8.796-8.796s3.946-8.796,8.796-8.796s8.796,3.946,8.796,8.796S127.17,61.209,122.32,61.209z M122.32,47.617
	c-2.645,0-4.796,2.151-4.796,4.796s2.151,4.796,4.796,4.796s4.796-2.151,4.796-4.796S124.964,47.617,122.32,47.617z M74.198,61.209
	c-4.85,0-8.796-3.946-8.796-8.796s3.946-8.796,8.796-8.796s8.796,3.946,8.796,8.796S79.048,61.209,74.198,61.209z M74.198,47.617
	c-2.645,0-4.796,2.151-4.796,4.796s2.151,4.796,4.796,4.796s4.796-2.151,4.796-4.796S76.843,47.617,74.198,47.617z M26.077,61.209
	c-4.851,0-8.796-3.946-8.796-8.796s3.946-8.796,8.796-8.796c4.85,0,8.796,3.946,8.796,8.796S30.927,61.209,26.077,61.209z
	 M26.077,47.617c-2.645,0-4.796,2.151-4.796,4.796s2.152,4.796,4.796,4.796s4.796-2.151,4.796-4.796S28.721,47.617,26.077,47.617z
	 M179.584,21.742c-3.782,0-7.284-1.993-9.247-5.171H11.428c-3.144,0-5.701-2.557-5.701-5.7S8.285,5.17,11.428,5.17h158.909
	c1.932-3.122,5.367-5.112,9.077-5.169L179.578,0c5.824,0,10.701,4.73,10.872,10.545c0.087,2.968-1.002,5.772-3.067,7.899
	C185.318,20.571,182.548,21.742,179.584,21.742z M11.428,9.17c-0.938,0-1.701,0.763-1.701,1.701c0,0.938,0.763,1.7,1.701,1.7
	h160.101c0.781,0,1.49,0.454,1.817,1.163c1.121,2.435,3.569,4.008,6.238,4.008c1.874,0,3.625-0.74,4.93-2.085
	c1.305-1.344,1.994-3.118,1.938-4.995C186.346,7.051,183.198,4,179.578,4l-0.103,0.001c-2.623,0.04-5.028,1.612-6.13,4.005
	c-0.327,0.71-1.036,1.164-1.817,1.164H11.428z"/>
<g>
</g>
<g>
</g>
<g>
</g>
<g>
</g>
<g>
</g>
<g>
</g>
<g>
</g>
<g>
</g>
<g>
</g>
<g>
</g>
<g>
</g>
<g>
</g>
<g>
</g>
<g>
</g>
<g>
</g>
</svg>
